M48
; DRILL file {KiCad 8.0.4} date 2024-08-08T10:27:56+0400
; FORMAT={-:-/ absolute / metric / decimal}
; #@! TF.CreationDate,2024-08-08T10:27:56+04:00
; #@! TF.GenerationSoftware,Kicad,Pcbnew,8.0.4
; #@! TF.FileFunction,Plated,1,2,PTH
FMAT,2
METRIC
; #@! TA.AperFunction,Plated,PTH,ViaDrill
T1C0.300
; #@! TA.AperFunction,Plated,PTH,ViaDrill
T2C0.400
; #@! TA.AperFunction,Plated,PTH,ComponentDrill
T3C0.400
; #@! TA.AperFunction,Plated,PTH,ComponentDrill
T4C0.750
; #@! TA.AperFunction,Plated,PTH,ComponentDrill
T5C0.900
; #@! TA.AperFunction,Plated,PTH,ComponentDrill
T6C1.000
; #@! TA.AperFunction,Plated,PTH,ComponentDrill
T7C1.600
; #@! TA.AperFunction,Plated,PTH,ComponentDrill
T8C1.750
; #@! TA.AperFunction,Plated,PTH,ComponentDrill
T9C2.200
; #@! TA.AperFunction,Plated,PTH,ComponentDrill
T10C3.000
; #@! TA.AperFunction,Plated,PTH,ComponentDrill
T11C5.000
%
G90
G05
T1
X72.173Y-126.529
X75.322Y-137.486
X80.205Y-79.335
X80.8Y-95.805
X82.12Y-76.795
X82.5Y-104.0
X83.507Y-95.283
X83.51Y-96.17
X86.78Y-63.45
X88.963Y-117.912
X90.754Y-129.172
X93.49Y-72.85
X94.292Y-76.471
X105.25Y-110.53
X105.557Y-79.296
X107.647Y-76.9
X109.43Y-77.88
X124.468Y-77.452
X132.667Y-69.046
X134.04Y-83.82
X144.417Y-69.277
X149.705Y-76.32
X169.186Y-84.434
X178.112Y-79.199
X188.208Y-79.991
X190.63Y-97.67
T2
X80.06Y-65.285
X80.8Y-96.76
T3
X77.4Y-66.23
X77.4Y-68.77
X77.4Y-71.31
X77.4Y-73.85
X77.4Y-76.39
X77.4Y-78.93
X77.4Y-81.47
X77.4Y-84.01
X77.4Y-86.55
X77.4Y-89.09
X77.4Y-91.63
X77.4Y-94.17
X84.2Y-66.23
X84.2Y-68.77
X84.2Y-71.31
X84.2Y-73.85
X84.2Y-76.39
X84.2Y-78.93
X84.2Y-81.47
X84.2Y-84.01
X84.2Y-86.55
X84.2Y-89.09
X84.2Y-91.63
X84.2Y-94.17
T4
X86.3Y-103.0
X86.3Y-105.0
T5
X76.3Y-62.475
X79.3Y-62.475
T6
X73.18Y-66.23
X73.18Y-68.77
X73.18Y-71.31
X73.18Y-73.85
X73.18Y-76.39
X73.18Y-78.93
X73.18Y-81.47
X73.18Y-84.01
X73.18Y-86.55
X73.18Y-89.09
X73.18Y-91.63
X73.18Y-94.17
X76.99Y-98.82
X79.53Y-98.82
X82.07Y-98.82
X84.61Y-98.82
X88.42Y-66.23
X88.42Y-68.77
X88.42Y-71.31
X88.42Y-73.85
X88.42Y-76.39
X88.42Y-78.93
X88.42Y-81.47
X88.42Y-84.01
X88.42Y-86.55
X88.42Y-89.09
X88.42Y-91.63
X88.42Y-94.17
T7
X73.696Y-126.813
X76.453Y-136.426
X90.441Y-118.38
X92.005Y-128.257
X95.0Y-60.85
X95.0Y-77.85
X95.0Y-94.85
X105.0Y-60.85
X105.0Y-77.85
X105.0Y-94.85
X108.475Y-121.909
X112.0Y-60.85
X112.0Y-77.85
X112.0Y-94.85
X118.451Y-122.606
X122.0Y-60.85
X122.0Y-77.85
X122.0Y-94.85
X133.375Y-53.425
X133.375Y-70.425
X133.375Y-87.425
X143.375Y-53.425
X143.375Y-70.425
X143.375Y-87.425
X156.467Y-89.241
X157.209Y-72.257
X157.95Y-55.273
X166.458Y-89.677
X167.199Y-72.693
X167.941Y-55.709
X177.216Y-97.569
X178.697Y-80.634
X180.179Y-63.699
X187.178Y-98.441
X188.659Y-81.506
X190.141Y-64.57
X203.901Y-104.07
X204.772Y-94.108
X205.796Y-82.403
X206.668Y-72.441
T8
X78.509Y-124.913
X81.541Y-135.487
X94.5Y-66.0
X94.5Y-83.0
X94.5Y-100.0
X95.449Y-117.081
X97.17Y-127.945
X105.5Y-66.0
X105.5Y-83.0
X105.5Y-100.0
X108.336Y-116.736
X111.5Y-66.0
X111.5Y-83.0
X111.5Y-100.0
X119.309Y-117.504
X122.5Y-66.0
X122.5Y-83.0
X122.5Y-100.0
X132.875Y-58.575
X132.875Y-75.575
X132.875Y-92.575
X143.875Y-58.575
X143.875Y-75.575
X143.875Y-92.575
X155.743Y-94.364
X156.484Y-77.38
X157.226Y-60.396
X166.732Y-94.844
X167.474Y-77.86
X168.215Y-60.876
X176.269Y-102.656
X177.75Y-85.721
X179.232Y-68.785
X187.227Y-103.615
X188.708Y-86.68
X190.19Y-69.744
X198.727Y-104.119
X199.685Y-93.161
X200.622Y-82.452
X201.581Y-71.494
T9
X73.8Y-104.0
X107.0Y-127.5
X108.5Y-58.0
X150.375Y-56.075
X150.375Y-107.925
X201.629Y-107.925
X205.116Y-68.15
T10
X82.252Y-124.36
X85.008Y-133.973
X85.745Y-128.56
X95.0Y-69.75
X95.0Y-86.75
X95.0Y-103.75
X99.231Y-116.988
X100.0Y-71.95
X100.0Y-88.95
X100.0Y-105.95
X100.796Y-126.865
X102.186Y-121.582
X105.0Y-69.75
X105.0Y-86.75
X105.0Y-103.75
X109.096Y-113.03
X112.0Y-69.75
X112.0Y-86.75
X112.0Y-103.75
X114.238Y-111.184
X117.0Y-71.95
X117.0Y-88.95
X117.0Y-105.95
X119.072Y-113.728
X122.0Y-69.75
X122.0Y-86.75
X122.0Y-103.75
X133.375Y-62.325
X133.375Y-79.325
X133.375Y-96.325
X138.375Y-64.525
X138.375Y-81.525
X138.375Y-98.525
X143.375Y-62.325
X143.375Y-79.325
X143.375Y-96.325
X156.079Y-98.132
X156.82Y-81.148
X157.562Y-64.165
X160.978Y-100.548
X161.72Y-83.564
X162.461Y-66.581
X166.069Y-98.568
X166.811Y-81.585
X167.552Y-64.601
X176.44Y-106.435
X177.922Y-89.5
X179.403Y-72.565
X181.229Y-109.063
X182.711Y-92.128
X184.192Y-75.192
X186.402Y-107.307
X187.884Y-90.372
X189.365Y-73.436
X193.279Y-98.121
X195.034Y-103.294
X195.174Y-76.454
X195.906Y-93.332
X196.93Y-81.627
X197.802Y-71.665
T11
X80.025Y-130.2
X96.309Y-122.513
X100.0Y-66.0
X100.0Y-83.0
X100.0Y-100.0
X113.823Y-117.12
X117.0Y-66.0
X117.0Y-83.0
X117.0Y-100.0
X138.375Y-58.575
X138.375Y-75.575
X138.375Y-92.575
X161.238Y-94.604
X161.979Y-77.62
X162.721Y-60.636
X181.748Y-103.135
X183.229Y-86.2
X184.711Y-69.265
X199.206Y-98.64
X201.102Y-76.973
M30
