G04 #@! TF.GenerationSoftware,KiCad,Pcbnew,8.0.4*
G04 #@! TF.CreationDate,2024-08-08T10:24:45+04:00*
G04 #@! TF.ProjectId,ouleetka,6f756c65-6574-46b6-912e-6b696361645f,0.1*
G04 #@! TF.SameCoordinates,Original*
G04 #@! TF.FileFunction,Legend,Top*
G04 #@! TF.FilePolarity,Positive*
%FSLAX46Y46*%
G04 Gerber Fmt 4.6, Leading zero omitted, Abs format (unit mm)*
G04 Created by KiCad (PCBNEW 8.0.4) date 2024-08-08 10:24:45*
%MOMM*%
%LPD*%
G01*
G04 APERTURE LIST*
G04 Aperture macros list*
%AMRoundRect*
0 Rectangle with rounded corners*
0 $1 Rounding radius*
0 $2 $3 $4 $5 $6 $7 $8 $9 X,Y pos of 4 corners*
0 Add a 4 corners polygon primitive as box body*
4,1,4,$2,$3,$4,$5,$6,$7,$8,$9,$2,$3,0*
0 Add four circle primitives for the rounded corners*
1,1,$1+$1,$2,$3*
1,1,$1+$1,$4,$5*
1,1,$1+$1,$6,$7*
1,1,$1+$1,$8,$9*
0 Add four rect primitives between the rounded corners*
20,1,$1+$1,$2,$3,$4,$5,0*
20,1,$1+$1,$4,$5,$6,$7,0*
20,1,$1+$1,$6,$7,$8,$9,0*
20,1,$1+$1,$8,$9,$2,$3,0*%
%AMRotRect*
0 Rectangle, with rotation*
0 The origin of the aperture is its center*
0 $1 length*
0 $2 width*
0 $3 Rotation angle, in degrees counterclockwise*
0 Add horizontal line*
21,1,$1,$2,0,0,$3*%
%AMFreePoly0*
4,1,6,0.600000,-1.000000,0.000000,-0.400000,-0.600000,-1.000000,-0.600000,0.250000,0.600000,0.250000,0.600000,-1.000000,0.600000,-1.000000,$1*%
%AMFreePoly1*
4,1,6,0.600000,-0.200000,0.600000,-0.400000,-0.600000,-0.400000,-0.600000,-0.200000,0.000000,0.400000,0.600000,-0.200000,0.600000,-0.200000,$1*%
%AMFreePoly2*
4,1,6,0.250000,0.000000,-0.250000,-0.625000,-0.500000,-0.625000,-0.500000,0.625000,-0.250000,0.625000,0.250000,0.000000,0.250000,0.000000,$1*%
%AMFreePoly3*
4,1,6,0.500000,-0.625000,-0.650000,-0.625000,-0.150000,0.000000,-0.650000,0.625000,0.500000,0.625000,0.500000,-0.625000,0.500000,-0.625000,$1*%
G04 Aperture macros list end*
%ADD10C,0.080000*%
%ADD11C,0.100000*%
%ADD12C,0.120000*%
%ADD13RotRect,0.900000X1.200000X175.000000*%
%ADD14C,4.100000*%
%ADD15RotRect,0.900000X1.200000X16.000000*%
%ADD16R,0.900000X1.200000*%
%ADD17FreePoly0,90.000000*%
%ADD18O,1.750000X1.200000*%
%ADD19FreePoly1,90.000000*%
%ADD20R,1.200000X0.900000*%
%ADD21R,1.000000X0.800000*%
%ADD22C,1.200000*%
%ADD23R,0.700000X1.500000*%
%ADD24RotRect,0.900000X1.200000X85.000000*%
%ADD25RotRect,0.900000X1.200000X177.500000*%
%ADD26R,1.550000X1.000000*%
%ADD27RotRect,0.900000X1.200000X9.000000*%
%ADD28C,4.400000*%
%ADD29RotRect,0.900000X1.200000X356.000000*%
%ADD30O,1.700000X1.700000*%
%ADD31R,1.200000X0.600000*%
%ADD32RotRect,0.900000X1.200000X265.000000*%
%ADD33FreePoly2,0.000000*%
%ADD34FreePoly3,0.000000*%
%ADD35FreePoly3,180.000000*%
%ADD36FreePoly2,180.000000*%
%ADD37C,0.800000*%
%ADD38C,1.700000*%
%ADD39RoundRect,0.215000X1.155825X0.762163X-1.005917X0.951291X-1.155825X-0.762163X1.005917X-0.951291X0*%
%ADD40C,2.250000*%
%ADD41C,2.100000*%
%ADD42C,3.300000*%
%ADD43C,5.500000*%
%ADD44C,3.500000*%
%ADD45RoundRect,0.215000X1.180730X0.759985X-1.030822X0.953470X-1.180730X-0.759985X1.030822X-0.953470X0*%
%ADD46RoundRect,0.215000X1.121480X0.811854X-1.046455X0.906509X-1.121480X-0.811854X1.046455X-0.906509X0*%
%ADD47RoundRect,0.215000X1.146456X0.810764X-1.071431X0.907599X-1.146456X-0.810764X1.071431X-0.907599X0*%
%ADD48RoundRect,0.215000X1.085000X0.860000X-1.085000X0.860000X-1.085000X-0.860000X1.085000X-0.860000X0*%
%ADD49RoundRect,0.215000X1.110000X0.860000X-1.110000X0.860000X-1.110000X-0.860000X1.110000X-0.860000X0*%
%ADD50RoundRect,0.215000X-1.125752X0.805921X-0.527619X-1.280017X1.125752X-0.805921X0.527619X1.280017X0*%
%ADD51RoundRect,0.215000X-1.132643X0.829952X-0.520728X-1.304049X1.132643X-0.829952X0.520728X1.304049X0*%
%ADD52RoundRect,0.215000X0.762163X-1.155825X0.951291X1.005917X-0.762163X1.155825X-0.951291X-1.005917X0*%
%ADD53RoundRect,0.215000X0.759985X-1.180730X0.953470X1.030822X-0.759985X1.180730X-0.953470X-1.030822X0*%
%ADD54RotRect,1.400000X1.000000X106.000000*%
%ADD55RoundRect,0.215000X-1.142348X-0.782219X1.022366X-0.933591X1.142348X0.782219X-1.022366X0.933591X0*%
%ADD56RoundRect,0.215000X-1.167287X-0.780475X1.047306X-0.935335X1.167287X0.780475X-1.047306X0.935335X0*%
%ADD57RotRect,1.400000X1.000000X99.000000*%
%ADD58R,1.400000X1.000000*%
%ADD59RotRect,1.400000X1.000000X355.000000*%
%ADD60RoundRect,0.215000X-1.019143X0.937108X-0.679681X-1.206175X1.019143X-0.937108X0.679681X1.206175X0*%
%ADD61RoundRect,0.215000X-1.023054X0.961800X-0.675770X-1.230868X1.023054X-0.961800X0.675770X1.230868X0*%
G04 APERTURE END LIST*
D10*
X78621428Y-76634840D02*
X78707143Y-76663411D01*
X78707143Y-76663411D02*
X78850000Y-76663411D01*
X78850000Y-76663411D02*
X78907143Y-76634840D01*
X78907143Y-76634840D02*
X78935714Y-76606268D01*
X78935714Y-76606268D02*
X78964285Y-76549125D01*
X78964285Y-76549125D02*
X78964285Y-76491982D01*
X78964285Y-76491982D02*
X78935714Y-76434840D01*
X78935714Y-76434840D02*
X78907143Y-76406268D01*
X78907143Y-76406268D02*
X78850000Y-76377697D01*
X78850000Y-76377697D02*
X78735714Y-76349125D01*
X78735714Y-76349125D02*
X78678571Y-76320554D01*
X78678571Y-76320554D02*
X78650000Y-76291982D01*
X78650000Y-76291982D02*
X78621428Y-76234840D01*
X78621428Y-76234840D02*
X78621428Y-76177697D01*
X78621428Y-76177697D02*
X78650000Y-76120554D01*
X78650000Y-76120554D02*
X78678571Y-76091982D01*
X78678571Y-76091982D02*
X78735714Y-76063411D01*
X78735714Y-76063411D02*
X78878571Y-76063411D01*
X78878571Y-76063411D02*
X78964285Y-76091982D01*
X79221429Y-76663411D02*
X79221429Y-76063411D01*
X79221429Y-76063411D02*
X79364286Y-76063411D01*
X79364286Y-76063411D02*
X79450000Y-76091982D01*
X79450000Y-76091982D02*
X79507143Y-76149125D01*
X79507143Y-76149125D02*
X79535714Y-76206268D01*
X79535714Y-76206268D02*
X79564286Y-76320554D01*
X79564286Y-76320554D02*
X79564286Y-76406268D01*
X79564286Y-76406268D02*
X79535714Y-76520554D01*
X79535714Y-76520554D02*
X79507143Y-76577697D01*
X79507143Y-76577697D02*
X79450000Y-76634840D01*
X79450000Y-76634840D02*
X79364286Y-76663411D01*
X79364286Y-76663411D02*
X79221429Y-76663411D01*
X79792857Y-76491982D02*
X80078572Y-76491982D01*
X79735714Y-76663411D02*
X79935714Y-76063411D01*
X79935714Y-76063411D02*
X80135714Y-76663411D01*
X85551982Y-97077142D02*
X85523411Y-97134285D01*
X85523411Y-97134285D02*
X85523411Y-97219999D01*
X85523411Y-97219999D02*
X85551982Y-97305713D01*
X85551982Y-97305713D02*
X85609125Y-97362856D01*
X85609125Y-97362856D02*
X85666268Y-97391427D01*
X85666268Y-97391427D02*
X85780554Y-97419999D01*
X85780554Y-97419999D02*
X85866268Y-97419999D01*
X85866268Y-97419999D02*
X85980554Y-97391427D01*
X85980554Y-97391427D02*
X86037697Y-97362856D01*
X86037697Y-97362856D02*
X86094840Y-97305713D01*
X86094840Y-97305713D02*
X86123411Y-97219999D01*
X86123411Y-97219999D02*
X86123411Y-97162856D01*
X86123411Y-97162856D02*
X86094840Y-97077142D01*
X86094840Y-97077142D02*
X86066268Y-97048570D01*
X86066268Y-97048570D02*
X85866268Y-97048570D01*
X85866268Y-97048570D02*
X85866268Y-97162856D01*
X86123411Y-96791427D02*
X85523411Y-96791427D01*
X85523411Y-96791427D02*
X86123411Y-96448570D01*
X86123411Y-96448570D02*
X85523411Y-96448570D01*
X86123411Y-96162856D02*
X85523411Y-96162856D01*
X85523411Y-96162856D02*
X85523411Y-96019999D01*
X85523411Y-96019999D02*
X85551982Y-95934285D01*
X85551982Y-95934285D02*
X85609125Y-95877142D01*
X85609125Y-95877142D02*
X85666268Y-95848571D01*
X85666268Y-95848571D02*
X85780554Y-95819999D01*
X85780554Y-95819999D02*
X85866268Y-95819999D01*
X85866268Y-95819999D02*
X85980554Y-95848571D01*
X85980554Y-95848571D02*
X86037697Y-95877142D01*
X86037697Y-95877142D02*
X86094840Y-95934285D01*
X86094840Y-95934285D02*
X86123411Y-96019999D01*
X86123411Y-96019999D02*
X86123411Y-96162856D01*
X82973411Y-97420000D02*
X83573411Y-97220000D01*
X83573411Y-97220000D02*
X82973411Y-97020000D01*
X83516268Y-96477142D02*
X83544840Y-96505714D01*
X83544840Y-96505714D02*
X83573411Y-96591428D01*
X83573411Y-96591428D02*
X83573411Y-96648571D01*
X83573411Y-96648571D02*
X83544840Y-96734285D01*
X83544840Y-96734285D02*
X83487697Y-96791428D01*
X83487697Y-96791428D02*
X83430554Y-96819999D01*
X83430554Y-96819999D02*
X83316268Y-96848571D01*
X83316268Y-96848571D02*
X83230554Y-96848571D01*
X83230554Y-96848571D02*
X83116268Y-96819999D01*
X83116268Y-96819999D02*
X83059125Y-96791428D01*
X83059125Y-96791428D02*
X83001982Y-96734285D01*
X83001982Y-96734285D02*
X82973411Y-96648571D01*
X82973411Y-96648571D02*
X82973411Y-96591428D01*
X82973411Y-96591428D02*
X83001982Y-96505714D01*
X83001982Y-96505714D02*
X83030554Y-96477142D01*
X83516268Y-95877142D02*
X83544840Y-95905714D01*
X83544840Y-95905714D02*
X83573411Y-95991428D01*
X83573411Y-95991428D02*
X83573411Y-96048571D01*
X83573411Y-96048571D02*
X83544840Y-96134285D01*
X83544840Y-96134285D02*
X83487697Y-96191428D01*
X83487697Y-96191428D02*
X83430554Y-96219999D01*
X83430554Y-96219999D02*
X83316268Y-96248571D01*
X83316268Y-96248571D02*
X83230554Y-96248571D01*
X83230554Y-96248571D02*
X83116268Y-96219999D01*
X83116268Y-96219999D02*
X83059125Y-96191428D01*
X83059125Y-96191428D02*
X83001982Y-96134285D01*
X83001982Y-96134285D02*
X82973411Y-96048571D01*
X82973411Y-96048571D02*
X82973411Y-95991428D01*
X82973411Y-95991428D02*
X83001982Y-95905714D01*
X83001982Y-95905714D02*
X83030554Y-95877142D01*
X78494840Y-97348571D02*
X78523411Y-97262857D01*
X78523411Y-97262857D02*
X78523411Y-97119999D01*
X78523411Y-97119999D02*
X78494840Y-97062857D01*
X78494840Y-97062857D02*
X78466268Y-97034285D01*
X78466268Y-97034285D02*
X78409125Y-97005714D01*
X78409125Y-97005714D02*
X78351982Y-97005714D01*
X78351982Y-97005714D02*
X78294840Y-97034285D01*
X78294840Y-97034285D02*
X78266268Y-97062857D01*
X78266268Y-97062857D02*
X78237697Y-97119999D01*
X78237697Y-97119999D02*
X78209125Y-97234285D01*
X78209125Y-97234285D02*
X78180554Y-97291428D01*
X78180554Y-97291428D02*
X78151982Y-97319999D01*
X78151982Y-97319999D02*
X78094840Y-97348571D01*
X78094840Y-97348571D02*
X78037697Y-97348571D01*
X78037697Y-97348571D02*
X77980554Y-97319999D01*
X77980554Y-97319999D02*
X77951982Y-97291428D01*
X77951982Y-97291428D02*
X77923411Y-97234285D01*
X77923411Y-97234285D02*
X77923411Y-97091428D01*
X77923411Y-97091428D02*
X77951982Y-97005714D01*
X78523411Y-96748570D02*
X77923411Y-96748570D01*
X77923411Y-96748570D02*
X77923411Y-96605713D01*
X77923411Y-96605713D02*
X77951982Y-96519999D01*
X77951982Y-96519999D02*
X78009125Y-96462856D01*
X78009125Y-96462856D02*
X78066268Y-96434285D01*
X78066268Y-96434285D02*
X78180554Y-96405713D01*
X78180554Y-96405713D02*
X78266268Y-96405713D01*
X78266268Y-96405713D02*
X78380554Y-96434285D01*
X78380554Y-96434285D02*
X78437697Y-96462856D01*
X78437697Y-96462856D02*
X78494840Y-96519999D01*
X78494840Y-96519999D02*
X78523411Y-96605713D01*
X78523411Y-96605713D02*
X78523411Y-96748570D01*
X78351982Y-96177142D02*
X78351982Y-95891428D01*
X78523411Y-96234285D02*
X77923411Y-96034285D01*
X77923411Y-96034285D02*
X78523411Y-95834285D01*
X81044840Y-97334285D02*
X81073411Y-97248571D01*
X81073411Y-97248571D02*
X81073411Y-97105713D01*
X81073411Y-97105713D02*
X81044840Y-97048571D01*
X81044840Y-97048571D02*
X81016268Y-97019999D01*
X81016268Y-97019999D02*
X80959125Y-96991428D01*
X80959125Y-96991428D02*
X80901982Y-96991428D01*
X80901982Y-96991428D02*
X80844840Y-97019999D01*
X80844840Y-97019999D02*
X80816268Y-97048571D01*
X80816268Y-97048571D02*
X80787697Y-97105713D01*
X80787697Y-97105713D02*
X80759125Y-97219999D01*
X80759125Y-97219999D02*
X80730554Y-97277142D01*
X80730554Y-97277142D02*
X80701982Y-97305713D01*
X80701982Y-97305713D02*
X80644840Y-97334285D01*
X80644840Y-97334285D02*
X80587697Y-97334285D01*
X80587697Y-97334285D02*
X80530554Y-97305713D01*
X80530554Y-97305713D02*
X80501982Y-97277142D01*
X80501982Y-97277142D02*
X80473411Y-97219999D01*
X80473411Y-97219999D02*
X80473411Y-97077142D01*
X80473411Y-97077142D02*
X80501982Y-96991428D01*
X81016268Y-96391427D02*
X81044840Y-96419999D01*
X81044840Y-96419999D02*
X81073411Y-96505713D01*
X81073411Y-96505713D02*
X81073411Y-96562856D01*
X81073411Y-96562856D02*
X81044840Y-96648570D01*
X81044840Y-96648570D02*
X80987697Y-96705713D01*
X80987697Y-96705713D02*
X80930554Y-96734284D01*
X80930554Y-96734284D02*
X80816268Y-96762856D01*
X80816268Y-96762856D02*
X80730554Y-96762856D01*
X80730554Y-96762856D02*
X80616268Y-96734284D01*
X80616268Y-96734284D02*
X80559125Y-96705713D01*
X80559125Y-96705713D02*
X80501982Y-96648570D01*
X80501982Y-96648570D02*
X80473411Y-96562856D01*
X80473411Y-96562856D02*
X80473411Y-96505713D01*
X80473411Y-96505713D02*
X80501982Y-96419999D01*
X80501982Y-96419999D02*
X80530554Y-96391427D01*
X81073411Y-95848570D02*
X81073411Y-96134284D01*
X81073411Y-96134284D02*
X80473411Y-96134284D01*
X78892857Y-73551982D02*
X78835715Y-73523411D01*
X78835715Y-73523411D02*
X78750000Y-73523411D01*
X78750000Y-73523411D02*
X78664286Y-73551982D01*
X78664286Y-73551982D02*
X78607143Y-73609125D01*
X78607143Y-73609125D02*
X78578572Y-73666268D01*
X78578572Y-73666268D02*
X78550000Y-73780554D01*
X78550000Y-73780554D02*
X78550000Y-73866268D01*
X78550000Y-73866268D02*
X78578572Y-73980554D01*
X78578572Y-73980554D02*
X78607143Y-74037697D01*
X78607143Y-74037697D02*
X78664286Y-74094840D01*
X78664286Y-74094840D02*
X78750000Y-74123411D01*
X78750000Y-74123411D02*
X78807143Y-74123411D01*
X78807143Y-74123411D02*
X78892857Y-74094840D01*
X78892857Y-74094840D02*
X78921429Y-74066268D01*
X78921429Y-74066268D02*
X78921429Y-73866268D01*
X78921429Y-73866268D02*
X78807143Y-73866268D01*
X79178572Y-74123411D02*
X79178572Y-73523411D01*
X79178572Y-73523411D02*
X79521429Y-74123411D01*
X79521429Y-74123411D02*
X79521429Y-73523411D01*
X79807143Y-74123411D02*
X79807143Y-73523411D01*
X79807143Y-73523411D02*
X79950000Y-73523411D01*
X79950000Y-73523411D02*
X80035714Y-73551982D01*
X80035714Y-73551982D02*
X80092857Y-73609125D01*
X80092857Y-73609125D02*
X80121428Y-73666268D01*
X80121428Y-73666268D02*
X80150000Y-73780554D01*
X80150000Y-73780554D02*
X80150000Y-73866268D01*
X80150000Y-73866268D02*
X80121428Y-73980554D01*
X80121428Y-73980554D02*
X80092857Y-74037697D01*
X80092857Y-74037697D02*
X80035714Y-74094840D01*
X80035714Y-74094840D02*
X79950000Y-74123411D01*
X79950000Y-74123411D02*
X79807143Y-74123411D01*
X81835714Y-66503411D02*
X81635714Y-66217697D01*
X81492857Y-66503411D02*
X81492857Y-65903411D01*
X81492857Y-65903411D02*
X81721428Y-65903411D01*
X81721428Y-65903411D02*
X81778571Y-65931982D01*
X81778571Y-65931982D02*
X81807142Y-65960554D01*
X81807142Y-65960554D02*
X81835714Y-66017697D01*
X81835714Y-66017697D02*
X81835714Y-66103411D01*
X81835714Y-66103411D02*
X81807142Y-66160554D01*
X81807142Y-66160554D02*
X81778571Y-66189125D01*
X81778571Y-66189125D02*
X81721428Y-66217697D01*
X81721428Y-66217697D02*
X81492857Y-66217697D01*
X82064285Y-66331982D02*
X82350000Y-66331982D01*
X82007142Y-66503411D02*
X82207142Y-65903411D01*
X82207142Y-65903411D02*
X82407142Y-66503411D01*
X82550000Y-65903411D02*
X82692857Y-66503411D01*
X82692857Y-66503411D02*
X82807143Y-66074840D01*
X82807143Y-66074840D02*
X82921428Y-66503411D01*
X82921428Y-66503411D02*
X83064286Y-65903411D01*
X82740000Y-86766268D02*
X82711428Y-86794840D01*
X82711428Y-86794840D02*
X82625714Y-86823411D01*
X82625714Y-86823411D02*
X82568571Y-86823411D01*
X82568571Y-86823411D02*
X82482857Y-86794840D01*
X82482857Y-86794840D02*
X82425714Y-86737697D01*
X82425714Y-86737697D02*
X82397143Y-86680554D01*
X82397143Y-86680554D02*
X82368571Y-86566268D01*
X82368571Y-86566268D02*
X82368571Y-86480554D01*
X82368571Y-86480554D02*
X82397143Y-86366268D01*
X82397143Y-86366268D02*
X82425714Y-86309125D01*
X82425714Y-86309125D02*
X82482857Y-86251982D01*
X82482857Y-86251982D02*
X82568571Y-86223411D01*
X82568571Y-86223411D02*
X82625714Y-86223411D01*
X82625714Y-86223411D02*
X82711428Y-86251982D01*
X82711428Y-86251982D02*
X82740000Y-86280554D01*
X83311428Y-86823411D02*
X82968571Y-86823411D01*
X83140000Y-86823411D02*
X83140000Y-86223411D01*
X83140000Y-86223411D02*
X83082857Y-86309125D01*
X83082857Y-86309125D02*
X83025714Y-86366268D01*
X83025714Y-86366268D02*
X82968571Y-86394840D01*
X82740000Y-79146268D02*
X82711428Y-79174840D01*
X82711428Y-79174840D02*
X82625714Y-79203411D01*
X82625714Y-79203411D02*
X82568571Y-79203411D01*
X82568571Y-79203411D02*
X82482857Y-79174840D01*
X82482857Y-79174840D02*
X82425714Y-79117697D01*
X82425714Y-79117697D02*
X82397143Y-79060554D01*
X82397143Y-79060554D02*
X82368571Y-78946268D01*
X82368571Y-78946268D02*
X82368571Y-78860554D01*
X82368571Y-78860554D02*
X82397143Y-78746268D01*
X82397143Y-78746268D02*
X82425714Y-78689125D01*
X82425714Y-78689125D02*
X82482857Y-78631982D01*
X82482857Y-78631982D02*
X82568571Y-78603411D01*
X82568571Y-78603411D02*
X82625714Y-78603411D01*
X82625714Y-78603411D02*
X82711428Y-78631982D01*
X82711428Y-78631982D02*
X82740000Y-78660554D01*
X83254286Y-78803411D02*
X83254286Y-79203411D01*
X83111428Y-78574840D02*
X82968571Y-79003411D01*
X82968571Y-79003411D02*
X83340000Y-79003411D01*
X78635714Y-79174840D02*
X78721429Y-79203411D01*
X78721429Y-79203411D02*
X78864286Y-79203411D01*
X78864286Y-79203411D02*
X78921429Y-79174840D01*
X78921429Y-79174840D02*
X78950000Y-79146268D01*
X78950000Y-79146268D02*
X78978571Y-79089125D01*
X78978571Y-79089125D02*
X78978571Y-79031982D01*
X78978571Y-79031982D02*
X78950000Y-78974840D01*
X78950000Y-78974840D02*
X78921429Y-78946268D01*
X78921429Y-78946268D02*
X78864286Y-78917697D01*
X78864286Y-78917697D02*
X78750000Y-78889125D01*
X78750000Y-78889125D02*
X78692857Y-78860554D01*
X78692857Y-78860554D02*
X78664286Y-78831982D01*
X78664286Y-78831982D02*
X78635714Y-78774840D01*
X78635714Y-78774840D02*
X78635714Y-78717697D01*
X78635714Y-78717697D02*
X78664286Y-78660554D01*
X78664286Y-78660554D02*
X78692857Y-78631982D01*
X78692857Y-78631982D02*
X78750000Y-78603411D01*
X78750000Y-78603411D02*
X78892857Y-78603411D01*
X78892857Y-78603411D02*
X78978571Y-78631982D01*
X79578572Y-79146268D02*
X79550000Y-79174840D01*
X79550000Y-79174840D02*
X79464286Y-79203411D01*
X79464286Y-79203411D02*
X79407143Y-79203411D01*
X79407143Y-79203411D02*
X79321429Y-79174840D01*
X79321429Y-79174840D02*
X79264286Y-79117697D01*
X79264286Y-79117697D02*
X79235715Y-79060554D01*
X79235715Y-79060554D02*
X79207143Y-78946268D01*
X79207143Y-78946268D02*
X79207143Y-78860554D01*
X79207143Y-78860554D02*
X79235715Y-78746268D01*
X79235715Y-78746268D02*
X79264286Y-78689125D01*
X79264286Y-78689125D02*
X79321429Y-78631982D01*
X79321429Y-78631982D02*
X79407143Y-78603411D01*
X79407143Y-78603411D02*
X79464286Y-78603411D01*
X79464286Y-78603411D02*
X79550000Y-78631982D01*
X79550000Y-78631982D02*
X79578572Y-78660554D01*
X80121429Y-79203411D02*
X79835715Y-79203411D01*
X79835715Y-79203411D02*
X79835715Y-78603411D01*
X81449999Y-73523411D02*
X81649999Y-74123411D01*
X81649999Y-74123411D02*
X81849999Y-73523411D01*
X82392857Y-74066268D02*
X82364285Y-74094840D01*
X82364285Y-74094840D02*
X82278571Y-74123411D01*
X82278571Y-74123411D02*
X82221428Y-74123411D01*
X82221428Y-74123411D02*
X82135714Y-74094840D01*
X82135714Y-74094840D02*
X82078571Y-74037697D01*
X82078571Y-74037697D02*
X82050000Y-73980554D01*
X82050000Y-73980554D02*
X82021428Y-73866268D01*
X82021428Y-73866268D02*
X82021428Y-73780554D01*
X82021428Y-73780554D02*
X82050000Y-73666268D01*
X82050000Y-73666268D02*
X82078571Y-73609125D01*
X82078571Y-73609125D02*
X82135714Y-73551982D01*
X82135714Y-73551982D02*
X82221428Y-73523411D01*
X82221428Y-73523411D02*
X82278571Y-73523411D01*
X82278571Y-73523411D02*
X82364285Y-73551982D01*
X82364285Y-73551982D02*
X82392857Y-73580554D01*
X82992857Y-74066268D02*
X82964285Y-74094840D01*
X82964285Y-74094840D02*
X82878571Y-74123411D01*
X82878571Y-74123411D02*
X82821428Y-74123411D01*
X82821428Y-74123411D02*
X82735714Y-74094840D01*
X82735714Y-74094840D02*
X82678571Y-74037697D01*
X82678571Y-74037697D02*
X82650000Y-73980554D01*
X82650000Y-73980554D02*
X82621428Y-73866268D01*
X82621428Y-73866268D02*
X82621428Y-73780554D01*
X82621428Y-73780554D02*
X82650000Y-73666268D01*
X82650000Y-73666268D02*
X82678571Y-73609125D01*
X82678571Y-73609125D02*
X82735714Y-73551982D01*
X82735714Y-73551982D02*
X82821428Y-73523411D01*
X82821428Y-73523411D02*
X82878571Y-73523411D01*
X82878571Y-73523411D02*
X82964285Y-73551982D01*
X82964285Y-73551982D02*
X82992857Y-73580554D01*
X82740000Y-84226268D02*
X82711428Y-84254840D01*
X82711428Y-84254840D02*
X82625714Y-84283411D01*
X82625714Y-84283411D02*
X82568571Y-84283411D01*
X82568571Y-84283411D02*
X82482857Y-84254840D01*
X82482857Y-84254840D02*
X82425714Y-84197697D01*
X82425714Y-84197697D02*
X82397143Y-84140554D01*
X82397143Y-84140554D02*
X82368571Y-84026268D01*
X82368571Y-84026268D02*
X82368571Y-83940554D01*
X82368571Y-83940554D02*
X82397143Y-83826268D01*
X82397143Y-83826268D02*
X82425714Y-83769125D01*
X82425714Y-83769125D02*
X82482857Y-83711982D01*
X82482857Y-83711982D02*
X82568571Y-83683411D01*
X82568571Y-83683411D02*
X82625714Y-83683411D01*
X82625714Y-83683411D02*
X82711428Y-83711982D01*
X82711428Y-83711982D02*
X82740000Y-83740554D01*
X82968571Y-83740554D02*
X82997143Y-83711982D01*
X82997143Y-83711982D02*
X83054286Y-83683411D01*
X83054286Y-83683411D02*
X83197143Y-83683411D01*
X83197143Y-83683411D02*
X83254286Y-83711982D01*
X83254286Y-83711982D02*
X83282857Y-83740554D01*
X83282857Y-83740554D02*
X83311428Y-83797697D01*
X83311428Y-83797697D02*
X83311428Y-83854840D01*
X83311428Y-83854840D02*
X83282857Y-83940554D01*
X83282857Y-83940554D02*
X82940000Y-84283411D01*
X82940000Y-84283411D02*
X83311428Y-84283411D01*
X78678571Y-69043411D02*
X78392857Y-69043411D01*
X78392857Y-69043411D02*
X78392857Y-68443411D01*
X78878571Y-68729125D02*
X79078571Y-68729125D01*
X79164285Y-69043411D02*
X78878571Y-69043411D01*
X78878571Y-69043411D02*
X78878571Y-68443411D01*
X78878571Y-68443411D02*
X79164285Y-68443411D01*
X79421428Y-69043411D02*
X79421428Y-68443411D01*
X79421428Y-68443411D02*
X79564285Y-68443411D01*
X79564285Y-68443411D02*
X79649999Y-68471982D01*
X79649999Y-68471982D02*
X79707142Y-68529125D01*
X79707142Y-68529125D02*
X79735713Y-68586268D01*
X79735713Y-68586268D02*
X79764285Y-68700554D01*
X79764285Y-68700554D02*
X79764285Y-68786268D01*
X79764285Y-68786268D02*
X79735713Y-68900554D01*
X79735713Y-68900554D02*
X79707142Y-68957697D01*
X79707142Y-68957697D02*
X79649999Y-69014840D01*
X79649999Y-69014840D02*
X79564285Y-69043411D01*
X79564285Y-69043411D02*
X79421428Y-69043411D01*
X80135713Y-68443411D02*
X80192856Y-68443411D01*
X80192856Y-68443411D02*
X80249999Y-68471982D01*
X80249999Y-68471982D02*
X80278571Y-68500554D01*
X80278571Y-68500554D02*
X80307142Y-68557697D01*
X80307142Y-68557697D02*
X80335713Y-68671982D01*
X80335713Y-68671982D02*
X80335713Y-68814840D01*
X80335713Y-68814840D02*
X80307142Y-68929125D01*
X80307142Y-68929125D02*
X80278571Y-68986268D01*
X80278571Y-68986268D02*
X80249999Y-69014840D01*
X80249999Y-69014840D02*
X80192856Y-69043411D01*
X80192856Y-69043411D02*
X80135713Y-69043411D01*
X80135713Y-69043411D02*
X80078571Y-69014840D01*
X80078571Y-69014840D02*
X80049999Y-68986268D01*
X80049999Y-68986268D02*
X80021428Y-68929125D01*
X80021428Y-68929125D02*
X79992856Y-68814840D01*
X79992856Y-68814840D02*
X79992856Y-68671982D01*
X79992856Y-68671982D02*
X80021428Y-68557697D01*
X80021428Y-68557697D02*
X80049999Y-68500554D01*
X80049999Y-68500554D02*
X80078571Y-68471982D01*
X80078571Y-68471982D02*
X80135713Y-68443411D01*
X82740000Y-76606268D02*
X82711428Y-76634840D01*
X82711428Y-76634840D02*
X82625714Y-76663411D01*
X82625714Y-76663411D02*
X82568571Y-76663411D01*
X82568571Y-76663411D02*
X82482857Y-76634840D01*
X82482857Y-76634840D02*
X82425714Y-76577697D01*
X82425714Y-76577697D02*
X82397143Y-76520554D01*
X82397143Y-76520554D02*
X82368571Y-76406268D01*
X82368571Y-76406268D02*
X82368571Y-76320554D01*
X82368571Y-76320554D02*
X82397143Y-76206268D01*
X82397143Y-76206268D02*
X82425714Y-76149125D01*
X82425714Y-76149125D02*
X82482857Y-76091982D01*
X82482857Y-76091982D02*
X82568571Y-76063411D01*
X82568571Y-76063411D02*
X82625714Y-76063411D01*
X82625714Y-76063411D02*
X82711428Y-76091982D01*
X82711428Y-76091982D02*
X82740000Y-76120554D01*
X83282857Y-76063411D02*
X82997143Y-76063411D01*
X82997143Y-76063411D02*
X82968571Y-76349125D01*
X82968571Y-76349125D02*
X82997143Y-76320554D01*
X82997143Y-76320554D02*
X83054286Y-76291982D01*
X83054286Y-76291982D02*
X83197143Y-76291982D01*
X83197143Y-76291982D02*
X83254286Y-76320554D01*
X83254286Y-76320554D02*
X83282857Y-76349125D01*
X83282857Y-76349125D02*
X83311428Y-76406268D01*
X83311428Y-76406268D02*
X83311428Y-76549125D01*
X83311428Y-76549125D02*
X83282857Y-76606268D01*
X83282857Y-76606268D02*
X83254286Y-76634840D01*
X83254286Y-76634840D02*
X83197143Y-76663411D01*
X83197143Y-76663411D02*
X83054286Y-76663411D01*
X83054286Y-76663411D02*
X82997143Y-76634840D01*
X82997143Y-76634840D02*
X82968571Y-76606268D01*
X78317143Y-94443411D02*
X78317143Y-93843411D01*
X78317143Y-93843411D02*
X78545714Y-93843411D01*
X78545714Y-93843411D02*
X78602857Y-93871982D01*
X78602857Y-93871982D02*
X78631428Y-93900554D01*
X78631428Y-93900554D02*
X78660000Y-93957697D01*
X78660000Y-93957697D02*
X78660000Y-94043411D01*
X78660000Y-94043411D02*
X78631428Y-94100554D01*
X78631428Y-94100554D02*
X78602857Y-94129125D01*
X78602857Y-94129125D02*
X78545714Y-94157697D01*
X78545714Y-94157697D02*
X78317143Y-94157697D01*
X78945714Y-94443411D02*
X79060000Y-94443411D01*
X79060000Y-94443411D02*
X79117143Y-94414840D01*
X79117143Y-94414840D02*
X79145714Y-94386268D01*
X79145714Y-94386268D02*
X79202857Y-94300554D01*
X79202857Y-94300554D02*
X79231428Y-94186268D01*
X79231428Y-94186268D02*
X79231428Y-93957697D01*
X79231428Y-93957697D02*
X79202857Y-93900554D01*
X79202857Y-93900554D02*
X79174286Y-93871982D01*
X79174286Y-93871982D02*
X79117143Y-93843411D01*
X79117143Y-93843411D02*
X79002857Y-93843411D01*
X79002857Y-93843411D02*
X78945714Y-93871982D01*
X78945714Y-93871982D02*
X78917143Y-93900554D01*
X78917143Y-93900554D02*
X78888571Y-93957697D01*
X78888571Y-93957697D02*
X78888571Y-94100554D01*
X78888571Y-94100554D02*
X78917143Y-94157697D01*
X78917143Y-94157697D02*
X78945714Y-94186268D01*
X78945714Y-94186268D02*
X79002857Y-94214840D01*
X79002857Y-94214840D02*
X79117143Y-94214840D01*
X79117143Y-94214840D02*
X79174286Y-94186268D01*
X79174286Y-94186268D02*
X79202857Y-94157697D01*
X79202857Y-94157697D02*
X79231428Y-94100554D01*
X81921428Y-71583411D02*
X81721428Y-71297697D01*
X81578571Y-71583411D02*
X81578571Y-70983411D01*
X81578571Y-70983411D02*
X81807142Y-70983411D01*
X81807142Y-70983411D02*
X81864285Y-71011982D01*
X81864285Y-71011982D02*
X81892856Y-71040554D01*
X81892856Y-71040554D02*
X81921428Y-71097697D01*
X81921428Y-71097697D02*
X81921428Y-71183411D01*
X81921428Y-71183411D02*
X81892856Y-71240554D01*
X81892856Y-71240554D02*
X81864285Y-71269125D01*
X81864285Y-71269125D02*
X81807142Y-71297697D01*
X81807142Y-71297697D02*
X81578571Y-71297697D01*
X82149999Y-71554840D02*
X82235714Y-71583411D01*
X82235714Y-71583411D02*
X82378571Y-71583411D01*
X82378571Y-71583411D02*
X82435714Y-71554840D01*
X82435714Y-71554840D02*
X82464285Y-71526268D01*
X82464285Y-71526268D02*
X82492856Y-71469125D01*
X82492856Y-71469125D02*
X82492856Y-71411982D01*
X82492856Y-71411982D02*
X82464285Y-71354840D01*
X82464285Y-71354840D02*
X82435714Y-71326268D01*
X82435714Y-71326268D02*
X82378571Y-71297697D01*
X82378571Y-71297697D02*
X82264285Y-71269125D01*
X82264285Y-71269125D02*
X82207142Y-71240554D01*
X82207142Y-71240554D02*
X82178571Y-71211982D01*
X82178571Y-71211982D02*
X82149999Y-71154840D01*
X82149999Y-71154840D02*
X82149999Y-71097697D01*
X82149999Y-71097697D02*
X82178571Y-71040554D01*
X82178571Y-71040554D02*
X82207142Y-71011982D01*
X82207142Y-71011982D02*
X82264285Y-70983411D01*
X82264285Y-70983411D02*
X82407142Y-70983411D01*
X82407142Y-70983411D02*
X82492856Y-71011982D01*
X82664285Y-70983411D02*
X83007143Y-70983411D01*
X82835714Y-71583411D02*
X82835714Y-70983411D01*
X82740000Y-89306268D02*
X82711428Y-89334840D01*
X82711428Y-89334840D02*
X82625714Y-89363411D01*
X82625714Y-89363411D02*
X82568571Y-89363411D01*
X82568571Y-89363411D02*
X82482857Y-89334840D01*
X82482857Y-89334840D02*
X82425714Y-89277697D01*
X82425714Y-89277697D02*
X82397143Y-89220554D01*
X82397143Y-89220554D02*
X82368571Y-89106268D01*
X82368571Y-89106268D02*
X82368571Y-89020554D01*
X82368571Y-89020554D02*
X82397143Y-88906268D01*
X82397143Y-88906268D02*
X82425714Y-88849125D01*
X82425714Y-88849125D02*
X82482857Y-88791982D01*
X82482857Y-88791982D02*
X82568571Y-88763411D01*
X82568571Y-88763411D02*
X82625714Y-88763411D01*
X82625714Y-88763411D02*
X82711428Y-88791982D01*
X82711428Y-88791982D02*
X82740000Y-88820554D01*
X83111428Y-88763411D02*
X83168571Y-88763411D01*
X83168571Y-88763411D02*
X83225714Y-88791982D01*
X83225714Y-88791982D02*
X83254286Y-88820554D01*
X83254286Y-88820554D02*
X83282857Y-88877697D01*
X83282857Y-88877697D02*
X83311428Y-88991982D01*
X83311428Y-88991982D02*
X83311428Y-89134840D01*
X83311428Y-89134840D02*
X83282857Y-89249125D01*
X83282857Y-89249125D02*
X83254286Y-89306268D01*
X83254286Y-89306268D02*
X83225714Y-89334840D01*
X83225714Y-89334840D02*
X83168571Y-89363411D01*
X83168571Y-89363411D02*
X83111428Y-89363411D01*
X83111428Y-89363411D02*
X83054286Y-89334840D01*
X83054286Y-89334840D02*
X83025714Y-89306268D01*
X83025714Y-89306268D02*
X82997143Y-89249125D01*
X82997143Y-89249125D02*
X82968571Y-89134840D01*
X82968571Y-89134840D02*
X82968571Y-88991982D01*
X82968571Y-88991982D02*
X82997143Y-88877697D01*
X82997143Y-88877697D02*
X83025714Y-88820554D01*
X83025714Y-88820554D02*
X83054286Y-88791982D01*
X83054286Y-88791982D02*
X83111428Y-88763411D01*
X78660000Y-84283411D02*
X78460000Y-83997697D01*
X78317143Y-84283411D02*
X78317143Y-83683411D01*
X78317143Y-83683411D02*
X78545714Y-83683411D01*
X78545714Y-83683411D02*
X78602857Y-83711982D01*
X78602857Y-83711982D02*
X78631428Y-83740554D01*
X78631428Y-83740554D02*
X78660000Y-83797697D01*
X78660000Y-83797697D02*
X78660000Y-83883411D01*
X78660000Y-83883411D02*
X78631428Y-83940554D01*
X78631428Y-83940554D02*
X78602857Y-83969125D01*
X78602857Y-83969125D02*
X78545714Y-83997697D01*
X78545714Y-83997697D02*
X78317143Y-83997697D01*
X79031428Y-83683411D02*
X79088571Y-83683411D01*
X79088571Y-83683411D02*
X79145714Y-83711982D01*
X79145714Y-83711982D02*
X79174286Y-83740554D01*
X79174286Y-83740554D02*
X79202857Y-83797697D01*
X79202857Y-83797697D02*
X79231428Y-83911982D01*
X79231428Y-83911982D02*
X79231428Y-84054840D01*
X79231428Y-84054840D02*
X79202857Y-84169125D01*
X79202857Y-84169125D02*
X79174286Y-84226268D01*
X79174286Y-84226268D02*
X79145714Y-84254840D01*
X79145714Y-84254840D02*
X79088571Y-84283411D01*
X79088571Y-84283411D02*
X79031428Y-84283411D01*
X79031428Y-84283411D02*
X78974286Y-84254840D01*
X78974286Y-84254840D02*
X78945714Y-84226268D01*
X78945714Y-84226268D02*
X78917143Y-84169125D01*
X78917143Y-84169125D02*
X78888571Y-84054840D01*
X78888571Y-84054840D02*
X78888571Y-83911982D01*
X78888571Y-83911982D02*
X78917143Y-83797697D01*
X78917143Y-83797697D02*
X78945714Y-83740554D01*
X78945714Y-83740554D02*
X78974286Y-83711982D01*
X78974286Y-83711982D02*
X79031428Y-83683411D01*
X78892857Y-71011982D02*
X78835715Y-70983411D01*
X78835715Y-70983411D02*
X78750000Y-70983411D01*
X78750000Y-70983411D02*
X78664286Y-71011982D01*
X78664286Y-71011982D02*
X78607143Y-71069125D01*
X78607143Y-71069125D02*
X78578572Y-71126268D01*
X78578572Y-71126268D02*
X78550000Y-71240554D01*
X78550000Y-71240554D02*
X78550000Y-71326268D01*
X78550000Y-71326268D02*
X78578572Y-71440554D01*
X78578572Y-71440554D02*
X78607143Y-71497697D01*
X78607143Y-71497697D02*
X78664286Y-71554840D01*
X78664286Y-71554840D02*
X78750000Y-71583411D01*
X78750000Y-71583411D02*
X78807143Y-71583411D01*
X78807143Y-71583411D02*
X78892857Y-71554840D01*
X78892857Y-71554840D02*
X78921429Y-71526268D01*
X78921429Y-71526268D02*
X78921429Y-71326268D01*
X78921429Y-71326268D02*
X78807143Y-71326268D01*
X79178572Y-71583411D02*
X79178572Y-70983411D01*
X79178572Y-70983411D02*
X79521429Y-71583411D01*
X79521429Y-71583411D02*
X79521429Y-70983411D01*
X79807143Y-71583411D02*
X79807143Y-70983411D01*
X79807143Y-70983411D02*
X79950000Y-70983411D01*
X79950000Y-70983411D02*
X80035714Y-71011982D01*
X80035714Y-71011982D02*
X80092857Y-71069125D01*
X80092857Y-71069125D02*
X80121428Y-71126268D01*
X80121428Y-71126268D02*
X80150000Y-71240554D01*
X80150000Y-71240554D02*
X80150000Y-71326268D01*
X80150000Y-71326268D02*
X80121428Y-71440554D01*
X80121428Y-71440554D02*
X80092857Y-71497697D01*
X80092857Y-71497697D02*
X80035714Y-71554840D01*
X80035714Y-71554840D02*
X79950000Y-71583411D01*
X79950000Y-71583411D02*
X79807143Y-71583411D01*
X81521428Y-91903411D02*
X81521428Y-91303411D01*
X81521428Y-91303411D02*
X81749999Y-91303411D01*
X81749999Y-91303411D02*
X81807142Y-91331982D01*
X81807142Y-91331982D02*
X81835713Y-91360554D01*
X81835713Y-91360554D02*
X81864285Y-91417697D01*
X81864285Y-91417697D02*
X81864285Y-91503411D01*
X81864285Y-91503411D02*
X81835713Y-91560554D01*
X81835713Y-91560554D02*
X81807142Y-91589125D01*
X81807142Y-91589125D02*
X81749999Y-91617697D01*
X81749999Y-91617697D02*
X81521428Y-91617697D01*
X82435713Y-91903411D02*
X82092856Y-91903411D01*
X82264285Y-91903411D02*
X82264285Y-91303411D01*
X82264285Y-91303411D02*
X82207142Y-91389125D01*
X82207142Y-91389125D02*
X82149999Y-91446268D01*
X82149999Y-91446268D02*
X82092856Y-91474840D01*
X82950000Y-91303411D02*
X82835714Y-91303411D01*
X82835714Y-91303411D02*
X82778571Y-91331982D01*
X82778571Y-91331982D02*
X82750000Y-91360554D01*
X82750000Y-91360554D02*
X82692857Y-91446268D01*
X82692857Y-91446268D02*
X82664285Y-91560554D01*
X82664285Y-91560554D02*
X82664285Y-91789125D01*
X82664285Y-91789125D02*
X82692857Y-91846268D01*
X82692857Y-91846268D02*
X82721428Y-91874840D01*
X82721428Y-91874840D02*
X82778571Y-91903411D01*
X82778571Y-91903411D02*
X82892857Y-91903411D01*
X82892857Y-91903411D02*
X82950000Y-91874840D01*
X82950000Y-91874840D02*
X82978571Y-91846268D01*
X82978571Y-91846268D02*
X83007142Y-91789125D01*
X83007142Y-91789125D02*
X83007142Y-91646268D01*
X83007142Y-91646268D02*
X82978571Y-91589125D01*
X82978571Y-91589125D02*
X82950000Y-91560554D01*
X82950000Y-91560554D02*
X82892857Y-91531982D01*
X82892857Y-91531982D02*
X82778571Y-91531982D01*
X82778571Y-91531982D02*
X82721428Y-91560554D01*
X82721428Y-91560554D02*
X82692857Y-91589125D01*
X82692857Y-91589125D02*
X82664285Y-91646268D01*
X78660000Y-89363411D02*
X78460000Y-89077697D01*
X78317143Y-89363411D02*
X78317143Y-88763411D01*
X78317143Y-88763411D02*
X78545714Y-88763411D01*
X78545714Y-88763411D02*
X78602857Y-88791982D01*
X78602857Y-88791982D02*
X78631428Y-88820554D01*
X78631428Y-88820554D02*
X78660000Y-88877697D01*
X78660000Y-88877697D02*
X78660000Y-88963411D01*
X78660000Y-88963411D02*
X78631428Y-89020554D01*
X78631428Y-89020554D02*
X78602857Y-89049125D01*
X78602857Y-89049125D02*
X78545714Y-89077697D01*
X78545714Y-89077697D02*
X78317143Y-89077697D01*
X78888571Y-88820554D02*
X78917143Y-88791982D01*
X78917143Y-88791982D02*
X78974286Y-88763411D01*
X78974286Y-88763411D02*
X79117143Y-88763411D01*
X79117143Y-88763411D02*
X79174286Y-88791982D01*
X79174286Y-88791982D02*
X79202857Y-88820554D01*
X79202857Y-88820554D02*
X79231428Y-88877697D01*
X79231428Y-88877697D02*
X79231428Y-88934840D01*
X79231428Y-88934840D02*
X79202857Y-89020554D01*
X79202857Y-89020554D02*
X78860000Y-89363411D01*
X78860000Y-89363411D02*
X79231428Y-89363411D01*
X81521428Y-94443411D02*
X81521428Y-93843411D01*
X81521428Y-93843411D02*
X81749999Y-93843411D01*
X81749999Y-93843411D02*
X81807142Y-93871982D01*
X81807142Y-93871982D02*
X81835713Y-93900554D01*
X81835713Y-93900554D02*
X81864285Y-93957697D01*
X81864285Y-93957697D02*
X81864285Y-94043411D01*
X81864285Y-94043411D02*
X81835713Y-94100554D01*
X81835713Y-94100554D02*
X81807142Y-94129125D01*
X81807142Y-94129125D02*
X81749999Y-94157697D01*
X81749999Y-94157697D02*
X81521428Y-94157697D01*
X82435713Y-94443411D02*
X82092856Y-94443411D01*
X82264285Y-94443411D02*
X82264285Y-93843411D01*
X82264285Y-93843411D02*
X82207142Y-93929125D01*
X82207142Y-93929125D02*
X82149999Y-93986268D01*
X82149999Y-93986268D02*
X82092856Y-94014840D01*
X82807142Y-93843411D02*
X82864285Y-93843411D01*
X82864285Y-93843411D02*
X82921428Y-93871982D01*
X82921428Y-93871982D02*
X82950000Y-93900554D01*
X82950000Y-93900554D02*
X82978571Y-93957697D01*
X82978571Y-93957697D02*
X83007142Y-94071982D01*
X83007142Y-94071982D02*
X83007142Y-94214840D01*
X83007142Y-94214840D02*
X82978571Y-94329125D01*
X82978571Y-94329125D02*
X82950000Y-94386268D01*
X82950000Y-94386268D02*
X82921428Y-94414840D01*
X82921428Y-94414840D02*
X82864285Y-94443411D01*
X82864285Y-94443411D02*
X82807142Y-94443411D01*
X82807142Y-94443411D02*
X82750000Y-94414840D01*
X82750000Y-94414840D02*
X82721428Y-94386268D01*
X82721428Y-94386268D02*
X82692857Y-94329125D01*
X82692857Y-94329125D02*
X82664285Y-94214840D01*
X82664285Y-94214840D02*
X82664285Y-94071982D01*
X82664285Y-94071982D02*
X82692857Y-93957697D01*
X82692857Y-93957697D02*
X82721428Y-93900554D01*
X82721428Y-93900554D02*
X82750000Y-93871982D01*
X82750000Y-93871982D02*
X82807142Y-93843411D01*
X82740000Y-81686268D02*
X82711428Y-81714840D01*
X82711428Y-81714840D02*
X82625714Y-81743411D01*
X82625714Y-81743411D02*
X82568571Y-81743411D01*
X82568571Y-81743411D02*
X82482857Y-81714840D01*
X82482857Y-81714840D02*
X82425714Y-81657697D01*
X82425714Y-81657697D02*
X82397143Y-81600554D01*
X82397143Y-81600554D02*
X82368571Y-81486268D01*
X82368571Y-81486268D02*
X82368571Y-81400554D01*
X82368571Y-81400554D02*
X82397143Y-81286268D01*
X82397143Y-81286268D02*
X82425714Y-81229125D01*
X82425714Y-81229125D02*
X82482857Y-81171982D01*
X82482857Y-81171982D02*
X82568571Y-81143411D01*
X82568571Y-81143411D02*
X82625714Y-81143411D01*
X82625714Y-81143411D02*
X82711428Y-81171982D01*
X82711428Y-81171982D02*
X82740000Y-81200554D01*
X82940000Y-81143411D02*
X83311428Y-81143411D01*
X83311428Y-81143411D02*
X83111428Y-81371982D01*
X83111428Y-81371982D02*
X83197143Y-81371982D01*
X83197143Y-81371982D02*
X83254286Y-81400554D01*
X83254286Y-81400554D02*
X83282857Y-81429125D01*
X83282857Y-81429125D02*
X83311428Y-81486268D01*
X83311428Y-81486268D02*
X83311428Y-81629125D01*
X83311428Y-81629125D02*
X83282857Y-81686268D01*
X83282857Y-81686268D02*
X83254286Y-81714840D01*
X83254286Y-81714840D02*
X83197143Y-81743411D01*
X83197143Y-81743411D02*
X83025714Y-81743411D01*
X83025714Y-81743411D02*
X82968571Y-81714840D01*
X82968571Y-81714840D02*
X82940000Y-81686268D01*
X78660000Y-91903411D02*
X78460000Y-91617697D01*
X78317143Y-91903411D02*
X78317143Y-91303411D01*
X78317143Y-91303411D02*
X78545714Y-91303411D01*
X78545714Y-91303411D02*
X78602857Y-91331982D01*
X78602857Y-91331982D02*
X78631428Y-91360554D01*
X78631428Y-91360554D02*
X78660000Y-91417697D01*
X78660000Y-91417697D02*
X78660000Y-91503411D01*
X78660000Y-91503411D02*
X78631428Y-91560554D01*
X78631428Y-91560554D02*
X78602857Y-91589125D01*
X78602857Y-91589125D02*
X78545714Y-91617697D01*
X78545714Y-91617697D02*
X78317143Y-91617697D01*
X78860000Y-91303411D02*
X79231428Y-91303411D01*
X79231428Y-91303411D02*
X79031428Y-91531982D01*
X79031428Y-91531982D02*
X79117143Y-91531982D01*
X79117143Y-91531982D02*
X79174286Y-91560554D01*
X79174286Y-91560554D02*
X79202857Y-91589125D01*
X79202857Y-91589125D02*
X79231428Y-91646268D01*
X79231428Y-91646268D02*
X79231428Y-91789125D01*
X79231428Y-91789125D02*
X79202857Y-91846268D01*
X79202857Y-91846268D02*
X79174286Y-91874840D01*
X79174286Y-91874840D02*
X79117143Y-91903411D01*
X79117143Y-91903411D02*
X78945714Y-91903411D01*
X78945714Y-91903411D02*
X78888571Y-91874840D01*
X78888571Y-91874840D02*
X78860000Y-91846268D01*
X81792857Y-68471982D02*
X81735715Y-68443411D01*
X81735715Y-68443411D02*
X81650000Y-68443411D01*
X81650000Y-68443411D02*
X81564286Y-68471982D01*
X81564286Y-68471982D02*
X81507143Y-68529125D01*
X81507143Y-68529125D02*
X81478572Y-68586268D01*
X81478572Y-68586268D02*
X81450000Y-68700554D01*
X81450000Y-68700554D02*
X81450000Y-68786268D01*
X81450000Y-68786268D02*
X81478572Y-68900554D01*
X81478572Y-68900554D02*
X81507143Y-68957697D01*
X81507143Y-68957697D02*
X81564286Y-69014840D01*
X81564286Y-69014840D02*
X81650000Y-69043411D01*
X81650000Y-69043411D02*
X81707143Y-69043411D01*
X81707143Y-69043411D02*
X81792857Y-69014840D01*
X81792857Y-69014840D02*
X81821429Y-68986268D01*
X81821429Y-68986268D02*
X81821429Y-68786268D01*
X81821429Y-68786268D02*
X81707143Y-68786268D01*
X82078572Y-69043411D02*
X82078572Y-68443411D01*
X82078572Y-68443411D02*
X82421429Y-69043411D01*
X82421429Y-69043411D02*
X82421429Y-68443411D01*
X82707143Y-69043411D02*
X82707143Y-68443411D01*
X82707143Y-68443411D02*
X82850000Y-68443411D01*
X82850000Y-68443411D02*
X82935714Y-68471982D01*
X82935714Y-68471982D02*
X82992857Y-68529125D01*
X82992857Y-68529125D02*
X83021428Y-68586268D01*
X83021428Y-68586268D02*
X83050000Y-68700554D01*
X83050000Y-68700554D02*
X83050000Y-68786268D01*
X83050000Y-68786268D02*
X83021428Y-68900554D01*
X83021428Y-68900554D02*
X82992857Y-68957697D01*
X82992857Y-68957697D02*
X82935714Y-69014840D01*
X82935714Y-69014840D02*
X82850000Y-69043411D01*
X82850000Y-69043411D02*
X82707143Y-69043411D01*
X78660000Y-86823411D02*
X78460000Y-86537697D01*
X78317143Y-86823411D02*
X78317143Y-86223411D01*
X78317143Y-86223411D02*
X78545714Y-86223411D01*
X78545714Y-86223411D02*
X78602857Y-86251982D01*
X78602857Y-86251982D02*
X78631428Y-86280554D01*
X78631428Y-86280554D02*
X78660000Y-86337697D01*
X78660000Y-86337697D02*
X78660000Y-86423411D01*
X78660000Y-86423411D02*
X78631428Y-86480554D01*
X78631428Y-86480554D02*
X78602857Y-86509125D01*
X78602857Y-86509125D02*
X78545714Y-86537697D01*
X78545714Y-86537697D02*
X78317143Y-86537697D01*
X79231428Y-86823411D02*
X78888571Y-86823411D01*
X79060000Y-86823411D02*
X79060000Y-86223411D01*
X79060000Y-86223411D02*
X79002857Y-86309125D01*
X79002857Y-86309125D02*
X78945714Y-86366268D01*
X78945714Y-86366268D02*
X78888571Y-86394840D01*
X78678571Y-66503411D02*
X78392857Y-66503411D01*
X78392857Y-66503411D02*
X78392857Y-65903411D01*
X78878571Y-66189125D02*
X79078571Y-66189125D01*
X79164285Y-66503411D02*
X78878571Y-66503411D01*
X78878571Y-66503411D02*
X78878571Y-65903411D01*
X78878571Y-65903411D02*
X79164285Y-65903411D01*
X79421428Y-66503411D02*
X79421428Y-65903411D01*
X79421428Y-65903411D02*
X79564285Y-65903411D01*
X79564285Y-65903411D02*
X79649999Y-65931982D01*
X79649999Y-65931982D02*
X79707142Y-65989125D01*
X79707142Y-65989125D02*
X79735713Y-66046268D01*
X79735713Y-66046268D02*
X79764285Y-66160554D01*
X79764285Y-66160554D02*
X79764285Y-66246268D01*
X79764285Y-66246268D02*
X79735713Y-66360554D01*
X79735713Y-66360554D02*
X79707142Y-66417697D01*
X79707142Y-66417697D02*
X79649999Y-66474840D01*
X79649999Y-66474840D02*
X79564285Y-66503411D01*
X79564285Y-66503411D02*
X79421428Y-66503411D01*
X80335713Y-66503411D02*
X79992856Y-66503411D01*
X80164285Y-66503411D02*
X80164285Y-65903411D01*
X80164285Y-65903411D02*
X80107142Y-65989125D01*
X80107142Y-65989125D02*
X80049999Y-66046268D01*
X80049999Y-66046268D02*
X79992856Y-66074840D01*
X78660000Y-81686268D02*
X78631428Y-81714840D01*
X78631428Y-81714840D02*
X78545714Y-81743411D01*
X78545714Y-81743411D02*
X78488571Y-81743411D01*
X78488571Y-81743411D02*
X78402857Y-81714840D01*
X78402857Y-81714840D02*
X78345714Y-81657697D01*
X78345714Y-81657697D02*
X78317143Y-81600554D01*
X78317143Y-81600554D02*
X78288571Y-81486268D01*
X78288571Y-81486268D02*
X78288571Y-81400554D01*
X78288571Y-81400554D02*
X78317143Y-81286268D01*
X78317143Y-81286268D02*
X78345714Y-81229125D01*
X78345714Y-81229125D02*
X78402857Y-81171982D01*
X78402857Y-81171982D02*
X78488571Y-81143411D01*
X78488571Y-81143411D02*
X78545714Y-81143411D01*
X78545714Y-81143411D02*
X78631428Y-81171982D01*
X78631428Y-81171982D02*
X78660000Y-81200554D01*
X78888571Y-81714840D02*
X78974286Y-81743411D01*
X78974286Y-81743411D02*
X79117143Y-81743411D01*
X79117143Y-81743411D02*
X79174286Y-81714840D01*
X79174286Y-81714840D02*
X79202857Y-81686268D01*
X79202857Y-81686268D02*
X79231428Y-81629125D01*
X79231428Y-81629125D02*
X79231428Y-81571982D01*
X79231428Y-81571982D02*
X79202857Y-81514840D01*
X79202857Y-81514840D02*
X79174286Y-81486268D01*
X79174286Y-81486268D02*
X79117143Y-81457697D01*
X79117143Y-81457697D02*
X79002857Y-81429125D01*
X79002857Y-81429125D02*
X78945714Y-81400554D01*
X78945714Y-81400554D02*
X78917143Y-81371982D01*
X78917143Y-81371982D02*
X78888571Y-81314840D01*
X78888571Y-81314840D02*
X78888571Y-81257697D01*
X78888571Y-81257697D02*
X78917143Y-81200554D01*
X78917143Y-81200554D02*
X78945714Y-81171982D01*
X78945714Y-81171982D02*
X79002857Y-81143411D01*
X79002857Y-81143411D02*
X79145714Y-81143411D01*
X79145714Y-81143411D02*
X79231428Y-81171982D01*
D11*
X184875963Y-64511132D02*
X184945688Y-63714176D01*
X184910825Y-64112654D02*
X184412728Y-64069076D01*
X184945688Y-63714176D02*
X185508542Y-64164949D01*
X185508542Y-64164949D02*
X184875963Y-64511132D01*
X185508542Y-64164949D02*
X185460606Y-64712855D01*
X185508542Y-64164949D02*
X185556478Y-63617040D01*
X185907020Y-64199810D02*
X185508542Y-64164949D01*
X77583922Y-127128882D02*
X77968426Y-127018627D01*
X77968426Y-127018627D02*
X77816826Y-126489933D01*
X77968426Y-127018627D02*
X78120027Y-127547321D01*
X77968426Y-127018627D02*
X78434928Y-126468740D01*
X78434928Y-126468740D02*
X78655438Y-127237749D01*
X78545182Y-126853245D02*
X79025814Y-126715426D01*
X78655438Y-127237749D02*
X77968426Y-127018627D01*
X116750000Y-77450000D02*
X117350000Y-77850000D01*
X116750000Y-77850000D02*
X116250000Y-77850000D01*
X116750000Y-78250000D02*
X116750000Y-77450000D01*
X117350000Y-77850000D02*
X116750000Y-78250000D01*
X117350000Y-77850000D02*
X117350000Y-77300000D01*
X117350000Y-77850000D02*
X117350000Y-78400000D01*
X117750000Y-77850000D02*
X117350000Y-77850000D01*
X78900000Y-102500000D02*
X78900000Y-103500000D01*
X78900000Y-105500000D02*
X78900000Y-104500000D01*
X79400000Y-105000000D02*
X78400000Y-105000000D01*
D12*
X79940000Y-100940000D02*
X80940000Y-100940000D01*
X79940000Y-101860000D02*
X79940000Y-100940000D01*
X79940000Y-106140000D02*
X79940000Y-107060000D01*
X79940000Y-107060000D02*
X80940000Y-107060000D01*
X87760000Y-100940000D02*
X86760000Y-100940000D01*
X87760000Y-101940000D02*
X87760000Y-100940000D01*
X87760000Y-106140000D02*
X87760000Y-107060000D01*
X87760000Y-107060000D02*
X86760000Y-107060000D01*
D11*
X116750000Y-94450000D02*
X117350000Y-94850000D01*
X116750000Y-94850000D02*
X116250000Y-94850000D01*
X116750000Y-95250000D02*
X116750000Y-94450000D01*
X117350000Y-94850000D02*
X116750000Y-95250000D01*
X117350000Y-94850000D02*
X117350000Y-94300000D01*
X117350000Y-94850000D02*
X117350000Y-95400000D01*
X117750000Y-94850000D02*
X117350000Y-94850000D01*
X138125000Y-87025000D02*
X138725000Y-87425000D01*
X138125000Y-87425000D02*
X137625000Y-87425000D01*
X138125000Y-87825000D02*
X138125000Y-87025000D01*
X138725000Y-87425000D02*
X138125000Y-87825000D01*
X138725000Y-87425000D02*
X138725000Y-86875000D01*
X138725000Y-87425000D02*
X138725000Y-87975000D01*
X139125000Y-87425000D02*
X138725000Y-87425000D01*
X103225000Y-82500000D02*
X103625000Y-81900000D01*
X103625000Y-81500000D02*
X103625000Y-81900000D01*
X103625000Y-81900000D02*
X103075000Y-81900000D01*
X103625000Y-81900000D02*
X104025000Y-82500000D01*
X103625000Y-81900000D02*
X104175000Y-81900000D01*
X103625000Y-82500000D02*
X103625000Y-83000000D01*
X104025000Y-82500000D02*
X103225000Y-82500000D01*
X74350000Y-62085000D02*
X74350000Y-62875000D01*
X76400000Y-63925000D02*
X76200000Y-63925000D01*
X79400000Y-63925000D02*
X77700000Y-63925000D01*
X80650000Y-61075000D02*
X74950000Y-61075000D01*
X81250000Y-62875000D02*
X81250000Y-62085000D01*
X205855322Y-77137652D02*
X206652278Y-77207377D01*
X206166644Y-78168709D02*
X206201505Y-77770231D01*
X206201505Y-77770231D02*
X205653599Y-77722295D01*
X206201505Y-77770231D02*
X205855322Y-77137652D01*
X206201505Y-77770231D02*
X206749414Y-77818167D01*
X206253800Y-77172514D02*
X206297378Y-76674417D01*
X206652278Y-77207377D02*
X206201505Y-77770231D01*
X203959685Y-98804887D02*
X204756641Y-98874612D01*
X204271007Y-99835944D02*
X204305868Y-99437466D01*
X204305868Y-99437466D02*
X203757962Y-99389530D01*
X204305868Y-99437466D02*
X203959685Y-98804887D01*
X204305868Y-99437466D02*
X204853777Y-99485402D01*
X204358163Y-98839749D02*
X204401741Y-98341652D01*
X204756641Y-98874612D02*
X204305868Y-99437466D01*
X161936634Y-72863651D02*
X161971530Y-72064413D01*
X161954082Y-72464032D02*
X161454558Y-72442222D01*
X161971530Y-72064413D02*
X162553511Y-72490204D01*
X162553511Y-72490204D02*
X161936634Y-72863651D01*
X162553511Y-72490204D02*
X162529520Y-73039680D01*
X162553511Y-72490204D02*
X162577502Y-71940727D01*
X162953130Y-72507652D02*
X162553511Y-72490204D01*
X84500000Y-61100000D02*
X84500000Y-60850000D01*
X84500000Y-64100000D02*
X84500000Y-64350000D01*
X84750000Y-60850000D02*
X84500000Y-60850000D01*
X84750000Y-64350000D02*
X84500000Y-64350000D01*
X88950000Y-60850000D02*
X89200000Y-60850000D01*
X88950000Y-64350000D02*
X89200000Y-64350000D01*
X89200000Y-61100000D02*
X89200000Y-60850000D01*
X89200000Y-64100000D02*
X89200000Y-64350000D01*
X99750000Y-94450000D02*
X100350000Y-94850000D01*
X99750000Y-94850000D02*
X99250000Y-94850000D01*
X99750000Y-95250000D02*
X99750000Y-94450000D01*
X100350000Y-94850000D02*
X99750000Y-95250000D01*
X100350000Y-94850000D02*
X100350000Y-94300000D01*
X100350000Y-94850000D02*
X100350000Y-95400000D01*
X100750000Y-94850000D02*
X100350000Y-94850000D01*
X94260891Y-119167125D02*
X94655966Y-119104551D01*
X94655966Y-119104551D02*
X94569927Y-118561322D01*
X94655966Y-119104551D02*
X94742005Y-119647780D01*
X94655966Y-119104551D02*
X95186005Y-118615615D01*
X95186005Y-118615615D02*
X95311153Y-119405766D01*
X95248579Y-119010690D02*
X95742423Y-118932473D01*
X95311153Y-119405766D02*
X94655966Y-119104551D01*
X161195105Y-89847471D02*
X161230001Y-89048233D01*
X161212553Y-89447852D02*
X160713029Y-89426042D01*
X161230001Y-89048233D02*
X161811982Y-89474024D01*
X161811982Y-89474024D02*
X161195105Y-89847471D01*
X161811982Y-89474024D02*
X161787991Y-90023500D01*
X161811982Y-89474024D02*
X161835973Y-88924547D01*
X162211601Y-89491472D02*
X161811982Y-89474024D01*
X181912668Y-98381752D02*
X181982393Y-97584796D01*
X181947530Y-97983274D02*
X181449433Y-97939696D01*
X181982393Y-97584796D02*
X182545247Y-98035569D01*
X182545247Y-98035569D02*
X181912668Y-98381752D01*
X182545247Y-98035569D02*
X182497311Y-98583475D01*
X182545247Y-98035569D02*
X182593183Y-97487660D01*
X182943725Y-98070430D02*
X182545247Y-98035569D01*
X141600000Y-75075000D02*
X142000000Y-74475000D01*
X142000000Y-74075000D02*
X142000000Y-74475000D01*
X142000000Y-74475000D02*
X141450000Y-74475000D01*
X142000000Y-74475000D02*
X142400000Y-75075000D01*
X142000000Y-74475000D02*
X142550000Y-74475000D01*
X142000000Y-75075000D02*
X142000000Y-75575000D01*
X142400000Y-75075000D02*
X141600000Y-75075000D01*
X162678164Y-55879831D02*
X162713060Y-55080593D01*
X162695612Y-55480212D02*
X162196088Y-55458402D01*
X162713060Y-55080593D02*
X163295041Y-55506384D01*
X163295041Y-55506384D02*
X162678164Y-55879831D01*
X163295041Y-55506384D02*
X163271050Y-56055860D01*
X163295041Y-55506384D02*
X163319032Y-54956907D01*
X163694660Y-55523832D02*
X163295041Y-55506384D01*
X116750000Y-60450000D02*
X117350000Y-60850000D01*
X116750000Y-60850000D02*
X116250000Y-60850000D01*
X116750000Y-61250000D02*
X116750000Y-60450000D01*
X117350000Y-60850000D02*
X116750000Y-61250000D01*
X117350000Y-60850000D02*
X117350000Y-60300000D01*
X117350000Y-60850000D02*
X117350000Y-61400000D01*
X117750000Y-60850000D02*
X117350000Y-60850000D01*
X112715116Y-122205043D02*
X113114142Y-122232945D01*
X113114142Y-122232945D02*
X113075776Y-122781605D01*
X113114142Y-122232945D02*
X113152508Y-121684285D01*
X113114142Y-122232945D02*
X113740583Y-121875773D01*
X113684777Y-122673825D02*
X113114142Y-122232945D01*
X113712680Y-122274799D02*
X114211462Y-122309677D01*
X113740583Y-121875773D02*
X113684777Y-122673825D01*
X186485680Y-85983136D02*
X186936453Y-85420282D01*
X186884158Y-86017999D02*
X186840580Y-86516096D01*
X186936453Y-85420282D02*
X186388544Y-85372346D01*
X186936453Y-85420282D02*
X187282636Y-86052861D01*
X186936453Y-85420282D02*
X187484359Y-85468218D01*
X186971314Y-85021804D02*
X186936453Y-85420282D01*
X187282636Y-86052861D02*
X186485680Y-85983136D01*
X138125000Y-53025000D02*
X138725000Y-53425000D01*
X138125000Y-53425000D02*
X137625000Y-53425000D01*
X138125000Y-53825000D02*
X138125000Y-53025000D01*
X138725000Y-53425000D02*
X138125000Y-53825000D01*
X138725000Y-53425000D02*
X138725000Y-52875000D01*
X138725000Y-53425000D02*
X138725000Y-53975000D01*
X139125000Y-53425000D02*
X138725000Y-53425000D01*
X99750000Y-60450000D02*
X100350000Y-60850000D01*
X99750000Y-60850000D02*
X99250000Y-60850000D01*
X99750000Y-61250000D02*
X99750000Y-60450000D01*
X100350000Y-60850000D02*
X99750000Y-61250000D01*
X100350000Y-60850000D02*
X100350000Y-60300000D01*
X100350000Y-60850000D02*
X100350000Y-61400000D01*
X100750000Y-60850000D02*
X100350000Y-60850000D01*
D12*
X71850000Y-64900000D02*
X71850000Y-95500000D01*
X71850000Y-64900000D02*
X74510000Y-64900000D01*
X71850000Y-95500000D02*
X74510000Y-95500000D01*
X74510000Y-64900000D02*
X74510000Y-95500000D01*
X87090000Y-64900000D02*
X87090000Y-95500000D01*
X87090000Y-64900000D02*
X89750000Y-64900000D01*
X87090000Y-67500000D02*
X89750000Y-67500000D01*
X87090000Y-95500000D02*
X89750000Y-95500000D01*
X89750000Y-64900000D02*
X89750000Y-95500000D01*
D11*
X175645921Y-92563429D02*
X175733077Y-91567234D01*
X175645921Y-92563429D02*
X176642116Y-92650584D01*
X176778946Y-79612898D02*
X176866101Y-78616703D01*
X177862296Y-78703859D02*
X176866101Y-78616703D01*
X188596452Y-93696453D02*
X189592647Y-93783609D01*
X189679802Y-92787414D02*
X189592647Y-93783609D01*
X190812827Y-79836883D02*
X189816632Y-79749728D01*
X190812827Y-79836883D02*
X190725671Y-80833078D01*
X154680531Y-84308037D02*
X154724150Y-83308989D01*
X154680531Y-84308037D02*
X155679579Y-84351656D01*
X155247583Y-71320410D02*
X155291202Y-70321362D01*
X156290250Y-70364981D02*
X155291202Y-70321362D01*
X167668158Y-84875089D02*
X168667206Y-84918708D01*
X168710825Y-83919660D02*
X168667206Y-84918708D01*
X169277877Y-70932033D02*
X168278829Y-70888414D01*
X169277877Y-70932033D02*
X169234258Y-71931081D01*
X93000000Y-60000000D02*
X93000000Y-59000000D01*
X93000000Y-73000000D02*
X93000000Y-72000000D01*
X93000000Y-73000000D02*
X94000000Y-73000000D01*
X94000000Y-59000000D02*
X93000000Y-59000000D01*
X106000000Y-73000000D02*
X107000000Y-73000000D01*
X107000000Y-59000000D02*
X106000000Y-59000000D01*
X107000000Y-59000000D02*
X107000000Y-60000000D01*
X107000000Y-72000000D02*
X107000000Y-73000000D01*
X153939002Y-101291857D02*
X153982621Y-100292809D01*
X153939002Y-101291857D02*
X154938050Y-101335476D01*
X154506054Y-88304230D02*
X154549673Y-87305182D01*
X155548721Y-87348801D02*
X154549673Y-87305182D01*
X166926629Y-101858909D02*
X167925677Y-101902528D01*
X167969296Y-100903480D02*
X167925677Y-101902528D01*
X168536348Y-87915853D02*
X167537300Y-87872234D01*
X168536348Y-87915853D02*
X168492729Y-88914901D01*
X71366707Y-125400630D02*
X71642344Y-126361891D01*
X71366707Y-125400630D02*
X72327968Y-125124992D01*
X74949992Y-137897032D02*
X75225630Y-138858293D01*
X76186891Y-138582656D02*
X75225630Y-138858293D01*
X83863109Y-121817344D02*
X84824370Y-121541707D01*
X85100008Y-122502968D02*
X84824370Y-121541707D01*
X88683293Y-134999370D02*
X87722032Y-135275008D01*
X88683293Y-134999370D02*
X88407656Y-134038109D01*
X177127569Y-75628119D02*
X177214725Y-74631924D01*
X177127569Y-75628119D02*
X178123764Y-75715274D01*
X178260594Y-62677588D02*
X178347749Y-61681393D01*
X179343944Y-61768549D02*
X178347749Y-61681393D01*
X190078100Y-76761143D02*
X191074295Y-76848299D01*
X191161450Y-75852104D02*
X191074295Y-76848299D01*
X192294475Y-62901573D02*
X191298280Y-62814418D01*
X192294475Y-62901573D02*
X192207319Y-63897768D01*
X93000000Y-77000000D02*
X93000000Y-76000000D01*
X93000000Y-90000000D02*
X93000000Y-89000000D01*
X93000000Y-90000000D02*
X94000000Y-90000000D01*
X94000000Y-76000000D02*
X93000000Y-76000000D01*
X106000000Y-90000000D02*
X107000000Y-90000000D01*
X107000000Y-76000000D02*
X106000000Y-76000000D01*
X107000000Y-76000000D02*
X107000000Y-77000000D01*
X107000000Y-89000000D02*
X107000000Y-90000000D01*
X131375000Y-52575000D02*
X131375000Y-51575000D01*
X131375000Y-65575000D02*
X131375000Y-64575000D01*
X131375000Y-65575000D02*
X132375000Y-65575000D01*
X132375000Y-51575000D02*
X131375000Y-51575000D01*
X144375000Y-65575000D02*
X145375000Y-65575000D01*
X145375000Y-51575000D02*
X144375000Y-51575000D01*
X145375000Y-51575000D02*
X145375000Y-52575000D01*
X145375000Y-64575000D02*
X145375000Y-65575000D01*
X131375000Y-69575000D02*
X131375000Y-68575000D01*
X131375000Y-82575000D02*
X131375000Y-81575000D01*
X131375000Y-82575000D02*
X132375000Y-82575000D01*
X132375000Y-68575000D02*
X131375000Y-68575000D01*
X144375000Y-82575000D02*
X145375000Y-82575000D01*
X145375000Y-68575000D02*
X144375000Y-68575000D01*
X145375000Y-68575000D02*
X145375000Y-69575000D01*
X145375000Y-81575000D02*
X145375000Y-82575000D01*
X193605312Y-82339789D02*
X193518156Y-83335984D01*
X194514351Y-83423139D02*
X193518156Y-83335984D01*
X194738336Y-69389258D02*
X194651181Y-70385453D01*
X194738336Y-69389258D02*
X195734531Y-69476414D01*
X207464882Y-84556164D02*
X206468687Y-84469008D01*
X207464882Y-84556164D02*
X207552037Y-83559969D01*
X207688867Y-70522283D02*
X208685062Y-70609438D01*
X208597906Y-71605633D02*
X208685062Y-70609438D01*
X110000000Y-60000000D02*
X110000000Y-59000000D01*
X110000000Y-73000000D02*
X110000000Y-72000000D01*
X110000000Y-73000000D02*
X111000000Y-73000000D01*
X111000000Y-59000000D02*
X110000000Y-59000000D01*
X123000000Y-73000000D02*
X124000000Y-73000000D01*
X124000000Y-59000000D02*
X123000000Y-59000000D01*
X124000000Y-59000000D02*
X124000000Y-60000000D01*
X124000000Y-72000000D02*
X124000000Y-73000000D01*
X174164274Y-109498739D02*
X174251430Y-108502544D01*
X174164274Y-109498739D02*
X175160469Y-109585894D01*
X175297299Y-96548208D02*
X175384454Y-95552013D01*
X176380649Y-95639169D02*
X175384454Y-95552013D01*
X187114805Y-110631763D02*
X188111000Y-110718919D01*
X188198155Y-109722724D02*
X188111000Y-110718919D01*
X189331180Y-96772193D02*
X188334985Y-96685038D01*
X189331180Y-96772193D02*
X189244024Y-97768388D01*
D12*
X74728095Y-135672001D02*
X74287075Y-134133983D01*
X76266114Y-135230981D02*
X74728095Y-135672001D01*
D11*
X110000000Y-94000000D02*
X110000000Y-93000000D01*
X110000000Y-107000000D02*
X110000000Y-106000000D01*
X110000000Y-107000000D02*
X111000000Y-107000000D01*
X111000000Y-93000000D02*
X110000000Y-93000000D01*
X123000000Y-107000000D02*
X124000000Y-107000000D01*
X124000000Y-93000000D02*
X123000000Y-93000000D01*
X124000000Y-93000000D02*
X124000000Y-94000000D01*
X124000000Y-106000000D02*
X124000000Y-107000000D01*
X106351291Y-123614558D02*
X106421048Y-122616994D01*
X106351291Y-123614558D02*
X107348855Y-123684318D01*
X107258122Y-110646225D02*
X107327882Y-109648661D01*
X108325446Y-109718418D02*
X107327882Y-109648661D01*
X119319624Y-124521392D02*
X120317188Y-124591149D01*
X120386948Y-123593585D02*
X120317188Y-124591149D01*
X121293779Y-110625252D02*
X120296215Y-110555492D01*
X121293779Y-110625252D02*
X121224022Y-111622816D01*
D12*
X90385207Y-127298527D02*
X90134911Y-125718225D01*
X91965508Y-127048232D02*
X90385207Y-127298527D01*
X134575000Y-68975000D02*
X136175000Y-68975000D01*
X134575000Y-70575000D02*
X134575000Y-68975000D01*
D11*
X191709674Y-104007023D02*
X191622518Y-105003218D01*
X192618713Y-105090373D02*
X191622518Y-105003218D01*
X192842698Y-91056492D02*
X192755543Y-92052687D01*
X192842698Y-91056492D02*
X193838893Y-91143648D01*
X205569244Y-106223398D02*
X204573049Y-106136242D01*
X205569244Y-106223398D02*
X205656399Y-105227203D01*
X205793229Y-92189517D02*
X206789424Y-92276672D01*
X206702268Y-93272867D02*
X206789424Y-92276672D01*
D12*
X179879613Y-80887991D02*
X180019062Y-79294080D01*
X180019062Y-79294080D02*
X181612974Y-79433529D01*
D11*
X110000000Y-77000000D02*
X110000000Y-76000000D01*
X110000000Y-90000000D02*
X110000000Y-89000000D01*
X110000000Y-90000000D02*
X111000000Y-90000000D01*
X111000000Y-76000000D02*
X110000000Y-76000000D01*
X123000000Y-90000000D02*
X124000000Y-90000000D01*
X124000000Y-76000000D02*
X123000000Y-76000000D01*
X124000000Y-76000000D02*
X124000000Y-77000000D01*
X124000000Y-89000000D02*
X124000000Y-90000000D01*
X155422061Y-67324217D02*
X155465680Y-66325169D01*
X155422061Y-67324217D02*
X156421109Y-67367836D01*
X155989113Y-54336590D02*
X156032732Y-53337542D01*
X157031780Y-53381161D02*
X156032732Y-53337542D01*
X168409688Y-67891269D02*
X169408736Y-67934888D01*
X169452355Y-66935840D02*
X169408736Y-67934888D01*
X170019407Y-53948213D02*
X169020359Y-53904594D01*
X170019407Y-53948213D02*
X169975788Y-54947261D01*
X131375000Y-86575000D02*
X131375000Y-85575000D01*
X131375000Y-99575000D02*
X131375000Y-98575000D01*
X131375000Y-99575000D02*
X132375000Y-99575000D01*
X132375000Y-85575000D02*
X131375000Y-85575000D01*
X144375000Y-99575000D02*
X145375000Y-99575000D01*
X145375000Y-85575000D02*
X144375000Y-85575000D01*
X145375000Y-85575000D02*
X145375000Y-86575000D01*
X145375000Y-98575000D02*
X145375000Y-99575000D01*
D12*
X96200000Y-76400000D02*
X97800000Y-76400000D01*
X96200000Y-78000000D02*
X96200000Y-76400000D01*
D11*
X88300638Y-116694067D02*
X88457073Y-117681755D01*
X88300638Y-116694067D02*
X89288327Y-116537632D01*
X90334286Y-129534015D02*
X90490721Y-130521704D01*
X91478409Y-130365269D02*
X90490721Y-130521704D01*
X101140587Y-114660419D02*
X102128275Y-114503984D01*
X102284710Y-115491673D02*
X102128275Y-114503984D01*
X104318358Y-128331621D02*
X103330669Y-128488056D01*
X104318358Y-128331621D02*
X104161923Y-127343933D01*
X93000000Y-94000000D02*
X93000000Y-93000000D01*
X93000000Y-107000000D02*
X93000000Y-106000000D01*
X93000000Y-107000000D02*
X94000000Y-107000000D01*
X94000000Y-93000000D02*
X93000000Y-93000000D01*
X106000000Y-107000000D02*
X107000000Y-107000000D01*
X107000000Y-93000000D02*
X106000000Y-93000000D01*
X107000000Y-93000000D02*
X107000000Y-94000000D01*
X107000000Y-106000000D02*
X107000000Y-107000000D01*
%LPC*%
D13*
X186803595Y-64278250D03*
X183516153Y-63990636D03*
D14*
X150375000Y-56075000D03*
D15*
X76718786Y-127376956D03*
X79890950Y-126467352D03*
D16*
X118650000Y-77850000D03*
X115350000Y-77850000D03*
D17*
X83484000Y-103000000D03*
X83484000Y-105000000D03*
D18*
X86300000Y-103000000D03*
X86300000Y-105000000D03*
D19*
X84500000Y-103000000D03*
X84500000Y-105000000D03*
D16*
X118650000Y-94850000D03*
X115350000Y-94850000D03*
D14*
X201629000Y-107925000D03*
D16*
X140025000Y-87425000D03*
X136725000Y-87425000D03*
D20*
X103625000Y-80600000D03*
X103625000Y-83900000D03*
D14*
X150375000Y-107925000D03*
D21*
X74150000Y-63585000D03*
X81450000Y-63585000D03*
D22*
X76300000Y-62475000D03*
X79300000Y-62475000D03*
D21*
X74150000Y-61375000D03*
X81450000Y-61375000D03*
D23*
X80050000Y-64235000D03*
X77050000Y-64235000D03*
X75550000Y-64235000D03*
D24*
X206088204Y-79065284D03*
X206375818Y-75777842D03*
X204192567Y-100732519D03*
X204480181Y-97445077D03*
D25*
X163852274Y-72546909D03*
X160555414Y-72402965D03*
D26*
X89475000Y-61750000D03*
X89475000Y-63450000D03*
X84225000Y-61750000D03*
X84225000Y-63450000D03*
D16*
X101650000Y-94850000D03*
X98350000Y-94850000D03*
D27*
X93371971Y-119307916D03*
X96631343Y-118791682D03*
D25*
X163110745Y-89530729D03*
X159813885Y-89386785D03*
D28*
X192574422Y-86515832D03*
D13*
X183840300Y-98148870D03*
X180552858Y-97861256D03*
D20*
X142000000Y-73175000D03*
X142000000Y-76475000D03*
D14*
X73800000Y-104000000D03*
X205116000Y-68150000D03*
D25*
X164593804Y-55563089D03*
X161296944Y-55419145D03*
D16*
X118650000Y-60850000D03*
X115350000Y-60850000D03*
D29*
X111817308Y-122142262D03*
X115109270Y-122372458D03*
D30*
X76990000Y-98820000D03*
X79530000Y-98820000D03*
X82070000Y-98820000D03*
X84610000Y-98820000D03*
D31*
X76990000Y-97070000D03*
X79530000Y-97070000D03*
X82070000Y-97070000D03*
X84610000Y-97070000D03*
X76990000Y-96170000D03*
X79530000Y-96170000D03*
X82070000Y-96170000D03*
X84610000Y-96170000D03*
D14*
X107000000Y-127500000D03*
D32*
X187049754Y-84125229D03*
X186762140Y-87412671D03*
D28*
X86000000Y-119675000D03*
D16*
X140025000Y-53425000D03*
X136725000Y-53425000D03*
D14*
X108500000Y-58000000D03*
D16*
X101650000Y-60850000D03*
X98350000Y-60850000D03*
D33*
X75300000Y-66230000D03*
X75300000Y-68770000D03*
X75300000Y-71310000D03*
X75300000Y-73850000D03*
X75300000Y-76390000D03*
X75300000Y-78930000D03*
X75300000Y-81470000D03*
X75300000Y-84010000D03*
X75300000Y-86550000D03*
X75300000Y-89090000D03*
X75300000Y-91630000D03*
X75300000Y-94170000D03*
D34*
X76025000Y-66230000D03*
X76025000Y-68770000D03*
X76025000Y-71310000D03*
X76025000Y-73850000D03*
X76025000Y-76390000D03*
X76025000Y-78930000D03*
X76025000Y-81470000D03*
X76025000Y-84010000D03*
X76025000Y-86550000D03*
X76025000Y-89090000D03*
X76025000Y-91630000D03*
X76025000Y-94170000D03*
D35*
X85575000Y-66230000D03*
X85575000Y-68770000D03*
X85575000Y-71310000D03*
X85575000Y-73850000D03*
X85575000Y-76390000D03*
X85575000Y-78930000D03*
X85575000Y-81470000D03*
X85575000Y-84010000D03*
X85575000Y-86550000D03*
X85575000Y-89090000D03*
X85575000Y-91630000D03*
X85575000Y-94170000D03*
D36*
X86300000Y-66230000D03*
X86300000Y-68770000D03*
X86300000Y-71310000D03*
X86300000Y-73850000D03*
X86300000Y-76390000D03*
X86300000Y-78930000D03*
X86300000Y-81470000D03*
X86300000Y-84010000D03*
X86300000Y-86550000D03*
X86300000Y-89090000D03*
X86300000Y-91630000D03*
X86300000Y-94170000D03*
D37*
X84200000Y-66230000D03*
D38*
X88420000Y-66230000D03*
D37*
X84200000Y-68770000D03*
D38*
X88420000Y-68770000D03*
D37*
X84200000Y-71310000D03*
D38*
X88420000Y-71310000D03*
D37*
X84200000Y-73850000D03*
D38*
X88420000Y-73850000D03*
D37*
X84200000Y-76390000D03*
D38*
X88420000Y-76390000D03*
D37*
X84200000Y-78930000D03*
D38*
X88420000Y-78930000D03*
D37*
X84200000Y-81470000D03*
D38*
X88420000Y-81470000D03*
D37*
X84200000Y-84010000D03*
D38*
X88420000Y-84010000D03*
D37*
X84200000Y-86550000D03*
D38*
X88420000Y-86550000D03*
D37*
X84200000Y-89090000D03*
D38*
X88420000Y-89090000D03*
D37*
X84200000Y-91630000D03*
D38*
X88420000Y-91630000D03*
D37*
X84200000Y-94170000D03*
D38*
X88420000Y-94170000D03*
X73180000Y-94170000D03*
D37*
X77400000Y-94170000D03*
D38*
X73180000Y-91630000D03*
D37*
X77400000Y-91630000D03*
D38*
X73180000Y-89090000D03*
D37*
X77400000Y-89090000D03*
D38*
X73180000Y-86550000D03*
D37*
X77400000Y-86550000D03*
D38*
X73180000Y-84010000D03*
D37*
X77400000Y-84010000D03*
D38*
X73180000Y-81470000D03*
D37*
X77400000Y-81470000D03*
D38*
X73180000Y-78930000D03*
D37*
X77400000Y-78930000D03*
D38*
X73180000Y-76390000D03*
D37*
X77400000Y-76390000D03*
D38*
X73180000Y-73850000D03*
D37*
X77400000Y-73850000D03*
D38*
X73180000Y-71310000D03*
D37*
X77400000Y-71310000D03*
D38*
X73180000Y-68770000D03*
D37*
X77400000Y-68770000D03*
D38*
X73180000Y-66230000D03*
D37*
X77400000Y-66230000D03*
D28*
X129625000Y-84075000D03*
D39*
X191118656Y-90654703D03*
D40*
X188708445Y-86679513D03*
D41*
X188659200Y-81505532D03*
D42*
X182710797Y-92127514D03*
D43*
X183229374Y-86200156D03*
D41*
X178697253Y-80633975D03*
D40*
X177750303Y-85720799D03*
D44*
X187883513Y-90371665D03*
D45*
X179478146Y-91844694D03*
D44*
X177921563Y-89500107D03*
D46*
X170055285Y-81726217D03*
D40*
X167473969Y-77859942D03*
D41*
X167199085Y-72693034D03*
D42*
X161719669Y-83564372D03*
D43*
X161979204Y-77620035D03*
D41*
X157208603Y-72256840D03*
D40*
X156484439Y-77380128D03*
D44*
X166810872Y-81584563D03*
D47*
X158477757Y-83422827D03*
D44*
X156820390Y-81148369D03*
D48*
X108247500Y-69750000D03*
D40*
X105500000Y-66000000D03*
D41*
X105000000Y-60850000D03*
D42*
X100000000Y-71950000D03*
D43*
X100000000Y-66000000D03*
D41*
X95000000Y-60850000D03*
D40*
X94500000Y-66000000D03*
D44*
X105000000Y-69750000D03*
D49*
X96755000Y-71950000D03*
D44*
X95000000Y-69750000D03*
D46*
X169313756Y-98710037D03*
D40*
X166732440Y-94843762D03*
D41*
X166457556Y-89676854D03*
D42*
X160978140Y-100548192D03*
D43*
X161237675Y-94603855D03*
D41*
X156467074Y-89240660D03*
D40*
X155742910Y-94363948D03*
D44*
X166069343Y-98568383D03*
D47*
X157736228Y-100406647D03*
D44*
X156078861Y-98132189D03*
D50*
X81356412Y-121238354D03*
D40*
X78508995Y-124913061D03*
D41*
X73696315Y-126813224D03*
D42*
X85744507Y-128559958D03*
D43*
X80025000Y-130200000D03*
D41*
X76452689Y-136425841D03*
D40*
X81541005Y-135486939D03*
D44*
X82251546Y-124360051D03*
D51*
X86638950Y-131679252D03*
D44*
X85007918Y-133972668D03*
D39*
X192600304Y-73719393D03*
D40*
X190190093Y-69744203D03*
D41*
X190140848Y-64570222D03*
D42*
X184192445Y-75192204D03*
D43*
X184711022Y-69264846D03*
D41*
X180178901Y-63698665D03*
D40*
X179231951Y-68785489D03*
D44*
X189365161Y-73436355D03*
D45*
X180959794Y-74909384D03*
D44*
X179403211Y-72564797D03*
D48*
X108247500Y-86750000D03*
D40*
X105500000Y-83000000D03*
D41*
X105000000Y-77850000D03*
D42*
X100000000Y-88950000D03*
D43*
X100000000Y-83000000D03*
D41*
X95000000Y-77850000D03*
D40*
X94500000Y-83000000D03*
D44*
X105000000Y-86750000D03*
D49*
X96755000Y-88950000D03*
D44*
X95000000Y-86750000D03*
D48*
X146622500Y-62325000D03*
D40*
X143875000Y-58575000D03*
D41*
X143375000Y-53425000D03*
D42*
X138375000Y-64525000D03*
D43*
X138375000Y-58575000D03*
D41*
X133375000Y-53425000D03*
D40*
X132875000Y-58575000D03*
D44*
X143375000Y-62325000D03*
D49*
X135130000Y-64525000D03*
D44*
X133375000Y-62325000D03*
D48*
X146622500Y-79325000D03*
D40*
X143875000Y-75575000D03*
D41*
X143375000Y-70425000D03*
D42*
X138375000Y-81525000D03*
D43*
X138375000Y-75575000D03*
D41*
X133375000Y-70425000D03*
D40*
X132875000Y-75575000D03*
D44*
X143375000Y-79325000D03*
D49*
X135130000Y-81525000D03*
D44*
X133375000Y-79325000D03*
D52*
X196647062Y-84861993D03*
D40*
X200622252Y-82451782D03*
D41*
X205796233Y-82402537D03*
D42*
X195174251Y-76454134D03*
D43*
X201101609Y-76972711D03*
D41*
X206667790Y-72440590D03*
D40*
X201580966Y-71493640D03*
D44*
X196930100Y-81626850D03*
D53*
X195457071Y-73221483D03*
D44*
X197801658Y-71664900D03*
D48*
X125247500Y-69750000D03*
D40*
X122500000Y-66000000D03*
D41*
X122000000Y-60850000D03*
D42*
X117000000Y-71950000D03*
D43*
X117000000Y-66000000D03*
D41*
X112000000Y-60850000D03*
D40*
X111500000Y-66000000D03*
D44*
X122000000Y-69750000D03*
D49*
X113755000Y-71950000D03*
D44*
X112000000Y-69750000D03*
D39*
X189637009Y-107590013D03*
D40*
X187226798Y-103614823D03*
D41*
X187177553Y-98440842D03*
D42*
X181229150Y-109062824D03*
D43*
X181747727Y-103135466D03*
D41*
X177215606Y-97569285D03*
D40*
X176268656Y-102656109D03*
D44*
X186401866Y-107306975D03*
D45*
X177996499Y-108780004D03*
D44*
X176439916Y-106435417D03*
D54*
X75147354Y-128789834D03*
X73801588Y-129175727D03*
X75290030Y-134366540D03*
X76635796Y-133980647D03*
D48*
X125247500Y-103750000D03*
D40*
X122500000Y-100000000D03*
D41*
X122000000Y-94850000D03*
D42*
X117000000Y-105950000D03*
D43*
X117000000Y-100000000D03*
D41*
X112000000Y-94850000D03*
D40*
X111500000Y-100000000D03*
D44*
X122000000Y-103750000D03*
D49*
X113755000Y-105950000D03*
D44*
X112000000Y-103750000D03*
D55*
X105856712Y-112803723D03*
D40*
X108335933Y-116736244D03*
D41*
X108475469Y-121908577D03*
D42*
X114237586Y-111184399D03*
D43*
X113822535Y-117119905D03*
D41*
X118451109Y-122606142D03*
D40*
X119309137Y-117503566D03*
D44*
X109096302Y-113030257D03*
D56*
X117474681Y-111410759D03*
D44*
X119071942Y-113727822D03*
D57*
X91640066Y-120518753D03*
X90257302Y-120737762D03*
X91102048Y-126071279D03*
X92484812Y-125852270D03*
D58*
X141075000Y-71275000D03*
X141075000Y-69875000D03*
X135675000Y-69875000D03*
X135675000Y-71275000D03*
D52*
X194751424Y-106529227D03*
D40*
X198726614Y-104119016D03*
D41*
X203900595Y-104069771D03*
D42*
X193278613Y-98121368D03*
D43*
X199205971Y-98639945D03*
D41*
X204772152Y-94107824D03*
D40*
X199685328Y-93160874D03*
D44*
X195034462Y-103294084D03*
D53*
X193561433Y-94888717D03*
D44*
X195906020Y-93332134D03*
D59*
X186293870Y-82151840D03*
X186415888Y-80757167D03*
X181036436Y-80286526D03*
X180914418Y-81681199D03*
D48*
X125247500Y-86750000D03*
D40*
X122500000Y-83000000D03*
D41*
X122000000Y-77850000D03*
D42*
X117000000Y-88950000D03*
D43*
X117000000Y-83000000D03*
D41*
X112000000Y-77850000D03*
D40*
X111500000Y-83000000D03*
D44*
X122000000Y-86750000D03*
D49*
X113755000Y-88950000D03*
D44*
X112000000Y-86750000D03*
D46*
X170796815Y-64742397D03*
D40*
X168215499Y-60876122D03*
D41*
X167940615Y-55709214D03*
D42*
X162461199Y-66580552D03*
D43*
X162720734Y-60636215D03*
D41*
X157950133Y-55273020D03*
D40*
X157225969Y-60396308D03*
D44*
X167552402Y-64600743D03*
D47*
X159219287Y-66439007D03*
D44*
X157561920Y-64164549D03*
D48*
X146622500Y-96325000D03*
D40*
X143875000Y-92575000D03*
D41*
X143375000Y-87425000D03*
D42*
X138375000Y-98525000D03*
D43*
X138375000Y-92575000D03*
D41*
X133375000Y-87425000D03*
D40*
X132875000Y-92575000D03*
D44*
X143375000Y-96325000D03*
D49*
X135130000Y-98525000D03*
D44*
X133375000Y-96325000D03*
D58*
X102700000Y-78700000D03*
X102700000Y-77300000D03*
X97300000Y-77300000D03*
X97300000Y-78700000D03*
D60*
X98723136Y-113780255D03*
D40*
X95449108Y-117080558D03*
D41*
X90440731Y-118380040D03*
D42*
X102186244Y-121582059D03*
D43*
X96309498Y-122512844D03*
D41*
X92005075Y-128256923D03*
D40*
X97169888Y-127945130D03*
D44*
X99231157Y-116987773D03*
D61*
X102693871Y-124787108D03*
D44*
X100795502Y-126864656D03*
D48*
X108247500Y-103750000D03*
D40*
X105500000Y-100000000D03*
D41*
X105000000Y-94850000D03*
D42*
X100000000Y-105950000D03*
D43*
X100000000Y-100000000D03*
D41*
X95000000Y-94850000D03*
D40*
X94500000Y-100000000D03*
D44*
X105000000Y-103750000D03*
D49*
X96755000Y-105950000D03*
D44*
X95000000Y-103750000D03*
%LPD*%
M02*
