G04 #@! TF.GenerationSoftware,KiCad,Pcbnew,8.0.4*
G04 #@! TF.CreationDate,2024-08-08T10:24:45+04:00*
G04 #@! TF.ProjectId,ouleetka,6f756c65-6574-46b6-912e-6b696361645f,0.1*
G04 #@! TF.SameCoordinates,Original*
G04 #@! TF.FileFunction,Profile,NP*
%FSLAX46Y46*%
G04 Gerber Fmt 4.6, Leading zero omitted, Abs format (unit mm)*
G04 Created by KiCad (PCBNEW 8.0.4) date 2024-08-08 10:24:45*
%MOMM*%
%LPD*%
G01*
G04 APERTURE LIST*
G04 #@! TA.AperFunction,Profile*
%ADD10C,0.150000*%
G04 #@! TD*
G04 #@! TA.AperFunction,Profile*
%ADD11C,0.120000*%
G04 #@! TD*
G04 APERTURE END LIST*
D10*
X120581861Y-126311729D02*
G75*
G02*
X120513314Y-126352681I-1059461J1695529D01*
G01*
X210471936Y-65674879D02*
X206455721Y-111580432D01*
X76779182Y-142416359D02*
G75*
G02*
X74487977Y-141001902I-368782J1965559D01*
G01*
X120513315Y-126352682D02*
G75*
G02*
X76779182Y-142416359I-69638315J122027682D01*
G01*
X70498336Y-97998333D02*
G75*
G02*
X70499999Y-97959209I500264J-1667D01*
G01*
X122099807Y-125344169D02*
G75*
G02*
X121893268Y-125492273I-1266307J1547869D01*
G01*
X91250000Y-59500000D02*
G75*
G02*
X90250000Y-60500000I-1000000J0D01*
G01*
X121893267Y-125492272D02*
X120581861Y-126311729D01*
X70498336Y-97998333D02*
G75*
G02*
X69391130Y-122748468I-299497758J998304D01*
G01*
X91250000Y-56812253D02*
G75*
G02*
X92781823Y-54867791I2000100J-47D01*
G01*
X206455693Y-111580747D02*
G75*
G02*
X204428398Y-113406203I-1992493J174347D01*
G01*
X92781830Y-54867821D02*
G75*
G02*
X209234011Y-63647869I44593170J-185207179D01*
G01*
X204428399Y-113406131D02*
X160642102Y-112641839D01*
X90250000Y-60500000D02*
X72500000Y-60500000D01*
X209234011Y-63647869D02*
G75*
G02*
X210471961Y-65674433I-754411J-1852231D01*
G01*
X91250000Y-59500000D02*
X91250000Y-56812569D01*
X69461202Y-123471686D02*
X74487828Y-141001616D01*
X69461101Y-123471335D02*
G75*
G02*
X69391118Y-122748467I1922399J550935D01*
G01*
X160642102Y-112641839D02*
G75*
G02*
X160581211Y-112639848I34998J2002939D01*
G01*
X70500000Y-97959209D02*
X70500000Y-62500000D01*
X70500000Y-62500000D02*
G75*
G02*
X72500000Y-60500000I2000000J0D01*
G01*
X122099807Y-125344169D02*
G75*
G02*
X160580897Y-112639832I35775193J-43730831D01*
G01*
D11*
X77204795Y-132881220D02*
X74224884Y-133735696D01*
X73232589Y-130275154D01*
X76212500Y-129420678D01*
X77204795Y-132881220D01*
X93183556Y-124830382D02*
X90121722Y-125315328D01*
X89558558Y-121759650D01*
X92620392Y-121274704D01*
X93183556Y-124830382D01*
X136575000Y-69025000D02*
X140175000Y-69025000D01*
X140175000Y-72125000D01*
X136575000Y-72125000D01*
X136575000Y-69025000D01*
X185593395Y-79831962D02*
X185323212Y-82920165D01*
X181736911Y-82606404D01*
X182007094Y-79518201D01*
X185593395Y-79831962D01*
X98200000Y-76450000D02*
X101800000Y-76450000D01*
X101800000Y-79550000D01*
X98200000Y-79550000D01*
X98200000Y-76450000D01*
M02*
