%TF.GenerationSoftware,KiCad,Pcbnew,8.0.4*%
%TF.CreationDate,2024-08-08T10:27:54+04:00*%
%TF.ProjectId,ouleetka,6f756c65-6574-46b6-912e-6b696361645f,0.1*%
%TF.SameCoordinates,Original*%
%TF.FileFunction,Drillmap*%
%TF.FilePolarity,Positive*%
%FSLAX45Y45*%
G04 Gerber Fmt 4.5, Leading zero omitted, Abs format (unit mm)*
G04 Created by KiCad (PCBNEW 8.0.4) date 2024-08-08 10:27:54*
%MOMM*%
%LPD*%
G01*
G04 APERTURE LIST*
%ADD10C,0.150000*%
%ADD11C,0.120000*%
%ADD12C,0.200000*%
%ADD13C,0.440000*%
G04 APERTURE END LIST*
D10*
X12058186Y-12631173D02*
G75*
G02*
X12051331Y-12635268I-105946J169553D01*
G01*
X21047194Y-6567488D02*
X20645572Y-11158043D01*
X7677918Y-14241636D02*
G75*
G02*
X7448798Y-14100190I-36878J196556D01*
G01*
X12051331Y-12635268D02*
G75*
G02*
X7677918Y-14241636I-6963831J12202768D01*
G01*
X7049834Y-9799833D02*
G75*
G02*
X7050000Y-9795921I50026J-167D01*
G01*
X12209981Y-12534417D02*
G75*
G02*
X12189327Y-12549227I-126631J154787D01*
G01*
X9125000Y-5950000D02*
G75*
G02*
X9025000Y-6050000I-100000J0D01*
G01*
X12189327Y-12549227D02*
X12058186Y-12631173D01*
X7049834Y-9799833D02*
G75*
G02*
X6939113Y-12274847I-29949776J99830D01*
G01*
X9125000Y-5681225D02*
G75*
G02*
X9278182Y-5486779I200010J-5D01*
G01*
X20645569Y-11158075D02*
G75*
G02*
X20442840Y-11340620I-199249J17435D01*
G01*
X9278183Y-5486782D02*
G75*
G02*
X20923401Y-6364787I4459317J-18520718D01*
G01*
X20442840Y-11340613D02*
X16064210Y-11264184D01*
X9025000Y-6050000D02*
X7250000Y-6050000D01*
X20923401Y-6364787D02*
G75*
G02*
X21047196Y-6567443I-75441J-185223D01*
G01*
X9125000Y-5950000D02*
X9125000Y-5681257D01*
X6946120Y-12347169D02*
X7448783Y-14100162D01*
X6946110Y-12347133D02*
G75*
G02*
X6939112Y-12274847I192240J55094D01*
G01*
X16064210Y-11264184D02*
G75*
G02*
X16058121Y-11263985I3500J200294D01*
G01*
X7050000Y-9795921D02*
X7050000Y-6250000D01*
X7050000Y-6250000D02*
G75*
G02*
X7250000Y-6050000I200000J0D01*
G01*
X12209981Y-12534417D02*
G75*
G02*
X16058090Y-11263983I3577519J-4373083D01*
G01*
D11*
X7720479Y-13288122D02*
X7422488Y-13373570D01*
X7323259Y-13027515D01*
X7621250Y-12942068D01*
X7720479Y-13288122D01*
X9318356Y-12483038D02*
X9012172Y-12531533D01*
X8955856Y-12175965D01*
X9262039Y-12127470D01*
X9318356Y-12483038D01*
X13657500Y-6902500D02*
X14017500Y-6902500D01*
X14017500Y-7212500D01*
X13657500Y-7212500D01*
X13657500Y-6902500D01*
X18559340Y-7983196D02*
X18532321Y-8292016D01*
X18173691Y-8260640D01*
X18200709Y-7951820D01*
X18559340Y-7983196D01*
X9820000Y-7645000D02*
X10180000Y-7645000D01*
X10180000Y-7955000D01*
X9820000Y-7955000D01*
X9820000Y-7645000D01*
D12*
D13*
X8380000Y-11747500D02*
X8820000Y-12187500D01*
X8820000Y-11747500D02*
X8380000Y-12187500D01*
X12742500Y-8187500D02*
X13182500Y-8627500D01*
X13182500Y-8187500D02*
X12742500Y-8627500D01*
X19037442Y-8431583D02*
X19477442Y-8871583D01*
X19477442Y-8431583D02*
X19037442Y-8871583D01*
D12*
X7191648Y-14564049D02*
X7191648Y-14364049D01*
X7191648Y-14364049D02*
X7239267Y-14364049D01*
X7239267Y-14364049D02*
X7267839Y-14373573D01*
X7267839Y-14373573D02*
X7286886Y-14392621D01*
X7286886Y-14392621D02*
X7296410Y-14411668D01*
X7296410Y-14411668D02*
X7305934Y-14449764D01*
X7305934Y-14449764D02*
X7305934Y-14478335D01*
X7305934Y-14478335D02*
X7296410Y-14516430D01*
X7296410Y-14516430D02*
X7286886Y-14535478D01*
X7286886Y-14535478D02*
X7267839Y-14554526D01*
X7267839Y-14554526D02*
X7239267Y-14564049D01*
X7239267Y-14564049D02*
X7191648Y-14564049D01*
X7391648Y-14564049D02*
X7391648Y-14430716D01*
X7391648Y-14468811D02*
X7401172Y-14449764D01*
X7401172Y-14449764D02*
X7410696Y-14440240D01*
X7410696Y-14440240D02*
X7429743Y-14430716D01*
X7429743Y-14430716D02*
X7448791Y-14430716D01*
X7515458Y-14564049D02*
X7515458Y-14430716D01*
X7515458Y-14364049D02*
X7505934Y-14373573D01*
X7505934Y-14373573D02*
X7515458Y-14383097D01*
X7515458Y-14383097D02*
X7524981Y-14373573D01*
X7524981Y-14373573D02*
X7515458Y-14364049D01*
X7515458Y-14364049D02*
X7515458Y-14383097D01*
X7639267Y-14564049D02*
X7620219Y-14554526D01*
X7620219Y-14554526D02*
X7610696Y-14535478D01*
X7610696Y-14535478D02*
X7610696Y-14364049D01*
X7744029Y-14564049D02*
X7724981Y-14554526D01*
X7724981Y-14554526D02*
X7715458Y-14535478D01*
X7715458Y-14535478D02*
X7715458Y-14364049D01*
X7972600Y-14564049D02*
X7972600Y-14364049D01*
X7972600Y-14364049D02*
X8039267Y-14506906D01*
X8039267Y-14506906D02*
X8105934Y-14364049D01*
X8105934Y-14364049D02*
X8105934Y-14564049D01*
X8286886Y-14564049D02*
X8286886Y-14459287D01*
X8286886Y-14459287D02*
X8277362Y-14440240D01*
X8277362Y-14440240D02*
X8258315Y-14430716D01*
X8258315Y-14430716D02*
X8220219Y-14430716D01*
X8220219Y-14430716D02*
X8201172Y-14440240D01*
X8286886Y-14554526D02*
X8267839Y-14564049D01*
X8267839Y-14564049D02*
X8220219Y-14564049D01*
X8220219Y-14564049D02*
X8201172Y-14554526D01*
X8201172Y-14554526D02*
X8191648Y-14535478D01*
X8191648Y-14535478D02*
X8191648Y-14516430D01*
X8191648Y-14516430D02*
X8201172Y-14497383D01*
X8201172Y-14497383D02*
X8220219Y-14487859D01*
X8220219Y-14487859D02*
X8267839Y-14487859D01*
X8267839Y-14487859D02*
X8286886Y-14478335D01*
X8382124Y-14430716D02*
X8382124Y-14630716D01*
X8382124Y-14440240D02*
X8401172Y-14430716D01*
X8401172Y-14430716D02*
X8439267Y-14430716D01*
X8439267Y-14430716D02*
X8458315Y-14440240D01*
X8458315Y-14440240D02*
X8467839Y-14449764D01*
X8467839Y-14449764D02*
X8477362Y-14468811D01*
X8477362Y-14468811D02*
X8477362Y-14525954D01*
X8477362Y-14525954D02*
X8467839Y-14545002D01*
X8467839Y-14545002D02*
X8458315Y-14554526D01*
X8458315Y-14554526D02*
X8439267Y-14564049D01*
X8439267Y-14564049D02*
X8401172Y-14564049D01*
X8401172Y-14564049D02*
X8382124Y-14554526D01*
X8563077Y-14545002D02*
X8572601Y-14554526D01*
X8572601Y-14554526D02*
X8563077Y-14564049D01*
X8563077Y-14564049D02*
X8553553Y-14554526D01*
X8553553Y-14554526D02*
X8563077Y-14545002D01*
X8563077Y-14545002D02*
X8563077Y-14564049D01*
X8563077Y-14440240D02*
X8572601Y-14449764D01*
X8572601Y-14449764D02*
X8563077Y-14459287D01*
X8563077Y-14459287D02*
X8553553Y-14449764D01*
X8553553Y-14449764D02*
X8563077Y-14440240D01*
X8563077Y-14440240D02*
X8563077Y-14459287D01*
X6730871Y-14792566D02*
X6930871Y-14992566D01*
X6930871Y-14792566D02*
X6730871Y-14992566D01*
X7277362Y-14850716D02*
X7277362Y-14984049D01*
X7229743Y-14774526D02*
X7182124Y-14917383D01*
X7182124Y-14917383D02*
X7305934Y-14917383D01*
X7382124Y-14965002D02*
X7391648Y-14974526D01*
X7391648Y-14974526D02*
X7382124Y-14984049D01*
X7382124Y-14984049D02*
X7372600Y-14974526D01*
X7372600Y-14974526D02*
X7382124Y-14965002D01*
X7382124Y-14965002D02*
X7382124Y-14984049D01*
X7563077Y-14850716D02*
X7563077Y-14984049D01*
X7515458Y-14774526D02*
X7467839Y-14917383D01*
X7467839Y-14917383D02*
X7591648Y-14917383D01*
X7705934Y-14784049D02*
X7724981Y-14784049D01*
X7724981Y-14784049D02*
X7744029Y-14793573D01*
X7744029Y-14793573D02*
X7753553Y-14803097D01*
X7753553Y-14803097D02*
X7763077Y-14822145D01*
X7763077Y-14822145D02*
X7772600Y-14860240D01*
X7772600Y-14860240D02*
X7772600Y-14907859D01*
X7772600Y-14907859D02*
X7763077Y-14945954D01*
X7763077Y-14945954D02*
X7753553Y-14965002D01*
X7753553Y-14965002D02*
X7744029Y-14974526D01*
X7744029Y-14974526D02*
X7724981Y-14984049D01*
X7724981Y-14984049D02*
X7705934Y-14984049D01*
X7705934Y-14984049D02*
X7686886Y-14974526D01*
X7686886Y-14974526D02*
X7677362Y-14965002D01*
X7677362Y-14965002D02*
X7667839Y-14945954D01*
X7667839Y-14945954D02*
X7658315Y-14907859D01*
X7658315Y-14907859D02*
X7658315Y-14860240D01*
X7658315Y-14860240D02*
X7667839Y-14822145D01*
X7667839Y-14822145D02*
X7677362Y-14803097D01*
X7677362Y-14803097D02*
X7686886Y-14793573D01*
X7686886Y-14793573D02*
X7705934Y-14784049D01*
X7896410Y-14784049D02*
X7915458Y-14784049D01*
X7915458Y-14784049D02*
X7934505Y-14793573D01*
X7934505Y-14793573D02*
X7944029Y-14803097D01*
X7944029Y-14803097D02*
X7953553Y-14822145D01*
X7953553Y-14822145D02*
X7963077Y-14860240D01*
X7963077Y-14860240D02*
X7963077Y-14907859D01*
X7963077Y-14907859D02*
X7953553Y-14945954D01*
X7953553Y-14945954D02*
X7944029Y-14965002D01*
X7944029Y-14965002D02*
X7934505Y-14974526D01*
X7934505Y-14974526D02*
X7915458Y-14984049D01*
X7915458Y-14984049D02*
X7896410Y-14984049D01*
X7896410Y-14984049D02*
X7877362Y-14974526D01*
X7877362Y-14974526D02*
X7867839Y-14965002D01*
X7867839Y-14965002D02*
X7858315Y-14945954D01*
X7858315Y-14945954D02*
X7848791Y-14907859D01*
X7848791Y-14907859D02*
X7848791Y-14860240D01*
X7848791Y-14860240D02*
X7858315Y-14822145D01*
X7858315Y-14822145D02*
X7867839Y-14803097D01*
X7867839Y-14803097D02*
X7877362Y-14793573D01*
X7877362Y-14793573D02*
X7896410Y-14784049D01*
X8048791Y-14984049D02*
X8048791Y-14850716D01*
X8048791Y-14869764D02*
X8058315Y-14860240D01*
X8058315Y-14860240D02*
X8077362Y-14850716D01*
X8077362Y-14850716D02*
X8105934Y-14850716D01*
X8105934Y-14850716D02*
X8124981Y-14860240D01*
X8124981Y-14860240D02*
X8134505Y-14879287D01*
X8134505Y-14879287D02*
X8134505Y-14984049D01*
X8134505Y-14879287D02*
X8144029Y-14860240D01*
X8144029Y-14860240D02*
X8163077Y-14850716D01*
X8163077Y-14850716D02*
X8191648Y-14850716D01*
X8191648Y-14850716D02*
X8210696Y-14860240D01*
X8210696Y-14860240D02*
X8220220Y-14879287D01*
X8220220Y-14879287D02*
X8220220Y-14984049D01*
X8315458Y-14984049D02*
X8315458Y-14850716D01*
X8315458Y-14869764D02*
X8324981Y-14860240D01*
X8324981Y-14860240D02*
X8344029Y-14850716D01*
X8344029Y-14850716D02*
X8372601Y-14850716D01*
X8372601Y-14850716D02*
X8391648Y-14860240D01*
X8391648Y-14860240D02*
X8401172Y-14879287D01*
X8401172Y-14879287D02*
X8401172Y-14984049D01*
X8401172Y-14879287D02*
X8410696Y-14860240D01*
X8410696Y-14860240D02*
X8429743Y-14850716D01*
X8429743Y-14850716D02*
X8458315Y-14850716D01*
X8458315Y-14850716D02*
X8477363Y-14860240D01*
X8477363Y-14860240D02*
X8486886Y-14879287D01*
X8486886Y-14879287D02*
X8486886Y-14984049D01*
X8877363Y-14774526D02*
X8705934Y-15031668D01*
X9134505Y-14784049D02*
X9153553Y-14784049D01*
X9153553Y-14784049D02*
X9172601Y-14793573D01*
X9172601Y-14793573D02*
X9182125Y-14803097D01*
X9182125Y-14803097D02*
X9191648Y-14822145D01*
X9191648Y-14822145D02*
X9201172Y-14860240D01*
X9201172Y-14860240D02*
X9201172Y-14907859D01*
X9201172Y-14907859D02*
X9191648Y-14945954D01*
X9191648Y-14945954D02*
X9182125Y-14965002D01*
X9182125Y-14965002D02*
X9172601Y-14974526D01*
X9172601Y-14974526D02*
X9153553Y-14984049D01*
X9153553Y-14984049D02*
X9134505Y-14984049D01*
X9134505Y-14984049D02*
X9115458Y-14974526D01*
X9115458Y-14974526D02*
X9105934Y-14965002D01*
X9105934Y-14965002D02*
X9096410Y-14945954D01*
X9096410Y-14945954D02*
X9086886Y-14907859D01*
X9086886Y-14907859D02*
X9086886Y-14860240D01*
X9086886Y-14860240D02*
X9096410Y-14822145D01*
X9096410Y-14822145D02*
X9105934Y-14803097D01*
X9105934Y-14803097D02*
X9115458Y-14793573D01*
X9115458Y-14793573D02*
X9134505Y-14784049D01*
X9286886Y-14965002D02*
X9296410Y-14974526D01*
X9296410Y-14974526D02*
X9286886Y-14984049D01*
X9286886Y-14984049D02*
X9277363Y-14974526D01*
X9277363Y-14974526D02*
X9286886Y-14965002D01*
X9286886Y-14965002D02*
X9286886Y-14984049D01*
X9486886Y-14984049D02*
X9372601Y-14984049D01*
X9429744Y-14984049D02*
X9429744Y-14784049D01*
X9429744Y-14784049D02*
X9410696Y-14812621D01*
X9410696Y-14812621D02*
X9391648Y-14831668D01*
X9391648Y-14831668D02*
X9372601Y-14841192D01*
X9553553Y-14784049D02*
X9686886Y-14784049D01*
X9686886Y-14784049D02*
X9601172Y-14984049D01*
X9744029Y-14784049D02*
X9867839Y-14784049D01*
X9867839Y-14784049D02*
X9801172Y-14860240D01*
X9801172Y-14860240D02*
X9829744Y-14860240D01*
X9829744Y-14860240D02*
X9848791Y-14869764D01*
X9848791Y-14869764D02*
X9858315Y-14879287D01*
X9858315Y-14879287D02*
X9867839Y-14898335D01*
X9867839Y-14898335D02*
X9867839Y-14945954D01*
X9867839Y-14945954D02*
X9858315Y-14965002D01*
X9858315Y-14965002D02*
X9848791Y-14974526D01*
X9848791Y-14974526D02*
X9829744Y-14984049D01*
X9829744Y-14984049D02*
X9772601Y-14984049D01*
X9772601Y-14984049D02*
X9753553Y-14974526D01*
X9753553Y-14974526D02*
X9744029Y-14965002D01*
X9944029Y-14803097D02*
X9953553Y-14793573D01*
X9953553Y-14793573D02*
X9972601Y-14784049D01*
X9972601Y-14784049D02*
X10020220Y-14784049D01*
X10020220Y-14784049D02*
X10039267Y-14793573D01*
X10039267Y-14793573D02*
X10048791Y-14803097D01*
X10048791Y-14803097D02*
X10058315Y-14822145D01*
X10058315Y-14822145D02*
X10058315Y-14841192D01*
X10058315Y-14841192D02*
X10048791Y-14869764D01*
X10048791Y-14869764D02*
X9934506Y-14984049D01*
X9934506Y-14984049D02*
X10058315Y-14984049D01*
X10134506Y-14784049D02*
X10134506Y-14822145D01*
X10210696Y-14784049D02*
X10210696Y-14822145D01*
X10505934Y-15060240D02*
X10496410Y-15050716D01*
X10496410Y-15050716D02*
X10477363Y-15022145D01*
X10477363Y-15022145D02*
X10467839Y-15003097D01*
X10467839Y-15003097D02*
X10458315Y-14974526D01*
X10458315Y-14974526D02*
X10448791Y-14926906D01*
X10448791Y-14926906D02*
X10448791Y-14888811D01*
X10448791Y-14888811D02*
X10458315Y-14841192D01*
X10458315Y-14841192D02*
X10467839Y-14812621D01*
X10467839Y-14812621D02*
X10477363Y-14793573D01*
X10477363Y-14793573D02*
X10496410Y-14765002D01*
X10496410Y-14765002D02*
X10505934Y-14755478D01*
X10563077Y-14784049D02*
X10686887Y-14784049D01*
X10686887Y-14784049D02*
X10620220Y-14860240D01*
X10620220Y-14860240D02*
X10648791Y-14860240D01*
X10648791Y-14860240D02*
X10667839Y-14869764D01*
X10667839Y-14869764D02*
X10677363Y-14879287D01*
X10677363Y-14879287D02*
X10686887Y-14898335D01*
X10686887Y-14898335D02*
X10686887Y-14945954D01*
X10686887Y-14945954D02*
X10677363Y-14965002D01*
X10677363Y-14965002D02*
X10667839Y-14974526D01*
X10667839Y-14974526D02*
X10648791Y-14984049D01*
X10648791Y-14984049D02*
X10591648Y-14984049D01*
X10591648Y-14984049D02*
X10572601Y-14974526D01*
X10572601Y-14974526D02*
X10563077Y-14965002D01*
X10924982Y-14984049D02*
X10924982Y-14784049D01*
X11010696Y-14984049D02*
X11010696Y-14879287D01*
X11010696Y-14879287D02*
X11001172Y-14860240D01*
X11001172Y-14860240D02*
X10982125Y-14850716D01*
X10982125Y-14850716D02*
X10953553Y-14850716D01*
X10953553Y-14850716D02*
X10934506Y-14860240D01*
X10934506Y-14860240D02*
X10924982Y-14869764D01*
X11134506Y-14984049D02*
X11115458Y-14974526D01*
X11115458Y-14974526D02*
X11105934Y-14965002D01*
X11105934Y-14965002D02*
X11096410Y-14945954D01*
X11096410Y-14945954D02*
X11096410Y-14888811D01*
X11096410Y-14888811D02*
X11105934Y-14869764D01*
X11105934Y-14869764D02*
X11115458Y-14860240D01*
X11115458Y-14860240D02*
X11134506Y-14850716D01*
X11134506Y-14850716D02*
X11163077Y-14850716D01*
X11163077Y-14850716D02*
X11182125Y-14860240D01*
X11182125Y-14860240D02*
X11191648Y-14869764D01*
X11191648Y-14869764D02*
X11201172Y-14888811D01*
X11201172Y-14888811D02*
X11201172Y-14945954D01*
X11201172Y-14945954D02*
X11191648Y-14965002D01*
X11191648Y-14965002D02*
X11182125Y-14974526D01*
X11182125Y-14974526D02*
X11163077Y-14984049D01*
X11163077Y-14984049D02*
X11134506Y-14984049D01*
X11315458Y-14984049D02*
X11296410Y-14974526D01*
X11296410Y-14974526D02*
X11286887Y-14955478D01*
X11286887Y-14955478D02*
X11286887Y-14784049D01*
X11467839Y-14974526D02*
X11448791Y-14984049D01*
X11448791Y-14984049D02*
X11410696Y-14984049D01*
X11410696Y-14984049D02*
X11391648Y-14974526D01*
X11391648Y-14974526D02*
X11382125Y-14955478D01*
X11382125Y-14955478D02*
X11382125Y-14879287D01*
X11382125Y-14879287D02*
X11391648Y-14860240D01*
X11391648Y-14860240D02*
X11410696Y-14850716D01*
X11410696Y-14850716D02*
X11448791Y-14850716D01*
X11448791Y-14850716D02*
X11467839Y-14860240D01*
X11467839Y-14860240D02*
X11477363Y-14879287D01*
X11477363Y-14879287D02*
X11477363Y-14898335D01*
X11477363Y-14898335D02*
X11382125Y-14917383D01*
X11553553Y-14974526D02*
X11572601Y-14984049D01*
X11572601Y-14984049D02*
X11610696Y-14984049D01*
X11610696Y-14984049D02*
X11629744Y-14974526D01*
X11629744Y-14974526D02*
X11639268Y-14955478D01*
X11639268Y-14955478D02*
X11639268Y-14945954D01*
X11639268Y-14945954D02*
X11629744Y-14926906D01*
X11629744Y-14926906D02*
X11610696Y-14917383D01*
X11610696Y-14917383D02*
X11582125Y-14917383D01*
X11582125Y-14917383D02*
X11563077Y-14907859D01*
X11563077Y-14907859D02*
X11553553Y-14888811D01*
X11553553Y-14888811D02*
X11553553Y-14879287D01*
X11553553Y-14879287D02*
X11563077Y-14860240D01*
X11563077Y-14860240D02*
X11582125Y-14850716D01*
X11582125Y-14850716D02*
X11610696Y-14850716D01*
X11610696Y-14850716D02*
X11629744Y-14860240D01*
X11705934Y-15060240D02*
X11715458Y-15050716D01*
X11715458Y-15050716D02*
X11734506Y-15022145D01*
X11734506Y-15022145D02*
X11744029Y-15003097D01*
X11744029Y-15003097D02*
X11753553Y-14974526D01*
X11753553Y-14974526D02*
X11763077Y-14926906D01*
X11763077Y-14926906D02*
X11763077Y-14888811D01*
X11763077Y-14888811D02*
X11753553Y-14841192D01*
X11753553Y-14841192D02*
X11744029Y-14812621D01*
X11744029Y-14812621D02*
X11734506Y-14793573D01*
X11734506Y-14793573D02*
X11715458Y-14765002D01*
X11715458Y-14765002D02*
X11705934Y-14755478D01*
X12067839Y-15060240D02*
X12058315Y-15050716D01*
X12058315Y-15050716D02*
X12039268Y-15022145D01*
X12039268Y-15022145D02*
X12029744Y-15003097D01*
X12029744Y-15003097D02*
X12020220Y-14974526D01*
X12020220Y-14974526D02*
X12010696Y-14926906D01*
X12010696Y-14926906D02*
X12010696Y-14888811D01*
X12010696Y-14888811D02*
X12020220Y-14841192D01*
X12020220Y-14841192D02*
X12029744Y-14812621D01*
X12029744Y-14812621D02*
X12039268Y-14793573D01*
X12039268Y-14793573D02*
X12058315Y-14765002D01*
X12058315Y-14765002D02*
X12067839Y-14755478D01*
X12144029Y-14850716D02*
X12144029Y-14984049D01*
X12144029Y-14869764D02*
X12153553Y-14860240D01*
X12153553Y-14860240D02*
X12172601Y-14850716D01*
X12172601Y-14850716D02*
X12201172Y-14850716D01*
X12201172Y-14850716D02*
X12220220Y-14860240D01*
X12220220Y-14860240D02*
X12229744Y-14879287D01*
X12229744Y-14879287D02*
X12229744Y-14984049D01*
X12353553Y-14984049D02*
X12334506Y-14974526D01*
X12334506Y-14974526D02*
X12324982Y-14965002D01*
X12324982Y-14965002D02*
X12315458Y-14945954D01*
X12315458Y-14945954D02*
X12315458Y-14888811D01*
X12315458Y-14888811D02*
X12324982Y-14869764D01*
X12324982Y-14869764D02*
X12334506Y-14860240D01*
X12334506Y-14860240D02*
X12353553Y-14850716D01*
X12353553Y-14850716D02*
X12382125Y-14850716D01*
X12382125Y-14850716D02*
X12401172Y-14860240D01*
X12401172Y-14860240D02*
X12410696Y-14869764D01*
X12410696Y-14869764D02*
X12420220Y-14888811D01*
X12420220Y-14888811D02*
X12420220Y-14945954D01*
X12420220Y-14945954D02*
X12410696Y-14965002D01*
X12410696Y-14965002D02*
X12401172Y-14974526D01*
X12401172Y-14974526D02*
X12382125Y-14984049D01*
X12382125Y-14984049D02*
X12353553Y-14984049D01*
X12477363Y-14850716D02*
X12553553Y-14850716D01*
X12505934Y-14784049D02*
X12505934Y-14955478D01*
X12505934Y-14955478D02*
X12515458Y-14974526D01*
X12515458Y-14974526D02*
X12534506Y-14984049D01*
X12534506Y-14984049D02*
X12553553Y-14984049D01*
X12772601Y-14850716D02*
X12772601Y-15050716D01*
X12772601Y-14860240D02*
X12791649Y-14850716D01*
X12791649Y-14850716D02*
X12829744Y-14850716D01*
X12829744Y-14850716D02*
X12848791Y-14860240D01*
X12848791Y-14860240D02*
X12858315Y-14869764D01*
X12858315Y-14869764D02*
X12867839Y-14888811D01*
X12867839Y-14888811D02*
X12867839Y-14945954D01*
X12867839Y-14945954D02*
X12858315Y-14965002D01*
X12858315Y-14965002D02*
X12848791Y-14974526D01*
X12848791Y-14974526D02*
X12829744Y-14984049D01*
X12829744Y-14984049D02*
X12791649Y-14984049D01*
X12791649Y-14984049D02*
X12772601Y-14974526D01*
X12982125Y-14984049D02*
X12963077Y-14974526D01*
X12963077Y-14974526D02*
X12953553Y-14955478D01*
X12953553Y-14955478D02*
X12953553Y-14784049D01*
X13144030Y-14984049D02*
X13144030Y-14879287D01*
X13144030Y-14879287D02*
X13134506Y-14860240D01*
X13134506Y-14860240D02*
X13115458Y-14850716D01*
X13115458Y-14850716D02*
X13077363Y-14850716D01*
X13077363Y-14850716D02*
X13058315Y-14860240D01*
X13144030Y-14974526D02*
X13124982Y-14984049D01*
X13124982Y-14984049D02*
X13077363Y-14984049D01*
X13077363Y-14984049D02*
X13058315Y-14974526D01*
X13058315Y-14974526D02*
X13048791Y-14955478D01*
X13048791Y-14955478D02*
X13048791Y-14936430D01*
X13048791Y-14936430D02*
X13058315Y-14917383D01*
X13058315Y-14917383D02*
X13077363Y-14907859D01*
X13077363Y-14907859D02*
X13124982Y-14907859D01*
X13124982Y-14907859D02*
X13144030Y-14898335D01*
X13210696Y-14850716D02*
X13286887Y-14850716D01*
X13239268Y-14784049D02*
X13239268Y-14955478D01*
X13239268Y-14955478D02*
X13248791Y-14974526D01*
X13248791Y-14974526D02*
X13267839Y-14984049D01*
X13267839Y-14984049D02*
X13286887Y-14984049D01*
X13429744Y-14974526D02*
X13410696Y-14984049D01*
X13410696Y-14984049D02*
X13372601Y-14984049D01*
X13372601Y-14984049D02*
X13353553Y-14974526D01*
X13353553Y-14974526D02*
X13344030Y-14955478D01*
X13344030Y-14955478D02*
X13344030Y-14879287D01*
X13344030Y-14879287D02*
X13353553Y-14860240D01*
X13353553Y-14860240D02*
X13372601Y-14850716D01*
X13372601Y-14850716D02*
X13410696Y-14850716D01*
X13410696Y-14850716D02*
X13429744Y-14860240D01*
X13429744Y-14860240D02*
X13439268Y-14879287D01*
X13439268Y-14879287D02*
X13439268Y-14898335D01*
X13439268Y-14898335D02*
X13344030Y-14917383D01*
X13610696Y-14984049D02*
X13610696Y-14784049D01*
X13610696Y-14974526D02*
X13591649Y-14984049D01*
X13591649Y-14984049D02*
X13553553Y-14984049D01*
X13553553Y-14984049D02*
X13534506Y-14974526D01*
X13534506Y-14974526D02*
X13524982Y-14965002D01*
X13524982Y-14965002D02*
X13515458Y-14945954D01*
X13515458Y-14945954D02*
X13515458Y-14888811D01*
X13515458Y-14888811D02*
X13524982Y-14869764D01*
X13524982Y-14869764D02*
X13534506Y-14860240D01*
X13534506Y-14860240D02*
X13553553Y-14850716D01*
X13553553Y-14850716D02*
X13591649Y-14850716D01*
X13591649Y-14850716D02*
X13610696Y-14860240D01*
X13686887Y-15060240D02*
X13696411Y-15050716D01*
X13696411Y-15050716D02*
X13715458Y-15022145D01*
X13715458Y-15022145D02*
X13724982Y-15003097D01*
X13724982Y-15003097D02*
X13734506Y-14974526D01*
X13734506Y-14974526D02*
X13744030Y-14926906D01*
X13744030Y-14926906D02*
X13744030Y-14888811D01*
X13744030Y-14888811D02*
X13734506Y-14841192D01*
X13734506Y-14841192D02*
X13724982Y-14812621D01*
X13724982Y-14812621D02*
X13715458Y-14793573D01*
X13715458Y-14793573D02*
X13696411Y-14765002D01*
X13696411Y-14765002D02*
X13686887Y-14755478D01*
M02*
