0
SECTION
2
HEADER
9
$INSUNITS
70
4
0
ENDSEC
0
SECTION
2
TABLES
0
TABLE
2
LTYPE
0
LTYPE
72
65
70
64
2
CONTINUOUS
3
______
73
0
40
0
0
ENDTAB
0
TABLE
2
LAYER
0
ENDTAB
0
ENDSEC
0
SECTION
2
ENTITIES
0
LINE
8
0
10
52.5
20
-38.5
11
57.5
21
-38.5
0
LINE
8
0
10
57.5
20
-38.5
11
57.5
21
-33.5
0
LINE
8
0
10
57.5
20
-33.5
11
52.5
21
-33.5
0
LINE
8
0
10
52.5
20
-33.5
11
52.5
21
-38.5
0
LINE
8
0
10
52.5
20
-157.5
11
57.5
21
-157.5
0
LINE
8
0
10
57.5
20
-157.5
11
57.5
21
-152.5
0
LINE
8
0
10
57.5
20
-152.5
11
52.5
21
-152.5
0
LINE
8
0
10
52.5
20
-152.5
11
52.5
21
-157.5
0
LINE
8
0
10
98.9428754
20
-101.0641957
11
100.8707149
21
-99.1363561
0
LINE
8
0
10
100.8636439
20
-99.1292851
11
98.9358043
21
-101.0571246
0
LINE
8
0
10
98.9358043
20
-101.0571246
11
98.9428754
21
-101.0641957
0
LINE
8
0
10
98.9428754
20
-84.0641957
11
100.8707149
21
-82.1363561
0
LINE
8
0
10
100.8636439
20
-82.1292851
11
98.9358043
21
-84.0571246
0
LINE
8
0
10
98.9358043
20
-84.0571246
11
98.9428754
21
-84.0641957
0
LINE
8
0
10
98.9428754
20
-67.0641957
11
100.8707149
21
-65.1363561
0
LINE
8
0
10
100.8636439
20
-65.1292851
11
98.9358043
21
-67.0571246
0
LINE
8
0
10
98.9358043
20
-67.0571246
11
98.9428754
21
-67.0641957
0
LINE
8
0
10
115.9428754
20
-101.0641957
11
117.8707149
21
-99.1363561
0
LINE
8
0
10
117.8636439
20
-99.1292851
11
115.9358043
21
-101.0571246
0
LINE
8
0
10
115.9358043
20
-101.0571246
11
115.9428754
21
-101.0641957
0
LINE
8
0
10
115.9428754
20
-84.0641957
11
117.8707149
21
-82.1363561
0
LINE
8
0
10
117.8636439
20
-82.1292851
11
115.9358043
21
-84.0571246
0
LINE
8
0
10
115.9358043
20
-84.0571246
11
115.9428754
21
-84.0641957
0
LINE
8
0
10
115.9428754
20
-67.0641957
11
117.8707149
21
-65.1363561
0
LINE
8
0
10
117.8636439
20
-65.1292851
11
115.9358043
21
-67.0571246
0
LINE
8
0
10
115.9358043
20
-67.0571246
11
115.9428754
21
-67.0641957
0
LINE
8
0
10
136.9428754
20
-93.4141957
11
138.8707149
21
-91.4863561
0
LINE
8
0
10
138.8636439
20
-91.4792851
11
136.9358043
21
-93.4071246
0
LINE
8
0
10
136.9358043
20
-93.4071246
11
136.9428754
21
-93.4141957
0
LINE
8
0
10
136.9428754
20
-76.4141957
11
138.8707149
21
-74.4863561
0
LINE
8
0
10
138.8636439
20
-74.4792851
11
136.9358043
21
-76.4071246
0
LINE
8
0
10
136.9358043
20
-76.4071246
11
136.9428754
21
-76.4141957
0
LINE
8
0
10
136.9428754
20
-59.4141957
11
138.8707149
21
-57.4863561
0
LINE
8
0
10
138.8636439
20
-57.4792851
11
136.9358043
21
-59.4071246
0
LINE
8
0
10
136.9358043
20
-59.4071246
11
136.9428754
21
-59.4141957
0
LINE
8
0
10
160.2601366
20
-95.4459266
11
162.2702325
21
-93.604013
0
LINE
8
0
10
162.2634766
20
-93.5966403
11
160.2533807
21
-95.4385538
0
LINE
8
0
10
160.2533807
20
-95.4385538
11
160.2601366
21
-95.4459266
0
LINE
8
0
10
161.0016662
20
-78.4621068
11
163.0117621
21
-76.6201932
0
LINE
8
0
10
163.0050062
20
-76.6128205
11
160.9949103
21
-78.454734
0
LINE
8
0
10
160.9949103
20
-78.454734
11
161.0016662
21
-78.4621068
0
LINE
8
0
10
161.7431958
20
-61.478287
11
163.7532917
21
-59.6363734
0
LINE
8
0
10
163.7465358
20
-59.6290007
11
161.7364399
21
-61.4709142
0
LINE
8
0
10
161.7364399
20
-61.4709142
11
161.7431958
21
-61.478287
0
LINE
8
0
10
181.6343216
20
-106.0700982
11
183.7228474
21
-104.317617
0
LINE
8
0
10
183.7164195
20
-104.3099565
11
181.6278937
21
-106.0624378
0
LINE
8
0
10
181.6278937
20
-106.0624378
11
181.6343216
21
-106.0700982
0
LINE
8
0
10
183.1159692
20
-89.1347883
11
185.204495
21
-87.3823071
0
LINE
8
0
10
185.1980671
20
-87.3746466
11
183.1095413
21
-89.1271279
0
LINE
8
0
10
183.1095413
20
-89.1271279
11
183.1159692
21
-89.1347883
0
LINE
8
0
10
184.5976168
20
-72.1994784
11
186.6861426
21
-70.4469972
0
LINE
8
0
10
186.6797147
20
-70.4393367
11
184.5911889
21
-72.191818
0
LINE
8
0
10
184.5911889
20
-72.191818
11
184.5976168
21
-72.1994784
0
LINE
8
0
10
201.4243195
20
-99.261932
11
199.6718383
21
-97.1734062
0
LINE
8
0
10
199.6641778
20
-97.1798341
11
201.4166591
21
-99.2683599
0
LINE
8
0
10
201.4166591
20
-99.2683599
11
201.4243195
21
-99.261932
0
LINE
8
0
10
203.276379
20
-78.0927947
11
201.5238978
21
-76.0042689
0
LINE
8
0
10
201.5162373
20
-76.0106968
11
203.2687186
21
-78.0992226
0
LINE
8
0
10
203.2687186
20
-78.0992226
11
203.276379
21
-78.0927947
0
LINE
8
0
10
79.160729
20
-131.4127652
11
76.874197
21
-129.9278739
0
LINE
8
0
10
76.8687506
20
-129.9362606
11
79.1552827
21
-131.4211519
0
LINE
8
0
10
79.1552827
20
-131.4211519
11
79.160729
21
-131.4127652
0
LINE
8
0
10
95.7492803
20
-125.3448774
11
93.5435951
21
-123.7423532
0
LINE
8
0
10
93.5377173
20
-123.7504434
11
95.7434025
21
-125.3529676
0
LINE
8
0
10
95.7434025
20
-125.3529676
11
95.7492803
21
-125.3448774
0
LINE
8
0
10
113.8484939
20
-120.6617417
11
112.0241918
21
-118.6356489
0
LINE
8
0
10
112.0167603
20
-118.6423402
11
113.8410625
21
-120.668433
0
LINE
8
0
10
113.8410625
20
-120.668433
11
113.8484939
21
-120.6617417
0
LINE
8
0
10
53.9428754
20
-37.0641957
11
55.8707149
21
-35.1363561
0
LINE
8
0
10
55.8636439
20
-35.1292851
11
53.9358043
21
-37.0571246
0
LINE
8
0
10
53.9358043
20
-37.0571246
11
53.9428754
21
-37.0641957
0
LINE
8
0
10
53.9428754
20
-156.0641957
11
55.8707149
21
-154.1363561
0
LINE
8
0
10
55.8636439
20
-154.1292851
11
53.9358043
21
-156.0571246
0
LINE
8
0
10
53.9358043
20
-156.0571246
11
53.9428754
21
-156.0641957
0
LINE
8
0
10
80.1928754
20
-81.6641957
11
82.1207149
21
-79.7363561
0
LINE
8
0
10
82.1136439
20
-79.7292851
11
80.1858043
21
-81.6571246
0
LINE
8
0
10
80.1858043
20
-81.6571246
11
80.1928754
21
-81.6641957
0
LINE
8
0
10
89.1928754
20
-65.1641957
11
91.1207149
21
-63.2363561
0
LINE
8
0
10
91.1136439
20
-63.2292851
11
89.1858043
21
-65.1571246
0
LINE
8
0
10
89.1858043
20
-65.1571246
11
89.1928754
21
-65.1641957
0
LINE
8
0
10
71.1928754
20
-65.1641957
11
73.1207149
21
-63.2363561
0
LINE
8
0
10
73.1136439
20
-63.2292851
11
71.1858043
21
-65.1571246
0
LINE
8
0
10
71.1858043
20
-65.1571246
11
71.1928754
21
-65.1641957
0
LINE
8
0
10
89.1928754
20
-98.1641957
11
91.1207149
21
-96.2363561
0
LINE
8
0
10
91.1136439
20
-96.2292851
11
89.1858043
21
-98.1571246
0
LINE
8
0
10
89.1858043
20
-98.1571246
11
89.1928754
21
-98.1641957
0
LINE
8
0
10
71.1928754
20
-98.1641957
11
73.1207149
21
-96.2363561
0
LINE
8
0
10
73.1136439
20
-96.2292851
11
71.1858043
21
-98.1571246
0
LINE
8
0
10
71.1858043
20
-98.1571246
11
71.1928754
21
-98.1641957
0
LINE
8
0
10
80.1928754
20
-65.1641957
11
82.1207149
21
-63.2363561
0
LINE
8
0
10
82.1136439
20
-63.2292851
11
80.1858043
21
-65.1571246
0
LINE
8
0
10
80.1858043
20
-65.1571246
11
80.1928754
21
-65.1641957
0
LINE
8
0
10
80.1928754
20
-98.1641957
11
82.1207149
21
-96.2363561
0
LINE
8
0
10
82.1136439
20
-96.2292851
11
80.1858043
21
-98.1571246
0
LINE
8
0
10
80.1858043
20
-98.1571246
11
80.1928754
21
-98.1641957
0
LINE
8
0
10
80.1928754
20
-100.4641957
11
82.1207149
21
-98.5363561
0
LINE
8
0
10
82.1136439
20
-98.5292851
11
80.1858043
21
-100.4571246
0
LINE
8
0
10
80.1858043
20
-100.4571246
11
80.1928754
21
-100.4641957
0
LINE
8
0
10
76.3828754
20
-106.8641957
11
78.3107149
21
-104.9363561
0
LINE
8
0
10
78.3036439
20
-104.9292851
11
76.3758043
21
-106.8571246
0
LINE
8
0
10
76.3758043
20
-106.8571246
11
76.3828754
21
-106.8641957
0
LINE
8
0
10
76.6928754
20
-64.1641957
11
78.6207149
21
-62.2363561
0
LINE
8
0
10
78.6136439
20
-62.2292851
11
76.6858043
21
-64.1571246
0
LINE
8
0
10
76.6858043
20
-64.1571246
11
76.6928754
21
-64.1641957
0
LINE
8
0
10
86.1928754
20
-64.1191957
11
88.1207149
21
-62.1913561
0
LINE
8
0
10
88.1136439
20
-62.1842851
11
86.1858043
21
-64.1121246
0
LINE
8
0
10
86.1858043
20
-64.1121246
11
86.1928754
21
-64.1191957
0
LINE
8
0
10
87.1928754
20
-105.1641957
11
89.1207149
21
-103.2363561
0
LINE
8
0
10
89.1136439
20
-103.2292851
11
87.1858043
21
-105.1571246
0
LINE
8
0
10
87.1858043
20
-105.1571246
11
87.1928754
21
-105.1641957
0
LINE
8
0
10
73.1928754
20
-105.1641957
11
75.1207149
21
-103.2363561
0
LINE
8
0
10
75.1136439
20
-103.2292851
11
73.1858043
21
-105.1571246
0
LINE
8
0
10
73.1858043
20
-105.1571246
11
73.1928754
21
-105.1641957
0
LINE
8
0
10
73.1928754
20
-119.1641957
11
75.1207149
21
-117.2363561
0
LINE
8
0
10
75.1136439
20
-117.2292851
11
73.1858043
21
-119.1571246
0
LINE
8
0
10
73.1858043
20
-119.1571246
11
73.1928754
21
-119.1641957
0
LINE
8
0
10
148.8928754
20
-86.4141957
11
150.8207149
21
-84.4863561
0
LINE
8
0
10
150.8136439
20
-84.4792851
11
148.8858043
21
-86.4071246
0
LINE
8
0
10
148.8858043
20
-86.4071246
11
148.8928754
21
-86.4141957
0
LINE
8
0
10
171.3928754
20
-63.9141957
11
173.3207149
21
-61.9863561
0
LINE
8
0
10
173.3136439
20
-61.9792851
11
171.3858043
21
-63.9071246
0
LINE
8
0
10
171.3858043
20
-63.9071246
11
171.3928754
21
-63.9141957
0
LINE
8
0
10
171.3928754
20
-108.9141957
11
173.3207149
21
-106.9863561
0
LINE
8
0
10
173.3136439
20
-106.9792851
11
171.3858043
21
-108.9071246
0
LINE
8
0
10
171.3858043
20
-108.9071246
11
171.3928754
21
-108.9141957
0
LINE
8
0
10
126.3928754
20
-63.9141957
11
128.3207149
21
-61.9863561
0
LINE
8
0
10
128.3136439
20
-61.9792851
11
126.3858043
21
-63.9071246
0
LINE
8
0
10
126.3858043
20
-63.9071246
11
126.3928754
21
-63.9141957
0
LINE
8
0
10
126.3928754
20
-108.9141957
11
128.3207149
21
-106.9863561
0
LINE
8
0
10
128.3136439
20
-106.9792851
11
126.3858043
21
-108.9071246
0
LINE
8
0
10
126.3858043
20
-108.9071246
11
126.3928754
21
-108.9141957
0
LINE
8
0
10
86.9754165
20
-128.7594512
11
84.7697313
21
-127.156927
0
LINE
8
0
10
84.7638535
20
-127.1650172
11
86.9695387
21
-128.7675414
0
LINE
8
0
10
86.9695387
20
-128.7675414
11
86.9754165
21
-128.7594512
0
LINE
8
0
10
107.4428754
20
-75.5641957
11
109.3707149
21
-73.6363561
0
LINE
8
0
10
109.3636439
20
-73.6292851
11
107.4358043
21
-75.5571246
0
LINE
8
0
10
107.4358043
20
-75.5571246
11
107.4428754
21
-75.5641957
0
LINE
8
0
10
107.4428754
20
-92.5641957
11
109.3707149
21
-90.6363561
0
LINE
8
0
10
109.3636439
20
-90.6292851
11
107.4358043
21
-92.5571246
0
LINE
8
0
10
107.4358043
20
-92.5571246
11
107.4428754
21
-92.5641957
0
LINE
8
0
10
191.7765408
20
-81.3600215
11
193.8650666
21
-79.6075404
0
LINE
8
0
10
193.8586387
20
-79.5998799
11
191.7701129
21
-81.3523611
0
LINE
8
0
10
191.7701129
20
-81.3523611
11
191.7765408
21
-81.3600215
0
LINE
8
0
10
190.2948932
20
-98.2953314
11
192.383419
21
-96.5428502
0
LINE
8
0
10
192.3769911
20
-96.5351897
11
190.2884653
21
-98.287671
0
LINE
8
0
10
190.2884653
20
-98.287671
11
190.2948932
21
-98.2953314
0
LINE
8
0
10
175.9370452
20
-79.9742451
11
178.025571
21
-78.221764
0
LINE
8
0
10
178.0191431
20
-78.2141035
11
175.9306173
21
-79.9665847
0
LINE
8
0
10
175.9306173
20
-79.9665847
11
175.9370452
21
-79.9742451
0
LINE
8
0
10
174.4553976
20
-96.909555
11
176.5439234
21
-95.1570738
0
LINE
8
0
10
176.5374955
20
-95.1494133
11
174.4489697
21
-96.9018946
0
LINE
8
0
10
174.4489697
20
-96.9018946
11
174.4553976
21
-96.909555
0
LINE
8
0
10
101.0571246
20
-101.0641957
11
101.0641957
21
-101.0571246
0
LINE
8
0
10
101.0641957
20
-101.0571246
11
98.9428754
21
-98.9358043
0
LINE
8
0
10
98.9428754
20
-98.9358043
11
98.9358043
21
-98.9428754
0
LINE
8
0
10
98.9358043
20
-98.9428754
11
101.0571246
21
-101.0641957
0
LINE
8
0
10
101.0571246
20
-84.0641957
11
101.0641957
21
-84.0571246
0
LINE
8
0
10
101.0641957
20
-84.0571246
11
98.9428754
21
-81.9358043
0
LINE
8
0
10
98.9428754
20
-81.9358043
11
98.9358043
21
-81.9428754
0
LINE
8
0
10
98.9358043
20
-81.9428754
11
101.0571246
21
-84.0641957
0
LINE
8
0
10
101.0571246
20
-67.0641957
11
101.0641957
21
-67.0571246
0
LINE
8
0
10
101.0641957
20
-67.0571246
11
98.9428754
21
-64.9358043
0
LINE
8
0
10
98.9428754
20
-64.9358043
11
98.9358043
21
-64.9428754
0
LINE
8
0
10
98.9358043
20
-64.9428754
11
101.0571246
21
-67.0641957
0
LINE
8
0
10
118.0571246
20
-101.0641957
11
118.0641957
21
-101.0571246
0
LINE
8
0
10
118.0641957
20
-101.0571246
11
115.9428754
21
-98.9358043
0
LINE
8
0
10
115.9428754
20
-98.9358043
11
115.9358043
21
-98.9428754
0
LINE
8
0
10
115.9358043
20
-98.9428754
11
118.0571246
21
-101.0641957
0
LINE
8
0
10
118.0571246
20
-84.0641957
11
118.0641957
21
-84.0571246
0
LINE
8
0
10
118.0641957
20
-84.0571246
11
115.9428754
21
-81.9358043
0
LINE
8
0
10
115.9428754
20
-81.9358043
11
115.9358043
21
-81.9428754
0
LINE
8
0
10
115.9358043
20
-81.9428754
11
118.0571246
21
-84.0641957
0
LINE
8
0
10
118.0571246
20
-67.0641957
11
118.0641957
21
-67.0571246
0
LINE
8
0
10
118.0641957
20
-67.0571246
11
115.9428754
21
-64.9358043
0
LINE
8
0
10
115.9428754
20
-64.9358043
11
115.9358043
21
-64.9428754
0
LINE
8
0
10
115.9358043
20
-64.9428754
11
118.0571246
21
-67.0641957
0
LINE
8
0
10
139.0571246
20
-93.4141957
11
139.0641957
21
-93.4071246
0
LINE
8
0
10
139.0641957
20
-93.4071246
11
136.9428754
21
-91.2858043
0
LINE
8
0
10
136.9428754
20
-91.2858043
11
136.9358043
21
-91.2928754
0
LINE
8
0
10
136.9358043
20
-91.2928754
11
139.0571246
21
-93.4141957
0
LINE
8
0
10
139.0571246
20
-76.4141957
11
139.0641957
21
-76.4071246
0
LINE
8
0
10
139.0641957
20
-76.4071246
11
136.9428754
21
-74.2858043
0
LINE
8
0
10
136.9428754
20
-74.2858043
11
136.9358043
21
-74.2928754
0
LINE
8
0
10
136.9358043
20
-74.2928754
11
139.0571246
21
-76.4141957
0
LINE
8
0
10
139.0571246
20
-59.4141957
11
139.0641957
21
-59.4071246
0
LINE
8
0
10
139.0641957
20
-59.4071246
11
136.9428754
21
-57.2858043
0
LINE
8
0
10
136.9428754
20
-57.2858043
11
136.9358043
21
-57.2928754
0
LINE
8
0
10
136.9358043
20
-57.2928754
11
139.0571246
21
-59.4141957
0
LINE
8
0
10
162.3723736
20
-95.5381489
11
162.3797464
21
-95.531393
0
LINE
8
0
10
162.3797464
20
-95.531393
11
160.3529758
21
-93.3195609
0
LINE
8
0
10
160.3529758
20
-93.3195609
11
160.345603
21
-93.3263168
0
LINE
8
0
10
160.345603
20
-93.3263168
11
162.3723736
21
-95.5381489
0
LINE
8
0
10
163.1139032
20
-78.5543291
11
163.121276
21
-78.5475732
0
LINE
8
0
10
163.121276
20
-78.5475732
11
161.0945054
21
-76.3357411
0
LINE
8
0
10
161.0945054
20
-76.3357411
11
161.0871326
21
-76.342497
0
LINE
8
0
10
161.0871326
20
-76.342497
11
163.1139032
21
-78.5543291
0
LINE
8
0
10
163.8554328
20
-61.5705093
11
163.8628056
21
-61.5637534
0
LINE
8
0
10
163.8628056
20
-61.5637534
11
161.836035
21
-59.3519213
0
LINE
8
0
10
161.836035
20
-59.3519213
11
161.8286622
21
-59.3586772
0
LINE
8
0
10
161.8286622
20
-59.3586772
11
163.8554328
21
-61.5705093
0
LINE
8
0
10
183.7405255
20
-106.2543672
11
183.7481859
21
-106.2479393
0
LINE
8
0
10
183.7481859
20
-106.2479393
11
181.8198231
21
-103.949806
0
LINE
8
0
10
181.8198231
20
-103.949806
11
181.8121627
21
-103.9562339
0
LINE
8
0
10
181.8121627
20
-103.9562339
11
183.7405255
21
-106.2543672
0
LINE
8
0
10
185.2221731
20
-89.3190573
11
185.2298335
21
-89.3126294
0
LINE
8
0
10
185.2298335
20
-89.3126294
11
183.3014707
21
-87.0144961
0
LINE
8
0
10
183.3014707
20
-87.0144961
11
183.2938103
21
-87.020924
0
LINE
8
0
10
183.2938103
20
-87.020924
11
185.2221731
21
-89.3190573
0
LINE
8
0
10
186.7038207
20
-72.3837474
11
186.7114811
21
-72.3773195
0
LINE
8
0
10
186.7114811
20
-72.3773195
11
184.7831183
21
-70.0791862
0
LINE
8
0
10
184.7831183
20
-70.0791862
11
184.7754579
21
-70.0856141
0
LINE
8
0
10
184.7754579
20
-70.0856141
11
186.7038207
21
-72.3837474
0
LINE
8
0
10
201.6085885
20
-97.1557281
11
201.6021606
21
-97.1480677
0
LINE
8
0
10
201.6021606
20
-97.1480677
11
199.3040273
21
-99.0764305
0
LINE
8
0
10
199.3040273
20
-99.0764305
11
199.3104552
21
-99.0840909
0
LINE
8
0
10
199.3104552
20
-99.0840909
11
201.6085885
21
-97.1557281
0
LINE
8
0
10
203.460648
20
-75.9865908
11
203.4542201
21
-75.9789304
0
LINE
8
0
10
203.4542201
20
-75.9789304
11
201.1560868
21
-77.9072932
0
LINE
8
0
10
201.1560868
20
-77.9072932
11
201.1625147
21
-77.9149536
0
LINE
8
0
10
201.1625147
20
-77.9149536
11
203.460648
21
-75.9865908
0
LINE
8
0
10
78.7211519
20
-129.3447173
11
78.7127652
21
-129.339271
0
LINE
8
0
10
78.7127652
20
-129.339271
11
77.0788481
21
-131.8552827
0
LINE
8
0
10
77.0788481
20
-131.8552827
11
77.0872348
21
-131.860729
0
LINE
8
0
10
77.0872348
20
-131.860729
11
78.7211519
21
-129.3447173
0
LINE
8
0
10
95.4185389
20
-123.256658
11
95.4104487
21
-123.2507802
0
LINE
8
0
10
95.4104487
20
-123.2507802
11
93.6470929
21
-125.6778312
0
LINE
8
0
10
93.6470929
20
-125.6778312
11
93.6551831
21
-125.683709
0
LINE
8
0
10
93.6551831
20
-125.683709
11
95.4185389
21
-123.256658
0
LINE
8
0
10
113.9591452
20
-118.5503899
11
113.9524539
21
-118.5429585
0
LINE
8
0
10
113.9524539
20
-118.5429585
11
111.7230194
21
-120.5503503
0
LINE
8
0
10
111.7230194
20
-120.5503503
11
111.7297107
21
-120.5577817
0
LINE
8
0
10
111.7297107
20
-120.5577817
11
113.9591452
21
-118.5503899
0
LINE
8
0
10
56.0571246
20
-37.0641957
11
56.0641957
21
-37.0571246
0
LINE
8
0
10
56.0641957
20
-37.0571246
11
53.9428754
21
-34.9358043
0
LINE
8
0
10
53.9428754
20
-34.9358043
11
53.9358043
21
-34.9428754
0
LINE
8
0
10
53.9358043
20
-34.9428754
11
56.0571246
21
-37.0641957
0
LINE
8
0
10
56.0571246
20
-156.0641957
11
56.0641957
21
-156.0571246
0
LINE
8
0
10
56.0641957
20
-156.0571246
11
53.9428754
21
-153.9358043
0
LINE
8
0
10
53.9428754
20
-153.9358043
11
53.9358043
21
-153.9428754
0
LINE
8
0
10
53.9358043
20
-153.9428754
11
56.0571246
21
-156.0641957
0
LINE
8
0
10
82.3071246
20
-81.6641957
11
82.3141957
21
-81.6571246
0
LINE
8
0
10
82.3141957
20
-81.6571246
11
80.1928754
21
-79.5358043
0
LINE
8
0
10
80.1928754
20
-79.5358043
11
80.1858043
21
-79.5428754
0
LINE
8
0
10
80.1858043
20
-79.5428754
11
82.3071246
21
-81.6641957
0
LINE
8
0
10
91.3071246
20
-65.1641957
11
91.3141957
21
-65.1571246
0
LINE
8
0
10
91.3141957
20
-65.1571246
11
89.1928754
21
-63.0358043
0
LINE
8
0
10
89.1928754
20
-63.0358043
11
89.1858043
21
-63.0428754
0
LINE
8
0
10
89.1858043
20
-63.0428754
11
91.3071246
21
-65.1641957
0
LINE
8
0
10
73.3071246
20
-65.1641957
11
73.3141957
21
-65.1571246
0
LINE
8
0
10
73.3141957
20
-65.1571246
11
71.1928754
21
-63.0358043
0
LINE
8
0
10
71.1928754
20
-63.0358043
11
71.1858043
21
-63.0428754
0
LINE
8
0
10
71.1858043
20
-63.0428754
11
73.3071246
21
-65.1641957
0
LINE
8
0
10
91.3071246
20
-98.1641957
11
91.3141957
21
-98.1571246
0
LINE
8
0
10
91.3141957
20
-98.1571246
11
89.1928754
21
-96.0358043
0
LINE
8
0
10
89.1928754
20
-96.0358043
11
89.1858043
21
-96.0428754
0
LINE
8
0
10
89.1858043
20
-96.0428754
11
91.3071246
21
-98.1641957
0
LINE
8
0
10
73.3071246
20
-98.1641957
11
73.3141957
21
-98.1571246
0
LINE
8
0
10
73.3141957
20
-98.1571246
11
71.1928754
21
-96.0358043
0
LINE
8
0
10
71.1928754
20
-96.0358043
11
71.1858043
21
-96.0428754
0
LINE
8
0
10
71.1858043
20
-96.0428754
11
73.3071246
21
-98.1641957
0
LINE
8
0
10
82.3071246
20
-65.1641957
11
82.3141957
21
-65.1571246
0
LINE
8
0
10
82.3141957
20
-65.1571246
11
80.1928754
21
-63.0358043
0
LINE
8
0
10
80.1928754
20
-63.0358043
11
80.1858043
21
-63.0428754
0
LINE
8
0
10
80.1858043
20
-63.0428754
11
82.3071246
21
-65.1641957
0
LINE
8
0
10
82.1207149
20
-97.9636439
11
80.1928754
21
-96.0358043
0
LINE
8
0
10
80.1928754
20
-96.0358043
11
80.1858043
21
-96.0428754
0
LINE
8
0
10
80.1858043
20
-96.0428754
11
82.1136439
21
-97.9707149
0
LINE
8
0
10
82.3071246
20
-100.4641957
11
82.3141957
21
-100.4571246
0
LINE
8
0
10
82.3141957
20
-100.4571246
11
80.1928754
21
-98.3358043
0
LINE
8
0
10
80.1928754
20
-98.3358043
11
80.1858043
21
-98.3428754
0
LINE
8
0
10
80.1858043
20
-98.3428754
11
82.3071246
21
-100.4641957
0
LINE
8
0
10
78.4971246
20
-106.8641957
11
78.5041957
21
-106.8571246
0
LINE
8
0
10
78.5041957
20
-106.8571246
11
76.3828754
21
-104.7358043
0
LINE
8
0
10
76.3828754
20
-104.7358043
11
76.3758043
21
-104.7428754
0
LINE
8
0
10
76.3758043
20
-104.7428754
11
78.4971246
21
-106.8641957
0
LINE
8
0
10
78.8071246
20
-64.1641957
11
78.8141957
21
-64.1571246
0
LINE
8
0
10
78.8141957
20
-64.1571246
11
76.6928754
21
-62.0358043
0
LINE
8
0
10
76.6928754
20
-62.0358043
11
76.6858043
21
-62.0428754
0
LINE
8
0
10
76.6858043
20
-62.0428754
11
78.8071246
21
-64.1641957
0
LINE
8
0
10
88.3071246
20
-64.1191957
11
88.3141957
21
-64.1121246
0
LINE
8
0
10
88.3141957
20
-64.1121246
11
86.1928754
21
-61.9908043
0
LINE
8
0
10
86.1928754
20
-61.9908043
11
86.1858043
21
-61.9978754
0
LINE
8
0
10
86.1858043
20
-61.9978754
11
88.3071246
21
-64.1191957
0
LINE
8
0
10
89.3071246
20
-105.1641957
11
89.3141957
21
-105.1571246
0
LINE
8
0
10
89.3141957
20
-105.1571246
11
87.1928754
21
-103.0358043
0
LINE
8
0
10
87.1928754
20
-103.0358043
11
87.1858043
21
-103.0428754
0
LINE
8
0
10
87.1858043
20
-103.0428754
11
89.3071246
21
-105.1641957
0
LINE
8
0
10
75.3071246
20
-105.1641957
11
75.3141957
21
-105.1571246
0
LINE
8
0
10
75.3141957
20
-105.1571246
11
73.1928754
21
-103.0358043
0
LINE
8
0
10
73.1928754
20
-103.0358043
11
73.1858043
21
-103.0428754
0
LINE
8
0
10
73.1858043
20
-103.0428754
11
75.3071246
21
-105.1641957
0
LINE
8
0
10
75.3071246
20
-119.1641957
11
75.3141957
21
-119.1571246
0
LINE
8
0
10
75.3141957
20
-119.1571246
11
73.1928754
21
-117.0358043
0
LINE
8
0
10
73.1928754
20
-117.0358043
11
73.1858043
21
-117.0428754
0
LINE
8
0
10
73.1858043
20
-117.0428754
11
75.3071246
21
-119.1641957
0
LINE
8
0
10
151.0071246
20
-86.4141957
11
151.0141957
21
-86.4071246
0
LINE
8
0
10
151.0141957
20
-86.4071246
11
148.8928754
21
-84.2858043
0
LINE
8
0
10
148.8928754
20
-84.2858043
11
148.8858043
21
-84.2928754
0
LINE
8
0
10
148.8858043
20
-84.2928754
11
151.0071246
21
-86.4141957
0
LINE
8
0
10
173.5071246
20
-63.9141957
11
173.5141957
21
-63.9071246
0
LINE
8
0
10
173.5141957
20
-63.9071246
11
171.3928754
21
-61.7858043
0
LINE
8
0
10
171.3928754
20
-61.7858043
11
171.3858043
21
-61.7928754
0
LINE
8
0
10
171.3858043
20
-61.7928754
11
173.5071246
21
-63.9141957
0
LINE
8
0
10
173.5071246
20
-108.9141957
11
173.5141957
21
-108.9071246
0
LINE
8
0
10
173.5141957
20
-108.9071246
11
171.3928754
21
-106.7858043
0
LINE
8
0
10
171.3928754
20
-106.7858043
11
171.3858043
21
-106.7928754
0
LINE
8
0
10
171.3858043
20
-106.7928754
11
173.5071246
21
-108.9141957
0
LINE
8
0
10
128.5071246
20
-63.9141957
11
128.5141957
21
-63.9071246
0
LINE
8
0
10
128.5141957
20
-63.9071246
11
126.3928754
21
-61.7858043
0
LINE
8
0
10
126.3928754
20
-61.7858043
11
126.3858043
21
-61.7928754
0
LINE
8
0
10
126.3858043
20
-61.7928754
11
128.5071246
21
-63.9141957
0
LINE
8
0
10
128.5071246
20
-108.9141957
11
128.5141957
21
-108.9071246
0
LINE
8
0
10
128.5141957
20
-108.9071246
11
126.3928754
21
-106.7858043
0
LINE
8
0
10
126.3928754
20
-106.7858043
11
126.3858043
21
-106.7928754
0
LINE
8
0
10
126.3858043
20
-106.7928754
11
128.5071246
21
-108.9141957
0
LINE
8
0
10
86.6446751
20
-126.6712318
11
86.6365849
21
-126.665354
0
LINE
8
0
10
86.6365849
20
-126.665354
11
84.8732291
21
-129.092405
0
LINE
8
0
10
84.8732291
20
-129.092405
11
84.8813193
21
-129.0982828
0
LINE
8
0
10
84.8813193
20
-129.0982828
11
86.6446751
21
-126.6712318
0
LINE
8
0
10
109.5571246
20
-75.5641957
11
109.5641957
21
-75.5571246
0
LINE
8
0
10
109.5641957
20
-75.5571246
11
107.4428754
21
-73.4358043
0
LINE
8
0
10
107.4428754
20
-73.4358043
11
107.4358043
21
-73.4428754
0
LINE
8
0
10
107.4358043
20
-73.4428754
11
109.5571246
21
-75.5641957
0
LINE
8
0
10
109.5571246
20
-92.5641957
11
109.5641957
21
-92.5571246
0
LINE
8
0
10
109.5641957
20
-92.5571246
11
107.4428754
21
-90.4358043
0
LINE
8
0
10
107.4428754
20
-90.4358043
11
107.4358043
21
-90.4428754
0
LINE
8
0
10
107.4358043
20
-90.4428754
11
109.5571246
21
-92.5641957
0
LINE
8
0
10
193.8827447
20
-81.5442905
11
193.8904051
21
-81.5378627
0
LINE
8
0
10
193.8904051
20
-81.5378627
11
191.9620423
21
-79.2397293
0
LINE
8
0
10
191.9620423
20
-79.2397293
11
191.9543819
21
-79.2461572
0
LINE
8
0
10
191.9543819
20
-79.2461572
11
193.8827447
21
-81.5442905
0
LINE
8
0
10
192.4010971
20
-98.4796004
11
192.4087575
21
-98.4731725
0
LINE
8
0
10
192.4087575
20
-98.4731725
11
190.4803947
21
-96.1750392
0
LINE
8
0
10
190.4803947
20
-96.1750392
11
190.4727343
21
-96.1814671
0
LINE
8
0
10
190.4727343
20
-96.1814671
11
192.4010971
21
-98.4796004
0
LINE
8
0
10
178.0432491
20
-80.1585141
11
178.0509095
21
-80.1520863
0
LINE
8
0
10
178.0509095
20
-80.1520863
11
176.1225467
21
-77.853953
0
LINE
8
0
10
176.1225467
20
-77.853953
11
176.1148863
21
-77.8603808
0
LINE
8
0
10
176.1148863
20
-77.8603808
11
178.0432491
21
-80.1585141
0
LINE
8
0
10
176.5616015
20
-97.093824
11
176.5692619
21
-97.0873961
0
LINE
8
0
10
176.5692619
20
-97.0873961
11
174.6408991
21
-94.7892628
0
LINE
8
0
10
174.6408991
20
-94.7892628
11
174.6332387
21
-94.7956907
0
LINE
8
0
10
174.6332387
20
-94.7956907
11
176.5616015
21
-97.093824
0
ARC
8
0
10
101.15
20
-98.85
40
0.4
50
225.7162091
51
584.2837909
0
ARC
8
0
10
101.15
20
-81.85
40
0.4
50
225.7162091
51
584.2837909
0
ARC
8
0
10
101.15
20
-64.85
40
0.4
50
225.7162091
51
584.2837909
0
ARC
8
0
10
118.15
20
-98.85
40
0.4
50
225.7162091
51
584.2837909
0
ARC
8
0
10
118.15
20
-81.85
40
0.4
50
225.7162091
51
584.2837909
0
ARC
8
0
10
118.15
20
-64.85
40
0.4
50
225.7162091
51
584.2837909
0
ARC
8
0
10
139.15
20
-91.2
40
0.4
50
225.7162091
51
584.2837909
0
ARC
8
0
10
139.15
20
-74.2
40
0.4
50
225.7162091
51
584.2837909
0
ARC
8
0
10
139.15
20
-57.2
40
0.4
50
225.7162091
51
584.2837909
0
ARC
8
0
10
162.5617425
20
-93.3301117
40
0.4
50
223.2162044
51
581.7837806
0
ARC
8
0
10
163.3032721
20
-76.3462919
40
0.4
50
223.2162044
51
581.7837806
0
ARC
8
0
10
164.0448017
20
-59.3624721
40
0.4
50
223.2162044
51
581.7837806
0
ARC
8
0
10
184.0260273
20
-104.0566918
40
0.4
50
220.7162182
51
579.2837781
0
ARC
8
0
10
185.5076749
20
-87.1213819
40
0.4
50
220.7162182
51
579.2837781
0
ARC
8
0
10
186.9893225
20
-70.186072
40
0.4
50
220.7162182
51
579.2837781
0
ARC
8
0
10
199.4109131
20
-96.8702263
40
0.4
50
310.7162182
51
669.2837781
0
ARC
8
0
10
201.2629726
20
-75.701089
40
0.4
50
310.7162182
51
669.2837781
0
ARC
8
0
10
76.5360318
20
-129.7142287
40
0.4
50
327.7162198
51
686.2837878
0
ARC
8
0
10
93.2170747
20
-123.5113026
40
0.4
50
324.716218
51
683.283787
0
ARC
8
0
10
111.7528447
20
-118.3417598
40
0.4
50
312.716216
51
671.2837795
0
ARC
8
0
10
56.15
20
-34.85
40
0.4
50
225.7162091
51
584.2837909
0
ARC
8
0
10
56.15
20
-153.85
40
0.4
50
225.7162091
51
584.2837909
0
ARC
8
0
10
82.4
20
-79.45
40
0.4
50
225.7162091
51
584.2837909
0
ARC
8
0
10
91.4
20
-62.95
40
0.4
50
225.7162091
51
584.2837909
0
ARC
8
0
10
73.4
20
-62.95
40
0.4
50
225.7162091
51
584.2837909
0
ARC
8
0
10
91.4
20
-95.95
40
0.4
50
225.7162091
51
584.2837909
0
ARC
8
0
10
73.4
20
-95.95
40
0.4
50
225.7162091
51
584.2837909
0
ARC
8
0
10
82.4
20
-62.95
40
0.4
50
225.7162091
51
584.2837909
0
ARC
8
0
10
82.4
20
-95.95
40
0.4
50
225.7162091
51
584.2837909
0
ARC
8
0
10
82.4
20
-98.25
40
0.4
50
225.7162091
51
494.2837909
0
ARC
8
0
10
82.4
20
-98.25
40
0.4
50
495.7162091
51
584.2837909
0
ARC
8
0
10
78.59
20
-104.65
40
0.4
50
225.7162091
51
584.2837909
0
ARC
8
0
10
78.9
20
-61.95
40
0.4
50
225.7162091
51
584.2837909
0
ARC
8
0
10
88.4
20
-61.905
40
0.4
50
225.7162091
51
584.2837909
0
ARC
8
0
10
89.4
20
-102.95
40
0.4
50
225.7162091
51
584.2837909
0
ARC
8
0
10
75.4
20
-102.95
40
0.4
50
225.7162091
51
584.2837909
0
ARC
8
0
10
75.4
20
-116.95
40
0.4
50
225.7162091
51
584.2837909
0
ARC
8
0
10
151.1
20
-84.2
40
0.4
50
225.7162091
51
584.2837909
0
ARC
8
0
10
173.6
20
-61.7
40
0.4
50
225.7162091
51
584.2837909
0
ARC
8
0
10
173.6
20
-106.7
40
0.4
50
225.7162091
51
584.2837909
0
ARC
8
0
10
128.6
20
-61.7
40
0.4
50
225.7162091
51
584.2837909
0
ARC
8
0
10
128.6
20
-106.7
40
0.4
50
225.7162091
51
584.2837909
0
ARC
8
0
10
84.4432109
20
-126.9258764
40
0.4
50
324.716218
51
683.283787
0
ARC
8
0
10
109.65
20
-73.35
40
0.4
50
225.7162091
51
584.2837909
0
ARC
8
0
10
109.65
20
-90.35
40
0.4
50
225.7162091
51
584.2837909
0
ARC
8
0
10
194.1682465
20
-79.3466151
40
0.4
50
220.7162182
51
579.2837781
0
ARC
8
0
10
192.6865989
20
-96.281925
40
0.4
50
220.7162182
51
579.2837781
0
ARC
8
0
10
178.3287509
20
-77.9608388
40
0.4
50
220.7162182
51
579.2837781
0
ARC
8
0
10
176.8471033
20
-94.8961486
40
0.4
50
220.7162182
51
579.2837781
0
LINE
8
0
10
91.5
20
-108.5
11
125.5
21
-108.5
0
LINE
8
0
10
108.5
20
-108.5
11
108.5
21
-57.5
0
LINE
8
0
10
91.5
20
-91.5
11
125.5
21
-91.5
0
LINE
8
0
10
91.5
20
-108.5
11
91.5
21
-57.5
0
LINE
8
0
10
91.5
20
-74.5
11
125.5
21
-74.5
0
LINE
8
0
10
91.5
20
-57.5
11
125.5
21
-57.5
0
LINE
8
0
10
125.5
20
-108.5
11
125.5
21
-57.5
0
LINE
8
0
10
129.5
20
-100.85
11
146.5
21
-100.85
0
LINE
8
0
10
146.5
20
-100.85
11
146.5
21
-49.85
0
LINE
8
0
10
129.5
20
-83.85
11
146.5
21
-83.85
0
LINE
8
0
10
129.5
20
-100.85
11
129.5
21
-49.85
0
LINE
8
0
10
129.5
20
-66.85
11
146.5
21
-66.85
0
LINE
8
0
10
146.5
20
-49.85
11
129.5
21
-49.85
0
LINE
8
0
10
152.5
20
-102.55
11
169.4838198
21
-103.2915296
0
LINE
8
0
10
169.4838198
20
-103.2915296
11
171.7084086
21
-52.3400702
0
LINE
8
0
10
153.2415296
20
-85.5661802
11
170.2253494
21
-86.3077098
0
LINE
8
0
10
152.5
20
-102.55
11
154.7245888
21
-51.5985406
0
LINE
8
0
10
153.9830592
20
-68.5823604
11
170.966879
21
-69.32389
0
LINE
8
0
10
171.7084086
20
-52.3400702
11
154.7245888
21
-51.5985406
0
LINE
8
0
10
173.5716956
20
-112.8289177
11
190.5070054
21
-114.3105653
0
LINE
8
0
10
190.5070054
20
-114.3105653
11
194.9519482
21
-63.5046357
0
LINE
8
0
10
175.0533432
20
-95.8936078
11
191.988653
21
-97.3752555
0
LINE
8
0
10
175.0533432
20
-95.8936079
11
173.5716956
21
-112.8289177
0
LINE
8
0
10
176.5349908
20
-78.9582979
11
193.4703006
21
-80.4399456
0
LINE
8
0
10
176.5349908
20
-78.958298
11
175.0533432
21
-95.8936078
0
LINE
8
0
10
194.9519482
20
-63.5046357
11
178.0166384
21
-62.0229881
0
LINE
8
0
10
178.0166384
20
-62.0229881
11
176.5349908
21
-78.9582979
0
LINE
8
0
10
207.5553692
20
-114.5
11
211.7471019
21
-66.5882754
0
LINE
8
0
10
192.9146827
20
-86.7906868
11
209.8499926
21
-88.2723345
0
LINE
8
0
10
191.0626232
20
-107.9598242
11
207.9979331
21
-109.4414718
0
LINE
8
0
10
211.7020521
20
-67.1031971
11
194.7667422
21
-65.6215495
0
LINE
8
0
10
88.4233163
20
-139.2255689
11
84.0051929
21
-118.4399324
0
LINE
8
0
10
84.0051929
20
-118.4399324
11
67.3766837
21
-121.9744311
0
LINE
8
0
10
67.3622367
20
-121.9064635
11
71.7948071
21
-142.7600676
0
LINE
8
0
10
71.7948071
20
-142.7600676
11
88.4233163
21
-139.2255689
0
LINE
8
0
10
104.590283
20
-133.6317403
11
101.2660506
21
-112.643363
0
LINE
8
0
10
101.2660506
20
-112.643363
11
84.4753488
21
-115.3027489
0
LINE
8
0
10
84.4753488
20
-115.3027489
11
87.7995812
21
-136.2911262
0
LINE
8
0
10
87.7995812
20
-136.2911262
11
104.590283
21
-133.6317403
0
LINE
8
0
10
120.7733638
20
-130.6056645
11
121.8855029
21
-109.3847869
0
LINE
8
0
10
121.8855029
20
-109.3847869
11
104.9088008
21
-108.4950757
0
LINE
8
0
10
104.9088008
20
-108.4950757
11
103.7966617
21
-129.7159533
0
LINE
8
0
10
103.7966617
20
-129.7159533
11
120.7733638
21
-130.6056645
0
LINE
8
0
10
145.9646525
20
-114.4999999
11
207.5553692
21
-114.5
0
ARC
8
0
10
140
20
-209.6
40
160
50
63.3576814
51
107.6453949
0
LINE
8
0
10
91.5000001
20
-62
11
91.5000001
21
-57.1278714
0
ARC
8
0
10
61.5
20
-2.85
40
140
50
274.1921854
51
322.5395041
0
LINE
8
0
10
67.375
20
-61.9999999
11
91.625
21
-62
0
ARC
8
0
10
-128.25
20
-83
40
200
50
348.3828217
51
366.0271666
0
LINE
8
0
10
67.375
20
-122
11
91.625
21
-122
0
LINE
8
0
10
91.625
20
-122
11
91.625
21
-62
0
LINE
8
0
10
67.375
20
-62
11
67.375
21
-122
0
LINE
8
0
10
92.7355561
20
-88
11
172.628203
21
-88
0
ARC
8
0
10
30
20
-67.5
40
66
50
664.4783296
51
701.9042417
0
ENDSEC
0
EOF