<svg width="158.017mm" height="110mm" viewBox="0 0 158.017 110" xmlns="http://www.w3.org/2000/svg"><g id="svgGroup" stroke-linecap="round" fill-rule="evenodd" font-size="9pt" stroke="#000" stroke-width="0.25mm" fill="none" style="stroke:#000;stroke-width:0.25mm;fill:none"><path d="M 39.25 20.75 A 1.5 1.5 0 0 1 40.75 19.25 L 54.25 19.25 A 1.5 1.5 0 0 1 55.75 20.75 L 55.75 34.25 A 1.5 1.5 0 0 1 54.25 35.75 L 40.75 35.75 A 1.5 1.5 0 0 1 39.25 34.25 L 39.25 17.134 A 190 190 0 0 1 157.57 26.032 L 153.336 74.431 L 108.128 73.642 A 57 57 0 0 0 69.21 86.517 L 67.792 87.404 A 140 140 0 0 1 22.843 103.67 L 17.479 84.965 A 300 300 0 0 0 20.45 37.023 L 20.45 22.5 L 39.25 22.5 M 39 70 L 73 70 L 73 19 L 39 19 L 39 70 Z M 75 62.575 L 96.75 62.575 L 96.75 11.575 L 75 11.575 L 75 62.575 Z M 139.938 39.973 L 123.003 38.492 L 124.484 21.556 L 141.42 23.038 L 136.975 73.844 L 120.039 72.362 L 121.521 55.427 M 22.3 61.35 L 36.3 61.35 L 36.3 25.35 L 22.3 25.35 L 22.3 61.35 Z M 22.05 57 L 36.55 57 A 1.75 1.75 0 0 0 38.3 55.25 L 38.3 25.75 A 1.75 1.75 0 0 0 36.55 24 L 22.05 24 A 1.75 1.75 0 0 0 20.3 25.75 L 20.3 55.25 A 1.75 1.75 0 0 0 22.05 57 Z M 98.985 30.154 L 98.244 47.138 L 119.973 48.086 L 119.232 65.07 L 97.502 64.121 L 98.244 47.138 M 120.715 31.102 L 121.456 14.119 L 99.727 13.17 L 98.985 30.154 L 120.715 31.102 L 119.973 48.086 M 35.3 25.35 L 35.3 63.35 L 23.3 63.35 L 23.3 25.35 M 53.906 93.424 L 50.504 71.942 L 33.713 74.601 L 37.115 96.084 L 53.906 93.424 Z M 38.693 99.811 L 32.698 78.903 L 16.357 83.589 L 22.352 104.497 L 38.693 99.811 Z M 141.082 26.898 L 158.017 28.38 L 154.226 71.714 L 137.29 70.233 M 37.971 98.198 L 32.94 80.654 A 1.5 1.5 0 0 0 31.085 79.626 L 18.108 83.347 A 1.5 1.5 0 0 0 17.079 85.202 L 22.11 102.746 A 1.5 1.5 0 0 0 23.965 103.774 L 36.942 100.053 A 1.5 1.5 0 0 0 37.971 98.198 Z M 99.261 63.948 L 117.494 64.744 A 1.5 1.5 0 0 0 119.058 63.311 L 119.647 49.824 A 1.5 1.5 0 0 0 118.214 48.26 L 99.981 47.464 A 1.5 1.5 0 0 0 98.417 48.897 L 97.828 62.384 A 1.5 1.5 0 0 0 99.261 63.948 Z M 100.745 29.98 L 118.977 30.776 A 1.5 1.5 0 0 0 120.541 29.343 L 121.13 15.856 A 1.5 1.5 0 0 0 119.697 14.292 L 101.464 13.496 A 1.5 1.5 0 0 0 99.9 14.929 L 99.311 28.416 A 1.5 1.5 0 0 0 100.745 29.98 Z M 100.003 46.964 L 118.236 47.76 A 1.5 1.5 0 0 0 119.8 46.327 L 120.389 32.84 A 1.5 1.5 0 0 0 118.955 31.276 L 100.723 30.48 A 1.5 1.5 0 0 0 99.159 31.913 L 98.57 45.4 A 1.5 1.5 0 0 0 100.003 46.964 Z M 76.75 62.325 L 95 62.325 A 1.5 1.5 0 0 0 96.5 60.825 L 96.5 47.325 A 1.5 1.5 0 0 0 95 45.825 L 76.75 45.825 A 1.5 1.5 0 0 0 75.25 47.325 L 75.25 60.825 A 1.5 1.5 0 0 0 76.75 62.325 Z M 76.75 45.325 L 95 45.325 A 1.5 1.5 0 0 0 96.5 43.825 L 96.5 30.325 A 1.5 1.5 0 0 0 95 28.825 L 76.75 28.825 A 1.5 1.5 0 0 0 75.25 30.325 L 75.25 43.825 A 1.5 1.5 0 0 0 76.75 45.325 Z M 76.75 28.325 L 95 28.325 A 1.5 1.5 0 0 0 96.5 26.825 L 96.5 13.325 A 1.5 1.5 0 0 0 95 11.825 L 76.75 11.825 A 1.5 1.5 0 0 0 75.25 13.325 L 75.25 26.825 A 1.5 1.5 0 0 0 76.75 28.325 Z M 53.385 91.735 L 50.53 73.71 A 1.5 1.5 0 0 0 48.814 72.463 L 35.48 74.575 A 1.5 1.5 0 0 0 34.234 76.291 L 37.089 94.316 A 1.5 1.5 0 0 0 38.805 95.563 L 52.139 93.451 A 1.5 1.5 0 0 0 53.385 91.735 Z M 141.178 28.663 L 139.588 46.844 A 1.5 1.5 0 0 0 140.951 48.469 L 154.4 49.646 A 1.5 1.5 0 0 0 156.025 48.282 L 157.616 30.101 A 1.5 1.5 0 0 0 156.252 28.476 L 142.803 27.3 A 1.5 1.5 0 0 0 141.178 28.663 Z M 139.283 50.331 L 137.692 68.511 A 1.5 1.5 0 0 0 139.056 70.136 L 152.504 71.313 A 1.5 1.5 0 0 0 154.129 69.949 L 155.72 51.769 A 1.5 1.5 0 0 0 154.356 50.144 L 140.908 48.967 A 1.5 1.5 0 0 0 139.283 50.331 Z M 69.209 87.692 L 70.395 70.734 L 53.436 69.548 L 52.25 86.506 L 69.209 87.692 Z M 140.463 51.187 L 139.003 67.873 A 1 1 0 0 0 139.912 68.956 L 151.866 70.002 A 1 1 0 0 0 152.949 69.093 L 154.409 52.407 A 1 1 0 0 0 153.5 51.324 L 141.546 50.278 A 1 1 0 0 0 140.463 51.187 Z M 142.358 29.519 L 140.898 46.206 A 1 1 0 0 0 141.807 47.289 L 153.762 48.335 A 1 1 0 0 0 154.845 47.426 L 156.305 30.74 A 1 1 0 0 0 155.396 29.656 L 143.442 28.61 A 1 1 0 0 0 142.358 29.519 Z M 100.065 62.732 L 116.799 63.463 A 1 1 0 0 0 117.842 62.507 L 118.365 50.518 A 1 1 0 0 0 117.41 49.476 L 100.676 48.745 A 1 1 0 0 0 99.633 49.701 L 99.11 61.689 A 1 1 0 0 0 100.065 62.732 Z M 101.548 28.764 L 118.282 29.495 A 1 1 0 0 0 119.325 28.539 L 119.849 16.551 A 1 1 0 0 0 118.893 15.508 L 102.159 14.778 A 1 1 0 0 0 101.116 15.733 L 100.593 27.722 A 1 1 0 0 0 101.548 28.764 Z M 100.807 45.748 L 117.541 46.479 A 1 1 0 0 0 118.584 45.523 L 119.107 33.535 A 1 1 0 0 0 118.152 32.492 L 101.418 31.761 A 1 1 0 0 0 100.375 32.717 L 99.851 44.705 A 1 1 0 0 0 100.807 45.748 Z M 36.562 97.821 L 31.945 81.72 A 1 1 0 0 0 30.708 81.034 L 19.173 84.342 A 1 1 0 0 0 18.488 85.579 L 23.105 101.68 A 1 1 0 0 0 24.342 102.366 L 35.877 99.058 A 1 1 0 0 0 36.562 97.821 Z M 52.033 91.19 L 49.413 74.646 A 1 1 0 0 0 48.269 73.815 L 36.417 75.692 A 1 1 0 0 0 35.586 76.836 L 38.206 93.38 A 1 1 0 0 0 39.35 94.211 L 51.202 92.334 A 1 1 0 0 0 52.033 91.19 Z M 77.5 61.075 L 94.25 61.075 A 1 1 0 0 0 95.25 60.075 L 95.25 48.075 A 1 1 0 0 0 94.25 47.075 L 77.5 47.075 A 1 1 0 0 0 76.5 48.075 L 76.5 60.075 A 1 1 0 0 0 77.5 61.075 Z M 77.5 44.075 L 94.25 44.075 A 1 1 0 0 0 95.25 43.075 L 95.25 31.075 A 1 1 0 0 0 94.25 30.075 L 77.5 30.075 A 1 1 0 0 0 76.5 31.075 L 76.5 43.075 A 1 1 0 0 0 77.5 44.075 Z M 77.5 27.075 L 94.25 27.075 A 1 1 0 0 0 95.25 26.075 L 95.25 14.075 A 1 1 0 0 0 94.25 13.075 L 77.5 13.075 A 1 1 0 0 0 76.5 14.075 L 76.5 26.075 A 1 1 0 0 0 77.5 27.075 Z M 40.75 69.75 L 54.25 69.75 A 1.5 1.5 0 0 0 55.75 68.25 L 55.75 54.75 A 1.5 1.5 0 0 0 54.25 53.25 L 40.75 53.25 A 1.5 1.5 0 0 0 39.25 54.75 L 39.25 68.25 A 1.5 1.5 0 0 0 40.75 69.75 Z M 40.75 52.75 L 54.25 52.75 A 1.5 1.5 0 0 0 55.75 51.25 L 55.75 37.75 A 1.5 1.5 0 0 0 54.25 36.25 L 40.75 36.25 A 1.5 1.5 0 0 0 39.25 37.75 L 39.25 51.25 A 1.5 1.5 0 0 0 40.75 52.75 Z M 57.75 69.75 L 71.25 69.75 A 1.5 1.5 0 0 0 72.75 68.25 L 72.75 54.75 A 1.5 1.5 0 0 0 71.25 53.25 L 57.75 53.25 A 1.5 1.5 0 0 0 56.25 54.75 L 56.25 68.25 A 1.5 1.5 0 0 0 57.75 69.75 Z M 57.75 52.75 L 71.25 52.75 A 1.5 1.5 0 0 0 72.75 51.25 L 72.75 37.75 A 1.5 1.5 0 0 0 71.25 36.25 L 57.75 36.25 A 1.5 1.5 0 0 0 56.25 37.75 L 56.25 51.25 A 1.5 1.5 0 0 0 57.75 52.75 Z M 57.75 35.75 L 71.25 35.75 A 1.5 1.5 0 0 0 72.75 34.25 L 72.75 20.75 A 1.5 1.5 0 0 0 71.25 19.25 L 57.75 19.25 A 1.5 1.5 0 0 0 56.25 20.75 L 56.25 34.25 A 1.5 1.5 0 0 0 57.75 35.75 Z M 123.286 55.33 L 136.735 56.507 A 1.5 1.5 0 0 0 138.36 55.144 L 139.536 41.695 A 1.5 1.5 0 0 0 138.173 40.07 L 124.724 38.893 A 1.5 1.5 0 0 0 123.099 40.257 L 121.922 53.705 A 1.5 1.5 0 0 0 123.286 55.33 Z M 124.768 38.395 L 138.216 39.572 A 1.5 1.5 0 0 0 139.841 38.208 L 141.018 24.76 A 1.5 1.5 0 0 0 139.654 23.135 L 126.206 21.958 A 1.5 1.5 0 0 0 124.581 23.321 L 123.404 36.77 A 1.5 1.5 0 0 0 124.768 38.395 Z M 121.804 72.266 L 135.253 73.442 A 1.5 1.5 0 0 0 136.878 72.079 L 138.055 58.63 A 1.5 1.5 0 0 0 136.691 57.005 L 123.242 55.829 A 1.5 1.5 0 0 0 121.617 57.192 L 120.441 70.641 A 1.5 1.5 0 0 0 121.804 72.266 Z M 69.082 85.929 L 70.023 72.462 A 1.5 1.5 0 0 0 68.632 70.861 L 55.164 69.919 A 1.5 1.5 0 0 0 53.563 71.311 L 52.622 84.778 A 1.5 1.5 0 0 0 54.013 86.379 L 67.481 87.321 A 1.5 1.5 0 0 0 69.082 85.929 Z M 122.66 71.086 L 134.615 72.132 A 1 1 0 0 0 135.698 71.223 L 136.744 59.268 A 1 1 0 0 0 135.835 58.185 L 123.881 57.139 A 1 1 0 0 0 122.797 58.048 L 121.751 70.003 A 1 1 0 0 0 122.66 71.086 Z M 125.624 37.215 L 137.578 38.261 A 1 1 0 0 0 138.661 37.352 L 139.707 25.398 A 1 1 0 0 0 138.798 24.314 L 126.844 23.269 A 1 1 0 0 0 125.761 24.178 L 124.715 36.132 A 1 1 0 0 0 125.624 37.215 Z M 124.142 54.151 L 136.096 55.196 A 1 1 0 0 0 137.18 54.287 L 138.226 42.333 A 1 1 0 0 0 137.317 41.25 L 125.362 40.204 A 1 1 0 0 0 124.279 41.113 L 123.233 53.067 A 1 1 0 0 0 124.142 54.151 Z M 41.5 68.5 L 53.5 68.5 A 1 1 0 0 0 54.5 67.5 L 54.5 55.5 A 1 1 0 0 0 53.5 54.5 L 41.5 54.5 A 1 1 0 0 0 40.5 55.5 L 40.5 67.5 A 1 1 0 0 0 41.5 68.5 Z M 41.5 51.5 L 53.5 51.5 A 1 1 0 0 0 54.5 50.5 L 54.5 38.5 A 1 1 0 0 0 53.5 37.5 L 41.5 37.5 A 1 1 0 0 0 40.5 38.5 L 40.5 50.5 A 1 1 0 0 0 41.5 51.5 Z M 41.5 34.5 L 53.5 34.5 A 1 1 0 0 0 54.5 33.5 L 54.5 21.5 A 1 1 0 0 0 53.5 20.5 L 41.5 20.5 A 1 1 0 0 0 40.5 21.5 L 40.5 33.5 A 1 1 0 0 0 41.5 34.5 Z M 58.5 68.5 L 70.5 68.5 A 1 1 0 0 0 71.5 67.5 L 71.5 55.5 A 1 1 0 0 0 70.5 54.5 L 58.5 54.5 A 1 1 0 0 0 57.5 55.5 L 57.5 67.5 A 1 1 0 0 0 58.5 68.5 Z M 58.5 51.5 L 70.5 51.5 A 1 1 0 0 0 71.5 50.5 L 71.5 38.5 A 1 1 0 0 0 70.5 37.5 L 58.5 37.5 A 1 1 0 0 0 57.5 38.5 L 57.5 50.5 A 1 1 0 0 0 58.5 51.5 Z M 58.5 34.5 L 70.5 34.5 A 1 1 0 0 0 71.5 33.5 L 71.5 21.5 A 1 1 0 0 0 70.5 20.5 L 58.5 20.5 A 1 1 0 0 0 57.5 21.5 L 57.5 33.5 A 1 1 0 0 0 58.5 34.5 Z M 67.887 85.094 L 68.724 73.123 A 1 1 0 0 0 67.796 72.055 L 55.825 71.218 A 1 1 0 0 0 54.758 72.146 L 53.921 84.117 A 1 1 0 0 0 54.849 85.184 L 66.82 86.021 A 1 1 0 0 0 67.887 85.094 Z M 138.456 56.909 L 121.521 55.427 L 123.003 38.492 M 62.969 83.747 L 63.206 80.356 L 64.403 80.439 L 64.626 77.247 L 63.429 77.163 L 63.666 73.772 L 59.676 73.493 L 58.979 83.468 L 62.969 83.747 Z M 105.138 23.916 L 108.535 24.065 L 108.483 25.263 L 111.68 25.403 L 111.732 24.204 L 115.129 24.352 L 115.303 20.356 L 105.313 19.92 L 105.138 23.916 Z M 104.397 40.9 L 107.793 41.048 L 107.741 42.247 L 110.938 42.387 L 110.99 41.188 L 114.387 41.336 L 114.562 37.34 L 104.571 36.904 L 104.397 40.9 Z M 103.655 57.884 L 107.052 58.032 L 107 59.231 L 110.197 59.371 L 110.249 58.172 L 113.646 58.32 L 113.82 54.324 L 103.83 53.888 L 103.655 57.884 Z M 30.826 95.955 L 29.889 92.687 L 31.042 92.356 L 30.16 89.28 L 29.007 89.611 L 28.069 86.342 L 24.224 87.445 L 26.981 97.058 L 30.826 95.955 Z M 42.5 63.5 L 45.9 63.5 L 45.9 64.7 L 49.1 64.7 L 49.1 63.5 L 52.5 63.5 L 52.5 59.5 L 42.5 59.5 L 42.5 63.5 Z M 42.5 46.5 L 45.9 46.5 L 45.9 47.7 L 49.1 47.7 L 49.1 46.5 L 52.5 46.5 L 52.5 42.5 L 42.5 42.5 L 42.5 46.5 Z M 42.5 29.5 L 45.9 29.5 L 45.9 30.7 L 49.1 30.7 L 49.1 29.5 L 52.5 29.5 L 52.5 25.5 L 42.5 25.5 L 42.5 29.5 Z M 59.5 63.5 L 62.9 63.5 L 62.9 64.7 L 66.1 64.7 L 66.1 63.5 L 69.5 63.5 L 69.5 59.5 L 59.5 59.5 L 59.5 63.5 Z M 59.5 46.5 L 62.9 46.5 L 62.9 47.7 L 66.1 47.7 L 66.1 46.5 L 69.5 46.5 L 69.5 42.5 L 59.5 42.5 L 59.5 46.5 Z M 59.5 29.5 L 62.9 29.5 L 62.9 30.7 L 66.1 30.7 L 66.1 29.5 L 69.5 29.5 L 69.5 25.5 L 59.5 25.5 L 59.5 29.5 Z M 80.875 56.075 L 84.275 56.075 L 84.275 57.275 L 87.475 57.275 L 87.475 56.075 L 90.875 56.075 L 90.875 52.075 L 80.875 52.075 L 80.875 56.075 Z M 80.875 39.075 L 84.275 39.075 L 84.275 40.275 L 87.475 40.275 L 87.475 39.075 L 90.875 39.075 L 90.875 35.075 L 80.875 35.075 L 80.875 39.075 Z M 80.875 22.075 L 84.275 22.075 L 84.275 23.275 L 87.475 23.275 L 87.475 22.075 L 90.875 22.075 L 90.875 18.075 L 80.875 18.075 L 80.875 22.075 Z M 147.045 33.317 L 146.749 36.704 L 145.553 36.6 L 145.274 39.788 L 146.47 39.892 L 146.173 43.279 L 150.158 43.628 L 151.03 33.666 L 147.045 33.317 Z M 124.092 66.192 L 127.48 66.488 L 127.375 67.684 L 130.563 67.963 L 130.667 66.767 L 134.054 67.064 L 134.403 63.079 L 124.441 62.207 L 124.092 66.192 Z M 125.574 49.257 L 128.961 49.553 L 128.857 50.749 L 132.044 51.027 L 132.149 49.832 L 135.536 50.128 L 135.885 46.144 L 125.923 45.272 L 125.574 49.257 Z M 127.056 32.321 L 130.443 32.618 L 130.338 33.813 L 133.526 34.092 L 133.631 32.897 L 137.018 33.193 L 137.366 29.208 L 127.404 28.337 L 127.056 32.321 Z M 145.149 54.985 L 144.853 58.372 L 143.658 58.267 L 143.379 61.455 L 144.574 61.56 L 144.278 64.947 L 148.263 65.295 L 149.134 55.333 L 145.149 54.985 Z M 46.567 88.638 L 46.035 85.28 L 47.22 85.093 L 46.72 81.932 L 45.535 82.12 L 45.003 78.762 L 41.052 79.387 L 42.616 89.264 L 46.567 88.638 Z M 33.675 65.25 L 25.925 65.25 L 25.925 71.25 L 33.675 71.25 L 33.675 65.25 Z M 24.9 26.905 L 33.7 26.905 L 33.7 22.355 L 24.9 22.355 L 24.9 26.905 Z M 0 5 L 5 5 L 5 0 L 0 0 L 0 5 Z M 0 110 L 5 110 L 5 105 L 0 105 L 0 110 Z M 30.525 71.75 L 24.575 71.75 L 24.575 75.25 L 30.525 75.25 L 30.525 71.75 Z M 22.89 61.35 L 22.89 58.75 L 35.71 58.75 L 35.71 61.35 M 24.16 63.35 L 24.16 60.75 L 34.44 60.75 L 34.44 63.35 M 28.243 25.064 L 30.105 23.202 A 0.4 0.4 0 0 0 30.164 23.279 L 28.236 25.207 L 28.243 25.214 L 30.171 23.286 A 0.4 0.4 0 0 0 30.843 22.925 A 0.4 0.4 0 1 0 30.057 22.925 A 0.4 0.4 0 0 0 30.1 23.193 L 28.236 25.057 L 28.243 25.064 Z M 34 82.075 m -2.05 0 a 2.05 2.05 0 0 1 4.1 0 a 2.05 2.05 0 0 1 -4.1 0 z M 77.625 45.575 m -2.05 0 a 2.05 2.05 0 0 1 4.1 0 a 2.05 2.05 0 0 1 -4.1 0 z M 139.92 48.63 m -2.05 0 a 2.05 2.05 0 0 1 4.1 0 a 2.05 2.05 0 0 1 -4.1 0 z M 56 19.5 m -2.05 0 a 2.05 2.05 0 0 1 4.1 0 a 2.05 2.05 0 0 1 -4.1 0 z M 54.5 89 m -2.05 0 a 2.05 2.05 0 0 1 4.1 0 a 2.05 2.05 0 0 1 -4.1 0 z M 97.875 17.575 m -2.05 0 a 2.05 2.05 0 0 1 4.1 0 a 2.05 2.05 0 0 1 -4.1 0 z M 97.875 69.425 m -2.05 0 a 2.05 2.05 0 0 1 4.1 0 a 2.05 2.05 0 0 1 -4.1 0 z M 152.616 29.65 m -2.05 0 a 2.05 2.05 0 0 1 4.1 0 a 2.05 2.05 0 0 1 -4.1 0 z M 21.8 63.375 m -2.05 0 a 2.05 2.05 0 0 1 4.1 0 a 2.05 2.05 0 0 1 -4.1 0 z M 149.129 69.425 m -2.05 0 a 2.05 2.05 0 0 1 4.1 0 a 2.05 2.05 0 0 1 -4.1 0 z M 34 82.075 m -1.7 0 a 1.7 1.7 0 0 1 3.4 0 a 1.7 1.7 0 0 1 -3.4 0 z M 77.625 45.575 m -1.7 0 a 1.7 1.7 0 0 1 3.4 0 a 1.7 1.7 0 0 1 -3.4 0 z M 139.92 48.63 m -1.7 0 a 1.7 1.7 0 0 1 3.4 0 a 1.7 1.7 0 0 1 -3.4 0 z M 47.5 61.5 m -1.6 0 a 1.6 1.6 0 0 1 3.2 0 a 1.6 1.6 0 0 1 -3.2 0 z M 47.5 44.5 m -1.6 0 a 1.6 1.6 0 0 1 3.2 0 a 1.6 1.6 0 0 1 -3.2 0 z M 47.5 27.5 m -1.6 0 a 1.6 1.6 0 0 1 3.2 0 a 1.6 1.6 0 0 1 -3.2 0 z M 64.5 61.5 m -1.6 0 a 1.6 1.6 0 0 1 3.2 0 a 1.6 1.6 0 0 1 -3.2 0 z M 64.5 44.5 m -1.6 0 a 1.6 1.6 0 0 1 3.2 0 a 1.6 1.6 0 0 1 -3.2 0 z M 64.5 27.5 m -1.6 0 a 1.6 1.6 0 0 1 3.2 0 a 1.6 1.6 0 0 1 -3.2 0 z M 85.875 54.075 m -1.6 0 a 1.6 1.6 0 0 1 3.2 0 a 1.6 1.6 0 0 1 -3.2 0 z M 85.875 37.075 m -1.6 0 a 1.6 1.6 0 0 1 3.2 0 a 1.6 1.6 0 0 1 -3.2 0 z M 85.875 20.075 m -1.6 0 a 1.6 1.6 0 0 1 3.2 0 a 1.6 1.6 0 0 1 -3.2 0 z M 108.738 56.104 m -1.6 0 a 1.6 1.6 0 0 1 3.2 0 a 1.6 1.6 0 0 1 -3.2 0 z M 109.479 39.12 m -1.6 0 a 1.6 1.6 0 0 1 3.2 0 a 1.6 1.6 0 0 1 -3.2 0 z M 110.221 22.136 m -1.6 0 a 1.6 1.6 0 0 1 3.2 0 a 1.6 1.6 0 0 1 -3.2 0 z M 129.248 64.635 m -1.6 0 a 1.6 1.6 0 0 1 3.2 0 a 1.6 1.6 0 0 1 -3.2 0 z M 130.729 47.7 m -1.6 0 a 1.6 1.6 0 0 1 3.2 0 a 1.6 1.6 0 0 1 -3.2 0 z M 132.211 30.765 m -1.6 0 a 1.6 1.6 0 0 1 3.2 0 a 1.6 1.6 0 0 1 -3.2 0 z M 146.706 60.14 m -1.6 0 a 1.6 1.6 0 0 1 3.2 0 a 1.6 1.6 0 0 1 -3.2 0 z M 148.602 38.473 m -1.6 0 a 1.6 1.6 0 0 1 3.2 0 a 1.6 1.6 0 0 1 -3.2 0 z M 27.525 91.7 m -1.6 0 a 1.6 1.6 0 0 1 3.2 0 a 1.6 1.6 0 0 1 -3.2 0 z M 43.809 84.013 m -1.6 0 a 1.6 1.6 0 0 1 3.2 0 a 1.6 1.6 0 0 1 -3.2 0 z M 61.323 78.62 m -1.6 0 a 1.6 1.6 0 0 1 3.2 0 a 1.6 1.6 0 0 1 -3.2 0 z M 28.347 89.124 L 28.016 87.97 L 25.132 88.797 L 25.463 89.951 L 28.347 89.124 Z M 29.918 94.603 L 29.587 93.449 L 26.703 94.276 L 27.034 95.43 L 29.918 94.603 Z M 106.709 23.484 L 107.907 23.537 L 108.038 20.539 L 106.839 20.487 L 106.709 23.484 Z M 112.403 23.733 L 113.602 23.785 L 113.733 20.788 L 112.534 20.736 L 112.403 23.733 Z M 105.226 57.452 L 106.424 57.504 L 106.555 54.507 L 105.356 54.455 L 105.226 57.452 Z M 105.967 40.468 L 107.166 40.52 L 107.297 37.523 L 106.098 37.471 L 105.967 40.468 Z M 110.92 57.701 L 112.119 57.753 L 112.25 54.756 L 111.051 54.703 L 110.92 57.701 Z M 111.662 40.717 L 112.86 40.769 L 112.991 37.772 L 111.792 37.72 L 111.662 40.717 Z M 44.05 63 L 45.25 63 L 45.25 60 L 44.05 60 L 44.05 63 Z M 44.05 46 L 45.25 46 L 45.25 43 L 44.05 43 L 44.05 46 Z M 44.05 29 L 45.25 29 L 45.25 26 L 44.05 26 L 44.05 29 Z M 61.05 63 L 62.25 63 L 62.25 60 L 61.05 60 L 61.05 63 Z M 61.05 46 L 62.25 46 L 62.25 43 L 61.05 43 L 61.05 46 Z M 61.05 29 L 62.25 29 L 62.25 26 L 61.05 26 L 61.05 29 Z M 49.75 63 L 50.95 63 L 50.95 60 L 49.75 60 L 49.75 63 Z M 49.75 46 L 50.95 46 L 50.95 43 L 49.75 43 L 49.75 46 Z M 49.75 29 L 50.95 29 L 50.95 26 L 49.75 26 L 49.75 29 Z M 66.75 63 L 67.95 63 L 67.95 60 L 66.75 60 L 66.75 63 Z M 66.75 46 L 67.95 46 L 67.95 43 L 66.75 43 L 66.75 46 Z M 66.75 29 L 67.95 29 L 67.95 26 L 66.75 26 L 66.75 29 Z M 82.425 55.575 L 83.625 55.575 L 83.625 52.575 L 82.425 52.575 L 82.425 55.575 Z M 82.425 38.575 L 83.625 38.575 L 83.625 35.575 L 82.425 35.575 L 82.425 38.575 Z M 82.425 21.575 L 83.625 21.575 L 83.625 18.575 L 82.425 18.575 L 82.425 21.575 Z M 88.125 55.575 L 89.325 55.575 L 89.325 52.575 L 88.125 52.575 L 88.125 55.575 Z M 88.125 38.575 L 89.325 38.575 L 89.325 35.575 L 88.125 35.575 L 88.125 38.575 Z M 88.125 21.575 L 89.325 21.575 L 89.325 18.575 L 88.125 18.575 L 88.125 21.575 Z M 62.578 82.166 L 62.662 80.969 L 59.669 80.76 L 59.586 81.957 L 62.578 82.166 Z M 62.976 76.48 L 63.06 75.283 L 60.067 75.074 L 59.983 76.271 L 62.976 76.48 Z M 45.831 87.186 L 45.643 86 L 42.68 86.47 L 42.868 87.655 L 45.831 87.186 Z M 44.939 81.556 L 44.751 80.371 L 41.788 80.84 L 41.976 82.025 L 44.939 81.556 Z M 125.68 65.829 L 126.876 65.934 L 127.137 62.945 L 125.942 62.84 L 125.68 65.829 Z M 127.162 48.894 L 128.357 48.998 L 128.619 46.01 L 127.423 45.905 L 127.162 48.894 Z M 128.643 31.958 L 129.839 32.063 L 130.1 29.074 L 128.905 28.97 L 128.643 31.958 Z M 131.358 66.326 L 132.554 66.43 L 132.815 63.442 L 131.62 63.337 L 131.358 66.326 Z M 132.84 49.391 L 134.036 49.495 L 134.297 46.507 L 133.102 46.402 L 132.84 49.391 Z M 134.322 32.455 L 135.517 32.56 L 135.779 29.571 L 134.583 29.467 L 134.322 32.455 Z M 145.512 56.572 L 145.408 57.768 L 148.396 58.029 L 148.501 56.834 L 145.512 56.572 Z M 147.408 34.905 L 147.303 36.101 L 150.292 36.362 L 150.397 35.167 L 147.408 34.905 Z M 145.016 62.251 L 144.911 63.446 L 147.9 63.708 L 148.004 62.512 L 145.016 62.251 Z M 146.911 40.583 L 146.807 41.779 L 149.795 42.04 L 149.9 40.845 L 146.911 40.583 Z M 109.118 23.153 L 111.128 21.311 A 0.4 0.4 0 1 0 111.122 21.304 L 109.111 23.146 L 109.118 23.153 Z M 107.635 57.121 L 109.645 55.279 A 0.4 0.4 0 1 0 109.638 55.272 L 107.628 57.114 L 107.635 57.121 Z M 108.377 40.137 L 110.387 38.295 A 0.4 0.4 0 1 0 110.38 38.288 L 108.37 40.13 L 108.377 40.137 Z M 84.818 55.139 L 86.746 53.211 A 0.4 0.4 0 1 0 86.739 53.204 L 84.811 55.132 L 84.818 55.139 Z M 84.818 38.139 L 86.746 36.211 A 0.4 0.4 0 1 0 86.739 36.204 L 84.811 38.132 L 84.818 38.139 Z M 1.443 108.564 L 3.371 106.636 A 0.4 0.4 0 1 0 3.364 106.629 L 1.436 108.557 L 1.443 108.564 Z M 76.568 46.639 L 78.496 44.711 A 0.4 0.4 0 1 0 78.489 44.704 L 76.561 46.632 L 76.568 46.639 Z M 96.818 70.489 L 98.746 68.561 A 0.4 0.4 0 1 0 98.739 68.554 L 96.811 70.482 L 96.818 70.489 Z M 151.559 30.714 L 153.487 28.786 A 0.4 0.4 0 1 0 153.48 28.779 L 151.552 30.707 L 151.559 30.714 Z M 148.072 70.489 L 150 68.561 A 0.4 0.4 0 1 0 149.993 68.554 L 148.065 70.482 L 148.072 70.489 Z M 46.443 62.564 L 48.371 60.636 A 0.4 0.4 0 1 0 48.364 60.629 L 46.436 62.557 L 46.443 62.564 Z M 46.443 45.564 L 48.371 43.636 A 0.4 0.4 0 1 0 48.364 43.629 L 46.436 45.557 L 46.443 45.564 Z M 46.443 28.564 L 48.371 26.636 A 0.4 0.4 0 1 0 48.364 26.629 L 46.436 28.557 L 46.443 28.564 Z M 63.443 62.564 L 65.371 60.636 A 0.4 0.4 0 1 0 65.364 60.629 L 63.436 62.557 L 63.443 62.564 Z M 63.443 45.564 L 65.371 43.636 A 0.4 0.4 0 1 0 65.364 43.629 L 63.436 45.557 L 63.443 45.564 Z M 63.443 28.564 L 65.371 26.636 A 0.4 0.4 0 1 0 65.364 26.629 L 63.436 28.557 L 63.443 28.564 Z M 84.818 21.139 L 86.746 19.211 A 0.4 0.4 0 1 0 86.739 19.204 L 84.811 21.132 L 84.818 21.139 Z M 28.243 41.564 L 30.171 39.636 A 0.4 0.4 0 1 0 30.164 39.629 L 28.236 41.557 L 28.243 41.564 Z M 37.243 25.064 L 39.171 23.136 A 0.4 0.4 0 1 0 39.164 23.129 L 37.236 25.057 L 37.243 25.064 Z M 19.243 25.064 L 21.171 23.136 A 0.4 0.4 0 1 0 21.164 23.129 L 19.236 25.057 L 19.243 25.064 Z M 37.243 58.064 L 39.171 56.136 A 0.4 0.4 0 1 0 39.164 56.129 L 37.236 58.057 L 37.243 58.064 Z M 19.243 58.064 L 21.171 56.136 A 0.4 0.4 0 1 0 21.164 56.129 L 19.236 58.057 L 19.243 58.064 Z M 28.243 58.064 L 30.171 56.136 A 0.4 0.4 0 1 0 30.164 56.129 L 28.236 58.057 L 28.243 58.064 Z M 28.243 61.114 L 30.171 59.186 A 0.4 0.4 0 1 0 30.164 59.179 L 28.236 61.107 L 28.243 61.114 Z M 33.357 67.186 L 31.429 69.114 A 0.4 0.4 0 1 0 31.436 69.121 L 33.364 67.193 L 33.357 67.186 Z M 28.607 72.436 L 26.679 74.364 A 0.4 0.4 0 1 0 26.686 74.371 L 28.614 72.443 L 28.607 72.436 Z M 32.943 83.139 L 34.871 81.211 A 0.4 0.4 0 1 0 34.864 81.204 L 32.936 83.132 L 32.943 83.139 Z M 54.943 20.564 L 56.871 18.636 A 0.4 0.4 0 1 0 56.864 18.629 L 54.936 20.557 L 54.943 20.564 Z M 53.443 90.064 L 55.371 88.136 A 0.4 0.4 0 1 0 55.364 88.129 L 53.436 90.057 L 53.443 90.064 Z M 96.818 18.639 L 98.746 16.711 A 0.4 0.4 0 1 0 98.739 16.704 L 96.811 18.632 L 96.818 18.639 Z M 20.743 64.439 L 22.671 62.511 A 0.4 0.4 0 1 0 22.664 62.504 L 20.736 64.432 L 20.743 64.439 Z M 1.443 3.564 L 3.371 1.636 A 0.4 0.4 0 1 0 3.364 1.629 L 1.436 3.557 L 1.443 3.564 Z M 45.026 84.89 L 42.82 83.288 A 0.4 0.4 0 1 0 42.814 83.296 L 45.02 84.899 L 45.026 84.89 Z M 62.31 79.749 L 60.522 77.691 A 0.4 0.4 0 1 0 60.514 77.698 L 62.303 79.755 L 62.31 79.749 Z M 28.839 92.423 L 26.455 91.101 A 0.4 0.4 0 1 0 26.45 91.11 L 28.835 92.432 L 28.839 92.423 Z M 147.634 37.327 L 149.386 39.415 A 0.4 0.4 0 1 0 149.394 39.409 L 147.641 37.32 L 147.634 37.327 Z M 128.102 65.603 L 130.19 63.851 A 0.4 0.4 0 1 0 130.184 63.843 L 128.095 65.596 L 128.102 65.603 Z M 129.584 48.668 L 131.672 46.916 A 0.4 0.4 0 1 0 131.666 46.908 L 129.577 48.661 L 129.584 48.668 Z M 131.065 31.733 L 133.154 29.98 A 0.4 0.4 0 1 0 133.147 29.973 L 131.059 31.725 L 131.065 31.733 Z M 138.774 49.598 L 140.863 47.845 A 0.4 0.4 0 1 0 140.857 47.838 L 138.768 49.59 L 138.774 49.598 Z M 145.738 58.994 L 147.49 61.083 A 0.4 0.4 0 1 0 147.498 61.076 L 145.746 58.988 L 145.738 58.994 Z M 56 19.5 m -1.1 0 a 1.1 1.1 0 0 1 2.2 0 a 1.1 1.1 0 0 1 -2.2 0 z M 54.5 89 m -1.1 0 a 1.1 1.1 0 0 1 2.2 0 a 1.1 1.1 0 0 1 -2.2 0 z M 97.875 17.575 m -1.1 0 a 1.1 1.1 0 0 1 2.2 0 a 1.1 1.1 0 0 1 -2.2 0 z M 97.875 69.425 m -1.1 0 a 1.1 1.1 0 0 1 2.2 0 a 1.1 1.1 0 0 1 -2.2 0 z M 152.616 29.65 m -1.1 0 a 1.1 1.1 0 0 1 2.2 0 a 1.1 1.1 0 0 1 -2.2 0 z M 21.8 63.375 m -1.1 0 a 1.1 1.1 0 0 1 2.2 0 a 1.1 1.1 0 0 1 -2.2 0 z M 149.129 69.425 m -1.1 0 a 1.1 1.1 0 0 1 2.2 0 a 1.1 1.1 0 0 1 -2.2 0 z M 109.747 57.213 L 109.755 57.206 L 107.728 54.995 L 107.721 55.001 L 109.747 57.213 Z M 110.489 40.229 L 110.496 40.223 L 108.47 38.011 L 108.462 38.017 L 110.489 40.229 Z M 111.23 23.246 L 111.238 23.239 L 109.211 21.027 L 109.204 21.034 L 111.23 23.246 Z M 62.458 77.64 L 62.451 77.632 L 60.187 79.6 L 60.194 79.608 L 62.458 77.64 Z M 44.695 82.802 L 44.687 82.796 L 42.924 85.223 L 42.932 85.229 L 44.695 82.802 Z M 48.557 62.564 L 48.564 62.557 L 46.443 60.436 L 46.436 60.443 L 48.557 62.564 Z M 48.557 45.564 L 48.564 45.557 L 46.443 43.436 L 46.436 43.443 L 48.557 45.564 Z M 48.557 28.564 L 48.564 28.557 L 46.443 26.436 L 46.436 26.443 L 48.557 28.564 Z M 65.557 62.564 L 65.564 62.557 L 63.443 60.436 L 63.436 60.443 L 65.557 62.564 Z M 65.557 45.564 L 65.564 45.557 L 63.443 43.436 L 63.436 43.443 L 65.557 45.564 Z M 65.557 28.564 L 65.564 28.557 L 63.443 26.436 L 63.436 26.443 L 65.557 28.564 Z M 86.932 21.139 L 86.939 21.132 L 84.818 19.011 L 84.811 19.018 L 86.932 21.139 Z M 3.557 3.564 L 3.564 3.557 L 1.443 1.436 L 1.436 1.443 L 3.557 3.564 Z M 3.557 108.564 L 3.564 108.557 L 1.443 106.436 L 1.436 106.443 L 3.557 108.564 Z M 30.357 41.564 L 30.364 41.557 L 28.243 39.436 L 28.236 39.443 L 30.357 41.564 Z M 39.357 25.064 L 39.364 25.057 L 37.243 22.936 L 37.236 22.943 L 39.357 25.064 Z M 21.357 25.064 L 21.364 25.057 L 19.243 22.936 L 19.236 22.943 L 21.357 25.064 Z M 39.357 58.064 L 39.364 58.057 L 37.243 55.936 L 37.236 55.943 L 39.357 58.064 Z M 21.357 58.064 L 21.364 58.057 L 19.243 55.936 L 19.236 55.943 L 21.357 58.064 Z M 30.357 25.064 L 30.364 25.057 L 28.243 22.936 L 28.236 22.943 L 30.357 25.064 Z M 30.357 58.064 L 30.364 58.057 L 28.243 55.936 L 28.236 55.943 L 30.357 58.064 Z M 30.357 61.114 L 30.364 61.107 L 28.243 58.986 L 28.236 58.993 L 30.357 61.114 Z M 31.243 67.186 L 31.236 67.193 L 33.357 69.314 L 33.364 69.307 L 31.243 67.186 Z M 30.357 25.214 L 30.364 25.207 L 28.243 23.086 L 28.236 23.093 L 30.357 25.214 Z M 26.493 72.436 L 26.486 72.443 L 28.607 74.564 L 28.614 74.557 L 26.493 72.436 Z M 35.057 83.139 L 35.064 83.132 L 32.943 81.011 L 32.936 81.018 L 35.057 83.139 Z M 57.057 20.564 L 57.064 20.557 L 54.943 18.436 L 54.936 18.443 L 57.057 20.564 Z M 55.557 90.064 L 55.564 90.057 L 53.443 87.936 L 53.436 87.943 L 55.557 90.064 Z M 98.932 18.639 L 98.939 18.632 L 96.818 16.511 L 96.811 16.518 L 98.932 18.639 Z M 22.857 64.439 L 22.864 64.432 L 20.743 62.311 L 20.736 62.318 L 22.857 64.439 Z M 86.932 55.139 L 86.939 55.132 L 84.818 53.011 L 84.811 53.018 L 86.932 55.139 Z M 86.932 38.139 L 86.939 38.132 L 84.818 36.011 L 84.811 36.018 L 86.932 38.139 Z M 78.682 46.639 L 78.689 46.632 L 76.568 44.511 L 76.561 44.518 L 78.682 46.639 Z M 98.932 70.489 L 98.939 70.482 L 96.818 68.361 L 96.811 68.368 L 98.932 70.489 Z M 153.673 30.714 L 153.68 30.707 L 151.559 28.586 L 151.552 28.593 L 153.673 30.714 Z M 150.186 70.489 L 150.193 70.482 L 148.072 68.361 L 148.065 68.368 L 150.186 70.489 Z M 28.257 90.39 L 28.248 90.386 L 26.793 93.01 L 26.802 93.014 L 28.257 90.39 Z M 130.208 65.788 L 130.216 65.781 L 128.287 63.483 L 128.28 63.49 L 130.208 65.788 Z M 131.69 48.852 L 131.697 48.846 L 129.769 46.548 L 129.761 46.554 L 131.69 48.852 Z M 133.171 31.917 L 133.179 31.911 L 131.251 29.613 L 131.243 29.619 L 133.171 31.917 Z M 140.881 49.782 L 140.888 49.776 L 138.96 47.477 L 138.952 47.484 L 140.881 49.782 Z M 145.554 61.1 L 145.56 61.108 L 147.858 59.18 L 147.852 59.172 L 145.554 61.1 Z M 147.449 39.433 L 147.456 39.441 L 149.754 37.512 L 149.747 37.505 L 147.449 39.433 Z M 56 70 56 19 M 39 53 73 53 M 39 36 73 36 M 75 45.575 96.75 45.575 M 75 28.575 96.75 28.575 M 139.186 48.566 156.121 50.047" vector-effect="non-scaling-stroke"/></g></svg>