<?xml version="1.0"?>
<svg
  xmlns="http://www.w3.org/2000/svg"
  xmlns:xlink="http://www.w3.org/1999/xlink" version="1.1"
  preserveAspectRatio="xMinYMin meet"
  viewBox="52.5 33.5 159.24710191778803 124"
  width="100%" height="100%"
>
  <g stroke="#000000" stroke-width="0.1%" fill="none" transform="matrix(1,0,0,-1,0,0)">
    <g stroke="rgb(0, 0, 0)"><path d="M52.5,-38.5L57.5,-38.5" /></g>
<g stroke="rgb(0, 0, 0)"><path d="M57.5,-38.5L57.5,-33.5" /></g>
<g stroke="rgb(0, 0, 0)"><path d="M57.5,-33.5L52.5,-33.5" /></g>
<g stroke="rgb(0, 0, 0)"><path d="M52.5,-33.5L52.5,-38.5" /></g>
<g stroke="rgb(0, 0, 0)"><path d="M52.5,-157.5L57.5,-157.5" /></g>
<g stroke="rgb(0, 0, 0)"><path d="M57.5,-157.5L57.5,-152.5" /></g>
<g stroke="rgb(0, 0, 0)"><path d="M57.5,-152.5L52.5,-152.5" /></g>
<g stroke="rgb(0, 0, 0)"><path d="M52.5,-152.5L52.5,-157.5" /></g>
<g stroke="rgb(0, 0, 0)"><path d="M98.9428754,-101.0641957L100.8707149,-99.1363561" /></g>
<g stroke="rgb(0, 0, 0)"><path d="M100.8636439,-99.1292851L98.9358043,-101.0571246" /></g>
<g stroke="rgb(0, 0, 0)"><path d="M98.9358043,-101.0571246L98.9428754,-101.0641957" /></g>
<g stroke="rgb(0, 0, 0)"><path d="M98.9428754,-84.0641957L100.8707149,-82.1363561" /></g>
<g stroke="rgb(0, 0, 0)"><path d="M100.8636439,-82.1292851L98.9358043,-84.0571246" /></g>
<g stroke="rgb(0, 0, 0)"><path d="M98.9358043,-84.0571246L98.9428754,-84.0641957" /></g>
<g stroke="rgb(0, 0, 0)"><path d="M98.9428754,-67.0641957L100.8707149,-65.1363561" /></g>
<g stroke="rgb(0, 0, 0)"><path d="M100.8636439,-65.1292851L98.9358043,-67.0571246" /></g>
<g stroke="rgb(0, 0, 0)"><path d="M98.9358043,-67.0571246L98.9428754,-67.0641957" /></g>
<g stroke="rgb(0, 0, 0)"><path d="M115.9428754,-101.0641957L117.8707149,-99.1363561" /></g>
<g stroke="rgb(0, 0, 0)"><path d="M117.8636439,-99.1292851L115.9358043,-101.0571246" /></g>
<g stroke="rgb(0, 0, 0)"><path d="M115.9358043,-101.0571246L115.9428754,-101.0641957" /></g>
<g stroke="rgb(0, 0, 0)"><path d="M115.9428754,-84.0641957L117.8707149,-82.1363561" /></g>
<g stroke="rgb(0, 0, 0)"><path d="M117.8636439,-82.1292851L115.9358043,-84.0571246" /></g>
<g stroke="rgb(0, 0, 0)"><path d="M115.9358043,-84.0571246L115.9428754,-84.0641957" /></g>
<g stroke="rgb(0, 0, 0)"><path d="M115.9428754,-67.0641957L117.8707149,-65.1363561" /></g>
<g stroke="rgb(0, 0, 0)"><path d="M117.8636439,-65.1292851L115.9358043,-67.0571246" /></g>
<g stroke="rgb(0, 0, 0)"><path d="M115.9358043,-67.0571246L115.9428754,-67.0641957" /></g>
<g stroke="rgb(0, 0, 0)"><path d="M136.9428754,-93.4141957L138.8707149,-91.4863561" /></g>
<g stroke="rgb(0, 0, 0)"><path d="M138.8636439,-91.4792851L136.9358043,-93.4071246" /></g>
<g stroke="rgb(0, 0, 0)"><path d="M136.9358043,-93.4071246L136.9428754,-93.4141957" /></g>
<g stroke="rgb(0, 0, 0)"><path d="M136.9428754,-76.4141957L138.8707149,-74.4863561" /></g>
<g stroke="rgb(0, 0, 0)"><path d="M138.8636439,-74.4792851L136.9358043,-76.4071246" /></g>
<g stroke="rgb(0, 0, 0)"><path d="M136.9358043,-76.4071246L136.9428754,-76.4141957" /></g>
<g stroke="rgb(0, 0, 0)"><path d="M136.9428754,-59.4141957L138.8707149,-57.4863561" /></g>
<g stroke="rgb(0, 0, 0)"><path d="M138.8636439,-57.4792851L136.9358043,-59.4071246" /></g>
<g stroke="rgb(0, 0, 0)"><path d="M136.9358043,-59.4071246L136.9428754,-59.4141957" /></g>
<g stroke="rgb(0, 0, 0)"><path d="M160.2601366,-95.4459266L162.2702325,-93.604013" /></g>
<g stroke="rgb(0, 0, 0)"><path d="M162.2634766,-93.5966403L160.2533807,-95.4385538" /></g>
<g stroke="rgb(0, 0, 0)"><path d="M160.2533807,-95.4385538L160.2601366,-95.4459266" /></g>
<g stroke="rgb(0, 0, 0)"><path d="M161.0016662,-78.4621068L163.0117621,-76.6201932" /></g>
<g stroke="rgb(0, 0, 0)"><path d="M163.0050062,-76.6128205L160.9949103,-78.454734" /></g>
<g stroke="rgb(0, 0, 0)"><path d="M160.9949103,-78.454734L161.0016662,-78.4621068" /></g>
<g stroke="rgb(0, 0, 0)"><path d="M161.7431958,-61.478287L163.7532917,-59.6363734" /></g>
<g stroke="rgb(0, 0, 0)"><path d="M163.7465358,-59.6290007L161.7364399,-61.4709142" /></g>
<g stroke="rgb(0, 0, 0)"><path d="M161.7364399,-61.4709142L161.7431958,-61.478287" /></g>
<g stroke="rgb(0, 0, 0)"><path d="M181.6343216,-106.0700982L183.7228474,-104.317617" /></g>
<g stroke="rgb(0, 0, 0)"><path d="M183.7164195,-104.3099565L181.6278937,-106.0624378" /></g>
<g stroke="rgb(0, 0, 0)"><path d="M181.6278937,-106.0624378L181.6343216,-106.0700982" /></g>
<g stroke="rgb(0, 0, 0)"><path d="M183.1159692,-89.1347883L185.204495,-87.3823071" /></g>
<g stroke="rgb(0, 0, 0)"><path d="M185.1980671,-87.3746466L183.1095413,-89.1271279" /></g>
<g stroke="rgb(0, 0, 0)"><path d="M183.1095413,-89.1271279L183.1159692,-89.1347883" /></g>
<g stroke="rgb(0, 0, 0)"><path d="M184.5976168,-72.1994784L186.6861426,-70.4469972" /></g>
<g stroke="rgb(0, 0, 0)"><path d="M186.6797147,-70.4393367L184.5911889,-72.191818" /></g>
<g stroke="rgb(0, 0, 0)"><path d="M184.5911889,-72.191818L184.5976168,-72.1994784" /></g>
<g stroke="rgb(0, 0, 0)"><path d="M201.4243195,-99.261932L199.6718383,-97.1734062" /></g>
<g stroke="rgb(0, 0, 0)"><path d="M199.6641778,-97.1798341L201.4166591,-99.2683599" /></g>
<g stroke="rgb(0, 0, 0)"><path d="M201.4166591,-99.2683599L201.4243195,-99.261932" /></g>
<g stroke="rgb(0, 0, 0)"><path d="M203.276379,-78.0927947L201.5238978,-76.0042689" /></g>
<g stroke="rgb(0, 0, 0)"><path d="M201.5162373,-76.0106968L203.2687186,-78.0992226" /></g>
<g stroke="rgb(0, 0, 0)"><path d="M203.2687186,-78.0992226L203.276379,-78.0927947" /></g>
<g stroke="rgb(0, 0, 0)"><path d="M79.160729,-131.4127652L76.874197,-129.9278739" /></g>
<g stroke="rgb(0, 0, 0)"><path d="M76.8687506,-129.9362606L79.1552827,-131.4211519" /></g>
<g stroke="rgb(0, 0, 0)"><path d="M79.1552827,-131.4211519L79.160729,-131.4127652" /></g>
<g stroke="rgb(0, 0, 0)"><path d="M95.7492803,-125.3448774L93.5435951,-123.7423532" /></g>
<g stroke="rgb(0, 0, 0)"><path d="M93.5377173,-123.7504434L95.7434025,-125.3529676" /></g>
<g stroke="rgb(0, 0, 0)"><path d="M95.7434025,-125.3529676L95.7492803,-125.3448774" /></g>
<g stroke="rgb(0, 0, 0)"><path d="M113.8484939,-120.6617417L112.0241918,-118.6356489" /></g>
<g stroke="rgb(0, 0, 0)"><path d="M112.0167603,-118.6423402L113.8410625,-120.668433" /></g>
<g stroke="rgb(0, 0, 0)"><path d="M113.8410625,-120.668433L113.8484939,-120.6617417" /></g>
<g stroke="rgb(0, 0, 0)"><path d="M53.9428754,-37.0641957L55.8707149,-35.1363561" /></g>
<g stroke="rgb(0, 0, 0)"><path d="M55.8636439,-35.1292851L53.9358043,-37.0571246" /></g>
<g stroke="rgb(0, 0, 0)"><path d="M53.9358043,-37.0571246L53.9428754,-37.0641957" /></g>
<g stroke="rgb(0, 0, 0)"><path d="M53.9428754,-156.0641957L55.8707149,-154.1363561" /></g>
<g stroke="rgb(0, 0, 0)"><path d="M55.8636439,-154.1292851L53.9358043,-156.0571246" /></g>
<g stroke="rgb(0, 0, 0)"><path d="M53.9358043,-156.0571246L53.9428754,-156.0641957" /></g>
<g stroke="rgb(0, 0, 0)"><path d="M80.1928754,-81.6641957L82.1207149,-79.7363561" /></g>
<g stroke="rgb(0, 0, 0)"><path d="M82.1136439,-79.7292851L80.1858043,-81.6571246" /></g>
<g stroke="rgb(0, 0, 0)"><path d="M80.1858043,-81.6571246L80.1928754,-81.6641957" /></g>
<g stroke="rgb(0, 0, 0)"><path d="M89.1928754,-65.1641957L91.1207149,-63.2363561" /></g>
<g stroke="rgb(0, 0, 0)"><path d="M91.1136439,-63.2292851L89.1858043,-65.1571246" /></g>
<g stroke="rgb(0, 0, 0)"><path d="M89.1858043,-65.1571246L89.1928754,-65.1641957" /></g>
<g stroke="rgb(0, 0, 0)"><path d="M71.1928754,-65.1641957L73.1207149,-63.2363561" /></g>
<g stroke="rgb(0, 0, 0)"><path d="M73.1136439,-63.2292851L71.1858043,-65.1571246" /></g>
<g stroke="rgb(0, 0, 0)"><path d="M71.1858043,-65.1571246L71.1928754,-65.1641957" /></g>
<g stroke="rgb(0, 0, 0)"><path d="M89.1928754,-98.1641957L91.1207149,-96.2363561" /></g>
<g stroke="rgb(0, 0, 0)"><path d="M91.1136439,-96.2292851L89.1858043,-98.1571246" /></g>
<g stroke="rgb(0, 0, 0)"><path d="M89.1858043,-98.1571246L89.1928754,-98.1641957" /></g>
<g stroke="rgb(0, 0, 0)"><path d="M71.1928754,-98.1641957L73.1207149,-96.2363561" /></g>
<g stroke="rgb(0, 0, 0)"><path d="M73.1136439,-96.2292851L71.1858043,-98.1571246" /></g>
<g stroke="rgb(0, 0, 0)"><path d="M71.1858043,-98.1571246L71.1928754,-98.1641957" /></g>
<g stroke="rgb(0, 0, 0)"><path d="M80.1928754,-65.1641957L82.1207149,-63.2363561" /></g>
<g stroke="rgb(0, 0, 0)"><path d="M82.1136439,-63.2292851L80.1858043,-65.1571246" /></g>
<g stroke="rgb(0, 0, 0)"><path d="M80.1858043,-65.1571246L80.1928754,-65.1641957" /></g>
<g stroke="rgb(0, 0, 0)"><path d="M80.1928754,-98.1641957L82.1207149,-96.2363561" /></g>
<g stroke="rgb(0, 0, 0)"><path d="M82.1136439,-96.2292851L80.1858043,-98.1571246" /></g>
<g stroke="rgb(0, 0, 0)"><path d="M80.1858043,-98.1571246L80.1928754,-98.1641957" /></g>
<g stroke="rgb(0, 0, 0)"><path d="M80.1928754,-100.4641957L82.1207149,-98.5363561" /></g>
<g stroke="rgb(0, 0, 0)"><path d="M82.1136439,-98.5292851L80.1858043,-100.4571246" /></g>
<g stroke="rgb(0, 0, 0)"><path d="M80.1858043,-100.4571246L80.1928754,-100.4641957" /></g>
<g stroke="rgb(0, 0, 0)"><path d="M76.3828754,-106.8641957L78.3107149,-104.9363561" /></g>
<g stroke="rgb(0, 0, 0)"><path d="M78.3036439,-104.9292851L76.3758043,-106.8571246" /></g>
<g stroke="rgb(0, 0, 0)"><path d="M76.3758043,-106.8571246L76.3828754,-106.8641957" /></g>
<g stroke="rgb(0, 0, 0)"><path d="M76.6928754,-64.1641957L78.6207149,-62.2363561" /></g>
<g stroke="rgb(0, 0, 0)"><path d="M78.6136439,-62.2292851L76.6858043,-64.1571246" /></g>
<g stroke="rgb(0, 0, 0)"><path d="M76.6858043,-64.1571246L76.6928754,-64.1641957" /></g>
<g stroke="rgb(0, 0, 0)"><path d="M86.1928754,-64.1191957L88.1207149,-62.1913561" /></g>
<g stroke="rgb(0, 0, 0)"><path d="M88.1136439,-62.1842851L86.1858043,-64.1121246" /></g>
<g stroke="rgb(0, 0, 0)"><path d="M86.1858043,-64.1121246L86.1928754,-64.1191957" /></g>
<g stroke="rgb(0, 0, 0)"><path d="M87.1928754,-105.1641957L89.1207149,-103.2363561" /></g>
<g stroke="rgb(0, 0, 0)"><path d="M89.1136439,-103.2292851L87.1858043,-105.1571246" /></g>
<g stroke="rgb(0, 0, 0)"><path d="M87.1858043,-105.1571246L87.1928754,-105.1641957" /></g>
<g stroke="rgb(0, 0, 0)"><path d="M73.1928754,-105.1641957L75.1207149,-103.2363561" /></g>
<g stroke="rgb(0, 0, 0)"><path d="M75.1136439,-103.2292851L73.1858043,-105.1571246" /></g>
<g stroke="rgb(0, 0, 0)"><path d="M73.1858043,-105.1571246L73.1928754,-105.1641957" /></g>
<g stroke="rgb(0, 0, 0)"><path d="M73.1928754,-119.1641957L75.1207149,-117.2363561" /></g>
<g stroke="rgb(0, 0, 0)"><path d="M75.1136439,-117.2292851L73.1858043,-119.1571246" /></g>
<g stroke="rgb(0, 0, 0)"><path d="M73.1858043,-119.1571246L73.1928754,-119.1641957" /></g>
<g stroke="rgb(0, 0, 0)"><path d="M148.8928754,-86.4141957L150.8207149,-84.4863561" /></g>
<g stroke="rgb(0, 0, 0)"><path d="M150.8136439,-84.4792851L148.8858043,-86.4071246" /></g>
<g stroke="rgb(0, 0, 0)"><path d="M148.8858043,-86.4071246L148.8928754,-86.4141957" /></g>
<g stroke="rgb(0, 0, 0)"><path d="M171.3928754,-63.9141957L173.3207149,-61.9863561" /></g>
<g stroke="rgb(0, 0, 0)"><path d="M173.3136439,-61.9792851L171.3858043,-63.9071246" /></g>
<g stroke="rgb(0, 0, 0)"><path d="M171.3858043,-63.9071246L171.3928754,-63.9141957" /></g>
<g stroke="rgb(0, 0, 0)"><path d="M171.3928754,-108.9141957L173.3207149,-106.9863561" /></g>
<g stroke="rgb(0, 0, 0)"><path d="M173.3136439,-106.9792851L171.3858043,-108.9071246" /></g>
<g stroke="rgb(0, 0, 0)"><path d="M171.3858043,-108.9071246L171.3928754,-108.9141957" /></g>
<g stroke="rgb(0, 0, 0)"><path d="M126.3928754,-63.9141957L128.3207149,-61.9863561" /></g>
<g stroke="rgb(0, 0, 0)"><path d="M128.3136439,-61.9792851L126.3858043,-63.9071246" /></g>
<g stroke="rgb(0, 0, 0)"><path d="M126.3858043,-63.9071246L126.3928754,-63.9141957" /></g>
<g stroke="rgb(0, 0, 0)"><path d="M126.3928754,-108.9141957L128.3207149,-106.9863561" /></g>
<g stroke="rgb(0, 0, 0)"><path d="M128.3136439,-106.9792851L126.3858043,-108.9071246" /></g>
<g stroke="rgb(0, 0, 0)"><path d="M126.3858043,-108.9071246L126.3928754,-108.9141957" /></g>
<g stroke="rgb(0, 0, 0)"><path d="M86.9754165,-128.7594512L84.7697313,-127.156927" /></g>
<g stroke="rgb(0, 0, 0)"><path d="M84.7638535,-127.1650172L86.9695387,-128.7675414" /></g>
<g stroke="rgb(0, 0, 0)"><path d="M86.9695387,-128.7675414L86.9754165,-128.7594512" /></g>
<g stroke="rgb(0, 0, 0)"><path d="M107.4428754,-75.5641957L109.3707149,-73.6363561" /></g>
<g stroke="rgb(0, 0, 0)"><path d="M109.3636439,-73.6292851L107.4358043,-75.5571246" /></g>
<g stroke="rgb(0, 0, 0)"><path d="M107.4358043,-75.5571246L107.4428754,-75.5641957" /></g>
<g stroke="rgb(0, 0, 0)"><path d="M107.4428754,-92.5641957L109.3707149,-90.6363561" /></g>
<g stroke="rgb(0, 0, 0)"><path d="M109.3636439,-90.6292851L107.4358043,-92.5571246" /></g>
<g stroke="rgb(0, 0, 0)"><path d="M107.4358043,-92.5571246L107.4428754,-92.5641957" /></g>
<g stroke="rgb(0, 0, 0)"><path d="M191.7765408,-81.3600215L193.8650666,-79.6075404" /></g>
<g stroke="rgb(0, 0, 0)"><path d="M193.8586387,-79.5998799L191.7701129,-81.3523611" /></g>
<g stroke="rgb(0, 0, 0)"><path d="M191.7701129,-81.3523611L191.7765408,-81.3600215" /></g>
<g stroke="rgb(0, 0, 0)"><path d="M190.2948932,-98.2953314L192.383419,-96.5428502" /></g>
<g stroke="rgb(0, 0, 0)"><path d="M192.3769911,-96.5351897L190.2884653,-98.287671" /></g>
<g stroke="rgb(0, 0, 0)"><path d="M190.2884653,-98.287671L190.2948932,-98.2953314" /></g>
<g stroke="rgb(0, 0, 0)"><path d="M175.9370452,-79.9742451L178.025571,-78.221764" /></g>
<g stroke="rgb(0, 0, 0)"><path d="M178.0191431,-78.2141035L175.9306173,-79.9665847" /></g>
<g stroke="rgb(0, 0, 0)"><path d="M175.9306173,-79.9665847L175.9370452,-79.9742451" /></g>
<g stroke="rgb(0, 0, 0)"><path d="M174.4553976,-96.909555L176.5439234,-95.1570738" /></g>
<g stroke="rgb(0, 0, 0)"><path d="M176.5374955,-95.1494133L174.4489697,-96.9018946" /></g>
<g stroke="rgb(0, 0, 0)"><path d="M174.4489697,-96.9018946L174.4553976,-96.909555" /></g>
<g stroke="rgb(0, 0, 0)"><path d="M101.0571246,-101.0641957L101.0641957,-101.0571246" /></g>
<g stroke="rgb(0, 0, 0)"><path d="M101.0641957,-101.0571246L98.9428754,-98.9358043" /></g>
<g stroke="rgb(0, 0, 0)"><path d="M98.9428754,-98.9358043L98.9358043,-98.9428754" /></g>
<g stroke="rgb(0, 0, 0)"><path d="M98.9358043,-98.9428754L101.0571246,-101.0641957" /></g>
<g stroke="rgb(0, 0, 0)"><path d="M101.0571246,-84.0641957L101.0641957,-84.0571246" /></g>
<g stroke="rgb(0, 0, 0)"><path d="M101.0641957,-84.0571246L98.9428754,-81.9358043" /></g>
<g stroke="rgb(0, 0, 0)"><path d="M98.9428754,-81.9358043L98.9358043,-81.9428754" /></g>
<g stroke="rgb(0, 0, 0)"><path d="M98.9358043,-81.9428754L101.0571246,-84.0641957" /></g>
<g stroke="rgb(0, 0, 0)"><path d="M101.0571246,-67.0641957L101.0641957,-67.0571246" /></g>
<g stroke="rgb(0, 0, 0)"><path d="M101.0641957,-67.0571246L98.9428754,-64.9358043" /></g>
<g stroke="rgb(0, 0, 0)"><path d="M98.9428754,-64.9358043L98.9358043,-64.9428754" /></g>
<g stroke="rgb(0, 0, 0)"><path d="M98.9358043,-64.9428754L101.0571246,-67.0641957" /></g>
<g stroke="rgb(0, 0, 0)"><path d="M118.0571246,-101.0641957L118.0641957,-101.0571246" /></g>
<g stroke="rgb(0, 0, 0)"><path d="M118.0641957,-101.0571246L115.9428754,-98.9358043" /></g>
<g stroke="rgb(0, 0, 0)"><path d="M115.9428754,-98.9358043L115.9358043,-98.9428754" /></g>
<g stroke="rgb(0, 0, 0)"><path d="M115.9358043,-98.9428754L118.0571246,-101.0641957" /></g>
<g stroke="rgb(0, 0, 0)"><path d="M118.0571246,-84.0641957L118.0641957,-84.0571246" /></g>
<g stroke="rgb(0, 0, 0)"><path d="M118.0641957,-84.0571246L115.9428754,-81.9358043" /></g>
<g stroke="rgb(0, 0, 0)"><path d="M115.9428754,-81.9358043L115.9358043,-81.9428754" /></g>
<g stroke="rgb(0, 0, 0)"><path d="M115.9358043,-81.9428754L118.0571246,-84.0641957" /></g>
<g stroke="rgb(0, 0, 0)"><path d="M118.0571246,-67.0641957L118.0641957,-67.0571246" /></g>
<g stroke="rgb(0, 0, 0)"><path d="M118.0641957,-67.0571246L115.9428754,-64.9358043" /></g>
<g stroke="rgb(0, 0, 0)"><path d="M115.9428754,-64.9358043L115.9358043,-64.9428754" /></g>
<g stroke="rgb(0, 0, 0)"><path d="M115.9358043,-64.9428754L118.0571246,-67.0641957" /></g>
<g stroke="rgb(0, 0, 0)"><path d="M139.0571246,-93.4141957L139.0641957,-93.4071246" /></g>
<g stroke="rgb(0, 0, 0)"><path d="M139.0641957,-93.4071246L136.9428754,-91.2858043" /></g>
<g stroke="rgb(0, 0, 0)"><path d="M136.9428754,-91.2858043L136.9358043,-91.2928754" /></g>
<g stroke="rgb(0, 0, 0)"><path d="M136.9358043,-91.2928754L139.0571246,-93.4141957" /></g>
<g stroke="rgb(0, 0, 0)"><path d="M139.0571246,-76.4141957L139.0641957,-76.4071246" /></g>
<g stroke="rgb(0, 0, 0)"><path d="M139.0641957,-76.4071246L136.9428754,-74.2858043" /></g>
<g stroke="rgb(0, 0, 0)"><path d="M136.9428754,-74.2858043L136.9358043,-74.2928754" /></g>
<g stroke="rgb(0, 0, 0)"><path d="M136.9358043,-74.2928754L139.0571246,-76.4141957" /></g>
<g stroke="rgb(0, 0, 0)"><path d="M139.0571246,-59.4141957L139.0641957,-59.4071246" /></g>
<g stroke="rgb(0, 0, 0)"><path d="M139.0641957,-59.4071246L136.9428754,-57.2858043" /></g>
<g stroke="rgb(0, 0, 0)"><path d="M136.9428754,-57.2858043L136.9358043,-57.2928754" /></g>
<g stroke="rgb(0, 0, 0)"><path d="M136.9358043,-57.2928754L139.0571246,-59.4141957" /></g>
<g stroke="rgb(0, 0, 0)"><path d="M162.3723736,-95.5381489L162.3797464,-95.531393" /></g>
<g stroke="rgb(0, 0, 0)"><path d="M162.3797464,-95.531393L160.3529758,-93.3195609" /></g>
<g stroke="rgb(0, 0, 0)"><path d="M160.3529758,-93.3195609L160.345603,-93.3263168" /></g>
<g stroke="rgb(0, 0, 0)"><path d="M160.345603,-93.3263168L162.3723736,-95.5381489" /></g>
<g stroke="rgb(0, 0, 0)"><path d="M163.1139032,-78.5543291L163.121276,-78.5475732" /></g>
<g stroke="rgb(0, 0, 0)"><path d="M163.121276,-78.5475732L161.0945054,-76.3357411" /></g>
<g stroke="rgb(0, 0, 0)"><path d="M161.0945054,-76.3357411L161.0871326,-76.342497" /></g>
<g stroke="rgb(0, 0, 0)"><path d="M161.0871326,-76.342497L163.1139032,-78.5543291" /></g>
<g stroke="rgb(0, 0, 0)"><path d="M163.8554328,-61.5705093L163.8628056,-61.5637534" /></g>
<g stroke="rgb(0, 0, 0)"><path d="M163.8628056,-61.5637534L161.836035,-59.3519213" /></g>
<g stroke="rgb(0, 0, 0)"><path d="M161.836035,-59.3519213L161.8286622,-59.3586772" /></g>
<g stroke="rgb(0, 0, 0)"><path d="M161.8286622,-59.3586772L163.8554328,-61.5705093" /></g>
<g stroke="rgb(0, 0, 0)"><path d="M183.7405255,-106.2543672L183.7481859,-106.2479393" /></g>
<g stroke="rgb(0, 0, 0)"><path d="M183.7481859,-106.2479393L181.8198231,-103.949806" /></g>
<g stroke="rgb(0, 0, 0)"><path d="M181.8198231,-103.949806L181.8121627,-103.9562339" /></g>
<g stroke="rgb(0, 0, 0)"><path d="M181.8121627,-103.9562339L183.7405255,-106.2543672" /></g>
<g stroke="rgb(0, 0, 0)"><path d="M185.2221731,-89.3190573L185.2298335,-89.3126294" /></g>
<g stroke="rgb(0, 0, 0)"><path d="M185.2298335,-89.3126294L183.3014707,-87.0144961" /></g>
<g stroke="rgb(0, 0, 0)"><path d="M183.3014707,-87.0144961L183.2938103,-87.020924" /></g>
<g stroke="rgb(0, 0, 0)"><path d="M183.2938103,-87.020924L185.2221731,-89.3190573" /></g>
<g stroke="rgb(0, 0, 0)"><path d="M186.7038207,-72.3837474L186.7114811,-72.3773195" /></g>
<g stroke="rgb(0, 0, 0)"><path d="M186.7114811,-72.3773195L184.7831183,-70.0791862" /></g>
<g stroke="rgb(0, 0, 0)"><path d="M184.7831183,-70.0791862L184.7754579,-70.0856141" /></g>
<g stroke="rgb(0, 0, 0)"><path d="M184.7754579,-70.0856141L186.7038207,-72.3837474" /></g>
<g stroke="rgb(0, 0, 0)"><path d="M201.6085885,-97.1557281L201.6021606,-97.1480677" /></g>
<g stroke="rgb(0, 0, 0)"><path d="M201.6021606,-97.1480677L199.3040273,-99.0764305" /></g>
<g stroke="rgb(0, 0, 0)"><path d="M199.3040273,-99.0764305L199.3104552,-99.0840909" /></g>
<g stroke="rgb(0, 0, 0)"><path d="M199.3104552,-99.0840909L201.6085885,-97.1557281" /></g>
<g stroke="rgb(0, 0, 0)"><path d="M203.460648,-75.9865908L203.4542201,-75.9789304" /></g>
<g stroke="rgb(0, 0, 0)"><path d="M203.4542201,-75.9789304L201.1560868,-77.9072932" /></g>
<g stroke="rgb(0, 0, 0)"><path d="M201.1560868,-77.9072932L201.1625147,-77.9149536" /></g>
<g stroke="rgb(0, 0, 0)"><path d="M201.1625147,-77.9149536L203.460648,-75.9865908" /></g>
<g stroke="rgb(0, 0, 0)"><path d="M78.7211519,-129.3447173L78.7127652,-129.339271" /></g>
<g stroke="rgb(0, 0, 0)"><path d="M78.7127652,-129.339271L77.0788481,-131.8552827" /></g>
<g stroke="rgb(0, 0, 0)"><path d="M77.0788481,-131.8552827L77.0872348,-131.860729" /></g>
<g stroke="rgb(0, 0, 0)"><path d="M77.0872348,-131.860729L78.7211519,-129.3447173" /></g>
<g stroke="rgb(0, 0, 0)"><path d="M95.4185389,-123.256658L95.4104487,-123.2507802" /></g>
<g stroke="rgb(0, 0, 0)"><path d="M95.4104487,-123.2507802L93.6470929,-125.6778312" /></g>
<g stroke="rgb(0, 0, 0)"><path d="M93.6470929,-125.6778312L93.6551831,-125.683709" /></g>
<g stroke="rgb(0, 0, 0)"><path d="M93.6551831,-125.683709L95.4185389,-123.256658" /></g>
<g stroke="rgb(0, 0, 0)"><path d="M113.9591452,-118.5503899L113.9524539,-118.5429585" /></g>
<g stroke="rgb(0, 0, 0)"><path d="M113.9524539,-118.5429585L111.7230194,-120.5503503" /></g>
<g stroke="rgb(0, 0, 0)"><path d="M111.7230194,-120.5503503L111.7297107,-120.5577817" /></g>
<g stroke="rgb(0, 0, 0)"><path d="M111.7297107,-120.5577817L113.9591452,-118.5503899" /></g>
<g stroke="rgb(0, 0, 0)"><path d="M56.0571246,-37.0641957L56.0641957,-37.0571246" /></g>
<g stroke="rgb(0, 0, 0)"><path d="M56.0641957,-37.0571246L53.9428754,-34.9358043" /></g>
<g stroke="rgb(0, 0, 0)"><path d="M53.9428754,-34.9358043L53.9358043,-34.9428754" /></g>
<g stroke="rgb(0, 0, 0)"><path d="M53.9358043,-34.9428754L56.0571246,-37.0641957" /></g>
<g stroke="rgb(0, 0, 0)"><path d="M56.0571246,-156.0641957L56.0641957,-156.0571246" /></g>
<g stroke="rgb(0, 0, 0)"><path d="M56.0641957,-156.0571246L53.9428754,-153.9358043" /></g>
<g stroke="rgb(0, 0, 0)"><path d="M53.9428754,-153.9358043L53.9358043,-153.9428754" /></g>
<g stroke="rgb(0, 0, 0)"><path d="M53.9358043,-153.9428754L56.0571246,-156.0641957" /></g>
<g stroke="rgb(0, 0, 0)"><path d="M82.3071246,-81.6641957L82.3141957,-81.6571246" /></g>
<g stroke="rgb(0, 0, 0)"><path d="M82.3141957,-81.6571246L80.1928754,-79.5358043" /></g>
<g stroke="rgb(0, 0, 0)"><path d="M80.1928754,-79.5358043L80.1858043,-79.5428754" /></g>
<g stroke="rgb(0, 0, 0)"><path d="M80.1858043,-79.5428754L82.3071246,-81.6641957" /></g>
<g stroke="rgb(0, 0, 0)"><path d="M91.3071246,-65.1641957L91.3141957,-65.1571246" /></g>
<g stroke="rgb(0, 0, 0)"><path d="M91.3141957,-65.1571246L89.1928754,-63.0358043" /></g>
<g stroke="rgb(0, 0, 0)"><path d="M89.1928754,-63.0358043L89.1858043,-63.0428754" /></g>
<g stroke="rgb(0, 0, 0)"><path d="M89.1858043,-63.0428754L91.3071246,-65.1641957" /></g>
<g stroke="rgb(0, 0, 0)"><path d="M73.3071246,-65.1641957L73.3141957,-65.1571246" /></g>
<g stroke="rgb(0, 0, 0)"><path d="M73.3141957,-65.1571246L71.1928754,-63.0358043" /></g>
<g stroke="rgb(0, 0, 0)"><path d="M71.1928754,-63.0358043L71.1858043,-63.0428754" /></g>
<g stroke="rgb(0, 0, 0)"><path d="M71.1858043,-63.0428754L73.3071246,-65.1641957" /></g>
<g stroke="rgb(0, 0, 0)"><path d="M91.3071246,-98.1641957L91.3141957,-98.1571246" /></g>
<g stroke="rgb(0, 0, 0)"><path d="M91.3141957,-98.1571246L89.1928754,-96.0358043" /></g>
<g stroke="rgb(0, 0, 0)"><path d="M89.1928754,-96.0358043L89.1858043,-96.0428754" /></g>
<g stroke="rgb(0, 0, 0)"><path d="M89.1858043,-96.0428754L91.3071246,-98.1641957" /></g>
<g stroke="rgb(0, 0, 0)"><path d="M73.3071246,-98.1641957L73.3141957,-98.1571246" /></g>
<g stroke="rgb(0, 0, 0)"><path d="M73.3141957,-98.1571246L71.1928754,-96.0358043" /></g>
<g stroke="rgb(0, 0, 0)"><path d="M71.1928754,-96.0358043L71.1858043,-96.0428754" /></g>
<g stroke="rgb(0, 0, 0)"><path d="M71.1858043,-96.0428754L73.3071246,-98.1641957" /></g>
<g stroke="rgb(0, 0, 0)"><path d="M82.3071246,-65.1641957L82.3141957,-65.1571246" /></g>
<g stroke="rgb(0, 0, 0)"><path d="M82.3141957,-65.1571246L80.1928754,-63.0358043" /></g>
<g stroke="rgb(0, 0, 0)"><path d="M80.1928754,-63.0358043L80.1858043,-63.0428754" /></g>
<g stroke="rgb(0, 0, 0)"><path d="M80.1858043,-63.0428754L82.3071246,-65.1641957" /></g>
<g stroke="rgb(0, 0, 0)"><path d="M82.1207149,-97.9636439L80.1928754,-96.0358043" /></g>
<g stroke="rgb(0, 0, 0)"><path d="M80.1928754,-96.0358043L80.1858043,-96.0428754" /></g>
<g stroke="rgb(0, 0, 0)"><path d="M80.1858043,-96.0428754L82.1136439,-97.9707149" /></g>
<g stroke="rgb(0, 0, 0)"><path d="M82.3071246,-100.4641957L82.3141957,-100.4571246" /></g>
<g stroke="rgb(0, 0, 0)"><path d="M82.3141957,-100.4571246L80.1928754,-98.3358043" /></g>
<g stroke="rgb(0, 0, 0)"><path d="M80.1928754,-98.3358043L80.1858043,-98.3428754" /></g>
<g stroke="rgb(0, 0, 0)"><path d="M80.1858043,-98.3428754L82.3071246,-100.4641957" /></g>
<g stroke="rgb(0, 0, 0)"><path d="M78.4971246,-106.8641957L78.5041957,-106.8571246" /></g>
<g stroke="rgb(0, 0, 0)"><path d="M78.5041957,-106.8571246L76.3828754,-104.7358043" /></g>
<g stroke="rgb(0, 0, 0)"><path d="M76.3828754,-104.7358043L76.3758043,-104.7428754" /></g>
<g stroke="rgb(0, 0, 0)"><path d="M76.3758043,-104.7428754L78.4971246,-106.8641957" /></g>
<g stroke="rgb(0, 0, 0)"><path d="M78.8071246,-64.1641957L78.8141957,-64.1571246" /></g>
<g stroke="rgb(0, 0, 0)"><path d="M78.8141957,-64.1571246L76.6928754,-62.0358043" /></g>
<g stroke="rgb(0, 0, 0)"><path d="M76.6928754,-62.0358043L76.6858043,-62.0428754" /></g>
<g stroke="rgb(0, 0, 0)"><path d="M76.6858043,-62.0428754L78.8071246,-64.1641957" /></g>
<g stroke="rgb(0, 0, 0)"><path d="M88.3071246,-64.1191957L88.3141957,-64.1121246" /></g>
<g stroke="rgb(0, 0, 0)"><path d="M88.3141957,-64.1121246L86.1928754,-61.9908043" /></g>
<g stroke="rgb(0, 0, 0)"><path d="M86.1928754,-61.9908043L86.1858043,-61.9978754" /></g>
<g stroke="rgb(0, 0, 0)"><path d="M86.1858043,-61.9978754L88.3071246,-64.1191957" /></g>
<g stroke="rgb(0, 0, 0)"><path d="M89.3071246,-105.1641957L89.3141957,-105.1571246" /></g>
<g stroke="rgb(0, 0, 0)"><path d="M89.3141957,-105.1571246L87.1928754,-103.0358043" /></g>
<g stroke="rgb(0, 0, 0)"><path d="M87.1928754,-103.0358043L87.1858043,-103.0428754" /></g>
<g stroke="rgb(0, 0, 0)"><path d="M87.1858043,-103.0428754L89.3071246,-105.1641957" /></g>
<g stroke="rgb(0, 0, 0)"><path d="M75.3071246,-105.1641957L75.3141957,-105.1571246" /></g>
<g stroke="rgb(0, 0, 0)"><path d="M75.3141957,-105.1571246L73.1928754,-103.0358043" /></g>
<g stroke="rgb(0, 0, 0)"><path d="M73.1928754,-103.0358043L73.1858043,-103.0428754" /></g>
<g stroke="rgb(0, 0, 0)"><path d="M73.1858043,-103.0428754L75.3071246,-105.1641957" /></g>
<g stroke="rgb(0, 0, 0)"><path d="M75.3071246,-119.1641957L75.3141957,-119.1571246" /></g>
<g stroke="rgb(0, 0, 0)"><path d="M75.3141957,-119.1571246L73.1928754,-117.0358043" /></g>
<g stroke="rgb(0, 0, 0)"><path d="M73.1928754,-117.0358043L73.1858043,-117.0428754" /></g>
<g stroke="rgb(0, 0, 0)"><path d="M73.1858043,-117.0428754L75.3071246,-119.1641957" /></g>
<g stroke="rgb(0, 0, 0)"><path d="M151.0071246,-86.4141957L151.0141957,-86.4071246" /></g>
<g stroke="rgb(0, 0, 0)"><path d="M151.0141957,-86.4071246L148.8928754,-84.2858043" /></g>
<g stroke="rgb(0, 0, 0)"><path d="M148.8928754,-84.2858043L148.8858043,-84.2928754" /></g>
<g stroke="rgb(0, 0, 0)"><path d="M148.8858043,-84.2928754L151.0071246,-86.4141957" /></g>
<g stroke="rgb(0, 0, 0)"><path d="M173.5071246,-63.9141957L173.5141957,-63.9071246" /></g>
<g stroke="rgb(0, 0, 0)"><path d="M173.5141957,-63.9071246L171.3928754,-61.7858043" /></g>
<g stroke="rgb(0, 0, 0)"><path d="M171.3928754,-61.7858043L171.3858043,-61.7928754" /></g>
<g stroke="rgb(0, 0, 0)"><path d="M171.3858043,-61.7928754L173.5071246,-63.9141957" /></g>
<g stroke="rgb(0, 0, 0)"><path d="M173.5071246,-108.9141957L173.5141957,-108.9071246" /></g>
<g stroke="rgb(0, 0, 0)"><path d="M173.5141957,-108.9071246L171.3928754,-106.7858043" /></g>
<g stroke="rgb(0, 0, 0)"><path d="M171.3928754,-106.7858043L171.3858043,-106.7928754" /></g>
<g stroke="rgb(0, 0, 0)"><path d="M171.3858043,-106.7928754L173.5071246,-108.9141957" /></g>
<g stroke="rgb(0, 0, 0)"><path d="M128.5071246,-63.9141957L128.5141957,-63.9071246" /></g>
<g stroke="rgb(0, 0, 0)"><path d="M128.5141957,-63.9071246L126.3928754,-61.7858043" /></g>
<g stroke="rgb(0, 0, 0)"><path d="M126.3928754,-61.7858043L126.3858043,-61.7928754" /></g>
<g stroke="rgb(0, 0, 0)"><path d="M126.3858043,-61.7928754L128.5071246,-63.9141957" /></g>
<g stroke="rgb(0, 0, 0)"><path d="M128.5071246,-108.9141957L128.5141957,-108.9071246" /></g>
<g stroke="rgb(0, 0, 0)"><path d="M128.5141957,-108.9071246L126.3928754,-106.7858043" /></g>
<g stroke="rgb(0, 0, 0)"><path d="M126.3928754,-106.7858043L126.3858043,-106.7928754" /></g>
<g stroke="rgb(0, 0, 0)"><path d="M126.3858043,-106.7928754L128.5071246,-108.9141957" /></g>
<g stroke="rgb(0, 0, 0)"><path d="M86.6446751,-126.6712318L86.6365849,-126.665354" /></g>
<g stroke="rgb(0, 0, 0)"><path d="M86.6365849,-126.665354L84.8732291,-129.092405" /></g>
<g stroke="rgb(0, 0, 0)"><path d="M84.8732291,-129.092405L84.8813193,-129.0982828" /></g>
<g stroke="rgb(0, 0, 0)"><path d="M84.8813193,-129.0982828L86.6446751,-126.6712318" /></g>
<g stroke="rgb(0, 0, 0)"><path d="M109.5571246,-75.5641957L109.5641957,-75.5571246" /></g>
<g stroke="rgb(0, 0, 0)"><path d="M109.5641957,-75.5571246L107.4428754,-73.4358043" /></g>
<g stroke="rgb(0, 0, 0)"><path d="M107.4428754,-73.4358043L107.4358043,-73.4428754" /></g>
<g stroke="rgb(0, 0, 0)"><path d="M107.4358043,-73.4428754L109.5571246,-75.5641957" /></g>
<g stroke="rgb(0, 0, 0)"><path d="M109.5571246,-92.5641957L109.5641957,-92.5571246" /></g>
<g stroke="rgb(0, 0, 0)"><path d="M109.5641957,-92.5571246L107.4428754,-90.4358043" /></g>
<g stroke="rgb(0, 0, 0)"><path d="M107.4428754,-90.4358043L107.4358043,-90.4428754" /></g>
<g stroke="rgb(0, 0, 0)"><path d="M107.4358043,-90.4428754L109.5571246,-92.5641957" /></g>
<g stroke="rgb(0, 0, 0)"><path d="M193.8827447,-81.5442905L193.8904051,-81.5378627" /></g>
<g stroke="rgb(0, 0, 0)"><path d="M193.8904051,-81.5378627L191.9620423,-79.2397293" /></g>
<g stroke="rgb(0, 0, 0)"><path d="M191.9620423,-79.2397293L191.9543819,-79.2461572" /></g>
<g stroke="rgb(0, 0, 0)"><path d="M191.9543819,-79.2461572L193.8827447,-81.5442905" /></g>
<g stroke="rgb(0, 0, 0)"><path d="M192.4010971,-98.4796004L192.4087575,-98.4731725" /></g>
<g stroke="rgb(0, 0, 0)"><path d="M192.4087575,-98.4731725L190.4803947,-96.1750392" /></g>
<g stroke="rgb(0, 0, 0)"><path d="M190.4803947,-96.1750392L190.4727343,-96.1814671" /></g>
<g stroke="rgb(0, 0, 0)"><path d="M190.4727343,-96.1814671L192.4010971,-98.4796004" /></g>
<g stroke="rgb(0, 0, 0)"><path d="M178.0432491,-80.1585141L178.0509095,-80.1520863" /></g>
<g stroke="rgb(0, 0, 0)"><path d="M178.0509095,-80.1520863L176.1225467,-77.853953" /></g>
<g stroke="rgb(0, 0, 0)"><path d="M176.1225467,-77.853953L176.1148863,-77.8603808" /></g>
<g stroke="rgb(0, 0, 0)"><path d="M176.1148863,-77.8603808L178.0432491,-80.1585141" /></g>
<g stroke="rgb(0, 0, 0)"><path d="M176.5616015,-97.093824L176.5692619,-97.0873961" /></g>
<g stroke="rgb(0, 0, 0)"><path d="M176.5692619,-97.0873961L174.6408991,-94.7892628" /></g>
<g stroke="rgb(0, 0, 0)"><path d="M174.6408991,-94.7892628L174.6332387,-94.7956907" /></g>
<g stroke="rgb(0, 0, 0)"><path d="M174.6332387,-94.7956907L176.5616015,-97.093824" /></g>
<g stroke="rgb(0, 0, 0)"><path d="M 100.87071488541505 -99.13635611530272 A 0.4 0.4 0 1 1 100.86364388469728 -99.12928511458495" /></g>
<g stroke="rgb(0, 0, 0)"><path d="M 100.87071488541505 -82.13635611530272 A 0.4 0.4 0 1 1 100.86364388469728 -82.12928511458495" /></g>
<g stroke="rgb(0, 0, 0)"><path d="M 100.87071488541505 -65.13635611530272 A 0.4 0.4 0 1 1 100.86364388469728 -65.12928511458495" /></g>
<g stroke="rgb(0, 0, 0)"><path d="M 117.87071488541505 -99.13635611530272 A 0.4 0.4 0 1 1 117.86364388469728 -99.12928511458495" /></g>
<g stroke="rgb(0, 0, 0)"><path d="M 117.87071488541505 -82.13635611530272 A 0.4 0.4 0 1 1 117.86364388469728 -82.12928511458495" /></g>
<g stroke="rgb(0, 0, 0)"><path d="M 117.87071488541505 -65.13635611530272 A 0.4 0.4 0 1 1 117.86364388469728 -65.12928511458495" /></g>
<g stroke="rgb(0, 0, 0)"><path d="M 138.87071488541505 -91.48635611530273 A 0.4 0.4 0 1 1 138.86364388469727 -91.47928511458495" /></g>
<g stroke="rgb(0, 0, 0)"><path d="M 138.87071488541505 -74.48635611530273 A 0.4 0.4 0 1 1 138.86364388469727 -74.47928511458495" /></g>
<g stroke="rgb(0, 0, 0)"><path d="M 138.87071488541505 -57.48635611530273 A 0.4 0.4 0 1 1 138.86364388469727 -57.479285114584954" /></g>
<g stroke="rgb(0, 0, 0)"><path d="M 162.27023250217354 -93.60401299822112 A 0.4 0.4 0 1 1 162.26347663875572 -93.59664026510363" /></g>
<g stroke="rgb(0, 0, 0)"><path d="M 163.01176210217352 -76.62019319822112 A 0.4 0.4 0 1 1 163.0050062387557 -76.61282046510362" /></g>
<g stroke="rgb(0, 0, 0)"><path d="M 163.75329170217353 -59.636373398221124 A 0.4 0.4 0 1 1 163.7465358387557 -59.62900066510363" /></g>
<g stroke="rgb(0, 0, 0)"><path d="M 183.72284741111642 -104.31761699038324 A 0.4 0.4 0 1 1 183.7164194979894 -104.3099565013189" /></g>
<g stroke="rgb(0, 0, 0)"><path d="M 185.20449501111642 -87.38230709038325 A 0.4 0.4 0 1 1 185.1980670979894 -87.3746466013189" /></g>
<g stroke="rgb(0, 0, 0)"><path d="M 186.6861426111164 -70.44699719038324 A 0.4 0.4 0 1 1 186.67971469798937 -70.4393367013189" /></g>
<g stroke="rgb(0, 0, 0)"><path d="M 199.67183829038325 -97.17340618888359 A 0.4 0.4 0 1 1 199.66417780131889 -97.17983410201063" /></g>
<g stroke="rgb(0, 0, 0)"><path d="M 201.52389779038327 -76.00426888888359 A 0.4 0.4 0 1 1 201.5162373013189 -76.01069680201063" /></g>
<g stroke="rgb(0, 0, 0)"><path d="M 76.87419702743071 -129.92787391749093 A 0.4 0.4 0 1 1 76.86875063684745 -129.93626062474706" /></g>
<g stroke="rgb(0, 0, 0)"><path d="M 93.54359514972651 -123.74235323494912 A 0.4 0.4 0 1 1 93.53771730080791 -123.75044340067427" /></g>
<g stroke="rgb(0, 0, 0)"><path d="M 112.02419175605506 -118.63564885248454 A 0.4 0.4 0 1 1 112.01676028311573 -118.64234018024575" /></g>
<g stroke="rgb(0, 0, 0)"><path d="M 55.87071488541505 -35.13635611530273 A 0.4 0.4 0 1 1 55.86364388469727 -35.12928511458495" /></g>
<g stroke="rgb(0, 0, 0)"><path d="M 55.87071488541505 -154.13635611530273 A 0.4 0.4 0 1 1 55.86364388469727 -154.12928511458495" /></g>
<g stroke="rgb(0, 0, 0)"><path d="M 82.12071488541505 -79.73635611530273 A 0.4 0.4 0 1 1 82.11364388469728 -79.72928511458495" /></g>
<g stroke="rgb(0, 0, 0)"><path d="M 91.12071488541505 -63.23635611530273 A 0.4 0.4 0 1 1 91.11364388469728 -63.229285114584954" /></g>
<g stroke="rgb(0, 0, 0)"><path d="M 73.12071488541505 -63.23635611530273 A 0.4 0.4 0 1 1 73.11364388469728 -63.229285114584954" /></g>
<g stroke="rgb(0, 0, 0)"><path d="M 91.12071488541505 -96.23635611530273 A 0.4 0.4 0 1 1 91.11364388469728 -96.22928511458495" /></g>
<g stroke="rgb(0, 0, 0)"><path d="M 73.12071488541505 -96.23635611530273 A 0.4 0.4 0 1 1 73.11364388469728 -96.22928511458495" /></g>
<g stroke="rgb(0, 0, 0)"><path d="M 82.12071488541505 -63.23635611530273 A 0.4 0.4 0 1 1 82.11364388469728 -63.229285114584954" /></g>
<g stroke="rgb(0, 0, 0)"><path d="M 82.12071488541505 -96.23635611530273 A 0.4 0.4 0 1 1 82.11364388469728 -96.22928511458495" /></g>
<g stroke="rgb(0, 0, 0)"><path d="M 82.12071488541505 -98.53635611530272 A 0.4 0.4 0 1 1 82.12071488541505 -97.96364388469728" /></g>
<g stroke="rgb(0, 0, 0)"><path d="M 82.11364388469728 -97.97071488541505 A 0.4 0.4 0 0 1 82.11364388469728 -98.52928511458495" /></g>
<g stroke="rgb(0, 0, 0)"><path d="M 78.31071488541505 -104.93635611530273 A 0.4 0.4 0 1 1 78.30364388469728 -104.92928511458496" /></g>
<g stroke="rgb(0, 0, 0)"><path d="M 78.62071488541505 -62.23635611530273 A 0.4 0.4 0 1 1 78.61364388469728 -62.229285114584954" /></g>
<g stroke="rgb(0, 0, 0)"><path d="M 88.12071488541505 -62.19135611530273 A 0.4 0.4 0 1 1 88.11364388469728 -62.18428511458495" /></g>
<g stroke="rgb(0, 0, 0)"><path d="M 89.12071488541505 -103.23635611530273 A 0.4 0.4 0 1 1 89.11364388469728 -103.22928511458495" /></g>
<g stroke="rgb(0, 0, 0)"><path d="M 75.12071488541505 -103.23635611530273 A 0.4 0.4 0 1 1 75.11364388469728 -103.22928511458495" /></g>
<g stroke="rgb(0, 0, 0)"><path d="M 75.12071488541505 -117.23635611530273 A 0.4 0.4 0 1 1 75.11364388469728 -117.22928511458495" /></g>
<g stroke="rgb(0, 0, 0)"><path d="M 150.82071488541504 -84.48635611530273 A 0.4 0.4 0 1 1 150.81364388469726 -84.47928511458495" /></g>
<g stroke="rgb(0, 0, 0)"><path d="M 173.32071488541504 -61.98635611530273 A 0.4 0.4 0 1 1 173.31364388469726 -61.979285114584954" /></g>
<g stroke="rgb(0, 0, 0)"><path d="M 173.32071488541504 -106.98635611530273 A 0.4 0.4 0 1 1 173.31364388469726 -106.97928511458495" /></g>
<g stroke="rgb(0, 0, 0)"><path d="M 128.32071488541504 -61.98635611530273 A 0.4 0.4 0 1 1 128.31364388469726 -61.979285114584954" /></g>
<g stroke="rgb(0, 0, 0)"><path d="M 128.32071488541504 -106.98635611530273 A 0.4 0.4 0 1 1 128.31364388469726 -106.97928511458495" /></g>
<g stroke="rgb(0, 0, 0)"><path d="M 84.76973134972651 -127.15692703494913 A 0.4 0.4 0 1 1 84.76385350080791 -127.16501720067428" /></g>
<g stroke="rgb(0, 0, 0)"><path d="M 109.37071488541505 -73.63635611530272 A 0.4 0.4 0 1 1 109.36364388469728 -73.62928511458495" /></g>
<g stroke="rgb(0, 0, 0)"><path d="M 109.37071488541505 -90.63635611530272 A 0.4 0.4 0 1 1 109.36364388469728 -90.62928511458495" /></g>
<g stroke="rgb(0, 0, 0)"><path d="M 193.86506661111642 -79.60754029038324 A 0.4 0.4 0 1 1 193.8586386979894 -79.59987980131889" /></g>
<g stroke="rgb(0, 0, 0)"><path d="M 192.38341901111642 -96.54285019038325 A 0.4 0.4 0 1 1 192.3769910979894 -96.5351897013189" /></g>
<g stroke="rgb(0, 0, 0)"><path d="M 178.0255710111164 -78.22176399038325 A 0.4 0.4 0 1 1 178.01914309798937 -78.2141035013189" /></g>
<g stroke="rgb(0, 0, 0)"><path d="M 176.5439234111164 -95.15707379038325 A 0.4 0.4 0 1 1 176.53749549798937 -95.1494133013189" /></g>
<g stroke="rgb(0, 0, 0)"><path d="M91.5,-108.5L125.5,-108.5" /></g>
<g stroke="rgb(0, 0, 0)"><path d="M108.5,-108.5L108.5,-57.5" /></g>
<g stroke="rgb(0, 0, 0)"><path d="M91.5,-91.5L125.5,-91.5" /></g>
<g stroke="rgb(0, 0, 0)"><path d="M91.5,-108.5L91.5,-57.5" /></g>
<g stroke="rgb(0, 0, 0)"><path d="M91.5,-74.5L125.5,-74.5" /></g>
<g stroke="rgb(0, 0, 0)"><path d="M91.5,-57.5L125.5,-57.5" /></g>
<g stroke="rgb(0, 0, 0)"><path d="M125.5,-108.5L125.5,-57.5" /></g>
<g stroke="rgb(0, 0, 0)"><path d="M129.5,-100.85L146.5,-100.85" /></g>
<g stroke="rgb(0, 0, 0)"><path d="M146.5,-100.85L146.5,-49.85" /></g>
<g stroke="rgb(0, 0, 0)"><path d="M129.5,-83.85L146.5,-83.85" /></g>
<g stroke="rgb(0, 0, 0)"><path d="M129.5,-100.85L129.5,-49.85" /></g>
<g stroke="rgb(0, 0, 0)"><path d="M129.5,-66.85L146.5,-66.85" /></g>
<g stroke="rgb(0, 0, 0)"><path d="M146.5,-49.85L129.5,-49.85" /></g>
<g stroke="rgb(0, 0, 0)"><path d="M152.5,-102.55L169.4838198,-103.2915296" /></g>
<g stroke="rgb(0, 0, 0)"><path d="M169.4838198,-103.2915296L171.7084086,-52.3400702" /></g>
<g stroke="rgb(0, 0, 0)"><path d="M153.2415296,-85.5661802L170.2253494,-86.3077098" /></g>
<g stroke="rgb(0, 0, 0)"><path d="M152.5,-102.55L154.7245888,-51.5985406" /></g>
<g stroke="rgb(0, 0, 0)"><path d="M153.9830592,-68.5823604L170.966879,-69.32389" /></g>
<g stroke="rgb(0, 0, 0)"><path d="M171.7084086,-52.3400702L154.7245888,-51.5985406" /></g>
<g stroke="rgb(0, 0, 0)"><path d="M173.5716956,-112.8289177L190.5070054,-114.3105653" /></g>
<g stroke="rgb(0, 0, 0)"><path d="M190.5070054,-114.3105653L194.9519482,-63.5046357" /></g>
<g stroke="rgb(0, 0, 0)"><path d="M175.0533432,-95.8936078L191.988653,-97.3752555" /></g>
<g stroke="rgb(0, 0, 0)"><path d="M175.0533432,-95.8936079L173.5716956,-112.8289177" /></g>
<g stroke="rgb(0, 0, 0)"><path d="M176.5349908,-78.9582979L193.4703006,-80.4399456" /></g>
<g stroke="rgb(0, 0, 0)"><path d="M176.5349908,-78.958298L175.0533432,-95.8936078" /></g>
<g stroke="rgb(0, 0, 0)"><path d="M194.9519482,-63.5046357L178.0166384,-62.0229881" /></g>
<g stroke="rgb(0, 0, 0)"><path d="M178.0166384,-62.0229881L176.5349908,-78.9582979" /></g>
<g stroke="rgb(0, 0, 0)"><path d="M207.5553692,-114.5L211.7471019,-66.5882754" /></g>
<g stroke="rgb(0, 0, 0)"><path d="M192.9146827,-86.7906868L209.8499926,-88.2723345" /></g>
<g stroke="rgb(0, 0, 0)"><path d="M191.0626232,-107.9598242L207.9979331,-109.4414718" /></g>
<g stroke="rgb(0, 0, 0)"><path d="M211.7020521,-67.1031971L194.7667422,-65.6215495" /></g>
<g stroke="rgb(0, 0, 0)"><path d="M88.4233163,-139.2255689L84.0051929,-118.4399324" /></g>
<g stroke="rgb(0, 0, 0)"><path d="M84.0051929,-118.4399324L67.3766837,-121.9744311" /></g>
<g stroke="rgb(0, 0, 0)"><path d="M67.3622367,-121.9064635L71.7948071,-142.7600676" /></g>
<g stroke="rgb(0, 0, 0)"><path d="M71.7948071,-142.7600676L88.4233163,-139.2255689" /></g>
<g stroke="rgb(0, 0, 0)"><path d="M104.590283,-133.6317403L101.2660506,-112.643363" /></g>
<g stroke="rgb(0, 0, 0)"><path d="M101.2660506,-112.643363L84.4753488,-115.3027489" /></g>
<g stroke="rgb(0, 0, 0)"><path d="M84.4753488,-115.3027489L87.7995812,-136.2911262" /></g>
<g stroke="rgb(0, 0, 0)"><path d="M87.7995812,-136.2911262L104.590283,-133.6317403" /></g>
<g stroke="rgb(0, 0, 0)"><path d="M120.7733638,-130.6056645L121.8855029,-109.3847869" /></g>
<g stroke="rgb(0, 0, 0)"><path d="M121.8855029,-109.3847869L104.9088008,-108.4950757" /></g>
<g stroke="rgb(0, 0, 0)"><path d="M104.9088008,-108.4950757L103.7966617,-129.7159533" /></g>
<g stroke="rgb(0, 0, 0)"><path d="M103.7966617,-129.7159533L120.7733638,-130.6056645" /></g>
<g stroke="rgb(0, 0, 0)"><path d="M145.9646525,-114.4999999L207.5553692,-114.5" /></g>
<g stroke="rgb(0, 0, 0)"><path d="M 211.74710191778803 -66.58827542331176 A 160 160 0 0 1 91.50000005602297 -57.12787138157273" /></g>
<g stroke="rgb(0, 0, 0)"><path d="M91.5000001,-62L91.5000001,-57.1278714" /></g>
<g stroke="rgb(0, 0, 0)"><path d="M 71.73430411176868 -142.47542397195375 A 140 140 0 0 1 172.6282029836784 -88.00000000950304" /></g>
<g stroke="rgb(0, 0, 0)"><path d="M67.375,-61.9999999L91.625,-62" /></g>
<g stroke="rgb(0, 0, 0)"><path d="M 67.65298376276661 -123.27432125865326 A 200 200 0 0 1 70.64444435224235 -61.99999986160077" /></g>
<g stroke="rgb(0, 0, 0)"><path d="M67.375,-122L91.625,-122" /></g>
<g stroke="rgb(0, 0, 0)"><path d="M91.625,-122L91.625,-62" /></g>
<g stroke="rgb(0, 0, 0)"><path d="M67.375,-62L67.375,-122" /></g>
<g stroke="rgb(0, 0, 0)"><path d="M92.7355561,-88L172.628203,-88" /></g>
<g stroke="rgb(0, 0, 0)"><path d="M 67.36223670648792 -121.9064634789688 A 66 66 0 0 1 92.73555610778195 -87.99999999627669" /></g>
  </g>
</svg>