0
SECTION
2
HEADER
9
$INSUNITS
70
4
0
ENDSEC
0
SECTION
2
TABLES
0
TABLE
2
LTYPE
0
LTYPE
72
65
70
64
2
CONTINUOUS
3
______
73
0
40
0
0
ENDTAB
0
TABLE
2
LAYER
0
ENDTAB
0
ENDSEC
0
SECTION
2
ENTITIES
0
LINE
8
0
10
52.5
20
-38.5
11
57.5
21
-38.5
0
LINE
8
0
10
57.5
20
-38.5
11
57.5
21
-33.5
0
LINE
8
0
10
57.5
20
-33.5
11
52.5
21
-33.5
0
LINE
8
0
10
52.5
20
-33.5
11
52.5
21
-38.5
0
LINE
8
0
10
52.5
20
-157.5
11
57.5
21
-157.5
0
LINE
8
0
10
57.5
20
-157.5
11
57.5
21
-152.5
0
LINE
8
0
10
57.5
20
-152.5
11
52.5
21
-152.5
0
LINE
8
0
10
52.5
20
-152.5
11
52.5
21
-157.5
0
LINE
8
0
10
98.9428754
20
-101.0641957
11
100.8707149
21
-99.1363561
0
LINE
8
0
10
100.8636439
20
-99.1292851
11
98.9358043
21
-101.0571246
0
LINE
8
0
10
98.9358043
20
-101.0571246
11
98.9428754
21
-101.0641957
0
LINE
8
0
10
98.9428754
20
-84.0641957
11
100.8707149
21
-82.1363561
0
LINE
8
0
10
100.8636439
20
-82.1292851
11
98.9358043
21
-84.0571246
0
LINE
8
0
10
98.9358043
20
-84.0571246
11
98.9428754
21
-84.0641957
0
LINE
8
0
10
98.9428754
20
-67.0641957
11
100.8707149
21
-65.1363561
0
LINE
8
0
10
100.8636439
20
-65.1292851
11
98.9358043
21
-67.0571246
0
LINE
8
0
10
98.9358043
20
-67.0571246
11
98.9428754
21
-67.0641957
0
LINE
8
0
10
115.9428754
20
-101.0641957
11
117.8707149
21
-99.1363561
0
LINE
8
0
10
117.8636439
20
-99.1292851
11
115.9358043
21
-101.0571246
0
LINE
8
0
10
115.9358043
20
-101.0571246
11
115.9428754
21
-101.0641957
0
LINE
8
0
10
115.9428754
20
-84.0641957
11
117.8707149
21
-82.1363561
0
LINE
8
0
10
117.8636439
20
-82.1292851
11
115.9358043
21
-84.0571246
0
LINE
8
0
10
115.9358043
20
-84.0571246
11
115.9428754
21
-84.0641957
0
LINE
8
0
10
115.9428754
20
-67.0641957
11
117.8707149
21
-65.1363561
0
LINE
8
0
10
117.8636439
20
-65.1292851
11
115.9358043
21
-67.0571246
0
LINE
8
0
10
115.9358043
20
-67.0571246
11
115.9428754
21
-67.0641957
0
LINE
8
0
10
136.9428754
20
-93.4141957
11
138.8707149
21
-91.4863561
0
LINE
8
0
10
138.8636439
20
-91.4792851
11
136.9358043
21
-93.4071246
0
LINE
8
0
10
136.9358043
20
-93.4071246
11
136.9428754
21
-93.4141957
0
LINE
8
0
10
136.9428754
20
-76.4141957
11
138.8707149
21
-74.4863561
0
LINE
8
0
10
138.8636439
20
-74.4792851
11
136.9358043
21
-76.4071246
0
LINE
8
0
10
136.9358043
20
-76.4071246
11
136.9428754
21
-76.4141957
0
LINE
8
0
10
136.9428754
20
-59.4141957
11
138.8707149
21
-57.4863561
0
LINE
8
0
10
138.8636439
20
-57.4792851
11
136.9358043
21
-59.4071246
0
LINE
8
0
10
136.9358043
20
-59.4071246
11
136.9428754
21
-59.4141957
0
LINE
8
0
10
160.2601366
20
-95.4459266
11
162.2702325
21
-93.604013
0
LINE
8
0
10
162.2634766
20
-93.5966403
11
160.2533807
21
-95.4385538
0
LINE
8
0
10
160.2533807
20
-95.4385538
11
160.2601366
21
-95.4459266
0
LINE
8
0
10
161.0016662
20
-78.4621068
11
163.0117621
21
-76.6201932
0
LINE
8
0
10
163.0050062
20
-76.6128205
11
160.9949103
21
-78.454734
0
LINE
8
0
10
160.9949103
20
-78.454734
11
161.0016662
21
-78.4621068
0
LINE
8
0
10
161.7431958
20
-61.478287
11
163.7532917
21
-59.6363734
0
LINE
8
0
10
163.7465358
20
-59.6290007
11
161.7364399
21
-61.4709142
0
LINE
8
0
10
161.7364399
20
-61.4709142
11
161.7431958
21
-61.478287
0
LINE
8
0
10
181.6343216
20
-106.0700982
11
183.7228474
21
-104.317617
0
LINE
8
0
10
183.7164195
20
-104.3099565
11
181.6278937
21
-106.0624378
0
LINE
8
0
10
181.6278937
20
-106.0624378
11
181.6343216
21
-106.0700982
0
LINE
8
0
10
183.1159692
20
-89.1347883
11
185.204495
21
-87.3823071
0
LINE
8
0
10
185.1980671
20
-87.3746466
11
183.1095413
21
-89.1271279
0
LINE
8
0
10
183.1095413
20
-89.1271279
11
183.1159692
21
-89.1347883
0
LINE
8
0
10
184.5976168
20
-72.1994784
11
186.6861426
21
-70.4469972
0
LINE
8
0
10
186.6797147
20
-70.4393367
11
184.5911889
21
-72.191818
0
LINE
8
0
10
184.5911889
20
-72.191818
11
184.5976168
21
-72.1994784
0
LINE
8
0
10
201.4243195
20
-99.261932
11
199.6718383
21
-97.1734062
0
LINE
8
0
10
199.6641778
20
-97.1798341
11
201.4166591
21
-99.2683599
0
LINE
8
0
10
201.4166591
20
-99.2683599
11
201.4243195
21
-99.261932
0
LINE
8
0
10
203.276379
20
-78.0927947
11
201.5238978
21
-76.0042689
0
LINE
8
0
10
201.5162373
20
-76.0106968
11
203.2687186
21
-78.0992226
0
LINE
8
0
10
203.2687186
20
-78.0992226
11
203.276379
21
-78.0927947
0
LINE
8
0
10
79.160729
20
-131.4127652
11
76.874197
21
-129.9278739
0
LINE
8
0
10
76.8687506
20
-129.9362606
11
79.1552827
21
-131.4211519
0
LINE
8
0
10
79.1552827
20
-131.4211519
11
79.160729
21
-131.4127652
0
LINE
8
0
10
95.7492803
20
-125.3448774
11
93.5435951
21
-123.7423532
0
LINE
8
0
10
93.5377173
20
-123.7504434
11
95.7434025
21
-125.3529676
0
LINE
8
0
10
95.7434025
20
-125.3529676
11
95.7492803
21
-125.3448774
0
LINE
8
0
10
113.8484939
20
-120.6617417
11
112.0241918
21
-118.6356489
0
LINE
8
0
10
112.0167603
20
-118.6423402
11
113.8410625
21
-120.668433
0
LINE
8
0
10
113.8410625
20
-120.668433
11
113.8484939
21
-120.6617417
0
LINE
8
0
10
53.9428754
20
-37.0641957
11
55.8707149
21
-35.1363561
0
LINE
8
0
10
55.8636439
20
-35.1292851
11
53.9358043
21
-37.0571246
0
LINE
8
0
10
53.9358043
20
-37.0571246
11
53.9428754
21
-37.0641957
0
LINE
8
0
10
53.9428754
20
-156.0641957
11
55.8707149
21
-154.1363561
0
LINE
8
0
10
55.8636439
20
-154.1292851
11
53.9358043
21
-156.0571246
0
LINE
8
0
10
53.9358043
20
-156.0571246
11
53.9428754
21
-156.0641957
0
LINE
8
0
10
80.1928754
20
-80.0641957
11
82.1207149
21
-78.1363561
0
LINE
8
0
10
82.1136439
20
-78.1292851
11
80.1858043
21
-80.0571246
0
LINE
8
0
10
80.1858043
20
-80.0571246
11
80.1928754
21
-80.0641957
0
LINE
8
0
10
89.1928754
20
-63.5641957
11
91.1207149
21
-61.6363561
0
LINE
8
0
10
91.1136439
20
-61.6292851
11
89.1858043
21
-63.5571246
0
LINE
8
0
10
89.1858043
20
-63.5571246
11
89.1928754
21
-63.5641957
0
LINE
8
0
10
71.1928754
20
-63.5641957
11
73.1207149
21
-61.6363561
0
LINE
8
0
10
73.1136439
20
-61.6292851
11
71.1858043
21
-63.5571246
0
LINE
8
0
10
71.1858043
20
-63.5571246
11
71.1928754
21
-63.5641957
0
LINE
8
0
10
89.1928754
20
-96.5641957
11
91.1207149
21
-94.6363561
0
LINE
8
0
10
91.1136439
20
-94.6292851
11
89.1858043
21
-96.5571246
0
LINE
8
0
10
89.1858043
20
-96.5571246
11
89.1928754
21
-96.5641957
0
LINE
8
0
10
71.1928754
20
-96.5641957
11
73.1207149
21
-94.6363561
0
LINE
8
0
10
73.1136439
20
-94.6292851
11
71.1858043
21
-96.5571246
0
LINE
8
0
10
71.1858043
20
-96.5571246
11
71.1928754
21
-96.5641957
0
LINE
8
0
10
80.1928754
20
-63.5641957
11
82.1207149
21
-61.6363561
0
LINE
8
0
10
82.1136439
20
-61.6292851
11
80.1858043
21
-63.5571246
0
LINE
8
0
10
80.1858043
20
-63.5571246
11
80.1928754
21
-63.5641957
0
LINE
8
0
10
80.1928754
20
-96.5641957
11
82.1207149
21
-94.6363561
0
LINE
8
0
10
82.1136439
20
-94.6292851
11
80.1858043
21
-96.5571246
0
LINE
8
0
10
80.1858043
20
-96.5571246
11
80.1928754
21
-96.5641957
0
LINE
8
0
10
80.1928754
20
-97.8641957
11
82.1207149
21
-95.9363561
0
LINE
8
0
10
82.1136439
20
-95.9292851
11
80.1858043
21
-97.8571246
0
LINE
8
0
10
80.1858043
20
-97.8571246
11
80.1928754
21
-97.8641957
0
LINE
8
0
10
77.1928754
20
-107.2641957
11
79.1207149
21
-105.3363561
0
LINE
8
0
10
79.1136439
20
-105.3292851
11
77.1858043
21
-107.2571246
0
LINE
8
0
10
77.1858043
20
-107.2571246
11
77.1928754
21
-107.2641957
0
LINE
8
0
10
76.6928754
20
-63.0641957
11
78.6207149
21
-61.1363561
0
LINE
8
0
10
78.6136439
20
-61.1292851
11
76.6858043
21
-63.0571246
0
LINE
8
0
10
76.6858043
20
-63.0571246
11
76.6928754
21
-63.0641957
0
LINE
8
0
10
86.1928754
20
-62.7191957
11
88.1207149
21
-60.7913561
0
LINE
8
0
10
88.1136439
20
-60.7842851
11
86.1858043
21
-62.7121246
0
LINE
8
0
10
86.1858043
20
-62.7121246
11
86.1928754
21
-62.7191957
0
LINE
8
0
10
87.1928754
20
-103.5641957
11
89.1207149
21
-101.6363561
0
LINE
8
0
10
89.1136439
20
-101.6292851
11
87.1858043
21
-103.5571246
0
LINE
8
0
10
87.1858043
20
-103.5571246
11
87.1928754
21
-103.5641957
0
LINE
8
0
10
73.1928754
20
-103.5641957
11
75.1207149
21
-101.6363561
0
LINE
8
0
10
75.1136439
20
-101.6292851
11
73.1858043
21
-103.5571246
0
LINE
8
0
10
73.1858043
20
-103.5571246
11
73.1928754
21
-103.5641957
0
LINE
8
0
10
73.1928754
20
-117.5641957
11
75.1207149
21
-115.6363561
0
LINE
8
0
10
75.1136439
20
-115.6292851
11
73.1858043
21
-117.5571246
0
LINE
8
0
10
73.1858043
20
-117.5571246
11
73.1928754
21
-117.5641957
0
LINE
8
0
10
148.8928754
20
-86.4141957
11
150.8207149
21
-84.4863561
0
LINE
8
0
10
150.8136439
20
-84.4792851
11
148.8858043
21
-86.4071246
0
LINE
8
0
10
148.8858043
20
-86.4071246
11
148.8928754
21
-86.4141957
0
LINE
8
0
10
171.3928754
20
-63.9141957
11
173.3207149
21
-61.9863561
0
LINE
8
0
10
173.3136439
20
-61.9792851
11
171.3858043
21
-63.9071246
0
LINE
8
0
10
171.3858043
20
-63.9071246
11
171.3928754
21
-63.9141957
0
LINE
8
0
10
171.3928754
20
-108.9141957
11
173.3207149
21
-106.9863561
0
LINE
8
0
10
173.3136439
20
-106.9792851
11
171.3858043
21
-108.9071246
0
LINE
8
0
10
171.3858043
20
-108.9071246
11
171.3928754
21
-108.9141957
0
LINE
8
0
10
126.3928754
20
-63.9141957
11
128.3207149
21
-61.9863561
0
LINE
8
0
10
128.3136439
20
-61.9792851
11
126.3858043
21
-63.9071246
0
LINE
8
0
10
126.3858043
20
-63.9071246
11
126.3928754
21
-63.9141957
0
LINE
8
0
10
126.3928754
20
-108.9141957
11
128.3207149
21
-106.9863561
0
LINE
8
0
10
128.3136439
20
-106.9792851
11
126.3858043
21
-108.9071246
0
LINE
8
0
10
126.3858043
20
-108.9071246
11
126.3928754
21
-108.9141957
0
LINE
8
0
10
86.9754165
20
-128.7594512
11
84.7697313
21
-127.156927
0
LINE
8
0
10
84.7638535
20
-127.1650172
11
86.9695387
21
-128.7675414
0
LINE
8
0
10
86.9695387
20
-128.7675414
11
86.9754165
21
-128.7594512
0
LINE
8
0
10
107.4428754
20
-75.5641957
11
109.3707149
21
-73.6363561
0
LINE
8
0
10
109.3636439
20
-73.6292851
11
107.4358043
21
-75.5571246
0
LINE
8
0
10
107.4358043
20
-75.5571246
11
107.4428754
21
-75.5641957
0
LINE
8
0
10
107.4428754
20
-92.5641957
11
109.3707149
21
-90.6363561
0
LINE
8
0
10
109.3636439
20
-90.6292851
11
107.4358043
21
-92.5571246
0
LINE
8
0
10
107.4358043
20
-92.5571246
11
107.4428754
21
-92.5641957
0
LINE
8
0
10
191.7765408
20
-81.3600215
11
193.8650666
21
-79.6075404
0
LINE
8
0
10
193.8586387
20
-79.5998799
11
191.7701129
21
-81.3523611
0
LINE
8
0
10
191.7701129
20
-81.3523611
11
191.7765408
21
-81.3600215
0
LINE
8
0
10
190.2948932
20
-98.2953314
11
192.383419
21
-96.5428502
0
LINE
8
0
10
192.3769911
20
-96.5351897
11
190.2884653
21
-98.287671
0
LINE
8
0
10
190.2884653
20
-98.287671
11
190.2948932
21
-98.2953314
0
LINE
8
0
10
175.9370452
20
-79.9742451
11
178.025571
21
-78.221764
0
LINE
8
0
10
178.0191431
20
-78.2141035
11
175.9306173
21
-79.9665847
0
LINE
8
0
10
175.9306173
20
-79.9665847
11
175.9370452
21
-79.9742451
0
LINE
8
0
10
174.4553976
20
-96.909555
11
176.5439234
21
-95.1570738
0
LINE
8
0
10
176.5374955
20
-95.1494133
11
174.4489697
21
-96.9018946
0
LINE
8
0
10
174.4489697
20
-96.9018946
11
174.4553976
21
-96.909555
0
LINE
8
0
10
101.0571246
20
-101.0641957
11
101.0641957
21
-101.0571246
0
LINE
8
0
10
101.0641957
20
-101.0571246
11
98.9428754
21
-98.9358043
0
LINE
8
0
10
98.9428754
20
-98.9358043
11
98.9358043
21
-98.9428754
0
LINE
8
0
10
98.9358043
20
-98.9428754
11
101.0571246
21
-101.0641957
0
LINE
8
0
10
101.0571246
20
-84.0641957
11
101.0641957
21
-84.0571246
0
LINE
8
0
10
101.0641957
20
-84.0571246
11
98.9428754
21
-81.9358043
0
LINE
8
0
10
98.9428754
20
-81.9358043
11
98.9358043
21
-81.9428754
0
LINE
8
0
10
98.9358043
20
-81.9428754
11
101.0571246
21
-84.0641957
0
LINE
8
0
10
101.0571246
20
-67.0641957
11
101.0641957
21
-67.0571246
0
LINE
8
0
10
101.0641957
20
-67.0571246
11
98.9428754
21
-64.9358043
0
LINE
8
0
10
98.9428754
20
-64.9358043
11
98.9358043
21
-64.9428754
0
LINE
8
0
10
98.9358043
20
-64.9428754
11
101.0571246
21
-67.0641957
0
LINE
8
0
10
118.0571246
20
-101.0641957
11
118.0641957
21
-101.0571246
0
LINE
8
0
10
118.0641957
20
-101.0571246
11
115.9428754
21
-98.9358043
0
LINE
8
0
10
115.9428754
20
-98.9358043
11
115.9358043
21
-98.9428754
0
LINE
8
0
10
115.9358043
20
-98.9428754
11
118.0571246
21
-101.0641957
0
LINE
8
0
10
118.0571246
20
-84.0641957
11
118.0641957
21
-84.0571246
0
LINE
8
0
10
118.0641957
20
-84.0571246
11
115.9428754
21
-81.9358043
0
LINE
8
0
10
115.9428754
20
-81.9358043
11
115.9358043
21
-81.9428754
0
LINE
8
0
10
115.9358043
20
-81.9428754
11
118.0571246
21
-84.0641957
0
LINE
8
0
10
118.0571246
20
-67.0641957
11
118.0641957
21
-67.0571246
0
LINE
8
0
10
118.0641957
20
-67.0571246
11
115.9428754
21
-64.9358043
0
LINE
8
0
10
115.9428754
20
-64.9358043
11
115.9358043
21
-64.9428754
0
LINE
8
0
10
115.9358043
20
-64.9428754
11
118.0571246
21
-67.0641957
0
LINE
8
0
10
139.0571246
20
-93.4141957
11
139.0641957
21
-93.4071246
0
LINE
8
0
10
139.0641957
20
-93.4071246
11
136.9428754
21
-91.2858043
0
LINE
8
0
10
136.9428754
20
-91.2858043
11
136.9358043
21
-91.2928754
0
LINE
8
0
10
136.9358043
20
-91.2928754
11
139.0571246
21
-93.4141957
0
LINE
8
0
10
139.0571246
20
-76.4141957
11
139.0641957
21
-76.4071246
0
LINE
8
0
10
139.0641957
20
-76.4071246
11
136.9428754
21
-74.2858043
0
LINE
8
0
10
136.9428754
20
-74.2858043
11
136.9358043
21
-74.2928754
0
LINE
8
0
10
136.9358043
20
-74.2928754
11
139.0571246
21
-76.4141957
0
LINE
8
0
10
139.0571246
20
-59.4141957
11
139.0641957
21
-59.4071246
0
LINE
8
0
10
139.0641957
20
-59.4071246
11
136.9428754
21
-57.2858043
0
LINE
8
0
10
136.9428754
20
-57.2858043
11
136.9358043
21
-57.2928754
0
LINE
8
0
10
136.9358043
20
-57.2928754
11
139.0571246
21
-59.4141957
0
LINE
8
0
10
162.3723736
20
-95.5381489
11
162.3797464
21
-95.531393
0
LINE
8
0
10
162.3797464
20
-95.531393
11
160.3529758
21
-93.3195609
0
LINE
8
0
10
160.3529758
20
-93.3195609
11
160.345603
21
-93.3263168
0
LINE
8
0
10
160.345603
20
-93.3263168
11
162.3723736
21
-95.5381489
0
LINE
8
0
10
163.1139032
20
-78.5543291
11
163.121276
21
-78.5475732
0
LINE
8
0
10
163.121276
20
-78.5475732
11
161.0945054
21
-76.3357411
0
LINE
8
0
10
161.0945054
20
-76.3357411
11
161.0871326
21
-76.342497
0
LINE
8
0
10
161.0871326
20
-76.342497
11
163.1139032
21
-78.5543291
0
LINE
8
0
10
163.8554328
20
-61.5705093
11
163.8628056
21
-61.5637534
0
LINE
8
0
10
163.8628056
20
-61.5637534
11
161.836035
21
-59.3519213
0
LINE
8
0
10
161.836035
20
-59.3519213
11
161.8286622
21
-59.3586772
0
LINE
8
0
10
161.8286622
20
-59.3586772
11
163.8554328
21
-61.5705093
0
LINE
8
0
10
183.7405255
20
-106.2543672
11
183.7481859
21
-106.2479393
0
LINE
8
0
10
183.7481859
20
-106.2479393
11
181.8198231
21
-103.949806
0
LINE
8
0
10
181.8198231
20
-103.949806
11
181.8121627
21
-103.9562339
0
LINE
8
0
10
181.8121627
20
-103.9562339
11
183.7405255
21
-106.2543672
0
LINE
8
0
10
185.2221731
20
-89.3190573
11
185.2298335
21
-89.3126294
0
LINE
8
0
10
185.2298335
20
-89.3126294
11
183.3014707
21
-87.0144961
0
LINE
8
0
10
183.3014707
20
-87.0144961
11
183.2938103
21
-87.020924
0
LINE
8
0
10
183.2938103
20
-87.020924
11
185.2221731
21
-89.3190573
0
LINE
8
0
10
186.7038207
20
-72.3837474
11
186.7114811
21
-72.3773195
0
LINE
8
0
10
186.7114811
20
-72.3773195
11
184.7831183
21
-70.0791862
0
LINE
8
0
10
184.7831183
20
-70.0791862
11
184.7754579
21
-70.0856141
0
LINE
8
0
10
184.7754579
20
-70.0856141
11
186.7038207
21
-72.3837474
0
LINE
8
0
10
201.6085885
20
-97.1557281
11
201.6021606
21
-97.1480677
0
LINE
8
0
10
201.6021606
20
-97.1480677
11
199.3040273
21
-99.0764305
0
LINE
8
0
10
199.3040273
20
-99.0764305
11
199.3104552
21
-99.0840909
0
LINE
8
0
10
199.3104552
20
-99.0840909
11
201.6085885
21
-97.1557281
0
LINE
8
0
10
203.460648
20
-75.9865908
11
203.4542201
21
-75.9789304
0
LINE
8
0
10
203.4542201
20
-75.9789304
11
201.1560868
21
-77.9072932
0
LINE
8
0
10
201.1560868
20
-77.9072932
11
201.1625147
21
-77.9149536
0
LINE
8
0
10
201.1625147
20
-77.9149536
11
203.460648
21
-75.9865908
0
LINE
8
0
10
78.7211519
20
-129.3447173
11
78.7127652
21
-129.339271
0
LINE
8
0
10
78.7127652
20
-129.339271
11
77.0788481
21
-131.8552827
0
LINE
8
0
10
77.0788481
20
-131.8552827
11
77.0872348
21
-131.860729
0
LINE
8
0
10
77.0872348
20
-131.860729
11
78.7211519
21
-129.3447173
0
LINE
8
0
10
95.4185389
20
-123.256658
11
95.4104487
21
-123.2507802
0
LINE
8
0
10
95.4104487
20
-123.2507802
11
93.6470929
21
-125.6778312
0
LINE
8
0
10
93.6470929
20
-125.6778312
11
93.6551831
21
-125.683709
0
LINE
8
0
10
93.6551831
20
-125.683709
11
95.4185389
21
-123.256658
0
LINE
8
0
10
113.9591452
20
-118.5503899
11
113.9524539
21
-118.5429585
0
LINE
8
0
10
113.9524539
20
-118.5429585
11
111.7230194
21
-120.5503503
0
LINE
8
0
10
111.7230194
20
-120.5503503
11
111.7297107
21
-120.5577817
0
LINE
8
0
10
111.7297107
20
-120.5577817
11
113.9591452
21
-118.5503899
0
LINE
8
0
10
56.0571246
20
-37.0641957
11
56.0641957
21
-37.0571246
0
LINE
8
0
10
56.0641957
20
-37.0571246
11
53.9428754
21
-34.9358043
0
LINE
8
0
10
53.9428754
20
-34.9358043
11
53.9358043
21
-34.9428754
0
LINE
8
0
10
53.9358043
20
-34.9428754
11
56.0571246
21
-37.0641957
0
LINE
8
0
10
56.0571246
20
-156.0641957
11
56.0641957
21
-156.0571246
0
LINE
8
0
10
56.0641957
20
-156.0571246
11
53.9428754
21
-153.9358043
0
LINE
8
0
10
53.9428754
20
-153.9358043
11
53.9358043
21
-153.9428754
0
LINE
8
0
10
53.9358043
20
-153.9428754
11
56.0571246
21
-156.0641957
0
LINE
8
0
10
82.3071246
20
-80.0641957
11
82.3141957
21
-80.0571246
0
LINE
8
0
10
82.3141957
20
-80.0571246
11
80.1928754
21
-77.9358043
0
LINE
8
0
10
80.1928754
20
-77.9358043
11
80.1858043
21
-77.9428754
0
LINE
8
0
10
80.1858043
20
-77.9428754
11
82.3071246
21
-80.0641957
0
LINE
8
0
10
91.3071246
20
-63.5641957
11
91.3141957
21
-63.5571246
0
LINE
8
0
10
91.3141957
20
-63.5571246
11
89.1928754
21
-61.4358043
0
LINE
8
0
10
89.1928754
20
-61.4358043
11
89.1858043
21
-61.4428754
0
LINE
8
0
10
89.1858043
20
-61.4428754
11
91.3071246
21
-63.5641957
0
LINE
8
0
10
73.3071246
20
-63.5641957
11
73.3141957
21
-63.5571246
0
LINE
8
0
10
73.3141957
20
-63.5571246
11
71.1928754
21
-61.4358043
0
LINE
8
0
10
71.1928754
20
-61.4358043
11
71.1858043
21
-61.4428754
0
LINE
8
0
10
71.1858043
20
-61.4428754
11
73.3071246
21
-63.5641957
0
LINE
8
0
10
91.3071246
20
-96.5641957
11
91.3141957
21
-96.5571246
0
LINE
8
0
10
91.3141957
20
-96.5571246
11
89.1928754
21
-94.4358043
0
LINE
8
0
10
89.1928754
20
-94.4358043
11
89.1858043
21
-94.4428754
0
LINE
8
0
10
89.1858043
20
-94.4428754
11
91.3071246
21
-96.5641957
0
LINE
8
0
10
73.3071246
20
-96.5641957
11
73.3141957
21
-96.5571246
0
LINE
8
0
10
73.3141957
20
-96.5571246
11
71.1928754
21
-94.4358043
0
LINE
8
0
10
71.1928754
20
-94.4358043
11
71.1858043
21
-94.4428754
0
LINE
8
0
10
71.1858043
20
-94.4428754
11
73.3071246
21
-96.5641957
0
LINE
8
0
10
82.3071246
20
-63.5641957
11
82.3141957
21
-63.5571246
0
LINE
8
0
10
82.3141957
20
-63.5571246
11
80.1928754
21
-61.4358043
0
LINE
8
0
10
80.1928754
20
-61.4358043
11
80.1858043
21
-61.4428754
0
LINE
8
0
10
80.1858043
20
-61.4428754
11
82.3071246
21
-63.5641957
0
LINE
8
0
10
82.3071246
20
-96.5641957
11
82.3141957
21
-96.5571246
0
LINE
8
0
10
82.3141957
20
-96.5571246
11
80.1928754
21
-94.4358043
0
LINE
8
0
10
80.1928754
20
-94.4358043
11
80.1858043
21
-94.4428754
0
LINE
8
0
10
80.1858043
20
-94.4428754
11
82.3071246
21
-96.5641957
0
LINE
8
0
10
82.3071246
20
-97.8641957
11
82.3141957
21
-97.8571246
0
LINE
8
0
10
82.3141957
20
-97.8571246
11
80.1928754
21
-95.7358043
0
LINE
8
0
10
80.1928754
20
-95.7358043
11
80.1858043
21
-95.7428754
0
LINE
8
0
10
80.1858043
20
-95.7428754
11
82.3071246
21
-97.8641957
0
LINE
8
0
10
79.3071246
20
-107.2641957
11
79.3141957
21
-107.2571246
0
LINE
8
0
10
79.3141957
20
-107.2571246
11
77.1928754
21
-105.1358043
0
LINE
8
0
10
77.1928754
20
-105.1358043
11
77.1858043
21
-105.1428754
0
LINE
8
0
10
77.1858043
20
-105.1428754
11
79.3071246
21
-107.2641957
0
LINE
8
0
10
78.8071246
20
-63.0641957
11
78.8141957
21
-63.0571246
0
LINE
8
0
10
78.8141957
20
-63.0571246
11
76.6928754
21
-60.9358043
0
LINE
8
0
10
76.6928754
20
-60.9358043
11
76.6858043
21
-60.9428754
0
LINE
8
0
10
76.6858043
20
-60.9428754
11
78.8071246
21
-63.0641957
0
LINE
8
0
10
88.3071246
20
-62.7191957
11
88.3141957
21
-62.7121246
0
LINE
8
0
10
88.3141957
20
-62.7121246
11
86.1928754
21
-60.5908043
0
LINE
8
0
10
86.1928754
20
-60.5908043
11
86.1858043
21
-60.5978754
0
LINE
8
0
10
86.1858043
20
-60.5978754
11
88.3071246
21
-62.7191957
0
LINE
8
0
10
89.3071246
20
-103.5641957
11
89.3141957
21
-103.5571246
0
LINE
8
0
10
89.3141957
20
-103.5571246
11
87.1928754
21
-101.4358043
0
LINE
8
0
10
87.1928754
20
-101.4358043
11
87.1858043
21
-101.4428754
0
LINE
8
0
10
87.1858043
20
-101.4428754
11
89.3071246
21
-103.5641957
0
LINE
8
0
10
75.3071246
20
-103.5641957
11
75.3141957
21
-103.5571246
0
LINE
8
0
10
75.3141957
20
-103.5571246
11
73.1928754
21
-101.4358043
0
LINE
8
0
10
73.1928754
20
-101.4358043
11
73.1858043
21
-101.4428754
0
LINE
8
0
10
73.1858043
20
-101.4428754
11
75.3071246
21
-103.5641957
0
LINE
8
0
10
75.3071246
20
-117.5641957
11
75.3141957
21
-117.5571246
0
LINE
8
0
10
75.3141957
20
-117.5571246
11
73.1928754
21
-115.4358043
0
LINE
8
0
10
73.1928754
20
-115.4358043
11
73.1858043
21
-115.4428754
0
LINE
8
0
10
73.1858043
20
-115.4428754
11
75.3071246
21
-117.5641957
0
LINE
8
0
10
151.0071246
20
-86.4141957
11
151.0141957
21
-86.4071246
0
LINE
8
0
10
151.0141957
20
-86.4071246
11
148.8928754
21
-84.2858043
0
LINE
8
0
10
148.8928754
20
-84.2858043
11
148.8858043
21
-84.2928754
0
LINE
8
0
10
148.8858043
20
-84.2928754
11
151.0071246
21
-86.4141957
0
LINE
8
0
10
173.5071246
20
-63.9141957
11
173.5141957
21
-63.9071246
0
LINE
8
0
10
173.5141957
20
-63.9071246
11
171.3928754
21
-61.7858043
0
LINE
8
0
10
171.3928754
20
-61.7858043
11
171.3858043
21
-61.7928754
0
LINE
8
0
10
171.3858043
20
-61.7928754
11
173.5071246
21
-63.9141957
0
LINE
8
0
10
173.5071246
20
-108.9141957
11
173.5141957
21
-108.9071246
0
LINE
8
0
10
173.5141957
20
-108.9071246
11
171.3928754
21
-106.7858043
0
LINE
8
0
10
171.3928754
20
-106.7858043
11
171.3858043
21
-106.7928754
0
LINE
8
0
10
171.3858043
20
-106.7928754
11
173.5071246
21
-108.9141957
0
LINE
8
0
10
128.5071246
20
-63.9141957
11
128.5141957
21
-63.9071246
0
LINE
8
0
10
128.5141957
20
-63.9071246
11
126.3928754
21
-61.7858043
0
LINE
8
0
10
126.3928754
20
-61.7858043
11
126.3858043
21
-61.7928754
0
LINE
8
0
10
126.3858043
20
-61.7928754
11
128.5071246
21
-63.9141957
0
LINE
8
0
10
128.5071246
20
-108.9141957
11
128.5141957
21
-108.9071246
0
LINE
8
0
10
128.5141957
20
-108.9071246
11
126.3928754
21
-106.7858043
0
LINE
8
0
10
126.3928754
20
-106.7858043
11
126.3858043
21
-106.7928754
0
LINE
8
0
10
126.3858043
20
-106.7928754
11
128.5071246
21
-108.9141957
0
LINE
8
0
10
86.6446751
20
-126.6712318
11
86.6365849
21
-126.665354
0
LINE
8
0
10
86.6365849
20
-126.665354
11
84.8732291
21
-129.092405
0
LINE
8
0
10
84.8732291
20
-129.092405
11
84.8813193
21
-129.0982828
0
LINE
8
0
10
84.8813193
20
-129.0982828
11
86.6446751
21
-126.6712318
0
LINE
8
0
10
109.5571246
20
-75.5641957
11
109.5641957
21
-75.5571246
0
LINE
8
0
10
109.5641957
20
-75.5571246
11
107.4428754
21
-73.4358043
0
LINE
8
0
10
107.4428754
20
-73.4358043
11
107.4358043
21
-73.4428754
0
LINE
8
0
10
107.4358043
20
-73.4428754
11
109.5571246
21
-75.5641957
0
LINE
8
0
10
109.5571246
20
-92.5641957
11
109.5641957
21
-92.5571246
0
LINE
8
0
10
109.5641957
20
-92.5571246
11
107.4428754
21
-90.4358043
0
LINE
8
0
10
107.4428754
20
-90.4358043
11
107.4358043
21
-90.4428754
0
LINE
8
0
10
107.4358043
20
-90.4428754
11
109.5571246
21
-92.5641957
0
LINE
8
0
10
193.8827447
20
-81.5442905
11
193.8904051
21
-81.5378627
0
LINE
8
0
10
193.8904051
20
-81.5378627
11
191.9620423
21
-79.2397293
0
LINE
8
0
10
191.9620423
20
-79.2397293
11
191.9543819
21
-79.2461572
0
LINE
8
0
10
191.9543819
20
-79.2461572
11
193.8827447
21
-81.5442905
0
LINE
8
0
10
192.4010971
20
-98.4796004
11
192.4087575
21
-98.4731725
0
LINE
8
0
10
192.4087575
20
-98.4731725
11
190.4803947
21
-96.1750392
0
LINE
8
0
10
190.4803947
20
-96.1750392
11
190.4727343
21
-96.1814671
0
LINE
8
0
10
190.4727343
20
-96.1814671
11
192.4010971
21
-98.4796004
0
LINE
8
0
10
178.0432491
20
-80.1585141
11
178.0509095
21
-80.1520863
0
LINE
8
0
10
178.0509095
20
-80.1520863
11
176.1225467
21
-77.853953
0
LINE
8
0
10
176.1225467
20
-77.853953
11
176.1148863
21
-77.8603808
0
LINE
8
0
10
176.1148863
20
-77.8603808
11
178.0432491
21
-80.1585141
0
LINE
8
0
10
176.5616015
20
-97.093824
11
176.5692619
21
-97.0873961
0
LINE
8
0
10
176.5692619
20
-97.0873961
11
174.6408991
21
-94.7892628
0
LINE
8
0
10
174.6408991
20
-94.7892628
11
174.6332387
21
-94.7956907
0
LINE
8
0
10
174.6332387
20
-94.7956907
11
176.5616015
21
-97.093824
0
ARC
8
0
10
101.15
20
-98.85
40
0.4
50
225.7162091
51
584.2837909
0
ARC
8
0
10
101.15
20
-81.85
40
0.4
50
225.7162091
51
584.2837909
0
ARC
8
0
10
101.15
20
-64.85
40
0.4
50
225.7162091
51
584.2837909
0
ARC
8
0
10
118.15
20
-98.85
40
0.4
50
225.7162091
51
584.2837909
0
ARC
8
0
10
118.15
20
-81.85
40
0.4
50
225.7162091
51
584.2837909
0
ARC
8
0
10
118.15
20
-64.85
40
0.4
50
225.7162091
51
584.2837909
0
ARC
8
0
10
139.15
20
-91.2
40
0.4
50
225.7162091
51
584.2837909
0
ARC
8
0
10
139.15
20
-74.2
40
0.4
50
225.7162091
51
584.2837909
0
ARC
8
0
10
139.15
20
-57.2
40
0.4
50
225.7162091
51
584.2837909
0
ARC
8
0
10
162.5617425
20
-93.3301117
40
0.4
50
223.2162044
51
581.7837806
0
ARC
8
0
10
163.3032721
20
-76.3462919
40
0.4
50
223.2162044
51
581.7837806
0
ARC
8
0
10
164.0448017
20
-59.3624721
40
0.4
50
223.2162044
51
581.7837806
0
ARC
8
0
10
184.0260273
20
-104.0566918
40
0.4
50
220.7162182
51
579.2837781
0
ARC
8
0
10
185.5076749
20
-87.1213819
40
0.4
50
220.7162182
51
579.2837781
0
ARC
8
0
10
186.9893225
20
-70.186072
40
0.4
50
220.7162182
51
579.2837781
0
ARC
8
0
10
199.4109131
20
-96.8702263
40
0.4
50
310.7162182
51
669.2837781
0
ARC
8
0
10
201.2629726
20
-75.701089
40
0.4
50
310.7162182
51
669.2837781
0
ARC
8
0
10
76.5360318
20
-129.7142287
40
0.4
50
327.7162198
51
686.2837878
0
ARC
8
0
10
93.2170747
20
-123.5113026
40
0.4
50
324.716218
51
683.283787
0
ARC
8
0
10
111.7528447
20
-118.3417598
40
0.4
50
312.716216
51
671.2837795
0
ARC
8
0
10
56.15
20
-34.85
40
0.4
50
225.7162091
51
584.2837909
0
ARC
8
0
10
56.15
20
-153.85
40
0.4
50
225.7162091
51
584.2837909
0
ARC
8
0
10
82.4
20
-77.85
40
0.4
50
225.7162091
51
584.2837909
0
ARC
8
0
10
91.4
20
-61.35
40
0.4
50
225.7162091
51
584.2837909
0
ARC
8
0
10
73.4
20
-61.35
40
0.4
50
225.7162091
51
584.2837909
0
ARC
8
0
10
91.4
20
-94.35
40
0.4
50
225.7162091
51
584.2837909
0
ARC
8
0
10
73.4
20
-94.35
40
0.4
50
225.7162091
51
584.2837909
0
ARC
8
0
10
82.4
20
-61.35
40
0.4
50
225.7162091
51
584.2837909
0
ARC
8
0
10
82.4
20
-94.35
40
0.4
50
225.7162091
51
584.2837909
0
ARC
8
0
10
82.4
20
-95.65
40
0.4
50
225.7162091
51
584.2837909
0
ARC
8
0
10
79.4
20
-105.05
40
0.4
50
225.7162091
51
584.2837909
0
ARC
8
0
10
78.9
20
-60.85
40
0.4
50
225.7162091
51
584.2837909
0
ARC
8
0
10
88.4
20
-60.505
40
0.4
50
225.7162091
51
584.2837909
0
ARC
8
0
10
89.4
20
-101.35
40
0.4
50
225.7162091
51
584.2837909
0
ARC
8
0
10
75.4
20
-101.35
40
0.4
50
225.7162091
51
584.2837909
0
ARC
8
0
10
75.4
20
-115.35
40
0.4
50
225.7162091
51
584.2837909
0
ARC
8
0
10
151.1
20
-84.2
40
0.4
50
225.7162091
51
584.2837909
0
ARC
8
0
10
173.6
20
-61.7
40
0.4
50
225.7162091
51
584.2837909
0
ARC
8
0
10
173.6
20
-106.7
40
0.4
50
225.7162091
51
584.2837909
0
ARC
8
0
10
128.6
20
-61.7
40
0.4
50
225.7162091
51
584.2837909
0
ARC
8
0
10
128.6
20
-106.7
40
0.4
50
225.7162091
51
584.2837909
0
ARC
8
0
10
84.4432109
20
-126.9258764
40
0.4
50
324.716218
51
683.283787
0
ARC
8
0
10
109.65
20
-73.35
40
0.4
50
225.7162091
51
584.2837909
0
ARC
8
0
10
109.65
20
-90.35
40
0.4
50
225.7162091
51
584.2837909
0
ARC
8
0
10
194.1682465
20
-79.3466151
40
0.4
50
220.7162182
51
579.2837781
0
ARC
8
0
10
192.6865989
20
-96.281925
40
0.4
50
220.7162182
51
579.2837781
0
ARC
8
0
10
178.3287509
20
-77.9608388
40
0.4
50
220.7162182
51
579.2837781
0
ARC
8
0
10
176.8471033
20
-94.8961486
40
0.4
50
220.7162182
51
579.2837781
0
LINE
8
0
10
91.5
20
-108.5
11
125.5
21
-108.5
0
LINE
8
0
10
108.5
20
-108.5
11
108.5
21
-57.5
0
LINE
8
0
10
91.5
20
-91.5
11
125.5
21
-91.5
0
LINE
8
0
10
91.5
20
-108.5
11
91.5
21
-57.5
0
LINE
8
0
10
91.5
20
-74.5
11
125.5
21
-74.5
0
LINE
8
0
10
91.5
20
-57.5
11
125.5
21
-57.5
0
LINE
8
0
10
125.5
20
-108.5
11
125.5
21
-57.5
0
LINE
8
0
10
129.5
20
-100.85
11
146.5
21
-100.85
0
LINE
8
0
10
146.5
20
-100.85
11
146.5
21
-49.85
0
LINE
8
0
10
129.5
20
-83.85
11
146.5
21
-83.85
0
LINE
8
0
10
129.5
20
-100.85
11
129.5
21
-49.85
0
LINE
8
0
10
129.5
20
-66.85
11
146.5
21
-66.85
0
LINE
8
0
10
146.5
20
-49.85
11
129.5
21
-49.85
0
LINE
8
0
10
152.5
20
-102.55
11
169.4838198
21
-103.2915296
0
LINE
8
0
10
169.4838198
20
-103.2915296
11
171.7084086
21
-52.3400702
0
LINE
8
0
10
153.2415296
20
-85.5661802
11
170.2253494
21
-86.3077098
0
LINE
8
0
10
152.5
20
-102.55
11
154.7245888
21
-51.5985406
0
LINE
8
0
10
153.9830592
20
-68.5823604
11
170.966879
21
-69.32389
0
LINE
8
0
10
171.7084086
20
-52.3400702
11
154.7245888
21
-51.5985406
0
LINE
8
0
10
173.5716956
20
-112.8289177
11
190.5070054
21
-114.3105653
0
LINE
8
0
10
190.5070054
20
-114.3105653
11
194.9519482
21
-63.5046357
0
LINE
8
0
10
175.0533432
20
-95.8936078
11
191.988653
21
-97.3752555
0
LINE
8
0
10
175.0533432
20
-95.8936079
11
173.5716956
21
-112.8289177
0
LINE
8
0
10
176.5349908
20
-78.9582979
11
193.4703006
21
-80.4399456
0
LINE
8
0
10
176.5349908
20
-78.958298
11
175.0533432
21
-95.8936078
0
LINE
8
0
10
194.9519482
20
-63.5046357
11
178.0166384
21
-62.0229881
0
LINE
8
0
10
178.0166384
20
-62.0229881
11
176.5349908
21
-78.9582979
0
LINE
8
0
10
207.6209856
20
-113.75
11
211.7471019
21
-66.5882754
0
LINE
8
0
10
192.9146827
20
-86.7906868
11
209.8499926
21
-88.2723345
0
LINE
8
0
10
191.0626232
20
-107.9598242
11
207.9979331
21
-109.4414718
0
LINE
8
0
10
211.7020521
20
-67.1031971
11
194.7667422
21
-65.6215495
0
LINE
8
0
10
88.4233163
20
-139.2255689
11
84.0051929
21
-118.4399324
0
LINE
8
0
10
84.0051929
20
-118.4399324
11
67.3766837
21
-121.9744311
0
LINE
8
0
10
67.3766837
20
-121.9744311
11
71.7948071
21
-142.7600676
0
LINE
8
0
10
71.7948071
20
-142.7600676
11
88.4233163
21
-139.2255689
0
LINE
8
0
10
104.590283
20
-133.6317403
11
101.2660506
21
-112.643363
0
LINE
8
0
10
101.2660506
20
-112.643363
11
84.4753488
21
-115.3027489
0
LINE
8
0
10
84.4753488
20
-115.3027489
11
87.7995812
21
-136.2911262
0
LINE
8
0
10
87.7995812
20
-136.2911262
11
104.590283
21
-133.6317403
0
LINE
8
0
10
120.7733638
20
-130.6056645
11
121.8855029
21
-109.3847869
0
LINE
8
0
10
121.8855029
20
-109.3847869
11
104.9088008
21
-108.4950757
0
LINE
8
0
10
104.9088008
20
-108.4950757
11
103.7966617
21
-129.7159533
0
LINE
8
0
10
103.7966617
20
-129.7159533
11
120.7733638
21
-130.6056645
0
LINE
8
0
10
146.9470011
20
-113.75
11
207.6209856
21
-113.75
0
ARC
8
0
10
140
20
-209.6
40
160
50
63.3576814
51
108.0215691
0
ARC
8
0
10
61.5
20
-2.85
40
140
50
274.1921854
51
307.6137818
0
LINE
8
0
10
71.7
20
-78.5281435
11
71.7
21
-61.5
0
LINE
8
0
10
71.7
20
-61.5
11
90.5
21
-61.5
0
LINE
8
0
10
90.5
20
-61.5
11
90.5000001
21
-57.449581
0
ARC
8
0
10
-128.25
20
-83
40
200
50
348.3828218
51
361.2811993
0
LINE
8
0
10
72.25
20
-95.5
11
90.25
21
-95.5
0
LINE
8
0
10
90.25
20
-95.5
11
90.25
21
-62.5
0
LINE
8
0
10
90.25
20
-62.5
11
72.25
21
-62.5
0
LINE
8
0
10
72.25
20
-62.5
11
72.25
21
-95.5
0
CIRCLE
8
0
10
88.25
20
-102.5
40
1.075
0
CIRCLE
8
0
10
74.25
20
-102.5
40
1.075
0
CIRCLE
8
0
10
74.25
20
-116.5
40
1.075
0
CIRCLE
8
0
10
149.95
20
-85.35
40
1.075
0
CIRCLE
8
0
10
172.45
20
-62.85
40
1.075
0
CIRCLE
8
0
10
172.45
20
-107.85
40
1.075
0
CIRCLE
8
0
10
127.45
20
-62.85
40
1.075
0
CIRCLE
8
0
10
127.45
20
-107.85
40
1.075
0
CIRCLE
8
0
10
85.7589521
20
-127.8818184
40
1.075
0
CIRCLE
8
0
10
108.5
20
-74.5
40
1.075
0
CIRCLE
8
0
10
108.5
20
-91.5
40
1.075
0
CIRCLE
8
0
10
192.9223935
20
-80.3920099
40
1.075
0
CIRCLE
8
0
10
191.4407459
20
-97.3273198
40
1.075
0
CIRCLE
8
0
10
177.0828979
20
-79.0062335
40
1.075
0
CIRCLE
8
0
10
175.6012503
20
-95.9415434
40
1.075
0
CIRCLE
8
0
10
88.25
20
-102.5
40
1.65
0
CIRCLE
8
0
10
74.25
20
-102.5
40
1.65
0
CIRCLE
8
0
10
85.7589521
20
-127.8818184
40
1.65
0
CIRCLE
8
0
10
108.5
20
-74.5
40
1.65
0
CIRCLE
8
0
10
108.5
20
-91.5
40
1.65
0
CIRCLE
8
0
10
192.9223935
20
-80.3920099
40
1.65
0
CIRCLE
8
0
10
191.4407459
20
-97.3273198
40
1.65
0
CIRCLE
8
0
10
177.0828979
20
-79.0062335
40
1.65
0
CIRCLE
8
0
10
175.6012503
20
-95.9415434
40
1.65
0
LINE
8
0
10
92.5
20
-107.5
11
107.5
21
-107.5
0
LINE
8
0
10
107.5
20
-107.5
11
107.5
21
-92.5
0
LINE
8
0
10
107.5
20
-92.5
11
92.5
21
-92.5
0
LINE
8
0
10
92.5
20
-92.5
11
92.5
21
-107.5
0
LINE
8
0
10
92.5
20
-90.5
11
107.5
21
-90.5
0
LINE
8
0
10
107.5
20
-90.5
11
107.5
21
-75.5
0
LINE
8
0
10
107.5
20
-75.5
11
92.5
21
-75.5
0
LINE
8
0
10
92.5
20
-75.5
11
92.5
21
-90.5
0
LINE
8
0
10
92.5
20
-73.5
11
107.5
21
-73.5
0
LINE
8
0
10
107.5
20
-73.5
11
107.5
21
-58.5
0
LINE
8
0
10
107.5
20
-58.5
11
92.5
21
-58.5
0
LINE
8
0
10
92.5
20
-58.5
11
92.5
21
-73.5
0
LINE
8
0
10
109.5
20
-107.5
11
124.5
21
-107.5
0
LINE
8
0
10
124.5
20
-107.5
11
124.5
21
-92.5
0
LINE
8
0
10
124.5
20
-92.5
11
109.5
21
-92.5
0
LINE
8
0
10
109.5
20
-92.5
11
109.5
21
-107.5
0
LINE
8
0
10
109.5
20
-90.5
11
124.5
21
-90.5
0
LINE
8
0
10
124.5
20
-90.5
11
124.5
21
-75.5
0
LINE
8
0
10
124.5
20
-75.5
11
109.5
21
-75.5
0
LINE
8
0
10
109.5
20
-75.5
11
109.5
21
-90.5
0
LINE
8
0
10
109.5
20
-73.5
11
124.5
21
-73.5
0
LINE
8
0
10
124.5
20
-73.5
11
124.5
21
-58.5
0
LINE
8
0
10
124.5
20
-58.5
11
109.5
21
-58.5
0
LINE
8
0
10
109.5
20
-58.5
11
109.5
21
-73.5
0
LINE
8
0
10
130.5
20
-99.85
11
145.5
21
-99.85
0
LINE
8
0
10
145.5
20
-99.85
11
145.5
21
-84.85
0
LINE
8
0
10
145.5
20
-84.85
11
130.5
21
-84.85
0
LINE
8
0
10
130.5
20
-84.85
11
130.5
21
-99.85
0
LINE
8
0
10
130.5
20
-82.85
11
145.5
21
-82.85
0
LINE
8
0
10
145.5
20
-82.85
11
145.5
21
-67.85
0
LINE
8
0
10
145.5
20
-67.85
11
130.5
21
-67.85
0
LINE
8
0
10
130.5
20
-67.85
11
130.5
21
-82.85
0
LINE
8
0
10
130.5
20
-65.85
11
145.5
21
-65.85
0
LINE
8
0
10
145.5
20
-65.85
11
145.5
21
-50.85
0
LINE
8
0
10
145.5
20
-50.85
11
130.5
21
-50.85
0
LINE
8
0
10
130.5
20
-50.85
11
130.5
21
-65.85
0
LINE
8
0
10
153.5426676
20
-101.5945712
11
168.528391
21
-102.248862
0
LINE
8
0
10
168.528391
20
-102.248862
11
169.1826818
21
-87.2631386
0
LINE
8
0
10
169.1826818
20
-87.2631386
11
154.1969584
21
-86.6088478
0
LINE
8
0
10
154.1969584
20
-86.6088478
11
153.5426676
21
-101.5945712
0
LINE
8
0
10
154.2841972
20
-84.6107514
11
169.2699206
21
-85.2650422
0
LINE
8
0
10
169.2699206
20
-85.2650422
11
169.9242114
21
-70.2793188
0
LINE
8
0
10
169.9242114
20
-70.2793188
11
154.938488
21
-69.625028
0
LINE
8
0
10
154.938488
20
-69.625028
11
154.2841972
21
-84.6107514
0
LINE
8
0
10
155.0257268
20
-67.6269316
11
170.0114502
21
-68.2812224
0
LINE
8
0
10
170.0114502
20
-68.2812224
11
170.665741
21
-53.295499
0
LINE
8
0
10
170.665741
20
-53.295499
11
155.6800176
21
-52.6412082
0
LINE
8
0
10
155.6800176
20
-52.6412082
11
155.0257268
21
-67.6269316
0
LINE
8
0
10
174.655046
20
-111.9198788
11
189.5979665
21
-113.2272149
0
LINE
8
0
10
189.5979665
20
-113.2272149
11
190.9053026
21
-98.2842944
0
LINE
8
0
10
190.9053026
20
-98.2842944
11
175.9623821
21
-96.9769583
0
LINE
8
0
10
175.9623821
20
-96.9769583
11
174.655046
21
-111.9198788
0
LINE
8
0
10
176.1366936
20
-94.9845689
11
191.0796141
21
-96.291905
0
LINE
8
0
10
191.0796141
20
-96.291905
11
192.3869502
21
-81.3489845
0
LINE
8
0
10
192.3869502
20
-81.3489845
11
177.4440297
21
-80.0416484
0
LINE
8
0
10
177.4440297
20
-80.0416484
11
176.1366936
21
-94.9845689
0
LINE
8
0
10
177.6183412
20
-78.049259
11
192.5612617
21
-79.3565951
0
LINE
8
0
10
192.5612617
20
-79.3565951
11
193.8685978
21
-64.4136746
0
LINE
8
0
10
193.8685978
20
-64.4136746
11
178.9256773
21
-63.1063385
0
LINE
8
0
10
178.9256773
20
-63.1063385
11
177.6183412
21
-78.049259
0
LINE
8
0
10
207.2741001
20
-106.2412076
11
208.5814362
21
-91.2982871
0
LINE
8
0
10
208.5814362
20
-91.2982871
11
193.6385157
21
-89.990951
0
LINE
8
0
10
193.6385157
20
-89.990951
11
192.3311796
21
-104.9338715
0
LINE
8
0
10
192.3311796
20
-104.9338715
11
207.2741001
21
-106.2412076
0
LINE
8
0
10
209.1261596
20
-85.0720703
11
210.4334957
21
-70.1291498
0
LINE
8
0
10
210.4334957
20
-70.1291498
11
195.4905752
21
-68.8218137
0
LINE
8
0
10
195.4905752
20
-68.8218137
11
194.1832391
21
-83.7647342
0
LINE
8
0
10
194.1832391
20
-83.7647342
11
209.1261596
21
-85.0720703
0
LINE
8
0
10
86.7954447
20
-136.3767693
11
83.6767693
21
-121.7045553
0
LINE
8
0
10
83.6767693
20
-121.7045553
11
69.0045553
21
-124.8232307
0
LINE
8
0
10
69.0045553
20
-124.8232307
11
72.1232307
21
-139.4954447
0
LINE
8
0
10
72.1232307
20
-139.4954447
11
86.7954447
21
-136.3767693
0
LINE
8
0
10
103.1137369
20
-130.7016487
11
100.76722
21
-115.8863236
0
LINE
8
0
10
100.76722
20
-115.8863236
11
85.9518949
21
-118.2328405
0
LINE
8
0
10
85.9518949
20
-118.2328405
11
88.2984118
21
-133.0481656
0
LINE
8
0
10
88.2984118
20
-133.0481656
11
103.1137369
21
-130.7016487
0
LINE
8
0
10
119.9382841
20
-127.4326113
11
120.7233235
21
-112.4531683
0
LINE
8
0
10
120.7233235
20
-112.4531683
11
105.7438805
21
-111.6681289
0
LINE
8
0
10
105.7438805
20
-111.6681289
11
104.9588411
21
-126.6475719
0
LINE
8
0
10
104.9588411
20
-126.6475719
11
119.9382841
21
-127.4326113
0
LINE
8
0
10
93.1
20
-106.9
11
106.9
21
-106.9
0
LINE
8
0
10
106.9
20
-106.9
11
106.9
21
-93.1
0
LINE
8
0
10
106.9
20
-93.1
11
93.1
21
-93.1
0
LINE
8
0
10
93.1
20
-93.1
11
93.1
21
-106.9
0
LINE
8
0
10
93.1
20
-89.9
11
106.9
21
-89.9
0
LINE
8
0
10
106.9
20
-89.9
11
106.9
21
-76.1
0
LINE
8
0
10
106.9
20
-76.1
11
93.1
21
-76.1
0
LINE
8
0
10
93.1
20
-76.1
11
93.1
21
-89.9
0
LINE
8
0
10
93.1
20
-72.9
11
106.9
21
-72.9
0
LINE
8
0
10
106.9
20
-72.9
11
106.9
21
-59.1
0
LINE
8
0
10
106.9
20
-59.1
11
93.1
21
-59.1
0
LINE
8
0
10
93.1
20
-59.1
11
93.1
21
-72.9
0
LINE
8
0
10
110.1
20
-106.9
11
123.9
21
-106.9
0
LINE
8
0
10
123.9
20
-106.9
11
123.9
21
-93.1
0
LINE
8
0
10
123.9
20
-93.1
11
110.1
21
-93.1
0
LINE
8
0
10
110.1
20
-93.1
11
110.1
21
-106.9
0
LINE
8
0
10
110.1
20
-89.9
11
123.9
21
-89.9
0
LINE
8
0
10
123.9
20
-89.9
11
123.9
21
-76.1
0
LINE
8
0
10
123.9
20
-76.1
11
110.1
21
-76.1
0
LINE
8
0
10
110.1
20
-76.1
11
110.1
21
-89.9
0
LINE
8
0
10
110.1
20
-72.9
11
123.9
21
-72.9
0
LINE
8
0
10
123.9
20
-72.9
11
123.9
21
-59.1
0
LINE
8
0
10
123.9
20
-59.1
11
110.1
21
-59.1
0
LINE
8
0
10
110.1
20
-59.1
11
110.1
21
-72.9
0
LINE
8
0
10
131.1
20
-99.25
11
144.9
21
-99.25
0
LINE
8
0
10
144.9
20
-99.25
11
144.9
21
-85.45
0
LINE
8
0
10
144.9
20
-85.45
11
131.1
21
-85.45
0
LINE
8
0
10
131.1
20
-85.45
11
131.1
21
-99.25
0
LINE
8
0
10
131.1
20
-82.25
11
144.9
21
-82.25
0
LINE
8
0
10
144.9
20
-82.25
11
144.9
21
-68.45
0
LINE
8
0
10
144.9
20
-68.45
11
131.1
21
-68.45
0
LINE
8
0
10
131.1
20
-68.45
11
131.1
21
-82.25
0
LINE
8
0
10
131.1
20
-65.25
11
144.9
21
-65.25
0
LINE
8
0
10
144.9
20
-65.25
11
144.9
21
-51.45
0
LINE
8
0
10
144.9
20
-51.45
11
131.1
21
-51.45
0
LINE
8
0
10
131.1
20
-51.45
11
131.1
21
-65.25
0
LINE
8
0
10
154.1682682
20
-101.0213139
11
167.9551337
21
-101.6232614
0
LINE
8
0
10
167.9551337
20
-101.6232614
11
168.5570812
21
-87.8363959
0
LINE
8
0
10
168.5570812
20
-87.8363959
11
154.7702157
21
-87.2344484
0
LINE
8
0
10
154.7702157
20
-87.2344484
11
154.1682682
21
-101.0213139
0
LINE
8
0
10
154.9097978
20
-84.0374941
11
168.6966633
21
-84.6394416
0
LINE
8
0
10
168.6966633
20
-84.6394416
11
169.2986108
21
-70.8525761
0
LINE
8
0
10
169.2986108
20
-70.8525761
11
155.5117453
21
-70.2506286
0
LINE
8
0
10
155.5117453
20
-70.2506286
11
154.9097978
21
-84.0374941
0
LINE
8
0
10
155.6513274
20
-67.0536743
11
169.4381929
21
-67.6556218
0
LINE
8
0
10
169.4381929
20
-67.6556218
11
170.0401404
21
-53.8687563
0
LINE
8
0
10
170.0401404
20
-53.8687563
11
156.2532749
21
-53.2668088
0
LINE
8
0
10
156.2532749
20
-53.2668088
11
155.6513274
21
-67.0536743
0
LINE
8
0
10
175.3050563
20
-111.3744554
11
189.0525431
21
-112.5772046
0
LINE
8
0
10
189.0525431
20
-112.5772046
11
190.2552923
21
-98.8297178
0
LINE
8
0
10
190.2552923
20
-98.8297178
11
176.5078055
21
-97.6269686
0
LINE
8
0
10
176.5078055
20
-97.6269686
11
175.3050563
21
-111.3744554
0
LINE
8
0
10
176.7867039
20
-94.4391455
11
190.5341907
21
-95.6418947
0
LINE
8
0
10
190.5341907
20
-95.6418947
11
191.7369399
21
-81.8944079
0
LINE
8
0
10
191.7369399
20
-81.8944079
11
177.9894531
21
-80.6916587
0
LINE
8
0
10
177.9894531
20
-80.6916587
11
176.7867039
21
-94.4391455
0
LINE
8
0
10
178.2683515
20
-77.5038356
11
192.0158383
21
-78.7065848
0
LINE
8
0
10
192.0158383
20
-78.7065848
11
193.2185875
21
-64.959098
0
LINE
8
0
10
193.2185875
20
-64.959098
11
179.4711007
21
-63.7563488
0
LINE
8
0
10
179.4711007
20
-63.7563488
11
178.2683515
21
-77.5038356
0
LINE
8
0
10
206.7286767
20
-105.5911973
11
207.9314259
21
-91.8437105
0
LINE
8
0
10
207.9314259
20
-91.8437105
11
194.1839391
21
-90.6409613
0
LINE
8
0
10
194.1839391
20
-90.6409613
11
192.9811899
21
-104.3884481
0
LINE
8
0
10
192.9811899
20
-104.3884481
11
206.7286767
21
-105.5911973
0
LINE
8
0
10
208.5807362
20
-84.42206
11
209.7834854
21
-70.6745732
0
LINE
8
0
10
209.7834854
20
-70.6745732
11
196.0359986
21
-69.471824
0
LINE
8
0
10
196.0359986
20
-69.471824
11
194.8332494
21
-83.2193108
0
LINE
8
0
10
194.8332494
20
-83.2193108
11
208.5807362
21
-84.42206
0
LINE
8
0
10
86.0838091
20
-135.9146278
11
83.2146278
21
-122.4161909
0
LINE
8
0
10
83.2146278
20
-122.4161909
11
69.7161909
21
-125.2853722
0
LINE
8
0
10
69.7161909
20
-125.2853722
11
72.5853722
21
-138.7838091
0
LINE
8
0
10
72.5853722
20
-138.7838091
11
86.0838091
21
-135.9146278
0
LINE
8
0
10
102.4272633
20
-130.2028963
11
100.2684676
21
-116.5727972
0
LINE
8
0
10
100.2684676
20
-116.5727972
11
86.6383685
21
-118.7315929
0
LINE
8
0
10
86.6383685
20
-118.7315929
11
88.7971642
21
-132.361692
0
LINE
8
0
10
88.7971642
20
-132.361692
11
102.4272633
21
-130.2028963
0
LINE
8
0
10
119.370508
20
-126.802032
11
120.0927442
21
-113.0209444
0
LINE
8
0
10
120.0927442
20
-113.0209444
11
106.3116566
21
-112.2987082
0
LINE
8
0
10
106.3116566
20
-112.2987082
11
105.5894204
21
-126.0797958
0
LINE
8
0
10
105.5894204
20
-126.0797958
11
119.370508
21
-126.802032
0
LINE
8
0
10
74.25
20
-98.1
11
88.25
21
-98.1
0
LINE
8
0
10
88.25
20
-98.1
11
88.25
21
-62.1
0
LINE
8
0
10
74.25
20
-62.1
11
88.25
21
-62.1
0
LINE
8
0
10
74.25
20
-62.1
11
74.25
21
-98.1
0
LINE
8
0
10
75.25
20
-100.1
11
87.25
21
-100.1
0
LINE
8
0
10
87.25
20
-100.1
11
87.25
21
-62.1
0
LINE
8
0
10
75.25
20
-62.1
11
75.25
21
-100.1
0
LINE
8
0
10
87.66
20
-98.1
11
87.66
21
-95.5
0
LINE
8
0
10
74.84
20
-95.5
11
74.84
21
-98.1
0
LINE
8
0
10
86.39
20
-100.1
11
86.39
21
-97.5
0
LINE
8
0
10
86.39
20
-97.5
11
76.11
21
-97.5
0
LINE
8
0
10
76.11
20
-97.5
11
76.11
21
-100.1
0
ENDSEC
0
EOF