<?xml version="1.0"?>
<svg
  xmlns="http://www.w3.org/2000/svg"
  xmlns:xlink="http://www.w3.org/1999/xlink" version="1.1"
  preserveAspectRatio="xMinYMin meet"
  viewBox="52.5 33.5 158.8827416 124"
  width="100%" height="100%"
>
  <g stroke="#000000" stroke-width="0.1%" fill="none" transform="matrix(1,0,0,-1,0,0)">
    <g stroke="rgb(0, 0, 0)"><path d="M52.5,-38.5L57.5,-38.5" /></g>
<g stroke="rgb(0, 0, 0)"><path d="M57.5,-38.5L57.5,-33.5" /></g>
<g stroke="rgb(0, 0, 0)"><path d="M57.5,-33.5L52.5,-33.5" /></g>
<g stroke="rgb(0, 0, 0)"><path d="M52.5,-33.5L52.5,-38.5" /></g>
<g stroke="rgb(0, 0, 0)"><path d="M52.5,-157.5L57.5,-157.5" /></g>
<g stroke="rgb(0, 0, 0)"><path d="M57.5,-157.5L57.5,-152.5" /></g>
<g stroke="rgb(0, 0, 0)"><path d="M57.5,-152.5L52.5,-152.5" /></g>
<g stroke="rgb(0, 0, 0)"><path d="M52.5,-152.5L52.5,-157.5" /></g>
<g stroke="rgb(0, 0, 0)"><path d="M91.5,-108.5L125.5,-108.5" /></g>
<g stroke="rgb(0, 0, 0)"><path d="M108.5,-108.5L108.5,-57.5" /></g>
<g stroke="rgb(0, 0, 0)"><path d="M91.5,-91.5L125.5,-91.5" /></g>
<g stroke="rgb(0, 0, 0)"><path d="M91.5,-108.5L91.5,-57.5" /></g>
<g stroke="rgb(0, 0, 0)"><path d="M91.5,-74.5L125.5,-74.5" /></g>
<g stroke="rgb(0, 0, 0)"><path d="M91.5,-57.5L125.5,-57.5" /></g>
<g stroke="rgb(0, 0, 0)"><path d="M125.5,-108.5L125.5,-57.5" /></g>
<g stroke="rgb(0, 0, 0)"><path d="M129.5,-100.85L146.5,-100.85" /></g>
<g stroke="rgb(0, 0, 0)"><path d="M146.5,-100.85L146.5,-49.85" /></g>
<g stroke="rgb(0, 0, 0)"><path d="M129.5,-83.85L146.5,-83.85" /></g>
<g stroke="rgb(0, 0, 0)"><path d="M129.5,-100.85L129.5,-49.85" /></g>
<g stroke="rgb(0, 0, 0)"><path d="M129.5,-66.85L146.5,-66.85" /></g>
<g stroke="rgb(0, 0, 0)"><path d="M146.5,-49.85L129.5,-49.85" /></g>
<g stroke="rgb(0, 0, 0)"><path d="M152.5,-102.55L169.4838198,-103.2915296" /></g>
<g stroke="rgb(0, 0, 0)"><path d="M169.4838198,-103.2915296L171.7084086,-52.3400702" /></g>
<g stroke="rgb(0, 0, 0)"><path d="M153.2415296,-85.5661802L170.2253494,-86.3077098" /></g>
<g stroke="rgb(0, 0, 0)"><path d="M152.5,-102.55L154.7245888,-51.5985406" /></g>
<g stroke="rgb(0, 0, 0)"><path d="M153.9830592,-68.5823604L170.966879,-69.32389" /></g>
<g stroke="rgb(0, 0, 0)"><path d="M171.7084086,-52.3400702L154.7245888,-51.5985406" /></g>
<g stroke="rgb(0, 0, 0)"><path d="M173.2258915,-112.4346037L190.1612013,-113.9162513" /></g>
<g stroke="rgb(0, 0, 0)"><path d="M190.1612013,-113.9162513L194.6061441,-63.1103217" /></g>
<g stroke="rgb(0, 0, 0)"><path d="M174.7075391,-95.4992938L191.6428489,-96.9809415" /></g>
<g stroke="rgb(0, 0, 0)"><path d="M174.7075391,-95.4992939L173.2258915,-112.4346037" /></g>
<g stroke="rgb(0, 0, 0)"><path d="M176.1891867,-78.5639839L193.1244965,-80.0456316" /></g>
<g stroke="rgb(0, 0, 0)"><path d="M176.1891867,-78.563984L174.7075391,-95.4992938" /></g>
<g stroke="rgb(0, 0, 0)"><path d="M194.6061441,-63.1103217L177.6708343,-61.6286741" /></g>
<g stroke="rgb(0, 0, 0)"><path d="M177.6708343,-61.6286741L176.1891867,-78.5639839" /></g>
<g stroke="rgb(0, 0, 0)"><path d="M190.7168191,-107.5655102L207.652129,-109.0471578" /></g>
<g stroke="rgb(0, 0, 0)"><path d="M207.175067,-114.5L211.3827416,-66.4060609" /></g>
<g stroke="rgb(0, 0, 0)"><path d="M192.5688786,-86.3963728L209.5041885,-87.8780205" /></g>
<g stroke="rgb(0, 0, 0)"><path d="M211.356248,-66.7088831L194.4209381,-65.2272355" /></g>
<g stroke="rgb(0, 0, 0)"><path d="M71.7948071,-142.7600676L88.4233163,-139.2255689" /></g>
<g stroke="rgb(0, 0, 0)"><path d="M88.4233163,-139.2255689L84.0051929,-118.4399324" /></g>
<g stroke="rgb(0, 0, 0)"><path d="M84.0051929,-118.4399324L67.3766837,-121.9744311" /></g>
<g stroke="rgb(0, 0, 0)"><path d="M67.3766837,-121.9744311L71.7948071,-142.7600676" /></g>
<g stroke="rgb(0, 0, 0)"><path d="M87.6901921,-136.3114002L104.4808939,-133.6520143" /></g>
<g stroke="rgb(0, 0, 0)"><path d="M104.4808939,-133.6520143L101.1566615,-112.663637" /></g>
<g stroke="rgb(0, 0, 0)"><path d="M101.1566615,-112.663637L84.3659597,-115.3230229" /></g>
<g stroke="rgb(0, 0, 0)"><path d="M84.3659597,-115.3230229L87.6901921,-136.3114002" /></g>
<g stroke="rgb(0, 0, 0)"><path d="M103.4932928,-129.7725612L120.4699949,-130.6622724" /></g>
<g stroke="rgb(0, 0, 0)"><path d="M120.4699949,-130.6622724L121.582134,-109.4413948" /></g>
<g stroke="rgb(0, 0, 0)"><path d="M121.582134,-109.4413948L104.6054319,-108.5516836" /></g>
<g stroke="rgb(0, 0, 0)"><path d="M104.6054319,-108.5516836L103.4932928,-129.7725612" /></g>
<g stroke="rgb(0, 0, 0)"><path d="M98.9428754,-101.0641957L100.8707149,-99.1363561" /></g>
<g stroke="rgb(0, 0, 0)"><path d="M100.8636439,-99.1292851L98.9358043,-101.0571246" /></g>
<g stroke="rgb(0, 0, 0)"><path d="M98.9358043,-101.0571246L98.9428754,-101.0641957" /></g>
<g stroke="rgb(0, 0, 0)"><path d="M98.9428754,-84.0641957L100.8707149,-82.1363561" /></g>
<g stroke="rgb(0, 0, 0)"><path d="M100.8636439,-82.1292851L98.9358043,-84.0571246" /></g>
<g stroke="rgb(0, 0, 0)"><path d="M98.9358043,-84.0571246L98.9428754,-84.0641957" /></g>
<g stroke="rgb(0, 0, 0)"><path d="M98.9428754,-67.0641957L100.8707149,-65.1363561" /></g>
<g stroke="rgb(0, 0, 0)"><path d="M100.8636439,-65.1292851L98.9358043,-67.0571246" /></g>
<g stroke="rgb(0, 0, 0)"><path d="M98.9358043,-67.0571246L98.9428754,-67.0641957" /></g>
<g stroke="rgb(0, 0, 0)"><path d="M115.9428754,-101.0641957L117.8707149,-99.1363561" /></g>
<g stroke="rgb(0, 0, 0)"><path d="M117.8636439,-99.1292851L115.9358043,-101.0571246" /></g>
<g stroke="rgb(0, 0, 0)"><path d="M115.9358043,-101.0571246L115.9428754,-101.0641957" /></g>
<g stroke="rgb(0, 0, 0)"><path d="M115.9428754,-84.0641957L117.8707149,-82.1363561" /></g>
<g stroke="rgb(0, 0, 0)"><path d="M117.8636439,-82.1292851L115.9358043,-84.0571246" /></g>
<g stroke="rgb(0, 0, 0)"><path d="M115.9358043,-84.0571246L115.9428754,-84.0641957" /></g>
<g stroke="rgb(0, 0, 0)"><path d="M115.9428754,-67.0641957L117.8707149,-65.1363561" /></g>
<g stroke="rgb(0, 0, 0)"><path d="M117.8636439,-65.1292851L115.9358043,-67.0571246" /></g>
<g stroke="rgb(0, 0, 0)"><path d="M115.9358043,-67.0571246L115.9428754,-67.0641957" /></g>
<g stroke="rgb(0, 0, 0)"><path d="M136.9428754,-93.4141957L138.8707149,-91.4863561" /></g>
<g stroke="rgb(0, 0, 0)"><path d="M138.8636439,-91.4792851L136.9358043,-93.4071246" /></g>
<g stroke="rgb(0, 0, 0)"><path d="M136.9358043,-93.4071246L136.9428754,-93.4141957" /></g>
<g stroke="rgb(0, 0, 0)"><path d="M136.9428754,-76.4141957L138.8707149,-74.4863561" /></g>
<g stroke="rgb(0, 0, 0)"><path d="M138.8636439,-74.4792851L136.9358043,-76.4071246" /></g>
<g stroke="rgb(0, 0, 0)"><path d="M136.9358043,-76.4071246L136.9428754,-76.4141957" /></g>
<g stroke="rgb(0, 0, 0)"><path d="M136.9428754,-59.4141957L138.8707149,-57.4863561" /></g>
<g stroke="rgb(0, 0, 0)"><path d="M138.8636439,-57.4792851L136.9358043,-59.4071246" /></g>
<g stroke="rgb(0, 0, 0)"><path d="M136.9358043,-59.4071246L136.9428754,-59.4141957" /></g>
<g stroke="rgb(0, 0, 0)"><path d="M160.2601366,-95.4459266L162.2702325,-93.604013" /></g>
<g stroke="rgb(0, 0, 0)"><path d="M162.2634766,-93.5966403L160.2533807,-95.4385538" /></g>
<g stroke="rgb(0, 0, 0)"><path d="M160.2533807,-95.4385538L160.2601366,-95.4459266" /></g>
<g stroke="rgb(0, 0, 0)"><path d="M161.0016662,-78.4621068L163.0117621,-76.6201932" /></g>
<g stroke="rgb(0, 0, 0)"><path d="M163.0050062,-76.6128205L160.9949103,-78.454734" /></g>
<g stroke="rgb(0, 0, 0)"><path d="M160.9949103,-78.454734L161.0016662,-78.4621068" /></g>
<g stroke="rgb(0, 0, 0)"><path d="M161.7431958,-61.478287L163.7532917,-59.6363734" /></g>
<g stroke="rgb(0, 0, 0)"><path d="M163.7465358,-59.6290007L161.7364399,-61.4709142" /></g>
<g stroke="rgb(0, 0, 0)"><path d="M161.7364399,-61.4709142L161.7431958,-61.478287" /></g>
<g stroke="rgb(0, 0, 0)"><path d="M181.2885175,-105.6757842L183.3770433,-103.923303" /></g>
<g stroke="rgb(0, 0, 0)"><path d="M183.3706154,-103.9156425L181.2820896,-105.6681238" /></g>
<g stroke="rgb(0, 0, 0)"><path d="M181.2820896,-105.6681238L181.2885175,-105.6757842" /></g>
<g stroke="rgb(0, 0, 0)"><path d="M182.7701651,-88.7404743L184.8586909,-86.9879931" /></g>
<g stroke="rgb(0, 0, 0)"><path d="M184.852263,-86.9803326L182.7637372,-88.7328139" /></g>
<g stroke="rgb(0, 0, 0)"><path d="M182.7637372,-88.7328139L182.7701651,-88.7404743" /></g>
<g stroke="rgb(0, 0, 0)"><path d="M184.2518127,-71.8051644L186.3403385,-70.0526832" /></g>
<g stroke="rgb(0, 0, 0)"><path d="M186.3339106,-70.0450227L184.2453848,-71.797504" /></g>
<g stroke="rgb(0, 0, 0)"><path d="M184.2453848,-71.797504L184.2518127,-71.8051644" /></g>
<g stroke="rgb(0, 0, 0)"><path d="M198.9646511,-98.6897769L201.0531769,-96.9372957" /></g>
<g stroke="rgb(0, 0, 0)"><path d="M201.046749,-96.9296352L198.9582232,-98.6821165" /></g>
<g stroke="rgb(0, 0, 0)"><path d="M198.9582232,-98.6821165L198.9646511,-98.6897769" /></g>
<g stroke="rgb(0, 0, 0)"><path d="M200.8167106,-77.5206396L202.9052364,-75.7681584" /></g>
<g stroke="rgb(0, 0, 0)"><path d="M202.8988085,-75.7604979L200.8102827,-77.5129792" /></g>
<g stroke="rgb(0, 0, 0)"><path d="M200.8102827,-77.5129792L200.8167106,-77.5206396" /></g>
<g stroke="rgb(0, 0, 0)"><path d="M77.0872348,-131.860729L78.5721261,-129.574197" /></g>
<g stroke="rgb(0, 0, 0)"><path d="M78.5637394,-129.5687506L77.0788481,-131.8552827" /></g>
<g stroke="rgb(0, 0, 0)"><path d="M77.0788481,-131.8552827L77.0872348,-131.860729" /></g>
<g stroke="rgb(0, 0, 0)"><path d="M93.545794,-125.703983L95.1483182,-123.4982978" /></g>
<g stroke="rgb(0, 0, 0)"><path d="M95.140228,-123.49242L93.5377038,-125.6981052" /></g>
<g stroke="rgb(0, 0, 0)"><path d="M93.5377038,-125.6981052L93.545794,-125.703983" /></g>
<g stroke="rgb(0, 0, 0)"><path d="M111.4263418,-120.6143896L113.4524346,-118.7900875" /></g>
<g stroke="rgb(0, 0, 0)"><path d="M113.4457433,-118.782656L111.4196505,-120.6069582" /></g>
<g stroke="rgb(0, 0, 0)"><path d="M111.4196505,-120.6069582L111.4263418,-120.6143896" /></g>
<g stroke="rgb(0, 0, 0)"><path d="M53.9428754,-37.0641957L55.8707149,-35.1363561" /></g>
<g stroke="rgb(0, 0, 0)"><path d="M55.8636439,-35.1292851L53.9358043,-37.0571246" /></g>
<g stroke="rgb(0, 0, 0)"><path d="M53.9358043,-37.0571246L53.9428754,-37.0641957" /></g>
<g stroke="rgb(0, 0, 0)"><path d="M53.9428754,-156.0641957L55.8707149,-154.1363561" /></g>
<g stroke="rgb(0, 0, 0)"><path d="M55.8636439,-154.1292851L53.9358043,-156.0571246" /></g>
<g stroke="rgb(0, 0, 0)"><path d="M53.9358043,-156.0571246L53.9428754,-156.0641957" /></g>
<g stroke="rgb(0, 0, 0)"><path d="M89.9428754,-67.9141957L91.8707149,-65.9863561" /></g>
<g stroke="rgb(0, 0, 0)"><path d="M91.8636439,-65.9792851L89.9358043,-67.9071246" /></g>
<g stroke="rgb(0, 0, 0)"><path d="M89.9358043,-67.9071246L89.9428754,-67.9141957" /></g>
<g stroke="rgb(0, 0, 0)"><path d="M71.9428754,-67.9141957L73.8707149,-65.9863561" /></g>
<g stroke="rgb(0, 0, 0)"><path d="M73.8636439,-65.9792851L71.9358043,-67.9071246" /></g>
<g stroke="rgb(0, 0, 0)"><path d="M71.9358043,-67.9071246L71.9428754,-67.9141957" /></g>
<g stroke="rgb(0, 0, 0)"><path d="M89.9428754,-101.3141957L91.8707149,-99.3863561" /></g>
<g stroke="rgb(0, 0, 0)"><path d="M91.8636439,-99.3792851L89.9358043,-101.3071246" /></g>
<g stroke="rgb(0, 0, 0)"><path d="M89.9358043,-101.3071246L89.9428754,-101.3141957" /></g>
<g stroke="rgb(0, 0, 0)"><path d="M71.9428754,-101.3141957L73.8707149,-99.3863561" /></g>
<g stroke="rgb(0, 0, 0)"><path d="M73.8636439,-99.3792851L71.9358043,-101.3071246" /></g>
<g stroke="rgb(0, 0, 0)"><path d="M71.9358043,-101.3071246L71.9428754,-101.3141957" /></g>
<g stroke="rgb(0, 0, 0)"><path d="M80.9428754,-84.6141957L82.8707149,-82.6863561" /></g>
<g stroke="rgb(0, 0, 0)"><path d="M82.8636439,-82.6792851L80.9358043,-84.6071246" /></g>
<g stroke="rgb(0, 0, 0)"><path d="M80.9358043,-84.6071246L80.9428754,-84.6141957" /></g>
<g stroke="rgb(0, 0, 0)"><path d="M192.6268646,-73.6044451L194.7153904,-71.851964" /></g>
<g stroke="rgb(0, 0, 0)"><path d="M194.7089625,-71.8443035L192.6204367,-73.5967847" /></g>
<g stroke="rgb(0, 0, 0)"><path d="M192.6204367,-73.5967847L192.6268646,-73.6044451" /></g>
<g stroke="rgb(0, 0, 0)"><path d="M190.9600111,-92.6566688L193.0485369,-90.9041876" /></g>
<g stroke="rgb(0, 0, 0)"><path d="M193.042109,-90.8965271L190.9535832,-92.6490084" /></g>
<g stroke="rgb(0, 0, 0)"><path d="M190.9535832,-92.6490084L190.9600111,-92.6566688" /></g>
<g stroke="rgb(0, 0, 0)"><path d="M107.9428754,-73.4141957L109.8707149,-71.4863561" /></g>
<g stroke="rgb(0, 0, 0)"><path d="M109.8636439,-71.4792851L107.9358043,-73.4071246" /></g>
<g stroke="rgb(0, 0, 0)"><path d="M107.9358043,-73.4071246L107.9428754,-73.4141957" /></g>
<g stroke="rgb(0, 0, 0)"><path d="M106.9428754,-94.7141957L108.8707149,-92.7863561" /></g>
<g stroke="rgb(0, 0, 0)"><path d="M108.8636439,-92.7792851L106.9358043,-94.7071246" /></g>
<g stroke="rgb(0, 0, 0)"><path d="M106.9358043,-94.7071246L106.9428754,-94.7141957" /></g>
<g stroke="rgb(0, 0, 0)"><path d="M86.5197367,-131.7471189L88.004628,-129.4605869" /></g>
<g stroke="rgb(0, 0, 0)"><path d="M87.9962413,-129.4551405L86.51135,-131.7416726" /></g>
<g stroke="rgb(0, 0, 0)"><path d="M86.51135,-131.7416726L86.5197367,-131.7471189" /></g>
<g stroke="rgb(0, 0, 0)"><path d="M87.9428754,-65.5141957L89.8707149,-63.5863561" /></g>
<g stroke="rgb(0, 0, 0)"><path d="M89.8636439,-63.5792851L87.9358043,-65.5071246" /></g>
<g stroke="rgb(0, 0, 0)"><path d="M87.9358043,-65.5071246L87.9428754,-65.5141957" /></g>
<g stroke="rgb(0, 0, 0)"><path d="M74.1570097,-65.3000614L75.8707149,-63.5863561" /></g>
<g stroke="rgb(0, 0, 0)"><path d="M75.8636439,-63.5792851L74.1428653,-65.3000636" /></g>
<g stroke="rgb(0, 0, 0)"><path d="M148.7961315,-85.7456276L150.8086368,-83.9063469" /></g>
<g stroke="rgb(0, 0, 0)"><path d="M150.8018905,-83.8989653L148.7893853,-85.738246" /></g>
<g stroke="rgb(0, 0, 0)"><path d="M148.7893853,-85.738246L148.7961315,-85.7456276" /></g>
<g stroke="rgb(0, 0, 0)"><path d="M149.6519928,-66.714863L151.6644981,-64.8755823" /></g>
<g stroke="rgb(0, 0, 0)"><path d="M151.6577518,-64.8682007L149.6452466,-66.7074814" /></g>
<g stroke="rgb(0, 0, 0)"><path d="M149.6452466,-66.7074814L149.6519928,-66.714863" /></g>
<g stroke="rgb(0, 0, 0)"><path d="M147.9402702,-104.7763922L149.9527755,-102.9371115" /></g>
<g stroke="rgb(0, 0, 0)"><path d="M149.9460292,-102.9297299L147.933524,-104.7690106" /></g>
<g stroke="rgb(0, 0, 0)"><path d="M147.933524,-104.7690106L147.9402702,-104.7763922" /></g>
<g stroke="rgb(0, 0, 0)"><path d="M129.7653669,-84.8897663L131.7778722,-83.0504856" /></g>
<g stroke="rgb(0, 0, 0)"><path d="M131.7711259,-83.043104L129.7586207,-84.8823847" /></g>
<g stroke="rgb(0, 0, 0)"><path d="M129.7586207,-84.8823847L129.7653669,-84.8897663" /></g>
<g stroke="rgb(0, 0, 0)"><path d="M167.8268961,-86.6014889L169.8394014,-84.7622082" /></g>
<g stroke="rgb(0, 0, 0)"><path d="M169.8326551,-84.7548266L167.8201499,-86.5941073" /></g>
<g stroke="rgb(0, 0, 0)"><path d="M167.8201499,-86.5941073L167.8268961,-86.6014889" /></g>
<g stroke="rgb(0, 0, 0)"><path d="M101.0571246,-101.0641957L101.0641957,-101.0571246" /></g>
<g stroke="rgb(0, 0, 0)"><path d="M101.0641957,-101.0571246L98.9428754,-98.9358043" /></g>
<g stroke="rgb(0, 0, 0)"><path d="M98.9428754,-98.9358043L98.9358043,-98.9428754" /></g>
<g stroke="rgb(0, 0, 0)"><path d="M98.9358043,-98.9428754L101.0571246,-101.0641957" /></g>
<g stroke="rgb(0, 0, 0)"><path d="M101.0571246,-84.0641957L101.0641957,-84.0571246" /></g>
<g stroke="rgb(0, 0, 0)"><path d="M101.0641957,-84.0571246L98.9428754,-81.9358043" /></g>
<g stroke="rgb(0, 0, 0)"><path d="M98.9428754,-81.9358043L98.9358043,-81.9428754" /></g>
<g stroke="rgb(0, 0, 0)"><path d="M98.9358043,-81.9428754L101.0571246,-84.0641957" /></g>
<g stroke="rgb(0, 0, 0)"><path d="M101.0571246,-67.0641957L101.0641957,-67.0571246" /></g>
<g stroke="rgb(0, 0, 0)"><path d="M101.0641957,-67.0571246L98.9428754,-64.9358043" /></g>
<g stroke="rgb(0, 0, 0)"><path d="M98.9428754,-64.9358043L98.9358043,-64.9428754" /></g>
<g stroke="rgb(0, 0, 0)"><path d="M98.9358043,-64.9428754L101.0571246,-67.0641957" /></g>
<g stroke="rgb(0, 0, 0)"><path d="M118.0571246,-101.0641957L118.0641957,-101.0571246" /></g>
<g stroke="rgb(0, 0, 0)"><path d="M118.0641957,-101.0571246L115.9428754,-98.9358043" /></g>
<g stroke="rgb(0, 0, 0)"><path d="M115.9428754,-98.9358043L115.9358043,-98.9428754" /></g>
<g stroke="rgb(0, 0, 0)"><path d="M115.9358043,-98.9428754L118.0571246,-101.0641957" /></g>
<g stroke="rgb(0, 0, 0)"><path d="M118.0571246,-84.0641957L118.0641957,-84.0571246" /></g>
<g stroke="rgb(0, 0, 0)"><path d="M118.0641957,-84.0571246L115.9428754,-81.9358043" /></g>
<g stroke="rgb(0, 0, 0)"><path d="M115.9428754,-81.9358043L115.9358043,-81.9428754" /></g>
<g stroke="rgb(0, 0, 0)"><path d="M115.9358043,-81.9428754L118.0571246,-84.0641957" /></g>
<g stroke="rgb(0, 0, 0)"><path d="M118.0571246,-67.0641957L118.0641957,-67.0571246" /></g>
<g stroke="rgb(0, 0, 0)"><path d="M118.0641957,-67.0571246L115.9428754,-64.9358043" /></g>
<g stroke="rgb(0, 0, 0)"><path d="M115.9428754,-64.9358043L115.9358043,-64.9428754" /></g>
<g stroke="rgb(0, 0, 0)"><path d="M115.9358043,-64.9428754L118.0571246,-67.0641957" /></g>
<g stroke="rgb(0, 0, 0)"><path d="M139.0571246,-93.4141957L139.0641957,-93.4071246" /></g>
<g stroke="rgb(0, 0, 0)"><path d="M139.0641957,-93.4071246L136.9428754,-91.2858043" /></g>
<g stroke="rgb(0, 0, 0)"><path d="M136.9428754,-91.2858043L136.9358043,-91.2928754" /></g>
<g stroke="rgb(0, 0, 0)"><path d="M136.9358043,-91.2928754L139.0571246,-93.4141957" /></g>
<g stroke="rgb(0, 0, 0)"><path d="M139.0571246,-76.4141957L139.0641957,-76.4071246" /></g>
<g stroke="rgb(0, 0, 0)"><path d="M139.0641957,-76.4071246L136.9428754,-74.2858043" /></g>
<g stroke="rgb(0, 0, 0)"><path d="M136.9428754,-74.2858043L136.9358043,-74.2928754" /></g>
<g stroke="rgb(0, 0, 0)"><path d="M136.9358043,-74.2928754L139.0571246,-76.4141957" /></g>
<g stroke="rgb(0, 0, 0)"><path d="M139.0571246,-59.4141957L139.0641957,-59.4071246" /></g>
<g stroke="rgb(0, 0, 0)"><path d="M139.0641957,-59.4071246L136.9428754,-57.2858043" /></g>
<g stroke="rgb(0, 0, 0)"><path d="M136.9428754,-57.2858043L136.9358043,-57.2928754" /></g>
<g stroke="rgb(0, 0, 0)"><path d="M136.9358043,-57.2928754L139.0571246,-59.4141957" /></g>
<g stroke="rgb(0, 0, 0)"><path d="M162.3723736,-95.5381489L162.3797464,-95.531393" /></g>
<g stroke="rgb(0, 0, 0)"><path d="M162.3797464,-95.531393L160.3529758,-93.3195609" /></g>
<g stroke="rgb(0, 0, 0)"><path d="M160.3529758,-93.3195609L160.345603,-93.3263168" /></g>
<g stroke="rgb(0, 0, 0)"><path d="M160.345603,-93.3263168L162.3723736,-95.5381489" /></g>
<g stroke="rgb(0, 0, 0)"><path d="M163.1139032,-78.5543291L163.121276,-78.5475732" /></g>
<g stroke="rgb(0, 0, 0)"><path d="M163.121276,-78.5475732L161.0945054,-76.3357411" /></g>
<g stroke="rgb(0, 0, 0)"><path d="M161.0945054,-76.3357411L161.0871326,-76.342497" /></g>
<g stroke="rgb(0, 0, 0)"><path d="M161.0871326,-76.342497L163.1139032,-78.5543291" /></g>
<g stroke="rgb(0, 0, 0)"><path d="M163.8554328,-61.5705093L163.8628056,-61.5637534" /></g>
<g stroke="rgb(0, 0, 0)"><path d="M163.8628056,-61.5637534L161.836035,-59.3519213" /></g>
<g stroke="rgb(0, 0, 0)"><path d="M161.836035,-59.3519213L161.8286622,-59.3586772" /></g>
<g stroke="rgb(0, 0, 0)"><path d="M161.8286622,-59.3586772L163.8554328,-61.5705093" /></g>
<g stroke="rgb(0, 0, 0)"><path d="M183.3947214,-105.8600532L183.4023818,-105.8536253" /></g>
<g stroke="rgb(0, 0, 0)"><path d="M183.4023818,-105.8536253L181.474019,-103.555492" /></g>
<g stroke="rgb(0, 0, 0)"><path d="M181.474019,-103.555492L181.4663586,-103.5619199" /></g>
<g stroke="rgb(0, 0, 0)"><path d="M181.4663586,-103.5619199L183.3947214,-105.8600532" /></g>
<g stroke="rgb(0, 0, 0)"><path d="M184.876369,-88.9247433L184.8840294,-88.9183154" /></g>
<g stroke="rgb(0, 0, 0)"><path d="M184.8840294,-88.9183154L182.9556666,-86.6201821" /></g>
<g stroke="rgb(0, 0, 0)"><path d="M182.9556666,-86.6201821L182.9480062,-86.62661" /></g>
<g stroke="rgb(0, 0, 0)"><path d="M182.9480062,-86.62661L184.876369,-88.9247433" /></g>
<g stroke="rgb(0, 0, 0)"><path d="M186.3580166,-71.9894334L186.365677,-71.9830055" /></g>
<g stroke="rgb(0, 0, 0)"><path d="M186.365677,-71.9830055L184.4373142,-69.6848722" /></g>
<g stroke="rgb(0, 0, 0)"><path d="M184.4373142,-69.6848722L184.4296538,-69.6913001" /></g>
<g stroke="rgb(0, 0, 0)"><path d="M184.4296538,-69.6913001L186.3580166,-71.9894334" /></g>
<g stroke="rgb(0, 0, 0)"><path d="M201.070855,-98.8740459L201.0785154,-98.867618" /></g>
<g stroke="rgb(0, 0, 0)"><path d="M201.0785154,-98.867618L199.1501526,-96.5694847" /></g>
<g stroke="rgb(0, 0, 0)"><path d="M199.1501526,-96.5694847L199.1424922,-96.5759126" /></g>
<g stroke="rgb(0, 0, 0)"><path d="M199.1424922,-96.5759126L201.070855,-98.8740459" /></g>
<g stroke="rgb(0, 0, 0)"><path d="M202.9229145,-77.7049086L202.9305749,-77.6984807" /></g>
<g stroke="rgb(0, 0, 0)"><path d="M202.9305749,-77.6984807L201.0022121,-75.4003474" /></g>
<g stroke="rgb(0, 0, 0)"><path d="M201.0022121,-75.4003474L200.9945517,-75.4067753" /></g>
<g stroke="rgb(0, 0, 0)"><path d="M200.9945517,-75.4067753L202.9229145,-77.7049086" /></g>
<g stroke="rgb(0, 0, 0)"><path d="M79.1552827,-131.4211519L79.160729,-131.4127652" /></g>
<g stroke="rgb(0, 0, 0)"><path d="M79.160729,-131.4127652L76.6447173,-129.7788481" /></g>
<g stroke="rgb(0, 0, 0)"><path d="M76.6447173,-129.7788481L76.639271,-129.7872348" /></g>
<g stroke="rgb(0, 0, 0)"><path d="M76.639271,-129.7872348L79.1552827,-131.4211519" /></g>
<g stroke="rgb(0, 0, 0)"><path d="M95.6340134,-125.3732416L95.6398912,-125.3651514" /></g>
<g stroke="rgb(0, 0, 0)"><path d="M95.6398912,-125.3651514L93.2128402,-123.6017956" /></g>
<g stroke="rgb(0, 0, 0)"><path d="M93.2128402,-123.6017956L93.2069624,-123.6098858" /></g>
<g stroke="rgb(0, 0, 0)"><path d="M93.2069624,-123.6098858L95.6340134,-125.3732416" /></g>
<g stroke="rgb(0, 0, 0)"><path d="M113.5376936,-120.7250409L113.545125,-120.7183496" /></g>
<g stroke="rgb(0, 0, 0)"><path d="M113.545125,-120.7183496L111.5377332,-118.4889151" /></g>
<g stroke="rgb(0, 0, 0)"><path d="M111.5377332,-118.4889151L111.5303018,-118.4956064" /></g>
<g stroke="rgb(0, 0, 0)"><path d="M111.5303018,-118.4956064L113.5376936,-120.7250409" /></g>
<g stroke="rgb(0, 0, 0)"><path d="M56.0571246,-37.0641957L56.0641957,-37.0571246" /></g>
<g stroke="rgb(0, 0, 0)"><path d="M56.0641957,-37.0571246L53.9428754,-34.9358043" /></g>
<g stroke="rgb(0, 0, 0)"><path d="M53.9428754,-34.9358043L53.9358043,-34.9428754" /></g>
<g stroke="rgb(0, 0, 0)"><path d="M53.9358043,-34.9428754L56.0571246,-37.0641957" /></g>
<g stroke="rgb(0, 0, 0)"><path d="M56.0571246,-156.0641957L56.0641957,-156.0571246" /></g>
<g stroke="rgb(0, 0, 0)"><path d="M56.0641957,-156.0571246L53.9428754,-153.9358043" /></g>
<g stroke="rgb(0, 0, 0)"><path d="M53.9428754,-153.9358043L53.9358043,-153.9428754" /></g>
<g stroke="rgb(0, 0, 0)"><path d="M53.9358043,-153.9428754L56.0571246,-156.0641957" /></g>
<g stroke="rgb(0, 0, 0)"><path d="M92.0571246,-67.9141957L92.0641957,-67.9071246" /></g>
<g stroke="rgb(0, 0, 0)"><path d="M92.0641957,-67.9071246L89.9428754,-65.7858043" /></g>
<g stroke="rgb(0, 0, 0)"><path d="M89.9428754,-65.7858043L89.9358043,-65.7928754" /></g>
<g stroke="rgb(0, 0, 0)"><path d="M89.9358043,-65.7928754L92.0571246,-67.9141957" /></g>
<g stroke="rgb(0, 0, 0)"><path d="M74.0571246,-67.9141957L74.0641957,-67.9071246" /></g>
<g stroke="rgb(0, 0, 0)"><path d="M74.0641957,-67.9071246L71.9428754,-65.7858043" /></g>
<g stroke="rgb(0, 0, 0)"><path d="M71.9428754,-65.7858043L71.9358043,-65.7928754" /></g>
<g stroke="rgb(0, 0, 0)"><path d="M71.9358043,-65.7928754L74.0571246,-67.9141957" /></g>
<g stroke="rgb(0, 0, 0)"><path d="M92.0571246,-101.3141957L92.0641957,-101.3071246" /></g>
<g stroke="rgb(0, 0, 0)"><path d="M92.0641957,-101.3071246L89.9428754,-99.1858043" /></g>
<g stroke="rgb(0, 0, 0)"><path d="M89.9428754,-99.1858043L89.9358043,-99.1928754" /></g>
<g stroke="rgb(0, 0, 0)"><path d="M89.9358043,-99.1928754L92.0571246,-101.3141957" /></g>
<g stroke="rgb(0, 0, 0)"><path d="M74.0571246,-101.3141957L74.0641957,-101.3071246" /></g>
<g stroke="rgb(0, 0, 0)"><path d="M74.0641957,-101.3071246L71.9428754,-99.1858043" /></g>
<g stroke="rgb(0, 0, 0)"><path d="M71.9428754,-99.1858043L71.9358043,-99.1928754" /></g>
<g stroke="rgb(0, 0, 0)"><path d="M71.9358043,-99.1928754L74.0571246,-101.3141957" /></g>
<g stroke="rgb(0, 0, 0)"><path d="M83.0571246,-84.6141957L83.0641957,-84.6071246" /></g>
<g stroke="rgb(0, 0, 0)"><path d="M83.0641957,-84.6071246L80.9428754,-82.4858043" /></g>
<g stroke="rgb(0, 0, 0)"><path d="M80.9428754,-82.4858043L80.9358043,-82.4928754" /></g>
<g stroke="rgb(0, 0, 0)"><path d="M80.9358043,-82.4928754L83.0571246,-84.6141957" /></g>
<g stroke="rgb(0, 0, 0)"><path d="M194.7330685,-73.7887141L194.7407289,-73.7822863" /></g>
<g stroke="rgb(0, 0, 0)"><path d="M194.7407289,-73.7822863L192.8123661,-71.484153" /></g>
<g stroke="rgb(0, 0, 0)"><path d="M192.8123661,-71.484153L192.8047057,-71.4905808" /></g>
<g stroke="rgb(0, 0, 0)"><path d="M192.8047057,-71.4905808L194.7330685,-73.7887141" /></g>
<g stroke="rgb(0, 0, 0)"><path d="M193.066215,-92.8409378L193.0738754,-92.8345099" /></g>
<g stroke="rgb(0, 0, 0)"><path d="M193.0738754,-92.8345099L191.1455126,-90.5363766" /></g>
<g stroke="rgb(0, 0, 0)"><path d="M191.1455126,-90.5363766L191.1378522,-90.5428045" /></g>
<g stroke="rgb(0, 0, 0)"><path d="M191.1378522,-90.5428045L193.066215,-92.8409378" /></g>
<g stroke="rgb(0, 0, 0)"><path d="M110.0571246,-73.4141957L110.0641957,-73.4071246" /></g>
<g stroke="rgb(0, 0, 0)"><path d="M110.0641957,-73.4071246L107.9428754,-71.2858043" /></g>
<g stroke="rgb(0, 0, 0)"><path d="M107.9428754,-71.2858043L107.9358043,-71.2928754" /></g>
<g stroke="rgb(0, 0, 0)"><path d="M107.9358043,-71.2928754L110.0571246,-73.4141957" /></g>
<g stroke="rgb(0, 0, 0)"><path d="M109.0571246,-94.7141957L109.0641957,-94.7071246" /></g>
<g stroke="rgb(0, 0, 0)"><path d="M109.0641957,-94.7071246L106.9428754,-92.5858043" /></g>
<g stroke="rgb(0, 0, 0)"><path d="M106.9428754,-92.5858043L106.9358043,-92.5928754" /></g>
<g stroke="rgb(0, 0, 0)"><path d="M106.9358043,-92.5928754L109.0571246,-94.7141957" /></g>
<g stroke="rgb(0, 0, 0)"><path d="M88.5877846,-131.3075418L88.5932309,-131.2991551" /></g>
<g stroke="rgb(0, 0, 0)"><path d="M88.5932309,-131.2991551L86.0772192,-129.665238" /></g>
<g stroke="rgb(0, 0, 0)"><path d="M86.0772192,-129.665238L86.0717729,-129.6736247" /></g>
<g stroke="rgb(0, 0, 0)"><path d="M86.0717729,-129.6736247L88.5877846,-131.3075418" /></g>
<g stroke="rgb(0, 0, 0)"><path d="M90.0571246,-65.5141957L90.0641957,-65.5071246" /></g>
<g stroke="rgb(0, 0, 0)"><path d="M90.0641957,-65.5071246L87.9428754,-63.3858043" /></g>
<g stroke="rgb(0, 0, 0)"><path d="M87.9428754,-63.3858043L87.9358043,-63.3928754" /></g>
<g stroke="rgb(0, 0, 0)"><path d="M87.9358043,-63.3928754L90.0571246,-65.5141957" /></g>
<g stroke="rgb(0, 0, 0)"><path d="M76.0571246,-65.5141957L76.0641957,-65.5071246" /></g>
<g stroke="rgb(0, 0, 0)"><path d="M76.0641957,-65.5071246L73.9428754,-63.3858043" /></g>
<g stroke="rgb(0, 0, 0)"><path d="M73.9428754,-63.3858043L73.9358043,-63.3928754" /></g>
<g stroke="rgb(0, 0, 0)"><path d="M73.9358043,-63.3928754L76.0571246,-65.5141957" /></g>
<g stroke="rgb(0, 0, 0)"><path d="M150.908246,-85.8406147L150.9156276,-85.8338685" /></g>
<g stroke="rgb(0, 0, 0)"><path d="M150.9156276,-85.8338685L148.891754,-83.6193853" /></g>
<g stroke="rgb(0, 0, 0)"><path d="M148.891754,-83.6193853L148.8843724,-83.6261315" /></g>
<g stroke="rgb(0, 0, 0)"><path d="M148.8843724,-83.6261315L150.908246,-85.8406147" /></g>
<g stroke="rgb(0, 0, 0)"><path d="M151.7641073,-66.8098501L151.7714889,-66.8031039" /></g>
<g stroke="rgb(0, 0, 0)"><path d="M151.7714889,-66.8031039L149.7476153,-64.5886207" /></g>
<g stroke="rgb(0, 0, 0)"><path d="M149.7476153,-64.5886207L149.7402337,-64.5953669" /></g>
<g stroke="rgb(0, 0, 0)"><path d="M149.7402337,-64.5953669L151.7641073,-66.8098501" /></g>
<g stroke="rgb(0, 0, 0)"><path d="M150.0523847,-104.8713793L150.0597663,-104.8646331" /></g>
<g stroke="rgb(0, 0, 0)"><path d="M150.0597663,-104.8646331L148.0358927,-102.6501499" /></g>
<g stroke="rgb(0, 0, 0)"><path d="M148.0358927,-102.6501499L148.0285111,-102.6568961" /></g>
<g stroke="rgb(0, 0, 0)"><path d="M148.0285111,-102.6568961L150.0523847,-104.8713793" /></g>
<g stroke="rgb(0, 0, 0)"><path d="M131.8774814,-84.9847534L131.884863,-84.9780072" /></g>
<g stroke="rgb(0, 0, 0)"><path d="M131.884863,-84.9780072L129.8609894,-82.763524" /></g>
<g stroke="rgb(0, 0, 0)"><path d="M129.8609894,-82.763524L129.8536078,-82.7702702" /></g>
<g stroke="rgb(0, 0, 0)"><path d="M129.8536078,-82.7702702L131.8774814,-84.9847534" /></g>
<g stroke="rgb(0, 0, 0)"><path d="M169.9390106,-86.696476L169.9463922,-86.6897298" /></g>
<g stroke="rgb(0, 0, 0)"><path d="M169.9463922,-86.6897298L167.9225186,-84.4752466" /></g>
<g stroke="rgb(0, 0, 0)"><path d="M167.9225186,-84.4752466L167.915137,-84.4819928" /></g>
<g stroke="rgb(0, 0, 0)"><path d="M167.915137,-84.4819928L169.9390106,-86.696476" /></g>
<g stroke="rgb(0, 0, 0)"><path d="M 100.87071488541505 -99.13635611530272 A 0.4 0.4 0 1 1 100.86364388469728 -99.12928511458495" /></g>
<g stroke="rgb(0, 0, 0)"><path d="M 100.87071488541505 -82.13635611530272 A 0.4 0.4 0 1 1 100.86364388469728 -82.12928511458495" /></g>
<g stroke="rgb(0, 0, 0)"><path d="M 100.87071488541505 -65.13635611530272 A 0.4 0.4 0 1 1 100.86364388469728 -65.12928511458495" /></g>
<g stroke="rgb(0, 0, 0)"><path d="M 117.87071488541505 -99.13635611530272 A 0.4 0.4 0 1 1 117.86364388469728 -99.12928511458495" /></g>
<g stroke="rgb(0, 0, 0)"><path d="M 117.87071488541505 -82.13635611530272 A 0.4 0.4 0 1 1 117.86364388469728 -82.12928511458495" /></g>
<g stroke="rgb(0, 0, 0)"><path d="M 117.87071488541505 -65.13635611530272 A 0.4 0.4 0 1 1 117.86364388469728 -65.12928511458495" /></g>
<g stroke="rgb(0, 0, 0)"><path d="M 138.87071488541505 -91.48635611530273 A 0.4 0.4 0 1 1 138.86364388469727 -91.47928511458495" /></g>
<g stroke="rgb(0, 0, 0)"><path d="M 138.87071488541505 -74.48635611530273 A 0.4 0.4 0 1 1 138.86364388469727 -74.47928511458495" /></g>
<g stroke="rgb(0, 0, 0)"><path d="M 138.87071488541505 -57.48635611530273 A 0.4 0.4 0 1 1 138.86364388469727 -57.479285114584954" /></g>
<g stroke="rgb(0, 0, 0)"><path d="M 162.27023250217354 -93.60401299822112 A 0.4 0.4 0 1 1 162.26347663875572 -93.59664026510363" /></g>
<g stroke="rgb(0, 0, 0)"><path d="M 163.01176210217352 -76.62019319822112 A 0.4 0.4 0 1 1 163.0050062387557 -76.61282046510362" /></g>
<g stroke="rgb(0, 0, 0)"><path d="M 163.75329170217353 -59.636373398221124 A 0.4 0.4 0 1 1 163.7465358387557 -59.62900066510363" /></g>
<g stroke="rgb(0, 0, 0)"><path d="M 183.3770433111164 -103.92330299038325 A 0.4 0.4 0 1 1 183.37061539798938 -103.9156425013189" /></g>
<g stroke="rgb(0, 0, 0)"><path d="M 184.8586909111164 -86.98799309038324 A 0.4 0.4 0 1 1 184.85226299798938 -86.98033260131889" /></g>
<g stroke="rgb(0, 0, 0)"><path d="M 186.3403385111164 -70.05268319038325 A 0.4 0.4 0 1 1 186.3339105979894 -70.0450227013189" /></g>
<g stroke="rgb(0, 0, 0)"><path d="M 201.0531769111164 -96.93729569038325 A 0.4 0.4 0 1 1 201.04674899798937 -96.9296352013189" /></g>
<g stroke="rgb(0, 0, 0)"><path d="M 202.90523641111642 -75.76815839038325 A 0.4 0.4 0 1 1 202.8988084979894 -75.7604979013189" /></g>
<g stroke="rgb(0, 0, 0)"><path d="M 78.57212608250909 -129.5741970274307 A 0.4 0.4 0 1 1 78.56373937525294 -129.56875063684745" /></g>
<g stroke="rgb(0, 0, 0)"><path d="M 95.14831816505087 -123.49829784972651 A 0.4 0.4 0 1 1 95.14022799932572 -123.49242000080791" /></g>
<g stroke="rgb(0, 0, 0)"><path d="M 113.45243464751547 -118.79008745605506 A 0.4 0.4 0 1 1 113.44574331975426 -118.78265598311573" /></g>
<g stroke="rgb(0, 0, 0)"><path d="M 55.87071488541505 -35.13635611530273 A 0.4 0.4 0 1 1 55.86364388469727 -35.12928511458495" /></g>
<g stroke="rgb(0, 0, 0)"><path d="M 55.87071488541505 -154.13635611530273 A 0.4 0.4 0 1 1 55.86364388469727 -154.12928511458495" /></g>
<g stroke="rgb(0, 0, 0)"><path d="M 91.87071488541505 -65.98635611530273 A 0.4 0.4 0 1 1 91.86364388469728 -65.97928511458495" /></g>
<g stroke="rgb(0, 0, 0)"><path d="M 73.87071488541505 -65.98635611530273 A 0.4 0.4 0 1 1 74.15700969956342 -65.30006142457619" /></g>
<g stroke="rgb(0, 0, 0)"><path d="M 74.14286530064858 -65.3000636349803 A 0.4 0.4 0 0 1 73.86364388469728 -65.97928511458495" /></g>
<g stroke="rgb(0, 0, 0)"><path d="M 91.87071488541505 -99.38635611530272 A 0.4 0.4 0 1 1 91.86364388469728 -99.37928511458495" /></g>
<g stroke="rgb(0, 0, 0)"><path d="M 73.87071488541505 -99.38635611530272 A 0.4 0.4 0 1 1 73.86364388469728 -99.37928511458495" /></g>
<g stroke="rgb(0, 0, 0)"><path d="M 82.87071488541505 -82.68635611530273 A 0.4 0.4 0 1 1 82.86364388469728 -82.67928511458496" /></g>
<g stroke="rgb(0, 0, 0)"><path d="M 194.7153904111164 -71.85196399038325 A 0.4 0.4 0 1 1 194.70896249798938 -71.8443035013189" /></g>
<g stroke="rgb(0, 0, 0)"><path d="M 193.0485369111164 -90.90418759038324 A 0.4 0.4 0 1 1 193.04210899798937 -90.8965271013189" /></g>
<g stroke="rgb(0, 0, 0)"><path d="M 109.87071488541505 -71.48635611530273 A 0.4 0.4 0 1 1 109.86364388469728 -71.47928511458495" /></g>
<g stroke="rgb(0, 0, 0)"><path d="M 108.87071488541505 -92.78635611530272 A 0.4 0.4 0 1 1 108.86364388469728 -92.77928511458495" /></g>
<g stroke="rgb(0, 0, 0)"><path d="M 88.00462798250909 -129.46058692743068 A 0.4 0.4 0 1 1 87.99624127525294 -129.45514053684744" /></g>
<g stroke="rgb(0, 0, 0)"><path d="M 89.87071488541505 -63.58635611530273 A 0.4 0.4 0 1 1 89.86364388469728 -63.57928511458495" /></g>
<g stroke="rgb(0, 0, 0)"><path d="M 75.87071488541505 -63.58635611530273 A 0.4 0.4 0 1 1 75.86364388469728 -63.57928511458495" /></g>
<g stroke="rgb(0, 0, 0)"><path d="M 150.80863676618725 -83.9063469314617 A 0.4 0.4 0 1 1 150.8018905014182 -83.89896529891097" /></g>
<g stroke="rgb(0, 0, 0)"><path d="M 151.66449806618726 -64.8755823314617 A 0.4 0.4 0 1 1 151.65775180141821 -64.86820069891097" /></g>
<g stroke="rgb(0, 0, 0)"><path d="M 149.95277546618726 -102.9371115314617 A 0.4 0.4 0 1 1 149.9460292014182 -102.92972989891096" /></g>
<g stroke="rgb(0, 0, 0)"><path d="M 131.77787216618725 -83.0504856314617 A 0.4 0.4 0 1 1 131.7711259014182 -83.04310399891096" /></g>
<g stroke="rgb(0, 0, 0)"><path d="M 169.83940136618725 -84.7622082314617 A 0.4 0.4 0 1 1 169.8326551014182 -84.75482659891097" /></g>
<g stroke="rgb(0, 0, 0)"><circle cx="193.7727173" cy="-72.6364335" r="1.1" /></g>
<g stroke="rgb(0, 0, 0)"><circle cx="192.1058638" cy="-91.6886572" r="1.1" /></g>
<g stroke="rgb(0, 0, 0)"><circle cx="109" cy="-72.35" r="1.1" /></g>
<g stroke="rgb(0, 0, 0)"><circle cx="108" cy="-93.65" r="1.1" /></g>
<g stroke="rgb(0, 0, 0)"><circle cx="87.3325019" cy="-130.4863899" r="1.1" /></g>
<g stroke="rgb(0, 0, 0)"><circle cx="89" cy="-64.45" r="1.1" /></g>
<g stroke="rgb(0, 0, 0)"><circle cx="75" cy="-64.45" r="1.1" /></g>
<g stroke="rgb(0, 0, 0)"><circle cx="150.7558613" cy="-65.6992354" r="1.1" /></g>
<g stroke="rgb(0, 0, 0)"><circle cx="149.0441387" cy="-103.7607646" r="1.1" /></g>
<g stroke="rgb(0, 0, 0)"><circle cx="130.8692354" cy="-83.8741387" r="1.1" /></g>
<g stroke="rgb(0, 0, 0)"><circle cx="168.9307646" cy="-85.5858613" r="1.1" /></g>
<g stroke="rgb(0, 0, 0)"><path d="M93.1,-106.9L106.9,-106.9" /></g>
<g stroke="rgb(0, 0, 0)"><path d="M106.9,-106.9L106.9,-93.1" /></g>
<g stroke="rgb(0, 0, 0)"><path d="M106.9,-93.1L93.1,-93.1" /></g>
<g stroke="rgb(0, 0, 0)"><path d="M93.1,-93.1L93.1,-106.9" /></g>
<g stroke="rgb(0, 0, 0)"><path d="M93.1,-89.9L106.9,-89.9" /></g>
<g stroke="rgb(0, 0, 0)"><path d="M106.9,-89.9L106.9,-76.1" /></g>
<g stroke="rgb(0, 0, 0)"><path d="M106.9,-76.1L93.1,-76.1" /></g>
<g stroke="rgb(0, 0, 0)"><path d="M93.1,-76.1L93.1,-89.9" /></g>
<g stroke="rgb(0, 0, 0)"><path d="M93.1,-72.9L106.9,-72.9" /></g>
<g stroke="rgb(0, 0, 0)"><path d="M106.9,-72.9L106.9,-59.1" /></g>
<g stroke="rgb(0, 0, 0)"><path d="M106.9,-59.1L93.1,-59.1" /></g>
<g stroke="rgb(0, 0, 0)"><path d="M93.1,-59.1L93.1,-72.9" /></g>
<g stroke="rgb(0, 0, 0)"><path d="M110.1,-106.9L123.9,-106.9" /></g>
<g stroke="rgb(0, 0, 0)"><path d="M123.9,-106.9L123.9,-93.1" /></g>
<g stroke="rgb(0, 0, 0)"><path d="M123.9,-93.1L110.1,-93.1" /></g>
<g stroke="rgb(0, 0, 0)"><path d="M110.1,-93.1L110.1,-106.9" /></g>
<g stroke="rgb(0, 0, 0)"><path d="M110.1,-89.9L123.9,-89.9" /></g>
<g stroke="rgb(0, 0, 0)"><path d="M123.9,-89.9L123.9,-76.1" /></g>
<g stroke="rgb(0, 0, 0)"><path d="M123.9,-76.1L110.1,-76.1" /></g>
<g stroke="rgb(0, 0, 0)"><path d="M110.1,-76.1L110.1,-89.9" /></g>
<g stroke="rgb(0, 0, 0)"><path d="M110.1,-72.9L123.9,-72.9" /></g>
<g stroke="rgb(0, 0, 0)"><path d="M123.9,-72.9L123.9,-59.1" /></g>
<g stroke="rgb(0, 0, 0)"><path d="M123.9,-59.1L110.1,-59.1" /></g>
<g stroke="rgb(0, 0, 0)"><path d="M110.1,-59.1L110.1,-72.9" /></g>
<g stroke="rgb(0, 0, 0)"><path d="M131.1,-99.25L144.9,-99.25" /></g>
<g stroke="rgb(0, 0, 0)"><path d="M144.9,-99.25L144.9,-85.45" /></g>
<g stroke="rgb(0, 0, 0)"><path d="M144.9,-85.45L131.1,-85.45" /></g>
<g stroke="rgb(0, 0, 0)"><path d="M131.1,-85.45L131.1,-99.25" /></g>
<g stroke="rgb(0, 0, 0)"><path d="M131.1,-82.25L144.9,-82.25" /></g>
<g stroke="rgb(0, 0, 0)"><path d="M144.9,-82.25L144.9,-68.45" /></g>
<g stroke="rgb(0, 0, 0)"><path d="M144.9,-68.45L131.1,-68.45" /></g>
<g stroke="rgb(0, 0, 0)"><path d="M131.1,-68.45L131.1,-82.25" /></g>
<g stroke="rgb(0, 0, 0)"><path d="M131.1,-65.25L144.9,-65.25" /></g>
<g stroke="rgb(0, 0, 0)"><path d="M144.9,-65.25L144.9,-51.45" /></g>
<g stroke="rgb(0, 0, 0)"><path d="M144.9,-51.45L131.1,-51.45" /></g>
<g stroke="rgb(0, 0, 0)"><path d="M131.1,-51.45L131.1,-65.25" /></g>
<g stroke="rgb(0, 0, 0)"><path d="M154.1682682,-101.0213139L167.9551337,-101.6232614" /></g>
<g stroke="rgb(0, 0, 0)"><path d="M167.9551337,-101.6232614L168.5570812,-87.8363959" /></g>
<g stroke="rgb(0, 0, 0)"><path d="M168.5570812,-87.8363959L154.7702157,-87.2344484" /></g>
<g stroke="rgb(0, 0, 0)"><path d="M154.7702157,-87.2344484L154.1682682,-101.0213139" /></g>
<g stroke="rgb(0, 0, 0)"><path d="M154.9097978,-84.0374941L168.6966633,-84.6394416" /></g>
<g stroke="rgb(0, 0, 0)"><path d="M168.6966633,-84.6394416L169.2986108,-70.8525761" /></g>
<g stroke="rgb(0, 0, 0)"><path d="M169.2986108,-70.8525761L155.5117453,-70.2506286" /></g>
<g stroke="rgb(0, 0, 0)"><path d="M155.5117453,-70.2506286L154.9097978,-84.0374941" /></g>
<g stroke="rgb(0, 0, 0)"><path d="M155.6513274,-67.0536743L169.4381929,-67.6556218" /></g>
<g stroke="rgb(0, 0, 0)"><path d="M169.4381929,-67.6556218L170.0401404,-53.8687563" /></g>
<g stroke="rgb(0, 0, 0)"><path d="M170.0401404,-53.8687563L156.2532749,-53.2668088" /></g>
<g stroke="rgb(0, 0, 0)"><path d="M156.2532749,-53.2668088L155.6513274,-67.0536743" /></g>
<g stroke="rgb(0, 0, 0)"><path d="M174.9592522,-110.9801414L188.706739,-112.1828906" /></g>
<g stroke="rgb(0, 0, 0)"><path d="M188.706739,-112.1828906L189.9094882,-98.4354038" /></g>
<g stroke="rgb(0, 0, 0)"><path d="M189.9094882,-98.4354038L176.1620014,-97.2326546" /></g>
<g stroke="rgb(0, 0, 0)"><path d="M176.1620014,-97.2326546L174.9592522,-110.9801414" /></g>
<g stroke="rgb(0, 0, 0)"><path d="M176.4408998,-94.0448315L190.1883866,-95.2475807" /></g>
<g stroke="rgb(0, 0, 0)"><path d="M190.1883866,-95.2475807L191.3911358,-81.5000939" /></g>
<g stroke="rgb(0, 0, 0)"><path d="M191.3911358,-81.5000939L177.643649,-80.2973447" /></g>
<g stroke="rgb(0, 0, 0)"><path d="M177.643649,-80.2973447L176.4408998,-94.0448315" /></g>
<g stroke="rgb(0, 0, 0)"><path d="M177.9225474,-77.1095216L191.6700342,-78.3122708" /></g>
<g stroke="rgb(0, 0, 0)"><path d="M191.6700342,-78.3122708L192.8727834,-64.564784" /></g>
<g stroke="rgb(0, 0, 0)"><path d="M192.8727834,-64.564784L179.1252966,-63.3620348" /></g>
<g stroke="rgb(0, 0, 0)"><path d="M179.1252966,-63.3620348L177.9225474,-77.1095216" /></g>
<g stroke="rgb(0, 0, 0)"><path d="M192.6353858,-103.9941341L206.3828726,-105.1968833" /></g>
<g stroke="rgb(0, 0, 0)"><path d="M206.3828726,-105.1968833L207.5856218,-91.4493965" /></g>
<g stroke="rgb(0, 0, 0)"><path d="M207.5856218,-91.4493965L193.838135,-90.2466473" /></g>
<g stroke="rgb(0, 0, 0)"><path d="M193.838135,-90.2466473L192.6353858,-103.9941341" /></g>
<g stroke="rgb(0, 0, 0)"><path d="M194.4874453,-82.8249968L208.2349321,-84.027746" /></g>
<g stroke="rgb(0, 0, 0)"><path d="M208.2349321,-84.027746L209.4376813,-70.2802592" /></g>
<g stroke="rgb(0, 0, 0)"><path d="M209.4376813,-70.2802592L195.6901945,-69.07751" /></g>
<g stroke="rgb(0, 0, 0)"><path d="M195.6901945,-69.07751L194.4874453,-82.8249968" /></g>
<g stroke="rgb(0, 0, 0)"><path d="M72.5853722,-138.7838091L86.0838091,-135.9146278" /></g>
<g stroke="rgb(0, 0, 0)"><path d="M86.0838091,-135.9146278L83.2146278,-122.4161909" /></g>
<g stroke="rgb(0, 0, 0)"><path d="M83.2146278,-122.4161909L69.7161909,-125.2853722" /></g>
<g stroke="rgb(0, 0, 0)"><path d="M69.7161909,-125.2853722L72.5853722,-138.7838091" /></g>
<g stroke="rgb(0, 0, 0)"><path d="M88.6877751,-132.381966L102.3178742,-130.2231703" /></g>
<g stroke="rgb(0, 0, 0)"><path d="M102.3178742,-130.2231703L100.1590785,-116.5930712" /></g>
<g stroke="rgb(0, 0, 0)"><path d="M100.1590785,-116.5930712L86.5289794,-118.7518669" /></g>
<g stroke="rgb(0, 0, 0)"><path d="M86.5289794,-118.7518669L88.6877751,-132.381966" /></g>
<g stroke="rgb(0, 0, 0)"><path d="M105.2860515,-126.1364037L119.0671391,-126.8586399" /></g>
<g stroke="rgb(0, 0, 0)"><path d="M119.0671391,-126.8586399L119.7893753,-113.0775523" /></g>
<g stroke="rgb(0, 0, 0)"><path d="M119.7893753,-113.0775523L106.0082877,-112.3553161" /></g>
<g stroke="rgb(0, 0, 0)"><path d="M106.0082877,-112.3553161L105.2860515,-126.1364037" /></g>
<g stroke="rgb(0, 0, 0)"><circle cx="193.7727173" cy="-72.6364335" r="2.15" /></g>
<g stroke="rgb(0, 0, 0)"><circle cx="192.1058638" cy="-91.6886572" r="2.15" /></g>
<g stroke="rgb(0, 0, 0)"><circle cx="109" cy="-72.35" r="2.15" /></g>
<g stroke="rgb(0, 0, 0)"><circle cx="108" cy="-93.65" r="2.15" /></g>
<g stroke="rgb(0, 0, 0)"><circle cx="87.3325019" cy="-130.4863899" r="2.15" /></g>
<g stroke="rgb(0, 0, 0)"><path d="M145.5666255,-114.4999999L207.175067,-114.5" /></g>
<g stroke="rgb(0, 0, 0)"><path d="M 211.38274156705876 -66.40606086020784 A 160 160 0 0 1 72.30243640009768 -64.62745127908806" /></g>
<g stroke="rgb(0, 0, 0)"><path d="M 71.67151258043977 -142.1800122889988 A 140 140 0 0 1 145.56662545008663 -114.49999993494795" /></g>
<g stroke="rgb(0, 0, 0)"><path d="M 67.60764843439756 -123.06103468204788 A 200 200 0 0 1 72.30243655358825 -64.62745104603718" /></g>
<g stroke="rgb(0, 0, 0)"><path d="M74.75,-100.25L89.25,-100.25" /></g>
<g stroke="rgb(0, 0, 0)"><path d="M91,-98.5L91,-68.6" /></g>
<g stroke="rgb(0, 0, 0)"><path d="M89.25,-66.85L74.75,-66.85" /></g>
<g stroke="rgb(0, 0, 0)"><path d="M73,-68.6L73,-98.5" /></g>
<g stroke="rgb(0, 0, 0)"><path d="M 89.25 -100.25 A 1.75 1.75 0 0 1 91 -98.5" /></g>
<g stroke="rgb(0, 0, 0)"><path d="M 91 -68.6 A 1.75 1.75 0 0 1 89.25 -66.85" /></g>
<g stroke="rgb(0, 0, 0)"><path d="M 74.75 -66.85 A 1.75 1.75 0 0 1 73 -68.6" /></g>
<g stroke="rgb(0, 0, 0)"><path d="M 73 -98.5 A 1.75 1.75 0 0 1 74.75 -100.25" /></g>
<g stroke="rgb(0, 0, 0)"><circle cx="149.9" cy="-84.73" r="20.55" /></g>
  </g>
</svg>