0
SECTION
2
HEADER
9
$INSUNITS
70
4
0
ENDSEC
0
SECTION
2
TABLES
0
TABLE
2
LTYPE
0
LTYPE
72
65
70
64
2
CONTINUOUS
3
______
73
0
40
0
0
ENDTAB
0
TABLE
2
LAYER
0
ENDTAB
0
ENDSEC
0
SECTION
2
ENTITIES
0
LINE
8
0
10
52.5
20
-38.5
11
57.5
21
-38.5
0
LINE
8
0
10
57.5
20
-38.5
11
57.5
21
-33.5
0
LINE
8
0
10
57.5
20
-33.5
11
52.5
21
-33.5
0
LINE
8
0
10
52.5
20
-33.5
11
52.5
21
-38.5
0
LINE
8
0
10
52.5
20
-157.5
11
57.5
21
-157.5
0
LINE
8
0
10
57.5
20
-157.5
11
57.5
21
-152.5
0
LINE
8
0
10
57.5
20
-152.5
11
52.5
21
-152.5
0
LINE
8
0
10
52.5
20
-152.5
11
52.5
21
-157.5
0
LINE
8
0
10
91.5
20
-108.5
11
125.5
21
-108.5
0
LINE
8
0
10
108.5
20
-108.5
11
108.5
21
-57.5
0
LINE
8
0
10
91.5
20
-91.5
11
125.5
21
-91.5
0
LINE
8
0
10
91.5
20
-108.5
11
91.5
21
-57.5
0
LINE
8
0
10
91.5
20
-74.5
11
125.5
21
-74.5
0
LINE
8
0
10
91.5
20
-57.5
11
125.5
21
-57.5
0
LINE
8
0
10
125.5
20
-108.5
11
125.5
21
-57.5
0
LINE
8
0
10
129.5
20
-100.85
11
146.5
21
-100.85
0
LINE
8
0
10
146.5
20
-100.85
11
146.5
21
-49.85
0
LINE
8
0
10
129.5
20
-83.85
11
146.5
21
-83.85
0
LINE
8
0
10
129.5
20
-100.85
11
129.5
21
-49.85
0
LINE
8
0
10
129.5
20
-66.85
11
146.5
21
-66.85
0
LINE
8
0
10
146.5
20
-49.85
11
129.5
21
-49.85
0
LINE
8
0
10
152.5
20
-102.55
11
169.4838198
21
-103.2915296
0
LINE
8
0
10
169.4838198
20
-103.2915296
11
171.7084086
21
-52.3400702
0
LINE
8
0
10
153.2415296
20
-85.5661802
11
170.2253494
21
-86.3077098
0
LINE
8
0
10
152.5
20
-102.55
11
154.7245888
21
-51.5985406
0
LINE
8
0
10
153.9830592
20
-68.5823604
11
170.966879
21
-69.32389
0
LINE
8
0
10
171.7084086
20
-52.3400702
11
154.7245888
21
-51.5985406
0
LINE
8
0
10
173.2258915
20
-112.4346037
11
190.1612013
21
-113.9162513
0
LINE
8
0
10
190.1612013
20
-113.9162513
11
194.6061441
21
-63.1103217
0
LINE
8
0
10
174.7075391
20
-95.4992938
11
191.6428489
21
-96.9809415
0
LINE
8
0
10
174.7075391
20
-95.4992939
11
173.2258915
21
-112.4346037
0
LINE
8
0
10
176.1891867
20
-78.5639839
11
193.1244965
21
-80.0456316
0
LINE
8
0
10
176.1891867
20
-78.563984
11
174.7075391
21
-95.4992938
0
LINE
8
0
10
194.6061441
20
-63.1103217
11
177.6708343
21
-61.6286741
0
LINE
8
0
10
177.6708343
20
-61.6286741
11
176.1891867
21
-78.5639839
0
LINE
8
0
10
190.7168191
20
-107.5655102
11
207.652129
21
-109.0471578
0
LINE
8
0
10
207.175067
20
-114.5
11
211.3827416
21
-66.4060609
0
LINE
8
0
10
192.5688786
20
-86.3963728
11
209.5041885
21
-87.8780205
0
LINE
8
0
10
211.356248
20
-66.7088831
11
194.4209381
21
-65.2272355
0
LINE
8
0
10
71.7948071
20
-142.7600676
11
88.4233163
21
-139.2255689
0
LINE
8
0
10
88.4233163
20
-139.2255689
11
84.0051929
21
-118.4399324
0
LINE
8
0
10
84.0051929
20
-118.4399324
11
67.3766837
21
-121.9744311
0
LINE
8
0
10
67.3766837
20
-121.9744311
11
71.7948071
21
-142.7600676
0
LINE
8
0
10
87.6901921
20
-136.3114002
11
104.4808939
21
-133.6520143
0
LINE
8
0
10
104.4808939
20
-133.6520143
11
101.1566615
21
-112.663637
0
LINE
8
0
10
101.1566615
20
-112.663637
11
84.3659597
21
-115.3230229
0
LINE
8
0
10
84.3659597
20
-115.3230229
11
87.6901921
21
-136.3114002
0
LINE
8
0
10
103.4932928
20
-129.7725612
11
120.4699949
21
-130.6622724
0
LINE
8
0
10
120.4699949
20
-130.6622724
11
121.582134
21
-109.4413948
0
LINE
8
0
10
121.582134
20
-109.4413948
11
104.6054319
21
-108.5516836
0
LINE
8
0
10
104.6054319
20
-108.5516836
11
103.4932928
21
-129.7725612
0
LINE
8
0
10
98.9428754
20
-101.0641957
11
100.8707149
21
-99.1363561
0
LINE
8
0
10
100.8636439
20
-99.1292851
11
98.9358043
21
-101.0571246
0
LINE
8
0
10
98.9358043
20
-101.0571246
11
98.9428754
21
-101.0641957
0
LINE
8
0
10
98.9428754
20
-84.0641957
11
100.8707149
21
-82.1363561
0
LINE
8
0
10
100.8636439
20
-82.1292851
11
98.9358043
21
-84.0571246
0
LINE
8
0
10
98.9358043
20
-84.0571246
11
98.9428754
21
-84.0641957
0
LINE
8
0
10
98.9428754
20
-67.0641957
11
100.8707149
21
-65.1363561
0
LINE
8
0
10
100.8636439
20
-65.1292851
11
98.9358043
21
-67.0571246
0
LINE
8
0
10
98.9358043
20
-67.0571246
11
98.9428754
21
-67.0641957
0
LINE
8
0
10
115.9428754
20
-101.0641957
11
117.8707149
21
-99.1363561
0
LINE
8
0
10
117.8636439
20
-99.1292851
11
115.9358043
21
-101.0571246
0
LINE
8
0
10
115.9358043
20
-101.0571246
11
115.9428754
21
-101.0641957
0
LINE
8
0
10
115.9428754
20
-84.0641957
11
117.8707149
21
-82.1363561
0
LINE
8
0
10
117.8636439
20
-82.1292851
11
115.9358043
21
-84.0571246
0
LINE
8
0
10
115.9358043
20
-84.0571246
11
115.9428754
21
-84.0641957
0
LINE
8
0
10
115.9428754
20
-67.0641957
11
117.8707149
21
-65.1363561
0
LINE
8
0
10
117.8636439
20
-65.1292851
11
115.9358043
21
-67.0571246
0
LINE
8
0
10
115.9358043
20
-67.0571246
11
115.9428754
21
-67.0641957
0
LINE
8
0
10
136.9428754
20
-93.4141957
11
138.8707149
21
-91.4863561
0
LINE
8
0
10
138.8636439
20
-91.4792851
11
136.9358043
21
-93.4071246
0
LINE
8
0
10
136.9358043
20
-93.4071246
11
136.9428754
21
-93.4141957
0
LINE
8
0
10
136.9428754
20
-76.4141957
11
138.8707149
21
-74.4863561
0
LINE
8
0
10
138.8636439
20
-74.4792851
11
136.9358043
21
-76.4071246
0
LINE
8
0
10
136.9358043
20
-76.4071246
11
136.9428754
21
-76.4141957
0
LINE
8
0
10
136.9428754
20
-59.4141957
11
138.8707149
21
-57.4863561
0
LINE
8
0
10
138.8636439
20
-57.4792851
11
136.9358043
21
-59.4071246
0
LINE
8
0
10
136.9358043
20
-59.4071246
11
136.9428754
21
-59.4141957
0
LINE
8
0
10
160.2601366
20
-95.4459266
11
162.2702325
21
-93.604013
0
LINE
8
0
10
162.2634766
20
-93.5966403
11
160.2533807
21
-95.4385538
0
LINE
8
0
10
160.2533807
20
-95.4385538
11
160.2601366
21
-95.4459266
0
LINE
8
0
10
161.0016662
20
-78.4621068
11
163.0117621
21
-76.6201932
0
LINE
8
0
10
163.0050062
20
-76.6128205
11
160.9949103
21
-78.454734
0
LINE
8
0
10
160.9949103
20
-78.454734
11
161.0016662
21
-78.4621068
0
LINE
8
0
10
161.7431958
20
-61.478287
11
163.7532917
21
-59.6363734
0
LINE
8
0
10
163.7465358
20
-59.6290007
11
161.7364399
21
-61.4709142
0
LINE
8
0
10
161.7364399
20
-61.4709142
11
161.7431958
21
-61.478287
0
LINE
8
0
10
181.2885175
20
-105.6757842
11
183.3770433
21
-103.923303
0
LINE
8
0
10
183.3706154
20
-103.9156425
11
181.2820896
21
-105.6681238
0
LINE
8
0
10
181.2820896
20
-105.6681238
11
181.2885175
21
-105.6757842
0
LINE
8
0
10
182.7701651
20
-88.7404743
11
184.8586909
21
-86.9879931
0
LINE
8
0
10
184.852263
20
-86.9803326
11
182.7637372
21
-88.7328139
0
LINE
8
0
10
182.7637372
20
-88.7328139
11
182.7701651
21
-88.7404743
0
LINE
8
0
10
184.2518127
20
-71.8051644
11
186.3403385
21
-70.0526832
0
LINE
8
0
10
186.3339106
20
-70.0450227
11
184.2453848
21
-71.797504
0
LINE
8
0
10
184.2453848
20
-71.797504
11
184.2518127
21
-71.8051644
0
LINE
8
0
10
198.9646511
20
-98.6897769
11
201.0531769
21
-96.9372957
0
LINE
8
0
10
201.046749
20
-96.9296352
11
198.9582232
21
-98.6821165
0
LINE
8
0
10
198.9582232
20
-98.6821165
11
198.9646511
21
-98.6897769
0
LINE
8
0
10
200.8167106
20
-77.5206396
11
202.9052364
21
-75.7681584
0
LINE
8
0
10
202.8988085
20
-75.7604979
11
200.8102827
21
-77.5129792
0
LINE
8
0
10
200.8102827
20
-77.5129792
11
200.8167106
21
-77.5206396
0
LINE
8
0
10
77.0872348
20
-131.860729
11
78.5721261
21
-129.574197
0
LINE
8
0
10
78.5637394
20
-129.5687506
11
77.0788481
21
-131.8552827
0
LINE
8
0
10
77.0788481
20
-131.8552827
11
77.0872348
21
-131.860729
0
LINE
8
0
10
93.545794
20
-125.703983
11
95.1483182
21
-123.4982978
0
LINE
8
0
10
95.140228
20
-123.49242
11
93.5377038
21
-125.6981052
0
LINE
8
0
10
93.5377038
20
-125.6981052
11
93.545794
21
-125.703983
0
LINE
8
0
10
111.4263418
20
-120.6143896
11
113.4524346
21
-118.7900875
0
LINE
8
0
10
113.4457433
20
-118.782656
11
111.4196505
21
-120.6069582
0
LINE
8
0
10
111.4196505
20
-120.6069582
11
111.4263418
21
-120.6143896
0
LINE
8
0
10
53.9428754
20
-37.0641957
11
55.8707149
21
-35.1363561
0
LINE
8
0
10
55.8636439
20
-35.1292851
11
53.9358043
21
-37.0571246
0
LINE
8
0
10
53.9358043
20
-37.0571246
11
53.9428754
21
-37.0641957
0
LINE
8
0
10
53.9428754
20
-156.0641957
11
55.8707149
21
-154.1363561
0
LINE
8
0
10
55.8636439
20
-154.1292851
11
53.9358043
21
-156.0571246
0
LINE
8
0
10
53.9358043
20
-156.0571246
11
53.9428754
21
-156.0641957
0
LINE
8
0
10
89.9428754
20
-67.9141957
11
91.8707149
21
-65.9863561
0
LINE
8
0
10
91.8636439
20
-65.9792851
11
89.9358043
21
-67.9071246
0
LINE
8
0
10
89.9358043
20
-67.9071246
11
89.9428754
21
-67.9141957
0
LINE
8
0
10
71.9428754
20
-67.9141957
11
73.8707149
21
-65.9863561
0
LINE
8
0
10
73.8636439
20
-65.9792851
11
71.9358043
21
-67.9071246
0
LINE
8
0
10
71.9358043
20
-67.9071246
11
71.9428754
21
-67.9141957
0
LINE
8
0
10
89.9428754
20
-101.3141957
11
91.8707149
21
-99.3863561
0
LINE
8
0
10
91.8636439
20
-99.3792851
11
89.9358043
21
-101.3071246
0
LINE
8
0
10
89.9358043
20
-101.3071246
11
89.9428754
21
-101.3141957
0
LINE
8
0
10
71.9428754
20
-101.3141957
11
73.8707149
21
-99.3863561
0
LINE
8
0
10
73.8636439
20
-99.3792851
11
71.9358043
21
-101.3071246
0
LINE
8
0
10
71.9358043
20
-101.3071246
11
71.9428754
21
-101.3141957
0
LINE
8
0
10
80.9428754
20
-84.6141957
11
82.8707149
21
-82.6863561
0
LINE
8
0
10
82.8636439
20
-82.6792851
11
80.9358043
21
-84.6071246
0
LINE
8
0
10
80.9358043
20
-84.6071246
11
80.9428754
21
-84.6141957
0
LINE
8
0
10
192.6268646
20
-73.6044451
11
194.7153904
21
-71.851964
0
LINE
8
0
10
194.7089625
20
-71.8443035
11
192.6204367
21
-73.5967847
0
LINE
8
0
10
192.6204367
20
-73.5967847
11
192.6268646
21
-73.6044451
0
LINE
8
0
10
190.9600111
20
-92.6566688
11
193.0485369
21
-90.9041876
0
LINE
8
0
10
193.042109
20
-90.8965271
11
190.9535832
21
-92.6490084
0
LINE
8
0
10
190.9535832
20
-92.6490084
11
190.9600111
21
-92.6566688
0
LINE
8
0
10
107.9428754
20
-73.4141957
11
109.8707149
21
-71.4863561
0
LINE
8
0
10
109.8636439
20
-71.4792851
11
107.9358043
21
-73.4071246
0
LINE
8
0
10
107.9358043
20
-73.4071246
11
107.9428754
21
-73.4141957
0
LINE
8
0
10
106.9428754
20
-94.7141957
11
108.8707149
21
-92.7863561
0
LINE
8
0
10
108.8636439
20
-92.7792851
11
106.9358043
21
-94.7071246
0
LINE
8
0
10
106.9358043
20
-94.7071246
11
106.9428754
21
-94.7141957
0
LINE
8
0
10
86.5197367
20
-131.7471189
11
88.004628
21
-129.4605869
0
LINE
8
0
10
87.9962413
20
-129.4551405
11
86.51135
21
-131.7416726
0
LINE
8
0
10
86.51135
20
-131.7416726
11
86.5197367
21
-131.7471189
0
LINE
8
0
10
87.9428754
20
-65.5141957
11
89.8707149
21
-63.5863561
0
LINE
8
0
10
89.8636439
20
-63.5792851
11
87.9358043
21
-65.5071246
0
LINE
8
0
10
87.9358043
20
-65.5071246
11
87.9428754
21
-65.5141957
0
LINE
8
0
10
74.1570097
20
-65.3000614
11
75.8707149
21
-63.5863561
0
LINE
8
0
10
75.8636439
20
-63.5792851
11
74.1428653
21
-65.3000636
0
LINE
8
0
10
148.7961315
20
-85.7456276
11
150.8086368
21
-83.9063469
0
LINE
8
0
10
150.8018905
20
-83.8989653
11
148.7893853
21
-85.738246
0
LINE
8
0
10
148.7893853
20
-85.738246
11
148.7961315
21
-85.7456276
0
LINE
8
0
10
149.6519928
20
-66.714863
11
151.6644981
21
-64.8755823
0
LINE
8
0
10
151.6577518
20
-64.8682007
11
149.6452466
21
-66.7074814
0
LINE
8
0
10
149.6452466
20
-66.7074814
11
149.6519928
21
-66.714863
0
LINE
8
0
10
147.9402702
20
-104.7763922
11
149.9527755
21
-102.9371115
0
LINE
8
0
10
149.9460292
20
-102.9297299
11
147.933524
21
-104.7690106
0
LINE
8
0
10
147.933524
20
-104.7690106
11
147.9402702
21
-104.7763922
0
LINE
8
0
10
129.7653669
20
-84.8897663
11
131.7778722
21
-83.0504856
0
LINE
8
0
10
131.7711259
20
-83.043104
11
129.7586207
21
-84.8823847
0
LINE
8
0
10
129.7586207
20
-84.8823847
11
129.7653669
21
-84.8897663
0
LINE
8
0
10
167.8268961
20
-86.6014889
11
169.8394014
21
-84.7622082
0
LINE
8
0
10
169.8326551
20
-84.7548266
11
167.8201499
21
-86.5941073
0
LINE
8
0
10
167.8201499
20
-86.5941073
11
167.8268961
21
-86.6014889
0
LINE
8
0
10
101.0571246
20
-101.0641957
11
101.0641957
21
-101.0571246
0
LINE
8
0
10
101.0641957
20
-101.0571246
11
98.9428754
21
-98.9358043
0
LINE
8
0
10
98.9428754
20
-98.9358043
11
98.9358043
21
-98.9428754
0
LINE
8
0
10
98.9358043
20
-98.9428754
11
101.0571246
21
-101.0641957
0
LINE
8
0
10
101.0571246
20
-84.0641957
11
101.0641957
21
-84.0571246
0
LINE
8
0
10
101.0641957
20
-84.0571246
11
98.9428754
21
-81.9358043
0
LINE
8
0
10
98.9428754
20
-81.9358043
11
98.9358043
21
-81.9428754
0
LINE
8
0
10
98.9358043
20
-81.9428754
11
101.0571246
21
-84.0641957
0
LINE
8
0
10
101.0571246
20
-67.0641957
11
101.0641957
21
-67.0571246
0
LINE
8
0
10
101.0641957
20
-67.0571246
11
98.9428754
21
-64.9358043
0
LINE
8
0
10
98.9428754
20
-64.9358043
11
98.9358043
21
-64.9428754
0
LINE
8
0
10
98.9358043
20
-64.9428754
11
101.0571246
21
-67.0641957
0
LINE
8
0
10
118.0571246
20
-101.0641957
11
118.0641957
21
-101.0571246
0
LINE
8
0
10
118.0641957
20
-101.0571246
11
115.9428754
21
-98.9358043
0
LINE
8
0
10
115.9428754
20
-98.9358043
11
115.9358043
21
-98.9428754
0
LINE
8
0
10
115.9358043
20
-98.9428754
11
118.0571246
21
-101.0641957
0
LINE
8
0
10
118.0571246
20
-84.0641957
11
118.0641957
21
-84.0571246
0
LINE
8
0
10
118.0641957
20
-84.0571246
11
115.9428754
21
-81.9358043
0
LINE
8
0
10
115.9428754
20
-81.9358043
11
115.9358043
21
-81.9428754
0
LINE
8
0
10
115.9358043
20
-81.9428754
11
118.0571246
21
-84.0641957
0
LINE
8
0
10
118.0571246
20
-67.0641957
11
118.0641957
21
-67.0571246
0
LINE
8
0
10
118.0641957
20
-67.0571246
11
115.9428754
21
-64.9358043
0
LINE
8
0
10
115.9428754
20
-64.9358043
11
115.9358043
21
-64.9428754
0
LINE
8
0
10
115.9358043
20
-64.9428754
11
118.0571246
21
-67.0641957
0
LINE
8
0
10
139.0571246
20
-93.4141957
11
139.0641957
21
-93.4071246
0
LINE
8
0
10
139.0641957
20
-93.4071246
11
136.9428754
21
-91.2858043
0
LINE
8
0
10
136.9428754
20
-91.2858043
11
136.9358043
21
-91.2928754
0
LINE
8
0
10
136.9358043
20
-91.2928754
11
139.0571246
21
-93.4141957
0
LINE
8
0
10
139.0571246
20
-76.4141957
11
139.0641957
21
-76.4071246
0
LINE
8
0
10
139.0641957
20
-76.4071246
11
136.9428754
21
-74.2858043
0
LINE
8
0
10
136.9428754
20
-74.2858043
11
136.9358043
21
-74.2928754
0
LINE
8
0
10
136.9358043
20
-74.2928754
11
139.0571246
21
-76.4141957
0
LINE
8
0
10
139.0571246
20
-59.4141957
11
139.0641957
21
-59.4071246
0
LINE
8
0
10
139.0641957
20
-59.4071246
11
136.9428754
21
-57.2858043
0
LINE
8
0
10
136.9428754
20
-57.2858043
11
136.9358043
21
-57.2928754
0
LINE
8
0
10
136.9358043
20
-57.2928754
11
139.0571246
21
-59.4141957
0
LINE
8
0
10
162.3723736
20
-95.5381489
11
162.3797464
21
-95.531393
0
LINE
8
0
10
162.3797464
20
-95.531393
11
160.3529758
21
-93.3195609
0
LINE
8
0
10
160.3529758
20
-93.3195609
11
160.345603
21
-93.3263168
0
LINE
8
0
10
160.345603
20
-93.3263168
11
162.3723736
21
-95.5381489
0
LINE
8
0
10
163.1139032
20
-78.5543291
11
163.121276
21
-78.5475732
0
LINE
8
0
10
163.121276
20
-78.5475732
11
161.0945054
21
-76.3357411
0
LINE
8
0
10
161.0945054
20
-76.3357411
11
161.0871326
21
-76.342497
0
LINE
8
0
10
161.0871326
20
-76.342497
11
163.1139032
21
-78.5543291
0
LINE
8
0
10
163.8554328
20
-61.5705093
11
163.8628056
21
-61.5637534
0
LINE
8
0
10
163.8628056
20
-61.5637534
11
161.836035
21
-59.3519213
0
LINE
8
0
10
161.836035
20
-59.3519213
11
161.8286622
21
-59.3586772
0
LINE
8
0
10
161.8286622
20
-59.3586772
11
163.8554328
21
-61.5705093
0
LINE
8
0
10
183.3947214
20
-105.8600532
11
183.4023818
21
-105.8536253
0
LINE
8
0
10
183.4023818
20
-105.8536253
11
181.474019
21
-103.555492
0
LINE
8
0
10
181.474019
20
-103.555492
11
181.4663586
21
-103.5619199
0
LINE
8
0
10
181.4663586
20
-103.5619199
11
183.3947214
21
-105.8600532
0
LINE
8
0
10
184.876369
20
-88.9247433
11
184.8840294
21
-88.9183154
0
LINE
8
0
10
184.8840294
20
-88.9183154
11
182.9556666
21
-86.6201821
0
LINE
8
0
10
182.9556666
20
-86.6201821
11
182.9480062
21
-86.62661
0
LINE
8
0
10
182.9480062
20
-86.62661
11
184.876369
21
-88.9247433
0
LINE
8
0
10
186.3580166
20
-71.9894334
11
186.365677
21
-71.9830055
0
LINE
8
0
10
186.365677
20
-71.9830055
11
184.4373142
21
-69.6848722
0
LINE
8
0
10
184.4373142
20
-69.6848722
11
184.4296538
21
-69.6913001
0
LINE
8
0
10
184.4296538
20
-69.6913001
11
186.3580166
21
-71.9894334
0
LINE
8
0
10
201.070855
20
-98.8740459
11
201.0785154
21
-98.867618
0
LINE
8
0
10
201.0785154
20
-98.867618
11
199.1501526
21
-96.5694847
0
LINE
8
0
10
199.1501526
20
-96.5694847
11
199.1424922
21
-96.5759126
0
LINE
8
0
10
199.1424922
20
-96.5759126
11
201.070855
21
-98.8740459
0
LINE
8
0
10
202.9229145
20
-77.7049086
11
202.9305749
21
-77.6984807
0
LINE
8
0
10
202.9305749
20
-77.6984807
11
201.0022121
21
-75.4003474
0
LINE
8
0
10
201.0022121
20
-75.4003474
11
200.9945517
21
-75.4067753
0
LINE
8
0
10
200.9945517
20
-75.4067753
11
202.9229145
21
-77.7049086
0
LINE
8
0
10
79.1552827
20
-131.4211519
11
79.160729
21
-131.4127652
0
LINE
8
0
10
79.160729
20
-131.4127652
11
76.6447173
21
-129.7788481
0
LINE
8
0
10
76.6447173
20
-129.7788481
11
76.639271
21
-129.7872348
0
LINE
8
0
10
76.639271
20
-129.7872348
11
79.1552827
21
-131.4211519
0
LINE
8
0
10
95.6340134
20
-125.3732416
11
95.6398912
21
-125.3651514
0
LINE
8
0
10
95.6398912
20
-125.3651514
11
93.2128402
21
-123.6017956
0
LINE
8
0
10
93.2128402
20
-123.6017956
11
93.2069624
21
-123.6098858
0
LINE
8
0
10
93.2069624
20
-123.6098858
11
95.6340134
21
-125.3732416
0
LINE
8
0
10
113.5376936
20
-120.7250409
11
113.545125
21
-120.7183496
0
LINE
8
0
10
113.545125
20
-120.7183496
11
111.5377332
21
-118.4889151
0
LINE
8
0
10
111.5377332
20
-118.4889151
11
111.5303018
21
-118.4956064
0
LINE
8
0
10
111.5303018
20
-118.4956064
11
113.5376936
21
-120.7250409
0
LINE
8
0
10
56.0571246
20
-37.0641957
11
56.0641957
21
-37.0571246
0
LINE
8
0
10
56.0641957
20
-37.0571246
11
53.9428754
21
-34.9358043
0
LINE
8
0
10
53.9428754
20
-34.9358043
11
53.9358043
21
-34.9428754
0
LINE
8
0
10
53.9358043
20
-34.9428754
11
56.0571246
21
-37.0641957
0
LINE
8
0
10
56.0571246
20
-156.0641957
11
56.0641957
21
-156.0571246
0
LINE
8
0
10
56.0641957
20
-156.0571246
11
53.9428754
21
-153.9358043
0
LINE
8
0
10
53.9428754
20
-153.9358043
11
53.9358043
21
-153.9428754
0
LINE
8
0
10
53.9358043
20
-153.9428754
11
56.0571246
21
-156.0641957
0
LINE
8
0
10
92.0571246
20
-67.9141957
11
92.0641957
21
-67.9071246
0
LINE
8
0
10
92.0641957
20
-67.9071246
11
89.9428754
21
-65.7858043
0
LINE
8
0
10
89.9428754
20
-65.7858043
11
89.9358043
21
-65.7928754
0
LINE
8
0
10
89.9358043
20
-65.7928754
11
92.0571246
21
-67.9141957
0
LINE
8
0
10
74.0571246
20
-67.9141957
11
74.0641957
21
-67.9071246
0
LINE
8
0
10
74.0641957
20
-67.9071246
11
71.9428754
21
-65.7858043
0
LINE
8
0
10
71.9428754
20
-65.7858043
11
71.9358043
21
-65.7928754
0
LINE
8
0
10
71.9358043
20
-65.7928754
11
74.0571246
21
-67.9141957
0
LINE
8
0
10
92.0571246
20
-101.3141957
11
92.0641957
21
-101.3071246
0
LINE
8
0
10
92.0641957
20
-101.3071246
11
89.9428754
21
-99.1858043
0
LINE
8
0
10
89.9428754
20
-99.1858043
11
89.9358043
21
-99.1928754
0
LINE
8
0
10
89.9358043
20
-99.1928754
11
92.0571246
21
-101.3141957
0
LINE
8
0
10
74.0571246
20
-101.3141957
11
74.0641957
21
-101.3071246
0
LINE
8
0
10
74.0641957
20
-101.3071246
11
71.9428754
21
-99.1858043
0
LINE
8
0
10
71.9428754
20
-99.1858043
11
71.9358043
21
-99.1928754
0
LINE
8
0
10
71.9358043
20
-99.1928754
11
74.0571246
21
-101.3141957
0
LINE
8
0
10
83.0571246
20
-84.6141957
11
83.0641957
21
-84.6071246
0
LINE
8
0
10
83.0641957
20
-84.6071246
11
80.9428754
21
-82.4858043
0
LINE
8
0
10
80.9428754
20
-82.4858043
11
80.9358043
21
-82.4928754
0
LINE
8
0
10
80.9358043
20
-82.4928754
11
83.0571246
21
-84.6141957
0
LINE
8
0
10
194.7330685
20
-73.7887141
11
194.7407289
21
-73.7822863
0
LINE
8
0
10
194.7407289
20
-73.7822863
11
192.8123661
21
-71.484153
0
LINE
8
0
10
192.8123661
20
-71.484153
11
192.8047057
21
-71.4905808
0
LINE
8
0
10
192.8047057
20
-71.4905808
11
194.7330685
21
-73.7887141
0
LINE
8
0
10
193.066215
20
-92.8409378
11
193.0738754
21
-92.8345099
0
LINE
8
0
10
193.0738754
20
-92.8345099
11
191.1455126
21
-90.5363766
0
LINE
8
0
10
191.1455126
20
-90.5363766
11
191.1378522
21
-90.5428045
0
LINE
8
0
10
191.1378522
20
-90.5428045
11
193.066215
21
-92.8409378
0
LINE
8
0
10
110.0571246
20
-73.4141957
11
110.0641957
21
-73.4071246
0
LINE
8
0
10
110.0641957
20
-73.4071246
11
107.9428754
21
-71.2858043
0
LINE
8
0
10
107.9428754
20
-71.2858043
11
107.9358043
21
-71.2928754
0
LINE
8
0
10
107.9358043
20
-71.2928754
11
110.0571246
21
-73.4141957
0
LINE
8
0
10
109.0571246
20
-94.7141957
11
109.0641957
21
-94.7071246
0
LINE
8
0
10
109.0641957
20
-94.7071246
11
106.9428754
21
-92.5858043
0
LINE
8
0
10
106.9428754
20
-92.5858043
11
106.9358043
21
-92.5928754
0
LINE
8
0
10
106.9358043
20
-92.5928754
11
109.0571246
21
-94.7141957
0
LINE
8
0
10
88.5877846
20
-131.3075418
11
88.5932309
21
-131.2991551
0
LINE
8
0
10
88.5932309
20
-131.2991551
11
86.0772192
21
-129.665238
0
LINE
8
0
10
86.0772192
20
-129.665238
11
86.0717729
21
-129.6736247
0
LINE
8
0
10
86.0717729
20
-129.6736247
11
88.5877846
21
-131.3075418
0
LINE
8
0
10
90.0571246
20
-65.5141957
11
90.0641957
21
-65.5071246
0
LINE
8
0
10
90.0641957
20
-65.5071246
11
87.9428754
21
-63.3858043
0
LINE
8
0
10
87.9428754
20
-63.3858043
11
87.9358043
21
-63.3928754
0
LINE
8
0
10
87.9358043
20
-63.3928754
11
90.0571246
21
-65.5141957
0
LINE
8
0
10
76.0571246
20
-65.5141957
11
76.0641957
21
-65.5071246
0
LINE
8
0
10
76.0641957
20
-65.5071246
11
73.9428754
21
-63.3858043
0
LINE
8
0
10
73.9428754
20
-63.3858043
11
73.9358043
21
-63.3928754
0
LINE
8
0
10
73.9358043
20
-63.3928754
11
76.0571246
21
-65.5141957
0
LINE
8
0
10
150.908246
20
-85.8406147
11
150.9156276
21
-85.8338685
0
LINE
8
0
10
150.9156276
20
-85.8338685
11
148.891754
21
-83.6193853
0
LINE
8
0
10
148.891754
20
-83.6193853
11
148.8843724
21
-83.6261315
0
LINE
8
0
10
148.8843724
20
-83.6261315
11
150.908246
21
-85.8406147
0
LINE
8
0
10
151.7641073
20
-66.8098501
11
151.7714889
21
-66.8031039
0
LINE
8
0
10
151.7714889
20
-66.8031039
11
149.7476153
21
-64.5886207
0
LINE
8
0
10
149.7476153
20
-64.5886207
11
149.7402337
21
-64.5953669
0
LINE
8
0
10
149.7402337
20
-64.5953669
11
151.7641073
21
-66.8098501
0
LINE
8
0
10
150.0523847
20
-104.8713793
11
150.0597663
21
-104.8646331
0
LINE
8
0
10
150.0597663
20
-104.8646331
11
148.0358927
21
-102.6501499
0
LINE
8
0
10
148.0358927
20
-102.6501499
11
148.0285111
21
-102.6568961
0
LINE
8
0
10
148.0285111
20
-102.6568961
11
150.0523847
21
-104.8713793
0
LINE
8
0
10
131.8774814
20
-84.9847534
11
131.884863
21
-84.9780072
0
LINE
8
0
10
131.884863
20
-84.9780072
11
129.8609894
21
-82.763524
0
LINE
8
0
10
129.8609894
20
-82.763524
11
129.8536078
21
-82.7702702
0
LINE
8
0
10
129.8536078
20
-82.7702702
11
131.8774814
21
-84.9847534
0
LINE
8
0
10
169.9390106
20
-86.696476
11
169.9463922
21
-86.6897298
0
LINE
8
0
10
169.9463922
20
-86.6897298
11
167.9225186
21
-84.4752466
0
LINE
8
0
10
167.9225186
20
-84.4752466
11
167.915137
21
-84.4819928
0
LINE
8
0
10
167.915137
20
-84.4819928
11
169.9390106
21
-86.696476
0
ARC
8
0
10
101.15
20
-98.85
40
0.4
50
225.7162091
51
584.2837909
0
ARC
8
0
10
101.15
20
-81.85
40
0.4
50
225.7162091
51
584.2837909
0
ARC
8
0
10
101.15
20
-64.85
40
0.4
50
225.7162091
51
584.2837909
0
ARC
8
0
10
118.15
20
-98.85
40
0.4
50
225.7162091
51
584.2837909
0
ARC
8
0
10
118.15
20
-81.85
40
0.4
50
225.7162091
51
584.2837909
0
ARC
8
0
10
118.15
20
-64.85
40
0.4
50
225.7162091
51
584.2837909
0
ARC
8
0
10
139.15
20
-91.2
40
0.4
50
225.7162091
51
584.2837909
0
ARC
8
0
10
139.15
20
-74.2
40
0.4
50
225.7162091
51
584.2837909
0
ARC
8
0
10
139.15
20
-57.2
40
0.4
50
225.7162091
51
584.2837909
0
ARC
8
0
10
162.5617425
20
-93.3301117
40
0.4
50
223.2162044
51
581.7837806
0
ARC
8
0
10
163.3032721
20
-76.3462919
40
0.4
50
223.2162044
51
581.7837806
0
ARC
8
0
10
164.0448017
20
-59.3624721
40
0.4
50
223.2162044
51
581.7837806
0
ARC
8
0
10
183.6802232
20
-103.6623778
40
0.4
50
220.7162182
51
579.2837781
0
ARC
8
0
10
185.1618708
20
-86.7270679
40
0.4
50
220.7162182
51
579.2837781
0
ARC
8
0
10
186.6435184
20
-69.791758
40
0.4
50
220.7162182
51
579.2837781
0
ARC
8
0
10
201.3563568
20
-96.6763705
40
0.4
50
220.7162182
51
579.2837781
0
ARC
8
0
10
203.2084163
20
-75.5072332
40
0.4
50
220.7162182
51
579.2837781
0
ARC
8
0
10
78.7857713
20
-129.2360318
40
0.4
50
237.7162198
51
596.2837878
0
ARC
8
0
10
95.3793688
20
-123.1717774
40
0.4
50
234.716218
51
593.283787
0
ARC
8
0
10
113.7463237
20
-118.5187404
40
0.4
50
222.716216
51
581.2837795
0
ARC
8
0
10
56.15
20
-34.85
40
0.4
50
225.7162091
51
584.2837909
0
ARC
8
0
10
56.15
20
-153.85
40
0.4
50
225.7162091
51
584.2837909
0
ARC
8
0
10
92.15
20
-65.7
40
0.4
50
225.7162091
51
584.2837909
0
ARC
8
0
10
74.15
20
-65.7
40
0.4
50
225.7162091
51
448.9958831
0
ARC
8
0
10
74.15
20
-65.7
40
0.4
50
451.0220246
51
584.2837909
0
ARC
8
0
10
92.15
20
-99.1
40
0.4
50
225.7162091
51
584.2837909
0
ARC
8
0
10
74.15
20
-99.1
40
0.4
50
225.7162091
51
584.2837909
0
ARC
8
0
10
83.15
20
-82.4
40
0.4
50
225.7162091
51
584.2837909
0
ARC
8
0
10
195.0185703
20
-71.5910388
40
0.4
50
220.7162182
51
579.2837781
0
ARC
8
0
10
193.3517168
20
-90.6432624
40
0.4
50
220.7162182
51
579.2837781
0
ARC
8
0
10
110.15
20
-71.2
40
0.4
50
225.7162091
51
584.2837909
0
ARC
8
0
10
109.15
20
-92.5
40
0.4
50
225.7162091
51
584.2837909
0
ARC
8
0
10
88.2182732
20
-129.1224217
40
0.4
50
237.7162198
51
596.2837878
0
ARC
8
0
10
90.15
20
-63.3
40
0.4
50
225.7162091
51
584.2837909
0
ARC
8
0
10
76.15
20
-63.3
40
0.4
50
225.7162091
51
584.2837909
0
ARC
8
0
10
151.100505
20
-83.6328274
40
0.4
50
223.1412149
51
581.7087789
0
ARC
8
0
10
151.9563663
20
-64.6020628
40
0.4
50
223.1412149
51
581.7087789
0
ARC
8
0
10
150.2446437
20
-102.663592
40
0.4
50
223.1412149
51
581.7087789
0
ARC
8
0
10
132.0697404
20
-82.7769661
40
0.4
50
223.1412149
51
581.7087789
0
ARC
8
0
10
170.1312696
20
-84.4886887
40
0.4
50
223.1412149
51
581.7087789
0
CIRCLE
8
0
10
193.7727173
20
-72.6364335
40
1.1
0
CIRCLE
8
0
10
192.1058638
20
-91.6886572
40
1.1
0
CIRCLE
8
0
10
109
20
-72.35
40
1.1
0
CIRCLE
8
0
10
108
20
-93.65
40
1.1
0
CIRCLE
8
0
10
87.3325019
20
-130.4863899
40
1.1
0
CIRCLE
8
0
10
89
20
-64.45
40
1.1
0
CIRCLE
8
0
10
75
20
-64.45
40
1.1
0
CIRCLE
8
0
10
150.7558613
20
-65.6992354
40
1.1
0
CIRCLE
8
0
10
149.0441387
20
-103.7607646
40
1.1
0
CIRCLE
8
0
10
130.8692354
20
-83.8741387
40
1.1
0
CIRCLE
8
0
10
168.9307646
20
-85.5858613
40
1.1
0
LINE
8
0
10
93.1
20
-106.9
11
106.9
21
-106.9
0
LINE
8
0
10
106.9
20
-106.9
11
106.9
21
-93.1
0
LINE
8
0
10
106.9
20
-93.1
11
93.1
21
-93.1
0
LINE
8
0
10
93.1
20
-93.1
11
93.1
21
-106.9
0
LINE
8
0
10
93.1
20
-89.9
11
106.9
21
-89.9
0
LINE
8
0
10
106.9
20
-89.9
11
106.9
21
-76.1
0
LINE
8
0
10
106.9
20
-76.1
11
93.1
21
-76.1
0
LINE
8
0
10
93.1
20
-76.1
11
93.1
21
-89.9
0
LINE
8
0
10
93.1
20
-72.9
11
106.9
21
-72.9
0
LINE
8
0
10
106.9
20
-72.9
11
106.9
21
-59.1
0
LINE
8
0
10
106.9
20
-59.1
11
93.1
21
-59.1
0
LINE
8
0
10
93.1
20
-59.1
11
93.1
21
-72.9
0
LINE
8
0
10
110.1
20
-106.9
11
123.9
21
-106.9
0
LINE
8
0
10
123.9
20
-106.9
11
123.9
21
-93.1
0
LINE
8
0
10
123.9
20
-93.1
11
110.1
21
-93.1
0
LINE
8
0
10
110.1
20
-93.1
11
110.1
21
-106.9
0
LINE
8
0
10
110.1
20
-89.9
11
123.9
21
-89.9
0
LINE
8
0
10
123.9
20
-89.9
11
123.9
21
-76.1
0
LINE
8
0
10
123.9
20
-76.1
11
110.1
21
-76.1
0
LINE
8
0
10
110.1
20
-76.1
11
110.1
21
-89.9
0
LINE
8
0
10
110.1
20
-72.9
11
123.9
21
-72.9
0
LINE
8
0
10
123.9
20
-72.9
11
123.9
21
-59.1
0
LINE
8
0
10
123.9
20
-59.1
11
110.1
21
-59.1
0
LINE
8
0
10
110.1
20
-59.1
11
110.1
21
-72.9
0
LINE
8
0
10
131.1
20
-99.25
11
144.9
21
-99.25
0
LINE
8
0
10
144.9
20
-99.25
11
144.9
21
-85.45
0
LINE
8
0
10
144.9
20
-85.45
11
131.1
21
-85.45
0
LINE
8
0
10
131.1
20
-85.45
11
131.1
21
-99.25
0
LINE
8
0
10
131.1
20
-82.25
11
144.9
21
-82.25
0
LINE
8
0
10
144.9
20
-82.25
11
144.9
21
-68.45
0
LINE
8
0
10
144.9
20
-68.45
11
131.1
21
-68.45
0
LINE
8
0
10
131.1
20
-68.45
11
131.1
21
-82.25
0
LINE
8
0
10
131.1
20
-65.25
11
144.9
21
-65.25
0
LINE
8
0
10
144.9
20
-65.25
11
144.9
21
-51.45
0
LINE
8
0
10
144.9
20
-51.45
11
131.1
21
-51.45
0
LINE
8
0
10
131.1
20
-51.45
11
131.1
21
-65.25
0
LINE
8
0
10
154.1682682
20
-101.0213139
11
167.9551337
21
-101.6232614
0
LINE
8
0
10
167.9551337
20
-101.6232614
11
168.5570812
21
-87.8363959
0
LINE
8
0
10
168.5570812
20
-87.8363959
11
154.7702157
21
-87.2344484
0
LINE
8
0
10
154.7702157
20
-87.2344484
11
154.1682682
21
-101.0213139
0
LINE
8
0
10
154.9097978
20
-84.0374941
11
168.6966633
21
-84.6394416
0
LINE
8
0
10
168.6966633
20
-84.6394416
11
169.2986108
21
-70.8525761
0
LINE
8
0
10
169.2986108
20
-70.8525761
11
155.5117453
21
-70.2506286
0
LINE
8
0
10
155.5117453
20
-70.2506286
11
154.9097978
21
-84.0374941
0
LINE
8
0
10
155.6513274
20
-67.0536743
11
169.4381929
21
-67.6556218
0
LINE
8
0
10
169.4381929
20
-67.6556218
11
170.0401404
21
-53.8687563
0
LINE
8
0
10
170.0401404
20
-53.8687563
11
156.2532749
21
-53.2668088
0
LINE
8
0
10
156.2532749
20
-53.2668088
11
155.6513274
21
-67.0536743
0
LINE
8
0
10
174.9592522
20
-110.9801414
11
188.706739
21
-112.1828906
0
LINE
8
0
10
188.706739
20
-112.1828906
11
189.9094882
21
-98.4354038
0
LINE
8
0
10
189.9094882
20
-98.4354038
11
176.1620014
21
-97.2326546
0
LINE
8
0
10
176.1620014
20
-97.2326546
11
174.9592522
21
-110.9801414
0
LINE
8
0
10
176.4408998
20
-94.0448315
11
190.1883866
21
-95.2475807
0
LINE
8
0
10
190.1883866
20
-95.2475807
11
191.3911358
21
-81.5000939
0
LINE
8
0
10
191.3911358
20
-81.5000939
11
177.643649
21
-80.2973447
0
LINE
8
0
10
177.643649
20
-80.2973447
11
176.4408998
21
-94.0448315
0
LINE
8
0
10
177.9225474
20
-77.1095216
11
191.6700342
21
-78.3122708
0
LINE
8
0
10
191.6700342
20
-78.3122708
11
192.8727834
21
-64.564784
0
LINE
8
0
10
192.8727834
20
-64.564784
11
179.1252966
21
-63.3620348
0
LINE
8
0
10
179.1252966
20
-63.3620348
11
177.9225474
21
-77.1095216
0
LINE
8
0
10
192.6353858
20
-103.9941341
11
206.3828726
21
-105.1968833
0
LINE
8
0
10
206.3828726
20
-105.1968833
11
207.5856218
21
-91.4493965
0
LINE
8
0
10
207.5856218
20
-91.4493965
11
193.838135
21
-90.2466473
0
LINE
8
0
10
193.838135
20
-90.2466473
11
192.6353858
21
-103.9941341
0
LINE
8
0
10
194.4874453
20
-82.8249968
11
208.2349321
21
-84.027746
0
LINE
8
0
10
208.2349321
20
-84.027746
11
209.4376813
21
-70.2802592
0
LINE
8
0
10
209.4376813
20
-70.2802592
11
195.6901945
21
-69.07751
0
LINE
8
0
10
195.6901945
20
-69.07751
11
194.4874453
21
-82.8249968
0
LINE
8
0
10
72.5853722
20
-138.7838091
11
86.0838091
21
-135.9146278
0
LINE
8
0
10
86.0838091
20
-135.9146278
11
83.2146278
21
-122.4161909
0
LINE
8
0
10
83.2146278
20
-122.4161909
11
69.7161909
21
-125.2853722
0
LINE
8
0
10
69.7161909
20
-125.2853722
11
72.5853722
21
-138.7838091
0
LINE
8
0
10
88.6877751
20
-132.381966
11
102.3178742
21
-130.2231703
0
LINE
8
0
10
102.3178742
20
-130.2231703
11
100.1590785
21
-116.5930712
0
LINE
8
0
10
100.1590785
20
-116.5930712
11
86.5289794
21
-118.7518669
0
LINE
8
0
10
86.5289794
20
-118.7518669
11
88.6877751
21
-132.381966
0
LINE
8
0
10
105.2860515
20
-126.1364037
11
119.0671391
21
-126.8586399
0
LINE
8
0
10
119.0671391
20
-126.8586399
11
119.7893753
21
-113.0775523
0
LINE
8
0
10
119.7893753
20
-113.0775523
11
106.0082877
21
-112.3553161
0
LINE
8
0
10
106.0082877
20
-112.3553161
11
105.2860515
21
-126.1364037
0
CIRCLE
8
0
10
193.7727173
20
-72.6364335
40
2.15
0
CIRCLE
8
0
10
192.1058638
20
-91.6886572
40
2.15
0
CIRCLE
8
0
10
109
20
-72.35
40
2.15
0
CIRCLE
8
0
10
108
20
-93.65
40
2.15
0
CIRCLE
8
0
10
87.3325019
20
-130.4863899
40
2.15
0
LINE
8
0
10
145.5666255
20
-114.4999999
11
207.175067
21
-114.5
0
ARC
8
0
10
140
20
-209.6
40
160
50
63.5035646
51
115.0310767
0
ARC
8
0
10
61.5
20
-2.55
40
140
50
274.1664191
51
306.9039888
0
ARC
8
0
10
-127.25
20
-78
40
200
50
346.9791759
51
363.8338133
0
LINE
8
0
10
74.75
20
-100.25
11
89.25
21
-100.25
0
LINE
8
0
10
91
20
-98.5
11
91
21
-68.6
0
LINE
8
0
10
89.25
20
-66.85
11
74.75
21
-66.85
0
LINE
8
0
10
73
20
-68.6
11
73
21
-98.5
0
ARC
8
0
10
89.25
20
-98.5
40
1.75
50
270
51
0
0
ARC
8
0
10
89.25
20
-68.6
40
1.75
50
0
51
90
0
ARC
8
0
10
74.75
20
-68.6
40
1.75
50
90
51
180
0
ARC
8
0
10
74.75
20
-98.5
40
1.75
50
180
51
270
0
CIRCLE
8
0
10
149.9
20
-84.73
40
20.55
0
ENDSEC
0
EOF