<?xml version="1.0"?>
<svg
  xmlns="http://www.w3.org/2000/svg"
  xmlns:xlink="http://www.w3.org/1999/xlink" version="1.1"
  preserveAspectRatio="xMinYMin meet"
  viewBox="52.5 33.5 158.8827416 124"
  width="100%" height="100%"
>
  <g stroke="#000000" stroke-width="0.1%" fill="none" transform="matrix(1,0,0,-1,0,0)">
    <g stroke="rgb(0, 0, 0)"><path d="M52.5,-38.5L57.5,-38.5" /></g>
<g stroke="rgb(0, 0, 0)"><path d="M57.5,-38.5L57.5,-33.5" /></g>
<g stroke="rgb(0, 0, 0)"><path d="M57.5,-33.5L52.5,-33.5" /></g>
<g stroke="rgb(0, 0, 0)"><path d="M52.5,-33.5L52.5,-38.5" /></g>
<g stroke="rgb(0, 0, 0)"><path d="M52.5,-157.5L57.5,-157.5" /></g>
<g stroke="rgb(0, 0, 0)"><path d="M57.5,-157.5L57.5,-152.5" /></g>
<g stroke="rgb(0, 0, 0)"><path d="M57.5,-152.5L52.5,-152.5" /></g>
<g stroke="rgb(0, 0, 0)"><path d="M52.5,-152.5L52.5,-157.5" /></g>
<g stroke="rgb(0, 0, 0)"><path d="M91.5,-108.5L125.5,-108.5" /></g>
<g stroke="rgb(0, 0, 0)"><path d="M108.5,-108.5L108.5,-57.5" /></g>
<g stroke="rgb(0, 0, 0)"><path d="M91.5,-91.5L125.5,-91.5" /></g>
<g stroke="rgb(0, 0, 0)"><path d="M91.5,-108.5L91.5,-57.5" /></g>
<g stroke="rgb(0, 0, 0)"><path d="M91.5,-74.5L125.5,-74.5" /></g>
<g stroke="rgb(0, 0, 0)"><path d="M91.5,-57.5L125.5,-57.5" /></g>
<g stroke="rgb(0, 0, 0)"><path d="M125.5,-108.5L125.5,-57.5" /></g>
<g stroke="rgb(0, 0, 0)"><path d="M129.5,-100.85L146.5,-100.85" /></g>
<g stroke="rgb(0, 0, 0)"><path d="M146.5,-100.85L146.5,-49.85" /></g>
<g stroke="rgb(0, 0, 0)"><path d="M129.5,-83.85L146.5,-83.85" /></g>
<g stroke="rgb(0, 0, 0)"><path d="M129.5,-100.85L129.5,-49.85" /></g>
<g stroke="rgb(0, 0, 0)"><path d="M129.5,-66.85L146.5,-66.85" /></g>
<g stroke="rgb(0, 0, 0)"><path d="M146.5,-49.85L129.5,-49.85" /></g>
<g stroke="rgb(0, 0, 0)"><path d="M152.5,-102.55L169.4838198,-103.2915296" /></g>
<g stroke="rgb(0, 0, 0)"><path d="M169.4838198,-103.2915296L171.7084086,-52.3400702" /></g>
<g stroke="rgb(0, 0, 0)"><path d="M153.2415296,-85.5661802L170.2253494,-86.3077098" /></g>
<g stroke="rgb(0, 0, 0)"><path d="M152.5,-102.55L154.7245888,-51.5985406" /></g>
<g stroke="rgb(0, 0, 0)"><path d="M153.9830592,-68.5823604L170.966879,-69.32389" /></g>
<g stroke="rgb(0, 0, 0)"><path d="M171.7084086,-52.3400702L154.7245888,-51.5985406" /></g>
<g stroke="rgb(0, 0, 0)"><path d="M173.2258915,-112.4346037L190.1612013,-113.9162513" /></g>
<g stroke="rgb(0, 0, 0)"><path d="M190.1612013,-113.9162513L194.6061441,-63.1103217" /></g>
<g stroke="rgb(0, 0, 0)"><path d="M174.7075391,-95.4992938L191.6428489,-96.9809415" /></g>
<g stroke="rgb(0, 0, 0)"><path d="M174.7075391,-95.4992939L173.2258915,-112.4346037" /></g>
<g stroke="rgb(0, 0, 0)"><path d="M176.1891867,-78.5639839L193.1244965,-80.0456316" /></g>
<g stroke="rgb(0, 0, 0)"><path d="M176.1891867,-78.563984L174.7075391,-95.4992938" /></g>
<g stroke="rgb(0, 0, 0)"><path d="M194.6061441,-63.1103217L177.6708343,-61.6286741" /></g>
<g stroke="rgb(0, 0, 0)"><path d="M177.6708343,-61.6286741L176.1891867,-78.5639839" /></g>
<g stroke="rgb(0, 0, 0)"><path d="M190.7168191,-107.5655102L207.652129,-109.0471578" /></g>
<g stroke="rgb(0, 0, 0)"><path d="M207.2406835,-113.75L211.3827416,-66.4060609" /></g>
<g stroke="rgb(0, 0, 0)"><path d="M192.5688786,-86.3963728L209.5041885,-87.8780205" /></g>
<g stroke="rgb(0, 0, 0)"><path d="M211.356248,-66.7088831L194.4209381,-65.2272355" /></g>
<g stroke="rgb(0, 0, 0)"><path d="M67.3766837,-121.9744311L71.7948071,-142.7600676" /></g>
<g stroke="rgb(0, 0, 0)"><path d="M71.7948071,-142.7600676L88.4233163,-139.2255689" /></g>
<g stroke="rgb(0, 0, 0)"><path d="M88.4233163,-139.2255689L84.0051929,-118.4399324" /></g>
<g stroke="rgb(0, 0, 0)"><path d="M84.0051929,-118.4399324L67.3766837,-121.9744311" /></g>
<g stroke="rgb(0, 0, 0)"><path d="M84.3659597,-115.3230229L87.6901921,-136.3114002" /></g>
<g stroke="rgb(0, 0, 0)"><path d="M87.6901921,-136.3114002L104.4808939,-133.6520143" /></g>
<g stroke="rgb(0, 0, 0)"><path d="M104.4808939,-133.6520143L101.1566615,-112.663637" /></g>
<g stroke="rgb(0, 0, 0)"><path d="M101.1566615,-112.663637L84.3659597,-115.3230229" /></g>
<g stroke="rgb(0, 0, 0)"><path d="M104.6054319,-108.5516836L103.4932928,-129.7725612" /></g>
<g stroke="rgb(0, 0, 0)"><path d="M103.4932928,-129.7725612L120.4699949,-130.6622724" /></g>
<g stroke="rgb(0, 0, 0)"><path d="M120.4699949,-130.6622724L121.582134,-109.4413948" /></g>
<g stroke="rgb(0, 0, 0)"><path d="M121.582134,-109.4413948L104.6054319,-108.5516836" /></g>
<g stroke="rgb(0, 0, 0)"><path d="M98.9428754,-101.0641957L100.8707149,-99.1363561" /></g>
<g stroke="rgb(0, 0, 0)"><path d="M100.8636439,-99.1292851L98.9358043,-101.0571246" /></g>
<g stroke="rgb(0, 0, 0)"><path d="M98.9358043,-101.0571246L98.9428754,-101.0641957" /></g>
<g stroke="rgb(0, 0, 0)"><path d="M98.9428754,-84.0641957L100.8707149,-82.1363561" /></g>
<g stroke="rgb(0, 0, 0)"><path d="M100.8636439,-82.1292851L98.9358043,-84.0571246" /></g>
<g stroke="rgb(0, 0, 0)"><path d="M98.9358043,-84.0571246L98.9428754,-84.0641957" /></g>
<g stroke="rgb(0, 0, 0)"><path d="M98.9428754,-67.0641957L100.8707149,-65.1363561" /></g>
<g stroke="rgb(0, 0, 0)"><path d="M100.8636439,-65.1292851L98.9358043,-67.0571246" /></g>
<g stroke="rgb(0, 0, 0)"><path d="M98.9358043,-67.0571246L98.9428754,-67.0641957" /></g>
<g stroke="rgb(0, 0, 0)"><path d="M115.9428754,-101.0641957L117.8707149,-99.1363561" /></g>
<g stroke="rgb(0, 0, 0)"><path d="M117.8636439,-99.1292851L115.9358043,-101.0571246" /></g>
<g stroke="rgb(0, 0, 0)"><path d="M115.9358043,-101.0571246L115.9428754,-101.0641957" /></g>
<g stroke="rgb(0, 0, 0)"><path d="M115.9428754,-84.0641957L117.8707149,-82.1363561" /></g>
<g stroke="rgb(0, 0, 0)"><path d="M117.8636439,-82.1292851L115.9358043,-84.0571246" /></g>
<g stroke="rgb(0, 0, 0)"><path d="M115.9358043,-84.0571246L115.9428754,-84.0641957" /></g>
<g stroke="rgb(0, 0, 0)"><path d="M115.9428754,-67.0641957L117.8707149,-65.1363561" /></g>
<g stroke="rgb(0, 0, 0)"><path d="M117.8636439,-65.1292851L115.9358043,-67.0571246" /></g>
<g stroke="rgb(0, 0, 0)"><path d="M115.9358043,-67.0571246L115.9428754,-67.0641957" /></g>
<g stroke="rgb(0, 0, 0)"><path d="M136.9428754,-93.4141957L138.8707149,-91.4863561" /></g>
<g stroke="rgb(0, 0, 0)"><path d="M138.8636439,-91.4792851L136.9358043,-93.4071246" /></g>
<g stroke="rgb(0, 0, 0)"><path d="M136.9358043,-93.4071246L136.9428754,-93.4141957" /></g>
<g stroke="rgb(0, 0, 0)"><path d="M136.9428754,-76.4141957L138.8707149,-74.4863561" /></g>
<g stroke="rgb(0, 0, 0)"><path d="M138.8636439,-74.4792851L136.9358043,-76.4071246" /></g>
<g stroke="rgb(0, 0, 0)"><path d="M136.9358043,-76.4071246L136.9428754,-76.4141957" /></g>
<g stroke="rgb(0, 0, 0)"><path d="M136.9428754,-59.4141957L138.8707149,-57.4863561" /></g>
<g stroke="rgb(0, 0, 0)"><path d="M138.8636439,-57.4792851L136.9358043,-59.4071246" /></g>
<g stroke="rgb(0, 0, 0)"><path d="M136.9358043,-59.4071246L136.9428754,-59.4141957" /></g>
<g stroke="rgb(0, 0, 0)"><path d="M160.2601366,-95.4459266L162.2702325,-93.604013" /></g>
<g stroke="rgb(0, 0, 0)"><path d="M162.2634766,-93.5966403L160.2533807,-95.4385538" /></g>
<g stroke="rgb(0, 0, 0)"><path d="M160.2533807,-95.4385538L160.2601366,-95.4459266" /></g>
<g stroke="rgb(0, 0, 0)"><path d="M161.0016662,-78.4621068L163.0117621,-76.6201932" /></g>
<g stroke="rgb(0, 0, 0)"><path d="M163.0050062,-76.6128205L160.9949103,-78.454734" /></g>
<g stroke="rgb(0, 0, 0)"><path d="M160.9949103,-78.454734L161.0016662,-78.4621068" /></g>
<g stroke="rgb(0, 0, 0)"><path d="M161.7431958,-61.478287L163.7532917,-59.6363734" /></g>
<g stroke="rgb(0, 0, 0)"><path d="M163.7465358,-59.6290007L161.7364399,-61.4709142" /></g>
<g stroke="rgb(0, 0, 0)"><path d="M161.7364399,-61.4709142L161.7431958,-61.478287" /></g>
<g stroke="rgb(0, 0, 0)"><path d="M181.2885175,-105.6757842L183.3770433,-103.923303" /></g>
<g stroke="rgb(0, 0, 0)"><path d="M183.3706154,-103.9156425L181.2820896,-105.6681238" /></g>
<g stroke="rgb(0, 0, 0)"><path d="M181.2820896,-105.6681238L181.2885175,-105.6757842" /></g>
<g stroke="rgb(0, 0, 0)"><path d="M182.7701651,-88.7404743L184.8586909,-86.9879931" /></g>
<g stroke="rgb(0, 0, 0)"><path d="M184.852263,-86.9803326L182.7637372,-88.7328139" /></g>
<g stroke="rgb(0, 0, 0)"><path d="M182.7637372,-88.7328139L182.7701651,-88.7404743" /></g>
<g stroke="rgb(0, 0, 0)"><path d="M184.2518127,-71.8051644L186.3403385,-70.0526832" /></g>
<g stroke="rgb(0, 0, 0)"><path d="M186.3339106,-70.0450227L184.2453848,-71.797504" /></g>
<g stroke="rgb(0, 0, 0)"><path d="M184.2453848,-71.797504L184.2518127,-71.8051644" /></g>
<g stroke="rgb(0, 0, 0)"><path d="M199.1424922,-96.5759126L200.8949734,-98.6644384" /></g>
<g stroke="rgb(0, 0, 0)"><path d="M200.9026339,-98.6580105L199.1501526,-96.5694847" /></g>
<g stroke="rgb(0, 0, 0)"><path d="M199.1501526,-96.5694847L199.1424922,-96.5759126" /></g>
<g stroke="rgb(0, 0, 0)"><path d="M200.9945517,-75.4067753L202.7470329,-77.4953011" /></g>
<g stroke="rgb(0, 0, 0)"><path d="M202.7546934,-77.4888732L201.0022121,-75.4003474" /></g>
<g stroke="rgb(0, 0, 0)"><path d="M201.0022121,-75.4003474L200.9945517,-75.4067753" /></g>
<g stroke="rgb(0, 0, 0)"><path d="M76.639271,-129.7872348L78.925803,-131.2721261" /></g>
<g stroke="rgb(0, 0, 0)"><path d="M78.9312494,-131.2637394L76.6447173,-129.7788481" /></g>
<g stroke="rgb(0, 0, 0)"><path d="M76.6447173,-129.7788481L76.639271,-129.7872348" /></g>
<g stroke="rgb(0, 0, 0)"><path d="M93.2069624,-123.6098858L95.4126476,-125.21241" /></g>
<g stroke="rgb(0, 0, 0)"><path d="M95.4185254,-125.2043198L93.2128402,-123.6017956" /></g>
<g stroke="rgb(0, 0, 0)"><path d="M93.2128402,-123.6017956L93.2069624,-123.6098858" /></g>
<g stroke="rgb(0, 0, 0)"><path d="M111.5303018,-118.4956064L113.3546039,-120.5216992" /></g>
<g stroke="rgb(0, 0, 0)"><path d="M113.3620354,-120.5150079L111.5377332,-118.4889151" /></g>
<g stroke="rgb(0, 0, 0)"><path d="M111.5377332,-118.4889151L111.5303018,-118.4956064" /></g>
<g stroke="rgb(0, 0, 0)"><path d="M53.9428754,-37.0641957L55.8707149,-35.1363561" /></g>
<g stroke="rgb(0, 0, 0)"><path d="M55.8636439,-35.1292851L53.9358043,-37.0571246" /></g>
<g stroke="rgb(0, 0, 0)"><path d="M53.9358043,-37.0571246L53.9428754,-37.0641957" /></g>
<g stroke="rgb(0, 0, 0)"><path d="M53.9428754,-156.0641957L55.8707149,-154.1363561" /></g>
<g stroke="rgb(0, 0, 0)"><path d="M55.8636439,-154.1292851L53.9358043,-156.0571246" /></g>
<g stroke="rgb(0, 0, 0)"><path d="M53.9358043,-156.0571246L53.9428754,-156.0641957" /></g>
<g stroke="rgb(0, 0, 0)"><path d="M148.8928754,-86.4141957L150.8207149,-84.4863561" /></g>
<g stroke="rgb(0, 0, 0)"><path d="M150.8136439,-84.4792851L148.8858043,-86.4071246" /></g>
<g stroke="rgb(0, 0, 0)"><path d="M148.8858043,-86.4071246L148.8928754,-86.4141957" /></g>
<g stroke="rgb(0, 0, 0)"><path d="M171.3928754,-63.9141957L173.3207149,-61.9863561" /></g>
<g stroke="rgb(0, 0, 0)"><path d="M173.3136439,-61.9792851L171.3858043,-63.9071246" /></g>
<g stroke="rgb(0, 0, 0)"><path d="M171.3858043,-63.9071246L171.3928754,-63.9141957" /></g>
<g stroke="rgb(0, 0, 0)"><path d="M171.3928754,-108.9141957L173.3207149,-106.9863561" /></g>
<g stroke="rgb(0, 0, 0)"><path d="M173.3136439,-106.9792851L171.3858043,-108.9071246" /></g>
<g stroke="rgb(0, 0, 0)"><path d="M171.3858043,-108.9071246L171.3928754,-108.9141957" /></g>
<g stroke="rgb(0, 0, 0)"><path d="M126.3928754,-63.9141957L128.3207149,-61.9863561" /></g>
<g stroke="rgb(0, 0, 0)"><path d="M128.3136439,-61.9792851L126.3858043,-63.9071246" /></g>
<g stroke="rgb(0, 0, 0)"><path d="M126.3858043,-63.9071246L126.3928754,-63.9141957" /></g>
<g stroke="rgb(0, 0, 0)"><path d="M126.3928754,-108.9141957L128.3207149,-106.9863561" /></g>
<g stroke="rgb(0, 0, 0)"><path d="M128.3136439,-106.9792851L126.3858043,-108.9071246" /></g>
<g stroke="rgb(0, 0, 0)"><path d="M126.3858043,-108.9071246L126.3928754,-108.9141957" /></g>
<g stroke="rgb(0, 0, 0)"><path d="M101.9808262,-120.195312L104.1865114,-121.7978362" /></g>
<g stroke="rgb(0, 0, 0)"><path d="M104.1923892,-121.789746L101.986704,-120.1872218" /></g>
<g stroke="rgb(0, 0, 0)"><path d="M101.986704,-120.1872218L101.9808262,-120.195312" /></g>
<g stroke="rgb(0, 0, 0)"><path d="M107.4428754,-75.5641957L109.3707149,-73.6363561" /></g>
<g stroke="rgb(0, 0, 0)"><path d="M109.3636439,-73.6292851L107.4358043,-75.5571246" /></g>
<g stroke="rgb(0, 0, 0)"><path d="M107.4358043,-75.5571246L107.4428754,-75.5641957" /></g>
<g stroke="rgb(0, 0, 0)"><path d="M107.4428754,-92.5641957L109.3707149,-90.6363561" /></g>
<g stroke="rgb(0, 0, 0)"><path d="M109.3636439,-90.6292851L107.4358043,-92.5571246" /></g>
<g stroke="rgb(0, 0, 0)"><path d="M107.4358043,-92.5571246L107.4428754,-92.5641957" /></g>
<g stroke="rgb(0, 0, 0)"><path d="M191.4307367,-80.9657076L193.5192625,-79.2132264" /></g>
<g stroke="rgb(0, 0, 0)"><path d="M193.5128346,-79.2055659L191.4243088,-80.9580472" /></g>
<g stroke="rgb(0, 0, 0)"><path d="M191.4243088,-80.9580472L191.4307367,-80.9657076" /></g>
<g stroke="rgb(0, 0, 0)"><path d="M189.9490891,-97.9010175L192.0376149,-96.1485363" /></g>
<g stroke="rgb(0, 0, 0)"><path d="M192.031187,-96.1408758L189.9426612,-97.893357" /></g>
<g stroke="rgb(0, 0, 0)"><path d="M189.9426612,-97.893357L189.9490891,-97.9010175" /></g>
<g stroke="rgb(0, 0, 0)"><path d="M175.5912411,-79.5799312L177.6797669,-77.82745" /></g>
<g stroke="rgb(0, 0, 0)"><path d="M177.673339,-77.8197895L175.5848132,-79.5722708" /></g>
<g stroke="rgb(0, 0, 0)"><path d="M175.5848132,-79.5722708L175.5912411,-79.5799312" /></g>
<g stroke="rgb(0, 0, 0)"><path d="M174.1095935,-96.5152411L176.1981193,-94.7627599" /></g>
<g stroke="rgb(0, 0, 0)"><path d="M176.1916914,-94.7550994L174.1031656,-96.5075807" /></g>
<g stroke="rgb(0, 0, 0)"><path d="M174.1031656,-96.5075807L174.1095935,-96.5152411" /></g>
<g stroke="rgb(0, 0, 0)"><path d="M89.9428754,-67.9141957L91.8707149,-65.9863561" /></g>
<g stroke="rgb(0, 0, 0)"><path d="M91.8636439,-65.9792851L89.9358043,-67.9071246" /></g>
<g stroke="rgb(0, 0, 0)"><path d="M89.9358043,-67.9071246L89.9428754,-67.9141957" /></g>
<g stroke="rgb(0, 0, 0)"><path d="M71.9428754,-67.9141957L73.8707149,-65.9863561" /></g>
<g stroke="rgb(0, 0, 0)"><path d="M73.8636439,-65.9792851L71.9358043,-67.9071246" /></g>
<g stroke="rgb(0, 0, 0)"><path d="M71.9358043,-67.9071246L71.9428754,-67.9141957" /></g>
<g stroke="rgb(0, 0, 0)"><path d="M89.9428754,-101.3141957L91.8707149,-99.3863561" /></g>
<g stroke="rgb(0, 0, 0)"><path d="M91.8636439,-99.3792851L89.9358043,-101.3071246" /></g>
<g stroke="rgb(0, 0, 0)"><path d="M89.9358043,-101.3071246L89.9428754,-101.3141957" /></g>
<g stroke="rgb(0, 0, 0)"><path d="M71.9428754,-101.3141957L73.8707149,-99.3863561" /></g>
<g stroke="rgb(0, 0, 0)"><path d="M73.8636439,-99.3792851L71.9358043,-101.3071246" /></g>
<g stroke="rgb(0, 0, 0)"><path d="M71.9358043,-101.3071246L71.9428754,-101.3141957" /></g>
<g stroke="rgb(0, 0, 0)"><path d="M80.9428754,-84.6141957L82.8707149,-82.6863561" /></g>
<g stroke="rgb(0, 0, 0)"><path d="M82.8636439,-82.6792851L80.9358043,-84.6071246" /></g>
<g stroke="rgb(0, 0, 0)"><path d="M80.9358043,-84.6071246L80.9428754,-84.6141957" /></g>
<g stroke="rgb(0, 0, 0)"><path d="M87.4428754,-65.6641957L89.3707149,-63.7363561" /></g>
<g stroke="rgb(0, 0, 0)"><path d="M89.3636439,-63.7292851L87.4358043,-65.6571246" /></g>
<g stroke="rgb(0, 0, 0)"><path d="M87.4358043,-65.6571246L87.4428754,-65.6641957" /></g>
<g stroke="rgb(0, 0, 0)"><path d="M74.4428754,-103.5641957L76.3707149,-101.6363561" /></g>
<g stroke="rgb(0, 0, 0)"><path d="M76.3636439,-101.6292851L74.4358043,-103.5571246" /></g>
<g stroke="rgb(0, 0, 0)"><path d="M74.4358043,-103.5571246L74.4428754,-103.5641957" /></g>
<g stroke="rgb(0, 0, 0)"><path d="M74.4428754,-117.5641957L76.3707149,-115.6363561" /></g>
<g stroke="rgb(0, 0, 0)"><path d="M76.3636439,-115.6292851L74.4358043,-117.5571246" /></g>
<g stroke="rgb(0, 0, 0)"><path d="M74.4358043,-117.5571246L74.4428754,-117.5641957" /></g>
<g stroke="rgb(0, 0, 0)"><path d="M101.0571246,-101.0641957L101.0641957,-101.0571246" /></g>
<g stroke="rgb(0, 0, 0)"><path d="M101.0641957,-101.0571246L98.9428754,-98.9358043" /></g>
<g stroke="rgb(0, 0, 0)"><path d="M98.9428754,-98.9358043L98.9358043,-98.9428754" /></g>
<g stroke="rgb(0, 0, 0)"><path d="M98.9358043,-98.9428754L101.0571246,-101.0641957" /></g>
<g stroke="rgb(0, 0, 0)"><path d="M101.0571246,-84.0641957L101.0641957,-84.0571246" /></g>
<g stroke="rgb(0, 0, 0)"><path d="M101.0641957,-84.0571246L98.9428754,-81.9358043" /></g>
<g stroke="rgb(0, 0, 0)"><path d="M98.9428754,-81.9358043L98.9358043,-81.9428754" /></g>
<g stroke="rgb(0, 0, 0)"><path d="M98.9358043,-81.9428754L101.0571246,-84.0641957" /></g>
<g stroke="rgb(0, 0, 0)"><path d="M101.0571246,-67.0641957L101.0641957,-67.0571246" /></g>
<g stroke="rgb(0, 0, 0)"><path d="M101.0641957,-67.0571246L98.9428754,-64.9358043" /></g>
<g stroke="rgb(0, 0, 0)"><path d="M98.9428754,-64.9358043L98.9358043,-64.9428754" /></g>
<g stroke="rgb(0, 0, 0)"><path d="M98.9358043,-64.9428754L101.0571246,-67.0641957" /></g>
<g stroke="rgb(0, 0, 0)"><path d="M118.0571246,-101.0641957L118.0641957,-101.0571246" /></g>
<g stroke="rgb(0, 0, 0)"><path d="M118.0641957,-101.0571246L115.9428754,-98.9358043" /></g>
<g stroke="rgb(0, 0, 0)"><path d="M115.9428754,-98.9358043L115.9358043,-98.9428754" /></g>
<g stroke="rgb(0, 0, 0)"><path d="M115.9358043,-98.9428754L118.0571246,-101.0641957" /></g>
<g stroke="rgb(0, 0, 0)"><path d="M118.0571246,-84.0641957L118.0641957,-84.0571246" /></g>
<g stroke="rgb(0, 0, 0)"><path d="M118.0641957,-84.0571246L115.9428754,-81.9358043" /></g>
<g stroke="rgb(0, 0, 0)"><path d="M115.9428754,-81.9358043L115.9358043,-81.9428754" /></g>
<g stroke="rgb(0, 0, 0)"><path d="M115.9358043,-81.9428754L118.0571246,-84.0641957" /></g>
<g stroke="rgb(0, 0, 0)"><path d="M118.0571246,-67.0641957L118.0641957,-67.0571246" /></g>
<g stroke="rgb(0, 0, 0)"><path d="M118.0641957,-67.0571246L115.9428754,-64.9358043" /></g>
<g stroke="rgb(0, 0, 0)"><path d="M115.9428754,-64.9358043L115.9358043,-64.9428754" /></g>
<g stroke="rgb(0, 0, 0)"><path d="M115.9358043,-64.9428754L118.0571246,-67.0641957" /></g>
<g stroke="rgb(0, 0, 0)"><path d="M139.0571246,-93.4141957L139.0641957,-93.4071246" /></g>
<g stroke="rgb(0, 0, 0)"><path d="M139.0641957,-93.4071246L136.9428754,-91.2858043" /></g>
<g stroke="rgb(0, 0, 0)"><path d="M136.9428754,-91.2858043L136.9358043,-91.2928754" /></g>
<g stroke="rgb(0, 0, 0)"><path d="M136.9358043,-91.2928754L139.0571246,-93.4141957" /></g>
<g stroke="rgb(0, 0, 0)"><path d="M139.0571246,-76.4141957L139.0641957,-76.4071246" /></g>
<g stroke="rgb(0, 0, 0)"><path d="M139.0641957,-76.4071246L136.9428754,-74.2858043" /></g>
<g stroke="rgb(0, 0, 0)"><path d="M136.9428754,-74.2858043L136.9358043,-74.2928754" /></g>
<g stroke="rgb(0, 0, 0)"><path d="M136.9358043,-74.2928754L139.0571246,-76.4141957" /></g>
<g stroke="rgb(0, 0, 0)"><path d="M139.0571246,-59.4141957L139.0641957,-59.4071246" /></g>
<g stroke="rgb(0, 0, 0)"><path d="M139.0641957,-59.4071246L136.9428754,-57.2858043" /></g>
<g stroke="rgb(0, 0, 0)"><path d="M136.9428754,-57.2858043L136.9358043,-57.2928754" /></g>
<g stroke="rgb(0, 0, 0)"><path d="M136.9358043,-57.2928754L139.0571246,-59.4141957" /></g>
<g stroke="rgb(0, 0, 0)"><path d="M162.3723736,-95.5381489L162.3797464,-95.531393" /></g>
<g stroke="rgb(0, 0, 0)"><path d="M162.3797464,-95.531393L160.3529758,-93.3195609" /></g>
<g stroke="rgb(0, 0, 0)"><path d="M160.3529758,-93.3195609L160.345603,-93.3263168" /></g>
<g stroke="rgb(0, 0, 0)"><path d="M160.345603,-93.3263168L162.3723736,-95.5381489" /></g>
<g stroke="rgb(0, 0, 0)"><path d="M163.1139032,-78.5543291L163.121276,-78.5475732" /></g>
<g stroke="rgb(0, 0, 0)"><path d="M163.121276,-78.5475732L161.0945054,-76.3357411" /></g>
<g stroke="rgb(0, 0, 0)"><path d="M161.0945054,-76.3357411L161.0871326,-76.342497" /></g>
<g stroke="rgb(0, 0, 0)"><path d="M161.0871326,-76.342497L163.1139032,-78.5543291" /></g>
<g stroke="rgb(0, 0, 0)"><path d="M163.8554328,-61.5705093L163.8628056,-61.5637534" /></g>
<g stroke="rgb(0, 0, 0)"><path d="M163.8628056,-61.5637534L161.836035,-59.3519213" /></g>
<g stroke="rgb(0, 0, 0)"><path d="M161.836035,-59.3519213L161.8286622,-59.3586772" /></g>
<g stroke="rgb(0, 0, 0)"><path d="M161.8286622,-59.3586772L163.8554328,-61.5705093" /></g>
<g stroke="rgb(0, 0, 0)"><path d="M183.3947214,-105.8600532L183.4023818,-105.8536253" /></g>
<g stroke="rgb(0, 0, 0)"><path d="M183.4023818,-105.8536253L181.474019,-103.555492" /></g>
<g stroke="rgb(0, 0, 0)"><path d="M181.474019,-103.555492L181.4663586,-103.5619199" /></g>
<g stroke="rgb(0, 0, 0)"><path d="M181.4663586,-103.5619199L183.3947214,-105.8600532" /></g>
<g stroke="rgb(0, 0, 0)"><path d="M184.876369,-88.9247433L184.8840294,-88.9183154" /></g>
<g stroke="rgb(0, 0, 0)"><path d="M184.8840294,-88.9183154L182.9556666,-86.6201821" /></g>
<g stroke="rgb(0, 0, 0)"><path d="M182.9556666,-86.6201821L182.9480062,-86.62661" /></g>
<g stroke="rgb(0, 0, 0)"><path d="M182.9480062,-86.62661L184.876369,-88.9247433" /></g>
<g stroke="rgb(0, 0, 0)"><path d="M186.3580166,-71.9894334L186.365677,-71.9830055" /></g>
<g stroke="rgb(0, 0, 0)"><path d="M186.365677,-71.9830055L184.4373142,-69.6848722" /></g>
<g stroke="rgb(0, 0, 0)"><path d="M184.4373142,-69.6848722L184.4296538,-69.6913001" /></g>
<g stroke="rgb(0, 0, 0)"><path d="M184.4296538,-69.6913001L186.3580166,-71.9894334" /></g>
<g stroke="rgb(0, 0, 0)"><path d="M198.9582232,-98.6821165L198.9646511,-98.6897769" /></g>
<g stroke="rgb(0, 0, 0)"><path d="M198.9646511,-98.6897769L201.2627844,-96.7614141" /></g>
<g stroke="rgb(0, 0, 0)"><path d="M201.2627844,-96.7614141L201.2563565,-96.7537537" /></g>
<g stroke="rgb(0, 0, 0)"><path d="M201.2563565,-96.7537537L198.9582232,-98.6821165" /></g>
<g stroke="rgb(0, 0, 0)"><path d="M200.8102827,-77.5129792L200.8167106,-77.5206396" /></g>
<g stroke="rgb(0, 0, 0)"><path d="M200.8167106,-77.5206396L203.1148439,-75.5922768" /></g>
<g stroke="rgb(0, 0, 0)"><path d="M203.1148439,-75.5922768L203.108416,-75.5846164" /></g>
<g stroke="rgb(0, 0, 0)"><path d="M203.108416,-75.5846164L200.8102827,-77.5129792" /></g>
<g stroke="rgb(0, 0, 0)"><path d="M77.0788481,-131.8552827L77.0872348,-131.860729" /></g>
<g stroke="rgb(0, 0, 0)"><path d="M77.0872348,-131.860729L78.7211519,-129.3447173" /></g>
<g stroke="rgb(0, 0, 0)"><path d="M78.7211519,-129.3447173L78.7127652,-129.339271" /></g>
<g stroke="rgb(0, 0, 0)"><path d="M78.7127652,-129.339271L77.0788481,-131.8552827" /></g>
<g stroke="rgb(0, 0, 0)"><path d="M93.5377038,-125.6981052L93.545794,-125.703983" /></g>
<g stroke="rgb(0, 0, 0)"><path d="M93.545794,-125.703983L95.3091498,-123.276932" /></g>
<g stroke="rgb(0, 0, 0)"><path d="M95.3091498,-123.276932L95.3010596,-123.2710542" /></g>
<g stroke="rgb(0, 0, 0)"><path d="M95.3010596,-123.2710542L93.5377038,-125.6981052" /></g>
<g stroke="rgb(0, 0, 0)"><path d="M111.4196505,-120.6069582L111.4263418,-120.6143896" /></g>
<g stroke="rgb(0, 0, 0)"><path d="M111.4263418,-120.6143896L113.6557763,-118.6069978" /></g>
<g stroke="rgb(0, 0, 0)"><path d="M113.6557763,-118.6069978L113.649085,-118.5995664" /></g>
<g stroke="rgb(0, 0, 0)"><path d="M113.649085,-118.5995664L111.4196505,-120.6069582" /></g>
<g stroke="rgb(0, 0, 0)"><path d="M56.0571246,-37.0641957L56.0641957,-37.0571246" /></g>
<g stroke="rgb(0, 0, 0)"><path d="M56.0641957,-37.0571246L53.9428754,-34.9358043" /></g>
<g stroke="rgb(0, 0, 0)"><path d="M53.9428754,-34.9358043L53.9358043,-34.9428754" /></g>
<g stroke="rgb(0, 0, 0)"><path d="M53.9358043,-34.9428754L56.0571246,-37.0641957" /></g>
<g stroke="rgb(0, 0, 0)"><path d="M56.0571246,-156.0641957L56.0641957,-156.0571246" /></g>
<g stroke="rgb(0, 0, 0)"><path d="M56.0641957,-156.0571246L53.9428754,-153.9358043" /></g>
<g stroke="rgb(0, 0, 0)"><path d="M53.9428754,-153.9358043L53.9358043,-153.9428754" /></g>
<g stroke="rgb(0, 0, 0)"><path d="M53.9358043,-153.9428754L56.0571246,-156.0641957" /></g>
<g stroke="rgb(0, 0, 0)"><path d="M151.0071246,-86.4141957L151.0141957,-86.4071246" /></g>
<g stroke="rgb(0, 0, 0)"><path d="M151.0141957,-86.4071246L148.8928754,-84.2858043" /></g>
<g stroke="rgb(0, 0, 0)"><path d="M148.8928754,-84.2858043L148.8858043,-84.2928754" /></g>
<g stroke="rgb(0, 0, 0)"><path d="M148.8858043,-84.2928754L151.0071246,-86.4141957" /></g>
<g stroke="rgb(0, 0, 0)"><path d="M173.5071246,-63.9141957L173.5141957,-63.9071246" /></g>
<g stroke="rgb(0, 0, 0)"><path d="M173.5141957,-63.9071246L171.3928754,-61.7858043" /></g>
<g stroke="rgb(0, 0, 0)"><path d="M171.3928754,-61.7858043L171.3858043,-61.7928754" /></g>
<g stroke="rgb(0, 0, 0)"><path d="M171.3858043,-61.7928754L173.5071246,-63.9141957" /></g>
<g stroke="rgb(0, 0, 0)"><path d="M173.5071246,-108.9141957L173.5141957,-108.9071246" /></g>
<g stroke="rgb(0, 0, 0)"><path d="M173.5141957,-108.9071246L171.3928754,-106.7858043" /></g>
<g stroke="rgb(0, 0, 0)"><path d="M171.3928754,-106.7858043L171.3858043,-106.7928754" /></g>
<g stroke="rgb(0, 0, 0)"><path d="M171.3858043,-106.7928754L173.5071246,-108.9141957" /></g>
<g stroke="rgb(0, 0, 0)"><path d="M128.5071246,-63.9141957L128.5141957,-63.9071246" /></g>
<g stroke="rgb(0, 0, 0)"><path d="M128.5141957,-63.9071246L126.3928754,-61.7858043" /></g>
<g stroke="rgb(0, 0, 0)"><path d="M126.3928754,-61.7858043L126.3858043,-61.7928754" /></g>
<g stroke="rgb(0, 0, 0)"><path d="M126.3858043,-61.7928754L128.5071246,-63.9141957" /></g>
<g stroke="rgb(0, 0, 0)"><path d="M128.5071246,-108.9141957L128.5141957,-108.9071246" /></g>
<g stroke="rgb(0, 0, 0)"><path d="M128.5141957,-108.9071246L126.3928754,-106.7858043" /></g>
<g stroke="rgb(0, 0, 0)"><path d="M126.3928754,-106.7858043L126.3858043,-106.7928754" /></g>
<g stroke="rgb(0, 0, 0)"><path d="M126.3858043,-106.7928754L128.5071246,-108.9141957" /></g>
<g stroke="rgb(0, 0, 0)"><path d="M102.3115676,-122.2835314L102.3196578,-122.2894092" /></g>
<g stroke="rgb(0, 0, 0)"><path d="M102.3196578,-122.2894092L104.0830136,-119.8623582" /></g>
<g stroke="rgb(0, 0, 0)"><path d="M104.0830136,-119.8623582L104.0749234,-119.8564804" /></g>
<g stroke="rgb(0, 0, 0)"><path d="M104.0749234,-119.8564804L102.3115676,-122.2835314" /></g>
<g stroke="rgb(0, 0, 0)"><path d="M109.5571246,-75.5641957L109.5641957,-75.5571246" /></g>
<g stroke="rgb(0, 0, 0)"><path d="M109.5641957,-75.5571246L107.4428754,-73.4358043" /></g>
<g stroke="rgb(0, 0, 0)"><path d="M107.4428754,-73.4358043L107.4358043,-73.4428754" /></g>
<g stroke="rgb(0, 0, 0)"><path d="M107.4358043,-73.4428754L109.5571246,-75.5641957" /></g>
<g stroke="rgb(0, 0, 0)"><path d="M109.5571246,-92.5641957L109.5641957,-92.5571246" /></g>
<g stroke="rgb(0, 0, 0)"><path d="M109.5641957,-92.5571246L107.4428754,-90.4358043" /></g>
<g stroke="rgb(0, 0, 0)"><path d="M107.4428754,-90.4358043L107.4358043,-90.4428754" /></g>
<g stroke="rgb(0, 0, 0)"><path d="M107.4358043,-90.4428754L109.5571246,-92.5641957" /></g>
<g stroke="rgb(0, 0, 0)"><path d="M193.5369406,-81.1499766L193.544601,-81.1435487" /></g>
<g stroke="rgb(0, 0, 0)"><path d="M193.544601,-81.1435487L191.6162382,-78.8454154" /></g>
<g stroke="rgb(0, 0, 0)"><path d="M191.6162382,-78.8454154L191.6085778,-78.8518433" /></g>
<g stroke="rgb(0, 0, 0)"><path d="M191.6085778,-78.8518433L193.5369406,-81.1499766" /></g>
<g stroke="rgb(0, 0, 0)"><path d="M192.055293,-98.0852865L192.0629534,-98.0788586" /></g>
<g stroke="rgb(0, 0, 0)"><path d="M192.0629534,-98.0788586L190.1345906,-95.7807253" /></g>
<g stroke="rgb(0, 0, 0)"><path d="M190.1345906,-95.7807253L190.1269302,-95.7871532" /></g>
<g stroke="rgb(0, 0, 0)"><path d="M190.1269302,-95.7871532L192.055293,-98.0852865" /></g>
<g stroke="rgb(0, 0, 0)"><path d="M177.697445,-79.7642002L177.7051054,-79.7577723" /></g>
<g stroke="rgb(0, 0, 0)"><path d="M177.7051054,-79.7577723L175.7767426,-77.459639" /></g>
<g stroke="rgb(0, 0, 0)"><path d="M175.7767426,-77.459639L175.7690822,-77.4660669" /></g>
<g stroke="rgb(0, 0, 0)"><path d="M175.7690822,-77.4660669L177.697445,-79.7642002" /></g>
<g stroke="rgb(0, 0, 0)"><path d="M176.2157974,-96.6995101L176.2234578,-96.6930822" /></g>
<g stroke="rgb(0, 0, 0)"><path d="M176.2234578,-96.6930822L174.295095,-94.3949489" /></g>
<g stroke="rgb(0, 0, 0)"><path d="M174.295095,-94.3949489L174.2874346,-94.4013768" /></g>
<g stroke="rgb(0, 0, 0)"><path d="M174.2874346,-94.4013768L176.2157974,-96.6995101" /></g>
<g stroke="rgb(0, 0, 0)"><path d="M92.0571246,-67.9141957L92.0641957,-67.9071246" /></g>
<g stroke="rgb(0, 0, 0)"><path d="M92.0641957,-67.9071246L89.9428754,-65.7858043" /></g>
<g stroke="rgb(0, 0, 0)"><path d="M89.9428754,-65.7858043L89.9358043,-65.7928754" /></g>
<g stroke="rgb(0, 0, 0)"><path d="M89.9358043,-65.7928754L92.0571246,-67.9141957" /></g>
<g stroke="rgb(0, 0, 0)"><path d="M74.0571246,-67.9141957L74.0641957,-67.9071246" /></g>
<g stroke="rgb(0, 0, 0)"><path d="M74.0641957,-67.9071246L71.9428754,-65.7858043" /></g>
<g stroke="rgb(0, 0, 0)"><path d="M71.9428754,-65.7858043L71.9358043,-65.7928754" /></g>
<g stroke="rgb(0, 0, 0)"><path d="M71.9358043,-65.7928754L74.0571246,-67.9141957" /></g>
<g stroke="rgb(0, 0, 0)"><path d="M92.0571246,-101.3141957L92.0641957,-101.3071246" /></g>
<g stroke="rgb(0, 0, 0)"><path d="M92.0641957,-101.3071246L89.9428754,-99.1858043" /></g>
<g stroke="rgb(0, 0, 0)"><path d="M89.9428754,-99.1858043L89.9358043,-99.1928754" /></g>
<g stroke="rgb(0, 0, 0)"><path d="M89.9358043,-99.1928754L92.0571246,-101.3141957" /></g>
<g stroke="rgb(0, 0, 0)"><path d="M74.0571246,-101.3141957L74.0641957,-101.3071246" /></g>
<g stroke="rgb(0, 0, 0)"><path d="M74.0641957,-101.3071246L71.9428754,-99.1858043" /></g>
<g stroke="rgb(0, 0, 0)"><path d="M71.9428754,-99.1858043L71.9358043,-99.1928754" /></g>
<g stroke="rgb(0, 0, 0)"><path d="M71.9358043,-99.1928754L74.0571246,-101.3141957" /></g>
<g stroke="rgb(0, 0, 0)"><path d="M83.0571246,-84.6141957L83.0641957,-84.6071246" /></g>
<g stroke="rgb(0, 0, 0)"><path d="M83.0641957,-84.6071246L80.9428754,-82.4858043" /></g>
<g stroke="rgb(0, 0, 0)"><path d="M80.9428754,-82.4858043L80.9358043,-82.4928754" /></g>
<g stroke="rgb(0, 0, 0)"><path d="M80.9358043,-82.4928754L83.0571246,-84.6141957" /></g>
<g stroke="rgb(0, 0, 0)"><path d="M89.5571246,-65.6641957L89.5641957,-65.6571246" /></g>
<g stroke="rgb(0, 0, 0)"><path d="M89.5641957,-65.6571246L87.4428754,-63.5358043" /></g>
<g stroke="rgb(0, 0, 0)"><path d="M87.4428754,-63.5358043L87.4358043,-63.5428754" /></g>
<g stroke="rgb(0, 0, 0)"><path d="M87.4358043,-63.5428754L89.5571246,-65.6641957" /></g>
<g stroke="rgb(0, 0, 0)"><path d="M76.5571246,-103.5641957L76.5641957,-103.5571246" /></g>
<g stroke="rgb(0, 0, 0)"><path d="M76.5641957,-103.5571246L74.4428754,-101.4358043" /></g>
<g stroke="rgb(0, 0, 0)"><path d="M74.4428754,-101.4358043L74.4358043,-101.4428754" /></g>
<g stroke="rgb(0, 0, 0)"><path d="M74.4358043,-101.4428754L76.5571246,-103.5641957" /></g>
<g stroke="rgb(0, 0, 0)"><path d="M76.5571246,-117.5641957L76.5641957,-117.5571246" /></g>
<g stroke="rgb(0, 0, 0)"><path d="M76.5641957,-117.5571246L74.4428754,-115.4358043" /></g>
<g stroke="rgb(0, 0, 0)"><path d="M74.4428754,-115.4358043L74.4358043,-115.4428754" /></g>
<g stroke="rgb(0, 0, 0)"><path d="M74.4358043,-115.4428754L76.5571246,-117.5641957" /></g>
<g stroke="rgb(0, 0, 0)"><path d="M 100.87071488541505 -99.13635611530272 A 0.4 0.4 0 1 1 100.86364388469728 -99.12928511458495" /></g>
<g stroke="rgb(0, 0, 0)"><path d="M 100.87071488541505 -82.13635611530272 A 0.4 0.4 0 1 1 100.86364388469728 -82.12928511458495" /></g>
<g stroke="rgb(0, 0, 0)"><path d="M 100.87071488541505 -65.13635611530272 A 0.4 0.4 0 1 1 100.86364388469728 -65.12928511458495" /></g>
<g stroke="rgb(0, 0, 0)"><path d="M 117.87071488541505 -99.13635611530272 A 0.4 0.4 0 1 1 117.86364388469728 -99.12928511458495" /></g>
<g stroke="rgb(0, 0, 0)"><path d="M 117.87071488541505 -82.13635611530272 A 0.4 0.4 0 1 1 117.86364388469728 -82.12928511458495" /></g>
<g stroke="rgb(0, 0, 0)"><path d="M 117.87071488541505 -65.13635611530272 A 0.4 0.4 0 1 1 117.86364388469728 -65.12928511458495" /></g>
<g stroke="rgb(0, 0, 0)"><path d="M 138.87071488541505 -91.48635611530273 A 0.4 0.4 0 1 1 138.86364388469727 -91.47928511458495" /></g>
<g stroke="rgb(0, 0, 0)"><path d="M 138.87071488541505 -74.48635611530273 A 0.4 0.4 0 1 1 138.86364388469727 -74.47928511458495" /></g>
<g stroke="rgb(0, 0, 0)"><path d="M 138.87071488541505 -57.48635611530273 A 0.4 0.4 0 1 1 138.86364388469727 -57.479285114584954" /></g>
<g stroke="rgb(0, 0, 0)"><path d="M 162.27023250217354 -93.60401299822112 A 0.4 0.4 0 1 1 162.26347663875572 -93.59664026510363" /></g>
<g stroke="rgb(0, 0, 0)"><path d="M 163.01176210217352 -76.62019319822112 A 0.4 0.4 0 1 1 163.0050062387557 -76.61282046510362" /></g>
<g stroke="rgb(0, 0, 0)"><path d="M 163.75329170217353 -59.636373398221124 A 0.4 0.4 0 1 1 163.7465358387557 -59.62900066510363" /></g>
<g stroke="rgb(0, 0, 0)"><path d="M 183.3770433111164 -103.92330299038325 A 0.4 0.4 0 1 1 183.37061539798938 -103.9156425013189" /></g>
<g stroke="rgb(0, 0, 0)"><path d="M 184.8586909111164 -86.98799309038324 A 0.4 0.4 0 1 1 184.85226299798938 -86.98033260131889" /></g>
<g stroke="rgb(0, 0, 0)"><path d="M 186.3403385111164 -70.05268319038325 A 0.4 0.4 0 1 1 186.3339105979894 -70.0450227013189" /></g>
<g stroke="rgb(0, 0, 0)"><path d="M 200.89497340961674 -98.66443841111641 A 0.4 0.4 0 1 1 200.9026338986811 -98.65801049798937" /></g>
<g stroke="rgb(0, 0, 0)"><path d="M 202.74703290961673 -77.4953011111164 A 0.4 0.4 0 1 1 202.7546933986811 -77.48887319798936" /></g>
<g stroke="rgb(0, 0, 0)"><path d="M 78.92580297256929 -131.2721260825091 A 0.4 0.4 0 1 1 78.93124936315255 -131.26373937525295" /></g>
<g stroke="rgb(0, 0, 0)"><path d="M 95.41264755027349 -125.21240996505087 A 0.4 0.4 0 1 1 95.41852539919209 -125.20431979932572" /></g>
<g stroke="rgb(0, 0, 0)"><path d="M 113.35460394394494 -120.52169924751547 A 0.4 0.4 0 1 1 113.36203541688427 -120.51500791975425" /></g>
<g stroke="rgb(0, 0, 0)"><path d="M 55.87071488541505 -35.13635611530273 A 0.4 0.4 0 1 1 55.86364388469727 -35.12928511458495" /></g>
<g stroke="rgb(0, 0, 0)"><path d="M 55.87071488541505 -154.13635611530273 A 0.4 0.4 0 1 1 55.86364388469727 -154.12928511458495" /></g>
<g stroke="rgb(0, 0, 0)"><path d="M 150.82071488541504 -84.48635611530273 A 0.4 0.4 0 1 1 150.81364388469726 -84.47928511458495" /></g>
<g stroke="rgb(0, 0, 0)"><path d="M 173.32071488541504 -61.98635611530273 A 0.4 0.4 0 1 1 173.31364388469726 -61.979285114584954" /></g>
<g stroke="rgb(0, 0, 0)"><path d="M 173.32071488541504 -106.98635611530273 A 0.4 0.4 0 1 1 173.31364388469726 -106.97928511458495" /></g>
<g stroke="rgb(0, 0, 0)"><path d="M 128.32071488541504 -61.98635611530273 A 0.4 0.4 0 1 1 128.31364388469726 -61.979285114584954" /></g>
<g stroke="rgb(0, 0, 0)"><path d="M 128.32071488541504 -106.98635611530273 A 0.4 0.4 0 1 1 128.31364388469726 -106.97928511458495" /></g>
<g stroke="rgb(0, 0, 0)"><path d="M 104.18651135027348 -121.79783616505087 A 0.4 0.4 0 1 1 104.19238919919208 -121.78974599932572" /></g>
<g stroke="rgb(0, 0, 0)"><path d="M 109.37071488541505 -73.63635611530272 A 0.4 0.4 0 1 1 109.36364388469728 -73.62928511458495" /></g>
<g stroke="rgb(0, 0, 0)"><path d="M 109.37071488541505 -90.63635611530272 A 0.4 0.4 0 1 1 109.36364388469728 -90.62928511458495" /></g>
<g stroke="rgb(0, 0, 0)"><path d="M 193.5192625111164 -79.21322639038324 A 0.4 0.4 0 1 1 193.51283459798938 -79.20556590131889" /></g>
<g stroke="rgb(0, 0, 0)"><path d="M 192.0376149111164 -96.14853629038325 A 0.4 0.4 0 1 1 192.03118699798938 -96.1408758013189" /></g>
<g stroke="rgb(0, 0, 0)"><path d="M 177.67976691111642 -77.82744999038324 A 0.4 0.4 0 1 1 177.6733389979894 -77.8197895013189" /></g>
<g stroke="rgb(0, 0, 0)"><path d="M 176.19811931111641 -94.76275989038325 A 0.4 0.4 0 1 1 176.1916913979894 -94.7550994013189" /></g>
<g stroke="rgb(0, 0, 0)"><path d="M 91.87071488541505 -65.98635611530273 A 0.4 0.4 0 1 1 91.86364388469728 -65.97928511458495" /></g>
<g stroke="rgb(0, 0, 0)"><path d="M 73.87071488541505 -65.98635611530273 A 0.4 0.4 0 1 1 73.86364388469728 -65.97928511458495" /></g>
<g stroke="rgb(0, 0, 0)"><path d="M 91.87071488541505 -99.38635611530272 A 0.4 0.4 0 1 1 91.86364388469728 -99.37928511458495" /></g>
<g stroke="rgb(0, 0, 0)"><path d="M 73.87071488541505 -99.38635611530272 A 0.4 0.4 0 1 1 73.86364388469728 -99.37928511458495" /></g>
<g stroke="rgb(0, 0, 0)"><path d="M 82.87071488541505 -82.68635611530273 A 0.4 0.4 0 1 1 82.86364388469728 -82.67928511458496" /></g>
<g stroke="rgb(0, 0, 0)"><path d="M 89.37071488541505 -63.73635611530273 A 0.4 0.4 0 1 1 89.36364388469728 -63.729285114584954" /></g>
<g stroke="rgb(0, 0, 0)"><path d="M 76.37071488541505 -101.63635611530272 A 0.4 0.4 0 1 1 76.36364388469728 -101.62928511458495" /></g>
<g stroke="rgb(0, 0, 0)"><path d="M 76.37071488541505 -115.63635611530272 A 0.4 0.4 0 1 1 76.36364388469728 -115.62928511458495" /></g>
<g stroke="rgb(0, 0, 0)"><path d="M92.5,-107.5L107.5,-107.5" /></g>
<g stroke="rgb(0, 0, 0)"><path d="M107.5,-107.5L107.5,-92.5" /></g>
<g stroke="rgb(0, 0, 0)"><path d="M107.5,-92.5L92.5,-92.5" /></g>
<g stroke="rgb(0, 0, 0)"><path d="M92.5,-92.5L92.5,-107.5" /></g>
<g stroke="rgb(0, 0, 0)"><path d="M92.5,-90.5L107.5,-90.5" /></g>
<g stroke="rgb(0, 0, 0)"><path d="M107.5,-90.5L107.5,-75.5" /></g>
<g stroke="rgb(0, 0, 0)"><path d="M107.5,-75.5L92.5,-75.5" /></g>
<g stroke="rgb(0, 0, 0)"><path d="M92.5,-75.5L92.5,-90.5" /></g>
<g stroke="rgb(0, 0, 0)"><path d="M92.5,-73.5L107.5,-73.5" /></g>
<g stroke="rgb(0, 0, 0)"><path d="M107.5,-73.5L107.5,-58.5" /></g>
<g stroke="rgb(0, 0, 0)"><path d="M107.5,-58.5L92.5,-58.5" /></g>
<g stroke="rgb(0, 0, 0)"><path d="M92.5,-58.5L92.5,-73.5" /></g>
<g stroke="rgb(0, 0, 0)"><path d="M109.5,-107.5L124.5,-107.5" /></g>
<g stroke="rgb(0, 0, 0)"><path d="M124.5,-107.5L124.5,-92.5" /></g>
<g stroke="rgb(0, 0, 0)"><path d="M124.5,-92.5L109.5,-92.5" /></g>
<g stroke="rgb(0, 0, 0)"><path d="M109.5,-92.5L109.5,-107.5" /></g>
<g stroke="rgb(0, 0, 0)"><path d="M109.5,-90.5L124.5,-90.5" /></g>
<g stroke="rgb(0, 0, 0)"><path d="M124.5,-90.5L124.5,-75.5" /></g>
<g stroke="rgb(0, 0, 0)"><path d="M124.5,-75.5L109.5,-75.5" /></g>
<g stroke="rgb(0, 0, 0)"><path d="M109.5,-75.5L109.5,-90.5" /></g>
<g stroke="rgb(0, 0, 0)"><path d="M109.5,-73.5L124.5,-73.5" /></g>
<g stroke="rgb(0, 0, 0)"><path d="M124.5,-73.5L124.5,-58.5" /></g>
<g stroke="rgb(0, 0, 0)"><path d="M124.5,-58.5L109.5,-58.5" /></g>
<g stroke="rgb(0, 0, 0)"><path d="M109.5,-58.5L109.5,-73.5" /></g>
<g stroke="rgb(0, 0, 0)"><path d="M130.5,-99.85L145.5,-99.85" /></g>
<g stroke="rgb(0, 0, 0)"><path d="M145.5,-99.85L145.5,-84.85" /></g>
<g stroke="rgb(0, 0, 0)"><path d="M145.5,-84.85L130.5,-84.85" /></g>
<g stroke="rgb(0, 0, 0)"><path d="M130.5,-84.85L130.5,-99.85" /></g>
<g stroke="rgb(0, 0, 0)"><path d="M130.5,-82.85L145.5,-82.85" /></g>
<g stroke="rgb(0, 0, 0)"><path d="M145.5,-82.85L145.5,-67.85" /></g>
<g stroke="rgb(0, 0, 0)"><path d="M145.5,-67.85L130.5,-67.85" /></g>
<g stroke="rgb(0, 0, 0)"><path d="M130.5,-67.85L130.5,-82.85" /></g>
<g stroke="rgb(0, 0, 0)"><path d="M130.5,-65.85L145.5,-65.85" /></g>
<g stroke="rgb(0, 0, 0)"><path d="M145.5,-65.85L145.5,-50.85" /></g>
<g stroke="rgb(0, 0, 0)"><path d="M145.5,-50.85L130.5,-50.85" /></g>
<g stroke="rgb(0, 0, 0)"><path d="M130.5,-50.85L130.5,-65.85" /></g>
<g stroke="rgb(0, 0, 0)"><path d="M153.5426676,-101.5945712L168.528391,-102.248862" /></g>
<g stroke="rgb(0, 0, 0)"><path d="M168.528391,-102.248862L169.1826818,-87.2631386" /></g>
<g stroke="rgb(0, 0, 0)"><path d="M169.1826818,-87.2631386L154.1969584,-86.6088478" /></g>
<g stroke="rgb(0, 0, 0)"><path d="M154.1969584,-86.6088478L153.5426676,-101.5945712" /></g>
<g stroke="rgb(0, 0, 0)"><path d="M154.2841972,-84.6107514L169.2699206,-85.2650422" /></g>
<g stroke="rgb(0, 0, 0)"><path d="M169.2699206,-85.2650422L169.9242114,-70.2793188" /></g>
<g stroke="rgb(0, 0, 0)"><path d="M169.9242114,-70.2793188L154.938488,-69.625028" /></g>
<g stroke="rgb(0, 0, 0)"><path d="M154.938488,-69.625028L154.2841972,-84.6107514" /></g>
<g stroke="rgb(0, 0, 0)"><path d="M155.0257268,-67.6269316L170.0114502,-68.2812224" /></g>
<g stroke="rgb(0, 0, 0)"><path d="M170.0114502,-68.2812224L170.665741,-53.295499" /></g>
<g stroke="rgb(0, 0, 0)"><path d="M170.665741,-53.295499L155.6800176,-52.6412082" /></g>
<g stroke="rgb(0, 0, 0)"><path d="M155.6800176,-52.6412082L155.0257268,-67.6269316" /></g>
<g stroke="rgb(0, 0, 0)"><path d="M174.3092419,-111.5255648L189.2521624,-112.8329009" /></g>
<g stroke="rgb(0, 0, 0)"><path d="M189.2521624,-112.8329009L190.5594985,-97.8899804" /></g>
<g stroke="rgb(0, 0, 0)"><path d="M190.5594985,-97.8899804L175.616578,-96.5826443" /></g>
<g stroke="rgb(0, 0, 0)"><path d="M175.616578,-96.5826443L174.3092419,-111.5255648" /></g>
<g stroke="rgb(0, 0, 0)"><path d="M175.7908895,-94.5902549L190.73381,-95.897591" /></g>
<g stroke="rgb(0, 0, 0)"><path d="M190.73381,-95.897591L192.0411461,-80.9546705" /></g>
<g stroke="rgb(0, 0, 0)"><path d="M192.0411461,-80.9546705L177.0982256,-79.6473344" /></g>
<g stroke="rgb(0, 0, 0)"><path d="M177.0982256,-79.6473344L175.7908895,-94.5902549" /></g>
<g stroke="rgb(0, 0, 0)"><path d="M177.2725371,-77.654945L192.2154576,-78.9622811" /></g>
<g stroke="rgb(0, 0, 0)"><path d="M192.2154576,-78.9622811L193.5227937,-64.0193606" /></g>
<g stroke="rgb(0, 0, 0)"><path d="M193.5227937,-64.0193606L178.5798732,-62.7120245" /></g>
<g stroke="rgb(0, 0, 0)"><path d="M178.5798732,-62.7120245L177.2725371,-77.654945" /></g>
<g stroke="rgb(0, 0, 0)"><path d="M193.2927116,-89.596637L191.9853755,-104.5395575" /></g>
<g stroke="rgb(0, 0, 0)"><path d="M191.9853755,-104.5395575L206.928296,-105.8468936" /></g>
<g stroke="rgb(0, 0, 0)"><path d="M206.928296,-105.8468936L208.2356321,-90.9039731" /></g>
<g stroke="rgb(0, 0, 0)"><path d="M208.2356321,-90.9039731L193.2927116,-89.596637" /></g>
<g stroke="rgb(0, 0, 0)"><path d="M195.1447711,-68.4274997L193.837435,-83.3704202" /></g>
<g stroke="rgb(0, 0, 0)"><path d="M193.837435,-83.3704202L208.7803555,-84.6777563" /></g>
<g stroke="rgb(0, 0, 0)"><path d="M208.7803555,-84.6777563L210.0876916,-69.7348358" /></g>
<g stroke="rgb(0, 0, 0)"><path d="M210.0876916,-69.7348358L195.1447711,-68.4274997" /></g>
<g stroke="rgb(0, 0, 0)"><path d="M69.0045553,-124.8232307L72.1232307,-139.4954447" /></g>
<g stroke="rgb(0, 0, 0)"><path d="M72.1232307,-139.4954447L86.7954447,-136.3767693" /></g>
<g stroke="rgb(0, 0, 0)"><path d="M86.7954447,-136.3767693L83.6767693,-121.7045553" /></g>
<g stroke="rgb(0, 0, 0)"><path d="M83.6767693,-121.7045553L69.0045553,-124.8232307" /></g>
<g stroke="rgb(0, 0, 0)"><path d="M85.8425058,-118.2531145L88.1890227,-133.0684396" /></g>
<g stroke="rgb(0, 0, 0)"><path d="M88.1890227,-133.0684396L103.0043478,-130.7219227" /></g>
<g stroke="rgb(0, 0, 0)"><path d="M103.0043478,-130.7219227L100.6578309,-115.9065976" /></g>
<g stroke="rgb(0, 0, 0)"><path d="M100.6578309,-115.9065976L85.8425058,-118.2531145" /></g>
<g stroke="rgb(0, 0, 0)"><path d="M105.4405116,-111.7247368L104.6554722,-126.7041798" /></g>
<g stroke="rgb(0, 0, 0)"><path d="M104.6554722,-126.7041798L119.6349152,-127.4892192" /></g>
<g stroke="rgb(0, 0, 0)"><path d="M119.6349152,-127.4892192L120.4199546,-112.5097762" /></g>
<g stroke="rgb(0, 0, 0)"><path d="M120.4199546,-112.5097762L105.4405116,-111.7247368" /></g>
<g stroke="rgb(0, 0, 0)"><path d="M93.1,-106.9L106.9,-106.9" /></g>
<g stroke="rgb(0, 0, 0)"><path d="M106.9,-106.9L106.9,-93.1" /></g>
<g stroke="rgb(0, 0, 0)"><path d="M106.9,-93.1L93.1,-93.1" /></g>
<g stroke="rgb(0, 0, 0)"><path d="M93.1,-93.1L93.1,-106.9" /></g>
<g stroke="rgb(0, 0, 0)"><path d="M93.1,-89.9L106.9,-89.9" /></g>
<g stroke="rgb(0, 0, 0)"><path d="M106.9,-89.9L106.9,-76.1" /></g>
<g stroke="rgb(0, 0, 0)"><path d="M106.9,-76.1L93.1,-76.1" /></g>
<g stroke="rgb(0, 0, 0)"><path d="M93.1,-76.1L93.1,-89.9" /></g>
<g stroke="rgb(0, 0, 0)"><path d="M93.1,-72.9L106.9,-72.9" /></g>
<g stroke="rgb(0, 0, 0)"><path d="M106.9,-72.9L106.9,-59.1" /></g>
<g stroke="rgb(0, 0, 0)"><path d="M106.9,-59.1L93.1,-59.1" /></g>
<g stroke="rgb(0, 0, 0)"><path d="M93.1,-59.1L93.1,-72.9" /></g>
<g stroke="rgb(0, 0, 0)"><path d="M110.1,-106.9L123.9,-106.9" /></g>
<g stroke="rgb(0, 0, 0)"><path d="M123.9,-106.9L123.9,-93.1" /></g>
<g stroke="rgb(0, 0, 0)"><path d="M123.9,-93.1L110.1,-93.1" /></g>
<g stroke="rgb(0, 0, 0)"><path d="M110.1,-93.1L110.1,-106.9" /></g>
<g stroke="rgb(0, 0, 0)"><path d="M110.1,-89.9L123.9,-89.9" /></g>
<g stroke="rgb(0, 0, 0)"><path d="M123.9,-89.9L123.9,-76.1" /></g>
<g stroke="rgb(0, 0, 0)"><path d="M123.9,-76.1L110.1,-76.1" /></g>
<g stroke="rgb(0, 0, 0)"><path d="M110.1,-76.1L110.1,-89.9" /></g>
<g stroke="rgb(0, 0, 0)"><path d="M110.1,-72.9L123.9,-72.9" /></g>
<g stroke="rgb(0, 0, 0)"><path d="M123.9,-72.9L123.9,-59.1" /></g>
<g stroke="rgb(0, 0, 0)"><path d="M123.9,-59.1L110.1,-59.1" /></g>
<g stroke="rgb(0, 0, 0)"><path d="M110.1,-59.1L110.1,-72.9" /></g>
<g stroke="rgb(0, 0, 0)"><path d="M131.1,-99.25L144.9,-99.25" /></g>
<g stroke="rgb(0, 0, 0)"><path d="M144.9,-99.25L144.9,-85.45" /></g>
<g stroke="rgb(0, 0, 0)"><path d="M144.9,-85.45L131.1,-85.45" /></g>
<g stroke="rgb(0, 0, 0)"><path d="M131.1,-85.45L131.1,-99.25" /></g>
<g stroke="rgb(0, 0, 0)"><path d="M131.1,-82.25L144.9,-82.25" /></g>
<g stroke="rgb(0, 0, 0)"><path d="M144.9,-82.25L144.9,-68.45" /></g>
<g stroke="rgb(0, 0, 0)"><path d="M144.9,-68.45L131.1,-68.45" /></g>
<g stroke="rgb(0, 0, 0)"><path d="M131.1,-68.45L131.1,-82.25" /></g>
<g stroke="rgb(0, 0, 0)"><path d="M131.1,-65.25L144.9,-65.25" /></g>
<g stroke="rgb(0, 0, 0)"><path d="M144.9,-65.25L144.9,-51.45" /></g>
<g stroke="rgb(0, 0, 0)"><path d="M144.9,-51.45L131.1,-51.45" /></g>
<g stroke="rgb(0, 0, 0)"><path d="M131.1,-51.45L131.1,-65.25" /></g>
<g stroke="rgb(0, 0, 0)"><path d="M154.1682682,-101.0213139L167.9551337,-101.6232614" /></g>
<g stroke="rgb(0, 0, 0)"><path d="M167.9551337,-101.6232614L168.5570812,-87.8363959" /></g>
<g stroke="rgb(0, 0, 0)"><path d="M168.5570812,-87.8363959L154.7702157,-87.2344484" /></g>
<g stroke="rgb(0, 0, 0)"><path d="M154.7702157,-87.2344484L154.1682682,-101.0213139" /></g>
<g stroke="rgb(0, 0, 0)"><path d="M154.9097978,-84.0374941L168.6966633,-84.6394416" /></g>
<g stroke="rgb(0, 0, 0)"><path d="M168.6966633,-84.6394416L169.2986108,-70.8525761" /></g>
<g stroke="rgb(0, 0, 0)"><path d="M169.2986108,-70.8525761L155.5117453,-70.2506286" /></g>
<g stroke="rgb(0, 0, 0)"><path d="M155.5117453,-70.2506286L154.9097978,-84.0374941" /></g>
<g stroke="rgb(0, 0, 0)"><path d="M155.6513274,-67.0536743L169.4381929,-67.6556218" /></g>
<g stroke="rgb(0, 0, 0)"><path d="M169.4381929,-67.6556218L170.0401404,-53.8687563" /></g>
<g stroke="rgb(0, 0, 0)"><path d="M170.0401404,-53.8687563L156.2532749,-53.2668088" /></g>
<g stroke="rgb(0, 0, 0)"><path d="M156.2532749,-53.2668088L155.6513274,-67.0536743" /></g>
<g stroke="rgb(0, 0, 0)"><path d="M174.9592522,-110.9801414L188.706739,-112.1828906" /></g>
<g stroke="rgb(0, 0, 0)"><path d="M188.706739,-112.1828906L189.9094882,-98.4354038" /></g>
<g stroke="rgb(0, 0, 0)"><path d="M189.9094882,-98.4354038L176.1620014,-97.2326546" /></g>
<g stroke="rgb(0, 0, 0)"><path d="M176.1620014,-97.2326546L174.9592522,-110.9801414" /></g>
<g stroke="rgb(0, 0, 0)"><path d="M176.4408998,-94.0448315L190.1883866,-95.2475807" /></g>
<g stroke="rgb(0, 0, 0)"><path d="M190.1883866,-95.2475807L191.3911358,-81.5000939" /></g>
<g stroke="rgb(0, 0, 0)"><path d="M191.3911358,-81.5000939L177.643649,-80.2973447" /></g>
<g stroke="rgb(0, 0, 0)"><path d="M177.643649,-80.2973447L176.4408998,-94.0448315" /></g>
<g stroke="rgb(0, 0, 0)"><path d="M177.9225474,-77.1095216L191.6700342,-78.3122708" /></g>
<g stroke="rgb(0, 0, 0)"><path d="M191.6700342,-78.3122708L192.8727834,-64.564784" /></g>
<g stroke="rgb(0, 0, 0)"><path d="M192.8727834,-64.564784L179.1252966,-63.3620348" /></g>
<g stroke="rgb(0, 0, 0)"><path d="M179.1252966,-63.3620348L177.9225474,-77.1095216" /></g>
<g stroke="rgb(0, 0, 0)"><path d="M193.838135,-90.2466473L192.6353858,-103.9941341" /></g>
<g stroke="rgb(0, 0, 0)"><path d="M192.6353858,-103.9941341L206.3828726,-105.1968833" /></g>
<g stroke="rgb(0, 0, 0)"><path d="M206.3828726,-105.1968833L207.5856218,-91.4493965" /></g>
<g stroke="rgb(0, 0, 0)"><path d="M207.5856218,-91.4493965L193.838135,-90.2466473" /></g>
<g stroke="rgb(0, 0, 0)"><path d="M195.6901945,-69.07751L194.4874453,-82.8249968" /></g>
<g stroke="rgb(0, 0, 0)"><path d="M194.4874453,-82.8249968L208.2349321,-84.027746" /></g>
<g stroke="rgb(0, 0, 0)"><path d="M208.2349321,-84.027746L209.4376813,-70.2802592" /></g>
<g stroke="rgb(0, 0, 0)"><path d="M209.4376813,-70.2802592L195.6901945,-69.07751" /></g>
<g stroke="rgb(0, 0, 0)"><path d="M69.7161909,-125.2853722L72.5853722,-138.7838091" /></g>
<g stroke="rgb(0, 0, 0)"><path d="M72.5853722,-138.7838091L86.0838091,-135.9146278" /></g>
<g stroke="rgb(0, 0, 0)"><path d="M86.0838091,-135.9146278L83.2146278,-122.4161909" /></g>
<g stroke="rgb(0, 0, 0)"><path d="M83.2146278,-122.4161909L69.7161909,-125.2853722" /></g>
<g stroke="rgb(0, 0, 0)"><path d="M86.5289794,-118.7518669L88.6877751,-132.381966" /></g>
<g stroke="rgb(0, 0, 0)"><path d="M88.6877751,-132.381966L102.3178742,-130.2231703" /></g>
<g stroke="rgb(0, 0, 0)"><path d="M102.3178742,-130.2231703L100.1590785,-116.5930712" /></g>
<g stroke="rgb(0, 0, 0)"><path d="M100.1590785,-116.5930712L86.5289794,-118.7518669" /></g>
<g stroke="rgb(0, 0, 0)"><path d="M106.0082877,-112.3553161L105.2860515,-126.1364037" /></g>
<g stroke="rgb(0, 0, 0)"><path d="M105.2860515,-126.1364037L119.0671391,-126.8586399" /></g>
<g stroke="rgb(0, 0, 0)"><path d="M119.0671391,-126.8586399L119.7893753,-113.0775523" /></g>
<g stroke="rgb(0, 0, 0)"><path d="M119.7893753,-113.0775523L106.0082877,-112.3553161" /></g>
<g stroke="rgb(0, 0, 0)"><path d="M146.9470011,-113.75L207.2406835,-113.75" /></g>
<g stroke="rgb(0, 0, 0)"><path d="M 211.38274156705876 -66.40606086020784 A 160 160 0 0 1 72.30243640009768 -64.62745127908806" /></g>
<g stroke="rgb(0, 0, 0)"><path d="M 71.73430411176868 -142.47542397195375 A 140 140 0 0 1 146.9470010584076 -113.75000004564691" /></g>
<g stroke="rgb(0, 0, 0)"><path d="M 67.60764843439756 -123.06103468204788 A 200 200 0 0 1 72.30243655358825 -64.62745104603718" /></g>
<g stroke="rgb(0, 0, 0)"><path d="M74.75,-100.25L89.25,-100.25" /></g>
<g stroke="rgb(0, 0, 0)"><path d="M91,-98.5L91,-68.6" /></g>
<g stroke="rgb(0, 0, 0)"><path d="M89.25,-66.85L74.75,-66.85" /></g>
<g stroke="rgb(0, 0, 0)"><path d="M73,-68.6L73,-98.5" /></g>
<g stroke="rgb(0, 0, 0)"><path d="M 89.25 -100.25 A 1.75 1.75 0 0 1 91 -98.5" /></g>
<g stroke="rgb(0, 0, 0)"><path d="M 91 -68.6 A 1.75 1.75 0 0 1 89.25 -66.85" /></g>
<g stroke="rgb(0, 0, 0)"><path d="M 74.75 -66.85 A 1.75 1.75 0 0 1 73 -68.6" /></g>
<g stroke="rgb(0, 0, 0)"><path d="M 73 -98.5 A 1.75 1.75 0 0 1 74.75 -100.25" /></g>
<g stroke="rgb(0, 0, 0)"><circle cx="149.95" cy="-85.35" r="1.075" /></g>
<g stroke="rgb(0, 0, 0)"><circle cx="172.45" cy="-62.85" r="1.075" /></g>
<g stroke="rgb(0, 0, 0)"><circle cx="172.45" cy="-107.85" r="1.075" /></g>
<g stroke="rgb(0, 0, 0)"><circle cx="127.45" cy="-62.85" r="1.075" /></g>
<g stroke="rgb(0, 0, 0)"><circle cx="127.45" cy="-107.85" r="1.075" /></g>
<g stroke="rgb(0, 0, 0)"><circle cx="103.1972906" cy="-121.0729448" r="1.075" /></g>
<g stroke="rgb(0, 0, 0)"><circle cx="108.5" cy="-74.5" r="1.075" /></g>
<g stroke="rgb(0, 0, 0)"><circle cx="108.5" cy="-91.5" r="1.075" /></g>
<g stroke="rgb(0, 0, 0)"><circle cx="192.5765894" cy="-79.997696" r="1.075" /></g>
<g stroke="rgb(0, 0, 0)"><circle cx="191.0949418" cy="-96.9330059" r="1.075" /></g>
<g stroke="rgb(0, 0, 0)"><circle cx="176.7370938" cy="-78.6119196" r="1.075" /></g>
<g stroke="rgb(0, 0, 0)"><circle cx="175.2554462" cy="-95.5472295" r="1.075" /></g>
<g stroke="rgb(0, 0, 0)"><circle cx="88.5" cy="-64.6" r="1.075" /></g>
<g stroke="rgb(0, 0, 0)"><circle cx="75.5" cy="-102.5" r="1.075" /></g>
<g stroke="rgb(0, 0, 0)"><circle cx="75.5" cy="-116.5" r="1.075" /></g>
<g stroke="rgb(0, 0, 0)"><circle cx="103.1972906" cy="-121.0729448" r="1.65" /></g>
<g stroke="rgb(0, 0, 0)"><circle cx="108.5" cy="-74.5" r="1.65" /></g>
<g stroke="rgb(0, 0, 0)"><circle cx="108.5" cy="-91.5" r="1.65" /></g>
<g stroke="rgb(0, 0, 0)"><circle cx="192.5765894" cy="-79.997696" r="1.65" /></g>
<g stroke="rgb(0, 0, 0)"><circle cx="191.0949418" cy="-96.9330059" r="1.65" /></g>
<g stroke="rgb(0, 0, 0)"><circle cx="176.7370938" cy="-78.6119196" r="1.65" /></g>
<g stroke="rgb(0, 0, 0)"><circle cx="175.2554462" cy="-95.5472295" r="1.65" /></g>
<g stroke="rgb(0, 0, 0)"><circle cx="88.5" cy="-64.6" r="1.65" /></g>
<g stroke="rgb(0, 0, 0)"><circle cx="75.5" cy="-102.5" r="1.65" /></g>
  </g>
</svg>