0
SECTION
2
HEADER
9
$INSUNITS
70
4
0
ENDSEC
0
SECTION
2
TABLES
0
TABLE
2
LTYPE
0
LTYPE
72
65
70
64
2
CONTINUOUS
3
______
73
0
40
0
0
ENDTAB
0
TABLE
2
LAYER
0
ENDTAB
0
ENDSEC
0
SECTION
2
ENTITIES
0
LINE
8
0
10
52.5
20
-38.5
11
57.5
21
-38.5
0
LINE
8
0
10
57.5
20
-38.5
11
57.5
21
-33.5
0
LINE
8
0
10
57.5
20
-33.5
11
52.5
21
-33.5
0
LINE
8
0
10
52.5
20
-33.5
11
52.5
21
-38.5
0
LINE
8
0
10
52.5
20
-157.5
11
57.5
21
-157.5
0
LINE
8
0
10
57.5
20
-157.5
11
57.5
21
-152.5
0
LINE
8
0
10
57.5
20
-152.5
11
52.5
21
-152.5
0
LINE
8
0
10
52.5
20
-152.5
11
52.5
21
-157.5
0
LINE
8
0
10
91.5
20
-108.5
11
125.5
21
-108.5
0
LINE
8
0
10
108.5
20
-108.5
11
108.5
21
-57.5
0
LINE
8
0
10
91.5
20
-91.5
11
125.5
21
-91.5
0
LINE
8
0
10
91.5
20
-108.5
11
91.5
21
-57.5
0
LINE
8
0
10
91.5
20
-74.5
11
125.5
21
-74.5
0
LINE
8
0
10
91.5
20
-57.5
11
125.5
21
-57.5
0
LINE
8
0
10
125.5
20
-108.5
11
125.5
21
-57.5
0
LINE
8
0
10
129.5
20
-100.85
11
146.5
21
-100.85
0
LINE
8
0
10
146.5
20
-100.85
11
146.5
21
-49.85
0
LINE
8
0
10
129.5
20
-83.85
11
146.5
21
-83.85
0
LINE
8
0
10
129.5
20
-100.85
11
129.5
21
-49.85
0
LINE
8
0
10
129.5
20
-66.85
11
146.5
21
-66.85
0
LINE
8
0
10
146.5
20
-49.85
11
129.5
21
-49.85
0
LINE
8
0
10
152.5
20
-102.55
11
169.4838198
21
-103.2915296
0
LINE
8
0
10
169.4838198
20
-103.2915296
11
171.7084086
21
-52.3400702
0
LINE
8
0
10
153.2415296
20
-85.5661802
11
170.2253494
21
-86.3077098
0
LINE
8
0
10
152.5
20
-102.55
11
154.7245888
21
-51.5985406
0
LINE
8
0
10
153.9830592
20
-68.5823604
11
170.966879
21
-69.32389
0
LINE
8
0
10
171.7084086
20
-52.3400702
11
154.7245888
21
-51.5985406
0
LINE
8
0
10
173.2258915
20
-112.4346037
11
190.1612013
21
-113.9162513
0
LINE
8
0
10
190.1612013
20
-113.9162513
11
194.6061441
21
-63.1103217
0
LINE
8
0
10
174.7075391
20
-95.4992938
11
191.6428489
21
-96.9809415
0
LINE
8
0
10
174.7075391
20
-95.4992939
11
173.2258915
21
-112.4346037
0
LINE
8
0
10
176.1891867
20
-78.5639839
11
193.1244965
21
-80.0456316
0
LINE
8
0
10
176.1891867
20
-78.563984
11
174.7075391
21
-95.4992938
0
LINE
8
0
10
194.6061441
20
-63.1103217
11
177.6708343
21
-61.6286741
0
LINE
8
0
10
177.6708343
20
-61.6286741
11
176.1891867
21
-78.5639839
0
LINE
8
0
10
190.7168191
20
-107.5655102
11
207.652129
21
-109.0471578
0
LINE
8
0
10
207.2406835
20
-113.75
11
211.3827416
21
-66.4060609
0
LINE
8
0
10
192.5688786
20
-86.3963728
11
209.5041885
21
-87.8780205
0
LINE
8
0
10
211.356248
20
-66.7088831
11
194.4209381
21
-65.2272355
0
LINE
8
0
10
67.3766837
20
-121.9744311
11
71.7948071
21
-142.7600676
0
LINE
8
0
10
71.7948071
20
-142.7600676
11
88.4233163
21
-139.2255689
0
LINE
8
0
10
88.4233163
20
-139.2255689
11
84.0051929
21
-118.4399324
0
LINE
8
0
10
84.0051929
20
-118.4399324
11
67.3766837
21
-121.9744311
0
LINE
8
0
10
84.3659597
20
-115.3230229
11
87.6901921
21
-136.3114002
0
LINE
8
0
10
87.6901921
20
-136.3114002
11
104.4808939
21
-133.6520143
0
LINE
8
0
10
104.4808939
20
-133.6520143
11
101.1566615
21
-112.663637
0
LINE
8
0
10
101.1566615
20
-112.663637
11
84.3659597
21
-115.3230229
0
LINE
8
0
10
104.6054319
20
-108.5516836
11
103.4932928
21
-129.7725612
0
LINE
8
0
10
103.4932928
20
-129.7725612
11
120.4699949
21
-130.6622724
0
LINE
8
0
10
120.4699949
20
-130.6622724
11
121.582134
21
-109.4413948
0
LINE
8
0
10
121.582134
20
-109.4413948
11
104.6054319
21
-108.5516836
0
LINE
8
0
10
98.9428754
20
-101.0641957
11
100.8707149
21
-99.1363561
0
LINE
8
0
10
100.8636439
20
-99.1292851
11
98.9358043
21
-101.0571246
0
LINE
8
0
10
98.9358043
20
-101.0571246
11
98.9428754
21
-101.0641957
0
LINE
8
0
10
98.9428754
20
-84.0641957
11
100.8707149
21
-82.1363561
0
LINE
8
0
10
100.8636439
20
-82.1292851
11
98.9358043
21
-84.0571246
0
LINE
8
0
10
98.9358043
20
-84.0571246
11
98.9428754
21
-84.0641957
0
LINE
8
0
10
98.9428754
20
-67.0641957
11
100.8707149
21
-65.1363561
0
LINE
8
0
10
100.8636439
20
-65.1292851
11
98.9358043
21
-67.0571246
0
LINE
8
0
10
98.9358043
20
-67.0571246
11
98.9428754
21
-67.0641957
0
LINE
8
0
10
115.9428754
20
-101.0641957
11
117.8707149
21
-99.1363561
0
LINE
8
0
10
117.8636439
20
-99.1292851
11
115.9358043
21
-101.0571246
0
LINE
8
0
10
115.9358043
20
-101.0571246
11
115.9428754
21
-101.0641957
0
LINE
8
0
10
115.9428754
20
-84.0641957
11
117.8707149
21
-82.1363561
0
LINE
8
0
10
117.8636439
20
-82.1292851
11
115.9358043
21
-84.0571246
0
LINE
8
0
10
115.9358043
20
-84.0571246
11
115.9428754
21
-84.0641957
0
LINE
8
0
10
115.9428754
20
-67.0641957
11
117.8707149
21
-65.1363561
0
LINE
8
0
10
117.8636439
20
-65.1292851
11
115.9358043
21
-67.0571246
0
LINE
8
0
10
115.9358043
20
-67.0571246
11
115.9428754
21
-67.0641957
0
LINE
8
0
10
136.9428754
20
-93.4141957
11
138.8707149
21
-91.4863561
0
LINE
8
0
10
138.8636439
20
-91.4792851
11
136.9358043
21
-93.4071246
0
LINE
8
0
10
136.9358043
20
-93.4071246
11
136.9428754
21
-93.4141957
0
LINE
8
0
10
136.9428754
20
-76.4141957
11
138.8707149
21
-74.4863561
0
LINE
8
0
10
138.8636439
20
-74.4792851
11
136.9358043
21
-76.4071246
0
LINE
8
0
10
136.9358043
20
-76.4071246
11
136.9428754
21
-76.4141957
0
LINE
8
0
10
136.9428754
20
-59.4141957
11
138.8707149
21
-57.4863561
0
LINE
8
0
10
138.8636439
20
-57.4792851
11
136.9358043
21
-59.4071246
0
LINE
8
0
10
136.9358043
20
-59.4071246
11
136.9428754
21
-59.4141957
0
LINE
8
0
10
160.2601366
20
-95.4459266
11
162.2702325
21
-93.604013
0
LINE
8
0
10
162.2634766
20
-93.5966403
11
160.2533807
21
-95.4385538
0
LINE
8
0
10
160.2533807
20
-95.4385538
11
160.2601366
21
-95.4459266
0
LINE
8
0
10
161.0016662
20
-78.4621068
11
163.0117621
21
-76.6201932
0
LINE
8
0
10
163.0050062
20
-76.6128205
11
160.9949103
21
-78.454734
0
LINE
8
0
10
160.9949103
20
-78.454734
11
161.0016662
21
-78.4621068
0
LINE
8
0
10
161.7431958
20
-61.478287
11
163.7532917
21
-59.6363734
0
LINE
8
0
10
163.7465358
20
-59.6290007
11
161.7364399
21
-61.4709142
0
LINE
8
0
10
161.7364399
20
-61.4709142
11
161.7431958
21
-61.478287
0
LINE
8
0
10
181.2885175
20
-105.6757842
11
183.3770433
21
-103.923303
0
LINE
8
0
10
183.3706154
20
-103.9156425
11
181.2820896
21
-105.6681238
0
LINE
8
0
10
181.2820896
20
-105.6681238
11
181.2885175
21
-105.6757842
0
LINE
8
0
10
182.7701651
20
-88.7404743
11
184.8586909
21
-86.9879931
0
LINE
8
0
10
184.852263
20
-86.9803326
11
182.7637372
21
-88.7328139
0
LINE
8
0
10
182.7637372
20
-88.7328139
11
182.7701651
21
-88.7404743
0
LINE
8
0
10
184.2518127
20
-71.8051644
11
186.3403385
21
-70.0526832
0
LINE
8
0
10
186.3339106
20
-70.0450227
11
184.2453848
21
-71.797504
0
LINE
8
0
10
184.2453848
20
-71.797504
11
184.2518127
21
-71.8051644
0
LINE
8
0
10
199.1424922
20
-96.5759126
11
200.8949734
21
-98.6644384
0
LINE
8
0
10
200.9026339
20
-98.6580105
11
199.1501526
21
-96.5694847
0
LINE
8
0
10
199.1501526
20
-96.5694847
11
199.1424922
21
-96.5759126
0
LINE
8
0
10
200.9945517
20
-75.4067753
11
202.7470329
21
-77.4953011
0
LINE
8
0
10
202.7546934
20
-77.4888732
11
201.0022121
21
-75.4003474
0
LINE
8
0
10
201.0022121
20
-75.4003474
11
200.9945517
21
-75.4067753
0
LINE
8
0
10
76.639271
20
-129.7872348
11
78.925803
21
-131.2721261
0
LINE
8
0
10
78.9312494
20
-131.2637394
11
76.6447173
21
-129.7788481
0
LINE
8
0
10
76.6447173
20
-129.7788481
11
76.639271
21
-129.7872348
0
LINE
8
0
10
93.2069624
20
-123.6098858
11
95.4126476
21
-125.21241
0
LINE
8
0
10
95.4185254
20
-125.2043198
11
93.2128402
21
-123.6017956
0
LINE
8
0
10
93.2128402
20
-123.6017956
11
93.2069624
21
-123.6098858
0
LINE
8
0
10
111.5303018
20
-118.4956064
11
113.3546039
21
-120.5216992
0
LINE
8
0
10
113.3620354
20
-120.5150079
11
111.5377332
21
-118.4889151
0
LINE
8
0
10
111.5377332
20
-118.4889151
11
111.5303018
21
-118.4956064
0
LINE
8
0
10
53.9428754
20
-37.0641957
11
55.8707149
21
-35.1363561
0
LINE
8
0
10
55.8636439
20
-35.1292851
11
53.9358043
21
-37.0571246
0
LINE
8
0
10
53.9358043
20
-37.0571246
11
53.9428754
21
-37.0641957
0
LINE
8
0
10
53.9428754
20
-156.0641957
11
55.8707149
21
-154.1363561
0
LINE
8
0
10
55.8636439
20
-154.1292851
11
53.9358043
21
-156.0571246
0
LINE
8
0
10
53.9358043
20
-156.0571246
11
53.9428754
21
-156.0641957
0
LINE
8
0
10
148.8928754
20
-86.4141957
11
150.8207149
21
-84.4863561
0
LINE
8
0
10
150.8136439
20
-84.4792851
11
148.8858043
21
-86.4071246
0
LINE
8
0
10
148.8858043
20
-86.4071246
11
148.8928754
21
-86.4141957
0
LINE
8
0
10
171.3928754
20
-63.9141957
11
173.3207149
21
-61.9863561
0
LINE
8
0
10
173.3136439
20
-61.9792851
11
171.3858043
21
-63.9071246
0
LINE
8
0
10
171.3858043
20
-63.9071246
11
171.3928754
21
-63.9141957
0
LINE
8
0
10
171.3928754
20
-108.9141957
11
173.3207149
21
-106.9863561
0
LINE
8
0
10
173.3136439
20
-106.9792851
11
171.3858043
21
-108.9071246
0
LINE
8
0
10
171.3858043
20
-108.9071246
11
171.3928754
21
-108.9141957
0
LINE
8
0
10
126.3928754
20
-63.9141957
11
128.3207149
21
-61.9863561
0
LINE
8
0
10
128.3136439
20
-61.9792851
11
126.3858043
21
-63.9071246
0
LINE
8
0
10
126.3858043
20
-63.9071246
11
126.3928754
21
-63.9141957
0
LINE
8
0
10
126.3928754
20
-108.9141957
11
128.3207149
21
-106.9863561
0
LINE
8
0
10
128.3136439
20
-106.9792851
11
126.3858043
21
-108.9071246
0
LINE
8
0
10
126.3858043
20
-108.9071246
11
126.3928754
21
-108.9141957
0
LINE
8
0
10
101.9808262
20
-120.195312
11
104.1865114
21
-121.7978362
0
LINE
8
0
10
104.1923892
20
-121.789746
11
101.986704
21
-120.1872218
0
LINE
8
0
10
101.986704
20
-120.1872218
11
101.9808262
21
-120.195312
0
LINE
8
0
10
107.4428754
20
-75.5641957
11
109.3707149
21
-73.6363561
0
LINE
8
0
10
109.3636439
20
-73.6292851
11
107.4358043
21
-75.5571246
0
LINE
8
0
10
107.4358043
20
-75.5571246
11
107.4428754
21
-75.5641957
0
LINE
8
0
10
107.4428754
20
-92.5641957
11
109.3707149
21
-90.6363561
0
LINE
8
0
10
109.3636439
20
-90.6292851
11
107.4358043
21
-92.5571246
0
LINE
8
0
10
107.4358043
20
-92.5571246
11
107.4428754
21
-92.5641957
0
LINE
8
0
10
191.4307367
20
-80.9657076
11
193.5192625
21
-79.2132264
0
LINE
8
0
10
193.5128346
20
-79.2055659
11
191.4243088
21
-80.9580472
0
LINE
8
0
10
191.4243088
20
-80.9580472
11
191.4307367
21
-80.9657076
0
LINE
8
0
10
189.9490891
20
-97.9010175
11
192.0376149
21
-96.1485363
0
LINE
8
0
10
192.031187
20
-96.1408758
11
189.9426612
21
-97.893357
0
LINE
8
0
10
189.9426612
20
-97.893357
11
189.9490891
21
-97.9010175
0
LINE
8
0
10
175.5912411
20
-79.5799312
11
177.6797669
21
-77.82745
0
LINE
8
0
10
177.673339
20
-77.8197895
11
175.5848132
21
-79.5722708
0
LINE
8
0
10
175.5848132
20
-79.5722708
11
175.5912411
21
-79.5799312
0
LINE
8
0
10
174.1095935
20
-96.5152411
11
176.1981193
21
-94.7627599
0
LINE
8
0
10
176.1916914
20
-94.7550994
11
174.1031656
21
-96.5075807
0
LINE
8
0
10
174.1031656
20
-96.5075807
11
174.1095935
21
-96.5152411
0
LINE
8
0
10
89.9428754
20
-67.9141957
11
91.8707149
21
-65.9863561
0
LINE
8
0
10
91.8636439
20
-65.9792851
11
89.9358043
21
-67.9071246
0
LINE
8
0
10
89.9358043
20
-67.9071246
11
89.9428754
21
-67.9141957
0
LINE
8
0
10
71.9428754
20
-67.9141957
11
73.8707149
21
-65.9863561
0
LINE
8
0
10
73.8636439
20
-65.9792851
11
71.9358043
21
-67.9071246
0
LINE
8
0
10
71.9358043
20
-67.9071246
11
71.9428754
21
-67.9141957
0
LINE
8
0
10
89.9428754
20
-101.3141957
11
91.8707149
21
-99.3863561
0
LINE
8
0
10
91.8636439
20
-99.3792851
11
89.9358043
21
-101.3071246
0
LINE
8
0
10
89.9358043
20
-101.3071246
11
89.9428754
21
-101.3141957
0
LINE
8
0
10
71.9428754
20
-101.3141957
11
73.8707149
21
-99.3863561
0
LINE
8
0
10
73.8636439
20
-99.3792851
11
71.9358043
21
-101.3071246
0
LINE
8
0
10
71.9358043
20
-101.3071246
11
71.9428754
21
-101.3141957
0
LINE
8
0
10
80.9428754
20
-84.6141957
11
82.8707149
21
-82.6863561
0
LINE
8
0
10
82.8636439
20
-82.6792851
11
80.9358043
21
-84.6071246
0
LINE
8
0
10
80.9358043
20
-84.6071246
11
80.9428754
21
-84.6141957
0
LINE
8
0
10
87.4428754
20
-65.6641957
11
89.3707149
21
-63.7363561
0
LINE
8
0
10
89.3636439
20
-63.7292851
11
87.4358043
21
-65.6571246
0
LINE
8
0
10
87.4358043
20
-65.6571246
11
87.4428754
21
-65.6641957
0
LINE
8
0
10
74.4428754
20
-103.5641957
11
76.3707149
21
-101.6363561
0
LINE
8
0
10
76.3636439
20
-101.6292851
11
74.4358043
21
-103.5571246
0
LINE
8
0
10
74.4358043
20
-103.5571246
11
74.4428754
21
-103.5641957
0
LINE
8
0
10
74.4428754
20
-117.5641957
11
76.3707149
21
-115.6363561
0
LINE
8
0
10
76.3636439
20
-115.6292851
11
74.4358043
21
-117.5571246
0
LINE
8
0
10
74.4358043
20
-117.5571246
11
74.4428754
21
-117.5641957
0
LINE
8
0
10
101.0571246
20
-101.0641957
11
101.0641957
21
-101.0571246
0
LINE
8
0
10
101.0641957
20
-101.0571246
11
98.9428754
21
-98.9358043
0
LINE
8
0
10
98.9428754
20
-98.9358043
11
98.9358043
21
-98.9428754
0
LINE
8
0
10
98.9358043
20
-98.9428754
11
101.0571246
21
-101.0641957
0
LINE
8
0
10
101.0571246
20
-84.0641957
11
101.0641957
21
-84.0571246
0
LINE
8
0
10
101.0641957
20
-84.0571246
11
98.9428754
21
-81.9358043
0
LINE
8
0
10
98.9428754
20
-81.9358043
11
98.9358043
21
-81.9428754
0
LINE
8
0
10
98.9358043
20
-81.9428754
11
101.0571246
21
-84.0641957
0
LINE
8
0
10
101.0571246
20
-67.0641957
11
101.0641957
21
-67.0571246
0
LINE
8
0
10
101.0641957
20
-67.0571246
11
98.9428754
21
-64.9358043
0
LINE
8
0
10
98.9428754
20
-64.9358043
11
98.9358043
21
-64.9428754
0
LINE
8
0
10
98.9358043
20
-64.9428754
11
101.0571246
21
-67.0641957
0
LINE
8
0
10
118.0571246
20
-101.0641957
11
118.0641957
21
-101.0571246
0
LINE
8
0
10
118.0641957
20
-101.0571246
11
115.9428754
21
-98.9358043
0
LINE
8
0
10
115.9428754
20
-98.9358043
11
115.9358043
21
-98.9428754
0
LINE
8
0
10
115.9358043
20
-98.9428754
11
118.0571246
21
-101.0641957
0
LINE
8
0
10
118.0571246
20
-84.0641957
11
118.0641957
21
-84.0571246
0
LINE
8
0
10
118.0641957
20
-84.0571246
11
115.9428754
21
-81.9358043
0
LINE
8
0
10
115.9428754
20
-81.9358043
11
115.9358043
21
-81.9428754
0
LINE
8
0
10
115.9358043
20
-81.9428754
11
118.0571246
21
-84.0641957
0
LINE
8
0
10
118.0571246
20
-67.0641957
11
118.0641957
21
-67.0571246
0
LINE
8
0
10
118.0641957
20
-67.0571246
11
115.9428754
21
-64.9358043
0
LINE
8
0
10
115.9428754
20
-64.9358043
11
115.9358043
21
-64.9428754
0
LINE
8
0
10
115.9358043
20
-64.9428754
11
118.0571246
21
-67.0641957
0
LINE
8
0
10
139.0571246
20
-93.4141957
11
139.0641957
21
-93.4071246
0
LINE
8
0
10
139.0641957
20
-93.4071246
11
136.9428754
21
-91.2858043
0
LINE
8
0
10
136.9428754
20
-91.2858043
11
136.9358043
21
-91.2928754
0
LINE
8
0
10
136.9358043
20
-91.2928754
11
139.0571246
21
-93.4141957
0
LINE
8
0
10
139.0571246
20
-76.4141957
11
139.0641957
21
-76.4071246
0
LINE
8
0
10
139.0641957
20
-76.4071246
11
136.9428754
21
-74.2858043
0
LINE
8
0
10
136.9428754
20
-74.2858043
11
136.9358043
21
-74.2928754
0
LINE
8
0
10
136.9358043
20
-74.2928754
11
139.0571246
21
-76.4141957
0
LINE
8
0
10
139.0571246
20
-59.4141957
11
139.0641957
21
-59.4071246
0
LINE
8
0
10
139.0641957
20
-59.4071246
11
136.9428754
21
-57.2858043
0
LINE
8
0
10
136.9428754
20
-57.2858043
11
136.9358043
21
-57.2928754
0
LINE
8
0
10
136.9358043
20
-57.2928754
11
139.0571246
21
-59.4141957
0
LINE
8
0
10
162.3723736
20
-95.5381489
11
162.3797464
21
-95.531393
0
LINE
8
0
10
162.3797464
20
-95.531393
11
160.3529758
21
-93.3195609
0
LINE
8
0
10
160.3529758
20
-93.3195609
11
160.345603
21
-93.3263168
0
LINE
8
0
10
160.345603
20
-93.3263168
11
162.3723736
21
-95.5381489
0
LINE
8
0
10
163.1139032
20
-78.5543291
11
163.121276
21
-78.5475732
0
LINE
8
0
10
163.121276
20
-78.5475732
11
161.0945054
21
-76.3357411
0
LINE
8
0
10
161.0945054
20
-76.3357411
11
161.0871326
21
-76.342497
0
LINE
8
0
10
161.0871326
20
-76.342497
11
163.1139032
21
-78.5543291
0
LINE
8
0
10
163.8554328
20
-61.5705093
11
163.8628056
21
-61.5637534
0
LINE
8
0
10
163.8628056
20
-61.5637534
11
161.836035
21
-59.3519213
0
LINE
8
0
10
161.836035
20
-59.3519213
11
161.8286622
21
-59.3586772
0
LINE
8
0
10
161.8286622
20
-59.3586772
11
163.8554328
21
-61.5705093
0
LINE
8
0
10
183.3947214
20
-105.8600532
11
183.4023818
21
-105.8536253
0
LINE
8
0
10
183.4023818
20
-105.8536253
11
181.474019
21
-103.555492
0
LINE
8
0
10
181.474019
20
-103.555492
11
181.4663586
21
-103.5619199
0
LINE
8
0
10
181.4663586
20
-103.5619199
11
183.3947214
21
-105.8600532
0
LINE
8
0
10
184.876369
20
-88.9247433
11
184.8840294
21
-88.9183154
0
LINE
8
0
10
184.8840294
20
-88.9183154
11
182.9556666
21
-86.6201821
0
LINE
8
0
10
182.9556666
20
-86.6201821
11
182.9480062
21
-86.62661
0
LINE
8
0
10
182.9480062
20
-86.62661
11
184.876369
21
-88.9247433
0
LINE
8
0
10
186.3580166
20
-71.9894334
11
186.365677
21
-71.9830055
0
LINE
8
0
10
186.365677
20
-71.9830055
11
184.4373142
21
-69.6848722
0
LINE
8
0
10
184.4373142
20
-69.6848722
11
184.4296538
21
-69.6913001
0
LINE
8
0
10
184.4296538
20
-69.6913001
11
186.3580166
21
-71.9894334
0
LINE
8
0
10
198.9582232
20
-98.6821165
11
198.9646511
21
-98.6897769
0
LINE
8
0
10
198.9646511
20
-98.6897769
11
201.2627844
21
-96.7614141
0
LINE
8
0
10
201.2627844
20
-96.7614141
11
201.2563565
21
-96.7537537
0
LINE
8
0
10
201.2563565
20
-96.7537537
11
198.9582232
21
-98.6821165
0
LINE
8
0
10
200.8102827
20
-77.5129792
11
200.8167106
21
-77.5206396
0
LINE
8
0
10
200.8167106
20
-77.5206396
11
203.1148439
21
-75.5922768
0
LINE
8
0
10
203.1148439
20
-75.5922768
11
203.108416
21
-75.5846164
0
LINE
8
0
10
203.108416
20
-75.5846164
11
200.8102827
21
-77.5129792
0
LINE
8
0
10
77.0788481
20
-131.8552827
11
77.0872348
21
-131.860729
0
LINE
8
0
10
77.0872348
20
-131.860729
11
78.7211519
21
-129.3447173
0
LINE
8
0
10
78.7211519
20
-129.3447173
11
78.7127652
21
-129.339271
0
LINE
8
0
10
78.7127652
20
-129.339271
11
77.0788481
21
-131.8552827
0
LINE
8
0
10
93.5377038
20
-125.6981052
11
93.545794
21
-125.703983
0
LINE
8
0
10
93.545794
20
-125.703983
11
95.3091498
21
-123.276932
0
LINE
8
0
10
95.3091498
20
-123.276932
11
95.3010596
21
-123.2710542
0
LINE
8
0
10
95.3010596
20
-123.2710542
11
93.5377038
21
-125.6981052
0
LINE
8
0
10
111.4196505
20
-120.6069582
11
111.4263418
21
-120.6143896
0
LINE
8
0
10
111.4263418
20
-120.6143896
11
113.6557763
21
-118.6069978
0
LINE
8
0
10
113.6557763
20
-118.6069978
11
113.649085
21
-118.5995664
0
LINE
8
0
10
113.649085
20
-118.5995664
11
111.4196505
21
-120.6069582
0
LINE
8
0
10
56.0571246
20
-37.0641957
11
56.0641957
21
-37.0571246
0
LINE
8
0
10
56.0641957
20
-37.0571246
11
53.9428754
21
-34.9358043
0
LINE
8
0
10
53.9428754
20
-34.9358043
11
53.9358043
21
-34.9428754
0
LINE
8
0
10
53.9358043
20
-34.9428754
11
56.0571246
21
-37.0641957
0
LINE
8
0
10
56.0571246
20
-156.0641957
11
56.0641957
21
-156.0571246
0
LINE
8
0
10
56.0641957
20
-156.0571246
11
53.9428754
21
-153.9358043
0
LINE
8
0
10
53.9428754
20
-153.9358043
11
53.9358043
21
-153.9428754
0
LINE
8
0
10
53.9358043
20
-153.9428754
11
56.0571246
21
-156.0641957
0
LINE
8
0
10
151.0071246
20
-86.4141957
11
151.0141957
21
-86.4071246
0
LINE
8
0
10
151.0141957
20
-86.4071246
11
148.8928754
21
-84.2858043
0
LINE
8
0
10
148.8928754
20
-84.2858043
11
148.8858043
21
-84.2928754
0
LINE
8
0
10
148.8858043
20
-84.2928754
11
151.0071246
21
-86.4141957
0
LINE
8
0
10
173.5071246
20
-63.9141957
11
173.5141957
21
-63.9071246
0
LINE
8
0
10
173.5141957
20
-63.9071246
11
171.3928754
21
-61.7858043
0
LINE
8
0
10
171.3928754
20
-61.7858043
11
171.3858043
21
-61.7928754
0
LINE
8
0
10
171.3858043
20
-61.7928754
11
173.5071246
21
-63.9141957
0
LINE
8
0
10
173.5071246
20
-108.9141957
11
173.5141957
21
-108.9071246
0
LINE
8
0
10
173.5141957
20
-108.9071246
11
171.3928754
21
-106.7858043
0
LINE
8
0
10
171.3928754
20
-106.7858043
11
171.3858043
21
-106.7928754
0
LINE
8
0
10
171.3858043
20
-106.7928754
11
173.5071246
21
-108.9141957
0
LINE
8
0
10
128.5071246
20
-63.9141957
11
128.5141957
21
-63.9071246
0
LINE
8
0
10
128.5141957
20
-63.9071246
11
126.3928754
21
-61.7858043
0
LINE
8
0
10
126.3928754
20
-61.7858043
11
126.3858043
21
-61.7928754
0
LINE
8
0
10
126.3858043
20
-61.7928754
11
128.5071246
21
-63.9141957
0
LINE
8
0
10
128.5071246
20
-108.9141957
11
128.5141957
21
-108.9071246
0
LINE
8
0
10
128.5141957
20
-108.9071246
11
126.3928754
21
-106.7858043
0
LINE
8
0
10
126.3928754
20
-106.7858043
11
126.3858043
21
-106.7928754
0
LINE
8
0
10
126.3858043
20
-106.7928754
11
128.5071246
21
-108.9141957
0
LINE
8
0
10
102.3115676
20
-122.2835314
11
102.3196578
21
-122.2894092
0
LINE
8
0
10
102.3196578
20
-122.2894092
11
104.0830136
21
-119.8623582
0
LINE
8
0
10
104.0830136
20
-119.8623582
11
104.0749234
21
-119.8564804
0
LINE
8
0
10
104.0749234
20
-119.8564804
11
102.3115676
21
-122.2835314
0
LINE
8
0
10
109.5571246
20
-75.5641957
11
109.5641957
21
-75.5571246
0
LINE
8
0
10
109.5641957
20
-75.5571246
11
107.4428754
21
-73.4358043
0
LINE
8
0
10
107.4428754
20
-73.4358043
11
107.4358043
21
-73.4428754
0
LINE
8
0
10
107.4358043
20
-73.4428754
11
109.5571246
21
-75.5641957
0
LINE
8
0
10
109.5571246
20
-92.5641957
11
109.5641957
21
-92.5571246
0
LINE
8
0
10
109.5641957
20
-92.5571246
11
107.4428754
21
-90.4358043
0
LINE
8
0
10
107.4428754
20
-90.4358043
11
107.4358043
21
-90.4428754
0
LINE
8
0
10
107.4358043
20
-90.4428754
11
109.5571246
21
-92.5641957
0
LINE
8
0
10
193.5369406
20
-81.1499766
11
193.544601
21
-81.1435487
0
LINE
8
0
10
193.544601
20
-81.1435487
11
191.6162382
21
-78.8454154
0
LINE
8
0
10
191.6162382
20
-78.8454154
11
191.6085778
21
-78.8518433
0
LINE
8
0
10
191.6085778
20
-78.8518433
11
193.5369406
21
-81.1499766
0
LINE
8
0
10
192.055293
20
-98.0852865
11
192.0629534
21
-98.0788586
0
LINE
8
0
10
192.0629534
20
-98.0788586
11
190.1345906
21
-95.7807253
0
LINE
8
0
10
190.1345906
20
-95.7807253
11
190.1269302
21
-95.7871532
0
LINE
8
0
10
190.1269302
20
-95.7871532
11
192.055293
21
-98.0852865
0
LINE
8
0
10
177.697445
20
-79.7642002
11
177.7051054
21
-79.7577723
0
LINE
8
0
10
177.7051054
20
-79.7577723
11
175.7767426
21
-77.459639
0
LINE
8
0
10
175.7767426
20
-77.459639
11
175.7690822
21
-77.4660669
0
LINE
8
0
10
175.7690822
20
-77.4660669
11
177.697445
21
-79.7642002
0
LINE
8
0
10
176.2157974
20
-96.6995101
11
176.2234578
21
-96.6930822
0
LINE
8
0
10
176.2234578
20
-96.6930822
11
174.295095
21
-94.3949489
0
LINE
8
0
10
174.295095
20
-94.3949489
11
174.2874346
21
-94.4013768
0
LINE
8
0
10
174.2874346
20
-94.4013768
11
176.2157974
21
-96.6995101
0
LINE
8
0
10
92.0571246
20
-67.9141957
11
92.0641957
21
-67.9071246
0
LINE
8
0
10
92.0641957
20
-67.9071246
11
89.9428754
21
-65.7858043
0
LINE
8
0
10
89.9428754
20
-65.7858043
11
89.9358043
21
-65.7928754
0
LINE
8
0
10
89.9358043
20
-65.7928754
11
92.0571246
21
-67.9141957
0
LINE
8
0
10
74.0571246
20
-67.9141957
11
74.0641957
21
-67.9071246
0
LINE
8
0
10
74.0641957
20
-67.9071246
11
71.9428754
21
-65.7858043
0
LINE
8
0
10
71.9428754
20
-65.7858043
11
71.9358043
21
-65.7928754
0
LINE
8
0
10
71.9358043
20
-65.7928754
11
74.0571246
21
-67.9141957
0
LINE
8
0
10
92.0571246
20
-101.3141957
11
92.0641957
21
-101.3071246
0
LINE
8
0
10
92.0641957
20
-101.3071246
11
89.9428754
21
-99.1858043
0
LINE
8
0
10
89.9428754
20
-99.1858043
11
89.9358043
21
-99.1928754
0
LINE
8
0
10
89.9358043
20
-99.1928754
11
92.0571246
21
-101.3141957
0
LINE
8
0
10
74.0571246
20
-101.3141957
11
74.0641957
21
-101.3071246
0
LINE
8
0
10
74.0641957
20
-101.3071246
11
71.9428754
21
-99.1858043
0
LINE
8
0
10
71.9428754
20
-99.1858043
11
71.9358043
21
-99.1928754
0
LINE
8
0
10
71.9358043
20
-99.1928754
11
74.0571246
21
-101.3141957
0
LINE
8
0
10
83.0571246
20
-84.6141957
11
83.0641957
21
-84.6071246
0
LINE
8
0
10
83.0641957
20
-84.6071246
11
80.9428754
21
-82.4858043
0
LINE
8
0
10
80.9428754
20
-82.4858043
11
80.9358043
21
-82.4928754
0
LINE
8
0
10
80.9358043
20
-82.4928754
11
83.0571246
21
-84.6141957
0
LINE
8
0
10
89.5571246
20
-65.6641957
11
89.5641957
21
-65.6571246
0
LINE
8
0
10
89.5641957
20
-65.6571246
11
87.4428754
21
-63.5358043
0
LINE
8
0
10
87.4428754
20
-63.5358043
11
87.4358043
21
-63.5428754
0
LINE
8
0
10
87.4358043
20
-63.5428754
11
89.5571246
21
-65.6641957
0
LINE
8
0
10
76.5571246
20
-103.5641957
11
76.5641957
21
-103.5571246
0
LINE
8
0
10
76.5641957
20
-103.5571246
11
74.4428754
21
-101.4358043
0
LINE
8
0
10
74.4428754
20
-101.4358043
11
74.4358043
21
-101.4428754
0
LINE
8
0
10
74.4358043
20
-101.4428754
11
76.5571246
21
-103.5641957
0
LINE
8
0
10
76.5571246
20
-117.5641957
11
76.5641957
21
-117.5571246
0
LINE
8
0
10
76.5641957
20
-117.5571246
11
74.4428754
21
-115.4358043
0
LINE
8
0
10
74.4428754
20
-115.4358043
11
74.4358043
21
-115.4428754
0
LINE
8
0
10
74.4358043
20
-115.4428754
11
76.5571246
21
-117.5641957
0
ARC
8
0
10
101.15
20
-98.85
40
0.4
50
225.7162091
51
584.2837909
0
ARC
8
0
10
101.15
20
-81.85
40
0.4
50
225.7162091
51
584.2837909
0
ARC
8
0
10
101.15
20
-64.85
40
0.4
50
225.7162091
51
584.2837909
0
ARC
8
0
10
118.15
20
-98.85
40
0.4
50
225.7162091
51
584.2837909
0
ARC
8
0
10
118.15
20
-81.85
40
0.4
50
225.7162091
51
584.2837909
0
ARC
8
0
10
118.15
20
-64.85
40
0.4
50
225.7162091
51
584.2837909
0
ARC
8
0
10
139.15
20
-91.2
40
0.4
50
225.7162091
51
584.2837909
0
ARC
8
0
10
139.15
20
-74.2
40
0.4
50
225.7162091
51
584.2837909
0
ARC
8
0
10
139.15
20
-57.2
40
0.4
50
225.7162091
51
584.2837909
0
ARC
8
0
10
162.5617425
20
-93.3301117
40
0.4
50
223.2162044
51
581.7837806
0
ARC
8
0
10
163.3032721
20
-76.3462919
40
0.4
50
223.2162044
51
581.7837806
0
ARC
8
0
10
164.0448017
20
-59.3624721
40
0.4
50
223.2162044
51
581.7837806
0
ARC
8
0
10
183.6802232
20
-103.6623778
40
0.4
50
220.7162182
51
579.2837781
0
ARC
8
0
10
185.1618708
20
-86.7270679
40
0.4
50
220.7162182
51
579.2837781
0
ARC
8
0
10
186.6435184
20
-69.791758
40
0.4
50
220.7162182
51
579.2837781
0
ARC
8
0
10
201.1558986
20
-98.9676183
40
0.4
50
130.7162182
51
489.2837781
0
ARC
8
0
10
203.0079581
20
-77.798481
40
0.4
50
130.7162182
51
489.2837781
0
ARC
8
0
10
79.2639682
20
-131.4857713
40
0.4
50
147.7162198
51
506.2837878
0
ARC
8
0
10
95.739168
20
-125.4434606
40
0.4
50
144.716218
51
503.283787
0
ARC
8
0
10
113.625951
20
-120.8155883
40
0.4
50
132.716216
51
491.2837795
0
ARC
8
0
10
56.15
20
-34.85
40
0.4
50
225.7162091
51
584.2837909
0
ARC
8
0
10
56.15
20
-153.85
40
0.4
50
225.7162091
51
584.2837909
0
ARC
8
0
10
151.1
20
-84.2
40
0.4
50
225.7162091
51
584.2837909
0
ARC
8
0
10
173.6
20
-61.7
40
0.4
50
225.7162091
51
584.2837909
0
ARC
8
0
10
173.6
20
-106.7
40
0.4
50
225.7162091
51
584.2837909
0
ARC
8
0
10
128.6
20
-61.7
40
0.4
50
225.7162091
51
584.2837909
0
ARC
8
0
10
128.6
20
-106.7
40
0.4
50
225.7162091
51
584.2837909
0
ARC
8
0
10
104.5130318
20
-122.0288868
40
0.4
50
144.716218
51
503.283787
0
ARC
8
0
10
109.65
20
-73.35
40
0.4
50
225.7162091
51
584.2837909
0
ARC
8
0
10
109.65
20
-90.35
40
0.4
50
225.7162091
51
584.2837909
0
ARC
8
0
10
193.8224424
20
-78.9523012
40
0.4
50
220.7162182
51
579.2837781
0
ARC
8
0
10
192.3407948
20
-95.8876111
40
0.4
50
220.7162182
51
579.2837781
0
ARC
8
0
10
177.9829468
20
-77.5665248
40
0.4
50
220.7162182
51
579.2837781
0
ARC
8
0
10
176.5012992
20
-94.5018347
40
0.4
50
220.7162182
51
579.2837781
0
ARC
8
0
10
92.15
20
-65.7
40
0.4
50
225.7162091
51
584.2837909
0
ARC
8
0
10
74.15
20
-65.7
40
0.4
50
225.7162091
51
584.2837909
0
ARC
8
0
10
92.15
20
-99.1
40
0.4
50
225.7162091
51
584.2837909
0
ARC
8
0
10
74.15
20
-99.1
40
0.4
50
225.7162091
51
584.2837909
0
ARC
8
0
10
83.15
20
-82.4
40
0.4
50
225.7162091
51
584.2837909
0
ARC
8
0
10
89.65
20
-63.45
40
0.4
50
225.7162091
51
584.2837909
0
ARC
8
0
10
76.65
20
-101.35
40
0.4
50
225.7162091
51
584.2837909
0
ARC
8
0
10
76.65
20
-115.35
40
0.4
50
225.7162091
51
584.2837909
0
LINE
8
0
10
92.5
20
-107.5
11
107.5
21
-107.5
0
LINE
8
0
10
107.5
20
-107.5
11
107.5
21
-92.5
0
LINE
8
0
10
107.5
20
-92.5
11
92.5
21
-92.5
0
LINE
8
0
10
92.5
20
-92.5
11
92.5
21
-107.5
0
LINE
8
0
10
92.5
20
-90.5
11
107.5
21
-90.5
0
LINE
8
0
10
107.5
20
-90.5
11
107.5
21
-75.5
0
LINE
8
0
10
107.5
20
-75.5
11
92.5
21
-75.5
0
LINE
8
0
10
92.5
20
-75.5
11
92.5
21
-90.5
0
LINE
8
0
10
92.5
20
-73.5
11
107.5
21
-73.5
0
LINE
8
0
10
107.5
20
-73.5
11
107.5
21
-58.5
0
LINE
8
0
10
107.5
20
-58.5
11
92.5
21
-58.5
0
LINE
8
0
10
92.5
20
-58.5
11
92.5
21
-73.5
0
LINE
8
0
10
109.5
20
-107.5
11
124.5
21
-107.5
0
LINE
8
0
10
124.5
20
-107.5
11
124.5
21
-92.5
0
LINE
8
0
10
124.5
20
-92.5
11
109.5
21
-92.5
0
LINE
8
0
10
109.5
20
-92.5
11
109.5
21
-107.5
0
LINE
8
0
10
109.5
20
-90.5
11
124.5
21
-90.5
0
LINE
8
0
10
124.5
20
-90.5
11
124.5
21
-75.5
0
LINE
8
0
10
124.5
20
-75.5
11
109.5
21
-75.5
0
LINE
8
0
10
109.5
20
-75.5
11
109.5
21
-90.5
0
LINE
8
0
10
109.5
20
-73.5
11
124.5
21
-73.5
0
LINE
8
0
10
124.5
20
-73.5
11
124.5
21
-58.5
0
LINE
8
0
10
124.5
20
-58.5
11
109.5
21
-58.5
0
LINE
8
0
10
109.5
20
-58.5
11
109.5
21
-73.5
0
LINE
8
0
10
130.5
20
-99.85
11
145.5
21
-99.85
0
LINE
8
0
10
145.5
20
-99.85
11
145.5
21
-84.85
0
LINE
8
0
10
145.5
20
-84.85
11
130.5
21
-84.85
0
LINE
8
0
10
130.5
20
-84.85
11
130.5
21
-99.85
0
LINE
8
0
10
130.5
20
-82.85
11
145.5
21
-82.85
0
LINE
8
0
10
145.5
20
-82.85
11
145.5
21
-67.85
0
LINE
8
0
10
145.5
20
-67.85
11
130.5
21
-67.85
0
LINE
8
0
10
130.5
20
-67.85
11
130.5
21
-82.85
0
LINE
8
0
10
130.5
20
-65.85
11
145.5
21
-65.85
0
LINE
8
0
10
145.5
20
-65.85
11
145.5
21
-50.85
0
LINE
8
0
10
145.5
20
-50.85
11
130.5
21
-50.85
0
LINE
8
0
10
130.5
20
-50.85
11
130.5
21
-65.85
0
LINE
8
0
10
153.5426676
20
-101.5945712
11
168.528391
21
-102.248862
0
LINE
8
0
10
168.528391
20
-102.248862
11
169.1826818
21
-87.2631386
0
LINE
8
0
10
169.1826818
20
-87.2631386
11
154.1969584
21
-86.6088478
0
LINE
8
0
10
154.1969584
20
-86.6088478
11
153.5426676
21
-101.5945712
0
LINE
8
0
10
154.2841972
20
-84.6107514
11
169.2699206
21
-85.2650422
0
LINE
8
0
10
169.2699206
20
-85.2650422
11
169.9242114
21
-70.2793188
0
LINE
8
0
10
169.9242114
20
-70.2793188
11
154.938488
21
-69.625028
0
LINE
8
0
10
154.938488
20
-69.625028
11
154.2841972
21
-84.6107514
0
LINE
8
0
10
155.0257268
20
-67.6269316
11
170.0114502
21
-68.2812224
0
LINE
8
0
10
170.0114502
20
-68.2812224
11
170.665741
21
-53.295499
0
LINE
8
0
10
170.665741
20
-53.295499
11
155.6800176
21
-52.6412082
0
LINE
8
0
10
155.6800176
20
-52.6412082
11
155.0257268
21
-67.6269316
0
LINE
8
0
10
174.3092419
20
-111.5255648
11
189.2521624
21
-112.8329009
0
LINE
8
0
10
189.2521624
20
-112.8329009
11
190.5594985
21
-97.8899804
0
LINE
8
0
10
190.5594985
20
-97.8899804
11
175.616578
21
-96.5826443
0
LINE
8
0
10
175.616578
20
-96.5826443
11
174.3092419
21
-111.5255648
0
LINE
8
0
10
175.7908895
20
-94.5902549
11
190.73381
21
-95.897591
0
LINE
8
0
10
190.73381
20
-95.897591
11
192.0411461
21
-80.9546705
0
LINE
8
0
10
192.0411461
20
-80.9546705
11
177.0982256
21
-79.6473344
0
LINE
8
0
10
177.0982256
20
-79.6473344
11
175.7908895
21
-94.5902549
0
LINE
8
0
10
177.2725371
20
-77.654945
11
192.2154576
21
-78.9622811
0
LINE
8
0
10
192.2154576
20
-78.9622811
11
193.5227937
21
-64.0193606
0
LINE
8
0
10
193.5227937
20
-64.0193606
11
178.5798732
21
-62.7120245
0
LINE
8
0
10
178.5798732
20
-62.7120245
11
177.2725371
21
-77.654945
0
LINE
8
0
10
193.2927116
20
-89.596637
11
191.9853755
21
-104.5395575
0
LINE
8
0
10
191.9853755
20
-104.5395575
11
206.928296
21
-105.8468936
0
LINE
8
0
10
206.928296
20
-105.8468936
11
208.2356321
21
-90.9039731
0
LINE
8
0
10
208.2356321
20
-90.9039731
11
193.2927116
21
-89.596637
0
LINE
8
0
10
195.1447711
20
-68.4274997
11
193.837435
21
-83.3704202
0
LINE
8
0
10
193.837435
20
-83.3704202
11
208.7803555
21
-84.6777563
0
LINE
8
0
10
208.7803555
20
-84.6777563
11
210.0876916
21
-69.7348358
0
LINE
8
0
10
210.0876916
20
-69.7348358
11
195.1447711
21
-68.4274997
0
LINE
8
0
10
69.0045553
20
-124.8232307
11
72.1232307
21
-139.4954447
0
LINE
8
0
10
72.1232307
20
-139.4954447
11
86.7954447
21
-136.3767693
0
LINE
8
0
10
86.7954447
20
-136.3767693
11
83.6767693
21
-121.7045553
0
LINE
8
0
10
83.6767693
20
-121.7045553
11
69.0045553
21
-124.8232307
0
LINE
8
0
10
85.8425058
20
-118.2531145
11
88.1890227
21
-133.0684396
0
LINE
8
0
10
88.1890227
20
-133.0684396
11
103.0043478
21
-130.7219227
0
LINE
8
0
10
103.0043478
20
-130.7219227
11
100.6578309
21
-115.9065976
0
LINE
8
0
10
100.6578309
20
-115.9065976
11
85.8425058
21
-118.2531145
0
LINE
8
0
10
105.4405116
20
-111.7247368
11
104.6554722
21
-126.7041798
0
LINE
8
0
10
104.6554722
20
-126.7041798
11
119.6349152
21
-127.4892192
0
LINE
8
0
10
119.6349152
20
-127.4892192
11
120.4199546
21
-112.5097762
0
LINE
8
0
10
120.4199546
20
-112.5097762
11
105.4405116
21
-111.7247368
0
LINE
8
0
10
93.1
20
-106.9
11
106.9
21
-106.9
0
LINE
8
0
10
106.9
20
-106.9
11
106.9
21
-93.1
0
LINE
8
0
10
106.9
20
-93.1
11
93.1
21
-93.1
0
LINE
8
0
10
93.1
20
-93.1
11
93.1
21
-106.9
0
LINE
8
0
10
93.1
20
-89.9
11
106.9
21
-89.9
0
LINE
8
0
10
106.9
20
-89.9
11
106.9
21
-76.1
0
LINE
8
0
10
106.9
20
-76.1
11
93.1
21
-76.1
0
LINE
8
0
10
93.1
20
-76.1
11
93.1
21
-89.9
0
LINE
8
0
10
93.1
20
-72.9
11
106.9
21
-72.9
0
LINE
8
0
10
106.9
20
-72.9
11
106.9
21
-59.1
0
LINE
8
0
10
106.9
20
-59.1
11
93.1
21
-59.1
0
LINE
8
0
10
93.1
20
-59.1
11
93.1
21
-72.9
0
LINE
8
0
10
110.1
20
-106.9
11
123.9
21
-106.9
0
LINE
8
0
10
123.9
20
-106.9
11
123.9
21
-93.1
0
LINE
8
0
10
123.9
20
-93.1
11
110.1
21
-93.1
0
LINE
8
0
10
110.1
20
-93.1
11
110.1
21
-106.9
0
LINE
8
0
10
110.1
20
-89.9
11
123.9
21
-89.9
0
LINE
8
0
10
123.9
20
-89.9
11
123.9
21
-76.1
0
LINE
8
0
10
123.9
20
-76.1
11
110.1
21
-76.1
0
LINE
8
0
10
110.1
20
-76.1
11
110.1
21
-89.9
0
LINE
8
0
10
110.1
20
-72.9
11
123.9
21
-72.9
0
LINE
8
0
10
123.9
20
-72.9
11
123.9
21
-59.1
0
LINE
8
0
10
123.9
20
-59.1
11
110.1
21
-59.1
0
LINE
8
0
10
110.1
20
-59.1
11
110.1
21
-72.9
0
LINE
8
0
10
131.1
20
-99.25
11
144.9
21
-99.25
0
LINE
8
0
10
144.9
20
-99.25
11
144.9
21
-85.45
0
LINE
8
0
10
144.9
20
-85.45
11
131.1
21
-85.45
0
LINE
8
0
10
131.1
20
-85.45
11
131.1
21
-99.25
0
LINE
8
0
10
131.1
20
-82.25
11
144.9
21
-82.25
0
LINE
8
0
10
144.9
20
-82.25
11
144.9
21
-68.45
0
LINE
8
0
10
144.9
20
-68.45
11
131.1
21
-68.45
0
LINE
8
0
10
131.1
20
-68.45
11
131.1
21
-82.25
0
LINE
8
0
10
131.1
20
-65.25
11
144.9
21
-65.25
0
LINE
8
0
10
144.9
20
-65.25
11
144.9
21
-51.45
0
LINE
8
0
10
144.9
20
-51.45
11
131.1
21
-51.45
0
LINE
8
0
10
131.1
20
-51.45
11
131.1
21
-65.25
0
LINE
8
0
10
154.1682682
20
-101.0213139
11
167.9551337
21
-101.6232614
0
LINE
8
0
10
167.9551337
20
-101.6232614
11
168.5570812
21
-87.8363959
0
LINE
8
0
10
168.5570812
20
-87.8363959
11
154.7702157
21
-87.2344484
0
LINE
8
0
10
154.7702157
20
-87.2344484
11
154.1682682
21
-101.0213139
0
LINE
8
0
10
154.9097978
20
-84.0374941
11
168.6966633
21
-84.6394416
0
LINE
8
0
10
168.6966633
20
-84.6394416
11
169.2986108
21
-70.8525761
0
LINE
8
0
10
169.2986108
20
-70.8525761
11
155.5117453
21
-70.2506286
0
LINE
8
0
10
155.5117453
20
-70.2506286
11
154.9097978
21
-84.0374941
0
LINE
8
0
10
155.6513274
20
-67.0536743
11
169.4381929
21
-67.6556218
0
LINE
8
0
10
169.4381929
20
-67.6556218
11
170.0401404
21
-53.8687563
0
LINE
8
0
10
170.0401404
20
-53.8687563
11
156.2532749
21
-53.2668088
0
LINE
8
0
10
156.2532749
20
-53.2668088
11
155.6513274
21
-67.0536743
0
LINE
8
0
10
174.9592522
20
-110.9801414
11
188.706739
21
-112.1828906
0
LINE
8
0
10
188.706739
20
-112.1828906
11
189.9094882
21
-98.4354038
0
LINE
8
0
10
189.9094882
20
-98.4354038
11
176.1620014
21
-97.2326546
0
LINE
8
0
10
176.1620014
20
-97.2326546
11
174.9592522
21
-110.9801414
0
LINE
8
0
10
176.4408998
20
-94.0448315
11
190.1883866
21
-95.2475807
0
LINE
8
0
10
190.1883866
20
-95.2475807
11
191.3911358
21
-81.5000939
0
LINE
8
0
10
191.3911358
20
-81.5000939
11
177.643649
21
-80.2973447
0
LINE
8
0
10
177.643649
20
-80.2973447
11
176.4408998
21
-94.0448315
0
LINE
8
0
10
177.9225474
20
-77.1095216
11
191.6700342
21
-78.3122708
0
LINE
8
0
10
191.6700342
20
-78.3122708
11
192.8727834
21
-64.564784
0
LINE
8
0
10
192.8727834
20
-64.564784
11
179.1252966
21
-63.3620348
0
LINE
8
0
10
179.1252966
20
-63.3620348
11
177.9225474
21
-77.1095216
0
LINE
8
0
10
193.838135
20
-90.2466473
11
192.6353858
21
-103.9941341
0
LINE
8
0
10
192.6353858
20
-103.9941341
11
206.3828726
21
-105.1968833
0
LINE
8
0
10
206.3828726
20
-105.1968833
11
207.5856218
21
-91.4493965
0
LINE
8
0
10
207.5856218
20
-91.4493965
11
193.838135
21
-90.2466473
0
LINE
8
0
10
195.6901945
20
-69.07751
11
194.4874453
21
-82.8249968
0
LINE
8
0
10
194.4874453
20
-82.8249968
11
208.2349321
21
-84.027746
0
LINE
8
0
10
208.2349321
20
-84.027746
11
209.4376813
21
-70.2802592
0
LINE
8
0
10
209.4376813
20
-70.2802592
11
195.6901945
21
-69.07751
0
LINE
8
0
10
69.7161909
20
-125.2853722
11
72.5853722
21
-138.7838091
0
LINE
8
0
10
72.5853722
20
-138.7838091
11
86.0838091
21
-135.9146278
0
LINE
8
0
10
86.0838091
20
-135.9146278
11
83.2146278
21
-122.4161909
0
LINE
8
0
10
83.2146278
20
-122.4161909
11
69.7161909
21
-125.2853722
0
LINE
8
0
10
86.5289794
20
-118.7518669
11
88.6877751
21
-132.381966
0
LINE
8
0
10
88.6877751
20
-132.381966
11
102.3178742
21
-130.2231703
0
LINE
8
0
10
102.3178742
20
-130.2231703
11
100.1590785
21
-116.5930712
0
LINE
8
0
10
100.1590785
20
-116.5930712
11
86.5289794
21
-118.7518669
0
LINE
8
0
10
106.0082877
20
-112.3553161
11
105.2860515
21
-126.1364037
0
LINE
8
0
10
105.2860515
20
-126.1364037
11
119.0671391
21
-126.8586399
0
LINE
8
0
10
119.0671391
20
-126.8586399
11
119.7893753
21
-113.0775523
0
LINE
8
0
10
119.7893753
20
-113.0775523
11
106.0082877
21
-112.3553161
0
LINE
8
0
10
146.9470011
20
-113.75
11
207.2406835
21
-113.75
0
ARC
8
0
10
140
20
-209.6
40
160
50
63.5035646
51
115.0310767
0
ARC
8
0
10
61.5
20
-2.85
40
140
50
274.1921854
51
307.6137818
0
ARC
8
0
10
-127.25
20
-78
40
200
50
346.9791759
51
363.8338133
0
LINE
8
0
10
74.75
20
-100.25
11
89.25
21
-100.25
0
LINE
8
0
10
91
20
-98.5
11
91
21
-68.6
0
LINE
8
0
10
89.25
20
-66.85
11
74.75
21
-66.85
0
LINE
8
0
10
73
20
-68.6
11
73
21
-98.5
0
ARC
8
0
10
89.25
20
-98.5
40
1.75
50
270
51
0
0
ARC
8
0
10
89.25
20
-68.6
40
1.75
50
0
51
90
0
ARC
8
0
10
74.75
20
-68.6
40
1.75
50
90
51
180
0
ARC
8
0
10
74.75
20
-98.5
40
1.75
50
180
51
270
0
CIRCLE
8
0
10
149.95
20
-85.35
40
1.075
0
CIRCLE
8
0
10
172.45
20
-62.85
40
1.075
0
CIRCLE
8
0
10
172.45
20
-107.85
40
1.075
0
CIRCLE
8
0
10
127.45
20
-62.85
40
1.075
0
CIRCLE
8
0
10
127.45
20
-107.85
40
1.075
0
CIRCLE
8
0
10
103.1972906
20
-121.0729448
40
1.075
0
CIRCLE
8
0
10
108.5
20
-74.5
40
1.075
0
CIRCLE
8
0
10
108.5
20
-91.5
40
1.075
0
CIRCLE
8
0
10
192.5765894
20
-79.997696
40
1.075
0
CIRCLE
8
0
10
191.0949418
20
-96.9330059
40
1.075
0
CIRCLE
8
0
10
176.7370938
20
-78.6119196
40
1.075
0
CIRCLE
8
0
10
175.2554462
20
-95.5472295
40
1.075
0
CIRCLE
8
0
10
88.5
20
-64.6
40
1.075
0
CIRCLE
8
0
10
75.5
20
-102.5
40
1.075
0
CIRCLE
8
0
10
75.5
20
-116.5
40
1.075
0
CIRCLE
8
0
10
103.1972906
20
-121.0729448
40
1.65
0
CIRCLE
8
0
10
108.5
20
-74.5
40
1.65
0
CIRCLE
8
0
10
108.5
20
-91.5
40
1.65
0
CIRCLE
8
0
10
192.5765894
20
-79.997696
40
1.65
0
CIRCLE
8
0
10
191.0949418
20
-96.9330059
40
1.65
0
CIRCLE
8
0
10
176.7370938
20
-78.6119196
40
1.65
0
CIRCLE
8
0
10
175.2554462
20
-95.5472295
40
1.65
0
CIRCLE
8
0
10
88.5
20
-64.6
40
1.65
0
CIRCLE
8
0
10
75.5
20
-102.5
40
1.65
0
ENDSEC
0
EOF