<?xml version="1.0"?>
<svg
  xmlns="http://www.w3.org/2000/svg"
  xmlns:xlink="http://www.w3.org/1999/xlink" version="1.1"
  preserveAspectRatio="xMinYMin meet"
  viewBox="52.5 33.5 159.24710191778803 124"
  width="100%" height="100%"
>
  <g stroke="#000000" stroke-width="0.1%" fill="none" transform="matrix(1,0,0,-1,0,0)">
    <g stroke="rgb(0, 0, 0)"><path d="M52.5,-38.5L57.5,-38.5" /></g>
<g stroke="rgb(0, 0, 0)"><path d="M57.5,-38.5L57.5,-33.5" /></g>
<g stroke="rgb(0, 0, 0)"><path d="M57.5,-33.5L52.5,-33.5" /></g>
<g stroke="rgb(0, 0, 0)"><path d="M52.5,-33.5L52.5,-38.5" /></g>
<g stroke="rgb(0, 0, 0)"><path d="M52.5,-157.5L57.5,-157.5" /></g>
<g stroke="rgb(0, 0, 0)"><path d="M57.5,-157.5L57.5,-152.5" /></g>
<g stroke="rgb(0, 0, 0)"><path d="M57.5,-152.5L52.5,-152.5" /></g>
<g stroke="rgb(0, 0, 0)"><path d="M52.5,-152.5L52.5,-157.5" /></g>
<g stroke="rgb(0, 0, 0)"><path d="M98.9428754,-101.0641957L100.8707149,-99.1363561" /></g>
<g stroke="rgb(0, 0, 0)"><path d="M100.8636439,-99.1292851L98.9358043,-101.0571246" /></g>
<g stroke="rgb(0, 0, 0)"><path d="M98.9358043,-101.0571246L98.9428754,-101.0641957" /></g>
<g stroke="rgb(0, 0, 0)"><path d="M98.9428754,-84.0641957L100.8707149,-82.1363561" /></g>
<g stroke="rgb(0, 0, 0)"><path d="M100.8636439,-82.1292851L98.9358043,-84.0571246" /></g>
<g stroke="rgb(0, 0, 0)"><path d="M98.9358043,-84.0571246L98.9428754,-84.0641957" /></g>
<g stroke="rgb(0, 0, 0)"><path d="M98.9428754,-67.0641957L100.8707149,-65.1363561" /></g>
<g stroke="rgb(0, 0, 0)"><path d="M100.8636439,-65.1292851L98.9358043,-67.0571246" /></g>
<g stroke="rgb(0, 0, 0)"><path d="M98.9358043,-67.0571246L98.9428754,-67.0641957" /></g>
<g stroke="rgb(0, 0, 0)"><path d="M115.9428754,-101.0641957L117.8707149,-99.1363561" /></g>
<g stroke="rgb(0, 0, 0)"><path d="M117.8636439,-99.1292851L115.9358043,-101.0571246" /></g>
<g stroke="rgb(0, 0, 0)"><path d="M115.9358043,-101.0571246L115.9428754,-101.0641957" /></g>
<g stroke="rgb(0, 0, 0)"><path d="M115.9428754,-84.0641957L117.8707149,-82.1363561" /></g>
<g stroke="rgb(0, 0, 0)"><path d="M117.8636439,-82.1292851L115.9358043,-84.0571246" /></g>
<g stroke="rgb(0, 0, 0)"><path d="M115.9358043,-84.0571246L115.9428754,-84.0641957" /></g>
<g stroke="rgb(0, 0, 0)"><path d="M115.9428754,-67.0641957L117.8707149,-65.1363561" /></g>
<g stroke="rgb(0, 0, 0)"><path d="M117.8636439,-65.1292851L115.9358043,-67.0571246" /></g>
<g stroke="rgb(0, 0, 0)"><path d="M115.9358043,-67.0571246L115.9428754,-67.0641957" /></g>
<g stroke="rgb(0, 0, 0)"><path d="M136.9428754,-93.4141957L138.8707149,-91.4863561" /></g>
<g stroke="rgb(0, 0, 0)"><path d="M138.8636439,-91.4792851L136.9358043,-93.4071246" /></g>
<g stroke="rgb(0, 0, 0)"><path d="M136.9358043,-93.4071246L136.9428754,-93.4141957" /></g>
<g stroke="rgb(0, 0, 0)"><path d="M136.9428754,-76.4141957L138.8707149,-74.4863561" /></g>
<g stroke="rgb(0, 0, 0)"><path d="M138.8636439,-74.4792851L136.9358043,-76.4071246" /></g>
<g stroke="rgb(0, 0, 0)"><path d="M136.9358043,-76.4071246L136.9428754,-76.4141957" /></g>
<g stroke="rgb(0, 0, 0)"><path d="M136.9428754,-59.4141957L138.8707149,-57.4863561" /></g>
<g stroke="rgb(0, 0, 0)"><path d="M138.8636439,-57.4792851L136.9358043,-59.4071246" /></g>
<g stroke="rgb(0, 0, 0)"><path d="M136.9358043,-59.4071246L136.9428754,-59.4141957" /></g>
<g stroke="rgb(0, 0, 0)"><path d="M160.2601366,-95.4459266L162.2702325,-93.604013" /></g>
<g stroke="rgb(0, 0, 0)"><path d="M162.2634766,-93.5966403L160.2533807,-95.4385538" /></g>
<g stroke="rgb(0, 0, 0)"><path d="M160.2533807,-95.4385538L160.2601366,-95.4459266" /></g>
<g stroke="rgb(0, 0, 0)"><path d="M161.0016662,-78.4621068L163.0117621,-76.6201932" /></g>
<g stroke="rgb(0, 0, 0)"><path d="M163.0050062,-76.6128205L160.9949103,-78.454734" /></g>
<g stroke="rgb(0, 0, 0)"><path d="M160.9949103,-78.454734L161.0016662,-78.4621068" /></g>
<g stroke="rgb(0, 0, 0)"><path d="M161.7431958,-61.478287L163.7532917,-59.6363734" /></g>
<g stroke="rgb(0, 0, 0)"><path d="M163.7465358,-59.6290007L161.7364399,-61.4709142" /></g>
<g stroke="rgb(0, 0, 0)"><path d="M161.7364399,-61.4709142L161.7431958,-61.478287" /></g>
<g stroke="rgb(0, 0, 0)"><path d="M181.6343216,-106.0700982L183.7228474,-104.317617" /></g>
<g stroke="rgb(0, 0, 0)"><path d="M183.7164195,-104.3099565L181.6278937,-106.0624378" /></g>
<g stroke="rgb(0, 0, 0)"><path d="M181.6278937,-106.0624378L181.6343216,-106.0700982" /></g>
<g stroke="rgb(0, 0, 0)"><path d="M183.1159692,-89.1347883L185.204495,-87.3823071" /></g>
<g stroke="rgb(0, 0, 0)"><path d="M185.1980671,-87.3746466L183.1095413,-89.1271279" /></g>
<g stroke="rgb(0, 0, 0)"><path d="M183.1095413,-89.1271279L183.1159692,-89.1347883" /></g>
<g stroke="rgb(0, 0, 0)"><path d="M184.5976168,-72.1994784L186.6861426,-70.4469972" /></g>
<g stroke="rgb(0, 0, 0)"><path d="M186.6797147,-70.4393367L184.5911889,-72.191818" /></g>
<g stroke="rgb(0, 0, 0)"><path d="M184.5911889,-72.191818L184.5976168,-72.1994784" /></g>
<g stroke="rgb(0, 0, 0)"><path d="M201.4243195,-99.261932L199.6718383,-97.1734062" /></g>
<g stroke="rgb(0, 0, 0)"><path d="M199.6641778,-97.1798341L201.4166591,-99.2683599" /></g>
<g stroke="rgb(0, 0, 0)"><path d="M201.4166591,-99.2683599L201.4243195,-99.261932" /></g>
<g stroke="rgb(0, 0, 0)"><path d="M203.276379,-78.0927947L201.5238978,-76.0042689" /></g>
<g stroke="rgb(0, 0, 0)"><path d="M201.5162373,-76.0106968L203.2687186,-78.0992226" /></g>
<g stroke="rgb(0, 0, 0)"><path d="M203.2687186,-78.0992226L203.276379,-78.0927947" /></g>
<g stroke="rgb(0, 0, 0)"><path d="M79.160729,-131.4127652L76.874197,-129.9278739" /></g>
<g stroke="rgb(0, 0, 0)"><path d="M76.8687506,-129.9362606L79.1552827,-131.4211519" /></g>
<g stroke="rgb(0, 0, 0)"><path d="M79.1552827,-131.4211519L79.160729,-131.4127652" /></g>
<g stroke="rgb(0, 0, 0)"><path d="M95.7492803,-125.3448774L93.5435951,-123.7423532" /></g>
<g stroke="rgb(0, 0, 0)"><path d="M93.5377173,-123.7504434L95.7434025,-125.3529676" /></g>
<g stroke="rgb(0, 0, 0)"><path d="M95.7434025,-125.3529676L95.7492803,-125.3448774" /></g>
<g stroke="rgb(0, 0, 0)"><path d="M113.8484939,-120.6617417L112.0241918,-118.6356489" /></g>
<g stroke="rgb(0, 0, 0)"><path d="M112.0167603,-118.6423402L113.8410625,-120.668433" /></g>
<g stroke="rgb(0, 0, 0)"><path d="M113.8410625,-120.668433L113.8484939,-120.6617417" /></g>
<g stroke="rgb(0, 0, 0)"><path d="M53.9428754,-37.0641957L55.8707149,-35.1363561" /></g>
<g stroke="rgb(0, 0, 0)"><path d="M55.8636439,-35.1292851L53.9358043,-37.0571246" /></g>
<g stroke="rgb(0, 0, 0)"><path d="M53.9358043,-37.0571246L53.9428754,-37.0641957" /></g>
<g stroke="rgb(0, 0, 0)"><path d="M53.9428754,-156.0641957L55.8707149,-154.1363561" /></g>
<g stroke="rgb(0, 0, 0)"><path d="M55.8636439,-154.1292851L53.9358043,-156.0571246" /></g>
<g stroke="rgb(0, 0, 0)"><path d="M53.9358043,-156.0571246L53.9428754,-156.0641957" /></g>
<g stroke="rgb(0, 0, 0)"><path d="M80.1928754,-80.0641957L82.1207149,-78.1363561" /></g>
<g stroke="rgb(0, 0, 0)"><path d="M82.1136439,-78.1292851L80.1858043,-80.0571246" /></g>
<g stroke="rgb(0, 0, 0)"><path d="M80.1858043,-80.0571246L80.1928754,-80.0641957" /></g>
<g stroke="rgb(0, 0, 0)"><path d="M89.1928754,-63.5641957L91.1207149,-61.6363561" /></g>
<g stroke="rgb(0, 0, 0)"><path d="M91.1136439,-61.6292851L89.1858043,-63.5571246" /></g>
<g stroke="rgb(0, 0, 0)"><path d="M89.1858043,-63.5571246L89.1928754,-63.5641957" /></g>
<g stroke="rgb(0, 0, 0)"><path d="M71.1928754,-63.5641957L73.1207149,-61.6363561" /></g>
<g stroke="rgb(0, 0, 0)"><path d="M73.1136439,-61.6292851L71.1858043,-63.5571246" /></g>
<g stroke="rgb(0, 0, 0)"><path d="M71.1858043,-63.5571246L71.1928754,-63.5641957" /></g>
<g stroke="rgb(0, 0, 0)"><path d="M89.1928754,-96.5641957L91.1207149,-94.6363561" /></g>
<g stroke="rgb(0, 0, 0)"><path d="M91.1136439,-94.6292851L89.1858043,-96.5571246" /></g>
<g stroke="rgb(0, 0, 0)"><path d="M89.1858043,-96.5571246L89.1928754,-96.5641957" /></g>
<g stroke="rgb(0, 0, 0)"><path d="M71.1928754,-96.5641957L73.1207149,-94.6363561" /></g>
<g stroke="rgb(0, 0, 0)"><path d="M73.1136439,-94.6292851L71.1858043,-96.5571246" /></g>
<g stroke="rgb(0, 0, 0)"><path d="M71.1858043,-96.5571246L71.1928754,-96.5641957" /></g>
<g stroke="rgb(0, 0, 0)"><path d="M80.1928754,-63.5641957L82.1207149,-61.6363561" /></g>
<g stroke="rgb(0, 0, 0)"><path d="M82.1136439,-61.6292851L80.1858043,-63.5571246" /></g>
<g stroke="rgb(0, 0, 0)"><path d="M80.1858043,-63.5571246L80.1928754,-63.5641957" /></g>
<g stroke="rgb(0, 0, 0)"><path d="M80.1928754,-96.5641957L82.1207149,-94.6363561" /></g>
<g stroke="rgb(0, 0, 0)"><path d="M82.1136439,-94.6292851L80.1858043,-96.5571246" /></g>
<g stroke="rgb(0, 0, 0)"><path d="M80.1858043,-96.5571246L80.1928754,-96.5641957" /></g>
<g stroke="rgb(0, 0, 0)"><path d="M80.1928754,-97.8641957L82.1207149,-95.9363561" /></g>
<g stroke="rgb(0, 0, 0)"><path d="M82.1136439,-95.9292851L80.1858043,-97.8571246" /></g>
<g stroke="rgb(0, 0, 0)"><path d="M80.1858043,-97.8571246L80.1928754,-97.8641957" /></g>
<g stroke="rgb(0, 0, 0)"><path d="M77.1928754,-107.2641957L79.1207149,-105.3363561" /></g>
<g stroke="rgb(0, 0, 0)"><path d="M79.1136439,-105.3292851L77.1858043,-107.2571246" /></g>
<g stroke="rgb(0, 0, 0)"><path d="M77.1858043,-107.2571246L77.1928754,-107.2641957" /></g>
<g stroke="rgb(0, 0, 0)"><path d="M76.6928754,-63.0641957L78.6207149,-61.1363561" /></g>
<g stroke="rgb(0, 0, 0)"><path d="M78.6136439,-61.1292851L76.6858043,-63.0571246" /></g>
<g stroke="rgb(0, 0, 0)"><path d="M76.6858043,-63.0571246L76.6928754,-63.0641957" /></g>
<g stroke="rgb(0, 0, 0)"><path d="M86.1928754,-62.7191957L88.1207149,-60.7913561" /></g>
<g stroke="rgb(0, 0, 0)"><path d="M88.1136439,-60.7842851L86.1858043,-62.7121246" /></g>
<g stroke="rgb(0, 0, 0)"><path d="M86.1858043,-62.7121246L86.1928754,-62.7191957" /></g>
<g stroke="rgb(0, 0, 0)"><path d="M87.1928754,-103.5641957L89.1207149,-101.6363561" /></g>
<g stroke="rgb(0, 0, 0)"><path d="M89.1136439,-101.6292851L87.1858043,-103.5571246" /></g>
<g stroke="rgb(0, 0, 0)"><path d="M87.1858043,-103.5571246L87.1928754,-103.5641957" /></g>
<g stroke="rgb(0, 0, 0)"><path d="M73.1928754,-103.5641957L75.1207149,-101.6363561" /></g>
<g stroke="rgb(0, 0, 0)"><path d="M75.1136439,-101.6292851L73.1858043,-103.5571246" /></g>
<g stroke="rgb(0, 0, 0)"><path d="M73.1858043,-103.5571246L73.1928754,-103.5641957" /></g>
<g stroke="rgb(0, 0, 0)"><path d="M73.1928754,-117.5641957L75.1207149,-115.6363561" /></g>
<g stroke="rgb(0, 0, 0)"><path d="M75.1136439,-115.6292851L73.1858043,-117.5571246" /></g>
<g stroke="rgb(0, 0, 0)"><path d="M73.1858043,-117.5571246L73.1928754,-117.5641957" /></g>
<g stroke="rgb(0, 0, 0)"><path d="M148.8928754,-86.4141957L150.8207149,-84.4863561" /></g>
<g stroke="rgb(0, 0, 0)"><path d="M150.8136439,-84.4792851L148.8858043,-86.4071246" /></g>
<g stroke="rgb(0, 0, 0)"><path d="M148.8858043,-86.4071246L148.8928754,-86.4141957" /></g>
<g stroke="rgb(0, 0, 0)"><path d="M171.3928754,-63.9141957L173.3207149,-61.9863561" /></g>
<g stroke="rgb(0, 0, 0)"><path d="M173.3136439,-61.9792851L171.3858043,-63.9071246" /></g>
<g stroke="rgb(0, 0, 0)"><path d="M171.3858043,-63.9071246L171.3928754,-63.9141957" /></g>
<g stroke="rgb(0, 0, 0)"><path d="M171.3928754,-108.9141957L173.3207149,-106.9863561" /></g>
<g stroke="rgb(0, 0, 0)"><path d="M173.3136439,-106.9792851L171.3858043,-108.9071246" /></g>
<g stroke="rgb(0, 0, 0)"><path d="M171.3858043,-108.9071246L171.3928754,-108.9141957" /></g>
<g stroke="rgb(0, 0, 0)"><path d="M126.3928754,-63.9141957L128.3207149,-61.9863561" /></g>
<g stroke="rgb(0, 0, 0)"><path d="M128.3136439,-61.9792851L126.3858043,-63.9071246" /></g>
<g stroke="rgb(0, 0, 0)"><path d="M126.3858043,-63.9071246L126.3928754,-63.9141957" /></g>
<g stroke="rgb(0, 0, 0)"><path d="M126.3928754,-108.9141957L128.3207149,-106.9863561" /></g>
<g stroke="rgb(0, 0, 0)"><path d="M128.3136439,-106.9792851L126.3858043,-108.9071246" /></g>
<g stroke="rgb(0, 0, 0)"><path d="M126.3858043,-108.9071246L126.3928754,-108.9141957" /></g>
<g stroke="rgb(0, 0, 0)"><path d="M86.9754165,-128.7594512L84.7697313,-127.156927" /></g>
<g stroke="rgb(0, 0, 0)"><path d="M84.7638535,-127.1650172L86.9695387,-128.7675414" /></g>
<g stroke="rgb(0, 0, 0)"><path d="M86.9695387,-128.7675414L86.9754165,-128.7594512" /></g>
<g stroke="rgb(0, 0, 0)"><path d="M107.4428754,-75.5641957L109.3707149,-73.6363561" /></g>
<g stroke="rgb(0, 0, 0)"><path d="M109.3636439,-73.6292851L107.4358043,-75.5571246" /></g>
<g stroke="rgb(0, 0, 0)"><path d="M107.4358043,-75.5571246L107.4428754,-75.5641957" /></g>
<g stroke="rgb(0, 0, 0)"><path d="M107.4428754,-92.5641957L109.3707149,-90.6363561" /></g>
<g stroke="rgb(0, 0, 0)"><path d="M109.3636439,-90.6292851L107.4358043,-92.5571246" /></g>
<g stroke="rgb(0, 0, 0)"><path d="M107.4358043,-92.5571246L107.4428754,-92.5641957" /></g>
<g stroke="rgb(0, 0, 0)"><path d="M191.7765408,-81.3600215L193.8650666,-79.6075404" /></g>
<g stroke="rgb(0, 0, 0)"><path d="M193.8586387,-79.5998799L191.7701129,-81.3523611" /></g>
<g stroke="rgb(0, 0, 0)"><path d="M191.7701129,-81.3523611L191.7765408,-81.3600215" /></g>
<g stroke="rgb(0, 0, 0)"><path d="M190.2948932,-98.2953314L192.383419,-96.5428502" /></g>
<g stroke="rgb(0, 0, 0)"><path d="M192.3769911,-96.5351897L190.2884653,-98.287671" /></g>
<g stroke="rgb(0, 0, 0)"><path d="M190.2884653,-98.287671L190.2948932,-98.2953314" /></g>
<g stroke="rgb(0, 0, 0)"><path d="M175.9370452,-79.9742451L178.025571,-78.221764" /></g>
<g stroke="rgb(0, 0, 0)"><path d="M178.0191431,-78.2141035L175.9306173,-79.9665847" /></g>
<g stroke="rgb(0, 0, 0)"><path d="M175.9306173,-79.9665847L175.9370452,-79.9742451" /></g>
<g stroke="rgb(0, 0, 0)"><path d="M174.4553976,-96.909555L176.5439234,-95.1570738" /></g>
<g stroke="rgb(0, 0, 0)"><path d="M176.5374955,-95.1494133L174.4489697,-96.9018946" /></g>
<g stroke="rgb(0, 0, 0)"><path d="M174.4489697,-96.9018946L174.4553976,-96.909555" /></g>
<g stroke="rgb(0, 0, 0)"><path d="M101.0571246,-101.0641957L101.0641957,-101.0571246" /></g>
<g stroke="rgb(0, 0, 0)"><path d="M101.0641957,-101.0571246L98.9428754,-98.9358043" /></g>
<g stroke="rgb(0, 0, 0)"><path d="M98.9428754,-98.9358043L98.9358043,-98.9428754" /></g>
<g stroke="rgb(0, 0, 0)"><path d="M98.9358043,-98.9428754L101.0571246,-101.0641957" /></g>
<g stroke="rgb(0, 0, 0)"><path d="M101.0571246,-84.0641957L101.0641957,-84.0571246" /></g>
<g stroke="rgb(0, 0, 0)"><path d="M101.0641957,-84.0571246L98.9428754,-81.9358043" /></g>
<g stroke="rgb(0, 0, 0)"><path d="M98.9428754,-81.9358043L98.9358043,-81.9428754" /></g>
<g stroke="rgb(0, 0, 0)"><path d="M98.9358043,-81.9428754L101.0571246,-84.0641957" /></g>
<g stroke="rgb(0, 0, 0)"><path d="M101.0571246,-67.0641957L101.0641957,-67.0571246" /></g>
<g stroke="rgb(0, 0, 0)"><path d="M101.0641957,-67.0571246L98.9428754,-64.9358043" /></g>
<g stroke="rgb(0, 0, 0)"><path d="M98.9428754,-64.9358043L98.9358043,-64.9428754" /></g>
<g stroke="rgb(0, 0, 0)"><path d="M98.9358043,-64.9428754L101.0571246,-67.0641957" /></g>
<g stroke="rgb(0, 0, 0)"><path d="M118.0571246,-101.0641957L118.0641957,-101.0571246" /></g>
<g stroke="rgb(0, 0, 0)"><path d="M118.0641957,-101.0571246L115.9428754,-98.9358043" /></g>
<g stroke="rgb(0, 0, 0)"><path d="M115.9428754,-98.9358043L115.9358043,-98.9428754" /></g>
<g stroke="rgb(0, 0, 0)"><path d="M115.9358043,-98.9428754L118.0571246,-101.0641957" /></g>
<g stroke="rgb(0, 0, 0)"><path d="M118.0571246,-84.0641957L118.0641957,-84.0571246" /></g>
<g stroke="rgb(0, 0, 0)"><path d="M118.0641957,-84.0571246L115.9428754,-81.9358043" /></g>
<g stroke="rgb(0, 0, 0)"><path d="M115.9428754,-81.9358043L115.9358043,-81.9428754" /></g>
<g stroke="rgb(0, 0, 0)"><path d="M115.9358043,-81.9428754L118.0571246,-84.0641957" /></g>
<g stroke="rgb(0, 0, 0)"><path d="M118.0571246,-67.0641957L118.0641957,-67.0571246" /></g>
<g stroke="rgb(0, 0, 0)"><path d="M118.0641957,-67.0571246L115.9428754,-64.9358043" /></g>
<g stroke="rgb(0, 0, 0)"><path d="M115.9428754,-64.9358043L115.9358043,-64.9428754" /></g>
<g stroke="rgb(0, 0, 0)"><path d="M115.9358043,-64.9428754L118.0571246,-67.0641957" /></g>
<g stroke="rgb(0, 0, 0)"><path d="M139.0571246,-93.4141957L139.0641957,-93.4071246" /></g>
<g stroke="rgb(0, 0, 0)"><path d="M139.0641957,-93.4071246L136.9428754,-91.2858043" /></g>
<g stroke="rgb(0, 0, 0)"><path d="M136.9428754,-91.2858043L136.9358043,-91.2928754" /></g>
<g stroke="rgb(0, 0, 0)"><path d="M136.9358043,-91.2928754L139.0571246,-93.4141957" /></g>
<g stroke="rgb(0, 0, 0)"><path d="M139.0571246,-76.4141957L139.0641957,-76.4071246" /></g>
<g stroke="rgb(0, 0, 0)"><path d="M139.0641957,-76.4071246L136.9428754,-74.2858043" /></g>
<g stroke="rgb(0, 0, 0)"><path d="M136.9428754,-74.2858043L136.9358043,-74.2928754" /></g>
<g stroke="rgb(0, 0, 0)"><path d="M136.9358043,-74.2928754L139.0571246,-76.4141957" /></g>
<g stroke="rgb(0, 0, 0)"><path d="M139.0571246,-59.4141957L139.0641957,-59.4071246" /></g>
<g stroke="rgb(0, 0, 0)"><path d="M139.0641957,-59.4071246L136.9428754,-57.2858043" /></g>
<g stroke="rgb(0, 0, 0)"><path d="M136.9428754,-57.2858043L136.9358043,-57.2928754" /></g>
<g stroke="rgb(0, 0, 0)"><path d="M136.9358043,-57.2928754L139.0571246,-59.4141957" /></g>
<g stroke="rgb(0, 0, 0)"><path d="M162.3723736,-95.5381489L162.3797464,-95.531393" /></g>
<g stroke="rgb(0, 0, 0)"><path d="M162.3797464,-95.531393L160.3529758,-93.3195609" /></g>
<g stroke="rgb(0, 0, 0)"><path d="M160.3529758,-93.3195609L160.345603,-93.3263168" /></g>
<g stroke="rgb(0, 0, 0)"><path d="M160.345603,-93.3263168L162.3723736,-95.5381489" /></g>
<g stroke="rgb(0, 0, 0)"><path d="M163.1139032,-78.5543291L163.121276,-78.5475732" /></g>
<g stroke="rgb(0, 0, 0)"><path d="M163.121276,-78.5475732L161.0945054,-76.3357411" /></g>
<g stroke="rgb(0, 0, 0)"><path d="M161.0945054,-76.3357411L161.0871326,-76.342497" /></g>
<g stroke="rgb(0, 0, 0)"><path d="M161.0871326,-76.342497L163.1139032,-78.5543291" /></g>
<g stroke="rgb(0, 0, 0)"><path d="M163.8554328,-61.5705093L163.8628056,-61.5637534" /></g>
<g stroke="rgb(0, 0, 0)"><path d="M163.8628056,-61.5637534L161.836035,-59.3519213" /></g>
<g stroke="rgb(0, 0, 0)"><path d="M161.836035,-59.3519213L161.8286622,-59.3586772" /></g>
<g stroke="rgb(0, 0, 0)"><path d="M161.8286622,-59.3586772L163.8554328,-61.5705093" /></g>
<g stroke="rgb(0, 0, 0)"><path d="M183.7405255,-106.2543672L183.7481859,-106.2479393" /></g>
<g stroke="rgb(0, 0, 0)"><path d="M183.7481859,-106.2479393L181.8198231,-103.949806" /></g>
<g stroke="rgb(0, 0, 0)"><path d="M181.8198231,-103.949806L181.8121627,-103.9562339" /></g>
<g stroke="rgb(0, 0, 0)"><path d="M181.8121627,-103.9562339L183.7405255,-106.2543672" /></g>
<g stroke="rgb(0, 0, 0)"><path d="M185.2221731,-89.3190573L185.2298335,-89.3126294" /></g>
<g stroke="rgb(0, 0, 0)"><path d="M185.2298335,-89.3126294L183.3014707,-87.0144961" /></g>
<g stroke="rgb(0, 0, 0)"><path d="M183.3014707,-87.0144961L183.2938103,-87.020924" /></g>
<g stroke="rgb(0, 0, 0)"><path d="M183.2938103,-87.020924L185.2221731,-89.3190573" /></g>
<g stroke="rgb(0, 0, 0)"><path d="M186.7038207,-72.3837474L186.7114811,-72.3773195" /></g>
<g stroke="rgb(0, 0, 0)"><path d="M186.7114811,-72.3773195L184.7831183,-70.0791862" /></g>
<g stroke="rgb(0, 0, 0)"><path d="M184.7831183,-70.0791862L184.7754579,-70.0856141" /></g>
<g stroke="rgb(0, 0, 0)"><path d="M184.7754579,-70.0856141L186.7038207,-72.3837474" /></g>
<g stroke="rgb(0, 0, 0)"><path d="M201.6085885,-97.1557281L201.6021606,-97.1480677" /></g>
<g stroke="rgb(0, 0, 0)"><path d="M201.6021606,-97.1480677L199.3040273,-99.0764305" /></g>
<g stroke="rgb(0, 0, 0)"><path d="M199.3040273,-99.0764305L199.3104552,-99.0840909" /></g>
<g stroke="rgb(0, 0, 0)"><path d="M199.3104552,-99.0840909L201.6085885,-97.1557281" /></g>
<g stroke="rgb(0, 0, 0)"><path d="M203.460648,-75.9865908L203.4542201,-75.9789304" /></g>
<g stroke="rgb(0, 0, 0)"><path d="M203.4542201,-75.9789304L201.1560868,-77.9072932" /></g>
<g stroke="rgb(0, 0, 0)"><path d="M201.1560868,-77.9072932L201.1625147,-77.9149536" /></g>
<g stroke="rgb(0, 0, 0)"><path d="M201.1625147,-77.9149536L203.460648,-75.9865908" /></g>
<g stroke="rgb(0, 0, 0)"><path d="M78.7211519,-129.3447173L78.7127652,-129.339271" /></g>
<g stroke="rgb(0, 0, 0)"><path d="M78.7127652,-129.339271L77.0788481,-131.8552827" /></g>
<g stroke="rgb(0, 0, 0)"><path d="M77.0788481,-131.8552827L77.0872348,-131.860729" /></g>
<g stroke="rgb(0, 0, 0)"><path d="M77.0872348,-131.860729L78.7211519,-129.3447173" /></g>
<g stroke="rgb(0, 0, 0)"><path d="M95.4185389,-123.256658L95.4104487,-123.2507802" /></g>
<g stroke="rgb(0, 0, 0)"><path d="M95.4104487,-123.2507802L93.6470929,-125.6778312" /></g>
<g stroke="rgb(0, 0, 0)"><path d="M93.6470929,-125.6778312L93.6551831,-125.683709" /></g>
<g stroke="rgb(0, 0, 0)"><path d="M93.6551831,-125.683709L95.4185389,-123.256658" /></g>
<g stroke="rgb(0, 0, 0)"><path d="M113.9591452,-118.5503899L113.9524539,-118.5429585" /></g>
<g stroke="rgb(0, 0, 0)"><path d="M113.9524539,-118.5429585L111.7230194,-120.5503503" /></g>
<g stroke="rgb(0, 0, 0)"><path d="M111.7230194,-120.5503503L111.7297107,-120.5577817" /></g>
<g stroke="rgb(0, 0, 0)"><path d="M111.7297107,-120.5577817L113.9591452,-118.5503899" /></g>
<g stroke="rgb(0, 0, 0)"><path d="M56.0571246,-37.0641957L56.0641957,-37.0571246" /></g>
<g stroke="rgb(0, 0, 0)"><path d="M56.0641957,-37.0571246L53.9428754,-34.9358043" /></g>
<g stroke="rgb(0, 0, 0)"><path d="M53.9428754,-34.9358043L53.9358043,-34.9428754" /></g>
<g stroke="rgb(0, 0, 0)"><path d="M53.9358043,-34.9428754L56.0571246,-37.0641957" /></g>
<g stroke="rgb(0, 0, 0)"><path d="M56.0571246,-156.0641957L56.0641957,-156.0571246" /></g>
<g stroke="rgb(0, 0, 0)"><path d="M56.0641957,-156.0571246L53.9428754,-153.9358043" /></g>
<g stroke="rgb(0, 0, 0)"><path d="M53.9428754,-153.9358043L53.9358043,-153.9428754" /></g>
<g stroke="rgb(0, 0, 0)"><path d="M53.9358043,-153.9428754L56.0571246,-156.0641957" /></g>
<g stroke="rgb(0, 0, 0)"><path d="M82.3071246,-80.0641957L82.3141957,-80.0571246" /></g>
<g stroke="rgb(0, 0, 0)"><path d="M82.3141957,-80.0571246L80.1928754,-77.9358043" /></g>
<g stroke="rgb(0, 0, 0)"><path d="M80.1928754,-77.9358043L80.1858043,-77.9428754" /></g>
<g stroke="rgb(0, 0, 0)"><path d="M80.1858043,-77.9428754L82.3071246,-80.0641957" /></g>
<g stroke="rgb(0, 0, 0)"><path d="M91.3071246,-63.5641957L91.3141957,-63.5571246" /></g>
<g stroke="rgb(0, 0, 0)"><path d="M91.3141957,-63.5571246L89.1928754,-61.4358043" /></g>
<g stroke="rgb(0, 0, 0)"><path d="M89.1928754,-61.4358043L89.1858043,-61.4428754" /></g>
<g stroke="rgb(0, 0, 0)"><path d="M89.1858043,-61.4428754L91.3071246,-63.5641957" /></g>
<g stroke="rgb(0, 0, 0)"><path d="M73.3071246,-63.5641957L73.3141957,-63.5571246" /></g>
<g stroke="rgb(0, 0, 0)"><path d="M73.3141957,-63.5571246L71.1928754,-61.4358043" /></g>
<g stroke="rgb(0, 0, 0)"><path d="M71.1928754,-61.4358043L71.1858043,-61.4428754" /></g>
<g stroke="rgb(0, 0, 0)"><path d="M71.1858043,-61.4428754L73.3071246,-63.5641957" /></g>
<g stroke="rgb(0, 0, 0)"><path d="M91.3071246,-96.5641957L91.3141957,-96.5571246" /></g>
<g stroke="rgb(0, 0, 0)"><path d="M91.3141957,-96.5571246L89.1928754,-94.4358043" /></g>
<g stroke="rgb(0, 0, 0)"><path d="M89.1928754,-94.4358043L89.1858043,-94.4428754" /></g>
<g stroke="rgb(0, 0, 0)"><path d="M89.1858043,-94.4428754L91.3071246,-96.5641957" /></g>
<g stroke="rgb(0, 0, 0)"><path d="M73.3071246,-96.5641957L73.3141957,-96.5571246" /></g>
<g stroke="rgb(0, 0, 0)"><path d="M73.3141957,-96.5571246L71.1928754,-94.4358043" /></g>
<g stroke="rgb(0, 0, 0)"><path d="M71.1928754,-94.4358043L71.1858043,-94.4428754" /></g>
<g stroke="rgb(0, 0, 0)"><path d="M71.1858043,-94.4428754L73.3071246,-96.5641957" /></g>
<g stroke="rgb(0, 0, 0)"><path d="M82.3071246,-63.5641957L82.3141957,-63.5571246" /></g>
<g stroke="rgb(0, 0, 0)"><path d="M82.3141957,-63.5571246L80.1928754,-61.4358043" /></g>
<g stroke="rgb(0, 0, 0)"><path d="M80.1928754,-61.4358043L80.1858043,-61.4428754" /></g>
<g stroke="rgb(0, 0, 0)"><path d="M80.1858043,-61.4428754L82.3071246,-63.5641957" /></g>
<g stroke="rgb(0, 0, 0)"><path d="M82.3071246,-96.5641957L82.3141957,-96.5571246" /></g>
<g stroke="rgb(0, 0, 0)"><path d="M82.3141957,-96.5571246L80.1928754,-94.4358043" /></g>
<g stroke="rgb(0, 0, 0)"><path d="M80.1928754,-94.4358043L80.1858043,-94.4428754" /></g>
<g stroke="rgb(0, 0, 0)"><path d="M80.1858043,-94.4428754L82.3071246,-96.5641957" /></g>
<g stroke="rgb(0, 0, 0)"><path d="M82.3071246,-97.8641957L82.3141957,-97.8571246" /></g>
<g stroke="rgb(0, 0, 0)"><path d="M82.3141957,-97.8571246L80.1928754,-95.7358043" /></g>
<g stroke="rgb(0, 0, 0)"><path d="M80.1928754,-95.7358043L80.1858043,-95.7428754" /></g>
<g stroke="rgb(0, 0, 0)"><path d="M80.1858043,-95.7428754L82.3071246,-97.8641957" /></g>
<g stroke="rgb(0, 0, 0)"><path d="M79.3071246,-107.2641957L79.3141957,-107.2571246" /></g>
<g stroke="rgb(0, 0, 0)"><path d="M79.3141957,-107.2571246L77.1928754,-105.1358043" /></g>
<g stroke="rgb(0, 0, 0)"><path d="M77.1928754,-105.1358043L77.1858043,-105.1428754" /></g>
<g stroke="rgb(0, 0, 0)"><path d="M77.1858043,-105.1428754L79.3071246,-107.2641957" /></g>
<g stroke="rgb(0, 0, 0)"><path d="M78.8071246,-63.0641957L78.8141957,-63.0571246" /></g>
<g stroke="rgb(0, 0, 0)"><path d="M78.8141957,-63.0571246L76.6928754,-60.9358043" /></g>
<g stroke="rgb(0, 0, 0)"><path d="M76.6928754,-60.9358043L76.6858043,-60.9428754" /></g>
<g stroke="rgb(0, 0, 0)"><path d="M76.6858043,-60.9428754L78.8071246,-63.0641957" /></g>
<g stroke="rgb(0, 0, 0)"><path d="M88.3071246,-62.7191957L88.3141957,-62.7121246" /></g>
<g stroke="rgb(0, 0, 0)"><path d="M88.3141957,-62.7121246L86.1928754,-60.5908043" /></g>
<g stroke="rgb(0, 0, 0)"><path d="M86.1928754,-60.5908043L86.1858043,-60.5978754" /></g>
<g stroke="rgb(0, 0, 0)"><path d="M86.1858043,-60.5978754L88.3071246,-62.7191957" /></g>
<g stroke="rgb(0, 0, 0)"><path d="M89.3071246,-103.5641957L89.3141957,-103.5571246" /></g>
<g stroke="rgb(0, 0, 0)"><path d="M89.3141957,-103.5571246L87.1928754,-101.4358043" /></g>
<g stroke="rgb(0, 0, 0)"><path d="M87.1928754,-101.4358043L87.1858043,-101.4428754" /></g>
<g stroke="rgb(0, 0, 0)"><path d="M87.1858043,-101.4428754L89.3071246,-103.5641957" /></g>
<g stroke="rgb(0, 0, 0)"><path d="M75.3071246,-103.5641957L75.3141957,-103.5571246" /></g>
<g stroke="rgb(0, 0, 0)"><path d="M75.3141957,-103.5571246L73.1928754,-101.4358043" /></g>
<g stroke="rgb(0, 0, 0)"><path d="M73.1928754,-101.4358043L73.1858043,-101.4428754" /></g>
<g stroke="rgb(0, 0, 0)"><path d="M73.1858043,-101.4428754L75.3071246,-103.5641957" /></g>
<g stroke="rgb(0, 0, 0)"><path d="M75.3071246,-117.5641957L75.3141957,-117.5571246" /></g>
<g stroke="rgb(0, 0, 0)"><path d="M75.3141957,-117.5571246L73.1928754,-115.4358043" /></g>
<g stroke="rgb(0, 0, 0)"><path d="M73.1928754,-115.4358043L73.1858043,-115.4428754" /></g>
<g stroke="rgb(0, 0, 0)"><path d="M73.1858043,-115.4428754L75.3071246,-117.5641957" /></g>
<g stroke="rgb(0, 0, 0)"><path d="M151.0071246,-86.4141957L151.0141957,-86.4071246" /></g>
<g stroke="rgb(0, 0, 0)"><path d="M151.0141957,-86.4071246L148.8928754,-84.2858043" /></g>
<g stroke="rgb(0, 0, 0)"><path d="M148.8928754,-84.2858043L148.8858043,-84.2928754" /></g>
<g stroke="rgb(0, 0, 0)"><path d="M148.8858043,-84.2928754L151.0071246,-86.4141957" /></g>
<g stroke="rgb(0, 0, 0)"><path d="M173.5071246,-63.9141957L173.5141957,-63.9071246" /></g>
<g stroke="rgb(0, 0, 0)"><path d="M173.5141957,-63.9071246L171.3928754,-61.7858043" /></g>
<g stroke="rgb(0, 0, 0)"><path d="M171.3928754,-61.7858043L171.3858043,-61.7928754" /></g>
<g stroke="rgb(0, 0, 0)"><path d="M171.3858043,-61.7928754L173.5071246,-63.9141957" /></g>
<g stroke="rgb(0, 0, 0)"><path d="M173.5071246,-108.9141957L173.5141957,-108.9071246" /></g>
<g stroke="rgb(0, 0, 0)"><path d="M173.5141957,-108.9071246L171.3928754,-106.7858043" /></g>
<g stroke="rgb(0, 0, 0)"><path d="M171.3928754,-106.7858043L171.3858043,-106.7928754" /></g>
<g stroke="rgb(0, 0, 0)"><path d="M171.3858043,-106.7928754L173.5071246,-108.9141957" /></g>
<g stroke="rgb(0, 0, 0)"><path d="M128.5071246,-63.9141957L128.5141957,-63.9071246" /></g>
<g stroke="rgb(0, 0, 0)"><path d="M128.5141957,-63.9071246L126.3928754,-61.7858043" /></g>
<g stroke="rgb(0, 0, 0)"><path d="M126.3928754,-61.7858043L126.3858043,-61.7928754" /></g>
<g stroke="rgb(0, 0, 0)"><path d="M126.3858043,-61.7928754L128.5071246,-63.9141957" /></g>
<g stroke="rgb(0, 0, 0)"><path d="M128.5071246,-108.9141957L128.5141957,-108.9071246" /></g>
<g stroke="rgb(0, 0, 0)"><path d="M128.5141957,-108.9071246L126.3928754,-106.7858043" /></g>
<g stroke="rgb(0, 0, 0)"><path d="M126.3928754,-106.7858043L126.3858043,-106.7928754" /></g>
<g stroke="rgb(0, 0, 0)"><path d="M126.3858043,-106.7928754L128.5071246,-108.9141957" /></g>
<g stroke="rgb(0, 0, 0)"><path d="M86.6446751,-126.6712318L86.6365849,-126.665354" /></g>
<g stroke="rgb(0, 0, 0)"><path d="M86.6365849,-126.665354L84.8732291,-129.092405" /></g>
<g stroke="rgb(0, 0, 0)"><path d="M84.8732291,-129.092405L84.8813193,-129.0982828" /></g>
<g stroke="rgb(0, 0, 0)"><path d="M84.8813193,-129.0982828L86.6446751,-126.6712318" /></g>
<g stroke="rgb(0, 0, 0)"><path d="M109.5571246,-75.5641957L109.5641957,-75.5571246" /></g>
<g stroke="rgb(0, 0, 0)"><path d="M109.5641957,-75.5571246L107.4428754,-73.4358043" /></g>
<g stroke="rgb(0, 0, 0)"><path d="M107.4428754,-73.4358043L107.4358043,-73.4428754" /></g>
<g stroke="rgb(0, 0, 0)"><path d="M107.4358043,-73.4428754L109.5571246,-75.5641957" /></g>
<g stroke="rgb(0, 0, 0)"><path d="M109.5571246,-92.5641957L109.5641957,-92.5571246" /></g>
<g stroke="rgb(0, 0, 0)"><path d="M109.5641957,-92.5571246L107.4428754,-90.4358043" /></g>
<g stroke="rgb(0, 0, 0)"><path d="M107.4428754,-90.4358043L107.4358043,-90.4428754" /></g>
<g stroke="rgb(0, 0, 0)"><path d="M107.4358043,-90.4428754L109.5571246,-92.5641957" /></g>
<g stroke="rgb(0, 0, 0)"><path d="M193.8827447,-81.5442905L193.8904051,-81.5378627" /></g>
<g stroke="rgb(0, 0, 0)"><path d="M193.8904051,-81.5378627L191.9620423,-79.2397293" /></g>
<g stroke="rgb(0, 0, 0)"><path d="M191.9620423,-79.2397293L191.9543819,-79.2461572" /></g>
<g stroke="rgb(0, 0, 0)"><path d="M191.9543819,-79.2461572L193.8827447,-81.5442905" /></g>
<g stroke="rgb(0, 0, 0)"><path d="M192.4010971,-98.4796004L192.4087575,-98.4731725" /></g>
<g stroke="rgb(0, 0, 0)"><path d="M192.4087575,-98.4731725L190.4803947,-96.1750392" /></g>
<g stroke="rgb(0, 0, 0)"><path d="M190.4803947,-96.1750392L190.4727343,-96.1814671" /></g>
<g stroke="rgb(0, 0, 0)"><path d="M190.4727343,-96.1814671L192.4010971,-98.4796004" /></g>
<g stroke="rgb(0, 0, 0)"><path d="M178.0432491,-80.1585141L178.0509095,-80.1520863" /></g>
<g stroke="rgb(0, 0, 0)"><path d="M178.0509095,-80.1520863L176.1225467,-77.853953" /></g>
<g stroke="rgb(0, 0, 0)"><path d="M176.1225467,-77.853953L176.1148863,-77.8603808" /></g>
<g stroke="rgb(0, 0, 0)"><path d="M176.1148863,-77.8603808L178.0432491,-80.1585141" /></g>
<g stroke="rgb(0, 0, 0)"><path d="M176.5616015,-97.093824L176.5692619,-97.0873961" /></g>
<g stroke="rgb(0, 0, 0)"><path d="M176.5692619,-97.0873961L174.6408991,-94.7892628" /></g>
<g stroke="rgb(0, 0, 0)"><path d="M174.6408991,-94.7892628L174.6332387,-94.7956907" /></g>
<g stroke="rgb(0, 0, 0)"><path d="M174.6332387,-94.7956907L176.5616015,-97.093824" /></g>
<g stroke="rgb(0, 0, 0)"><path d="M 100.87071488541505 -99.13635611530272 A 0.4 0.4 0 1 1 100.86364388469728 -99.12928511458495" /></g>
<g stroke="rgb(0, 0, 0)"><path d="M 100.87071488541505 -82.13635611530272 A 0.4 0.4 0 1 1 100.86364388469728 -82.12928511458495" /></g>
<g stroke="rgb(0, 0, 0)"><path d="M 100.87071488541505 -65.13635611530272 A 0.4 0.4 0 1 1 100.86364388469728 -65.12928511458495" /></g>
<g stroke="rgb(0, 0, 0)"><path d="M 117.87071488541505 -99.13635611530272 A 0.4 0.4 0 1 1 117.86364388469728 -99.12928511458495" /></g>
<g stroke="rgb(0, 0, 0)"><path d="M 117.87071488541505 -82.13635611530272 A 0.4 0.4 0 1 1 117.86364388469728 -82.12928511458495" /></g>
<g stroke="rgb(0, 0, 0)"><path d="M 117.87071488541505 -65.13635611530272 A 0.4 0.4 0 1 1 117.86364388469728 -65.12928511458495" /></g>
<g stroke="rgb(0, 0, 0)"><path d="M 138.87071488541505 -91.48635611530273 A 0.4 0.4 0 1 1 138.86364388469727 -91.47928511458495" /></g>
<g stroke="rgb(0, 0, 0)"><path d="M 138.87071488541505 -74.48635611530273 A 0.4 0.4 0 1 1 138.86364388469727 -74.47928511458495" /></g>
<g stroke="rgb(0, 0, 0)"><path d="M 138.87071488541505 -57.48635611530273 A 0.4 0.4 0 1 1 138.86364388469727 -57.479285114584954" /></g>
<g stroke="rgb(0, 0, 0)"><path d="M 162.27023250217354 -93.60401299822112 A 0.4 0.4 0 1 1 162.26347663875572 -93.59664026510363" /></g>
<g stroke="rgb(0, 0, 0)"><path d="M 163.01176210217352 -76.62019319822112 A 0.4 0.4 0 1 1 163.0050062387557 -76.61282046510362" /></g>
<g stroke="rgb(0, 0, 0)"><path d="M 163.75329170217353 -59.636373398221124 A 0.4 0.4 0 1 1 163.7465358387557 -59.62900066510363" /></g>
<g stroke="rgb(0, 0, 0)"><path d="M 183.72284741111642 -104.31761699038324 A 0.4 0.4 0 1 1 183.7164194979894 -104.3099565013189" /></g>
<g stroke="rgb(0, 0, 0)"><path d="M 185.20449501111642 -87.38230709038325 A 0.4 0.4 0 1 1 185.1980670979894 -87.3746466013189" /></g>
<g stroke="rgb(0, 0, 0)"><path d="M 186.6861426111164 -70.44699719038324 A 0.4 0.4 0 1 1 186.67971469798937 -70.4393367013189" /></g>
<g stroke="rgb(0, 0, 0)"><path d="M 199.67183829038325 -97.17340618888359 A 0.4 0.4 0 1 1 199.66417780131889 -97.17983410201063" /></g>
<g stroke="rgb(0, 0, 0)"><path d="M 201.52389779038327 -76.00426888888359 A 0.4 0.4 0 1 1 201.5162373013189 -76.01069680201063" /></g>
<g stroke="rgb(0, 0, 0)"><path d="M 76.87419702743071 -129.92787391749093 A 0.4 0.4 0 1 1 76.86875063684745 -129.93626062474706" /></g>
<g stroke="rgb(0, 0, 0)"><path d="M 93.54359514972651 -123.74235323494912 A 0.4 0.4 0 1 1 93.53771730080791 -123.75044340067427" /></g>
<g stroke="rgb(0, 0, 0)"><path d="M 112.02419175605506 -118.63564885248454 A 0.4 0.4 0 1 1 112.01676028311573 -118.64234018024575" /></g>
<g stroke="rgb(0, 0, 0)"><path d="M 55.87071488541505 -35.13635611530273 A 0.4 0.4 0 1 1 55.86364388469727 -35.12928511458495" /></g>
<g stroke="rgb(0, 0, 0)"><path d="M 55.87071488541505 -154.13635611530273 A 0.4 0.4 0 1 1 55.86364388469727 -154.12928511458495" /></g>
<g stroke="rgb(0, 0, 0)"><path d="M 82.12071488541505 -78.13635611530272 A 0.4 0.4 0 1 1 82.11364388469728 -78.12928511458495" /></g>
<g stroke="rgb(0, 0, 0)"><path d="M 91.12071488541505 -61.63635611530273 A 0.4 0.4 0 1 1 91.11364388469728 -61.62928511458495" /></g>
<g stroke="rgb(0, 0, 0)"><path d="M 73.12071488541505 -61.63635611530273 A 0.4 0.4 0 1 1 73.11364388469728 -61.62928511458495" /></g>
<g stroke="rgb(0, 0, 0)"><path d="M 91.12071488541505 -94.63635611530272 A 0.4 0.4 0 1 1 91.11364388469728 -94.62928511458495" /></g>
<g stroke="rgb(0, 0, 0)"><path d="M 73.12071488541505 -94.63635611530272 A 0.4 0.4 0 1 1 73.11364388469728 -94.62928511458495" /></g>
<g stroke="rgb(0, 0, 0)"><path d="M 82.12071488541505 -61.63635611530273 A 0.4 0.4 0 1 1 82.11364388469728 -61.62928511458495" /></g>
<g stroke="rgb(0, 0, 0)"><path d="M 82.12071488541505 -94.63635611530272 A 0.4 0.4 0 1 1 82.11364388469728 -94.62928511458495" /></g>
<g stroke="rgb(0, 0, 0)"><path d="M 82.12071488541505 -95.93635611530273 A 0.4 0.4 0 1 1 82.11364388469728 -95.92928511458496" /></g>
<g stroke="rgb(0, 0, 0)"><path d="M 79.12071488541505 -105.33635611530272 A 0.4 0.4 0 1 1 79.11364388469728 -105.32928511458495" /></g>
<g stroke="rgb(0, 0, 0)"><path d="M 78.62071488541505 -61.13635611530273 A 0.4 0.4 0 1 1 78.61364388469728 -61.12928511458495" /></g>
<g stroke="rgb(0, 0, 0)"><path d="M 88.12071488541505 -60.79135611530273 A 0.4 0.4 0 1 1 88.11364388469728 -60.784285114584954" /></g>
<g stroke="rgb(0, 0, 0)"><path d="M 89.12071488541505 -101.63635611530272 A 0.4 0.4 0 1 1 89.11364388469728 -101.62928511458495" /></g>
<g stroke="rgb(0, 0, 0)"><path d="M 75.12071488541505 -101.63635611530272 A 0.4 0.4 0 1 1 75.11364388469728 -101.62928511458495" /></g>
<g stroke="rgb(0, 0, 0)"><path d="M 75.12071488541505 -115.63635611530272 A 0.4 0.4 0 1 1 75.11364388469728 -115.62928511458495" /></g>
<g stroke="rgb(0, 0, 0)"><path d="M 150.82071488541504 -84.48635611530273 A 0.4 0.4 0 1 1 150.81364388469726 -84.47928511458495" /></g>
<g stroke="rgb(0, 0, 0)"><path d="M 173.32071488541504 -61.98635611530273 A 0.4 0.4 0 1 1 173.31364388469726 -61.979285114584954" /></g>
<g stroke="rgb(0, 0, 0)"><path d="M 173.32071488541504 -106.98635611530273 A 0.4 0.4 0 1 1 173.31364388469726 -106.97928511458495" /></g>
<g stroke="rgb(0, 0, 0)"><path d="M 128.32071488541504 -61.98635611530273 A 0.4 0.4 0 1 1 128.31364388469726 -61.979285114584954" /></g>
<g stroke="rgb(0, 0, 0)"><path d="M 128.32071488541504 -106.98635611530273 A 0.4 0.4 0 1 1 128.31364388469726 -106.97928511458495" /></g>
<g stroke="rgb(0, 0, 0)"><path d="M 84.76973134972651 -127.15692703494913 A 0.4 0.4 0 1 1 84.76385350080791 -127.16501720067428" /></g>
<g stroke="rgb(0, 0, 0)"><path d="M 109.37071488541505 -73.63635611530272 A 0.4 0.4 0 1 1 109.36364388469728 -73.62928511458495" /></g>
<g stroke="rgb(0, 0, 0)"><path d="M 109.37071488541505 -90.63635611530272 A 0.4 0.4 0 1 1 109.36364388469728 -90.62928511458495" /></g>
<g stroke="rgb(0, 0, 0)"><path d="M 193.86506661111642 -79.60754029038324 A 0.4 0.4 0 1 1 193.8586386979894 -79.59987980131889" /></g>
<g stroke="rgb(0, 0, 0)"><path d="M 192.38341901111642 -96.54285019038325 A 0.4 0.4 0 1 1 192.3769910979894 -96.5351897013189" /></g>
<g stroke="rgb(0, 0, 0)"><path d="M 178.0255710111164 -78.22176399038325 A 0.4 0.4 0 1 1 178.01914309798937 -78.2141035013189" /></g>
<g stroke="rgb(0, 0, 0)"><path d="M 176.5439234111164 -95.15707379038325 A 0.4 0.4 0 1 1 176.53749549798937 -95.1494133013189" /></g>
<g stroke="rgb(0, 0, 0)"><path d="M91.5,-108.5L125.5,-108.5" /></g>
<g stroke="rgb(0, 0, 0)"><path d="M108.5,-108.5L108.5,-57.5" /></g>
<g stroke="rgb(0, 0, 0)"><path d="M91.5,-91.5L125.5,-91.5" /></g>
<g stroke="rgb(0, 0, 0)"><path d="M91.5,-108.5L91.5,-57.5" /></g>
<g stroke="rgb(0, 0, 0)"><path d="M91.5,-74.5L125.5,-74.5" /></g>
<g stroke="rgb(0, 0, 0)"><path d="M91.5,-57.5L125.5,-57.5" /></g>
<g stroke="rgb(0, 0, 0)"><path d="M125.5,-108.5L125.5,-57.5" /></g>
<g stroke="rgb(0, 0, 0)"><path d="M129.5,-100.85L146.5,-100.85" /></g>
<g stroke="rgb(0, 0, 0)"><path d="M146.5,-100.85L146.5,-49.85" /></g>
<g stroke="rgb(0, 0, 0)"><path d="M129.5,-83.85L146.5,-83.85" /></g>
<g stroke="rgb(0, 0, 0)"><path d="M129.5,-100.85L129.5,-49.85" /></g>
<g stroke="rgb(0, 0, 0)"><path d="M129.5,-66.85L146.5,-66.85" /></g>
<g stroke="rgb(0, 0, 0)"><path d="M146.5,-49.85L129.5,-49.85" /></g>
<g stroke="rgb(0, 0, 0)"><path d="M152.5,-102.55L169.4838198,-103.2915296" /></g>
<g stroke="rgb(0, 0, 0)"><path d="M169.4838198,-103.2915296L171.7084086,-52.3400702" /></g>
<g stroke="rgb(0, 0, 0)"><path d="M153.2415296,-85.5661802L170.2253494,-86.3077098" /></g>
<g stroke="rgb(0, 0, 0)"><path d="M152.5,-102.55L154.7245888,-51.5985406" /></g>
<g stroke="rgb(0, 0, 0)"><path d="M153.9830592,-68.5823604L170.966879,-69.32389" /></g>
<g stroke="rgb(0, 0, 0)"><path d="M171.7084086,-52.3400702L154.7245888,-51.5985406" /></g>
<g stroke="rgb(0, 0, 0)"><path d="M173.5716956,-112.8289177L190.5070054,-114.3105653" /></g>
<g stroke="rgb(0, 0, 0)"><path d="M190.5070054,-114.3105653L194.9519482,-63.5046357" /></g>
<g stroke="rgb(0, 0, 0)"><path d="M175.0533432,-95.8936078L191.988653,-97.3752555" /></g>
<g stroke="rgb(0, 0, 0)"><path d="M175.0533432,-95.8936079L173.5716956,-112.8289177" /></g>
<g stroke="rgb(0, 0, 0)"><path d="M176.5349908,-78.9582979L193.4703006,-80.4399456" /></g>
<g stroke="rgb(0, 0, 0)"><path d="M176.5349908,-78.958298L175.0533432,-95.8936078" /></g>
<g stroke="rgb(0, 0, 0)"><path d="M194.9519482,-63.5046357L178.0166384,-62.0229881" /></g>
<g stroke="rgb(0, 0, 0)"><path d="M178.0166384,-62.0229881L176.5349908,-78.9582979" /></g>
<g stroke="rgb(0, 0, 0)"><path d="M207.6209856,-113.75L211.7471019,-66.5882754" /></g>
<g stroke="rgb(0, 0, 0)"><path d="M192.9146827,-86.7906868L209.8499926,-88.2723345" /></g>
<g stroke="rgb(0, 0, 0)"><path d="M191.0626232,-107.9598242L207.9979331,-109.4414718" /></g>
<g stroke="rgb(0, 0, 0)"><path d="M211.7020521,-67.1031971L194.7667422,-65.6215495" /></g>
<g stroke="rgb(0, 0, 0)"><path d="M88.4233163,-139.2255689L84.0051929,-118.4399324" /></g>
<g stroke="rgb(0, 0, 0)"><path d="M84.0051929,-118.4399324L67.3766837,-121.9744311" /></g>
<g stroke="rgb(0, 0, 0)"><path d="M67.3766837,-121.9744311L71.7948071,-142.7600676" /></g>
<g stroke="rgb(0, 0, 0)"><path d="M71.7948071,-142.7600676L88.4233163,-139.2255689" /></g>
<g stroke="rgb(0, 0, 0)"><path d="M104.590283,-133.6317403L101.2660506,-112.643363" /></g>
<g stroke="rgb(0, 0, 0)"><path d="M101.2660506,-112.643363L84.4753488,-115.3027489" /></g>
<g stroke="rgb(0, 0, 0)"><path d="M84.4753488,-115.3027489L87.7995812,-136.2911262" /></g>
<g stroke="rgb(0, 0, 0)"><path d="M87.7995812,-136.2911262L104.590283,-133.6317403" /></g>
<g stroke="rgb(0, 0, 0)"><path d="M120.7733638,-130.6056645L121.8855029,-109.3847869" /></g>
<g stroke="rgb(0, 0, 0)"><path d="M121.8855029,-109.3847869L104.9088008,-108.4950757" /></g>
<g stroke="rgb(0, 0, 0)"><path d="M104.9088008,-108.4950757L103.7966617,-129.7159533" /></g>
<g stroke="rgb(0, 0, 0)"><path d="M103.7966617,-129.7159533L120.7733638,-130.6056645" /></g>
<g stroke="rgb(0, 0, 0)"><path d="M146.9470011,-113.75L207.6209856,-113.75" /></g>
<g stroke="rgb(0, 0, 0)"><path d="M 211.74710191778803 -66.58827542331176 A 160 160 0 0 1 90.50000009299984 -57.44958097590731" /></g>
<g stroke="rgb(0, 0, 0)"><path d="M 71.73430411176868 -142.47542397195375 A 140 140 0 0 1 146.9470010584076 -113.75000004564691" /></g>
<g stroke="rgb(0, 0, 0)"><path d="M71.7,-78.5281435L71.7,-61.5" /></g>
<g stroke="rgb(0, 0, 0)"><path d="M71.7,-61.5L90.5,-61.5" /></g>
<g stroke="rgb(0, 0, 0)"><path d="M90.5,-61.5L90.5000001,-57.449581" /></g>
<g stroke="rgb(0, 0, 0)"><path d="M 67.6529838330585 -123.27432091673822 A 200 200 0 0 1 71.6999999977169 -78.52814346014887" /></g>
<g stroke="rgb(0, 0, 0)"><path d="M72.25,-95.5L90.25,-95.5" /></g>
<g stroke="rgb(0, 0, 0)"><path d="M90.25,-95.5L90.25,-62.5" /></g>
<g stroke="rgb(0, 0, 0)"><path d="M90.25,-62.5L72.25,-62.5" /></g>
<g stroke="rgb(0, 0, 0)"><path d="M72.25,-62.5L72.25,-95.5" /></g>
<g stroke="rgb(0, 0, 0)"><circle cx="88.25" cy="-102.5" r="1.075" /></g>
<g stroke="rgb(0, 0, 0)"><circle cx="74.25" cy="-102.5" r="1.075" /></g>
<g stroke="rgb(0, 0, 0)"><circle cx="74.25" cy="-116.5" r="1.075" /></g>
<g stroke="rgb(0, 0, 0)"><circle cx="149.95" cy="-85.35" r="1.075" /></g>
<g stroke="rgb(0, 0, 0)"><circle cx="172.45" cy="-62.85" r="1.075" /></g>
<g stroke="rgb(0, 0, 0)"><circle cx="172.45" cy="-107.85" r="1.075" /></g>
<g stroke="rgb(0, 0, 0)"><circle cx="127.45" cy="-62.85" r="1.075" /></g>
<g stroke="rgb(0, 0, 0)"><circle cx="127.45" cy="-107.85" r="1.075" /></g>
<g stroke="rgb(0, 0, 0)"><circle cx="85.7589521" cy="-127.8818184" r="1.075" /></g>
<g stroke="rgb(0, 0, 0)"><circle cx="108.5" cy="-74.5" r="1.075" /></g>
<g stroke="rgb(0, 0, 0)"><circle cx="108.5" cy="-91.5" r="1.075" /></g>
<g stroke="rgb(0, 0, 0)"><circle cx="192.9223935" cy="-80.3920099" r="1.075" /></g>
<g stroke="rgb(0, 0, 0)"><circle cx="191.4407459" cy="-97.3273198" r="1.075" /></g>
<g stroke="rgb(0, 0, 0)"><circle cx="177.0828979" cy="-79.0062335" r="1.075" /></g>
<g stroke="rgb(0, 0, 0)"><circle cx="175.6012503" cy="-95.9415434" r="1.075" /></g>
<g stroke="rgb(0, 0, 0)"><circle cx="88.25" cy="-102.5" r="1.65" /></g>
<g stroke="rgb(0, 0, 0)"><circle cx="74.25" cy="-102.5" r="1.65" /></g>
<g stroke="rgb(0, 0, 0)"><circle cx="85.7589521" cy="-127.8818184" r="1.65" /></g>
<g stroke="rgb(0, 0, 0)"><circle cx="108.5" cy="-74.5" r="1.65" /></g>
<g stroke="rgb(0, 0, 0)"><circle cx="108.5" cy="-91.5" r="1.65" /></g>
<g stroke="rgb(0, 0, 0)"><circle cx="192.9223935" cy="-80.3920099" r="1.65" /></g>
<g stroke="rgb(0, 0, 0)"><circle cx="191.4407459" cy="-97.3273198" r="1.65" /></g>
<g stroke="rgb(0, 0, 0)"><circle cx="177.0828979" cy="-79.0062335" r="1.65" /></g>
<g stroke="rgb(0, 0, 0)"><circle cx="175.6012503" cy="-95.9415434" r="1.65" /></g>
<g stroke="rgb(0, 0, 0)"><path d="M92.5,-107.5L107.5,-107.5" /></g>
<g stroke="rgb(0, 0, 0)"><path d="M107.5,-107.5L107.5,-92.5" /></g>
<g stroke="rgb(0, 0, 0)"><path d="M107.5,-92.5L92.5,-92.5" /></g>
<g stroke="rgb(0, 0, 0)"><path d="M92.5,-92.5L92.5,-107.5" /></g>
<g stroke="rgb(0, 0, 0)"><path d="M92.5,-90.5L107.5,-90.5" /></g>
<g stroke="rgb(0, 0, 0)"><path d="M107.5,-90.5L107.5,-75.5" /></g>
<g stroke="rgb(0, 0, 0)"><path d="M107.5,-75.5L92.5,-75.5" /></g>
<g stroke="rgb(0, 0, 0)"><path d="M92.5,-75.5L92.5,-90.5" /></g>
<g stroke="rgb(0, 0, 0)"><path d="M92.5,-73.5L107.5,-73.5" /></g>
<g stroke="rgb(0, 0, 0)"><path d="M107.5,-73.5L107.5,-58.5" /></g>
<g stroke="rgb(0, 0, 0)"><path d="M107.5,-58.5L92.5,-58.5" /></g>
<g stroke="rgb(0, 0, 0)"><path d="M92.5,-58.5L92.5,-73.5" /></g>
<g stroke="rgb(0, 0, 0)"><path d="M109.5,-107.5L124.5,-107.5" /></g>
<g stroke="rgb(0, 0, 0)"><path d="M124.5,-107.5L124.5,-92.5" /></g>
<g stroke="rgb(0, 0, 0)"><path d="M124.5,-92.5L109.5,-92.5" /></g>
<g stroke="rgb(0, 0, 0)"><path d="M109.5,-92.5L109.5,-107.5" /></g>
<g stroke="rgb(0, 0, 0)"><path d="M109.5,-90.5L124.5,-90.5" /></g>
<g stroke="rgb(0, 0, 0)"><path d="M124.5,-90.5L124.5,-75.5" /></g>
<g stroke="rgb(0, 0, 0)"><path d="M124.5,-75.5L109.5,-75.5" /></g>
<g stroke="rgb(0, 0, 0)"><path d="M109.5,-75.5L109.5,-90.5" /></g>
<g stroke="rgb(0, 0, 0)"><path d="M109.5,-73.5L124.5,-73.5" /></g>
<g stroke="rgb(0, 0, 0)"><path d="M124.5,-73.5L124.5,-58.5" /></g>
<g stroke="rgb(0, 0, 0)"><path d="M124.5,-58.5L109.5,-58.5" /></g>
<g stroke="rgb(0, 0, 0)"><path d="M109.5,-58.5L109.5,-73.5" /></g>
<g stroke="rgb(0, 0, 0)"><path d="M130.5,-99.85L145.5,-99.85" /></g>
<g stroke="rgb(0, 0, 0)"><path d="M145.5,-99.85L145.5,-84.85" /></g>
<g stroke="rgb(0, 0, 0)"><path d="M145.5,-84.85L130.5,-84.85" /></g>
<g stroke="rgb(0, 0, 0)"><path d="M130.5,-84.85L130.5,-99.85" /></g>
<g stroke="rgb(0, 0, 0)"><path d="M130.5,-82.85L145.5,-82.85" /></g>
<g stroke="rgb(0, 0, 0)"><path d="M145.5,-82.85L145.5,-67.85" /></g>
<g stroke="rgb(0, 0, 0)"><path d="M145.5,-67.85L130.5,-67.85" /></g>
<g stroke="rgb(0, 0, 0)"><path d="M130.5,-67.85L130.5,-82.85" /></g>
<g stroke="rgb(0, 0, 0)"><path d="M130.5,-65.85L145.5,-65.85" /></g>
<g stroke="rgb(0, 0, 0)"><path d="M145.5,-65.85L145.5,-50.85" /></g>
<g stroke="rgb(0, 0, 0)"><path d="M145.5,-50.85L130.5,-50.85" /></g>
<g stroke="rgb(0, 0, 0)"><path d="M130.5,-50.85L130.5,-65.85" /></g>
<g stroke="rgb(0, 0, 0)"><path d="M153.5426676,-101.5945712L168.528391,-102.248862" /></g>
<g stroke="rgb(0, 0, 0)"><path d="M168.528391,-102.248862L169.1826818,-87.2631386" /></g>
<g stroke="rgb(0, 0, 0)"><path d="M169.1826818,-87.2631386L154.1969584,-86.6088478" /></g>
<g stroke="rgb(0, 0, 0)"><path d="M154.1969584,-86.6088478L153.5426676,-101.5945712" /></g>
<g stroke="rgb(0, 0, 0)"><path d="M154.2841972,-84.6107514L169.2699206,-85.2650422" /></g>
<g stroke="rgb(0, 0, 0)"><path d="M169.2699206,-85.2650422L169.9242114,-70.2793188" /></g>
<g stroke="rgb(0, 0, 0)"><path d="M169.9242114,-70.2793188L154.938488,-69.625028" /></g>
<g stroke="rgb(0, 0, 0)"><path d="M154.938488,-69.625028L154.2841972,-84.6107514" /></g>
<g stroke="rgb(0, 0, 0)"><path d="M155.0257268,-67.6269316L170.0114502,-68.2812224" /></g>
<g stroke="rgb(0, 0, 0)"><path d="M170.0114502,-68.2812224L170.665741,-53.295499" /></g>
<g stroke="rgb(0, 0, 0)"><path d="M170.665741,-53.295499L155.6800176,-52.6412082" /></g>
<g stroke="rgb(0, 0, 0)"><path d="M155.6800176,-52.6412082L155.0257268,-67.6269316" /></g>
<g stroke="rgb(0, 0, 0)"><path d="M174.655046,-111.9198788L189.5979665,-113.2272149" /></g>
<g stroke="rgb(0, 0, 0)"><path d="M189.5979665,-113.2272149L190.9053026,-98.2842944" /></g>
<g stroke="rgb(0, 0, 0)"><path d="M190.9053026,-98.2842944L175.9623821,-96.9769583" /></g>
<g stroke="rgb(0, 0, 0)"><path d="M175.9623821,-96.9769583L174.655046,-111.9198788" /></g>
<g stroke="rgb(0, 0, 0)"><path d="M176.1366936,-94.9845689L191.0796141,-96.291905" /></g>
<g stroke="rgb(0, 0, 0)"><path d="M191.0796141,-96.291905L192.3869502,-81.3489845" /></g>
<g stroke="rgb(0, 0, 0)"><path d="M192.3869502,-81.3489845L177.4440297,-80.0416484" /></g>
<g stroke="rgb(0, 0, 0)"><path d="M177.4440297,-80.0416484L176.1366936,-94.9845689" /></g>
<g stroke="rgb(0, 0, 0)"><path d="M177.6183412,-78.049259L192.5612617,-79.3565951" /></g>
<g stroke="rgb(0, 0, 0)"><path d="M192.5612617,-79.3565951L193.8685978,-64.4136746" /></g>
<g stroke="rgb(0, 0, 0)"><path d="M193.8685978,-64.4136746L178.9256773,-63.1063385" /></g>
<g stroke="rgb(0, 0, 0)"><path d="M178.9256773,-63.1063385L177.6183412,-78.049259" /></g>
<g stroke="rgb(0, 0, 0)"><path d="M207.2741001,-106.2412076L208.5814362,-91.2982871" /></g>
<g stroke="rgb(0, 0, 0)"><path d="M208.5814362,-91.2982871L193.6385157,-89.990951" /></g>
<g stroke="rgb(0, 0, 0)"><path d="M193.6385157,-89.990951L192.3311796,-104.9338715" /></g>
<g stroke="rgb(0, 0, 0)"><path d="M192.3311796,-104.9338715L207.2741001,-106.2412076" /></g>
<g stroke="rgb(0, 0, 0)"><path d="M209.1261596,-85.0720703L210.4334957,-70.1291498" /></g>
<g stroke="rgb(0, 0, 0)"><path d="M210.4334957,-70.1291498L195.4905752,-68.8218137" /></g>
<g stroke="rgb(0, 0, 0)"><path d="M195.4905752,-68.8218137L194.1832391,-83.7647342" /></g>
<g stroke="rgb(0, 0, 0)"><path d="M194.1832391,-83.7647342L209.1261596,-85.0720703" /></g>
<g stroke="rgb(0, 0, 0)"><path d="M86.7954447,-136.3767693L83.6767693,-121.7045553" /></g>
<g stroke="rgb(0, 0, 0)"><path d="M83.6767693,-121.7045553L69.0045553,-124.8232307" /></g>
<g stroke="rgb(0, 0, 0)"><path d="M69.0045553,-124.8232307L72.1232307,-139.4954447" /></g>
<g stroke="rgb(0, 0, 0)"><path d="M72.1232307,-139.4954447L86.7954447,-136.3767693" /></g>
<g stroke="rgb(0, 0, 0)"><path d="M103.1137369,-130.7016487L100.76722,-115.8863236" /></g>
<g stroke="rgb(0, 0, 0)"><path d="M100.76722,-115.8863236L85.9518949,-118.2328405" /></g>
<g stroke="rgb(0, 0, 0)"><path d="M85.9518949,-118.2328405L88.2984118,-133.0481656" /></g>
<g stroke="rgb(0, 0, 0)"><path d="M88.2984118,-133.0481656L103.1137369,-130.7016487" /></g>
<g stroke="rgb(0, 0, 0)"><path d="M119.9382841,-127.4326113L120.7233235,-112.4531683" /></g>
<g stroke="rgb(0, 0, 0)"><path d="M120.7233235,-112.4531683L105.7438805,-111.6681289" /></g>
<g stroke="rgb(0, 0, 0)"><path d="M105.7438805,-111.6681289L104.9588411,-126.6475719" /></g>
<g stroke="rgb(0, 0, 0)"><path d="M104.9588411,-126.6475719L119.9382841,-127.4326113" /></g>
<g stroke="rgb(0, 0, 0)"><path d="M93.1,-106.9L106.9,-106.9" /></g>
<g stroke="rgb(0, 0, 0)"><path d="M106.9,-106.9L106.9,-93.1" /></g>
<g stroke="rgb(0, 0, 0)"><path d="M106.9,-93.1L93.1,-93.1" /></g>
<g stroke="rgb(0, 0, 0)"><path d="M93.1,-93.1L93.1,-106.9" /></g>
<g stroke="rgb(0, 0, 0)"><path d="M93.1,-89.9L106.9,-89.9" /></g>
<g stroke="rgb(0, 0, 0)"><path d="M106.9,-89.9L106.9,-76.1" /></g>
<g stroke="rgb(0, 0, 0)"><path d="M106.9,-76.1L93.1,-76.1" /></g>
<g stroke="rgb(0, 0, 0)"><path d="M93.1,-76.1L93.1,-89.9" /></g>
<g stroke="rgb(0, 0, 0)"><path d="M93.1,-72.9L106.9,-72.9" /></g>
<g stroke="rgb(0, 0, 0)"><path d="M106.9,-72.9L106.9,-59.1" /></g>
<g stroke="rgb(0, 0, 0)"><path d="M106.9,-59.1L93.1,-59.1" /></g>
<g stroke="rgb(0, 0, 0)"><path d="M93.1,-59.1L93.1,-72.9" /></g>
<g stroke="rgb(0, 0, 0)"><path d="M110.1,-106.9L123.9,-106.9" /></g>
<g stroke="rgb(0, 0, 0)"><path d="M123.9,-106.9L123.9,-93.1" /></g>
<g stroke="rgb(0, 0, 0)"><path d="M123.9,-93.1L110.1,-93.1" /></g>
<g stroke="rgb(0, 0, 0)"><path d="M110.1,-93.1L110.1,-106.9" /></g>
<g stroke="rgb(0, 0, 0)"><path d="M110.1,-89.9L123.9,-89.9" /></g>
<g stroke="rgb(0, 0, 0)"><path d="M123.9,-89.9L123.9,-76.1" /></g>
<g stroke="rgb(0, 0, 0)"><path d="M123.9,-76.1L110.1,-76.1" /></g>
<g stroke="rgb(0, 0, 0)"><path d="M110.1,-76.1L110.1,-89.9" /></g>
<g stroke="rgb(0, 0, 0)"><path d="M110.1,-72.9L123.9,-72.9" /></g>
<g stroke="rgb(0, 0, 0)"><path d="M123.9,-72.9L123.9,-59.1" /></g>
<g stroke="rgb(0, 0, 0)"><path d="M123.9,-59.1L110.1,-59.1" /></g>
<g stroke="rgb(0, 0, 0)"><path d="M110.1,-59.1L110.1,-72.9" /></g>
<g stroke="rgb(0, 0, 0)"><path d="M131.1,-99.25L144.9,-99.25" /></g>
<g stroke="rgb(0, 0, 0)"><path d="M144.9,-99.25L144.9,-85.45" /></g>
<g stroke="rgb(0, 0, 0)"><path d="M144.9,-85.45L131.1,-85.45" /></g>
<g stroke="rgb(0, 0, 0)"><path d="M131.1,-85.45L131.1,-99.25" /></g>
<g stroke="rgb(0, 0, 0)"><path d="M131.1,-82.25L144.9,-82.25" /></g>
<g stroke="rgb(0, 0, 0)"><path d="M144.9,-82.25L144.9,-68.45" /></g>
<g stroke="rgb(0, 0, 0)"><path d="M144.9,-68.45L131.1,-68.45" /></g>
<g stroke="rgb(0, 0, 0)"><path d="M131.1,-68.45L131.1,-82.25" /></g>
<g stroke="rgb(0, 0, 0)"><path d="M131.1,-65.25L144.9,-65.25" /></g>
<g stroke="rgb(0, 0, 0)"><path d="M144.9,-65.25L144.9,-51.45" /></g>
<g stroke="rgb(0, 0, 0)"><path d="M144.9,-51.45L131.1,-51.45" /></g>
<g stroke="rgb(0, 0, 0)"><path d="M131.1,-51.45L131.1,-65.25" /></g>
<g stroke="rgb(0, 0, 0)"><path d="M154.1682682,-101.0213139L167.9551337,-101.6232614" /></g>
<g stroke="rgb(0, 0, 0)"><path d="M167.9551337,-101.6232614L168.5570812,-87.8363959" /></g>
<g stroke="rgb(0, 0, 0)"><path d="M168.5570812,-87.8363959L154.7702157,-87.2344484" /></g>
<g stroke="rgb(0, 0, 0)"><path d="M154.7702157,-87.2344484L154.1682682,-101.0213139" /></g>
<g stroke="rgb(0, 0, 0)"><path d="M154.9097978,-84.0374941L168.6966633,-84.6394416" /></g>
<g stroke="rgb(0, 0, 0)"><path d="M168.6966633,-84.6394416L169.2986108,-70.8525761" /></g>
<g stroke="rgb(0, 0, 0)"><path d="M169.2986108,-70.8525761L155.5117453,-70.2506286" /></g>
<g stroke="rgb(0, 0, 0)"><path d="M155.5117453,-70.2506286L154.9097978,-84.0374941" /></g>
<g stroke="rgb(0, 0, 0)"><path d="M155.6513274,-67.0536743L169.4381929,-67.6556218" /></g>
<g stroke="rgb(0, 0, 0)"><path d="M169.4381929,-67.6556218L170.0401404,-53.8687563" /></g>
<g stroke="rgb(0, 0, 0)"><path d="M170.0401404,-53.8687563L156.2532749,-53.2668088" /></g>
<g stroke="rgb(0, 0, 0)"><path d="M156.2532749,-53.2668088L155.6513274,-67.0536743" /></g>
<g stroke="rgb(0, 0, 0)"><path d="M175.3050563,-111.3744554L189.0525431,-112.5772046" /></g>
<g stroke="rgb(0, 0, 0)"><path d="M189.0525431,-112.5772046L190.2552923,-98.8297178" /></g>
<g stroke="rgb(0, 0, 0)"><path d="M190.2552923,-98.8297178L176.5078055,-97.6269686" /></g>
<g stroke="rgb(0, 0, 0)"><path d="M176.5078055,-97.6269686L175.3050563,-111.3744554" /></g>
<g stroke="rgb(0, 0, 0)"><path d="M176.7867039,-94.4391455L190.5341907,-95.6418947" /></g>
<g stroke="rgb(0, 0, 0)"><path d="M190.5341907,-95.6418947L191.7369399,-81.8944079" /></g>
<g stroke="rgb(0, 0, 0)"><path d="M191.7369399,-81.8944079L177.9894531,-80.6916587" /></g>
<g stroke="rgb(0, 0, 0)"><path d="M177.9894531,-80.6916587L176.7867039,-94.4391455" /></g>
<g stroke="rgb(0, 0, 0)"><path d="M178.2683515,-77.5038356L192.0158383,-78.7065848" /></g>
<g stroke="rgb(0, 0, 0)"><path d="M192.0158383,-78.7065848L193.2185875,-64.959098" /></g>
<g stroke="rgb(0, 0, 0)"><path d="M193.2185875,-64.959098L179.4711007,-63.7563488" /></g>
<g stroke="rgb(0, 0, 0)"><path d="M179.4711007,-63.7563488L178.2683515,-77.5038356" /></g>
<g stroke="rgb(0, 0, 0)"><path d="M206.7286767,-105.5911973L207.9314259,-91.8437105" /></g>
<g stroke="rgb(0, 0, 0)"><path d="M207.9314259,-91.8437105L194.1839391,-90.6409613" /></g>
<g stroke="rgb(0, 0, 0)"><path d="M194.1839391,-90.6409613L192.9811899,-104.3884481" /></g>
<g stroke="rgb(0, 0, 0)"><path d="M192.9811899,-104.3884481L206.7286767,-105.5911973" /></g>
<g stroke="rgb(0, 0, 0)"><path d="M208.5807362,-84.42206L209.7834854,-70.6745732" /></g>
<g stroke="rgb(0, 0, 0)"><path d="M209.7834854,-70.6745732L196.0359986,-69.471824" /></g>
<g stroke="rgb(0, 0, 0)"><path d="M196.0359986,-69.471824L194.8332494,-83.2193108" /></g>
<g stroke="rgb(0, 0, 0)"><path d="M194.8332494,-83.2193108L208.5807362,-84.42206" /></g>
<g stroke="rgb(0, 0, 0)"><path d="M86.0838091,-135.9146278L83.2146278,-122.4161909" /></g>
<g stroke="rgb(0, 0, 0)"><path d="M83.2146278,-122.4161909L69.7161909,-125.2853722" /></g>
<g stroke="rgb(0, 0, 0)"><path d="M69.7161909,-125.2853722L72.5853722,-138.7838091" /></g>
<g stroke="rgb(0, 0, 0)"><path d="M72.5853722,-138.7838091L86.0838091,-135.9146278" /></g>
<g stroke="rgb(0, 0, 0)"><path d="M102.4272633,-130.2028963L100.2684676,-116.5727972" /></g>
<g stroke="rgb(0, 0, 0)"><path d="M100.2684676,-116.5727972L86.6383685,-118.7315929" /></g>
<g stroke="rgb(0, 0, 0)"><path d="M86.6383685,-118.7315929L88.7971642,-132.361692" /></g>
<g stroke="rgb(0, 0, 0)"><path d="M88.7971642,-132.361692L102.4272633,-130.2028963" /></g>
<g stroke="rgb(0, 0, 0)"><path d="M119.370508,-126.802032L120.0927442,-113.0209444" /></g>
<g stroke="rgb(0, 0, 0)"><path d="M120.0927442,-113.0209444L106.3116566,-112.2987082" /></g>
<g stroke="rgb(0, 0, 0)"><path d="M106.3116566,-112.2987082L105.5894204,-126.0797958" /></g>
<g stroke="rgb(0, 0, 0)"><path d="M105.5894204,-126.0797958L119.370508,-126.802032" /></g>
<g stroke="rgb(0, 0, 0)"><path d="M74.25,-98.1L88.25,-98.1" /></g>
<g stroke="rgb(0, 0, 0)"><path d="M88.25,-98.1L88.25,-62.1" /></g>
<g stroke="rgb(0, 0, 0)"><path d="M74.25,-62.1L88.25,-62.1" /></g>
<g stroke="rgb(0, 0, 0)"><path d="M74.25,-62.1L74.25,-98.1" /></g>
<g stroke="rgb(0, 0, 0)"><path d="M75.25,-100.1L87.25,-100.1" /></g>
<g stroke="rgb(0, 0, 0)"><path d="M87.25,-100.1L87.25,-62.1" /></g>
<g stroke="rgb(0, 0, 0)"><path d="M75.25,-62.1L75.25,-100.1" /></g>
<g stroke="rgb(0, 0, 0)"><path d="M87.66,-98.1L87.66,-95.5" /></g>
<g stroke="rgb(0, 0, 0)"><path d="M74.84,-95.5L74.84,-98.1" /></g>
<g stroke="rgb(0, 0, 0)"><path d="M86.39,-100.1L86.39,-97.5" /></g>
<g stroke="rgb(0, 0, 0)"><path d="M86.39,-97.5L76.11,-97.5" /></g>
<g stroke="rgb(0, 0, 0)"><path d="M76.11,-97.5L76.11,-100.1" /></g>
  </g>
</svg>