<?xml version="1.0"?>
<svg
  xmlns="http://www.w3.org/2000/svg"
  xmlns:xlink="http://www.w3.org/1999/xlink" version="1.1"
  preserveAspectRatio="xMinYMin meet"
  viewBox="68.3837251 48.57499999999999 143.095861 94.87564550000002"
  width="100%" height="100%"
>
  <g stroke="#000000" stroke-width="0.1%" fill="none" transform="matrix(1,0,0,-1,0,0)">
    <g stroke="rgb(0, 0, 0)"><path d="M 209.61122403052127 -62.7217425226919 A 191.5 191.5 0 0 1 92.54774525789497 -53.89560470533689" /></g>
<g stroke="rgb(0, 0, 0)"><path d="M 92.5477452768826 -53.89560470484152 A 3 3 0 0 1 90.2499999 -56.8122532" /></g>
<g stroke="rgb(0, 0, 0)"><path d="M90.25,-59.5L90.25,-56.8127004" /></g>
<g stroke="rgb(0, 0, 0)"><path d="M90.25,-59.5L72.5,-59.5" /></g>
<g stroke="rgb(0, 0, 0)"><path d="M 72.5 -59.5 A 3 3 0 0 1 69.5 -62.5" /></g>
<g stroke="rgb(0, 0, 0)"><path d="M69.5,-97.9293084L69.5,-62.5" /></g>
<g stroke="rgb(0, 0, 0)"><path d="M 69.49999999812988 -97.9293083995892 A 1.5 1.5 0 0 1 69.49834163335775 -97.9950000996175" /></g>
<g stroke="rgb(0, 0, 0)"><path d="M 68.39483226974943 -122.66249674617812 A 298.5 298.5 0 0 1 69.49834166180642 -97.9950000761166" /></g>
<g stroke="rgb(0, 0, 0)"><path d="M 68.39483231832097 -122.66249670245479 A 3 3 0 0 1 68.49978912827329 -123.74679699141817" /></g>
<g stroke="rgb(0, 0, 0)"><path d="M68.49994,-123.7473235L73.5264796,-141.2769497" /></g>
<g stroke="rgb(0, 0, 0)"><path d="M 73.52665374682265 -141.2775576882467 A 3 3 0 0 1 76.96355298646698 -143.39921544095935" /></g>
<g stroke="rgb(0, 0, 0)"><path d="M 76.96355294715315 -143.39921545751602 A 141.5 141.5 0 0 1 121.00896126672863 -127.22120611327678" /></g>
<g stroke="rgb(0, 0, 0)"><path d="M 121.00896130812852 -127.22120607448643 A 3 3 0 0 1 121.11178006374551 -127.15977704407487" /></g>
<g stroke="rgb(0, 0, 0)"><path d="M122.4228066,-126.3405568L121.1121592,-127.15954" /></g>
<g stroke="rgb(0, 0, 0)"><path d="M 122.42318596374552 -126.34031974407486 A 3 3 0 0 1 122.73299588902837 -126.11816650232664" /></g>
<g stroke="rgb(0, 0, 0)"><path d="M 160.53300501317926 -113.63868510308504 A 55.5 55.5 0 0 1 122.73299590297515 -126.11816645695717" /></g>
<g stroke="rgb(0, 0, 0)"><path d="M 160.53331385924912 -113.63869996151713 A 3 3 0 0 1 160.62464930162892 -113.64168628583471" /></g>
<g stroke="rgb(0, 0, 0)"><path d="M204.4104996,-114.405971L160.6246493,-113.6416862" /></g>
<g stroke="rgb(0, 0, 0)"><path d="M 204.41094670162892 -114.4059788858347 A 3 3 0 0 1 207.45188800522754 -111.66790290305745" /></g>
<g stroke="rgb(0, 0, 0)"><path d="M211.4681311,-65.7620352L207.4519155,-111.667588" /></g>
<g stroke="rgb(0, 0, 0)"><path d="M 211.46817020522755 -65.76158960305746 A 3 3 0 0 1 209.6112240743685 -62.72174248730066" /></g>
  </g>
</svg>