<?xml version="1.0"?>
<svg
  xmlns="http://www.w3.org/2000/svg"
  xmlns:xlink="http://www.w3.org/1999/xlink" version="1.1"
  preserveAspectRatio="xMinYMin meet"
  viewBox="52.5 38.5 155.0137315 110"
  width="100%" height="100%"
>
  <g stroke="#000000" stroke-width="0.1%" fill="none" transform="matrix(1,0,0,-1,0,0)">
    <g stroke="rgb(0, 0, 0)"><path d="M52.5,-43.5L57.5,-43.5" /></g>
<g stroke="rgb(0, 0, 0)"><path d="M57.5,-43.5L57.5,-38.5" /></g>
<g stroke="rgb(0, 0, 0)"><path d="M57.5,-38.5L52.5,-38.5" /></g>
<g stroke="rgb(0, 0, 0)"><path d="M52.5,-38.5L52.5,-43.5" /></g>
<g stroke="rgb(0, 0, 0)"><path d="M52.5,-148.5L57.5,-148.5" /></g>
<g stroke="rgb(0, 0, 0)"><path d="M57.5,-148.5L57.5,-143.5" /></g>
<g stroke="rgb(0, 0, 0)"><path d="M57.5,-143.5L52.5,-143.5" /></g>
<g stroke="rgb(0, 0, 0)"><path d="M52.5,-143.5L52.5,-148.5" /></g>
<g stroke="rgb(0, 0, 0)"><path d="M 206.25790901717357 -63.25344246454816 A 190.5 190.5 0 0 1 93.25782483836181 -54.28911906066733" /></g>
<g stroke="rgb(0, 0, 0)"><path d="M 93.25782483268621 -54.28911906362905 A 2 2 0 0 1 91.6999999 -56.239627" /></g>
<g stroke="rgb(0, 0, 0)"><path d="M91.7,-56.575L91.7,-56.2399432" /></g>
<g stroke="rgb(0, 0, 0)"><path d="M 90.7 -57.575 A 1 1 0 0 1 91.7 -56.575" /></g>
<g stroke="rgb(0, 0, 0)"><path d="M90.7,-57.575L74.4,-57.575" /></g>
<g stroke="rgb(0, 0, 0)"><path d="M 74.4 -57.575 A 2 2 0 0 1 72.4 -59.575" /></g>
<g stroke="rgb(0, 0, 0)"><path d="M72.4,-73.2353367L72.4,-59.575" /></g>
<g stroke="rgb(0, 0, 0)"><path d="M 72.4 -73.2353367 A 2 2 0 0 1 72.4006633498802 -73.28684358776961" /></g>
<g stroke="rgb(0, 0, 0)"><path d="M 69.52938208804409 -123.07820764342003 A 299.5 299.5 0 0 1 72.400663355441 -73.28684355650186" /></g>
<g stroke="rgb(0, 0, 0)"><path d="M 69.52938208138201 -123.0782075995431 A 2 2 0 0 1 69.58702147829652 -123.91047190761547" /></g>
<g stroke="rgb(0, 0, 0)"><path d="M74.4892567,-141.0065979L69.5871087,-123.9107759" /></g>
<g stroke="rgb(0, 0, 0)"><path d="M 74.48934377829653 -141.0069018076155 A 2 2 0 0 1 76.78785084169529 -142.4199683875684" /></g>
<g stroke="rgb(0, 0, 0)"><path d="M 76.78785082909368 -142.4199684266787 A 140.5 140.5 0 0 1 117.5509884124887 -127.82531029460657" /></g>
<g stroke="rgb(0, 0, 0)"><path d="M 117.5513091187004 -127.82513563305542 A 2 2 0 0 1 117.66934584613355 -127.75550507287048" /></g>
<g stroke="rgb(0, 0, 0)"><path d="M122.0535831,-124.9624378L117.6693458,-127.7555051" /></g>
<g stroke="rgb(0, 0, 0)"><path d="M 122.05358314613356 -124.96243777287049 A 2 2 0 0 1 122.22329214184316 -124.84144447694871" /></g>
<g stroke="rgb(0, 0, 0)"><path d="M 158.57853783957276 -112.58782006801262 A 56.5 56.5 0 0 1 122.2232921679308 -124.84144445119921" /></g>
<g stroke="rgb(0, 0, 0)"><path d="M 158.57853782265866 -112.5878200480707 A 0.5 0.5 0 0 1 158.76141589601488 -112.5573349896732" /></g>
<g stroke="rgb(0, 0, 0)"><path d="M201.4174948,-113.4508524L158.7614159,-112.557335" /></g>
<g stroke="rgb(0, 0, 0)"><path d="M 201.417494702112 -113.45085246782693 A 2 2 0 0 1 203.45176890348503 -111.6256025020383" /></g>
<g stroke="rgb(0, 0, 0)"><path d="M207.5060933,-65.2844633L203.4517964,-111.6252875" /></g>
<g stroke="rgb(0, 0, 0)"><path d="M 207.50612090348503 -65.2841482020383 A 2 2 0 0 1 206.25824799385873 -63.253578415406864" /></g>
  </g>
</svg>