<?xml version="1.0"?>
<svg
  xmlns="http://www.w3.org/2000/svg"
  xmlns:xlink="http://www.w3.org/1999/xlink" version="1.1"
  preserveAspectRatio="xMinYMin meet"
  viewBox="67.1852794 49.099999999999994 144.61384349999997 93.77770029999999"
  width="100%" height="100%"
>
  <g stroke="#000000" stroke-width="0.1%" fill="none" transform="matrix(1,0,0,-1,0,0)">
    <g stroke="rgb(0, 0, 0)"><path d="M151.9112271,-114.25L205.8661868,-114.25" /></g>
<g stroke="rgb(0, 0, 0)"><path d="M 205.8661868 -114.25 A 2 2 0 0 1 207.85857620348503 -112.4243114020383" /></g>
<g stroke="rgb(0, 0, 0)"><path d="M211.7914732,-67.4710942L207.8586037,-112.4239964" /></g>
<g stroke="rgb(0, 0, 0)"><path d="M 211.791512303485 -67.4706486020383 A 2 2 0 0 1 210.67986893061644 -65.50070738582522" /></g>
<g stroke="rgb(0, 0, 0)"><path d="M 210.6798689569705 -65.50070741247379 A 160.5 160.5 0 0 1 91.39432183291576 -56.6368081860285" /></g>
<g stroke="rgb(0, 0, 0)"><path d="M 91.39397390680917 -56.63691881604776 A 2 2 0 0 1 90.0000001333242 -58.54252650155712" /></g>
<g stroke="rgb(0, 0, 0)"><path d="M90,-60L90,-58.5428916" /></g>
<g stroke="rgb(0, 0, 0)"><path d="M 89 -61 A 1 1 0 0 1 90 -60" /></g>
<g stroke="rgb(0, 0, 0)"><path d="M73.2,-61L89,-61" /></g>
<g stroke="rgb(0, 0, 0)"><path d="M 73.2 -61 A 2 2 0 0 1 71.2 -63" /></g>
<g stroke="rgb(0, 0, 0)"><path d="M71.2,-78.5114035L71.2,-63" /></g>
<g stroke="rgb(0, 0, 0)"><path d="M 71.2 -78.5114035 A 2 2 0 0 1 71.20049627788998 -78.5559553267656" /></g>
<g stroke="rgb(0, 0, 0)"><path d="M 67.22562401053341 -122.86891543160627 A 199.5 199.5 0 0 1 71.20049628047508 -78.55595528013114" /></g>
<g stroke="rgb(0, 0, 0)"><path d="M 67.22562402144828 -122.8689154247458 A 2 2 0 0 1 67.22898420216113 -123.68442719870741" /></g>
<g stroke="rgb(0, 0, 0)"><path d="M70.9719132,-141.2935237L67.2289843,-123.6844272" /></g>
<g stroke="rgb(0, 0, 0)"><path d="M 70.97198916333325 -141.2938809075431 A 2 2 0 0 1 73.09287279902806 -142.87091018249924" /></g>
<g stroke="rgb(0, 0, 0)"><path d="M 73.09323663824007 -142.87088010096838 A 140.5 140.5 0 0 1 143.45340266106786 -116.9722580931208" /></g>
<g stroke="rgb(0, 0, 0)"><path d="M 151.9112271 -114.25 A 14.5 14.5 0 0 1 143.45365511783442 -116.9720767464511" /></g>
  </g>
</svg>