<svg width="157.98mm" height="110mm" viewBox="0 0 157.98 110" xmlns="http://www.w3.org/2000/svg"><g id="svgGroup" stroke-linecap="round" fill-rule="evenodd" font-size="9pt" stroke="#000" stroke-width="0.25mm" fill="none" style="stroke:#000;stroke-width:0.25mm;fill:none"><path d="M 156.734 25.148 A 190.5 190.5 0 0 0 40.282 16.368 A 2 2 0 0 0 38.75 18.312 L 38.75 21 A 1 1 0 0 1 37.75 22 L 21.95 22 A 2 2 0 0 0 19.95 24 L 19.95 37.009 A 2 2 0 0 0 19.95 37.046 A 299.5 299.5 0 0 1 17.029 84.578 A 2 2 0 0 0 17.087 85.41 L 21.988 102.502 A 2 2 0 0 0 24.279 103.916 A 140.5 140.5 0 0 0 68.013 87.853 A 2 2 0 0 0 68.082 87.812 L 69.393 86.992 A 2 2 0 0 0 69.6 86.844 A 56.5 56.5 0 0 1 108.081 74.14 A 2 2 0 0 0 108.142 74.142 L 151.928 74.906 A 2 2 0 0 0 153.956 73.081 L 157.972 27.175 A 2 2 0 0 0 156.734 25.148 Z M 0 5 L 5 5 L 5 0 L 0 0 L 0 5 Z M 0 110 L 5 110 L 5 105 L 0 105 L 0 110 Z" vector-effect="non-scaling-stroke"/></g></svg>