<?xml version="1.0"?>
<svg
  xmlns="http://www.w3.org/2000/svg"
  xmlns:xlink="http://www.w3.org/1999/xlink" version="1.1"
  preserveAspectRatio="xMinYMin meet"
  viewBox="69.5095449 49.57499999999999 140.97004120000003 92.87564550000002"
  width="100%" height="100%"
>
  <g stroke="#000000" stroke-width="0.1%" fill="none" transform="matrix(1,0,0,-1,0,0)">
    <g stroke="rgb(0, 0, 0)"><path d="M 209.23401137239844 -63.647869193591674 A 190.5 190.5 0 0 1 92.78183013905479 -54.8678208687555" /></g>
<g stroke="rgb(0, 0, 0)"><path d="M 92.78183015125506 -54.867820869894345 A 2 2 0 0 1 91.2499999 -56.8122532" /></g>
<g stroke="rgb(0, 0, 0)"><path d="M91.25,-59.5L91.25,-56.8125694" /></g>
<g stroke="rgb(0, 0, 0)"><path d="M 90.25 -60.5 A 1 1 0 0 1 91.25 -59.5" /></g>
<g stroke="rgb(0, 0, 0)"><path d="M90.25,-60.5L74.45,-60.5" /></g>
<g stroke="rgb(0, 0, 0)"><path d="M 74.45 -60.5 A 2 2 0 0 1 72.45 -62.5" /></g>
<g stroke="rgb(0, 0, 0)"><path d="M72.45,-75.5093263L72.45,-62.5" /></g>
<g stroke="rgb(0, 0, 0)"><path d="M 72.45 -75.5093263 A 2 2 0 0 1 72.4503316749367 -75.5457486796386" /></g>
<g stroke="rgb(0, 0, 0)"><path d="M 69.52938208804409 -123.07820764342003 A 299.5 299.5 0 0 1 72.45033167822908 -75.54574864911804" /></g>
<g stroke="rgb(0, 0, 0)"><path d="M 69.5293820862862 -123.07820756498275 A 2 2 0 0 1 69.5870215312151 -123.91047209216447" /></g>
<g stroke="rgb(0, 0, 0)"><path d="M69.5871088,-123.910776L74.4879156,-141.0019203" /></g>
<g stroke="rgb(0, 0, 0)"><path d="M 74.48801631439957 -141.00227129516267 A 2 2 0 0 1 76.77918180127044 -142.41635879204216" /></g>
<g stroke="rgb(0, 0, 0)"><path d="M 76.7794931804177 -142.4163003525772 A 140.5 140.5 0 0 1 120.51331489735246 -126.35268168844796" /></g>
<g stroke="rgb(0, 0, 0)"><path d="M 120.51331493875234 -126.35268164965763 A 2 2 0 0 1 120.58186077583035 -126.31172896271657" /></g>
<g stroke="rgb(0, 0, 0)"><path d="M121.8932666,-125.4922717L120.5818607,-126.311729" /></g>
<g stroke="rgb(0, 0, 0)"><path d="M 121.89326667583036 -125.49227166271658 A 2 2 0 0 1 122.09980662601892 -125.3441695015511" /></g>
<g stroke="rgb(0, 0, 0)"><path d="M 160.58089699539872 -112.6398325824199 A 56.5 56.5 0 0 1 122.09980663996569 -125.34416945618162" /></g>
<g stroke="rgb(0, 0, 0)"><path d="M 160.5812114061661 -112.6398477076781 A 2 2 0 0 1 160.64210170108595 -112.64183859055647" /></g>
<g stroke="rgb(0, 0, 0)"><path d="M204.4283991,-113.4061311L160.6421017,-112.6418385" /></g>
<g stroke="rgb(0, 0, 0)"><path d="M 204.42839910108594 -113.40613119055647 A 2 2 0 0 1 206.45569330348502 -111.5807472020383" /></g>
<g stroke="rgb(0, 0, 0)"><path d="M210.4719364,-65.6748795L206.4557208,-111.5804322" /></g>
<g stroke="rgb(0, 0, 0)"><path d="M 210.47197550348503 -65.6744339020383 A 2 2 0 0 1 209.23401141624566 -63.64786915820044" /></g>
<g stroke="rgb(0, 0, 0)"><path d="M 92.78183016281378 -54.86782091747359 A 0.5 0.5 0 0 1 92.7818301594201 -54.8678209182907" /></g>
<g stroke="rgb(0, 0, 0)"><path d="M 69.52938209657155 -123.07820756624568 A 0.5 0.5 0 0 1 69.5293820953455 -123.07820757488578" /></g>
  </g>
</svg>