0
SECTION
2
HEADER
9
$INSUNITS
70
4
0
ENDSEC
0
SECTION
2
TABLES
0
TABLE
2
LTYPE
0
LTYPE
72
65
70
64
2
CONTINUOUS
3
______
73
0
40
0
0
ENDTAB
0
TABLE
2
LAYER
0
ENDTAB
0
ENDSEC
0
SECTION
2
ENTITIES
0
LINE
8
0
10
52.5
20
-43.5
11
57.5
21
-43.5
0
LINE
8
0
10
57.5
20
-43.5
11
57.5
21
-38.5
0
LINE
8
0
10
57.5
20
-38.5
11
52.5
21
-38.5
0
LINE
8
0
10
52.5
20
-38.5
11
52.5
21
-43.5
0
LINE
8
0
10
52.5
20
-148.5
11
57.5
21
-148.5
0
LINE
8
0
10
57.5
20
-148.5
11
57.5
21
-143.5
0
LINE
8
0
10
57.5
20
-143.5
11
52.5
21
-143.5
0
LINE
8
0
10
52.5
20
-143.5
11
52.5
21
-148.5
0
ARC
8
0
10
137.375
20
-240.075
40
190.5
50
67.8388652
51
103.5376858
0
ARC
8
0
10
93.2499999
20
-56.8122532
40
2
50
103.5376854
51
180
0
LINE
8
0
10
91.25
20
-59.5
11
91.25
21
-56.8125694
0
ARC
8
0
10
90.25
20
-59.5
40
1
50
270
51
360
0
LINE
8
0
10
90.25
20
-60.5
11
74.45
21
-60.5
0
ARC
8
0
10
74.45
20
-62.5
40
2
50
90
51
180
0
LINE
8
0
10
72.45
20
-75.5093263
11
72.45
21
-62.5
0
ARC
8
0
10
74.45
20
-75.5093263
40
2
50
180
51
181.043482
0
ARC
8
0
10
-227
20
-81
40
299.5
50
351.9235179
51
361.043482
0
ARC
8
0
10
71.5095449
20
-123.3591973
40
2
50
171.9235169
51
196.0000024
0
LINE
8
0
10
69.5871088
20
-123.910776
11
74.4879156
21
-141.0019203
0
ARC
8
0
10
76.410439
20
-140.4506455
40
2
50
196.0104634
51
280.6244859
0
ARC
8
0
10
50.875
20
-4.325
40
140.5
50
280.6246151
51
299.7123817
0
ARC
8
0
10
119.5220222
20
-124.6156328
40
2
50
299.7123817
51
302.0000016
0
LINE
8
0
10
121.8932666
20
-125.4922717
11
120.5818607
21
-126.311729
0
ARC
8
0
10
120.8334281
20
-123.7961755
40
2
50
302.0000016
51
309.2858145
0
ARC
8
0
10
157.875
20
-169.075
40
56.5
50
87.2549415
51
129.2858145
0
ARC
8
0
10
160.6770065
20
-110.6421432
40
2
50
267.2546223
51
269.0000004
0
LINE
8
0
10
204.4283991
20
-113.4061311
11
160.6421017
21
-112.6418385
0
ARC
8
0
10
204.4633039
20
-111.4064358
40
2
50
269.0000004
51
355.0000024
0
LINE
8
0
10
210.4719364
20
-65.6748795
11
206.4557208
21
-111.5804322
0
ARC
8
0
10
208.4795861
20
-65.5001225
40
2
50
355.0000024
51
427.8388652
0
ARC
8
0
10
92.8988726
20
-55.353929
40
0.5
50
103.5376854
51
103.5376858
0
ARC
8
0
10
70.0244228
20
-123.148455
40
0.5
50
171.9235169
51
171.9235179
0
ENDSEC
0
EOF