0
SECTION
2
HEADER
9
$INSUNITS
70
4
0
ENDSEC
0
SECTION
2
TABLES
0
TABLE
2
LTYPE
0
LTYPE
72
65
70
64
2
CONTINUOUS
3
______
73
0
40
0
0
ENDTAB
0
TABLE
2
LAYER
0
ENDTAB
0
ENDSEC
0
SECTION
2
ENTITIES
0
LINE
8
0
10
52.5
20
-43.5
11
57.5
21
-43.5
0
LINE
8
0
10
57.5
20
-43.5
11
57.5
21
-38.5
0
LINE
8
0
10
57.5
20
-38.5
11
52.5
21
-38.5
0
LINE
8
0
10
52.5
20
-38.5
11
52.5
21
-43.5
0
LINE
8
0
10
52.5
20
-148.5
11
57.5
21
-148.5
0
LINE
8
0
10
57.5
20
-148.5
11
57.5
21
-143.5
0
LINE
8
0
10
57.5
20
-143.5
11
52.5
21
-143.5
0
LINE
8
0
10
52.5
20
-143.5
11
52.5
21
-148.5
0
ARC
8
0
10
135.375
20
-240.075
40
190.5
50
68.1555056
51
102.7729171
0
ARC
8
0
10
93.6999999
20
-56.239627
40
2
50
102.7729171
51
180
0
LINE
8
0
10
91.7
20
-56.575
11
91.7
21
-56.2399432
0
ARC
8
0
10
90.7
20
-56.575
40
1
50
270
51
360
0
LINE
8
0
10
90.7
20
-57.575
11
74.4
21
-57.575
0
ARC
8
0
10
74.4
20
-59.575
40
2
50
90
51
180
0
LINE
8
0
10
72.4
20
-73.2353367
11
72.4
21
-59.575
0
ARC
8
0
10
74.4
20
-73.2353367
40
2
50
180
51
181.4757268
0
ARC
8
0
10
-227
20
-81
40
299.5
50
351.9235179
51
361.4757268
0
ARC
8
0
10
71.5095449
20
-123.3591973
40
2
50
171.9235179
51
195.9999969
0
LINE
8
0
10
74.4892567
20
-141.0065979
11
69.5871087
21
-123.9107759
0
ARC
8
0
10
76.4118672
20
-140.4556272
40
2
50
195.9999969
51
280.8356123
0
ARC
8
0
10
50.375
20
-4.425
40
140.5
50
280.8356123
51
298.5627477
0
ARC
8
0
10
116.5947466
20
-126.0687222
40
2
50
298.5732084
51
302.500001
0
LINE
8
0
10
122.0535831
20
-124.9624378
11
117.6693458
21
-127.7555051
0
ARC
8
0
10
120.9789839
20
-123.2756549
40
2
50
302.500001
51
308.473611
0
ARC
8
0
10
157.375
20
-169.075
40
56.5
50
88.7794185
51
128.473611
0
ARC
8
0
10
158.5891886
20
-112.0879335
40
0.5
50
268.7794185
51
290.1485056
0
LINE
8
0
10
201.4174948
20
-113.4508524
11
158.7614159
21
-112.557335
0
ARC
8
0
10
201.4593795
20
-111.4512911
40
2
50
268.8000012
51
355.0000024
0
LINE
8
0
10
207.5060933
20
-65.2844633
11
203.4517964
21
-111.6252875
0
ARC
8
0
10
205.5137315
20
-65.1098368
40
2
50
355.0000024
51
428.1450432
0
ENDSEC
0
EOF