0
SECTION
2
HEADER
9
$INSUNITS
70
4
0
ENDSEC
0
SECTION
2
TABLES
0
TABLE
2
LTYPE
0
LTYPE
72
65
70
64
2
CONTINUOUS
3
______
73
0
40
0
0
ENDTAB
0
TABLE
2
LAYER
0
ENDTAB
0
ENDSEC
0
SECTION
2
ENTITIES
0
LINE
8
0
10
52.5
20
-38.5
11
57.5
21
-38.5
0
LINE
8
0
10
57.5
20
-38.5
11
57.5
21
-33.5
0
LINE
8
0
10
57.5
20
-33.5
11
52.5
21
-33.5
0
LINE
8
0
10
52.5
20
-33.5
11
52.5
21
-38.5
0
LINE
8
0
10
52.5
20
-157.5
11
57.5
21
-157.5
0
LINE
8
0
10
57.5
20
-157.5
11
57.5
21
-152.5
0
LINE
8
0
10
57.5
20
-152.5
11
52.5
21
-152.5
0
LINE
8
0
10
52.5
20
-152.5
11
52.5
21
-157.5
0
LINE
8
0
10
95
20
-102
11
98.4
21
-102
0
LINE
8
0
10
101.6
20
-102
11
105
21
-102
0
LINE
8
0
10
105
20
-102
11
105
21
-98
0
LINE
8
0
10
105
20
-98
11
95
21
-98
0
LINE
8
0
10
95
20
-98
11
95
21
-102
0
LINE
8
0
10
95
20
-85
11
98.4
21
-85
0
LINE
8
0
10
101.6
20
-85
11
105
21
-85
0
LINE
8
0
10
105
20
-85
11
105
21
-81
0
LINE
8
0
10
105
20
-81
11
95
21
-81
0
LINE
8
0
10
95
20
-81
11
95
21
-85
0
LINE
8
0
10
95
20
-68
11
98.4
21
-68
0
LINE
8
0
10
101.6
20
-68
11
105
21
-68
0
LINE
8
0
10
105
20
-68
11
105
21
-64
0
LINE
8
0
10
105
20
-64
11
95
21
-64
0
LINE
8
0
10
95
20
-64
11
95
21
-68
0
LINE
8
0
10
112
20
-102
11
115.4
21
-102
0
LINE
8
0
10
118.6
20
-102
11
122
21
-102
0
LINE
8
0
10
122
20
-102
11
122
21
-98
0
LINE
8
0
10
122
20
-98
11
112
21
-98
0
LINE
8
0
10
112
20
-98
11
112
21
-102
0
LINE
8
0
10
112
20
-85
11
115.4
21
-85
0
LINE
8
0
10
118.6
20
-85
11
122
21
-85
0
LINE
8
0
10
122
20
-85
11
122
21
-81
0
LINE
8
0
10
122
20
-81
11
112
21
-81
0
LINE
8
0
10
112
20
-81
11
112
21
-85
0
LINE
8
0
10
112
20
-68
11
115.4
21
-68
0
LINE
8
0
10
118.6
20
-68
11
122
21
-68
0
LINE
8
0
10
122
20
-68
11
122
21
-64
0
LINE
8
0
10
122
20
-64
11
112
21
-64
0
LINE
8
0
10
112
20
-64
11
112
21
-68
0
LINE
8
0
10
133
20
-94.35
11
136.4
21
-94.35
0
LINE
8
0
10
139.6
20
-94.35
11
143
21
-94.35
0
LINE
8
0
10
143
20
-94.35
11
143
21
-90.35
0
LINE
8
0
10
143
20
-90.35
11
133
21
-90.35
0
LINE
8
0
10
133
20
-90.35
11
133
21
-94.35
0
LINE
8
0
10
133
20
-77.35
11
136.4
21
-77.35
0
LINE
8
0
10
139.6
20
-77.35
11
143
21
-77.35
0
LINE
8
0
10
143
20
-77.35
11
143
21
-73.35
0
LINE
8
0
10
143
20
-73.35
11
133
21
-73.35
0
LINE
8
0
10
133
20
-73.35
11
133
21
-77.35
0
LINE
8
0
10
133
20
-60.35
11
136.4
21
-60.35
0
LINE
8
0
10
139.6
20
-60.35
11
143
21
-60.35
0
LINE
8
0
10
143
20
-60.35
11
143
21
-56.35
0
LINE
8
0
10
143
20
-56.35
11
133
21
-56.35
0
LINE
8
0
10
133
20
-56.35
11
133
21
-60.35
0
LINE
8
0
10
156.2801948
20
-96.2088544
11
159.6769588
21
-96.3571603
0
LINE
8
0
10
162.8739131
20
-96.4967424
11
166.270677
21
-96.6450483
0
LINE
8
0
10
166.270677
20
-96.6450483
11
166.4451546
21
-92.6488554
0
LINE
8
0
10
166.4451546
20
-92.6488554
11
156.4546724
21
-92.2126615
0
LINE
8
0
10
156.4546724
20
-92.2126615
11
156.2801948
21
-96.2088544
0
LINE
8
0
10
157.0217244
20
-79.2250346
11
160.4184884
21
-79.3733405
0
LINE
8
0
10
163.6154427
20
-79.5129226
11
167.0122066
21
-79.6612285
0
LINE
8
0
10
167.0122066
20
-79.6612285
11
167.1866842
21
-75.6650356
0
LINE
8
0
10
167.1866842
20
-75.6650356
11
157.196202
21
-75.2288417
0
LINE
8
0
10
157.196202
20
-75.2288417
11
157.0217244
21
-79.2250346
0
LINE
8
0
10
157.763254
20
-62.2412148
11
161.160018
21
-62.3895207
0
LINE
8
0
10
164.3569723
20
-62.5291028
11
167.7537362
21
-62.6774087
0
LINE
8
0
10
167.7537362
20
-62.6774087
11
167.9282138
21
-58.6812158
0
LINE
8
0
10
167.9282138
20
-58.6812158
11
157.9377316
21
-58.2450219
0
LINE
8
0
10
157.9377316
20
-58.2450219
11
157.763254
21
-62.2412148
0
LINE
8
0
10
177.2790852
20
-106.2643833
11
180.6661472
21
-106.5607128
0
LINE
8
0
10
183.8539702
20
-106.8396112
11
187.2410322
21
-107.1359407
0
LINE
8
0
10
187.2410322
20
-107.1359407
11
187.5896552
21
-103.1511619
0
LINE
8
0
10
187.5896552
20
-103.1511619
11
177.6277082
21
-102.2796045
0
LINE
8
0
10
177.6277082
20
-102.2796045
11
177.2790852
21
-106.2643833
0
LINE
8
0
10
178.7607328
20
-89.3290734
11
182.1477948
21
-89.6254029
0
LINE
8
0
10
185.3356178
20
-89.9043013
11
188.7226798
21
-90.2006308
0
LINE
8
0
10
188.7226798
20
-90.2006308
11
189.0713028
21
-86.215852
0
LINE
8
0
10
189.0713028
20
-86.215852
11
179.1093558
21
-85.3442946
0
LINE
8
0
10
179.1093558
20
-85.3442946
11
178.7607328
21
-89.3290734
0
LINE
8
0
10
180.2423804
20
-72.3937635
11
183.6294424
21
-72.690093
0
LINE
8
0
10
186.8172654
20
-72.9689914
11
190.2043274
21
-73.2653209
0
LINE
8
0
10
190.2043274
20
-73.2653209
11
190.5529504
21
-69.2805421
0
LINE
8
0
10
190.5529504
20
-69.2805421
11
180.5910034
21
-68.4089847
0
LINE
8
0
10
180.5910034
20
-68.4089847
11
180.2423804
21
-72.3937635
0
LINE
8
0
10
198.5538931
20
-92.5664803
11
198.2575636
21
-95.9535423
0
LINE
8
0
10
197.9786652
20
-99.1413653
11
197.6823357
21
-102.5284273
0
LINE
8
0
10
197.6823357
20
-102.5284273
11
201.6671145
21
-102.8770503
0
LINE
8
0
10
201.6671145
20
-102.8770503
11
202.5386719
21
-92.9151033
0
LINE
8
0
10
202.5386719
20
-92.9151033
11
198.5538931
21
-92.5664803
0
LINE
8
0
10
200.4059526
20
-71.397343
11
200.1096231
21
-74.784405
0
LINE
8
0
10
199.8307247
20
-77.972228
11
199.5343952
21
-81.35929
0
LINE
8
0
10
199.5343952
20
-81.35929
11
203.519174
21
-81.707913
0
LINE
8
0
10
203.519174
20
-81.707913
11
204.3907314
21
-71.745966
0
LINE
8
0
10
204.3907314
20
-71.745966
11
200.4059526
21
-71.397343
0
LINE
8
0
10
74.9041463
20
-126.1250854
11
75.6110461
21
-129.4507872
0
LINE
8
0
10
76.2763635
20
-132.5808595
11
76.9832633
21
-135.9065614
0
LINE
8
0
10
76.9832633
20
-135.9065614
11
80.8958537
21
-135.0749146
0
LINE
8
0
10
80.8958537
20
-135.0749146
11
78.8167367
21
-125.2934386
0
LINE
8
0
10
78.8167367
20
-125.2934386
11
74.9041463
21
-126.1250854
0
LINE
8
0
10
91.6658778
20
-119.8619458
11
92.197755
21
-123.2200862
0
LINE
8
0
10
92.6983453
20
-126.3806889
11
93.2302224
21
-129.7388292
0
LINE
8
0
10
93.2302224
20
-129.7388292
11
97.1809758
21
-129.1130914
0
LINE
8
0
10
97.1809758
20
-129.1130914
11
95.6166312
21
-119.236208
0
LINE
8
0
10
95.6166312
20
-119.236208
11
91.6658778
21
-119.8619458
0
LINE
8
0
10
110.8021341
20
-114.5091584
11
110.6241918
21
-117.9044989
0
LINE
8
0
10
110.4567168
20
-121.1001134
11
110.2787745
21
-124.4954538
0
LINE
8
0
10
110.2787745
20
-124.4954538
11
114.2732927
21
-124.7047976
0
LINE
8
0
10
114.2732927
20
-124.7047976
11
114.7966523
21
-114.7185022
0
LINE
8
0
10
114.7966523
20
-114.7185022
11
110.8021341
21
-114.5091584
0
LINE
8
0
10
98.4
20
-103.2
11
101.6
21
-103.2
0
LINE
8
0
10
101.6
20
-103.2
11
101.6
21
-102
0
LINE
8
0
10
98.4
20
-102
11
98.4
21
-103.2
0
LINE
8
0
10
98.4
20
-86.2
11
101.6
21
-86.2
0
LINE
8
0
10
101.6
20
-86.2
11
101.6
21
-85
0
LINE
8
0
10
98.4
20
-85
11
98.4
21
-86.2
0
LINE
8
0
10
98.4
20
-69.2
11
101.6
21
-69.2
0
LINE
8
0
10
101.6
20
-69.2
11
101.6
21
-68
0
LINE
8
0
10
98.4
20
-68
11
98.4
21
-69.2
0
LINE
8
0
10
115.4
20
-103.2
11
118.6
21
-103.2
0
LINE
8
0
10
118.6
20
-103.2
11
118.6
21
-102
0
LINE
8
0
10
115.4
20
-102
11
115.4
21
-103.2
0
LINE
8
0
10
115.4
20
-86.2
11
118.6
21
-86.2
0
LINE
8
0
10
118.6
20
-86.2
11
118.6
21
-85
0
LINE
8
0
10
115.4
20
-85
11
115.4
21
-86.2
0
LINE
8
0
10
115.4
20
-69.2
11
118.6
21
-69.2
0
LINE
8
0
10
118.6
20
-69.2
11
118.6
21
-68
0
LINE
8
0
10
115.4
20
-68
11
115.4
21
-69.2
0
LINE
8
0
10
136.4
20
-95.55
11
139.6
21
-95.55
0
LINE
8
0
10
139.6
20
-95.55
11
139.6
21
-94.35
0
LINE
8
0
10
136.4
20
-94.35
11
136.4
21
-95.55
0
LINE
8
0
10
136.4
20
-78.55
11
139.6
21
-78.55
0
LINE
8
0
10
139.6
20
-78.55
11
139.6
21
-77.35
0
LINE
8
0
10
136.4
20
-77.35
11
136.4
21
-78.55
0
LINE
8
0
10
136.4
20
-61.55
11
139.6
21
-61.55
0
LINE
8
0
10
139.6
20
-61.55
11
139.6
21
-60.35
0
LINE
8
0
10
136.4
20
-60.35
11
136.4
21
-61.55
0
LINE
8
0
10
159.6246155
20
-97.5560182
11
162.8215698
21
-97.6956003
0
LINE
8
0
10
162.8215698
20
-97.6956003
11
162.8739131
21
-96.4967424
0
LINE
8
0
10
159.6769588
20
-96.3571603
11
159.6246155
21
-97.5560182
0
LINE
8
0
10
160.3661451
20
-80.5721984
11
163.5630994
21
-80.7117805
0
LINE
8
0
10
163.5630994
20
-80.7117805
11
163.6154427
21
-79.5129226
0
LINE
8
0
10
160.4184884
20
-79.3733405
11
160.3661451
21
-80.5721984
0
LINE
8
0
10
161.1076747
20
-63.5883786
11
164.304629
21
-63.7279607
0
LINE
8
0
10
164.304629
20
-63.7279607
11
164.3569723
21
-62.5291028
0
LINE
8
0
10
161.160018
20
-62.3895207
11
161.1076747
21
-63.5883786
0
LINE
8
0
10
180.5615603
20
-107.7561464
11
183.7493833
21
-108.0350448
0
LINE
8
0
10
183.7493833
20
-108.0350448
11
183.8539702
21
-106.8396112
0
LINE
8
0
10
180.6661472
20
-106.5607128
11
180.5615603
21
-107.7561464
0
LINE
8
0
10
182.0432079
20
-90.8208365
11
185.2310309
21
-91.0997349
0
LINE
8
0
10
185.2310309
20
-91.0997349
11
185.3356178
21
-89.9043013
0
LINE
8
0
10
182.1477948
20
-89.6254029
11
182.0432079
21
-90.8208365
0
LINE
8
0
10
183.5248555
20
-73.8855266
11
186.7126785
21
-74.164425
0
LINE
8
0
10
186.7126785
20
-74.164425
11
186.8172654
21
-72.9689914
0
LINE
8
0
10
183.6294424
20
-72.690093
11
183.5248555
21
-73.8855266
0
LINE
8
0
10
197.06213
20
-95.8489554
11
196.7832316
21
-99.0367784
0
LINE
8
0
10
196.7832316
20
-99.0367784
11
197.9786652
21
-99.1413653
0
LINE
8
0
10
198.2575636
20
-95.9535423
11
197.06213
21
-95.8489554
0
LINE
8
0
10
198.9141895
20
-74.6798181
11
198.6352911
21
-77.8676411
0
LINE
8
0
10
198.6352911
20
-77.8676411
11
199.8307247
21
-77.972228
0
LINE
8
0
10
200.1096231
20
-74.784405
11
198.9141895
21
-74.6798181
0
LINE
8
0
10
74.437269
20
-129.7002812
11
75.1025864
21
-132.8303535
0
LINE
8
0
10
75.1025864
20
-132.8303535
11
76.2763635
21
-132.5808595
0
LINE
8
0
10
75.6110461
20
-129.4507872
11
74.437269
21
-129.7002812
0
LINE
8
0
10
91.012529
20
-123.4078076
11
91.5131193
21
-126.5684103
0
LINE
8
0
10
91.5131193
20
-126.5684103
11
92.6983453
21
-126.3806889
0
LINE
8
0
10
92.197755
20
-123.2200862
11
91.012529
21
-123.4078076
0
LINE
8
0
10
109.4258365
20
-117.8416957
11
109.2583614
21
-121.0373102
0
LINE
8
0
10
109.2583614
20
-121.0373102
11
110.4567168
21
-121.1001134
0
LINE
8
0
10
110.6241918
20
-117.9044989
11
109.4258365
21
-117.8416957
0
CIRCLE
8
0
10
100
20
-100
40
1.6
0
CIRCLE
8
0
10
100
20
-83
40
1.6
0
CIRCLE
8
0
10
100
20
-66
40
1.6
0
CIRCLE
8
0
10
117
20
-100
40
1.6
0
CIRCLE
8
0
10
117
20
-83
40
1.6
0
CIRCLE
8
0
10
117
20
-66
40
1.6
0
CIRCLE
8
0
10
138
20
-92.35
40
1.6
0
CIRCLE
8
0
10
138
20
-75.35
40
1.6
0
CIRCLE
8
0
10
138
20
-58.35
40
1.6
0
CIRCLE
8
0
10
161.3626747
20
-94.4288549
40
1.6
0
CIRCLE
8
0
10
162.1042043
20
-77.4450351
40
1.6
0
CIRCLE
8
0
10
162.8457339
20
-60.4612153
40
1.6
0
CIRCLE
8
0
10
182.4343702
20
-104.7077726
40
1.6
0
CIRCLE
8
0
10
183.9160178
20
-87.7724627
40
1.6
0
CIRCLE
8
0
10
185.3976654
20
-70.8371528
40
1.6
0
CIRCLE
8
0
10
200.1105038
20
-97.7217653
40
1.6
0
CIRCLE
8
0
10
201.9625633
20
-76.552628
40
1.6
0
CIRCLE
8
0
10
77.9
20
-130.6
40
1.6
0
CIRCLE
8
0
10
94.4234268
20
-124.4875186
40
1.6
0
CIRCLE
8
0
10
112.5377134
20
-119.606978
40
1.6
0
LINE
8
0
10
96.55
20
-101.5
11
97.75
21
-101.5
0
LINE
8
0
10
97.75
20
-101.5
11
97.75
21
-98.5
0
LINE
8
0
10
97.75
20
-98.5
11
96.55
21
-98.5
0
LINE
8
0
10
96.55
20
-98.5
11
96.55
21
-101.5
0
LINE
8
0
10
96.55
20
-84.5
11
97.75
21
-84.5
0
LINE
8
0
10
97.75
20
-84.5
11
97.75
21
-81.5
0
LINE
8
0
10
97.75
20
-81.5
11
96.55
21
-81.5
0
LINE
8
0
10
96.55
20
-81.5
11
96.55
21
-84.5
0
LINE
8
0
10
96.55
20
-67.5
11
97.75
21
-67.5
0
LINE
8
0
10
97.75
20
-67.5
11
97.75
21
-64.5
0
LINE
8
0
10
97.75
20
-64.5
11
96.55
21
-64.5
0
LINE
8
0
10
96.55
20
-64.5
11
96.55
21
-67.5
0
LINE
8
0
10
113.55
20
-101.5
11
114.75
21
-101.5
0
LINE
8
0
10
114.75
20
-101.5
11
114.75
21
-98.5
0
LINE
8
0
10
114.75
20
-98.5
11
113.55
21
-98.5
0
LINE
8
0
10
113.55
20
-98.5
11
113.55
21
-101.5
0
LINE
8
0
10
113.55
20
-84.5
11
114.75
21
-84.5
0
LINE
8
0
10
114.75
20
-84.5
11
114.75
21
-81.5
0
LINE
8
0
10
114.75
20
-81.5
11
113.55
21
-81.5
0
LINE
8
0
10
113.55
20
-81.5
11
113.55
21
-84.5
0
LINE
8
0
10
113.55
20
-67.5
11
114.75
21
-67.5
0
LINE
8
0
10
114.75
20
-67.5
11
114.75
21
-64.5
0
LINE
8
0
10
114.75
20
-64.5
11
113.55
21
-64.5
0
LINE
8
0
10
113.55
20
-64.5
11
113.55
21
-67.5
0
LINE
8
0
10
134.55
20
-93.85
11
135.75
21
-93.85
0
LINE
8
0
10
135.75
20
-93.85
11
135.75
21
-90.85
0
LINE
8
0
10
135.75
20
-90.85
11
134.55
21
-90.85
0
LINE
8
0
10
134.55
20
-90.85
11
134.55
21
-93.85
0
LINE
8
0
10
134.55
20
-76.85
11
135.75
21
-76.85
0
LINE
8
0
10
135.75
20
-76.85
11
135.75
21
-73.85
0
LINE
8
0
10
135.75
20
-73.85
11
134.55
21
-73.85
0
LINE
8
0
10
134.55
20
-73.85
11
134.55
21
-76.85
0
LINE
8
0
10
134.55
20
-59.85
11
135.75
21
-59.85
0
LINE
8
0
10
135.75
20
-59.85
11
135.75
21
-56.85
0
LINE
8
0
10
135.75
20
-56.85
11
134.55
21
-56.85
0
LINE
8
0
10
134.55
20
-56.85
11
134.55
21
-59.85
0
LINE
8
0
10
157.8505293
20
-95.7769403
11
159.0493872
21
-95.8292836
0
LINE
8
0
10
159.0493872
20
-95.8292836
11
159.1802453
21
-92.8321389
0
LINE
8
0
10
159.1802453
20
-92.8321389
11
157.9813874
21
-92.7797956
0
LINE
8
0
10
157.9813874
20
-92.7797956
11
157.8505293
21
-95.7769403
0
LINE
8
0
10
158.5920589
20
-78.7931205
11
159.7909168
21
-78.8454638
0
LINE
8
0
10
159.7909168
20
-78.8454638
11
159.9217749
21
-75.8483191
0
LINE
8
0
10
159.9217749
20
-75.8483191
11
158.722917
21
-75.7959758
0
LINE
8
0
10
158.722917
20
-75.7959758
11
158.5920589
21
-78.7931205
0
LINE
8
0
10
159.3335885
20
-61.8093007
11
160.5324464
21
-61.861644
0
LINE
8
0
10
160.5324464
20
-61.861644
11
160.6633045
21
-58.8644993
0
LINE
8
0
10
160.6633045
20
-58.8644993
11
159.4644466
21
-58.812156
0
LINE
8
0
10
159.4644466
20
-58.812156
11
159.3335885
21
-61.8093007
0
LINE
8
0
10
178.8667649
20
-105.9013773
11
180.0621985
21
-106.0059642
0
LINE
8
0
10
180.0621985
20
-106.0059642
11
180.3236657
21
-103.0173801
0
LINE
8
0
10
180.3236657
20
-103.0173801
11
179.1282321
21
-102.9127932
0
LINE
8
0
10
179.1282321
20
-102.9127932
11
178.8667649
21
-105.9013773
0
LINE
8
0
10
180.3484125
20
-88.9660674
11
181.5438461
21
-89.0706543
0
LINE
8
0
10
181.5438461
20
-89.0706543
11
181.8053133
21
-86.0820702
0
LINE
8
0
10
181.8053133
20
-86.0820702
11
180.6098797
21
-85.9774833
0
LINE
8
0
10
180.6098797
20
-85.9774833
11
180.3484125
21
-88.9660674
0
LINE
8
0
10
181.8300601
20
-72.0307575
11
183.0254937
21
-72.1353444
0
LINE
8
0
10
183.0254937
20
-72.1353444
11
183.2869609
21
-69.1467603
0
LINE
8
0
10
183.2869609
20
-69.1467603
11
182.0915273
21
-69.0421734
0
LINE
8
0
10
182.0915273
20
-69.0421734
11
181.8300601
21
-72.0307575
0
LINE
8
0
10
198.9168991
20
-94.15416
11
198.8123122
21
-95.3495936
0
LINE
8
0
10
198.8123122
20
-95.3495936
11
201.8008963
21
-95.6110608
0
LINE
8
0
10
201.8008963
20
-95.6110608
11
201.9054832
21
-94.4156272
0
LINE
8
0
10
201.9054832
20
-94.4156272
11
198.9168991
21
-94.15416
0
LINE
8
0
10
200.7689586
20
-72.9850227
11
200.6643717
21
-74.1804563
0
LINE
8
0
10
200.6643717
20
-74.1804563
11
203.6529558
21
-74.4419235
0
LINE
8
0
10
203.6529558
20
-74.4419235
11
203.7575427
21
-73.2464899
0
LINE
8
0
10
203.7575427
20
-73.2464899
11
200.7689586
21
-72.9850227
0
LINE
8
0
10
75.7154833
20
-127.5372583
11
75.9649773
21
-128.7110354
0
LINE
8
0
10
75.9649773
20
-128.7110354
11
78.8994201
21
-128.0873003
0
LINE
8
0
10
78.8994201
20
-128.0873003
11
78.6499261
21
-126.9135232
0
LINE
8
0
10
78.6499261
20
-126.9135232
11
75.7154833
21
-127.5372583
0
LINE
8
0
10
92.4021954
20
-121.3146455
11
92.5899168
21
-122.4998715
0
LINE
8
0
10
92.5899168
20
-122.4998715
11
95.5529818
21
-122.0305681
0
LINE
8
0
10
95.5529818
20
-122.0305681
11
95.3652604
21
-120.8453421
0
LINE
8
0
10
95.3652604
20
-120.8453421
11
92.4021954
21
-121.3146455
0
LINE
8
0
10
111.2203282
20
-116.0832021
11
111.157525
21
-117.2815576
0
LINE
8
0
10
111.157525
20
-117.2815576
11
114.1534136
21
-117.4385655
0
LINE
8
0
10
114.1534136
20
-117.4385655
11
114.2162168
21
-116.24021
0
LINE
8
0
10
114.2162168
20
-116.24021
11
111.2203282
21
-116.0832021
0
LINE
8
0
10
102.25
20
-101.5
11
103.45
21
-101.5
0
LINE
8
0
10
103.45
20
-101.5
11
103.45
21
-98.5
0
LINE
8
0
10
103.45
20
-98.5
11
102.25
21
-98.5
0
LINE
8
0
10
102.25
20
-98.5
11
102.25
21
-101.5
0
LINE
8
0
10
102.25
20
-84.5
11
103.45
21
-84.5
0
LINE
8
0
10
103.45
20
-84.5
11
103.45
21
-81.5
0
LINE
8
0
10
103.45
20
-81.5
11
102.25
21
-81.5
0
LINE
8
0
10
102.25
20
-81.5
11
102.25
21
-84.5
0
LINE
8
0
10
102.25
20
-67.5
11
103.45
21
-67.5
0
LINE
8
0
10
103.45
20
-67.5
11
103.45
21
-64.5
0
LINE
8
0
10
103.45
20
-64.5
11
102.25
21
-64.5
0
LINE
8
0
10
102.25
20
-64.5
11
102.25
21
-67.5
0
LINE
8
0
10
119.25
20
-101.5
11
120.45
21
-101.5
0
LINE
8
0
10
120.45
20
-101.5
11
120.45
21
-98.5
0
LINE
8
0
10
120.45
20
-98.5
11
119.25
21
-98.5
0
LINE
8
0
10
119.25
20
-98.5
11
119.25
21
-101.5
0
LINE
8
0
10
119.25
20
-84.5
11
120.45
21
-84.5
0
LINE
8
0
10
120.45
20
-84.5
11
120.45
21
-81.5
0
LINE
8
0
10
120.45
20
-81.5
11
119.25
21
-81.5
0
LINE
8
0
10
119.25
20
-81.5
11
119.25
21
-84.5
0
LINE
8
0
10
119.25
20
-67.5
11
120.45
21
-67.5
0
LINE
8
0
10
120.45
20
-67.5
11
120.45
21
-64.5
0
LINE
8
0
10
120.45
20
-64.5
11
119.25
21
-64.5
0
LINE
8
0
10
119.25
20
-64.5
11
119.25
21
-67.5
0
LINE
8
0
10
140.25
20
-93.85
11
141.45
21
-93.85
0
LINE
8
0
10
141.45
20
-93.85
11
141.45
21
-90.85
0
LINE
8
0
10
141.45
20
-90.85
11
140.25
21
-90.85
0
LINE
8
0
10
140.25
20
-90.85
11
140.25
21
-93.85
0
LINE
8
0
10
140.25
20
-76.85
11
141.45
21
-76.85
0
LINE
8
0
10
141.45
20
-76.85
11
141.45
21
-73.85
0
LINE
8
0
10
141.45
20
-73.85
11
140.25
21
-73.85
0
LINE
8
0
10
140.25
20
-73.85
11
140.25
21
-76.85
0
LINE
8
0
10
140.25
20
-59.85
11
141.45
21
-59.85
0
LINE
8
0
10
141.45
20
-59.85
11
141.45
21
-56.85
0
LINE
8
0
10
141.45
20
-56.85
11
140.25
21
-56.85
0
LINE
8
0
10
140.25
20
-56.85
11
140.25
21
-59.85
0
LINE
8
0
10
163.5451041
20
-96.0255709
11
164.743962
21
-96.0779142
0
LINE
8
0
10
164.743962
20
-96.0779142
11
164.8748201
21
-93.0807695
0
LINE
8
0
10
164.8748201
20
-93.0807695
11
163.6759622
21
-93.0284262
0
LINE
8
0
10
163.6759622
20
-93.0284262
11
163.5451041
21
-96.0255709
0
LINE
8
0
10
164.2866337
20
-79.0417511
11
165.4854916
21
-79.0940944
0
LINE
8
0
10
165.4854916
20
-79.0940944
11
165.6163497
21
-76.0969497
0
LINE
8
0
10
165.6163497
20
-76.0969497
11
164.4174918
21
-76.0446064
0
LINE
8
0
10
164.4174918
20
-76.0446064
11
164.2866337
21
-79.0417511
0
LINE
8
0
10
165.0281633
20
-62.0579313
11
166.2270212
21
-62.1102746
0
LINE
8
0
10
166.2270212
20
-62.1102746
11
166.3578793
21
-59.1131299
0
LINE
8
0
10
166.3578793
20
-59.1131299
11
165.1590214
21
-59.0607866
0
LINE
8
0
10
165.1590214
20
-59.0607866
11
165.0281633
21
-62.0579313
0
LINE
8
0
10
184.5450747
20
-106.3981651
11
185.7405083
21
-106.502752
0
LINE
8
0
10
185.7405083
20
-106.502752
11
186.0019755
21
-103.5141679
0
LINE
8
0
10
186.0019755
20
-103.5141679
11
184.8065419
21
-103.409581
0
LINE
8
0
10
184.8065419
20
-103.409581
11
184.5450747
21
-106.3981651
0
LINE
8
0
10
186.0267223
20
-89.4628552
11
187.2221559
21
-89.5674421
0
LINE
8
0
10
187.2221559
20
-89.5674421
11
187.4836231
21
-86.578858
0
LINE
8
0
10
187.4836231
20
-86.578858
11
186.2881895
21
-86.4742711
0
LINE
8
0
10
186.2881895
20
-86.4742711
11
186.0267223
21
-89.4628552
0
LINE
8
0
10
187.5083699
20
-72.5275453
11
188.7038035
21
-72.6321322
0
LINE
8
0
10
188.7038035
20
-72.6321322
11
188.9652707
21
-69.6435481
0
LINE
8
0
10
188.9652707
20
-69.6435481
11
187.7698371
21
-69.5389612
0
LINE
8
0
10
187.7698371
20
-69.5389612
11
187.5083699
21
-72.5275453
0
LINE
8
0
10
198.4201113
20
-99.8324698
11
198.3155244
21
-101.0279034
0
LINE
8
0
10
198.3155244
20
-101.0279034
11
201.3041085
21
-101.2893706
0
LINE
8
0
10
201.3041085
20
-101.2893706
11
201.4086954
21
-100.093937
0
LINE
8
0
10
201.4086954
20
-100.093937
11
198.4201113
21
-99.8324698
0
LINE
8
0
10
200.2721708
20
-78.6633325
11
200.1675839
21
-79.8587661
0
LINE
8
0
10
200.1675839
20
-79.8587661
11
203.156168
21
-80.1202333
0
LINE
8
0
10
203.156168
20
-80.1202333
11
203.2607549
21
-78.9247997
0
LINE
8
0
10
203.2607549
20
-78.9247997
11
200.2721708
21
-78.6633325
0
LINE
8
0
10
76.9005799
20
-133.1126997
11
77.1500739
21
-134.2864768
0
LINE
8
0
10
77.1500739
20
-134.2864768
11
80.0845167
21
-133.6627417
0
LINE
8
0
10
80.0845167
20
-133.6627417
11
79.8350227
21
-132.4889646
0
LINE
8
0
10
79.8350227
20
-132.4889646
11
76.9005799
21
-133.1126997
0
LINE
8
0
10
93.2938718
20
-126.9444691
11
93.4815932
21
-128.1296951
0
LINE
8
0
10
93.4815932
20
-128.1296951
11
96.4446582
21
-127.6603917
0
LINE
8
0
10
96.4446582
20
-127.6603917
11
96.2569368
21
-126.4751657
0
LINE
8
0
10
96.2569368
20
-126.4751657
11
93.2938718
21
-126.9444691
0
LINE
8
0
10
110.9220132
20
-121.7753905
11
110.85921
21
-122.973746
0
LINE
8
0
10
110.85921
20
-122.973746
11
113.8550986
21
-123.1307539
0
LINE
8
0
10
113.8550986
20
-123.1307539
11
113.9179018
21
-121.9323984
0
LINE
8
0
10
113.9179018
20
-121.9323984
11
110.9220132
21
-121.7753905
0
LINE
8
0
10
93.25
20
-108.25
11
106.75
21
-108.25
0
ARC
8
0
10
106.75
20
-106.75
40
1.5
50
270
51
360
0
LINE
8
0
10
108.25
20
-106.75
11
108.25
21
-93.25
0
ARC
8
0
10
106.75
20
-93.25
40
1.5
50
0
51
90
0
LINE
8
0
10
106.75
20
-91.75
11
93.25
21
-91.75
0
ARC
8
0
10
93.25
20
-93.25
40
1.5
50
90
51
180
0
LINE
8
0
10
91.75
20
-93.25
11
91.75
21
-106.75
0
ARC
8
0
10
93.25
20
-106.75
40
1.5
50
180
51
270
0
LINE
8
0
10
93.25
20
-91.25
11
106.75
21
-91.25
0
ARC
8
0
10
106.75
20
-89.75
40
1.5
50
270
51
360
0
LINE
8
0
10
108.25
20
-89.75
11
108.25
21
-76.25
0
ARC
8
0
10
106.75
20
-76.25
40
1.5
50
0
51
90
0
LINE
8
0
10
106.75
20
-74.75
11
93.25
21
-74.75
0
ARC
8
0
10
93.25
20
-76.25
40
1.5
50
90
51
180
0
LINE
8
0
10
91.75
20
-76.25
11
91.75
21
-89.75
0
ARC
8
0
10
93.25
20
-89.75
40
1.5
50
180
51
270
0
LINE
8
0
10
93.25
20
-74.25
11
106.75
21
-74.25
0
ARC
8
0
10
106.75
20
-72.75
40
1.5
50
270
51
360
0
LINE
8
0
10
108.25
20
-72.75
11
108.25
21
-59.25
0
ARC
8
0
10
106.75
20
-59.25
40
1.5
50
0
51
90
0
LINE
8
0
10
106.75
20
-57.75
11
93.25
21
-57.75
0
ARC
8
0
10
93.25
20
-59.25
40
1.5
50
90
51
180
0
LINE
8
0
10
91.75
20
-59.25
11
91.75
21
-72.75
0
ARC
8
0
10
93.25
20
-72.75
40
1.5
50
180
51
270
0
LINE
8
0
10
110.25
20
-108.25
11
123.75
21
-108.25
0
ARC
8
0
10
123.75
20
-106.75
40
1.5
50
270
51
360
0
LINE
8
0
10
125.25
20
-106.75
11
125.25
21
-93.25
0
ARC
8
0
10
123.75
20
-93.25
40
1.5
50
0
51
90
0
LINE
8
0
10
123.75
20
-91.75
11
110.25
21
-91.75
0
ARC
8
0
10
110.25
20
-93.25
40
1.5
50
90
51
180
0
LINE
8
0
10
108.75
20
-93.25
11
108.75
21
-106.75
0
ARC
8
0
10
110.25
20
-106.75
40
1.5
50
180
51
270
0
LINE
8
0
10
110.25
20
-91.25
11
123.75
21
-91.25
0
ARC
8
0
10
123.75
20
-89.75
40
1.5
50
270
51
360
0
LINE
8
0
10
125.25
20
-89.75
11
125.25
21
-76.25
0
ARC
8
0
10
123.75
20
-76.25
40
1.5
50
0
51
90
0
LINE
8
0
10
123.75
20
-74.75
11
110.25
21
-74.75
0
ARC
8
0
10
110.25
20
-76.25
40
1.5
50
90
51
180
0
LINE
8
0
10
108.75
20
-76.25
11
108.75
21
-89.75
0
ARC
8
0
10
110.25
20
-89.75
40
1.5
50
180
51
270
0
LINE
8
0
10
110.25
20
-74.25
11
123.75
21
-74.25
0
ARC
8
0
10
123.75
20
-72.75
40
1.5
50
270
51
360
0
LINE
8
0
10
125.25
20
-72.75
11
125.25
21
-59.25
0
ARC
8
0
10
123.75
20
-59.25
40
1.5
50
0
51
90
0
LINE
8
0
10
123.75
20
-57.75
11
110.25
21
-57.75
0
ARC
8
0
10
110.25
20
-59.25
40
1.5
50
90
51
180
0
LINE
8
0
10
108.75
20
-59.25
11
108.75
21
-72.75
0
ARC
8
0
10
110.25
20
-72.75
40
1.5
50
180
51
270
0
LINE
8
0
10
131.25
20
-100.6
11
144.75
21
-100.6
0
ARC
8
0
10
144.75
20
-99.1
40
1.5
50
270
51
360
0
LINE
8
0
10
146.25
20
-99.1
11
146.25
21
-85.6
0
ARC
8
0
10
144.75
20
-85.6
40
1.5
50
0
51
90
0
LINE
8
0
10
144.75
20
-84.1
11
131.25
21
-84.1
0
ARC
8
0
10
131.25
20
-85.6
40
1.5
50
90
51
180
0
LINE
8
0
10
129.75
20
-85.6
11
129.75
21
-99.1
0
ARC
8
0
10
131.25
20
-99.1
40
1.5
50
180
51
270
0
LINE
8
0
10
131.25
20
-83.6
11
144.75
21
-83.6
0
ARC
8
0
10
144.75
20
-82.1
40
1.5
50
270
51
360
0
LINE
8
0
10
146.25
20
-82.1
11
146.25
21
-68.6
0
ARC
8
0
10
144.75
20
-68.6
40
1.5
50
0
51
90
0
LINE
8
0
10
144.75
20
-67.1
11
131.25
21
-67.1
0
ARC
8
0
10
131.25
20
-68.6
40
1.5
50
90
51
180
0
LINE
8
0
10
129.75
20
-68.6
11
129.75
21
-82.1
0
ARC
8
0
10
131.25
20
-82.1
40
1.5
50
180
51
270
0
LINE
8
0
10
131.25
20
-66.6
11
144.75
21
-66.6
0
ARC
8
0
10
144.75
20
-65.1
40
1.5
50
270
51
360
0
LINE
8
0
10
146.25
20
-65.1
11
146.25
21
-51.6
0
ARC
8
0
10
144.75
20
-51.6
40
1.5
50
0
51
90
0
LINE
8
0
10
144.75
20
-50.1
11
131.25
21
-50.1
0
ARC
8
0
10
131.25
20
-51.6
40
1.5
50
90
51
180
0
LINE
8
0
10
129.75
20
-51.6
11
129.75
21
-65.1
0
ARC
8
0
10
131.25
20
-65.1
40
1.5
50
180
51
270
0
LINE
8
0
10
154.2592393
20
-102.3765719
11
167.7463902
21
-102.9654336
0
ARC
8
0
10
167.8118193
20
-101.4668613
40
1.5
50
267.5
51
357.5
0
LINE
8
0
10
169.3103917
20
-101.5322903
11
169.8992534
21
-88.0451394
0
ARC
8
0
10
168.4006811
20
-87.9797103
40
1.5
50
357.5
51
87.5
0
LINE
8
0
10
168.4661101
20
-86.4811379
11
154.9789592
21
-85.8922762
0
ARC
8
0
10
154.9135301
20
-87.3908485
40
1.5
50
87.5
51
177.5
0
LINE
8
0
10
153.4149577
20
-87.3254195
11
152.826096
21
-100.8125704
0
ARC
8
0
10
154.3246683
20
-100.8779995
40
1.5
50
177.5
51
267.5
0
LINE
8
0
10
155.0007689
20
-85.3927521
11
168.4879198
21
-85.9816138
0
ARC
8
0
10
168.5533489
20
-84.4830415
40
1.5
50
267.5
51
357.5
0
LINE
8
0
10
170.0519213
20
-84.5484705
11
170.640783
21
-71.0613196
0
ARC
8
0
10
169.1422107
20
-70.9958905
40
1.5
50
357.5
51
87.5
0
LINE
8
0
10
169.2076397
20
-69.4973181
11
155.7204888
21
-68.9084564
0
ARC
8
0
10
155.6550597
20
-70.4070287
40
1.5
50
87.5
51
177.5
0
LINE
8
0
10
154.1564873
20
-70.3415997
11
153.5676256
21
-83.8287506
0
ARC
8
0
10
155.0661979
20
-83.8941797
40
1.5
50
177.5
51
267.5
0
LINE
8
0
10
155.7422985
20
-68.4089323
11
169.2294494
21
-68.997794
0
ARC
8
0
10
169.2948785
20
-67.4992217
40
1.5
50
267.5
51
357.5
0
LINE
8
0
10
170.7934509
20
-67.5646507
11
171.3823126
21
-54.0774998
0
ARC
8
0
10
169.8837403
20
-54.0120707
40
1.5
50
357.5
51
87.5
0
LINE
8
0
10
169.9491693
20
-52.5134983
11
156.4620184
21
-51.9246366
0
ARC
8
0
10
156.3965893
20
-53.4232089
40
1.5
50
87.5
51
177.5
0
LINE
8
0
10
154.8980169
20
-53.3577799
11
154.3091552
21
-66.8449308
0
ARC
8
0
10
155.8077275
20
-66.9103599
40
1.5
50
177.5
51
267.5
0
LINE
8
0
10
174.9910211
20
-112.3380776
11
188.4396495
21
-113.5146801
0
ARC
8
0
10
188.5703831
20
-112.0203881
40
1.5
50
265
51
355
0
LINE
8
0
10
190.0646752
20
-112.1511217
11
191.2412777
21
-98.7024933
0
ARC
8
0
10
189.7469857
20
-98.5717597
40
1.5
50
355
51
85
0
LINE
8
0
10
189.8777193
20
-97.0774676
11
176.4290909
21
-95.9008651
0
ARC
8
0
10
176.2983573
20
-97.3951571
40
1.5
50
85
51
175
0
LINE
8
0
10
174.8040652
20
-97.2644235
11
173.6274627
21
-110.7130519
0
ARC
8
0
10
175.1217547
20
-110.8437855
40
1.5
50
175
51
265
0
LINE
8
0
10
176.4726687
20
-95.4027677
11
189.9212971
21
-96.5793702
0
ARC
8
0
10
190.0520307
20
-95.0850782
40
1.5
50
265
51
355
0
LINE
8
0
10
191.5463228
20
-95.2158118
11
192.7229253
21
-81.7671834
0
ARC
8
0
10
191.2286333
20
-81.6364498
40
1.5
50
355
51
85
0
LINE
8
0
10
191.3593669
20
-80.1421577
11
177.9107385
21
-78.9655552
0
ARC
8
0
10
177.7800049
20
-80.4598472
40
1.5
50
85
51
175
0
LINE
8
0
10
176.2857128
20
-80.3291136
11
175.1091103
21
-93.777742
0
ARC
8
0
10
176.6034023
20
-93.9084756
40
1.5
50
175
51
265
0
LINE
8
0
10
177.9543163
20
-78.4674578
11
191.4029447
21
-79.6440603
0
ARC
8
0
10
191.5336783
20
-78.1497683
40
1.5
50
265
51
355
0
LINE
8
0
10
193.0279704
20
-78.2805019
11
194.2045729
21
-64.8318735
0
ARC
8
0
10
192.7102809
20
-64.7011399
40
1.5
50
355
51
85
0
LINE
8
0
10
192.8410145
20
-63.2068478
11
179.3923861
21
-62.0302453
0
ARC
8
0
10
179.2616525
20
-63.5245373
40
1.5
50
85
51
175
0
LINE
8
0
10
177.7673604
20
-63.3938037
11
176.5907579
21
-76.8424321
0
ARC
8
0
10
178.0850499
20
-76.9731657
40
1.5
50
175
51
265
0
LINE
8
0
10
94
20
-107
11
106
21
-107
0
ARC
8
0
10
106
20
-106
40
1
50
270
51
360
0
LINE
8
0
10
107
20
-106
11
107
21
-94
0
ARC
8
0
10
106
20
-94
40
1
50
0
51
90
0
LINE
8
0
10
106
20
-93
11
94
21
-93
0
ARC
8
0
10
94
20
-94
40
1
50
90
51
180
0
LINE
8
0
10
93
20
-94
11
93
21
-106
0
ARC
8
0
10
94
20
-106
40
1
50
180
51
270
0
LINE
8
0
10
94
20
-90
11
106
21
-90
0
ARC
8
0
10
106
20
-89
40
1
50
270
51
360
0
LINE
8
0
10
107
20
-89
11
107
21
-77
0
ARC
8
0
10
106
20
-77
40
1
50
0
51
90
0
LINE
8
0
10
106
20
-76
11
94
21
-76
0
ARC
8
0
10
94
20
-77
40
1
50
90
51
180
0
LINE
8
0
10
93
20
-77
11
93
21
-89
0
ARC
8
0
10
94
20
-89
40
1
50
180
51
270
0
LINE
8
0
10
94
20
-73
11
106
21
-73
0
ARC
8
0
10
106
20
-72
40
1
50
270
51
360
0
LINE
8
0
10
107
20
-72
11
107
21
-60
0
ARC
8
0
10
106
20
-60
40
1
50
0
51
90
0
LINE
8
0
10
106
20
-59
11
94
21
-59
0
ARC
8
0
10
94
20
-60
40
1
50
90
51
180
0
LINE
8
0
10
93
20
-60
11
93
21
-72
0
ARC
8
0
10
94
20
-72
40
1
50
180
51
270
0
LINE
8
0
10
111
20
-107
11
123
21
-107
0
ARC
8
0
10
123
20
-106
40
1
50
270
51
360
0
LINE
8
0
10
124
20
-106
11
124
21
-94
0
ARC
8
0
10
123
20
-94
40
1
50
0
51
90
0
LINE
8
0
10
123
20
-93
11
111
21
-93
0
ARC
8
0
10
111
20
-94
40
1
50
90
51
180
0
LINE
8
0
10
110
20
-94
11
110
21
-106
0
ARC
8
0
10
111
20
-106
40
1
50
180
51
270
0
LINE
8
0
10
111
20
-90
11
123
21
-90
0
ARC
8
0
10
123
20
-89
40
1
50
270
51
360
0
LINE
8
0
10
124
20
-89
11
124
21
-77
0
ARC
8
0
10
123
20
-77
40
1
50
0
51
90
0
LINE
8
0
10
123
20
-76
11
111
21
-76
0
ARC
8
0
10
111
20
-77
40
1
50
90
51
180
0
LINE
8
0
10
110
20
-77
11
110
21
-89
0
ARC
8
0
10
111
20
-89
40
1
50
180
51
270
0
LINE
8
0
10
111
20
-73
11
123
21
-73
0
ARC
8
0
10
123
20
-72
40
1
50
270
51
360
0
LINE
8
0
10
124
20
-72
11
124
21
-60
0
ARC
8
0
10
123
20
-60
40
1
50
0
51
90
0
LINE
8
0
10
123
20
-59
11
111
21
-59
0
ARC
8
0
10
111
20
-60
40
1
50
90
51
180
0
LINE
8
0
10
110
20
-60
11
110
21
-72
0
ARC
8
0
10
111
20
-72
40
1
50
180
51
270
0
LINE
8
0
10
132
20
-99.35
11
144
21
-99.35
0
ARC
8
0
10
144
20
-98.35
40
1
50
270
51
360
0
LINE
8
0
10
145
20
-98.35
11
145
21
-86.35
0
ARC
8
0
10
144
20
-86.35
40
1
50
0
51
90
0
LINE
8
0
10
144
20
-85.35
11
132
21
-85.35
0
ARC
8
0
10
132
20
-86.35
40
1
50
90
51
180
0
LINE
8
0
10
131
20
-86.35
11
131
21
-98.35
0
ARC
8
0
10
132
20
-98.35
40
1
50
180
51
270
0
LINE
8
0
10
132
20
-82.35
11
144
21
-82.35
0
ARC
8
0
10
144
20
-81.35
40
1
50
270
51
360
0
LINE
8
0
10
145
20
-81.35
11
145
21
-69.35
0
ARC
8
0
10
144
20
-69.35
40
1
50
0
51
90
0
LINE
8
0
10
144
20
-68.35
11
132
21
-68.35
0
ARC
8
0
10
132
20
-69.35
40
1
50
90
51
180
0
LINE
8
0
10
131
20
-69.35
11
131
21
-81.35
0
ARC
8
0
10
132
20
-81.35
40
1
50
180
51
270
0
LINE
8
0
10
132
20
-65.35
11
144
21
-65.35
0
ARC
8
0
10
144
20
-64.35
40
1
50
270
51
360
0
LINE
8
0
10
145
20
-64.35
11
145
21
-52.35
0
ARC
8
0
10
144
20
-52.35
40
1
50
0
51
90
0
LINE
8
0
10
144
20
-51.35
11
132
21
-51.35
0
ARC
8
0
10
132
20
-52.35
40
1
50
90
51
180
0
LINE
8
0
10
131
20
-52.35
11
131
21
-64.35
0
ARC
8
0
10
132
20
-64.35
40
1
50
180
51
270
0
LINE
8
0
10
155.0630497
20
-101.1604761
11
167.0516283
21
-101.6839088
0
ARC
8
0
10
167.0952477
20
-100.6848606
40
1
50
267.5
51
357.5
0
LINE
8
0
10
168.0942959
20
-100.7284799
11
168.6177286
21
-88.7399013
0
ARC
8
0
10
167.6186804
20
-88.6962819
40
1
50
357.5
51
87.5
0
LINE
8
0
10
167.6622997
20
-87.6972337
11
155.6737211
21
-87.173801
0
ARC
8
0
10
155.6301017
20
-88.1728492
40
1
50
87.5
51
177.5
0
LINE
8
0
10
154.6310535
20
-88.1292299
11
154.1076208
21
-100.1178085
0
ARC
8
0
10
155.106669
20
-100.1614279
40
1
50
177.5
51
267.5
0
LINE
8
0
10
155.8045793
20
-84.1766563
11
167.7931579
21
-84.700089
0
ARC
8
0
10
167.8367773
20
-83.7010408
40
1
50
267.5
51
357.5
0
LINE
8
0
10
168.8358255
20
-83.7446601
11
169.3592582
21
-71.7560815
0
ARC
8
0
10
168.36021
20
-71.7124621
40
1
50
357.5
51
87.5
0
LINE
8
0
10
168.4038293
20
-70.7134139
11
156.4152507
21
-70.1899812
0
ARC
8
0
10
156.3716313
20
-71.1890294
40
1
50
87.5
51
177.5
0
LINE
8
0
10
155.3725831
20
-71.1454101
11
154.8491504
21
-83.1339887
0
ARC
8
0
10
155.8481986
20
-83.1776081
40
1
50
177.5
51
267.5
0
LINE
8
0
10
156.5461089
20
-67.1928365
11
168.5346875
21
-67.7162692
0
ARC
8
0
10
168.5783069
20
-66.717221
40
1
50
267.5
51
357.5
0
LINE
8
0
10
169.5773551
20
-66.7608403
11
170.1007878
21
-54.7722617
0
ARC
8
0
10
169.1017396
20
-54.7286423
40
1
50
357.5
51
87.5
0
LINE
8
0
10
169.1453589
20
-53.7295941
11
157.1567803
21
-53.2061614
0
ARC
8
0
10
157.1131609
20
-54.2052096
40
1
50
87.5
51
177.5
0
LINE
8
0
10
156.1141127
20
-54.1615903
11
155.59068
21
-66.1501689
0
ARC
8
0
10
156.5897282
20
-66.1937883
40
1
50
177.5
51
267.5
0
LINE
8
0
10
175.8471118
20
-111.158201
11
187.8014482
21
-112.2040699
0
ARC
8
0
10
187.8886039
20
-111.2078752
40
1
50
265
51
355
0
LINE
8
0
10
188.8847986
20
-111.295031
11
189.9306675
21
-99.3406946
0
ARC
8
0
10
188.9344728
20
-99.2535389
40
1
50
355
51
85
0
LINE
8
0
10
189.0216286
20
-98.2573442
11
177.0672922
21
-97.2114753
0
ARC
8
0
10
176.9801365
20
-98.20767
40
1
50
85
51
175
0
LINE
8
0
10
175.9839418
20
-98.1205142
11
174.9380729
21
-110.0748506
0
ARC
8
0
10
175.9342676
20
-110.1620063
40
1
50
175
51
265
0
LINE
8
0
10
177.3287594
20
-94.2228911
11
189.2830958
21
-95.26876
0
ARC
8
0
10
189.3702515
20
-94.2725653
40
1
50
265
51
355
0
LINE
8
0
10
190.3664462
20
-94.3597211
11
191.4123151
21
-82.4053847
0
ARC
8
0
10
190.4161204
20
-82.318229
40
1
50
355
51
85
0
LINE
8
0
10
190.5032762
20
-81.3220343
11
178.5489398
21
-80.2761654
0
ARC
8
0
10
178.4617841
20
-81.2723601
40
1
50
85
51
175
0
LINE
8
0
10
177.4655894
20
-81.1852043
11
176.4197205
21
-93.1395407
0
ARC
8
0
10
177.4159152
20
-93.2266964
40
1
50
175
51
265
0
LINE
8
0
10
178.810407
20
-77.2875812
11
190.7647434
21
-78.3334501
0
ARC
8
0
10
190.8518991
20
-77.3372554
40
1
50
265
51
355
0
LINE
8
0
10
191.8480938
20
-77.4244112
11
192.8939627
21
-65.4700748
0
ARC
8
0
10
191.897768
20
-65.3829191
40
1
50
355
51
85
0
LINE
8
0
10
191.9849238
20
-64.3867244
11
180.0305874
21
-63.3408555
0
ARC
8
0
10
179.9434317
20
-64.3370502
40
1
50
85
51
175
0
LINE
8
0
10
178.947237
20
-64.2498944
11
177.9013681
21
-76.2042308
0
ARC
8
0
10
178.8975628
20
-76.2913865
40
1
50
175
51
265
0
LINE
8
0
10
207.7336116
20
-88.0368087
11
194.2849832
21
-86.8602062
0
ARC
8
0
10
194.1542496
20
-88.3544983
40
1.5
50
85
51
175
0
LINE
8
0
10
192.6599575
20
-88.2237646
11
191.1238376
21
-105.7816962
0
ARC
8
0
10
192.6181296
20
-105.9124298
40
1.5
50
175
51
265
0
LINE
8
0
10
192.487396
20
-107.4067219
11
205.9360244
21
-108.5833244
0
ARC
8
0
10
206.066758
20
-107.0890323
40
1.5
50
265
51
355
0
LINE
8
0
10
207.5610501
20
-107.219766
11
209.09717
21
-89.6618344
0
ARC
8
0
10
207.602878
20
-89.5311008
40
1.5
50
355
51
85
0
LINE
8
0
10
209.5856711
20
-66.8676714
11
196.1370427
21
-65.6910689
0
ARC
8
0
10
196.0063091
20
-67.185361
40
1.5
50
85
51
175
0
LINE
8
0
10
194.512017
20
-67.0546273
11
192.9758971
21
-84.6125589
0
ARC
8
0
10
194.4701891
20
-84.7432925
40
1.5
50
175
51
265
0
LINE
8
0
10
194.3394555
20
-86.2375846
11
207.7880839
21
-87.4141871
0
ARC
8
0
10
207.9188175
20
-85.919895
40
1.5
50
265
51
355
0
LINE
8
0
10
209.4131096
20
-86.0506287
11
210.9492295
21
-68.4926971
0
ARC
8
0
10
209.4549375
20
-68.3619635
40
1.5
50
355
51
85
0
LINE
8
0
10
82.358407
20
-119.109449
11
69.1534144
21
-121.9162568
0
ARC
8
0
10
69.4652819
20
-123.3834782
40
1.5
50
102
51
192
0
LINE
8
0
10
67.9980605
20
-123.6953457
11
71.6625041
21
-140.9351972
0
ARC
8
0
10
73.1297255
20
-140.6233296
40
1.5
50
192
51
282
0
LINE
8
0
10
73.441593
20
-142.090551
11
86.6465856
21
-139.2837432
0
ARC
8
0
10
86.3347181
20
-137.8165218
40
1.5
50
282
51
12
0
LINE
8
0
10
87.8019395
20
-137.5046543
11
84.1374959
21
-120.2648028
0
ARC
8
0
10
82.6702745
20
-120.5766704
40
1.5
50
12
51
102
0
LINE
8
0
10
99.4770927
20
-113.2460499
11
86.1433001
21
-115.3579152
0
ARC
8
0
10
86.3779518
20
-116.8394477
40
1.5
50
99
51
189
0
LINE
8
0
10
84.8964193
20
-117.0740994
11
87.6535767
21
-134.4821064
0
ARC
8
0
10
89.1351092
20
-134.2474547
40
1.5
50
189
51
279
0
LINE
8
0
10
89.3697609
20
-135.7289873
11
102.7035535
21
-133.617122
0
ARC
8
0
10
102.4689018
20
-132.1355895
40
1.5
50
279
51
9
0
LINE
8
0
10
103.9504343
20
-131.9009378
11
101.1932769
21
-114.4929308
0
ARC
8
0
10
99.7117444
20
-114.7275825
40
1.5
50
9
51
99
0
LINE
8
0
10
119.8181773
20
-109.6618786
11
106.3366786
21
-108.9553432
0
ARC
8
0
10
106.2581747
20
-110.4532875
40
1.5
50
87
51
177
0
LINE
8
0
10
104.7602304
20
-110.3747836
11
103.8378091
21
-127.9756291
0
ARC
8
0
10
105.3357534
20
-128.0541331
40
1.5
50
177
51
267
0
LINE
8
0
10
105.2572495
20
-129.5520774
11
118.7387482
21
-130.2586128
0
ARC
8
0
10
118.8172521
20
-128.7606685
40
1.5
50
267
51
357
0
LINE
8
0
10
120.3151964
20
-128.8391724
11
121.2376177
21
-111.2383269
0
ARC
8
0
10
119.7396734
20
-111.1598229
40
1.5
50
357
51
87
0
LINE
8
0
10
206.8775209
20
-89.2166853
11
194.9231845
21
-88.1708164
0
ARC
8
0
10
194.8360288
20
-89.1670111
40
1
50
85
51
175
0
LINE
8
0
10
193.8398341
20
-89.0798553
11
192.4344477
21
-105.1434949
0
ARC
8
0
10
193.4306424
20
-105.2306506
40
1
50
175
51
265
0
LINE
8
0
10
193.3434867
20
-106.2268453
11
205.2978231
21
-107.2727142
0
ARC
8
0
10
205.3849788
20
-106.2765195
40
1
50
265
51
355
0
LINE
8
0
10
206.3811735
20
-106.3636753
11
207.7865599
21
-90.3000357
0
ARC
8
0
10
206.7903652
20
-90.21288
40
1
50
355
51
85
0
LINE
8
0
10
208.7295804
20
-68.047548
11
196.775244
21
-67.0016791
0
ARC
8
0
10
196.6880883
20
-67.9978738
40
1
50
85
51
175
0
LINE
8
0
10
195.6918936
20
-67.910718
11
194.2865072
21
-83.9743576
0
ARC
8
0
10
195.2827019
20
-84.0615133
40
1
50
175
51
265
0
LINE
8
0
10
195.1955462
20
-85.057708
11
207.1498826
21
-86.1035769
0
ARC
8
0
10
207.2370383
20
-85.1073822
40
1
50
265
51
355
0
LINE
8
0
10
208.233233
20
-85.194538
11
209.6386194
21
-69.1308984
0
ARC
8
0
10
208.6424247
20
-69.0437427
40
1
50
355
51
85
0
LINE
8
0
10
81.8846859
20
-120.4880672
11
70.1469147
21
-122.9830075
0
ARC
8
0
10
70.3548264
20
-123.9611551
40
1
50
102
51
192
0
LINE
8
0
10
69.3766788
20
-124.1690668
11
72.7292548
21
-139.9416969
0
ARC
8
0
10
73.7074024
20
-139.7337852
40
1
50
192
51
282
0
LINE
8
0
10
73.9153141
20
-140.7119328
11
85.6530853
21
-138.2169925
0
ARC
8
0
10
85.4451736
20
-137.2388449
40
1
50
282
51
12
0
LINE
8
0
10
86.4233212
20
-137.0309332
11
83.0707452
21
-121.2583031
0
ARC
8
0
10
82.0925976
20
-121.4662148
40
1
50
12
51
102
0
LINE
8
0
10
98.9318695
20
-114.5979862
11
87.0796094
21
-116.4751998
0
ARC
8
0
10
87.2360439
20
-117.4628881
40
1
50
99
51
189
0
LINE
8
0
10
86.2483555
20
-117.6193226
11
88.7708613
21
-133.5457971
0
ARC
8
0
10
89.7585496
20
-133.3893626
40
1
50
189
51
279
0
LINE
8
0
10
89.9149841
20
-134.377051
11
101.7672442
21
-132.4998374
0
ARC
8
0
10
101.6108097
20
-131.5121491
40
1
50
279
51
9
0
LINE
8
0
10
102.5984981
20
-131.3557146
11
100.0759923
21
-115.4292401
0
ARC
8
0
10
99.088304
20
-115.5856746
40
1
50
9
51
99
0
LINE
8
0
10
119.0037852
20
-110.8709136
11
107.0202308
21
-110.2428821
0
ARC
8
0
10
106.9678948
20
-111.2415116
40
1
50
87
51
177
0
LINE
8
0
10
105.9692653
20
-111.1891757
11
105.125348
21
-127.2920769
0
ARC
8
0
10
106.1239775
20
-127.3444129
40
1
50
177
51
267
0
LINE
8
0
10
106.0716416
20
-128.3430424
11
118.055196
21
-128.9710739
0
ARC
8
0
10
118.107532
20
-127.9724444
40
1
50
267
51
357
0
LINE
8
0
10
119.1061615
20
-128.0247803
11
119.9500788
21
-111.9218791
0
ARC
8
0
10
118.9514493
20
-111.8695431
40
1
50
357
51
87
0
LINE
8
0
10
74.75
20
-100.25
11
89.25
21
-100.25
0
LINE
8
0
10
91
20
-98.5
11
91
21
-68.6
0
LINE
8
0
10
89.25
20
-66.85
11
74.75
21
-66.85
0
LINE
8
0
10
73
20
-68.6
11
73
21
-98.5
0
ARC
8
0
10
89.25
20
-98.5
40
1.75
50
270
51
0
0
ARC
8
0
10
89.25
20
-68.6
40
1.75
50
0
51
90
0
ARC
8
0
10
74.75
20
-68.6
40
1.75
50
90
51
180
0
ARC
8
0
10
74.75
20
-98.5
40
1.75
50
180
51
270
0
CIRCLE
8
0
10
149.95
20
-85.35
40
2.05
0
CIRCLE
8
0
10
172.45
20
-62.85
40
2.05
0
CIRCLE
8
0
10
172.45
20
-107.85
40
2.05
0
CIRCLE
8
0
10
127.45
20
-62.85
40
2.05
0
CIRCLE
8
0
10
127.45
20
-107.85
40
2.05
0
CIRCLE
8
0
10
103.1972906
20
-121.0729448
40
2.05
0
CIRCLE
8
0
10
108.5
20
-74.5
40
2.05
0
CIRCLE
8
0
10
108.5
20
-91.5
40
2.05
0
CIRCLE
8
0
10
192.5765894
20
-79.997696
40
2.05
0
CIRCLE
8
0
10
191.0949418
20
-96.9330059
40
2.05
0
CIRCLE
8
0
10
176.7370938
20
-78.6119196
40
2.05
0
CIRCLE
8
0
10
175.2554462
20
-95.5472295
40
2.05
0
CIRCLE
8
0
10
88.5
20
-64.6
40
2.05
0
CIRCLE
8
0
10
75.5
20
-102.5
40
2.05
0
CIRCLE
8
0
10
75.5
20
-116.5
40
2.05
0
ENDSEC
0
EOF