<?xml version="1.0"?>
<svg
  xmlns="http://www.w3.org/2000/svg"
  xmlns:xlink="http://www.w3.org/1999/xlink" version="1.1"
  preserveAspectRatio="xMinYMin meet"
  viewBox="-79 -137.65 379.5 507.75"
  width="100%" height="100%"
>
  <g stroke="#000000" stroke-width="0.1%" fill="none" transform="matrix(1,0,0,-1,0,0)">
    <g stroke="rgb(0, 0, 0)"><path d="M52.5,-38.5L57.5,-38.5" /></g>
<g stroke="rgb(0, 0, 0)"><path d="M57.5,-38.5L57.5,-33.5" /></g>
<g stroke="rgb(0, 0, 0)"><path d="M57.5,-33.5L52.5,-33.5" /></g>
<g stroke="rgb(0, 0, 0)"><path d="M52.5,-33.5L52.5,-38.5" /></g>
<g stroke="rgb(0, 0, 0)"><path d="M52.5,-157.5L57.5,-157.5" /></g>
<g stroke="rgb(0, 0, 0)"><path d="M57.5,-157.5L57.5,-152.5" /></g>
<g stroke="rgb(0, 0, 0)"><path d="M57.5,-152.5L52.5,-152.5" /></g>
<g stroke="rgb(0, 0, 0)"><path d="M52.5,-152.5L52.5,-157.5" /></g>
<g stroke="rgb(0, 0, 0)"><path d="M95,-102L98.4,-102" /></g>
<g stroke="rgb(0, 0, 0)"><path d="M101.6,-102L105,-102" /></g>
<g stroke="rgb(0, 0, 0)"><path d="M105,-102L105,-98" /></g>
<g stroke="rgb(0, 0, 0)"><path d="M105,-98L95,-98" /></g>
<g stroke="rgb(0, 0, 0)"><path d="M95,-98L95,-102" /></g>
<g stroke="rgb(0, 0, 0)"><path d="M95,-85L98.4,-85" /></g>
<g stroke="rgb(0, 0, 0)"><path d="M101.6,-85L105,-85" /></g>
<g stroke="rgb(0, 0, 0)"><path d="M105,-85L105,-81" /></g>
<g stroke="rgb(0, 0, 0)"><path d="M105,-81L95,-81" /></g>
<g stroke="rgb(0, 0, 0)"><path d="M95,-81L95,-85" /></g>
<g stroke="rgb(0, 0, 0)"><path d="M95,-68L98.4,-68" /></g>
<g stroke="rgb(0, 0, 0)"><path d="M101.6,-68L105,-68" /></g>
<g stroke="rgb(0, 0, 0)"><path d="M105,-68L105,-64" /></g>
<g stroke="rgb(0, 0, 0)"><path d="M105,-64L95,-64" /></g>
<g stroke="rgb(0, 0, 0)"><path d="M95,-64L95,-68" /></g>
<g stroke="rgb(0, 0, 0)"><path d="M112,-102L115.4,-102" /></g>
<g stroke="rgb(0, 0, 0)"><path d="M118.6,-102L122,-102" /></g>
<g stroke="rgb(0, 0, 0)"><path d="M122,-102L122,-98" /></g>
<g stroke="rgb(0, 0, 0)"><path d="M122,-98L112,-98" /></g>
<g stroke="rgb(0, 0, 0)"><path d="M112,-98L112,-102" /></g>
<g stroke="rgb(0, 0, 0)"><path d="M112,-85L115.4,-85" /></g>
<g stroke="rgb(0, 0, 0)"><path d="M118.6,-85L122,-85" /></g>
<g stroke="rgb(0, 0, 0)"><path d="M122,-85L122,-81" /></g>
<g stroke="rgb(0, 0, 0)"><path d="M122,-81L112,-81" /></g>
<g stroke="rgb(0, 0, 0)"><path d="M112,-81L112,-85" /></g>
<g stroke="rgb(0, 0, 0)"><path d="M112,-68L115.4,-68" /></g>
<g stroke="rgb(0, 0, 0)"><path d="M118.6,-68L122,-68" /></g>
<g stroke="rgb(0, 0, 0)"><path d="M122,-68L122,-64" /></g>
<g stroke="rgb(0, 0, 0)"><path d="M122,-64L112,-64" /></g>
<g stroke="rgb(0, 0, 0)"><path d="M112,-64L112,-68" /></g>
<g stroke="rgb(0, 0, 0)"><path d="M133,-94.35L136.4,-94.35" /></g>
<g stroke="rgb(0, 0, 0)"><path d="M139.6,-94.35L143,-94.35" /></g>
<g stroke="rgb(0, 0, 0)"><path d="M143,-94.35L143,-90.35" /></g>
<g stroke="rgb(0, 0, 0)"><path d="M143,-90.35L133,-90.35" /></g>
<g stroke="rgb(0, 0, 0)"><path d="M133,-90.35L133,-94.35" /></g>
<g stroke="rgb(0, 0, 0)"><path d="M133,-77.35L136.4,-77.35" /></g>
<g stroke="rgb(0, 0, 0)"><path d="M139.6,-77.35L143,-77.35" /></g>
<g stroke="rgb(0, 0, 0)"><path d="M143,-77.35L143,-73.35" /></g>
<g stroke="rgb(0, 0, 0)"><path d="M143,-73.35L133,-73.35" /></g>
<g stroke="rgb(0, 0, 0)"><path d="M133,-73.35L133,-77.35" /></g>
<g stroke="rgb(0, 0, 0)"><path d="M133,-60.35L136.4,-60.35" /></g>
<g stroke="rgb(0, 0, 0)"><path d="M139.6,-60.35L143,-60.35" /></g>
<g stroke="rgb(0, 0, 0)"><path d="M143,-60.35L143,-56.35" /></g>
<g stroke="rgb(0, 0, 0)"><path d="M143,-56.35L133,-56.35" /></g>
<g stroke="rgb(0, 0, 0)"><path d="M133,-56.35L133,-60.35" /></g>
<g stroke="rgb(0, 0, 0)"><path d="M156.2801948,-96.2088544L159.6769588,-96.3571603" /></g>
<g stroke="rgb(0, 0, 0)"><path d="M162.8739131,-96.4967424L166.270677,-96.6450483" /></g>
<g stroke="rgb(0, 0, 0)"><path d="M166.270677,-96.6450483L166.4451546,-92.6488554" /></g>
<g stroke="rgb(0, 0, 0)"><path d="M166.4451546,-92.6488554L156.4546724,-92.2126615" /></g>
<g stroke="rgb(0, 0, 0)"><path d="M156.4546724,-92.2126615L156.2801948,-96.2088544" /></g>
<g stroke="rgb(0, 0, 0)"><path d="M157.0217244,-79.2250346L160.4184884,-79.3733405" /></g>
<g stroke="rgb(0, 0, 0)"><path d="M163.6154427,-79.5129226L167.0122066,-79.6612285" /></g>
<g stroke="rgb(0, 0, 0)"><path d="M167.0122066,-79.6612285L167.1866842,-75.6650356" /></g>
<g stroke="rgb(0, 0, 0)"><path d="M167.1866842,-75.6650356L157.196202,-75.2288417" /></g>
<g stroke="rgb(0, 0, 0)"><path d="M157.196202,-75.2288417L157.0217244,-79.2250346" /></g>
<g stroke="rgb(0, 0, 0)"><path d="M157.763254,-62.2412148L161.160018,-62.3895207" /></g>
<g stroke="rgb(0, 0, 0)"><path d="M164.3569723,-62.5291028L167.7537362,-62.6774087" /></g>
<g stroke="rgb(0, 0, 0)"><path d="M167.7537362,-62.6774087L167.9282138,-58.6812158" /></g>
<g stroke="rgb(0, 0, 0)"><path d="M167.9282138,-58.6812158L157.9377316,-58.2450219" /></g>
<g stroke="rgb(0, 0, 0)"><path d="M157.9377316,-58.2450219L157.763254,-62.2412148" /></g>
<g stroke="rgb(0, 0, 0)"><path d="M177.6248893,-106.6586973L181.0119513,-106.9550268" /></g>
<g stroke="rgb(0, 0, 0)"><path d="M184.1997743,-107.2339252L187.5868363,-107.5302547" /></g>
<g stroke="rgb(0, 0, 0)"><path d="M187.5868363,-107.5302547L187.9354593,-103.5454759" /></g>
<g stroke="rgb(0, 0, 0)"><path d="M187.9354593,-103.5454759L177.9735123,-102.6739185" /></g>
<g stroke="rgb(0, 0, 0)"><path d="M177.9735123,-102.6739185L177.6248893,-106.6586973" /></g>
<g stroke="rgb(0, 0, 0)"><path d="M179.1065369,-89.7233874L182.4935989,-90.0197169" /></g>
<g stroke="rgb(0, 0, 0)"><path d="M185.6814219,-90.2986153L189.0684839,-90.5949448" /></g>
<g stroke="rgb(0, 0, 0)"><path d="M189.0684839,-90.5949448L189.4171069,-86.610166" /></g>
<g stroke="rgb(0, 0, 0)"><path d="M189.4171069,-86.610166L179.4551599,-85.7386086" /></g>
<g stroke="rgb(0, 0, 0)"><path d="M179.4551599,-85.7386086L179.1065369,-89.7233874" /></g>
<g stroke="rgb(0, 0, 0)"><path d="M180.5881845,-72.7880775L183.9752465,-73.084407" /></g>
<g stroke="rgb(0, 0, 0)"><path d="M187.1630695,-73.3633054L190.5501315,-73.6596349" /></g>
<g stroke="rgb(0, 0, 0)"><path d="M190.5501315,-73.6596349L190.8987545,-69.6748561" /></g>
<g stroke="rgb(0, 0, 0)"><path d="M190.8987545,-69.6748561L180.9368075,-68.8032987" /></g>
<g stroke="rgb(0, 0, 0)"><path d="M180.9368075,-68.8032987L180.5881845,-72.7880775" /></g>
<g stroke="rgb(0, 0, 0)"><path d="M202.0129186,-103.2713643L202.3092481,-99.8843023" /></g>
<g stroke="rgb(0, 0, 0)"><path d="M202.5881465,-96.6964793L202.884476,-93.3094173" /></g>
<g stroke="rgb(0, 0, 0)"><path d="M202.884476,-93.3094173L198.8996972,-92.9607943" /></g>
<g stroke="rgb(0, 0, 0)"><path d="M198.8996972,-92.9607943L198.0281398,-102.9227413" /></g>
<g stroke="rgb(0, 0, 0)"><path d="M198.0281398,-102.9227413L202.0129186,-103.2713643" /></g>
<g stroke="rgb(0, 0, 0)"><path d="M203.8649781,-82.102227L204.1613076,-78.715165" /></g>
<g stroke="rgb(0, 0, 0)"><path d="M204.440206,-75.527342L204.7365355,-72.14028" /></g>
<g stroke="rgb(0, 0, 0)"><path d="M204.7365355,-72.14028L200.7517567,-71.791657" /></g>
<g stroke="rgb(0, 0, 0)"><path d="M200.7517567,-71.791657L199.8801993,-81.753604" /></g>
<g stroke="rgb(0, 0, 0)"><path d="M199.8801993,-81.753604L203.8649781,-82.102227" /></g>
<g stroke="rgb(0, 0, 0)"><path d="M80.8958537,-135.0749146L80.1889539,-131.7492128" /></g>
<g stroke="rgb(0, 0, 0)"><path d="M79.5236365,-128.6191405L78.8167367,-125.2934386" /></g>
<g stroke="rgb(0, 0, 0)"><path d="M78.8167367,-125.2934386L74.9041463,-126.1250854" /></g>
<g stroke="rgb(0, 0, 0)"><path d="M74.9041463,-126.1250854L76.9832633,-135.9065614" /></g>
<g stroke="rgb(0, 0, 0)"><path d="M76.9832633,-135.9065614L80.8958537,-135.0749146" /></g>
<g stroke="rgb(0, 0, 0)"><path d="M97.2903649,-129.0928174L96.7584877,-125.734677" /></g>
<g stroke="rgb(0, 0, 0)"><path d="M96.2578974,-122.5740743L95.7260203,-119.215934" /></g>
<g stroke="rgb(0, 0, 0)"><path d="M95.7260203,-119.215934L91.7752669,-119.8416718" /></g>
<g stroke="rgb(0, 0, 0)"><path d="M91.7752669,-119.8416718L93.3396115,-129.7185552" /></g>
<g stroke="rgb(0, 0, 0)"><path d="M93.3396115,-129.7185552L97.2903649,-129.0928174" /></g>
<g stroke="rgb(0, 0, 0)"><path d="M114.5766616,-124.6481897L114.7546039,-121.2528492" /></g>
<g stroke="rgb(0, 0, 0)"><path d="M114.9220789,-118.0572347L115.1000212,-114.6618943" /></g>
<g stroke="rgb(0, 0, 0)"><path d="M115.1000212,-114.6618943L111.105503,-114.4525505" /></g>
<g stroke="rgb(0, 0, 0)"><path d="M111.105503,-114.4525505L110.5821434,-124.4388459" /></g>
<g stroke="rgb(0, 0, 0)"><path d="M110.5821434,-124.4388459L114.5766616,-124.6481897" /></g>
<g stroke="rgb(0, 0, 0)"><path d="M98.4,-103.2L101.6,-103.2" /></g>
<g stroke="rgb(0, 0, 0)"><path d="M101.6,-103.2L101.6,-102" /></g>
<g stroke="rgb(0, 0, 0)"><path d="M98.4,-102L98.4,-103.2" /></g>
<g stroke="rgb(0, 0, 0)"><path d="M98.4,-86.2L101.6,-86.2" /></g>
<g stroke="rgb(0, 0, 0)"><path d="M101.6,-86.2L101.6,-85" /></g>
<g stroke="rgb(0, 0, 0)"><path d="M98.4,-85L98.4,-86.2" /></g>
<g stroke="rgb(0, 0, 0)"><path d="M98.4,-69.2L101.6,-69.2" /></g>
<g stroke="rgb(0, 0, 0)"><path d="M101.6,-69.2L101.6,-68" /></g>
<g stroke="rgb(0, 0, 0)"><path d="M98.4,-68L98.4,-69.2" /></g>
<g stroke="rgb(0, 0, 0)"><path d="M115.4,-103.2L118.6,-103.2" /></g>
<g stroke="rgb(0, 0, 0)"><path d="M118.6,-103.2L118.6,-102" /></g>
<g stroke="rgb(0, 0, 0)"><path d="M115.4,-102L115.4,-103.2" /></g>
<g stroke="rgb(0, 0, 0)"><path d="M115.4,-86.2L118.6,-86.2" /></g>
<g stroke="rgb(0, 0, 0)"><path d="M118.6,-86.2L118.6,-85" /></g>
<g stroke="rgb(0, 0, 0)"><path d="M115.4,-85L115.4,-86.2" /></g>
<g stroke="rgb(0, 0, 0)"><path d="M115.4,-69.2L118.6,-69.2" /></g>
<g stroke="rgb(0, 0, 0)"><path d="M118.6,-69.2L118.6,-68" /></g>
<g stroke="rgb(0, 0, 0)"><path d="M115.4,-68L115.4,-69.2" /></g>
<g stroke="rgb(0, 0, 0)"><path d="M136.4,-95.55L139.6,-95.55" /></g>
<g stroke="rgb(0, 0, 0)"><path d="M139.6,-95.55L139.6,-94.35" /></g>
<g stroke="rgb(0, 0, 0)"><path d="M136.4,-94.35L136.4,-95.55" /></g>
<g stroke="rgb(0, 0, 0)"><path d="M136.4,-78.55L139.6,-78.55" /></g>
<g stroke="rgb(0, 0, 0)"><path d="M139.6,-78.55L139.6,-77.35" /></g>
<g stroke="rgb(0, 0, 0)"><path d="M136.4,-77.35L136.4,-78.55" /></g>
<g stroke="rgb(0, 0, 0)"><path d="M136.4,-61.55L139.6,-61.55" /></g>
<g stroke="rgb(0, 0, 0)"><path d="M139.6,-61.55L139.6,-60.35" /></g>
<g stroke="rgb(0, 0, 0)"><path d="M136.4,-60.35L136.4,-61.55" /></g>
<g stroke="rgb(0, 0, 0)"><path d="M159.6246155,-97.5560182L162.8215698,-97.6956003" /></g>
<g stroke="rgb(0, 0, 0)"><path d="M162.8215698,-97.6956003L162.8739131,-96.4967424" /></g>
<g stroke="rgb(0, 0, 0)"><path d="M159.6769588,-96.3571603L159.6246155,-97.5560182" /></g>
<g stroke="rgb(0, 0, 0)"><path d="M160.3661451,-80.5721984L163.5630994,-80.7117805" /></g>
<g stroke="rgb(0, 0, 0)"><path d="M163.5630994,-80.7117805L163.6154427,-79.5129226" /></g>
<g stroke="rgb(0, 0, 0)"><path d="M160.4184884,-79.3733405L160.3661451,-80.5721984" /></g>
<g stroke="rgb(0, 0, 0)"><path d="M161.1076747,-63.5883786L164.304629,-63.7279607" /></g>
<g stroke="rgb(0, 0, 0)"><path d="M164.304629,-63.7279607L164.3569723,-62.5291028" /></g>
<g stroke="rgb(0, 0, 0)"><path d="M161.160018,-62.3895207L161.1076747,-63.5883786" /></g>
<g stroke="rgb(0, 0, 0)"><path d="M180.9073644,-108.1504604L184.0951874,-108.4293588" /></g>
<g stroke="rgb(0, 0, 0)"><path d="M184.0951874,-108.4293588L184.1997743,-107.2339252" /></g>
<g stroke="rgb(0, 0, 0)"><path d="M181.0119513,-106.9550268L180.9073644,-108.1504604" /></g>
<g stroke="rgb(0, 0, 0)"><path d="M182.389012,-91.2151505L185.576835,-91.4940489" /></g>
<g stroke="rgb(0, 0, 0)"><path d="M185.576835,-91.4940489L185.6814219,-90.2986153" /></g>
<g stroke="rgb(0, 0, 0)"><path d="M182.4935989,-90.0197169L182.389012,-91.2151505" /></g>
<g stroke="rgb(0, 0, 0)"><path d="M183.8706596,-74.2798406L187.0584826,-74.558739" /></g>
<g stroke="rgb(0, 0, 0)"><path d="M187.0584826,-74.558739L187.1630695,-73.3633054" /></g>
<g stroke="rgb(0, 0, 0)"><path d="M183.9752465,-73.084407L183.8706596,-74.2798406" /></g>
<g stroke="rgb(0, 0, 0)"><path d="M203.5046817,-99.9888892L203.7835801,-96.8010662" /></g>
<g stroke="rgb(0, 0, 0)"><path d="M203.7835801,-96.8010662L202.5881465,-96.6964793" /></g>
<g stroke="rgb(0, 0, 0)"><path d="M202.3092481,-99.8843023L203.5046817,-99.9888892" /></g>
<g stroke="rgb(0, 0, 0)"><path d="M205.3567412,-78.8197519L205.6356396,-75.6319289" /></g>
<g stroke="rgb(0, 0, 0)"><path d="M205.6356396,-75.6319289L204.440206,-75.527342" /></g>
<g stroke="rgb(0, 0, 0)"><path d="M204.1613076,-78.715165L205.3567412,-78.8197519" /></g>
<g stroke="rgb(0, 0, 0)"><path d="M81.362731,-131.4997188L80.6974136,-128.3696465" /></g>
<g stroke="rgb(0, 0, 0)"><path d="M80.6974136,-128.3696465L79.5236365,-128.6191405" /></g>
<g stroke="rgb(0, 0, 0)"><path d="M80.1889539,-131.7492128L81.362731,-131.4997188" /></g>
<g stroke="rgb(0, 0, 0)"><path d="M97.9437137,-125.5469556L97.4431234,-122.3863529" /></g>
<g stroke="rgb(0, 0, 0)"><path d="M97.4431234,-122.3863529L96.2578974,-122.5740743" /></g>
<g stroke="rgb(0, 0, 0)"><path d="M96.7584877,-125.734677L97.9437137,-125.5469556" /></g>
<g stroke="rgb(0, 0, 0)"><path d="M115.9529592,-121.3156524L116.1204343,-118.1200379" /></g>
<g stroke="rgb(0, 0, 0)"><path d="M116.1204343,-118.1200379L114.9220789,-118.0572347" /></g>
<g stroke="rgb(0, 0, 0)"><path d="M114.7546039,-121.2528492L115.9529592,-121.3156524" /></g>
<g stroke="rgb(0, 0, 0)"><circle cx="100" cy="-100" r="1.6" /></g>
<g stroke="rgb(0, 0, 0)"><circle cx="100" cy="-83" r="1.6" /></g>
<g stroke="rgb(0, 0, 0)"><circle cx="100" cy="-66" r="1.6" /></g>
<g stroke="rgb(0, 0, 0)"><circle cx="117" cy="-100" r="1.6" /></g>
<g stroke="rgb(0, 0, 0)"><circle cx="117" cy="-83" r="1.6" /></g>
<g stroke="rgb(0, 0, 0)"><circle cx="117" cy="-66" r="1.6" /></g>
<g stroke="rgb(0, 0, 0)"><circle cx="138" cy="-92.35" r="1.6" /></g>
<g stroke="rgb(0, 0, 0)"><circle cx="138" cy="-75.35" r="1.6" /></g>
<g stroke="rgb(0, 0, 0)"><circle cx="138" cy="-58.35" r="1.6" /></g>
<g stroke="rgb(0, 0, 0)"><circle cx="161.3626747" cy="-94.4288549" r="1.6" /></g>
<g stroke="rgb(0, 0, 0)"><circle cx="162.1042043" cy="-77.4450351" r="1.6" /></g>
<g stroke="rgb(0, 0, 0)"><circle cx="162.8457339" cy="-60.4612153" r="1.6" /></g>
<g stroke="rgb(0, 0, 0)"><circle cx="182.7801743" cy="-105.1020866" r="1.6" /></g>
<g stroke="rgb(0, 0, 0)"><circle cx="184.2618219" cy="-88.1667767" r="1.6" /></g>
<g stroke="rgb(0, 0, 0)"><circle cx="185.7434695" cy="-71.2314668" r="1.6" /></g>
<g stroke="rgb(0, 0, 0)"><circle cx="200.4563079" cy="-98.1160793" r="1.6" /></g>
<g stroke="rgb(0, 0, 0)"><circle cx="202.3083674" cy="-76.946942" r="1.6" /></g>
<g stroke="rgb(0, 0, 0)"><circle cx="77.9" cy="-130.6" r="1.6" /></g>
<g stroke="rgb(0, 0, 0)"><circle cx="94.5328159" cy="-124.4672446" r="1.6" /></g>
<g stroke="rgb(0, 0, 0)"><circle cx="112.8410823" cy="-119.5503701" r="1.6" /></g>
<g stroke="rgb(0, 0, 0)"><path d="M96.55,-101.5L97.75,-101.5" /></g>
<g stroke="rgb(0, 0, 0)"><path d="M97.75,-101.5L97.75,-98.5" /></g>
<g stroke="rgb(0, 0, 0)"><path d="M97.75,-98.5L96.55,-98.5" /></g>
<g stroke="rgb(0, 0, 0)"><path d="M96.55,-98.5L96.55,-101.5" /></g>
<g stroke="rgb(0, 0, 0)"><path d="M96.55,-84.5L97.75,-84.5" /></g>
<g stroke="rgb(0, 0, 0)"><path d="M97.75,-84.5L97.75,-81.5" /></g>
<g stroke="rgb(0, 0, 0)"><path d="M97.75,-81.5L96.55,-81.5" /></g>
<g stroke="rgb(0, 0, 0)"><path d="M96.55,-81.5L96.55,-84.5" /></g>
<g stroke="rgb(0, 0, 0)"><path d="M96.55,-67.5L97.75,-67.5" /></g>
<g stroke="rgb(0, 0, 0)"><path d="M97.75,-67.5L97.75,-64.5" /></g>
<g stroke="rgb(0, 0, 0)"><path d="M97.75,-64.5L96.55,-64.5" /></g>
<g stroke="rgb(0, 0, 0)"><path d="M96.55,-64.5L96.55,-67.5" /></g>
<g stroke="rgb(0, 0, 0)"><path d="M113.55,-101.5L114.75,-101.5" /></g>
<g stroke="rgb(0, 0, 0)"><path d="M114.75,-101.5L114.75,-98.5" /></g>
<g stroke="rgb(0, 0, 0)"><path d="M114.75,-98.5L113.55,-98.5" /></g>
<g stroke="rgb(0, 0, 0)"><path d="M113.55,-98.5L113.55,-101.5" /></g>
<g stroke="rgb(0, 0, 0)"><path d="M113.55,-84.5L114.75,-84.5" /></g>
<g stroke="rgb(0, 0, 0)"><path d="M114.75,-84.5L114.75,-81.5" /></g>
<g stroke="rgb(0, 0, 0)"><path d="M114.75,-81.5L113.55,-81.5" /></g>
<g stroke="rgb(0, 0, 0)"><path d="M113.55,-81.5L113.55,-84.5" /></g>
<g stroke="rgb(0, 0, 0)"><path d="M113.55,-67.5L114.75,-67.5" /></g>
<g stroke="rgb(0, 0, 0)"><path d="M114.75,-67.5L114.75,-64.5" /></g>
<g stroke="rgb(0, 0, 0)"><path d="M114.75,-64.5L113.55,-64.5" /></g>
<g stroke="rgb(0, 0, 0)"><path d="M113.55,-64.5L113.55,-67.5" /></g>
<g stroke="rgb(0, 0, 0)"><path d="M134.55,-93.85L135.75,-93.85" /></g>
<g stroke="rgb(0, 0, 0)"><path d="M135.75,-93.85L135.75,-90.85" /></g>
<g stroke="rgb(0, 0, 0)"><path d="M135.75,-90.85L134.55,-90.85" /></g>
<g stroke="rgb(0, 0, 0)"><path d="M134.55,-90.85L134.55,-93.85" /></g>
<g stroke="rgb(0, 0, 0)"><path d="M134.55,-76.85L135.75,-76.85" /></g>
<g stroke="rgb(0, 0, 0)"><path d="M135.75,-76.85L135.75,-73.85" /></g>
<g stroke="rgb(0, 0, 0)"><path d="M135.75,-73.85L134.55,-73.85" /></g>
<g stroke="rgb(0, 0, 0)"><path d="M134.55,-73.85L134.55,-76.85" /></g>
<g stroke="rgb(0, 0, 0)"><path d="M134.55,-59.85L135.75,-59.85" /></g>
<g stroke="rgb(0, 0, 0)"><path d="M135.75,-59.85L135.75,-56.85" /></g>
<g stroke="rgb(0, 0, 0)"><path d="M135.75,-56.85L134.55,-56.85" /></g>
<g stroke="rgb(0, 0, 0)"><path d="M134.55,-56.85L134.55,-59.85" /></g>
<g stroke="rgb(0, 0, 0)"><path d="M157.8505293,-95.7769403L159.0493872,-95.8292836" /></g>
<g stroke="rgb(0, 0, 0)"><path d="M159.0493872,-95.8292836L159.1802453,-92.8321389" /></g>
<g stroke="rgb(0, 0, 0)"><path d="M159.1802453,-92.8321389L157.9813874,-92.7797956" /></g>
<g stroke="rgb(0, 0, 0)"><path d="M157.9813874,-92.7797956L157.8505293,-95.7769403" /></g>
<g stroke="rgb(0, 0, 0)"><path d="M158.5920589,-78.7931205L159.7909168,-78.8454638" /></g>
<g stroke="rgb(0, 0, 0)"><path d="M159.7909168,-78.8454638L159.9217749,-75.8483191" /></g>
<g stroke="rgb(0, 0, 0)"><path d="M159.9217749,-75.8483191L158.722917,-75.7959758" /></g>
<g stroke="rgb(0, 0, 0)"><path d="M158.722917,-75.7959758L158.5920589,-78.7931205" /></g>
<g stroke="rgb(0, 0, 0)"><path d="M159.3335885,-61.8093007L160.5324464,-61.861644" /></g>
<g stroke="rgb(0, 0, 0)"><path d="M160.5324464,-61.861644L160.6633045,-58.8644993" /></g>
<g stroke="rgb(0, 0, 0)"><path d="M160.6633045,-58.8644993L159.4644466,-58.812156" /></g>
<g stroke="rgb(0, 0, 0)"><path d="M159.4644466,-58.812156L159.3335885,-61.8093007" /></g>
<g stroke="rgb(0, 0, 0)"><path d="M179.212569,-106.2956913L180.4080026,-106.4002782" /></g>
<g stroke="rgb(0, 0, 0)"><path d="M180.4080026,-106.4002782L180.6694698,-103.4116941" /></g>
<g stroke="rgb(0, 0, 0)"><path d="M180.6694698,-103.4116941L179.4740362,-103.3071072" /></g>
<g stroke="rgb(0, 0, 0)"><path d="M179.4740362,-103.3071072L179.212569,-106.2956913" /></g>
<g stroke="rgb(0, 0, 0)"><path d="M180.6942166,-89.3603814L181.8896502,-89.4649683" /></g>
<g stroke="rgb(0, 0, 0)"><path d="M181.8896502,-89.4649683L182.1511174,-86.4763842" /></g>
<g stroke="rgb(0, 0, 0)"><path d="M182.1511174,-86.4763842L180.9556838,-86.3717973" /></g>
<g stroke="rgb(0, 0, 0)"><path d="M180.9556838,-86.3717973L180.6942166,-89.3603814" /></g>
<g stroke="rgb(0, 0, 0)"><path d="M182.1758642,-72.4250715L183.3712978,-72.5296584" /></g>
<g stroke="rgb(0, 0, 0)"><path d="M183.3712978,-72.5296584L183.632765,-69.5410743" /></g>
<g stroke="rgb(0, 0, 0)"><path d="M183.632765,-69.5410743L182.4373314,-69.4364874" /></g>
<g stroke="rgb(0, 0, 0)"><path d="M182.4373314,-69.4364874L182.1758642,-72.4250715" /></g>
<g stroke="rgb(0, 0, 0)"><path d="M201.6499126,-101.6836846L201.7544995,-100.488251" /></g>
<g stroke="rgb(0, 0, 0)"><path d="M201.7544995,-100.488251L198.7659154,-100.2267838" /></g>
<g stroke="rgb(0, 0, 0)"><path d="M198.7659154,-100.2267838L198.6613285,-101.4222174" /></g>
<g stroke="rgb(0, 0, 0)"><path d="M198.6613285,-101.4222174L201.6499126,-101.6836846" /></g>
<g stroke="rgb(0, 0, 0)"><path d="M203.5019721,-80.5145473L203.606559,-79.3191137" /></g>
<g stroke="rgb(0, 0, 0)"><path d="M203.606559,-79.3191137L200.6179749,-79.0576465" /></g>
<g stroke="rgb(0, 0, 0)"><path d="M200.6179749,-79.0576465L200.513388,-80.2530801" /></g>
<g stroke="rgb(0, 0, 0)"><path d="M200.513388,-80.2530801L203.5019721,-80.5145473" /></g>
<g stroke="rgb(0, 0, 0)"><path d="M80.0845167,-133.6627417L79.8350227,-132.4889646" /></g>
<g stroke="rgb(0, 0, 0)"><path d="M79.8350227,-132.4889646L76.9005799,-133.1126997" /></g>
<g stroke="rgb(0, 0, 0)"><path d="M76.9005799,-133.1126997L77.1500739,-134.2864768" /></g>
<g stroke="rgb(0, 0, 0)"><path d="M77.1500739,-134.2864768L80.0845167,-133.6627417" /></g>
<g stroke="rgb(0, 0, 0)"><path d="M96.5540473,-127.6401177L96.3663259,-126.4548917" /></g>
<g stroke="rgb(0, 0, 0)"><path d="M96.3663259,-126.4548917L93.4032609,-126.9241951" /></g>
<g stroke="rgb(0, 0, 0)"><path d="M93.4032609,-126.9241951L93.5909823,-128.1094211" /></g>
<g stroke="rgb(0, 0, 0)"><path d="M93.5909823,-128.1094211L96.5540473,-127.6401177" /></g>
<g stroke="rgb(0, 0, 0)"><path d="M114.1584675,-123.074146L114.2212707,-121.8757905" /></g>
<g stroke="rgb(0, 0, 0)"><path d="M114.2212707,-121.8757905L111.2253821,-121.7187826" /></g>
<g stroke="rgb(0, 0, 0)"><path d="M111.2253821,-121.7187826L111.1625789,-122.9171381" /></g>
<g stroke="rgb(0, 0, 0)"><path d="M111.1625789,-122.9171381L114.1584675,-123.074146" /></g>
<g stroke="rgb(0, 0, 0)"><path d="M102.25,-101.5L103.45,-101.5" /></g>
<g stroke="rgb(0, 0, 0)"><path d="M103.45,-101.5L103.45,-98.5" /></g>
<g stroke="rgb(0, 0, 0)"><path d="M103.45,-98.5L102.25,-98.5" /></g>
<g stroke="rgb(0, 0, 0)"><path d="M102.25,-98.5L102.25,-101.5" /></g>
<g stroke="rgb(0, 0, 0)"><path d="M102.25,-84.5L103.45,-84.5" /></g>
<g stroke="rgb(0, 0, 0)"><path d="M103.45,-84.5L103.45,-81.5" /></g>
<g stroke="rgb(0, 0, 0)"><path d="M103.45,-81.5L102.25,-81.5" /></g>
<g stroke="rgb(0, 0, 0)"><path d="M102.25,-81.5L102.25,-84.5" /></g>
<g stroke="rgb(0, 0, 0)"><path d="M102.25,-67.5L103.45,-67.5" /></g>
<g stroke="rgb(0, 0, 0)"><path d="M103.45,-67.5L103.45,-64.5" /></g>
<g stroke="rgb(0, 0, 0)"><path d="M103.45,-64.5L102.25,-64.5" /></g>
<g stroke="rgb(0, 0, 0)"><path d="M102.25,-64.5L102.25,-67.5" /></g>
<g stroke="rgb(0, 0, 0)"><path d="M119.25,-101.5L120.45,-101.5" /></g>
<g stroke="rgb(0, 0, 0)"><path d="M120.45,-101.5L120.45,-98.5" /></g>
<g stroke="rgb(0, 0, 0)"><path d="M120.45,-98.5L119.25,-98.5" /></g>
<g stroke="rgb(0, 0, 0)"><path d="M119.25,-98.5L119.25,-101.5" /></g>
<g stroke="rgb(0, 0, 0)"><path d="M119.25,-84.5L120.45,-84.5" /></g>
<g stroke="rgb(0, 0, 0)"><path d="M120.45,-84.5L120.45,-81.5" /></g>
<g stroke="rgb(0, 0, 0)"><path d="M120.45,-81.5L119.25,-81.5" /></g>
<g stroke="rgb(0, 0, 0)"><path d="M119.25,-81.5L119.25,-84.5" /></g>
<g stroke="rgb(0, 0, 0)"><path d="M119.25,-67.5L120.45,-67.5" /></g>
<g stroke="rgb(0, 0, 0)"><path d="M120.45,-67.5L120.45,-64.5" /></g>
<g stroke="rgb(0, 0, 0)"><path d="M120.45,-64.5L119.25,-64.5" /></g>
<g stroke="rgb(0, 0, 0)"><path d="M119.25,-64.5L119.25,-67.5" /></g>
<g stroke="rgb(0, 0, 0)"><path d="M140.25,-93.85L141.45,-93.85" /></g>
<g stroke="rgb(0, 0, 0)"><path d="M141.45,-93.85L141.45,-90.85" /></g>
<g stroke="rgb(0, 0, 0)"><path d="M141.45,-90.85L140.25,-90.85" /></g>
<g stroke="rgb(0, 0, 0)"><path d="M140.25,-90.85L140.25,-93.85" /></g>
<g stroke="rgb(0, 0, 0)"><path d="M140.25,-76.85L141.45,-76.85" /></g>
<g stroke="rgb(0, 0, 0)"><path d="M141.45,-76.85L141.45,-73.85" /></g>
<g stroke="rgb(0, 0, 0)"><path d="M141.45,-73.85L140.25,-73.85" /></g>
<g stroke="rgb(0, 0, 0)"><path d="M140.25,-73.85L140.25,-76.85" /></g>
<g stroke="rgb(0, 0, 0)"><path d="M140.25,-59.85L141.45,-59.85" /></g>
<g stroke="rgb(0, 0, 0)"><path d="M141.45,-59.85L141.45,-56.85" /></g>
<g stroke="rgb(0, 0, 0)"><path d="M141.45,-56.85L140.25,-56.85" /></g>
<g stroke="rgb(0, 0, 0)"><path d="M140.25,-56.85L140.25,-59.85" /></g>
<g stroke="rgb(0, 0, 0)"><path d="M163.5451041,-96.0255709L164.743962,-96.0779142" /></g>
<g stroke="rgb(0, 0, 0)"><path d="M164.743962,-96.0779142L164.8748201,-93.0807695" /></g>
<g stroke="rgb(0, 0, 0)"><path d="M164.8748201,-93.0807695L163.6759622,-93.0284262" /></g>
<g stroke="rgb(0, 0, 0)"><path d="M163.6759622,-93.0284262L163.5451041,-96.0255709" /></g>
<g stroke="rgb(0, 0, 0)"><path d="M164.2866337,-79.0417511L165.4854916,-79.0940944" /></g>
<g stroke="rgb(0, 0, 0)"><path d="M165.4854916,-79.0940944L165.6163497,-76.0969497" /></g>
<g stroke="rgb(0, 0, 0)"><path d="M165.6163497,-76.0969497L164.4174918,-76.0446064" /></g>
<g stroke="rgb(0, 0, 0)"><path d="M164.4174918,-76.0446064L164.2866337,-79.0417511" /></g>
<g stroke="rgb(0, 0, 0)"><path d="M165.0281633,-62.0579313L166.2270212,-62.1102746" /></g>
<g stroke="rgb(0, 0, 0)"><path d="M166.2270212,-62.1102746L166.3578793,-59.1131299" /></g>
<g stroke="rgb(0, 0, 0)"><path d="M166.3578793,-59.1131299L165.1590214,-59.0607866" /></g>
<g stroke="rgb(0, 0, 0)"><path d="M165.1590214,-59.0607866L165.0281633,-62.0579313" /></g>
<g stroke="rgb(0, 0, 0)"><path d="M184.8908788,-106.7924791L186.0863124,-106.897066" /></g>
<g stroke="rgb(0, 0, 0)"><path d="M186.0863124,-106.897066L186.3477796,-103.9084819" /></g>
<g stroke="rgb(0, 0, 0)"><path d="M186.3477796,-103.9084819L185.152346,-103.803895" /></g>
<g stroke="rgb(0, 0, 0)"><path d="M185.152346,-103.803895L184.8908788,-106.7924791" /></g>
<g stroke="rgb(0, 0, 0)"><path d="M186.3725264,-89.8571692L187.56796,-89.9617561" /></g>
<g stroke="rgb(0, 0, 0)"><path d="M187.56796,-89.9617561L187.8294272,-86.973172" /></g>
<g stroke="rgb(0, 0, 0)"><path d="M187.8294272,-86.973172L186.6339936,-86.8685851" /></g>
<g stroke="rgb(0, 0, 0)"><path d="M186.6339936,-86.8685851L186.3725264,-89.8571692" /></g>
<g stroke="rgb(0, 0, 0)"><path d="M187.854174,-72.9218593L189.0496076,-73.0264462" /></g>
<g stroke="rgb(0, 0, 0)"><path d="M189.0496076,-73.0264462L189.3110748,-70.0378621" /></g>
<g stroke="rgb(0, 0, 0)"><path d="M189.3110748,-70.0378621L188.1156412,-69.9332752" /></g>
<g stroke="rgb(0, 0, 0)"><path d="M188.1156412,-69.9332752L187.854174,-72.9218593" /></g>
<g stroke="rgb(0, 0, 0)"><path d="M202.1467004,-96.0053748L202.2512873,-94.8099412" /></g>
<g stroke="rgb(0, 0, 0)"><path d="M202.2512873,-94.8099412L199.2627032,-94.548474" /></g>
<g stroke="rgb(0, 0, 0)"><path d="M199.2627032,-94.548474L199.1581163,-95.7439076" /></g>
<g stroke="rgb(0, 0, 0)"><path d="M199.1581163,-95.7439076L202.1467004,-96.0053748" /></g>
<g stroke="rgb(0, 0, 0)"><path d="M203.9987599,-74.8362375L204.1033468,-73.6408039" /></g>
<g stroke="rgb(0, 0, 0)"><path d="M204.1033468,-73.6408039L201.1147627,-73.3793367" /></g>
<g stroke="rgb(0, 0, 0)"><path d="M201.1147627,-73.3793367L201.0101758,-74.5747703" /></g>
<g stroke="rgb(0, 0, 0)"><path d="M201.0101758,-74.5747703L203.9987599,-74.8362375" /></g>
<g stroke="rgb(0, 0, 0)"><path d="M78.8994201,-128.0873003L78.6499261,-126.9135232" /></g>
<g stroke="rgb(0, 0, 0)"><path d="M78.6499261,-126.9135232L75.7154833,-127.5372583" /></g>
<g stroke="rgb(0, 0, 0)"><path d="M75.7154833,-127.5372583L75.9649773,-128.7110354" /></g>
<g stroke="rgb(0, 0, 0)"><path d="M75.9649773,-128.7110354L78.8994201,-128.0873003" /></g>
<g stroke="rgb(0, 0, 0)"><path d="M95.6623709,-122.0102941L95.4746495,-120.8250681" /></g>
<g stroke="rgb(0, 0, 0)"><path d="M95.4746495,-120.8250681L92.5115845,-121.2943715" /></g>
<g stroke="rgb(0, 0, 0)"><path d="M92.5115845,-121.2943715L92.6993059,-122.4795975" /></g>
<g stroke="rgb(0, 0, 0)"><path d="M92.6993059,-122.4795975L95.6623709,-122.0102941" /></g>
<g stroke="rgb(0, 0, 0)"><path d="M114.4567825,-117.3819576L114.5195857,-116.1836021" /></g>
<g stroke="rgb(0, 0, 0)"><path d="M114.5195857,-116.1836021L111.5236971,-116.0265942" /></g>
<g stroke="rgb(0, 0, 0)"><path d="M111.5236971,-116.0265942L111.4608939,-117.2249497" /></g>
<g stroke="rgb(0, 0, 0)"><path d="M111.4608939,-117.2249497L114.4567825,-117.3819576" /></g>
<g stroke="rgb(0, 0, 0)"><path d="M93.25,-108.25L106.75,-108.25" /></g>
<g stroke="rgb(0, 0, 0)"><path d="M 106.75 -108.25 A 1.5 1.5 0 0 1 108.25 -106.75" /></g>
<g stroke="rgb(0, 0, 0)"><path d="M108.25,-106.75L108.25,-93.25" /></g>
<g stroke="rgb(0, 0, 0)"><path d="M 108.25 -93.25 A 1.5 1.5 0 0 1 106.75 -91.75" /></g>
<g stroke="rgb(0, 0, 0)"><path d="M106.75,-91.75L93.25,-91.75" /></g>
<g stroke="rgb(0, 0, 0)"><path d="M 93.25 -91.75 A 1.5 1.5 0 0 1 91.75 -93.25" /></g>
<g stroke="rgb(0, 0, 0)"><path d="M91.75,-93.25L91.75,-106.75" /></g>
<g stroke="rgb(0, 0, 0)"><path d="M 91.75 -106.75 A 1.5 1.5 0 0 1 93.25 -108.25" /></g>
<g stroke="rgb(0, 0, 0)"><path d="M93.25,-91.25L106.75,-91.25" /></g>
<g stroke="rgb(0, 0, 0)"><path d="M 106.75 -91.25 A 1.5 1.5 0 0 1 108.25 -89.75" /></g>
<g stroke="rgb(0, 0, 0)"><path d="M108.25,-89.75L108.25,-76.25" /></g>
<g stroke="rgb(0, 0, 0)"><path d="M 108.25 -76.25 A 1.5 1.5 0 0 1 106.75 -74.75" /></g>
<g stroke="rgb(0, 0, 0)"><path d="M106.75,-74.75L93.25,-74.75" /></g>
<g stroke="rgb(0, 0, 0)"><path d="M 93.25 -74.75 A 1.5 1.5 0 0 1 91.75 -76.25" /></g>
<g stroke="rgb(0, 0, 0)"><path d="M91.75,-76.25L91.75,-89.75" /></g>
<g stroke="rgb(0, 0, 0)"><path d="M 91.75 -89.75 A 1.5 1.5 0 0 1 93.25 -91.25" /></g>
<g stroke="rgb(0, 0, 0)"><path d="M93.25,-74.25L106.75,-74.25" /></g>
<g stroke="rgb(0, 0, 0)"><path d="M 106.75 -74.25 A 1.5 1.5 0 0 1 108.25 -72.75" /></g>
<g stroke="rgb(0, 0, 0)"><path d="M108.25,-72.75L108.25,-59.25" /></g>
<g stroke="rgb(0, 0, 0)"><path d="M 108.25 -59.25 A 1.5 1.5 0 0 1 106.75 -57.75" /></g>
<g stroke="rgb(0, 0, 0)"><path d="M106.75,-57.75L93.25,-57.75" /></g>
<g stroke="rgb(0, 0, 0)"><path d="M 93.25 -57.75 A 1.5 1.5 0 0 1 91.75 -59.25" /></g>
<g stroke="rgb(0, 0, 0)"><path d="M91.75,-59.25L91.75,-72.75" /></g>
<g stroke="rgb(0, 0, 0)"><path d="M 91.75 -72.75 A 1.5 1.5 0 0 1 93.25 -74.25" /></g>
<g stroke="rgb(0, 0, 0)"><path d="M110.25,-108.25L123.75,-108.25" /></g>
<g stroke="rgb(0, 0, 0)"><path d="M 123.75 -108.25 A 1.5 1.5 0 0 1 125.25 -106.75" /></g>
<g stroke="rgb(0, 0, 0)"><path d="M125.25,-106.75L125.25,-93.25" /></g>
<g stroke="rgb(0, 0, 0)"><path d="M 125.25 -93.25 A 1.5 1.5 0 0 1 123.75 -91.75" /></g>
<g stroke="rgb(0, 0, 0)"><path d="M123.75,-91.75L110.25,-91.75" /></g>
<g stroke="rgb(0, 0, 0)"><path d="M 110.25 -91.75 A 1.5 1.5 0 0 1 108.75 -93.25" /></g>
<g stroke="rgb(0, 0, 0)"><path d="M108.75,-93.25L108.75,-106.75" /></g>
<g stroke="rgb(0, 0, 0)"><path d="M 108.75 -106.75 A 1.5 1.5 0 0 1 110.25 -108.25" /></g>
<g stroke="rgb(0, 0, 0)"><path d="M110.25,-91.25L123.75,-91.25" /></g>
<g stroke="rgb(0, 0, 0)"><path d="M 123.75 -91.25 A 1.5 1.5 0 0 1 125.25 -89.75" /></g>
<g stroke="rgb(0, 0, 0)"><path d="M125.25,-89.75L125.25,-76.25" /></g>
<g stroke="rgb(0, 0, 0)"><path d="M 125.25 -76.25 A 1.5 1.5 0 0 1 123.75 -74.75" /></g>
<g stroke="rgb(0, 0, 0)"><path d="M123.75,-74.75L110.25,-74.75" /></g>
<g stroke="rgb(0, 0, 0)"><path d="M 110.25 -74.75 A 1.5 1.5 0 0 1 108.75 -76.25" /></g>
<g stroke="rgb(0, 0, 0)"><path d="M108.75,-76.25L108.75,-89.75" /></g>
<g stroke="rgb(0, 0, 0)"><path d="M 108.75 -89.75 A 1.5 1.5 0 0 1 110.25 -91.25" /></g>
<g stroke="rgb(0, 0, 0)"><path d="M110.25,-74.25L123.75,-74.25" /></g>
<g stroke="rgb(0, 0, 0)"><path d="M 123.75 -74.25 A 1.5 1.5 0 0 1 125.25 -72.75" /></g>
<g stroke="rgb(0, 0, 0)"><path d="M125.25,-72.75L125.25,-59.25" /></g>
<g stroke="rgb(0, 0, 0)"><path d="M 125.25 -59.25 A 1.5 1.5 0 0 1 123.75 -57.75" /></g>
<g stroke="rgb(0, 0, 0)"><path d="M123.75,-57.75L110.25,-57.75" /></g>
<g stroke="rgb(0, 0, 0)"><path d="M 110.25 -57.75 A 1.5 1.5 0 0 1 108.75 -59.25" /></g>
<g stroke="rgb(0, 0, 0)"><path d="M108.75,-59.25L108.75,-72.75" /></g>
<g stroke="rgb(0, 0, 0)"><path d="M 108.75 -72.75 A 1.5 1.5 0 0 1 110.25 -74.25" /></g>
<g stroke="rgb(0, 0, 0)"><path d="M131.25,-100.6L144.75,-100.6" /></g>
<g stroke="rgb(0, 0, 0)"><path d="M 144.75 -100.6 A 1.5 1.5 0 0 1 146.25 -99.1" /></g>
<g stroke="rgb(0, 0, 0)"><path d="M146.25,-99.1L146.25,-85.6" /></g>
<g stroke="rgb(0, 0, 0)"><path d="M 146.25 -85.6 A 1.5 1.5 0 0 1 144.75 -84.1" /></g>
<g stroke="rgb(0, 0, 0)"><path d="M144.75,-84.1L131.25,-84.1" /></g>
<g stroke="rgb(0, 0, 0)"><path d="M 131.25 -84.1 A 1.5 1.5 0 0 1 129.75 -85.6" /></g>
<g stroke="rgb(0, 0, 0)"><path d="M129.75,-85.6L129.75,-99.1" /></g>
<g stroke="rgb(0, 0, 0)"><path d="M 129.75 -99.1 A 1.5 1.5 0 0 1 131.25 -100.6" /></g>
<g stroke="rgb(0, 0, 0)"><path d="M131.25,-83.6L144.75,-83.6" /></g>
<g stroke="rgb(0, 0, 0)"><path d="M 144.75 -83.6 A 1.5 1.5 0 0 1 146.25 -82.1" /></g>
<g stroke="rgb(0, 0, 0)"><path d="M146.25,-82.1L146.25,-68.6" /></g>
<g stroke="rgb(0, 0, 0)"><path d="M 146.25 -68.6 A 1.5 1.5 0 0 1 144.75 -67.1" /></g>
<g stroke="rgb(0, 0, 0)"><path d="M144.75,-67.1L131.25,-67.1" /></g>
<g stroke="rgb(0, 0, 0)"><path d="M 131.25 -67.1 A 1.5 1.5 0 0 1 129.75 -68.6" /></g>
<g stroke="rgb(0, 0, 0)"><path d="M129.75,-68.6L129.75,-82.1" /></g>
<g stroke="rgb(0, 0, 0)"><path d="M 129.75 -82.1 A 1.5 1.5 0 0 1 131.25 -83.6" /></g>
<g stroke="rgb(0, 0, 0)"><path d="M131.25,-66.6L144.75,-66.6" /></g>
<g stroke="rgb(0, 0, 0)"><path d="M 144.75 -66.6 A 1.5 1.5 0 0 1 146.25 -65.1" /></g>
<g stroke="rgb(0, 0, 0)"><path d="M146.25,-65.1L146.25,-51.6" /></g>
<g stroke="rgb(0, 0, 0)"><path d="M 146.25 -51.6 A 1.5 1.5 0 0 1 144.75 -50.1" /></g>
<g stroke="rgb(0, 0, 0)"><path d="M144.75,-50.1L131.25,-50.1" /></g>
<g stroke="rgb(0, 0, 0)"><path d="M 131.25 -50.1 A 1.5 1.5 0 0 1 129.75 -51.6" /></g>
<g stroke="rgb(0, 0, 0)"><path d="M129.75,-51.6L129.75,-65.1" /></g>
<g stroke="rgb(0, 0, 0)"><path d="M 129.75 -65.1 A 1.5 1.5 0 0 1 131.25 -66.6" /></g>
<g stroke="rgb(0, 0, 0)"><path d="M154.2592393,-102.3765719L167.7463902,-102.9654336" /></g>
<g stroke="rgb(0, 0, 0)"><path d="M 167.746390218952 -102.9654336323728 A 1.5 1.5 0 0 1 169.31039163237278 -101.53229038104801" /></g>
<g stroke="rgb(0, 0, 0)"><path d="M169.3103917,-101.5322903L169.8992534,-88.0451394" /></g>
<g stroke="rgb(0, 0, 0)"><path d="M 169.8992534323728 -88.045139381048 A 1.5 1.5 0 0 1 168.466110181048 -86.4811379676272" /></g>
<g stroke="rgb(0, 0, 0)"><path d="M168.4661101,-86.4811379L154.9789592,-85.8922762" /></g>
<g stroke="rgb(0, 0, 0)"><path d="M 154.978959181048 -85.89227616762722 A 1.5 1.5 0 0 1 153.41495776762721 -87.325419418952" /></g>
<g stroke="rgb(0, 0, 0)"><path d="M153.4149577,-87.3254195L152.826096,-100.8125704" /></g>
<g stroke="rgb(0, 0, 0)"><path d="M 152.82609596762723 -100.81257041895199 A 1.5 1.5 0 0 1 154.25923921895202 -102.37657183237279" /></g>
<g stroke="rgb(0, 0, 0)"><path d="M155.0007689,-85.3927521L168.4879198,-85.9816138" /></g>
<g stroke="rgb(0, 0, 0)"><path d="M 168.487919818952 -85.98161383237279 A 1.5 1.5 0 0 1 170.0519212323728 -84.54847058104801" /></g>
<g stroke="rgb(0, 0, 0)"><path d="M170.0519213,-84.5484705L170.640783,-71.0613196" /></g>
<g stroke="rgb(0, 0, 0)"><path d="M 170.64078303237278 -71.06131958104801 A 1.5 1.5 0 0 1 169.207639781048 -69.49731816762721" /></g>
<g stroke="rgb(0, 0, 0)"><path d="M169.2076397,-69.4973181L155.7204888,-68.9084564" /></g>
<g stroke="rgb(0, 0, 0)"><path d="M 155.720488781048 -68.90845636762721 A 1.5 1.5 0 0 1 154.15648736762722 -70.34159961895199" /></g>
<g stroke="rgb(0, 0, 0)"><path d="M154.1564873,-70.3415997L153.5676256,-83.8287506" /></g>
<g stroke="rgb(0, 0, 0)"><path d="M 153.5676255676272 -83.82875061895199 A 1.5 1.5 0 0 1 155.000768818952 -85.39275203237278" /></g>
<g stroke="rgb(0, 0, 0)"><path d="M155.7422985,-68.4089323L169.2294494,-68.997794" /></g>
<g stroke="rgb(0, 0, 0)"><path d="M 169.22944941895202 -68.9977940323728 A 1.5 1.5 0 0 1 170.7934508323728 -67.56465078104802" /></g>
<g stroke="rgb(0, 0, 0)"><path d="M170.7934509,-67.5646507L171.3823126,-54.0774998" /></g>
<g stroke="rgb(0, 0, 0)"><path d="M 171.3823126323728 -54.077499781048004 A 1.5 1.5 0 0 1 169.949169381048 -52.513498367627214" /></g>
<g stroke="rgb(0, 0, 0)"><path d="M169.9491693,-52.5134983L156.4620184,-51.9246366" /></g>
<g stroke="rgb(0, 0, 0)"><path d="M 156.46201838104798 -51.92463656762721 A 1.5 1.5 0 0 1 154.8980169676272 -53.357779818952" /></g>
<g stroke="rgb(0, 0, 0)"><path d="M154.8980169,-53.3577799L154.3091552,-66.8449308" /></g>
<g stroke="rgb(0, 0, 0)"><path d="M 154.3091551676272 -66.844930818952 A 1.5 1.5 0 0 1 155.742298418952 -68.40893223237279" /></g>
<g stroke="rgb(0, 0, 0)"><path d="M175.3368252,-112.7323916L188.7854536,-113.9089941" /></g>
<g stroke="rgb(0, 0, 0)"><path d="M 188.7854535858785 -113.90899414713762 A 1.5 1.5 0 0 1 190.4104792471376 -112.54543571412148" /></g>
<g stroke="rgb(0, 0, 0)"><path d="M190.4104793,-112.5454357L191.5870818,-99.0968073" /></g>
<g stroke="rgb(0, 0, 0)"><path d="M 191.5870818471376 -99.09680731412148 A 1.5 1.5 0 0 1 190.22352341412147 -97.47178165286238" /></g>
<g stroke="rgb(0, 0, 0)"><path d="M190.2235234,-97.4717816L176.774895,-96.2951791" /></g>
<g stroke="rgb(0, 0, 0)"><path d="M 176.77489501412148 -96.29517905286238 A 1.5 1.5 0 0 1 175.1498693528624 -97.65873748587852" /></g>
<g stroke="rgb(0, 0, 0)"><path d="M175.1498693,-97.6587375L173.9732668,-111.1073659" /></g>
<g stroke="rgb(0, 0, 0)"><path d="M 173.9732667528624 -111.10736588587852 A 1.5 1.5 0 0 1 175.33682518587852 -112.73239154713762" /></g>
<g stroke="rgb(0, 0, 0)"><path d="M176.8184728,-95.7970817L190.2671012,-96.9736842" /></g>
<g stroke="rgb(0, 0, 0)"><path d="M 190.26710118587852 -96.97368424713763 A 1.5 1.5 0 0 1 191.8921268471376 -95.61012581412149" /></g>
<g stroke="rgb(0, 0, 0)"><path d="M191.8921269,-95.6101258L193.0687294,-82.1614974" /></g>
<g stroke="rgb(0, 0, 0)"><path d="M 193.0687294471376 -82.16149741412148 A 1.5 1.5 0 0 1 191.70517101412148 -80.53647175286238" /></g>
<g stroke="rgb(0, 0, 0)"><path d="M191.705171,-80.5364717L178.2565426,-79.3598692" /></g>
<g stroke="rgb(0, 0, 0)"><path d="M 178.25654261412149 -79.35986915286237 A 1.5 1.5 0 0 1 176.6315169528624 -80.72342758587851" /></g>
<g stroke="rgb(0, 0, 0)"><path d="M176.6315169,-80.7234276L175.4549144,-94.172056" /></g>
<g stroke="rgb(0, 0, 0)"><path d="M 175.4549143528624 -94.17205598587852 A 1.5 1.5 0 0 1 176.81847278587853 -95.79708164713762" /></g>
<g stroke="rgb(0, 0, 0)"><path d="M178.3001204,-78.8617718L191.7487488,-80.0383743" /></g>
<g stroke="rgb(0, 0, 0)"><path d="M 191.74874878587852 -80.03837434713762 A 1.5 1.5 0 0 1 193.3737744471376 -78.67481591412148" /></g>
<g stroke="rgb(0, 0, 0)"><path d="M193.3737745,-78.6748159L194.550377,-65.2261875" /></g>
<g stroke="rgb(0, 0, 0)"><path d="M 194.5503770471376 -65.22618751412148 A 1.5 1.5 0 0 1 193.18681861412148 -63.601161852862376" /></g>
<g stroke="rgb(0, 0, 0)"><path d="M193.1868186,-63.6011618L179.7381902,-62.4245593" /></g>
<g stroke="rgb(0, 0, 0)"><path d="M 179.7381902141215 -62.42455925286238 A 1.5 1.5 0 0 1 178.1131645528624 -63.78811768587851" /></g>
<g stroke="rgb(0, 0, 0)"><path d="M178.1131645,-63.7881177L176.936562,-77.2367461" /></g>
<g stroke="rgb(0, 0, 0)"><path d="M 176.9365619528624 -77.23674608587852 A 1.5 1.5 0 0 1 178.30012038587853 -78.86177174713762" /></g>
<g stroke="rgb(0, 0, 0)"><path d="M94,-107L106,-107" /></g>
<g stroke="rgb(0, 0, 0)"><path d="M 106 -107 A 1 1 0 0 1 107 -106" /></g>
<g stroke="rgb(0, 0, 0)"><path d="M107,-106L107,-94" /></g>
<g stroke="rgb(0, 0, 0)"><path d="M 107 -94 A 1 1 0 0 1 106 -93" /></g>
<g stroke="rgb(0, 0, 0)"><path d="M106,-93L94,-93" /></g>
<g stroke="rgb(0, 0, 0)"><path d="M 94 -93 A 1 1 0 0 1 93 -94" /></g>
<g stroke="rgb(0, 0, 0)"><path d="M93,-94L93,-106" /></g>
<g stroke="rgb(0, 0, 0)"><path d="M 93 -106 A 1 1 0 0 1 94 -107" /></g>
<g stroke="rgb(0, 0, 0)"><path d="M94,-90L106,-90" /></g>
<g stroke="rgb(0, 0, 0)"><path d="M 106 -90 A 1 1 0 0 1 107 -89" /></g>
<g stroke="rgb(0, 0, 0)"><path d="M107,-89L107,-77" /></g>
<g stroke="rgb(0, 0, 0)"><path d="M 107 -77 A 1 1 0 0 1 106 -76" /></g>
<g stroke="rgb(0, 0, 0)"><path d="M106,-76L94,-76" /></g>
<g stroke="rgb(0, 0, 0)"><path d="M 94 -76 A 1 1 0 0 1 93 -77" /></g>
<g stroke="rgb(0, 0, 0)"><path d="M93,-77L93,-89" /></g>
<g stroke="rgb(0, 0, 0)"><path d="M 93 -89 A 1 1 0 0 1 94 -90" /></g>
<g stroke="rgb(0, 0, 0)"><path d="M94,-73L106,-73" /></g>
<g stroke="rgb(0, 0, 0)"><path d="M 106 -73 A 1 1 0 0 1 107 -72" /></g>
<g stroke="rgb(0, 0, 0)"><path d="M107,-72L107,-60" /></g>
<g stroke="rgb(0, 0, 0)"><path d="M 107 -60 A 1 1 0 0 1 106 -59" /></g>
<g stroke="rgb(0, 0, 0)"><path d="M106,-59L94,-59" /></g>
<g stroke="rgb(0, 0, 0)"><path d="M 94 -59 A 1 1 0 0 1 93 -60" /></g>
<g stroke="rgb(0, 0, 0)"><path d="M93,-60L93,-72" /></g>
<g stroke="rgb(0, 0, 0)"><path d="M 93 -72 A 1 1 0 0 1 94 -73" /></g>
<g stroke="rgb(0, 0, 0)"><path d="M111,-107L123,-107" /></g>
<g stroke="rgb(0, 0, 0)"><path d="M 123 -107 A 1 1 0 0 1 124 -106" /></g>
<g stroke="rgb(0, 0, 0)"><path d="M124,-106L124,-94" /></g>
<g stroke="rgb(0, 0, 0)"><path d="M 124 -94 A 1 1 0 0 1 123 -93" /></g>
<g stroke="rgb(0, 0, 0)"><path d="M123,-93L111,-93" /></g>
<g stroke="rgb(0, 0, 0)"><path d="M 111 -93 A 1 1 0 0 1 110 -94" /></g>
<g stroke="rgb(0, 0, 0)"><path d="M110,-94L110,-106" /></g>
<g stroke="rgb(0, 0, 0)"><path d="M 110 -106 A 1 1 0 0 1 111 -107" /></g>
<g stroke="rgb(0, 0, 0)"><path d="M111,-90L123,-90" /></g>
<g stroke="rgb(0, 0, 0)"><path d="M 123 -90 A 1 1 0 0 1 124 -89" /></g>
<g stroke="rgb(0, 0, 0)"><path d="M124,-89L124,-77" /></g>
<g stroke="rgb(0, 0, 0)"><path d="M 124 -77 A 1 1 0 0 1 123 -76" /></g>
<g stroke="rgb(0, 0, 0)"><path d="M123,-76L111,-76" /></g>
<g stroke="rgb(0, 0, 0)"><path d="M 111 -76 A 1 1 0 0 1 110 -77" /></g>
<g stroke="rgb(0, 0, 0)"><path d="M110,-77L110,-89" /></g>
<g stroke="rgb(0, 0, 0)"><path d="M 110 -89 A 1 1 0 0 1 111 -90" /></g>
<g stroke="rgb(0, 0, 0)"><path d="M111,-73L123,-73" /></g>
<g stroke="rgb(0, 0, 0)"><path d="M 123 -73 A 1 1 0 0 1 124 -72" /></g>
<g stroke="rgb(0, 0, 0)"><path d="M124,-72L124,-60" /></g>
<g stroke="rgb(0, 0, 0)"><path d="M 124 -60 A 1 1 0 0 1 123 -59" /></g>
<g stroke="rgb(0, 0, 0)"><path d="M123,-59L111,-59" /></g>
<g stroke="rgb(0, 0, 0)"><path d="M 111 -59 A 1 1 0 0 1 110 -60" /></g>
<g stroke="rgb(0, 0, 0)"><path d="M110,-60L110,-72" /></g>
<g stroke="rgb(0, 0, 0)"><path d="M 110 -72 A 1 1 0 0 1 111 -73" /></g>
<g stroke="rgb(0, 0, 0)"><path d="M132,-99.35L144,-99.35" /></g>
<g stroke="rgb(0, 0, 0)"><path d="M 144 -99.35 A 1 1 0 0 1 145 -98.35" /></g>
<g stroke="rgb(0, 0, 0)"><path d="M145,-98.35L145,-86.35" /></g>
<g stroke="rgb(0, 0, 0)"><path d="M 145 -86.35 A 1 1 0 0 1 144 -85.35" /></g>
<g stroke="rgb(0, 0, 0)"><path d="M144,-85.35L132,-85.35" /></g>
<g stroke="rgb(0, 0, 0)"><path d="M 132 -85.35 A 1 1 0 0 1 131 -86.35" /></g>
<g stroke="rgb(0, 0, 0)"><path d="M131,-86.35L131,-98.35" /></g>
<g stroke="rgb(0, 0, 0)"><path d="M 131 -98.35 A 1 1 0 0 1 132 -99.35" /></g>
<g stroke="rgb(0, 0, 0)"><path d="M132,-82.35L144,-82.35" /></g>
<g stroke="rgb(0, 0, 0)"><path d="M 144 -82.35 A 1 1 0 0 1 145 -81.35" /></g>
<g stroke="rgb(0, 0, 0)"><path d="M145,-81.35L145,-69.35" /></g>
<g stroke="rgb(0, 0, 0)"><path d="M 145 -69.35 A 1 1 0 0 1 144 -68.35" /></g>
<g stroke="rgb(0, 0, 0)"><path d="M144,-68.35L132,-68.35" /></g>
<g stroke="rgb(0, 0, 0)"><path d="M 132 -68.35 A 1 1 0 0 1 131 -69.35" /></g>
<g stroke="rgb(0, 0, 0)"><path d="M131,-69.35L131,-81.35" /></g>
<g stroke="rgb(0, 0, 0)"><path d="M 131 -81.35 A 1 1 0 0 1 132 -82.35" /></g>
<g stroke="rgb(0, 0, 0)"><path d="M132,-65.35L144,-65.35" /></g>
<g stroke="rgb(0, 0, 0)"><path d="M 144 -65.35 A 1 1 0 0 1 145 -64.35" /></g>
<g stroke="rgb(0, 0, 0)"><path d="M145,-64.35L145,-52.35" /></g>
<g stroke="rgb(0, 0, 0)"><path d="M 145 -52.35 A 1 1 0 0 1 144 -51.35" /></g>
<g stroke="rgb(0, 0, 0)"><path d="M144,-51.35L132,-51.35" /></g>
<g stroke="rgb(0, 0, 0)"><path d="M 132 -51.35 A 1 1 0 0 1 131 -52.35" /></g>
<g stroke="rgb(0, 0, 0)"><path d="M131,-52.35L131,-64.35" /></g>
<g stroke="rgb(0, 0, 0)"><path d="M 131 -64.35 A 1 1 0 0 1 132 -65.35" /></g>
<g stroke="rgb(0, 0, 0)"><path d="M155.0630497,-101.1604761L167.0516283,-101.6839088" /></g>
<g stroke="rgb(0, 0, 0)"><path d="M 167.05162831263465 -101.68390882158185 A 1 1 0 0 1 168.09429592158185 -100.72847998736533" /></g>
<g stroke="rgb(0, 0, 0)"><path d="M168.0942959,-100.7284799L168.6177286,-88.7399013" /></g>
<g stroke="rgb(0, 0, 0)"><path d="M 168.61772862158185 -88.73990128736534 A 1 1 0 0 1 167.66229978736533 -87.69723367841814" /></g>
<g stroke="rgb(0, 0, 0)"><path d="M167.6622997,-87.6972337L155.6737211,-87.173801" /></g>
<g stroke="rgb(0, 0, 0)"><path d="M 155.67372108736535 -87.17380097841814 A 1 1 0 0 1 154.63105347841815 -88.12922981263466" /></g>
<g stroke="rgb(0, 0, 0)"><path d="M154.6310535,-88.1292299L154.1076208,-100.1178085" /></g>
<g stroke="rgb(0, 0, 0)"><path d="M 154.10762077841815 -100.11780851263467 A 1 1 0 0 1 155.06304961263467 -101.16047612158187" /></g>
<g stroke="rgb(0, 0, 0)"><path d="M155.8045793,-84.1766563L167.7931579,-84.700089" /></g>
<g stroke="rgb(0, 0, 0)"><path d="M 167.79315791263465 -84.70008902158186 A 1 1 0 0 1 168.83582552158185 -83.74466018736534" /></g>
<g stroke="rgb(0, 0, 0)"><path d="M168.8358255,-83.7446601L169.3592582,-71.7560815" /></g>
<g stroke="rgb(0, 0, 0)"><path d="M 169.35925822158185 -71.75608148736534 A 1 1 0 0 1 168.40382938736533 -70.71341387841814" /></g>
<g stroke="rgb(0, 0, 0)"><path d="M168.4038293,-70.7134139L156.4152507,-70.1899812" /></g>
<g stroke="rgb(0, 0, 0)"><path d="M 156.41525068736533 -70.18998117841814 A 1 1 0 0 1 155.37258307841813 -71.14541001263466" /></g>
<g stroke="rgb(0, 0, 0)"><path d="M155.3725831,-71.1454101L154.8491504,-83.1339887" /></g>
<g stroke="rgb(0, 0, 0)"><path d="M 154.84915037841813 -83.13398871263466 A 1 1 0 0 1 155.80457921263465 -84.17665632158186" /></g>
<g stroke="rgb(0, 0, 0)"><path d="M156.5461089,-67.1928365L168.5346875,-67.7162692" /></g>
<g stroke="rgb(0, 0, 0)"><path d="M 168.53468751263466 -67.71626922158185 A 1 1 0 0 1 169.57735512158186 -66.76084038736533" /></g>
<g stroke="rgb(0, 0, 0)"><path d="M169.5773551,-66.7608403L170.1007878,-54.7722617" /></g>
<g stroke="rgb(0, 0, 0)"><path d="M 170.10078782158186 -54.77226168736534 A 1 1 0 0 1 169.14535898736534 -53.72959407841814" /></g>
<g stroke="rgb(0, 0, 0)"><path d="M169.1453589,-53.7295941L157.1567803,-53.2061614" /></g>
<g stroke="rgb(0, 0, 0)"><path d="M 157.15678028736534 -53.206161378418145 A 1 1 0 0 1 156.11411267841814 -54.161590212634664" /></g>
<g stroke="rgb(0, 0, 0)"><path d="M156.1141127,-54.1615903L155.59068,-66.1501689" /></g>
<g stroke="rgb(0, 0, 0)"><path d="M 155.59067997841814 -66.15016891263465 A 1 1 0 0 1 156.54610881263466 -67.19283652158185" /></g>
<g stroke="rgb(0, 0, 0)"><path d="M176.1929159,-111.552515L188.1472523,-112.5983839" /></g>
<g stroke="rgb(0, 0, 0)"><path d="M 188.14725225725235 -112.59838389809174 A 1 1 0 0 1 189.23060269809176 -111.68934494274765" /></g>
<g stroke="rgb(0, 0, 0)"><path d="M189.2306027,-111.689345L190.2764716,-99.7350086" /></g>
<g stroke="rgb(0, 0, 0)"><path d="M 190.27647159809175 -99.73500864274766 A 1 1 0 0 1 189.36743264274764 -98.65165820190826" /></g>
<g stroke="rgb(0, 0, 0)"><path d="M189.3674327,-98.6516582L177.4130963,-97.6057893" /></g>
<g stroke="rgb(0, 0, 0)"><path d="M 177.41309634274765 -97.60578930190826 A 1 1 0 0 1 176.32974590190824 -98.51482825725235" /></g>
<g stroke="rgb(0, 0, 0)"><path d="M176.3297459,-98.5148282L175.283877,-110.4691646" /></g>
<g stroke="rgb(0, 0, 0)"><path d="M 175.28387700190825 -110.46916455725234 A 1 1 0 0 1 176.19291595725235 -111.55251499809174" /></g>
<g stroke="rgb(0, 0, 0)"><path d="M177.6745635,-94.6172051L189.6288999,-95.663074" /></g>
<g stroke="rgb(0, 0, 0)"><path d="M 189.62889985725235 -95.66307399809175 A 1 1 0 0 1 190.71225029809176 -94.75403504274766" /></g>
<g stroke="rgb(0, 0, 0)"><path d="M190.7122503,-94.7540351L191.7581192,-82.7996987" /></g>
<g stroke="rgb(0, 0, 0)"><path d="M 191.75811919809175 -82.79969874274765 A 1 1 0 0 1 190.84908024274765 -81.71634830190825" /></g>
<g stroke="rgb(0, 0, 0)"><path d="M190.8490803,-81.7163483L178.8947439,-80.6704794" /></g>
<g stroke="rgb(0, 0, 0)"><path d="M 178.89474394274765 -80.67047940190825 A 1 1 0 0 1 177.81139350190824 -81.57951835725234" /></g>
<g stroke="rgb(0, 0, 0)"><path d="M177.8113935,-81.5795183L176.7655246,-93.5338547" /></g>
<g stroke="rgb(0, 0, 0)"><path d="M 176.76552460190825 -93.53385465725235 A 1 1 0 0 1 177.67456355725236 -94.61720509809174" /></g>
<g stroke="rgb(0, 0, 0)"><path d="M179.1562111,-77.6818952L191.1105475,-78.7277641" /></g>
<g stroke="rgb(0, 0, 0)"><path d="M 191.11054745725235 -78.72776409809174 A 1 1 0 0 1 192.19389789809176 -77.81872514274765" /></g>
<g stroke="rgb(0, 0, 0)"><path d="M192.1938979,-77.8187252L193.2397668,-65.8643888" /></g>
<g stroke="rgb(0, 0, 0)"><path d="M 193.23976679809175 -65.86438884274766 A 1 1 0 0 1 192.33072784274765 -64.78103840190826" /></g>
<g stroke="rgb(0, 0, 0)"><path d="M192.3307279,-64.7810384L180.3763915,-63.7351695" /></g>
<g stroke="rgb(0, 0, 0)"><path d="M 180.37639154274765 -63.73516950190825 A 1 1 0 0 1 179.29304110190824 -64.64420845725235" /></g>
<g stroke="rgb(0, 0, 0)"><path d="M179.2930411,-64.6442084L178.2471722,-76.5985448" /></g>
<g stroke="rgb(0, 0, 0)"><path d="M 178.24717220190826 -76.59854475725234 A 1 1 0 0 1 179.15621115725236 -77.68189519809174" /></g>
<g stroke="rgb(0, 0, 0)"><path d="M192.8332001,-107.8010359L206.2818285,-108.9776384" /></g>
<g stroke="rgb(0, 0, 0)"><path d="M 206.28182848587852 -108.97763834713761 A 1.5 1.5 0 0 1 207.9068541471376 -107.61407991412148" /></g>
<g stroke="rgb(0, 0, 0)"><path d="M207.9068542,-107.61408L209.4429741,-90.0561484" /></g>
<g stroke="rgb(0, 0, 0)"><path d="M 209.44297414713762 -90.05614841412148 A 1.5 1.5 0 0 1 208.0794157141215 -88.43112275286238" /></g>
<g stroke="rgb(0, 0, 0)"><path d="M208.0794157,-88.4311227L194.6307873,-87.2545202" /></g>
<g stroke="rgb(0, 0, 0)"><path d="M 194.63078731412148 -87.25452025286238 A 1.5 1.5 0 0 1 193.0057616528624 -88.61807868587852" /></g>
<g stroke="rgb(0, 0, 0)"><path d="M193.0057616,-88.6180786L191.4696417,-106.1760102" /></g>
<g stroke="rgb(0, 0, 0)"><path d="M 191.4696416528624 -106.17601018587852 A 1.5 1.5 0 0 1 192.83320008587853 -107.80103584713763" /></g>
<g stroke="rgb(0, 0, 0)"><path d="M194.6852596,-86.6318986L208.133888,-87.8085011" /></g>
<g stroke="rgb(0, 0, 0)"><path d="M 208.13388798587852 -87.80850104713763 A 1.5 1.5 0 0 1 209.7589136471376 -86.44494261412149" /></g>
<g stroke="rgb(0, 0, 0)"><path d="M209.7589137,-86.4449427L211.2950336,-68.8870111" /></g>
<g stroke="rgb(0, 0, 0)"><path d="M 211.29503364713761 -68.88701111412148 A 1.5 1.5 0 0 1 209.9314752141215 -67.26198545286238" /></g>
<g stroke="rgb(0, 0, 0)"><path d="M209.9314752,-67.2619854L196.4828468,-66.0853829" /></g>
<g stroke="rgb(0, 0, 0)"><path d="M 196.48284681412147 -66.08538295286237 A 1.5 1.5 0 0 1 194.85782115286239 -67.44894138587851" /></g>
<g stroke="rgb(0, 0, 0)"><path d="M194.8578211,-67.4489413L193.3217012,-85.0068729" /></g>
<g stroke="rgb(0, 0, 0)"><path d="M 193.3217011528624 -85.00687288587852 A 1.5 1.5 0 0 1 194.68525958587853 -86.63189854713762" /></g>
<g stroke="rgb(0, 0, 0)"><path d="M73.441593,-142.090551L86.6465856,-139.2837432" /></g>
<g stroke="rgb(0, 0, 0)"><path d="M 86.64658563622665 -139.28374320110072 A 1.5 1.5 0 0 1 87.80193950110072 -137.50465426377338" /></g>
<g stroke="rgb(0, 0, 0)"><path d="M87.8019395,-137.5046543L84.1374959,-120.2648028" /></g>
<g stroke="rgb(0, 0, 0)"><path d="M 84.13749590110072 -120.26480286377335 A 1.5 1.5 0 0 1 82.35840696377336 -119.1094489988993" /></g>
<g stroke="rgb(0, 0, 0)"><path d="M82.358407,-119.109449L69.1534144,-121.9162568" /></g>
<g stroke="rgb(0, 0, 0)"><path d="M 69.15341436377335 -121.9162567988993 A 1.5 1.5 0 0 1 67.99806049889929 -123.69534573622664" /></g>
<g stroke="rgb(0, 0, 0)"><path d="M67.9980605,-123.6953457L71.6625041,-140.9351972" /></g>
<g stroke="rgb(0, 0, 0)"><path d="M 71.66250409889929 -140.93519713622663 A 1.5 1.5 0 0 1 73.44159303622665 -142.09055100110072" /></g>
<g stroke="rgb(0, 0, 0)"><path d="M89.47915,-135.7087133L102.8129426,-133.596848" /></g>
<g stroke="rgb(0, 0, 0)"><path d="M 102.81294259756035 -133.59684801089273 A 1.5 1.5 0 0 1 104.0598234108927 -131.88066380243967" /></g>
<g stroke="rgb(0, 0, 0)"><path d="M104.0598234,-131.8806638L101.302666,-114.4726568" /></g>
<g stroke="rgb(0, 0, 0)"><path d="M 101.30266601089271 -114.47265680243964 A 1.5 1.5 0 0 1 99.58648180243965 -113.22577598910729" /></g>
<g stroke="rgb(0, 0, 0)"><path d="M99.5864818,-113.2257759L86.2526892,-115.3376412" /></g>
<g stroke="rgb(0, 0, 0)"><path d="M 86.25268920243965 -115.33764118910729 A 1.5 1.5 0 0 1 85.0058083891073 -117.05382539756035" /></g>
<g stroke="rgb(0, 0, 0)"><path d="M85.0058084,-117.0538254L87.7629658,-134.4618324" /></g>
<g stroke="rgb(0, 0, 0)"><path d="M 87.7629657891073 -134.46183239756033 A 1.5 1.5 0 0 1 89.47914999756036 -135.7087132108927" /></g>
<g stroke="rgb(0, 0, 0)"><path d="M105.5606184,-129.4954695L119.0421171,-130.2020049" /></g>
<g stroke="rgb(0, 0, 0)"><path d="M 119.04211706563558 -130.20200490213185 A 1.5 1.5 0 0 1 120.61856530213186 -128.7825645343644" /></g>
<g stroke="rgb(0, 0, 0)"><path d="M120.6185653,-128.7825645L121.5409866,-111.181719" /></g>
<g stroke="rgb(0, 0, 0)"><path d="M 121.54098660213185 -111.18171893436443 A 1.5 1.5 0 0 1 120.12154623436442 -109.60527069786815" /></g>
<g stroke="rgb(0, 0, 0)"><path d="M120.1215462,-109.6052707L106.6400475,-108.8987353" /></g>
<g stroke="rgb(0, 0, 0)"><path d="M 106.64004753436441 -108.89873529786814 A 1.5 1.5 0 0 1 105.06359929786814 -110.31817566563558" /></g>
<g stroke="rgb(0, 0, 0)"><path d="M105.0635993,-110.3181757L104.141178,-127.9190212" /></g>
<g stroke="rgb(0, 0, 0)"><path d="M 104.14117799786814 -127.91902126563558 A 1.5 1.5 0 0 1 105.56061836563558 -129.49546950213187" /></g>
<g stroke="rgb(0, 0, 0)"><path d="M193.6892908,-106.6211593L205.6436272,-107.6670282" /></g>
<g stroke="rgb(0, 0, 0)"><path d="M 205.64362715725235 -107.66702819809174 A 1 1 0 0 1 206.72697759809176 -106.75798924274766" /></g>
<g stroke="rgb(0, 0, 0)"><path d="M206.7269776,-106.7579893L208.132364,-90.6943497" /></g>
<g stroke="rgb(0, 0, 0)"><path d="M 208.13236399809176 -90.69434974274766 A 1 1 0 0 1 207.22332504274766 -89.61099930190827" /></g>
<g stroke="rgb(0, 0, 0)"><path d="M207.223325,-89.6109993L195.2689886,-88.5651304" /></g>
<g stroke="rgb(0, 0, 0)"><path d="M 195.26898864274764 -88.56513040190826 A 1 1 0 0 1 194.18563820190823 -89.47416935725235" /></g>
<g stroke="rgb(0, 0, 0)"><path d="M194.1856382,-89.4741693L192.7802518,-105.5378089" /></g>
<g stroke="rgb(0, 0, 0)"><path d="M 192.78025180190824 -105.53780885725234 A 1 1 0 0 1 193.68929075725234 -106.62115929809174" /></g>
<g stroke="rgb(0, 0, 0)"><path d="M195.5413503,-85.452022L207.4956867,-86.4978909" /></g>
<g stroke="rgb(0, 0, 0)"><path d="M 207.49568665725235 -86.49789089809174 A 1 1 0 0 1 208.57903709809176 -85.58885194274765" /></g>
<g stroke="rgb(0, 0, 0)"><path d="M208.5790371,-85.588852L209.9844235,-69.5252124" /></g>
<g stroke="rgb(0, 0, 0)"><path d="M 209.98442349809176 -69.52521244274766 A 1 1 0 0 1 209.07538454274766 -68.44186200190826" /></g>
<g stroke="rgb(0, 0, 0)"><path d="M209.0753845,-68.441862L197.1210481,-67.3959931" /></g>
<g stroke="rgb(0, 0, 0)"><path d="M 197.12104814274767 -67.39599310190826 A 1 1 0 0 1 196.03769770190826 -68.30503205725235" /></g>
<g stroke="rgb(0, 0, 0)"><path d="M196.0376977,-68.305032L194.6323113,-84.3686716" /></g>
<g stroke="rgb(0, 0, 0)"><path d="M 194.63231130190823 -84.36867155725234 A 1 1 0 0 1 195.54135025725233 -85.45202199809174" /></g>
<g stroke="rgb(0, 0, 0)"><path d="M73.9153141,-140.7119328L85.6530853,-138.2169925" /></g>
<g stroke="rgb(0, 0, 0)"><path d="M 85.65308529081776 -138.2169925007338 A 1 1 0 0 1 86.42332120073381 -137.03093320918225" /></g>
<g stroke="rgb(0, 0, 0)"><path d="M86.4233212,-137.0309332L83.0707452,-121.2583031" /></g>
<g stroke="rgb(0, 0, 0)"><path d="M 83.07074520073381 -121.25830310918225 A 1 1 0 0 1 81.88468590918225 -120.4880671992662" /></g>
<g stroke="rgb(0, 0, 0)"><path d="M81.8846859,-120.4880672L70.1469147,-122.9830075" /></g>
<g stroke="rgb(0, 0, 0)"><path d="M 70.14691470918224 -122.9830074992662 A 1 1 0 0 1 69.37667879926619 -124.16906679081775" /></g>
<g stroke="rgb(0, 0, 0)"><path d="M69.3766788,-124.1690668L72.7292548,-139.9416969" /></g>
<g stroke="rgb(0, 0, 0)"><path d="M 72.7292547992662 -139.94169689081775 A 1 1 0 0 1 73.91531409081776 -140.7119328007338" /></g>
<g stroke="rgb(0, 0, 0)"><path d="M90.0243732,-134.356777L101.8766333,-132.4795634" /></g>
<g stroke="rgb(0, 0, 0)"><path d="M 101.87663326504024 -132.47956344059511 A 1 1 0 0 1 102.70788714059515 -131.33544063495975" /></g>
<g stroke="rgb(0, 0, 0)"><path d="M102.7078872,-131.3354406L100.1853814,-115.4089661" /></g>
<g stroke="rgb(0, 0, 0)"><path d="M 100.18538144059514 -115.40896613495977 A 1 1 0 0 1 99.04125863495976 -114.57771225940486" /></g>
<g stroke="rgb(0, 0, 0)"><path d="M99.0412586,-114.5777122L87.1889985,-116.4549258" /></g>
<g stroke="rgb(0, 0, 0)"><path d="M 87.18899853495977 -116.45492575940486 A 1 1 0 0 1 86.35774465940486 -117.59904856504023" /></g>
<g stroke="rgb(0, 0, 0)"><path d="M86.3577446,-117.5990486L88.8802504,-133.5255231" /></g>
<g stroke="rgb(0, 0, 0)"><path d="M 88.88025035940485 -133.52552306504023 A 1 1 0 0 1 90.02437316504023 -134.35677694059513" /></g>
<g stroke="rgb(0, 0, 0)"><path d="M106.3750105,-128.2864345L118.3585649,-128.914466" /></g>
<g stroke="rgb(0, 0, 0)"><path d="M 118.35856494375706 -128.91446603475458 A 1 1 0 0 1 119.40953043475457 -127.96817245624294" /></g>
<g stroke="rgb(0, 0, 0)"><path d="M119.4095304,-127.9681724L120.2534477,-111.8652712" /></g>
<g stroke="rgb(0, 0, 0)"><path d="M 120.25344773475457 -111.86527115624294 A 1 1 0 0 1 119.30715415624294 -110.81430566524543" /></g>
<g stroke="rgb(0, 0, 0)"><path d="M119.3071541,-110.8143057L107.3235997,-110.1862742" /></g>
<g stroke="rgb(0, 0, 0)"><path d="M 107.32359965624295 -110.18627416524544 A 1 1 0 0 1 106.27263416524544 -111.13256774375706" /></g>
<g stroke="rgb(0, 0, 0)"><path d="M106.2726342,-111.1325678L105.4287169,-127.235469" /></g>
<g stroke="rgb(0, 0, 0)"><path d="M 105.42871686524543 -127.23546904375706 A 1 1 0 0 1 106.37501044375706 -128.2864345347546" /></g>
<g stroke="rgb(0, 0, 0)"><path d="M150.8575824,-114.9999999L206.1808724,-115" /></g>
<g stroke="rgb(0, 0, 0)"><g transform="rotate(0 206.1808724, -113)">
      <ellipse cx="206.1808724" cy="-113" rx="2" ry="2" />
    </g></g>
<g stroke="rgb(0, 0, 0)"><path d="M208.1732893,-113.1739964L212.1560694,-67.6506112" /></g>
<g stroke="rgb(0, 0, 0)"><g transform="rotate(0 210.163728, -67.4757541)">
      <ellipse cx="210.163728" cy="-67.4757541" rx="2" ry="2" />
    </g></g>
<g stroke="rgb(0, 0, 0)"><g transform="rotate(0 140, -209.6)">
      <ellipse cx="140" cy="-209.6" rx="160.5" ry="160.5" />
    </g></g>
<g stroke="rgb(0, 0, 0)"><path d="M 92.40694026562076 -56.31872040261363 A 2 2 0 0 1 91.00000023332422 -58.22840240155712" /></g>
<g stroke="rgb(0, 0, 0)"><path d="M91.0000001,-91.1696005L91.0000001,-58.2287675" /></g>
<g stroke="rgb(0, 0, 0)"><path d="M 90.0000001 -61.5 A 1 1 0 0 1 91.0000001 -60.5" /></g>
<g stroke="rgb(0, 0, 0)"><path d="M90.0000001,-61.5L72.3042321,-61.4999999" /></g>
<g stroke="rgb(0, 0, 0)"><path d="M 72.30386700155711 -61.50000003332422 A 2 2 0 0 1 70.31358407618107 -63.693185002693845" /></g>
<g stroke="rgb(0, 0, 0)"><path d="M 67.22562401053341 -122.86891543160627 A 199.5 199.5 0 0 1 70.31361934034558 -63.693548372051005" /></g>
<g stroke="rgb(0, 0, 0)"><path d="M 67.22562402144828 -122.8689154247458 A 2 2 0 0 1 67.22898420216113 -123.68442719870741" /></g>
<g stroke="rgb(0, 0, 0)"><path d="M67.0799453,-122.9832541L70.9719131,-141.2935237" /></g>
<g stroke="rgb(0, 0, 0)"><g transform="rotate(0 72.9282084, -140.8777003)">
      <ellipse cx="72.9282084" cy="-140.8777003" rx="2" ry="2" />
    </g></g>
<g stroke="rgb(0, 0, 0)"><g transform="rotate(0 61.5, -2.85)">
      <ellipse cx="61.5" cy="-2.85" rx="140.5" ry="140.5" />
    </g></g>
<g stroke="rgb(0, 0, 0)"><g transform="rotate(0 150.8575824, -129.4999999)">
      <ellipse cx="150.8575824" cy="-129.4999999" rx="14.5" ry="14.5" />
    </g></g>
<g stroke="rgb(0, 0, 0)"><path d="M 90.93023265945618 -91.53657105103589 A 1 1 0 0 1 91.0000001 -91.1696005" /></g>
<g stroke="rgb(0, 0, 0)"><path d="M 67.87961116166827 -120.93580314958143 A 65.5 65.5 0 0 1 90.93023264438054 -91.53657109285065" /></g>
<g stroke="rgb(0, 0, 0)"><path d="M 67.87961115155213 -120.93580312291354 A 2 2 0 0 1 67.07994530216114 -122.98325409870742" /></g>
<g stroke="rgb(0, 0, 0)"><path d="M74,-97.1L88.5,-97.1" /></g>
<g stroke="rgb(0, 0, 0)"><path d="M90.25,-95.35L90.25,-65.85" /></g>
<g stroke="rgb(0, 0, 0)"><path d="M88.5,-64.1L74,-64.1" /></g>
<g stroke="rgb(0, 0, 0)"><path d="M72.25,-65.85L72.25,-95.35" /></g>
<g stroke="rgb(0, 0, 0)"><path d="M 88.5 -97.1 A 1.75 1.75 0 0 1 90.25 -95.35" /></g>
<g stroke="rgb(0, 0, 0)"><path d="M 90.25 -65.85 A 1.75 1.75 0 0 1 88.5 -64.1" /></g>
<g stroke="rgb(0, 0, 0)"><path d="M 74 -64.1 A 1.75 1.75 0 0 1 72.25 -65.85" /></g>
<g stroke="rgb(0, 0, 0)"><path d="M 72.25 -95.35 A 1.75 1.75 0 0 1 74 -97.1" /></g>
<g stroke="rgb(0, 0, 0)"><path d="M74.25,-100.7L88.25,-100.7" /></g>
<g stroke="rgb(0, 0, 0)"><path d="M88.25,-100.7L88.25,-64.7" /></g>
<g stroke="rgb(0, 0, 0)"><path d="M74.25,-64.7L88.25,-64.7" /></g>
<g stroke="rgb(0, 0, 0)"><path d="M74.25,-64.7L74.25,-100.7" /></g>
<g stroke="rgb(0, 0, 0)"><path d="M75.25,-102.7L87.25,-102.7" /></g>
<g stroke="rgb(0, 0, 0)"><path d="M87.25,-102.7L87.25,-64.7" /></g>
<g stroke="rgb(0, 0, 0)"><path d="M75.25,-64.7L75.25,-102.7" /></g>
<g stroke="rgb(0, 0, 0)"><path d="M87.66,-100.7L87.66,-98.1" /></g>
<g stroke="rgb(0, 0, 0)"><path d="M87.66,-98.1L74.84,-98.1" /></g>
<g stroke="rgb(0, 0, 0)"><path d="M74.84,-98.1L74.84,-100.7" /></g>
<g stroke="rgb(0, 0, 0)"><path d="M86.39,-102.7L86.39,-100.1" /></g>
<g stroke="rgb(0, 0, 0)"><path d="M86.39,-100.1L76.11,-100.1" /></g>
<g stroke="rgb(0, 0, 0)"><path d="M76.11,-100.1L76.11,-102.7" /></g>
<g stroke="rgb(0, 0, 0)"><path d="M75.98,-108.8L83.98,-108.8" /></g>
<g stroke="rgb(0, 0, 0)"><path d="M83.98,-108.8L83.98,-102.8" /></g>
<g stroke="rgb(0, 0, 0)"><path d="M83.98,-102.8L75.98,-102.8" /></g>
<g stroke="rgb(0, 0, 0)"><path d="M75.98,-102.8L75.98,-108.8" /></g>
<g stroke="rgb(0, 0, 0)"><path d="M73.35,-65.855L82.15,-65.855" /></g>
<g stroke="rgb(0, 0, 0)"><path d="M82.15,-65.855L82.15,-61.305" /></g>
<g stroke="rgb(0, 0, 0)"><path d="M82.15,-61.305L73.35,-61.305" /></g>
<g stroke="rgb(0, 0, 0)"><path d="M73.35,-61.305L73.35,-65.855" /></g>
<g stroke="rgb(0, 0, 0)"><path d="M84.89,-64.805L89.61,-64.805" /></g>
<g stroke="rgb(0, 0, 0)"><path d="M89.61,-64.805L89.61,-61.305" /></g>
<g stroke="rgb(0, 0, 0)"><path d="M89.61,-61.305L84.89,-61.305" /></g>
<g stroke="rgb(0, 0, 0)"><path d="M84.89,-61.305L84.89,-64.805" /></g>
  </g>
</svg>