<?xml version="1.0"?>
<svg
  xmlns="http://www.w3.org/2000/svg"
  xmlns:xlink="http://www.w3.org/1999/xlink" version="1.1"
  preserveAspectRatio="xMinYMin meet"
  viewBox="52.5 33.5 159.2991229 124"
  width="100%" height="100%"
>
  <g stroke="#000000" stroke-width="0.1%" fill="none" transform="matrix(1,0,0,-1,0,0)">
    <g stroke="rgb(0, 0, 0)"><path d="M52.5,-38.5L57.5,-38.5" /></g>
<g stroke="rgb(0, 0, 0)"><path d="M57.5,-38.5L57.5,-33.5" /></g>
<g stroke="rgb(0, 0, 0)"><path d="M57.5,-33.5L52.5,-33.5" /></g>
<g stroke="rgb(0, 0, 0)"><path d="M52.5,-33.5L52.5,-38.5" /></g>
<g stroke="rgb(0, 0, 0)"><path d="M52.5,-157.5L57.5,-157.5" /></g>
<g stroke="rgb(0, 0, 0)"><path d="M57.5,-157.5L57.5,-152.5" /></g>
<g stroke="rgb(0, 0, 0)"><path d="M57.5,-152.5L52.5,-152.5" /></g>
<g stroke="rgb(0, 0, 0)"><path d="M52.5,-152.5L52.5,-157.5" /></g>
<g stroke="rgb(0, 0, 0)"><path d="M95,-102L98.4,-102" /></g>
<g stroke="rgb(0, 0, 0)"><path d="M101.6,-102L105,-102" /></g>
<g stroke="rgb(0, 0, 0)"><path d="M105,-102L105,-98" /></g>
<g stroke="rgb(0, 0, 0)"><path d="M105,-98L95,-98" /></g>
<g stroke="rgb(0, 0, 0)"><path d="M95,-98L95,-102" /></g>
<g stroke="rgb(0, 0, 0)"><path d="M95,-85L98.4,-85" /></g>
<g stroke="rgb(0, 0, 0)"><path d="M101.6,-85L105,-85" /></g>
<g stroke="rgb(0, 0, 0)"><path d="M105,-85L105,-81" /></g>
<g stroke="rgb(0, 0, 0)"><path d="M105,-81L95,-81" /></g>
<g stroke="rgb(0, 0, 0)"><path d="M95,-81L95,-85" /></g>
<g stroke="rgb(0, 0, 0)"><path d="M95,-68L98.4,-68" /></g>
<g stroke="rgb(0, 0, 0)"><path d="M101.6,-68L105,-68" /></g>
<g stroke="rgb(0, 0, 0)"><path d="M105,-68L105,-64" /></g>
<g stroke="rgb(0, 0, 0)"><path d="M105,-64L95,-64" /></g>
<g stroke="rgb(0, 0, 0)"><path d="M95,-64L95,-68" /></g>
<g stroke="rgb(0, 0, 0)"><path d="M112,-102L115.4,-102" /></g>
<g stroke="rgb(0, 0, 0)"><path d="M118.6,-102L122,-102" /></g>
<g stroke="rgb(0, 0, 0)"><path d="M122,-102L122,-98" /></g>
<g stroke="rgb(0, 0, 0)"><path d="M122,-98L112,-98" /></g>
<g stroke="rgb(0, 0, 0)"><path d="M112,-98L112,-102" /></g>
<g stroke="rgb(0, 0, 0)"><path d="M112,-85L115.4,-85" /></g>
<g stroke="rgb(0, 0, 0)"><path d="M118.6,-85L122,-85" /></g>
<g stroke="rgb(0, 0, 0)"><path d="M122,-85L122,-81" /></g>
<g stroke="rgb(0, 0, 0)"><path d="M122,-81L112,-81" /></g>
<g stroke="rgb(0, 0, 0)"><path d="M112,-81L112,-85" /></g>
<g stroke="rgb(0, 0, 0)"><path d="M112,-68L115.4,-68" /></g>
<g stroke="rgb(0, 0, 0)"><path d="M118.6,-68L122,-68" /></g>
<g stroke="rgb(0, 0, 0)"><path d="M122,-68L122,-64" /></g>
<g stroke="rgb(0, 0, 0)"><path d="M122,-64L112,-64" /></g>
<g stroke="rgb(0, 0, 0)"><path d="M112,-64L112,-68" /></g>
<g stroke="rgb(0, 0, 0)"><path d="M133,-94.35L136.4,-94.35" /></g>
<g stroke="rgb(0, 0, 0)"><path d="M139.6,-94.35L143,-94.35" /></g>
<g stroke="rgb(0, 0, 0)"><path d="M143,-94.35L143,-90.35" /></g>
<g stroke="rgb(0, 0, 0)"><path d="M143,-90.35L133,-90.35" /></g>
<g stroke="rgb(0, 0, 0)"><path d="M133,-90.35L133,-94.35" /></g>
<g stroke="rgb(0, 0, 0)"><path d="M133,-77.35L136.4,-77.35" /></g>
<g stroke="rgb(0, 0, 0)"><path d="M139.6,-77.35L143,-77.35" /></g>
<g stroke="rgb(0, 0, 0)"><path d="M143,-77.35L143,-73.35" /></g>
<g stroke="rgb(0, 0, 0)"><path d="M143,-73.35L133,-73.35" /></g>
<g stroke="rgb(0, 0, 0)"><path d="M133,-73.35L133,-77.35" /></g>
<g stroke="rgb(0, 0, 0)"><path d="M133,-60.35L136.4,-60.35" /></g>
<g stroke="rgb(0, 0, 0)"><path d="M139.6,-60.35L143,-60.35" /></g>
<g stroke="rgb(0, 0, 0)"><path d="M143,-60.35L143,-56.35" /></g>
<g stroke="rgb(0, 0, 0)"><path d="M143,-56.35L133,-56.35" /></g>
<g stroke="rgb(0, 0, 0)"><path d="M133,-56.35L133,-60.35" /></g>
<g stroke="rgb(0, 0, 0)"><path d="M156.2801948,-96.2088544L159.6769588,-96.3571603" /></g>
<g stroke="rgb(0, 0, 0)"><path d="M162.8739131,-96.4967424L166.270677,-96.6450483" /></g>
<g stroke="rgb(0, 0, 0)"><path d="M166.270677,-96.6450483L166.4451546,-92.6488554" /></g>
<g stroke="rgb(0, 0, 0)"><path d="M166.4451546,-92.6488554L156.4546724,-92.2126615" /></g>
<g stroke="rgb(0, 0, 0)"><path d="M156.4546724,-92.2126615L156.2801948,-96.2088544" /></g>
<g stroke="rgb(0, 0, 0)"><path d="M157.0217244,-79.2250346L160.4184884,-79.3733405" /></g>
<g stroke="rgb(0, 0, 0)"><path d="M163.6154427,-79.5129226L167.0122066,-79.6612285" /></g>
<g stroke="rgb(0, 0, 0)"><path d="M167.0122066,-79.6612285L167.1866842,-75.6650356" /></g>
<g stroke="rgb(0, 0, 0)"><path d="M167.1866842,-75.6650356L157.196202,-75.2288417" /></g>
<g stroke="rgb(0, 0, 0)"><path d="M157.196202,-75.2288417L157.0217244,-79.2250346" /></g>
<g stroke="rgb(0, 0, 0)"><path d="M157.763254,-62.2412148L161.160018,-62.3895207" /></g>
<g stroke="rgb(0, 0, 0)"><path d="M164.3569723,-62.5291028L167.7537362,-62.6774087" /></g>
<g stroke="rgb(0, 0, 0)"><path d="M167.7537362,-62.6774087L167.9282138,-58.6812158" /></g>
<g stroke="rgb(0, 0, 0)"><path d="M167.9282138,-58.6812158L157.9377316,-58.2450219" /></g>
<g stroke="rgb(0, 0, 0)"><path d="M157.9377316,-58.2450219L157.763254,-62.2412148" /></g>
<g stroke="rgb(0, 0, 0)"><path d="M177.2790852,-106.2643833L180.6661472,-106.5607128" /></g>
<g stroke="rgb(0, 0, 0)"><path d="M183.8539702,-106.8396112L187.2410322,-107.1359407" /></g>
<g stroke="rgb(0, 0, 0)"><path d="M187.2410322,-107.1359407L187.5896552,-103.1511619" /></g>
<g stroke="rgb(0, 0, 0)"><path d="M187.5896552,-103.1511619L177.6277082,-102.2796045" /></g>
<g stroke="rgb(0, 0, 0)"><path d="M177.6277082,-102.2796045L177.2790852,-106.2643833" /></g>
<g stroke="rgb(0, 0, 0)"><path d="M178.7607328,-89.3290734L182.1477948,-89.6254029" /></g>
<g stroke="rgb(0, 0, 0)"><path d="M185.3356178,-89.9043013L188.7226798,-90.2006308" /></g>
<g stroke="rgb(0, 0, 0)"><path d="M188.7226798,-90.2006308L189.0713028,-86.215852" /></g>
<g stroke="rgb(0, 0, 0)"><path d="M189.0713028,-86.215852L179.1093558,-85.3442946" /></g>
<g stroke="rgb(0, 0, 0)"><path d="M179.1093558,-85.3442946L178.7607328,-89.3290734" /></g>
<g stroke="rgb(0, 0, 0)"><path d="M180.2423804,-72.3937635L183.6294424,-72.690093" /></g>
<g stroke="rgb(0, 0, 0)"><path d="M186.8172654,-72.9689914L190.2043274,-73.2653209" /></g>
<g stroke="rgb(0, 0, 0)"><path d="M190.2043274,-73.2653209L190.5529504,-69.2805421" /></g>
<g stroke="rgb(0, 0, 0)"><path d="M190.5529504,-69.2805421L180.5910034,-68.4089847" /></g>
<g stroke="rgb(0, 0, 0)"><path d="M180.5910034,-68.4089847L180.2423804,-72.3937635" /></g>
<g stroke="rgb(0, 0, 0)"><path d="M201.6671145,-102.8770503L201.963444,-99.4899883" /></g>
<g stroke="rgb(0, 0, 0)"><path d="M202.2423424,-96.3021653L202.5386719,-92.9151033" /></g>
<g stroke="rgb(0, 0, 0)"><path d="M202.5386719,-92.9151033L198.5538931,-92.5664803" /></g>
<g stroke="rgb(0, 0, 0)"><path d="M198.5538931,-92.5664803L197.6823357,-102.5284273" /></g>
<g stroke="rgb(0, 0, 0)"><path d="M197.6823357,-102.5284273L201.6671145,-102.8770503" /></g>
<g stroke="rgb(0, 0, 0)"><path d="M203.519174,-81.707913L203.8155035,-78.320851" /></g>
<g stroke="rgb(0, 0, 0)"><path d="M204.0944019,-75.133028L204.3907314,-71.745966" /></g>
<g stroke="rgb(0, 0, 0)"><path d="M204.3907314,-71.745966L200.4059526,-71.397343" /></g>
<g stroke="rgb(0, 0, 0)"><path d="M200.4059526,-71.397343L199.5343952,-81.35929" /></g>
<g stroke="rgb(0, 0, 0)"><path d="M199.5343952,-81.35929L203.519174,-81.707913" /></g>
<g stroke="rgb(0, 0, 0)"><path d="M80.8958537,-135.0749146L80.1889539,-131.7492128" /></g>
<g stroke="rgb(0, 0, 0)"><path d="M79.5236365,-128.6191405L78.8167367,-125.2934386" /></g>
<g stroke="rgb(0, 0, 0)"><path d="M78.8167367,-125.2934386L74.9041463,-126.1250854" /></g>
<g stroke="rgb(0, 0, 0)"><path d="M74.9041463,-126.1250854L76.9832633,-135.9065614" /></g>
<g stroke="rgb(0, 0, 0)"><path d="M76.9832633,-135.9065614L80.8958537,-135.0749146" /></g>
<g stroke="rgb(0, 0, 0)"><path d="M97.1809758,-129.1130914L96.6490986,-125.754951" /></g>
<g stroke="rgb(0, 0, 0)"><path d="M96.1485083,-122.5943483L95.6166312,-119.236208" /></g>
<g stroke="rgb(0, 0, 0)"><path d="M95.6166312,-119.236208L91.6658778,-119.8619458" /></g>
<g stroke="rgb(0, 0, 0)"><path d="M91.6658778,-119.8619458L93.2302224,-129.7388292" /></g>
<g stroke="rgb(0, 0, 0)"><path d="M93.2302224,-129.7388292L97.1809758,-129.1130914" /></g>
<g stroke="rgb(0, 0, 0)"><path d="M114.2732927,-124.7047976L114.451235,-121.3094571" /></g>
<g stroke="rgb(0, 0, 0)"><path d="M114.61871,-118.1138426L114.7966523,-114.7185022" /></g>
<g stroke="rgb(0, 0, 0)"><path d="M114.7966523,-114.7185022L110.8021341,-114.5091584" /></g>
<g stroke="rgb(0, 0, 0)"><path d="M110.8021341,-114.5091584L110.2787745,-124.4954538" /></g>
<g stroke="rgb(0, 0, 0)"><path d="M110.2787745,-124.4954538L114.2732927,-124.7047976" /></g>
<g stroke="rgb(0, 0, 0)"><path d="M98.4,-103.2L101.6,-103.2" /></g>
<g stroke="rgb(0, 0, 0)"><path d="M101.6,-103.2L101.6,-102" /></g>
<g stroke="rgb(0, 0, 0)"><path d="M98.4,-102L98.4,-103.2" /></g>
<g stroke="rgb(0, 0, 0)"><path d="M98.4,-86.2L101.6,-86.2" /></g>
<g stroke="rgb(0, 0, 0)"><path d="M101.6,-86.2L101.6,-85" /></g>
<g stroke="rgb(0, 0, 0)"><path d="M98.4,-85L98.4,-86.2" /></g>
<g stroke="rgb(0, 0, 0)"><path d="M98.4,-69.2L101.6,-69.2" /></g>
<g stroke="rgb(0, 0, 0)"><path d="M101.6,-69.2L101.6,-68" /></g>
<g stroke="rgb(0, 0, 0)"><path d="M98.4,-68L98.4,-69.2" /></g>
<g stroke="rgb(0, 0, 0)"><path d="M115.4,-103.2L118.6,-103.2" /></g>
<g stroke="rgb(0, 0, 0)"><path d="M118.6,-103.2L118.6,-102" /></g>
<g stroke="rgb(0, 0, 0)"><path d="M115.4,-102L115.4,-103.2" /></g>
<g stroke="rgb(0, 0, 0)"><path d="M115.4,-86.2L118.6,-86.2" /></g>
<g stroke="rgb(0, 0, 0)"><path d="M118.6,-86.2L118.6,-85" /></g>
<g stroke="rgb(0, 0, 0)"><path d="M115.4,-85L115.4,-86.2" /></g>
<g stroke="rgb(0, 0, 0)"><path d="M115.4,-69.2L118.6,-69.2" /></g>
<g stroke="rgb(0, 0, 0)"><path d="M118.6,-69.2L118.6,-68" /></g>
<g stroke="rgb(0, 0, 0)"><path d="M115.4,-68L115.4,-69.2" /></g>
<g stroke="rgb(0, 0, 0)"><path d="M136.4,-95.55L139.6,-95.55" /></g>
<g stroke="rgb(0, 0, 0)"><path d="M139.6,-95.55L139.6,-94.35" /></g>
<g stroke="rgb(0, 0, 0)"><path d="M136.4,-94.35L136.4,-95.55" /></g>
<g stroke="rgb(0, 0, 0)"><path d="M136.4,-78.55L139.6,-78.55" /></g>
<g stroke="rgb(0, 0, 0)"><path d="M139.6,-78.55L139.6,-77.35" /></g>
<g stroke="rgb(0, 0, 0)"><path d="M136.4,-77.35L136.4,-78.55" /></g>
<g stroke="rgb(0, 0, 0)"><path d="M136.4,-61.55L139.6,-61.55" /></g>
<g stroke="rgb(0, 0, 0)"><path d="M139.6,-61.55L139.6,-60.35" /></g>
<g stroke="rgb(0, 0, 0)"><path d="M136.4,-60.35L136.4,-61.55" /></g>
<g stroke="rgb(0, 0, 0)"><path d="M159.6246155,-97.5560182L162.8215698,-97.6956003" /></g>
<g stroke="rgb(0, 0, 0)"><path d="M162.8215698,-97.6956003L162.8739131,-96.4967424" /></g>
<g stroke="rgb(0, 0, 0)"><path d="M159.6769588,-96.3571603L159.6246155,-97.5560182" /></g>
<g stroke="rgb(0, 0, 0)"><path d="M160.3661451,-80.5721984L163.5630994,-80.7117805" /></g>
<g stroke="rgb(0, 0, 0)"><path d="M163.5630994,-80.7117805L163.6154427,-79.5129226" /></g>
<g stroke="rgb(0, 0, 0)"><path d="M160.4184884,-79.3733405L160.3661451,-80.5721984" /></g>
<g stroke="rgb(0, 0, 0)"><path d="M161.1076747,-63.5883786L164.304629,-63.7279607" /></g>
<g stroke="rgb(0, 0, 0)"><path d="M164.304629,-63.7279607L164.3569723,-62.5291028" /></g>
<g stroke="rgb(0, 0, 0)"><path d="M161.160018,-62.3895207L161.1076747,-63.5883786" /></g>
<g stroke="rgb(0, 0, 0)"><path d="M180.5615603,-107.7561464L183.7493833,-108.0350448" /></g>
<g stroke="rgb(0, 0, 0)"><path d="M183.7493833,-108.0350448L183.8539702,-106.8396112" /></g>
<g stroke="rgb(0, 0, 0)"><path d="M180.6661472,-106.5607128L180.5615603,-107.7561464" /></g>
<g stroke="rgb(0, 0, 0)"><path d="M182.0432079,-90.8208365L185.2310309,-91.0997349" /></g>
<g stroke="rgb(0, 0, 0)"><path d="M185.2310309,-91.0997349L185.3356178,-89.9043013" /></g>
<g stroke="rgb(0, 0, 0)"><path d="M182.1477948,-89.6254029L182.0432079,-90.8208365" /></g>
<g stroke="rgb(0, 0, 0)"><path d="M183.5248555,-73.8855266L186.7126785,-74.164425" /></g>
<g stroke="rgb(0, 0, 0)"><path d="M186.7126785,-74.164425L186.8172654,-72.9689914" /></g>
<g stroke="rgb(0, 0, 0)"><path d="M183.6294424,-72.690093L183.5248555,-73.8855266" /></g>
<g stroke="rgb(0, 0, 0)"><path d="M203.1588776,-99.5945752L203.437776,-96.4067522" /></g>
<g stroke="rgb(0, 0, 0)"><path d="M203.437776,-96.4067522L202.2423424,-96.3021653" /></g>
<g stroke="rgb(0, 0, 0)"><path d="M201.963444,-99.4899883L203.1588776,-99.5945752" /></g>
<g stroke="rgb(0, 0, 0)"><path d="M205.0109371,-78.4254379L205.2898355,-75.2376149" /></g>
<g stroke="rgb(0, 0, 0)"><path d="M205.2898355,-75.2376149L204.0944019,-75.133028" /></g>
<g stroke="rgb(0, 0, 0)"><path d="M203.8155035,-78.320851L205.0109371,-78.4254379" /></g>
<g stroke="rgb(0, 0, 0)"><path d="M81.362731,-131.4997188L80.6974136,-128.3696465" /></g>
<g stroke="rgb(0, 0, 0)"><path d="M80.6974136,-128.3696465L79.5236365,-128.6191405" /></g>
<g stroke="rgb(0, 0, 0)"><path d="M80.1889539,-131.7492128L81.362731,-131.4997188" /></g>
<g stroke="rgb(0, 0, 0)"><path d="M97.8343246,-125.5672296L97.3337343,-122.4066269" /></g>
<g stroke="rgb(0, 0, 0)"><path d="M97.3337343,-122.4066269L96.1485083,-122.5943483" /></g>
<g stroke="rgb(0, 0, 0)"><path d="M96.6490986,-125.754951L97.8343246,-125.5672296" /></g>
<g stroke="rgb(0, 0, 0)"><path d="M115.6495903,-121.3722603L115.8170654,-118.1766458" /></g>
<g stroke="rgb(0, 0, 0)"><path d="M115.8170654,-118.1766458L114.61871,-118.1138426" /></g>
<g stroke="rgb(0, 0, 0)"><path d="M114.451235,-121.3094571L115.6495903,-121.3722603" /></g>
<g stroke="rgb(0, 0, 0)"><circle cx="100" cy="-100" r="1.6" /></g>
<g stroke="rgb(0, 0, 0)"><circle cx="100" cy="-83" r="1.6" /></g>
<g stroke="rgb(0, 0, 0)"><circle cx="100" cy="-66" r="1.6" /></g>
<g stroke="rgb(0, 0, 0)"><circle cx="117" cy="-100" r="1.6" /></g>
<g stroke="rgb(0, 0, 0)"><circle cx="117" cy="-83" r="1.6" /></g>
<g stroke="rgb(0, 0, 0)"><circle cx="117" cy="-66" r="1.6" /></g>
<g stroke="rgb(0, 0, 0)"><circle cx="138" cy="-92.35" r="1.6" /></g>
<g stroke="rgb(0, 0, 0)"><circle cx="138" cy="-75.35" r="1.6" /></g>
<g stroke="rgb(0, 0, 0)"><circle cx="138" cy="-58.35" r="1.6" /></g>
<g stroke="rgb(0, 0, 0)"><circle cx="161.3626747" cy="-94.4288549" r="1.6" /></g>
<g stroke="rgb(0, 0, 0)"><circle cx="162.1042043" cy="-77.4450351" r="1.6" /></g>
<g stroke="rgb(0, 0, 0)"><circle cx="162.8457339" cy="-60.4612153" r="1.6" /></g>
<g stroke="rgb(0, 0, 0)"><circle cx="182.4343702" cy="-104.7077726" r="1.6" /></g>
<g stroke="rgb(0, 0, 0)"><circle cx="183.9160178" cy="-87.7724627" r="1.6" /></g>
<g stroke="rgb(0, 0, 0)"><circle cx="185.3976654" cy="-70.8371528" r="1.6" /></g>
<g stroke="rgb(0, 0, 0)"><circle cx="200.1105038" cy="-97.7217653" r="1.6" /></g>
<g stroke="rgb(0, 0, 0)"><circle cx="201.9625633" cy="-76.552628" r="1.6" /></g>
<g stroke="rgb(0, 0, 0)"><circle cx="77.9" cy="-130.6" r="1.6" /></g>
<g stroke="rgb(0, 0, 0)"><circle cx="94.4234268" cy="-124.4875186" r="1.6" /></g>
<g stroke="rgb(0, 0, 0)"><circle cx="112.5377134" cy="-119.606978" r="1.6" /></g>
<g stroke="rgb(0, 0, 0)"><path d="M96.55,-101.5L97.75,-101.5" /></g>
<g stroke="rgb(0, 0, 0)"><path d="M97.75,-101.5L97.75,-98.5" /></g>
<g stroke="rgb(0, 0, 0)"><path d="M97.75,-98.5L96.55,-98.5" /></g>
<g stroke="rgb(0, 0, 0)"><path d="M96.55,-98.5L96.55,-101.5" /></g>
<g stroke="rgb(0, 0, 0)"><path d="M96.55,-84.5L97.75,-84.5" /></g>
<g stroke="rgb(0, 0, 0)"><path d="M97.75,-84.5L97.75,-81.5" /></g>
<g stroke="rgb(0, 0, 0)"><path d="M97.75,-81.5L96.55,-81.5" /></g>
<g stroke="rgb(0, 0, 0)"><path d="M96.55,-81.5L96.55,-84.5" /></g>
<g stroke="rgb(0, 0, 0)"><path d="M96.55,-67.5L97.75,-67.5" /></g>
<g stroke="rgb(0, 0, 0)"><path d="M97.75,-67.5L97.75,-64.5" /></g>
<g stroke="rgb(0, 0, 0)"><path d="M97.75,-64.5L96.55,-64.5" /></g>
<g stroke="rgb(0, 0, 0)"><path d="M96.55,-64.5L96.55,-67.5" /></g>
<g stroke="rgb(0, 0, 0)"><path d="M113.55,-101.5L114.75,-101.5" /></g>
<g stroke="rgb(0, 0, 0)"><path d="M114.75,-101.5L114.75,-98.5" /></g>
<g stroke="rgb(0, 0, 0)"><path d="M114.75,-98.5L113.55,-98.5" /></g>
<g stroke="rgb(0, 0, 0)"><path d="M113.55,-98.5L113.55,-101.5" /></g>
<g stroke="rgb(0, 0, 0)"><path d="M113.55,-84.5L114.75,-84.5" /></g>
<g stroke="rgb(0, 0, 0)"><path d="M114.75,-84.5L114.75,-81.5" /></g>
<g stroke="rgb(0, 0, 0)"><path d="M114.75,-81.5L113.55,-81.5" /></g>
<g stroke="rgb(0, 0, 0)"><path d="M113.55,-81.5L113.55,-84.5" /></g>
<g stroke="rgb(0, 0, 0)"><path d="M113.55,-67.5L114.75,-67.5" /></g>
<g stroke="rgb(0, 0, 0)"><path d="M114.75,-67.5L114.75,-64.5" /></g>
<g stroke="rgb(0, 0, 0)"><path d="M114.75,-64.5L113.55,-64.5" /></g>
<g stroke="rgb(0, 0, 0)"><path d="M113.55,-64.5L113.55,-67.5" /></g>
<g stroke="rgb(0, 0, 0)"><path d="M134.55,-93.85L135.75,-93.85" /></g>
<g stroke="rgb(0, 0, 0)"><path d="M135.75,-93.85L135.75,-90.85" /></g>
<g stroke="rgb(0, 0, 0)"><path d="M135.75,-90.85L134.55,-90.85" /></g>
<g stroke="rgb(0, 0, 0)"><path d="M134.55,-90.85L134.55,-93.85" /></g>
<g stroke="rgb(0, 0, 0)"><path d="M134.55,-76.85L135.75,-76.85" /></g>
<g stroke="rgb(0, 0, 0)"><path d="M135.75,-76.85L135.75,-73.85" /></g>
<g stroke="rgb(0, 0, 0)"><path d="M135.75,-73.85L134.55,-73.85" /></g>
<g stroke="rgb(0, 0, 0)"><path d="M134.55,-73.85L134.55,-76.85" /></g>
<g stroke="rgb(0, 0, 0)"><path d="M134.55,-59.85L135.75,-59.85" /></g>
<g stroke="rgb(0, 0, 0)"><path d="M135.75,-59.85L135.75,-56.85" /></g>
<g stroke="rgb(0, 0, 0)"><path d="M135.75,-56.85L134.55,-56.85" /></g>
<g stroke="rgb(0, 0, 0)"><path d="M134.55,-56.85L134.55,-59.85" /></g>
<g stroke="rgb(0, 0, 0)"><path d="M157.8505293,-95.7769403L159.0493872,-95.8292836" /></g>
<g stroke="rgb(0, 0, 0)"><path d="M159.0493872,-95.8292836L159.1802453,-92.8321389" /></g>
<g stroke="rgb(0, 0, 0)"><path d="M159.1802453,-92.8321389L157.9813874,-92.7797956" /></g>
<g stroke="rgb(0, 0, 0)"><path d="M157.9813874,-92.7797956L157.8505293,-95.7769403" /></g>
<g stroke="rgb(0, 0, 0)"><path d="M158.5920589,-78.7931205L159.7909168,-78.8454638" /></g>
<g stroke="rgb(0, 0, 0)"><path d="M159.7909168,-78.8454638L159.9217749,-75.8483191" /></g>
<g stroke="rgb(0, 0, 0)"><path d="M159.9217749,-75.8483191L158.722917,-75.7959758" /></g>
<g stroke="rgb(0, 0, 0)"><path d="M158.722917,-75.7959758L158.5920589,-78.7931205" /></g>
<g stroke="rgb(0, 0, 0)"><path d="M159.3335885,-61.8093007L160.5324464,-61.861644" /></g>
<g stroke="rgb(0, 0, 0)"><path d="M160.5324464,-61.861644L160.6633045,-58.8644993" /></g>
<g stroke="rgb(0, 0, 0)"><path d="M160.6633045,-58.8644993L159.4644466,-58.812156" /></g>
<g stroke="rgb(0, 0, 0)"><path d="M159.4644466,-58.812156L159.3335885,-61.8093007" /></g>
<g stroke="rgb(0, 0, 0)"><path d="M178.8667649,-105.9013773L180.0621985,-106.0059642" /></g>
<g stroke="rgb(0, 0, 0)"><path d="M180.0621985,-106.0059642L180.3236657,-103.0173801" /></g>
<g stroke="rgb(0, 0, 0)"><path d="M180.3236657,-103.0173801L179.1282321,-102.9127932" /></g>
<g stroke="rgb(0, 0, 0)"><path d="M179.1282321,-102.9127932L178.8667649,-105.9013773" /></g>
<g stroke="rgb(0, 0, 0)"><path d="M180.3484125,-88.9660674L181.5438461,-89.0706543" /></g>
<g stroke="rgb(0, 0, 0)"><path d="M181.5438461,-89.0706543L181.8053133,-86.0820702" /></g>
<g stroke="rgb(0, 0, 0)"><path d="M181.8053133,-86.0820702L180.6098797,-85.9774833" /></g>
<g stroke="rgb(0, 0, 0)"><path d="M180.6098797,-85.9774833L180.3484125,-88.9660674" /></g>
<g stroke="rgb(0, 0, 0)"><path d="M181.8300601,-72.0307575L183.0254937,-72.1353444" /></g>
<g stroke="rgb(0, 0, 0)"><path d="M183.0254937,-72.1353444L183.2869609,-69.1467603" /></g>
<g stroke="rgb(0, 0, 0)"><path d="M183.2869609,-69.1467603L182.0915273,-69.0421734" /></g>
<g stroke="rgb(0, 0, 0)"><path d="M182.0915273,-69.0421734L181.8300601,-72.0307575" /></g>
<g stroke="rgb(0, 0, 0)"><path d="M201.3041085,-101.2893706L201.4086954,-100.093937" /></g>
<g stroke="rgb(0, 0, 0)"><path d="M201.4086954,-100.093937L198.4201113,-99.8324698" /></g>
<g stroke="rgb(0, 0, 0)"><path d="M198.4201113,-99.8324698L198.3155244,-101.0279034" /></g>
<g stroke="rgb(0, 0, 0)"><path d="M198.3155244,-101.0279034L201.3041085,-101.2893706" /></g>
<g stroke="rgb(0, 0, 0)"><path d="M203.156168,-80.1202333L203.2607549,-78.9247997" /></g>
<g stroke="rgb(0, 0, 0)"><path d="M203.2607549,-78.9247997L200.2721708,-78.6633325" /></g>
<g stroke="rgb(0, 0, 0)"><path d="M200.2721708,-78.6633325L200.1675839,-79.8587661" /></g>
<g stroke="rgb(0, 0, 0)"><path d="M200.1675839,-79.8587661L203.156168,-80.1202333" /></g>
<g stroke="rgb(0, 0, 0)"><path d="M80.0845167,-133.6627417L79.8350227,-132.4889646" /></g>
<g stroke="rgb(0, 0, 0)"><path d="M79.8350227,-132.4889646L76.9005799,-133.1126997" /></g>
<g stroke="rgb(0, 0, 0)"><path d="M76.9005799,-133.1126997L77.1500739,-134.2864768" /></g>
<g stroke="rgb(0, 0, 0)"><path d="M77.1500739,-134.2864768L80.0845167,-133.6627417" /></g>
<g stroke="rgb(0, 0, 0)"><path d="M96.4446582,-127.6603917L96.2569368,-126.4751657" /></g>
<g stroke="rgb(0, 0, 0)"><path d="M96.2569368,-126.4751657L93.2938718,-126.9444691" /></g>
<g stroke="rgb(0, 0, 0)"><path d="M93.2938718,-126.9444691L93.4815932,-128.1296951" /></g>
<g stroke="rgb(0, 0, 0)"><path d="M93.4815932,-128.1296951L96.4446582,-127.6603917" /></g>
<g stroke="rgb(0, 0, 0)"><path d="M113.8550986,-123.1307539L113.9179018,-121.9323984" /></g>
<g stroke="rgb(0, 0, 0)"><path d="M113.9179018,-121.9323984L110.9220132,-121.7753905" /></g>
<g stroke="rgb(0, 0, 0)"><path d="M110.9220132,-121.7753905L110.85921,-122.973746" /></g>
<g stroke="rgb(0, 0, 0)"><path d="M110.85921,-122.973746L113.8550986,-123.1307539" /></g>
<g stroke="rgb(0, 0, 0)"><path d="M102.25,-101.5L103.45,-101.5" /></g>
<g stroke="rgb(0, 0, 0)"><path d="M103.45,-101.5L103.45,-98.5" /></g>
<g stroke="rgb(0, 0, 0)"><path d="M103.45,-98.5L102.25,-98.5" /></g>
<g stroke="rgb(0, 0, 0)"><path d="M102.25,-98.5L102.25,-101.5" /></g>
<g stroke="rgb(0, 0, 0)"><path d="M102.25,-84.5L103.45,-84.5" /></g>
<g stroke="rgb(0, 0, 0)"><path d="M103.45,-84.5L103.45,-81.5" /></g>
<g stroke="rgb(0, 0, 0)"><path d="M103.45,-81.5L102.25,-81.5" /></g>
<g stroke="rgb(0, 0, 0)"><path d="M102.25,-81.5L102.25,-84.5" /></g>
<g stroke="rgb(0, 0, 0)"><path d="M102.25,-67.5L103.45,-67.5" /></g>
<g stroke="rgb(0, 0, 0)"><path d="M103.45,-67.5L103.45,-64.5" /></g>
<g stroke="rgb(0, 0, 0)"><path d="M103.45,-64.5L102.25,-64.5" /></g>
<g stroke="rgb(0, 0, 0)"><path d="M102.25,-64.5L102.25,-67.5" /></g>
<g stroke="rgb(0, 0, 0)"><path d="M119.25,-101.5L120.45,-101.5" /></g>
<g stroke="rgb(0, 0, 0)"><path d="M120.45,-101.5L120.45,-98.5" /></g>
<g stroke="rgb(0, 0, 0)"><path d="M120.45,-98.5L119.25,-98.5" /></g>
<g stroke="rgb(0, 0, 0)"><path d="M119.25,-98.5L119.25,-101.5" /></g>
<g stroke="rgb(0, 0, 0)"><path d="M119.25,-84.5L120.45,-84.5" /></g>
<g stroke="rgb(0, 0, 0)"><path d="M120.45,-84.5L120.45,-81.5" /></g>
<g stroke="rgb(0, 0, 0)"><path d="M120.45,-81.5L119.25,-81.5" /></g>
<g stroke="rgb(0, 0, 0)"><path d="M119.25,-81.5L119.25,-84.5" /></g>
<g stroke="rgb(0, 0, 0)"><path d="M119.25,-67.5L120.45,-67.5" /></g>
<g stroke="rgb(0, 0, 0)"><path d="M120.45,-67.5L120.45,-64.5" /></g>
<g stroke="rgb(0, 0, 0)"><path d="M120.45,-64.5L119.25,-64.5" /></g>
<g stroke="rgb(0, 0, 0)"><path d="M119.25,-64.5L119.25,-67.5" /></g>
<g stroke="rgb(0, 0, 0)"><path d="M140.25,-93.85L141.45,-93.85" /></g>
<g stroke="rgb(0, 0, 0)"><path d="M141.45,-93.85L141.45,-90.85" /></g>
<g stroke="rgb(0, 0, 0)"><path d="M141.45,-90.85L140.25,-90.85" /></g>
<g stroke="rgb(0, 0, 0)"><path d="M140.25,-90.85L140.25,-93.85" /></g>
<g stroke="rgb(0, 0, 0)"><path d="M140.25,-76.85L141.45,-76.85" /></g>
<g stroke="rgb(0, 0, 0)"><path d="M141.45,-76.85L141.45,-73.85" /></g>
<g stroke="rgb(0, 0, 0)"><path d="M141.45,-73.85L140.25,-73.85" /></g>
<g stroke="rgb(0, 0, 0)"><path d="M140.25,-73.85L140.25,-76.85" /></g>
<g stroke="rgb(0, 0, 0)"><path d="M140.25,-59.85L141.45,-59.85" /></g>
<g stroke="rgb(0, 0, 0)"><path d="M141.45,-59.85L141.45,-56.85" /></g>
<g stroke="rgb(0, 0, 0)"><path d="M141.45,-56.85L140.25,-56.85" /></g>
<g stroke="rgb(0, 0, 0)"><path d="M140.25,-56.85L140.25,-59.85" /></g>
<g stroke="rgb(0, 0, 0)"><path d="M163.5451041,-96.0255709L164.743962,-96.0779142" /></g>
<g stroke="rgb(0, 0, 0)"><path d="M164.743962,-96.0779142L164.8748201,-93.0807695" /></g>
<g stroke="rgb(0, 0, 0)"><path d="M164.8748201,-93.0807695L163.6759622,-93.0284262" /></g>
<g stroke="rgb(0, 0, 0)"><path d="M163.6759622,-93.0284262L163.5451041,-96.0255709" /></g>
<g stroke="rgb(0, 0, 0)"><path d="M164.2866337,-79.0417511L165.4854916,-79.0940944" /></g>
<g stroke="rgb(0, 0, 0)"><path d="M165.4854916,-79.0940944L165.6163497,-76.0969497" /></g>
<g stroke="rgb(0, 0, 0)"><path d="M165.6163497,-76.0969497L164.4174918,-76.0446064" /></g>
<g stroke="rgb(0, 0, 0)"><path d="M164.4174918,-76.0446064L164.2866337,-79.0417511" /></g>
<g stroke="rgb(0, 0, 0)"><path d="M165.0281633,-62.0579313L166.2270212,-62.1102746" /></g>
<g stroke="rgb(0, 0, 0)"><path d="M166.2270212,-62.1102746L166.3578793,-59.1131299" /></g>
<g stroke="rgb(0, 0, 0)"><path d="M166.3578793,-59.1131299L165.1590214,-59.0607866" /></g>
<g stroke="rgb(0, 0, 0)"><path d="M165.1590214,-59.0607866L165.0281633,-62.0579313" /></g>
<g stroke="rgb(0, 0, 0)"><path d="M184.5450747,-106.3981651L185.7405083,-106.502752" /></g>
<g stroke="rgb(0, 0, 0)"><path d="M185.7405083,-106.502752L186.0019755,-103.5141679" /></g>
<g stroke="rgb(0, 0, 0)"><path d="M186.0019755,-103.5141679L184.8065419,-103.409581" /></g>
<g stroke="rgb(0, 0, 0)"><path d="M184.8065419,-103.409581L184.5450747,-106.3981651" /></g>
<g stroke="rgb(0, 0, 0)"><path d="M186.0267223,-89.4628552L187.2221559,-89.5674421" /></g>
<g stroke="rgb(0, 0, 0)"><path d="M187.2221559,-89.5674421L187.4836231,-86.578858" /></g>
<g stroke="rgb(0, 0, 0)"><path d="M187.4836231,-86.578858L186.2881895,-86.4742711" /></g>
<g stroke="rgb(0, 0, 0)"><path d="M186.2881895,-86.4742711L186.0267223,-89.4628552" /></g>
<g stroke="rgb(0, 0, 0)"><path d="M187.5083699,-72.5275453L188.7038035,-72.6321322" /></g>
<g stroke="rgb(0, 0, 0)"><path d="M188.7038035,-72.6321322L188.9652707,-69.6435481" /></g>
<g stroke="rgb(0, 0, 0)"><path d="M188.9652707,-69.6435481L187.7698371,-69.5389612" /></g>
<g stroke="rgb(0, 0, 0)"><path d="M187.7698371,-69.5389612L187.5083699,-72.5275453" /></g>
<g stroke="rgb(0, 0, 0)"><path d="M201.8008963,-95.6110608L201.9054832,-94.4156272" /></g>
<g stroke="rgb(0, 0, 0)"><path d="M201.9054832,-94.4156272L198.9168991,-94.15416" /></g>
<g stroke="rgb(0, 0, 0)"><path d="M198.9168991,-94.15416L198.8123122,-95.3495936" /></g>
<g stroke="rgb(0, 0, 0)"><path d="M198.8123122,-95.3495936L201.8008963,-95.6110608" /></g>
<g stroke="rgb(0, 0, 0)"><path d="M203.6529558,-74.4419235L203.7575427,-73.2464899" /></g>
<g stroke="rgb(0, 0, 0)"><path d="M203.7575427,-73.2464899L200.7689586,-72.9850227" /></g>
<g stroke="rgb(0, 0, 0)"><path d="M200.7689586,-72.9850227L200.6643717,-74.1804563" /></g>
<g stroke="rgb(0, 0, 0)"><path d="M200.6643717,-74.1804563L203.6529558,-74.4419235" /></g>
<g stroke="rgb(0, 0, 0)"><path d="M78.8994201,-128.0873003L78.6499261,-126.9135232" /></g>
<g stroke="rgb(0, 0, 0)"><path d="M78.6499261,-126.9135232L75.7154833,-127.5372583" /></g>
<g stroke="rgb(0, 0, 0)"><path d="M75.7154833,-127.5372583L75.9649773,-128.7110354" /></g>
<g stroke="rgb(0, 0, 0)"><path d="M75.9649773,-128.7110354L78.8994201,-128.0873003" /></g>
<g stroke="rgb(0, 0, 0)"><path d="M95.5529818,-122.0305681L95.3652604,-120.8453421" /></g>
<g stroke="rgb(0, 0, 0)"><path d="M95.3652604,-120.8453421L92.4021954,-121.3146455" /></g>
<g stroke="rgb(0, 0, 0)"><path d="M92.4021954,-121.3146455L92.5899168,-122.4998715" /></g>
<g stroke="rgb(0, 0, 0)"><path d="M92.5899168,-122.4998715L95.5529818,-122.0305681" /></g>
<g stroke="rgb(0, 0, 0)"><path d="M114.1534136,-117.4385655L114.2162168,-116.24021" /></g>
<g stroke="rgb(0, 0, 0)"><path d="M114.2162168,-116.24021L111.2203282,-116.0832021" /></g>
<g stroke="rgb(0, 0, 0)"><path d="M111.2203282,-116.0832021L111.157525,-117.2815576" /></g>
<g stroke="rgb(0, 0, 0)"><path d="M111.157525,-117.2815576L114.1534136,-117.4385655" /></g>
<g stroke="rgb(0, 0, 0)"><path d="M93.25,-108.25L106.75,-108.25" /></g>
<g stroke="rgb(0, 0, 0)"><path d="M 106.75 -108.25 A 1.5 1.5 0 0 1 108.25 -106.75" /></g>
<g stroke="rgb(0, 0, 0)"><path d="M108.25,-106.75L108.25,-93.25" /></g>
<g stroke="rgb(0, 0, 0)"><path d="M 108.25 -93.25 A 1.5 1.5 0 0 1 106.75 -91.75" /></g>
<g stroke="rgb(0, 0, 0)"><path d="M106.75,-91.75L93.25,-91.75" /></g>
<g stroke="rgb(0, 0, 0)"><path d="M 93.25 -91.75 A 1.5 1.5 0 0 1 91.75 -93.25" /></g>
<g stroke="rgb(0, 0, 0)"><path d="M91.75,-93.25L91.75,-106.75" /></g>
<g stroke="rgb(0, 0, 0)"><path d="M 91.75 -106.75 A 1.5 1.5 0 0 1 93.25 -108.25" /></g>
<g stroke="rgb(0, 0, 0)"><path d="M93.25,-91.25L106.75,-91.25" /></g>
<g stroke="rgb(0, 0, 0)"><path d="M 106.75 -91.25 A 1.5 1.5 0 0 1 108.25 -89.75" /></g>
<g stroke="rgb(0, 0, 0)"><path d="M108.25,-89.75L108.25,-76.25" /></g>
<g stroke="rgb(0, 0, 0)"><path d="M 108.25 -76.25 A 1.5 1.5 0 0 1 106.75 -74.75" /></g>
<g stroke="rgb(0, 0, 0)"><path d="M106.75,-74.75L93.25,-74.75" /></g>
<g stroke="rgb(0, 0, 0)"><path d="M 93.25 -74.75 A 1.5 1.5 0 0 1 91.75 -76.25" /></g>
<g stroke="rgb(0, 0, 0)"><path d="M91.75,-76.25L91.75,-89.75" /></g>
<g stroke="rgb(0, 0, 0)"><path d="M 91.75 -89.75 A 1.5 1.5 0 0 1 93.25 -91.25" /></g>
<g stroke="rgb(0, 0, 0)"><path d="M93.25,-74.25L106.75,-74.25" /></g>
<g stroke="rgb(0, 0, 0)"><path d="M 106.75 -74.25 A 1.5 1.5 0 0 1 108.25 -72.75" /></g>
<g stroke="rgb(0, 0, 0)"><path d="M108.25,-72.75L108.25,-59.25" /></g>
<g stroke="rgb(0, 0, 0)"><path d="M 108.25 -59.25 A 1.5 1.5 0 0 1 106.75 -57.75" /></g>
<g stroke="rgb(0, 0, 0)"><path d="M106.75,-57.75L93.25,-57.75" /></g>
<g stroke="rgb(0, 0, 0)"><path d="M 93.25 -57.75 A 1.5 1.5 0 0 1 91.75 -59.25" /></g>
<g stroke="rgb(0, 0, 0)"><path d="M91.75,-59.25L91.75,-72.75" /></g>
<g stroke="rgb(0, 0, 0)"><path d="M 91.75 -72.75 A 1.5 1.5 0 0 1 93.25 -74.25" /></g>
<g stroke="rgb(0, 0, 0)"><path d="M110.25,-108.25L123.75,-108.25" /></g>
<g stroke="rgb(0, 0, 0)"><path d="M 123.75 -108.25 A 1.5 1.5 0 0 1 125.25 -106.75" /></g>
<g stroke="rgb(0, 0, 0)"><path d="M125.25,-106.75L125.25,-93.25" /></g>
<g stroke="rgb(0, 0, 0)"><path d="M 125.25 -93.25 A 1.5 1.5 0 0 1 123.75 -91.75" /></g>
<g stroke="rgb(0, 0, 0)"><path d="M123.75,-91.75L110.25,-91.75" /></g>
<g stroke="rgb(0, 0, 0)"><path d="M 110.25 -91.75 A 1.5 1.5 0 0 1 108.75 -93.25" /></g>
<g stroke="rgb(0, 0, 0)"><path d="M108.75,-93.25L108.75,-106.75" /></g>
<g stroke="rgb(0, 0, 0)"><path d="M 108.75 -106.75 A 1.5 1.5 0 0 1 110.25 -108.25" /></g>
<g stroke="rgb(0, 0, 0)"><path d="M110.25,-91.25L123.75,-91.25" /></g>
<g stroke="rgb(0, 0, 0)"><path d="M 123.75 -91.25 A 1.5 1.5 0 0 1 125.25 -89.75" /></g>
<g stroke="rgb(0, 0, 0)"><path d="M125.25,-89.75L125.25,-76.25" /></g>
<g stroke="rgb(0, 0, 0)"><path d="M 125.25 -76.25 A 1.5 1.5 0 0 1 123.75 -74.75" /></g>
<g stroke="rgb(0, 0, 0)"><path d="M123.75,-74.75L110.25,-74.75" /></g>
<g stroke="rgb(0, 0, 0)"><path d="M 110.25 -74.75 A 1.5 1.5 0 0 1 108.75 -76.25" /></g>
<g stroke="rgb(0, 0, 0)"><path d="M108.75,-76.25L108.75,-89.75" /></g>
<g stroke="rgb(0, 0, 0)"><path d="M 108.75 -89.75 A 1.5 1.5 0 0 1 110.25 -91.25" /></g>
<g stroke="rgb(0, 0, 0)"><path d="M110.25,-74.25L123.75,-74.25" /></g>
<g stroke="rgb(0, 0, 0)"><path d="M 123.75 -74.25 A 1.5 1.5 0 0 1 125.25 -72.75" /></g>
<g stroke="rgb(0, 0, 0)"><path d="M125.25,-72.75L125.25,-59.25" /></g>
<g stroke="rgb(0, 0, 0)"><path d="M 125.25 -59.25 A 1.5 1.5 0 0 1 123.75 -57.75" /></g>
<g stroke="rgb(0, 0, 0)"><path d="M123.75,-57.75L110.25,-57.75" /></g>
<g stroke="rgb(0, 0, 0)"><path d="M 110.25 -57.75 A 1.5 1.5 0 0 1 108.75 -59.25" /></g>
<g stroke="rgb(0, 0, 0)"><path d="M108.75,-59.25L108.75,-72.75" /></g>
<g stroke="rgb(0, 0, 0)"><path d="M 108.75 -72.75 A 1.5 1.5 0 0 1 110.25 -74.25" /></g>
<g stroke="rgb(0, 0, 0)"><path d="M131.25,-100.6L144.75,-100.6" /></g>
<g stroke="rgb(0, 0, 0)"><path d="M 144.75 -100.6 A 1.5 1.5 0 0 1 146.25 -99.1" /></g>
<g stroke="rgb(0, 0, 0)"><path d="M146.25,-99.1L146.25,-85.6" /></g>
<g stroke="rgb(0, 0, 0)"><path d="M 146.25 -85.6 A 1.5 1.5 0 0 1 144.75 -84.1" /></g>
<g stroke="rgb(0, 0, 0)"><path d="M144.75,-84.1L131.25,-84.1" /></g>
<g stroke="rgb(0, 0, 0)"><path d="M 131.25 -84.1 A 1.5 1.5 0 0 1 129.75 -85.6" /></g>
<g stroke="rgb(0, 0, 0)"><path d="M129.75,-85.6L129.75,-99.1" /></g>
<g stroke="rgb(0, 0, 0)"><path d="M 129.75 -99.1 A 1.5 1.5 0 0 1 131.25 -100.6" /></g>
<g stroke="rgb(0, 0, 0)"><path d="M131.25,-83.6L144.75,-83.6" /></g>
<g stroke="rgb(0, 0, 0)"><path d="M 144.75 -83.6 A 1.5 1.5 0 0 1 146.25 -82.1" /></g>
<g stroke="rgb(0, 0, 0)"><path d="M146.25,-82.1L146.25,-68.6" /></g>
<g stroke="rgb(0, 0, 0)"><path d="M 146.25 -68.6 A 1.5 1.5 0 0 1 144.75 -67.1" /></g>
<g stroke="rgb(0, 0, 0)"><path d="M144.75,-67.1L131.25,-67.1" /></g>
<g stroke="rgb(0, 0, 0)"><path d="M 131.25 -67.1 A 1.5 1.5 0 0 1 129.75 -68.6" /></g>
<g stroke="rgb(0, 0, 0)"><path d="M129.75,-68.6L129.75,-82.1" /></g>
<g stroke="rgb(0, 0, 0)"><path d="M 129.75 -82.1 A 1.5 1.5 0 0 1 131.25 -83.6" /></g>
<g stroke="rgb(0, 0, 0)"><path d="M131.25,-66.6L144.75,-66.6" /></g>
<g stroke="rgb(0, 0, 0)"><path d="M 144.75 -66.6 A 1.5 1.5 0 0 1 146.25 -65.1" /></g>
<g stroke="rgb(0, 0, 0)"><path d="M146.25,-65.1L146.25,-51.6" /></g>
<g stroke="rgb(0, 0, 0)"><path d="M 146.25 -51.6 A 1.5 1.5 0 0 1 144.75 -50.1" /></g>
<g stroke="rgb(0, 0, 0)"><path d="M144.75,-50.1L131.25,-50.1" /></g>
<g stroke="rgb(0, 0, 0)"><path d="M 131.25 -50.1 A 1.5 1.5 0 0 1 129.75 -51.6" /></g>
<g stroke="rgb(0, 0, 0)"><path d="M129.75,-51.6L129.75,-65.1" /></g>
<g stroke="rgb(0, 0, 0)"><path d="M 129.75 -65.1 A 1.5 1.5 0 0 1 131.25 -66.6" /></g>
<g stroke="rgb(0, 0, 0)"><path d="M154.2592393,-102.3765719L167.7463902,-102.9654336" /></g>
<g stroke="rgb(0, 0, 0)"><path d="M 167.746390218952 -102.9654336323728 A 1.5 1.5 0 0 1 169.31039163237278 -101.53229038104801" /></g>
<g stroke="rgb(0, 0, 0)"><path d="M169.3103917,-101.5322903L169.8992534,-88.0451394" /></g>
<g stroke="rgb(0, 0, 0)"><path d="M 169.8992534323728 -88.045139381048 A 1.5 1.5 0 0 1 168.466110181048 -86.4811379676272" /></g>
<g stroke="rgb(0, 0, 0)"><path d="M168.4661101,-86.4811379L154.9789592,-85.8922762" /></g>
<g stroke="rgb(0, 0, 0)"><path d="M 154.978959181048 -85.89227616762722 A 1.5 1.5 0 0 1 153.41495776762721 -87.325419418952" /></g>
<g stroke="rgb(0, 0, 0)"><path d="M153.4149577,-87.3254195L152.826096,-100.8125704" /></g>
<g stroke="rgb(0, 0, 0)"><path d="M 152.82609596762723 -100.81257041895199 A 1.5 1.5 0 0 1 154.25923921895202 -102.37657183237279" /></g>
<g stroke="rgb(0, 0, 0)"><path d="M155.0007689,-85.3927521L168.4879198,-85.9816138" /></g>
<g stroke="rgb(0, 0, 0)"><path d="M 168.487919818952 -85.98161383237279 A 1.5 1.5 0 0 1 170.0519212323728 -84.54847058104801" /></g>
<g stroke="rgb(0, 0, 0)"><path d="M170.0519213,-84.5484705L170.640783,-71.0613196" /></g>
<g stroke="rgb(0, 0, 0)"><path d="M 170.64078303237278 -71.06131958104801 A 1.5 1.5 0 0 1 169.207639781048 -69.49731816762721" /></g>
<g stroke="rgb(0, 0, 0)"><path d="M169.2076397,-69.4973181L155.7204888,-68.9084564" /></g>
<g stroke="rgb(0, 0, 0)"><path d="M 155.720488781048 -68.90845636762721 A 1.5 1.5 0 0 1 154.15648736762722 -70.34159961895199" /></g>
<g stroke="rgb(0, 0, 0)"><path d="M154.1564873,-70.3415997L153.5676256,-83.8287506" /></g>
<g stroke="rgb(0, 0, 0)"><path d="M 153.5676255676272 -83.82875061895199 A 1.5 1.5 0 0 1 155.000768818952 -85.39275203237278" /></g>
<g stroke="rgb(0, 0, 0)"><path d="M155.7422985,-68.4089323L169.2294494,-68.997794" /></g>
<g stroke="rgb(0, 0, 0)"><path d="M 169.22944941895202 -68.9977940323728 A 1.5 1.5 0 0 1 170.7934508323728 -67.56465078104802" /></g>
<g stroke="rgb(0, 0, 0)"><path d="M170.7934509,-67.5646507L171.3823126,-54.0774998" /></g>
<g stroke="rgb(0, 0, 0)"><path d="M 171.3823126323728 -54.077499781048004 A 1.5 1.5 0 0 1 169.949169381048 -52.513498367627214" /></g>
<g stroke="rgb(0, 0, 0)"><path d="M169.9491693,-52.5134983L156.4620184,-51.9246366" /></g>
<g stroke="rgb(0, 0, 0)"><path d="M 156.46201838104798 -51.92463656762721 A 1.5 1.5 0 0 1 154.8980169676272 -53.357779818952" /></g>
<g stroke="rgb(0, 0, 0)"><path d="M154.8980169,-53.3577799L154.3091552,-66.8449308" /></g>
<g stroke="rgb(0, 0, 0)"><path d="M 154.3091551676272 -66.844930818952 A 1.5 1.5 0 0 1 155.742298418952 -68.40893223237279" /></g>
<g stroke="rgb(0, 0, 0)"><path d="M174.9910211,-112.3380776L188.4396495,-113.5146801" /></g>
<g stroke="rgb(0, 0, 0)"><path d="M 188.4396494858785 -113.51468014713762 A 1.5 1.5 0 0 1 190.0646751471376 -112.15112171412149" /></g>
<g stroke="rgb(0, 0, 0)"><path d="M190.0646752,-112.1511217L191.2412777,-98.7024933" /></g>
<g stroke="rgb(0, 0, 0)"><path d="M 191.24127774713762 -98.70249331412148 A 1.5 1.5 0 0 1 189.8777193141215 -97.07746765286238" /></g>
<g stroke="rgb(0, 0, 0)"><path d="M189.8777193,-97.0774676L176.4290909,-95.9008651" /></g>
<g stroke="rgb(0, 0, 0)"><path d="M 176.42909091412147 -95.90086505286239 A 1.5 1.5 0 0 1 174.8040652528624 -97.26442348587852" /></g>
<g stroke="rgb(0, 0, 0)"><path d="M174.8040652,-97.2644235L173.6274627,-110.7130519" /></g>
<g stroke="rgb(0, 0, 0)"><path d="M 173.6274626528624 -110.71305188587851 A 1.5 1.5 0 0 1 174.99102108587851 -112.33807754713762" /></g>
<g stroke="rgb(0, 0, 0)"><path d="M176.4726687,-95.4027677L189.9212971,-96.5793702" /></g>
<g stroke="rgb(0, 0, 0)"><path d="M 189.9212970858785 -96.57937024713762 A 1.5 1.5 0 0 1 191.5463227471376 -95.21581181412148" /></g>
<g stroke="rgb(0, 0, 0)"><path d="M191.5463228,-95.2158118L192.7229253,-81.7671834" /></g>
<g stroke="rgb(0, 0, 0)"><path d="M 192.72292534713762 -81.76718341412148 A 1.5 1.5 0 0 1 191.3593669141215 -80.14215775286237" /></g>
<g stroke="rgb(0, 0, 0)"><path d="M191.3593669,-80.1421577L177.9107385,-78.9655552" /></g>
<g stroke="rgb(0, 0, 0)"><path d="M 177.91073851412148 -78.96555515286238 A 1.5 1.5 0 0 1 176.2857128528624 -80.32911358587852" /></g>
<g stroke="rgb(0, 0, 0)"><path d="M176.2857128,-80.3291136L175.1091103,-93.777742" /></g>
<g stroke="rgb(0, 0, 0)"><path d="M 175.1091102528624 -93.77774198587852 A 1.5 1.5 0 0 1 176.47266868587852 -95.40276764713762" /></g>
<g stroke="rgb(0, 0, 0)"><path d="M177.9543163,-78.4674578L191.4029447,-79.6440603" /></g>
<g stroke="rgb(0, 0, 0)"><path d="M 191.4029446858785 -79.64406034713762 A 1.5 1.5 0 0 1 193.0279703471376 -78.28050191412149" /></g>
<g stroke="rgb(0, 0, 0)"><path d="M193.0279704,-78.2805019L194.2045729,-64.8318735" /></g>
<g stroke="rgb(0, 0, 0)"><path d="M 194.2045729471376 -64.83187351412148 A 1.5 1.5 0 0 1 192.84101451412147 -63.20684785286238" /></g>
<g stroke="rgb(0, 0, 0)"><path d="M192.8410145,-63.2068478L179.3923861,-62.0302453" /></g>
<g stroke="rgb(0, 0, 0)"><path d="M 179.39238611412148 -62.03024525286238 A 1.5 1.5 0 0 1 177.7673604528624 -63.39380368587851" /></g>
<g stroke="rgb(0, 0, 0)"><path d="M177.7673604,-63.3938037L176.5907579,-76.8424321" /></g>
<g stroke="rgb(0, 0, 0)"><path d="M 176.5907578528624 -76.84243208587851 A 1.5 1.5 0 0 1 177.95431628587852 -78.46745774713762" /></g>
<g stroke="rgb(0, 0, 0)"><path d="M94,-107L106,-107" /></g>
<g stroke="rgb(0, 0, 0)"><path d="M 106 -107 A 1 1 0 0 1 107 -106" /></g>
<g stroke="rgb(0, 0, 0)"><path d="M107,-106L107,-94" /></g>
<g stroke="rgb(0, 0, 0)"><path d="M 107 -94 A 1 1 0 0 1 106 -93" /></g>
<g stroke="rgb(0, 0, 0)"><path d="M106,-93L94,-93" /></g>
<g stroke="rgb(0, 0, 0)"><path d="M 94 -93 A 1 1 0 0 1 93 -94" /></g>
<g stroke="rgb(0, 0, 0)"><path d="M93,-94L93,-106" /></g>
<g stroke="rgb(0, 0, 0)"><path d="M 93 -106 A 1 1 0 0 1 94 -107" /></g>
<g stroke="rgb(0, 0, 0)"><path d="M94,-90L106,-90" /></g>
<g stroke="rgb(0, 0, 0)"><path d="M 106 -90 A 1 1 0 0 1 107 -89" /></g>
<g stroke="rgb(0, 0, 0)"><path d="M107,-89L107,-77" /></g>
<g stroke="rgb(0, 0, 0)"><path d="M 107 -77 A 1 1 0 0 1 106 -76" /></g>
<g stroke="rgb(0, 0, 0)"><path d="M106,-76L94,-76" /></g>
<g stroke="rgb(0, 0, 0)"><path d="M 94 -76 A 1 1 0 0 1 93 -77" /></g>
<g stroke="rgb(0, 0, 0)"><path d="M93,-77L93,-89" /></g>
<g stroke="rgb(0, 0, 0)"><path d="M 93 -89 A 1 1 0 0 1 94 -90" /></g>
<g stroke="rgb(0, 0, 0)"><path d="M94,-73L106,-73" /></g>
<g stroke="rgb(0, 0, 0)"><path d="M 106 -73 A 1 1 0 0 1 107 -72" /></g>
<g stroke="rgb(0, 0, 0)"><path d="M107,-72L107,-60" /></g>
<g stroke="rgb(0, 0, 0)"><path d="M 107 -60 A 1 1 0 0 1 106 -59" /></g>
<g stroke="rgb(0, 0, 0)"><path d="M106,-59L94,-59" /></g>
<g stroke="rgb(0, 0, 0)"><path d="M 94 -59 A 1 1 0 0 1 93 -60" /></g>
<g stroke="rgb(0, 0, 0)"><path d="M93,-60L93,-72" /></g>
<g stroke="rgb(0, 0, 0)"><path d="M 93 -72 A 1 1 0 0 1 94 -73" /></g>
<g stroke="rgb(0, 0, 0)"><path d="M111,-107L123,-107" /></g>
<g stroke="rgb(0, 0, 0)"><path d="M 123 -107 A 1 1 0 0 1 124 -106" /></g>
<g stroke="rgb(0, 0, 0)"><path d="M124,-106L124,-94" /></g>
<g stroke="rgb(0, 0, 0)"><path d="M 124 -94 A 1 1 0 0 1 123 -93" /></g>
<g stroke="rgb(0, 0, 0)"><path d="M123,-93L111,-93" /></g>
<g stroke="rgb(0, 0, 0)"><path d="M 111 -93 A 1 1 0 0 1 110 -94" /></g>
<g stroke="rgb(0, 0, 0)"><path d="M110,-94L110,-106" /></g>
<g stroke="rgb(0, 0, 0)"><path d="M 110 -106 A 1 1 0 0 1 111 -107" /></g>
<g stroke="rgb(0, 0, 0)"><path d="M111,-90L123,-90" /></g>
<g stroke="rgb(0, 0, 0)"><path d="M 123 -90 A 1 1 0 0 1 124 -89" /></g>
<g stroke="rgb(0, 0, 0)"><path d="M124,-89L124,-77" /></g>
<g stroke="rgb(0, 0, 0)"><path d="M 124 -77 A 1 1 0 0 1 123 -76" /></g>
<g stroke="rgb(0, 0, 0)"><path d="M123,-76L111,-76" /></g>
<g stroke="rgb(0, 0, 0)"><path d="M 111 -76 A 1 1 0 0 1 110 -77" /></g>
<g stroke="rgb(0, 0, 0)"><path d="M110,-77L110,-89" /></g>
<g stroke="rgb(0, 0, 0)"><path d="M 110 -89 A 1 1 0 0 1 111 -90" /></g>
<g stroke="rgb(0, 0, 0)"><path d="M111,-73L123,-73" /></g>
<g stroke="rgb(0, 0, 0)"><path d="M 123 -73 A 1 1 0 0 1 124 -72" /></g>
<g stroke="rgb(0, 0, 0)"><path d="M124,-72L124,-60" /></g>
<g stroke="rgb(0, 0, 0)"><path d="M 124 -60 A 1 1 0 0 1 123 -59" /></g>
<g stroke="rgb(0, 0, 0)"><path d="M123,-59L111,-59" /></g>
<g stroke="rgb(0, 0, 0)"><path d="M 111 -59 A 1 1 0 0 1 110 -60" /></g>
<g stroke="rgb(0, 0, 0)"><path d="M110,-60L110,-72" /></g>
<g stroke="rgb(0, 0, 0)"><path d="M 110 -72 A 1 1 0 0 1 111 -73" /></g>
<g stroke="rgb(0, 0, 0)"><path d="M132,-99.35L144,-99.35" /></g>
<g stroke="rgb(0, 0, 0)"><path d="M 144 -99.35 A 1 1 0 0 1 145 -98.35" /></g>
<g stroke="rgb(0, 0, 0)"><path d="M145,-98.35L145,-86.35" /></g>
<g stroke="rgb(0, 0, 0)"><path d="M 145 -86.35 A 1 1 0 0 1 144 -85.35" /></g>
<g stroke="rgb(0, 0, 0)"><path d="M144,-85.35L132,-85.35" /></g>
<g stroke="rgb(0, 0, 0)"><path d="M 132 -85.35 A 1 1 0 0 1 131 -86.35" /></g>
<g stroke="rgb(0, 0, 0)"><path d="M131,-86.35L131,-98.35" /></g>
<g stroke="rgb(0, 0, 0)"><path d="M 131 -98.35 A 1 1 0 0 1 132 -99.35" /></g>
<g stroke="rgb(0, 0, 0)"><path d="M132,-82.35L144,-82.35" /></g>
<g stroke="rgb(0, 0, 0)"><path d="M 144 -82.35 A 1 1 0 0 1 145 -81.35" /></g>
<g stroke="rgb(0, 0, 0)"><path d="M145,-81.35L145,-69.35" /></g>
<g stroke="rgb(0, 0, 0)"><path d="M 145 -69.35 A 1 1 0 0 1 144 -68.35" /></g>
<g stroke="rgb(0, 0, 0)"><path d="M144,-68.35L132,-68.35" /></g>
<g stroke="rgb(0, 0, 0)"><path d="M 132 -68.35 A 1 1 0 0 1 131 -69.35" /></g>
<g stroke="rgb(0, 0, 0)"><path d="M131,-69.35L131,-81.35" /></g>
<g stroke="rgb(0, 0, 0)"><path d="M 131 -81.35 A 1 1 0 0 1 132 -82.35" /></g>
<g stroke="rgb(0, 0, 0)"><path d="M132,-65.35L144,-65.35" /></g>
<g stroke="rgb(0, 0, 0)"><path d="M 144 -65.35 A 1 1 0 0 1 145 -64.35" /></g>
<g stroke="rgb(0, 0, 0)"><path d="M145,-64.35L145,-52.35" /></g>
<g stroke="rgb(0, 0, 0)"><path d="M 145 -52.35 A 1 1 0 0 1 144 -51.35" /></g>
<g stroke="rgb(0, 0, 0)"><path d="M144,-51.35L132,-51.35" /></g>
<g stroke="rgb(0, 0, 0)"><path d="M 132 -51.35 A 1 1 0 0 1 131 -52.35" /></g>
<g stroke="rgb(0, 0, 0)"><path d="M131,-52.35L131,-64.35" /></g>
<g stroke="rgb(0, 0, 0)"><path d="M 131 -64.35 A 1 1 0 0 1 132 -65.35" /></g>
<g stroke="rgb(0, 0, 0)"><path d="M155.0630497,-101.1604761L167.0516283,-101.6839088" /></g>
<g stroke="rgb(0, 0, 0)"><path d="M 167.05162831263465 -101.68390882158185 A 1 1 0 0 1 168.09429592158185 -100.72847998736533" /></g>
<g stroke="rgb(0, 0, 0)"><path d="M168.0942959,-100.7284799L168.6177286,-88.7399013" /></g>
<g stroke="rgb(0, 0, 0)"><path d="M 168.61772862158185 -88.73990128736534 A 1 1 0 0 1 167.66229978736533 -87.69723367841814" /></g>
<g stroke="rgb(0, 0, 0)"><path d="M167.6622997,-87.6972337L155.6737211,-87.173801" /></g>
<g stroke="rgb(0, 0, 0)"><path d="M 155.67372108736535 -87.17380097841814 A 1 1 0 0 1 154.63105347841815 -88.12922981263466" /></g>
<g stroke="rgb(0, 0, 0)"><path d="M154.6310535,-88.1292299L154.1076208,-100.1178085" /></g>
<g stroke="rgb(0, 0, 0)"><path d="M 154.10762077841815 -100.11780851263467 A 1 1 0 0 1 155.06304961263467 -101.16047612158187" /></g>
<g stroke="rgb(0, 0, 0)"><path d="M155.8045793,-84.1766563L167.7931579,-84.700089" /></g>
<g stroke="rgb(0, 0, 0)"><path d="M 167.79315791263465 -84.70008902158186 A 1 1 0 0 1 168.83582552158185 -83.74466018736534" /></g>
<g stroke="rgb(0, 0, 0)"><path d="M168.8358255,-83.7446601L169.3592582,-71.7560815" /></g>
<g stroke="rgb(0, 0, 0)"><path d="M 169.35925822158185 -71.75608148736534 A 1 1 0 0 1 168.40382938736533 -70.71341387841814" /></g>
<g stroke="rgb(0, 0, 0)"><path d="M168.4038293,-70.7134139L156.4152507,-70.1899812" /></g>
<g stroke="rgb(0, 0, 0)"><path d="M 156.41525068736533 -70.18998117841814 A 1 1 0 0 1 155.37258307841813 -71.14541001263466" /></g>
<g stroke="rgb(0, 0, 0)"><path d="M155.3725831,-71.1454101L154.8491504,-83.1339887" /></g>
<g stroke="rgb(0, 0, 0)"><path d="M 154.84915037841813 -83.13398871263466 A 1 1 0 0 1 155.80457921263465 -84.17665632158186" /></g>
<g stroke="rgb(0, 0, 0)"><path d="M156.5461089,-67.1928365L168.5346875,-67.7162692" /></g>
<g stroke="rgb(0, 0, 0)"><path d="M 168.53468751263466 -67.71626922158185 A 1 1 0 0 1 169.57735512158186 -66.76084038736533" /></g>
<g stroke="rgb(0, 0, 0)"><path d="M169.5773551,-66.7608403L170.1007878,-54.7722617" /></g>
<g stroke="rgb(0, 0, 0)"><path d="M 170.10078782158186 -54.77226168736534 A 1 1 0 0 1 169.14535898736534 -53.72959407841814" /></g>
<g stroke="rgb(0, 0, 0)"><path d="M169.1453589,-53.7295941L157.1567803,-53.2061614" /></g>
<g stroke="rgb(0, 0, 0)"><path d="M 157.15678028736534 -53.206161378418145 A 1 1 0 0 1 156.11411267841814 -54.161590212634664" /></g>
<g stroke="rgb(0, 0, 0)"><path d="M156.1141127,-54.1615903L155.59068,-66.1501689" /></g>
<g stroke="rgb(0, 0, 0)"><path d="M 155.59067997841814 -66.15016891263465 A 1 1 0 0 1 156.54610881263466 -67.19283652158185" /></g>
<g stroke="rgb(0, 0, 0)"><path d="M175.8471118,-111.158201L187.8014482,-112.2040699" /></g>
<g stroke="rgb(0, 0, 0)"><path d="M 187.80144815725234 -112.20406989809175 A 1 1 0 0 1 188.88479859809175 -111.29503094274766" /></g>
<g stroke="rgb(0, 0, 0)"><path d="M188.8847986,-111.295031L189.9306675,-99.3406946" /></g>
<g stroke="rgb(0, 0, 0)"><path d="M 189.93066749809176 -99.34069464274765 A 1 1 0 0 1 189.02162854274766 -98.25734420190825" /></g>
<g stroke="rgb(0, 0, 0)"><path d="M189.0216286,-98.2573442L177.0672922,-97.2114753" /></g>
<g stroke="rgb(0, 0, 0)"><path d="M 177.06729224274764 -97.21147530190825 A 1 1 0 0 1 175.98394180190823 -98.12051425725234" /></g>
<g stroke="rgb(0, 0, 0)"><path d="M175.9839418,-98.1205142L174.9380729,-110.0748506" /></g>
<g stroke="rgb(0, 0, 0)"><path d="M 174.93807290190824 -110.07485055725235 A 1 1 0 0 1 175.84711185725234 -111.15820099809174" /></g>
<g stroke="rgb(0, 0, 0)"><path d="M177.3287594,-94.2228911L189.2830958,-95.26876" /></g>
<g stroke="rgb(0, 0, 0)"><path d="M 189.28309575725234 -95.26875999809174 A 1 1 0 0 1 190.36644619809175 -94.35972104274765" /></g>
<g stroke="rgb(0, 0, 0)"><path d="M190.3664462,-94.3597211L191.4123151,-82.4053847" /></g>
<g stroke="rgb(0, 0, 0)"><path d="M 191.41231509809177 -82.40538474274766 A 1 1 0 0 1 190.50327614274767 -81.32203430190826" /></g>
<g stroke="rgb(0, 0, 0)"><path d="M190.5032762,-81.3220343L178.5489398,-80.2761654" /></g>
<g stroke="rgb(0, 0, 0)"><path d="M 178.54893984274764 -80.27616540190826 A 1 1 0 0 1 177.46558940190823 -81.18520435725235" /></g>
<g stroke="rgb(0, 0, 0)"><path d="M177.4655894,-81.1852043L176.4197205,-93.1395407" /></g>
<g stroke="rgb(0, 0, 0)"><path d="M 176.41972050190824 -93.13954065725234 A 1 1 0 0 1 177.32875945725235 -94.22289109809174" /></g>
<g stroke="rgb(0, 0, 0)"><path d="M178.810407,-77.2875812L190.7647434,-78.3334501" /></g>
<g stroke="rgb(0, 0, 0)"><path d="M 190.76474335725234 -78.33345009809175 A 1 1 0 0 1 191.84809379809175 -77.42441114274766" /></g>
<g stroke="rgb(0, 0, 0)"><path d="M191.8480938,-77.4244112L192.8939627,-65.4700748" /></g>
<g stroke="rgb(0, 0, 0)"><path d="M 192.89396269809177 -65.47007484274765 A 1 1 0 0 1 191.98492374274767 -64.38672440190825" /></g>
<g stroke="rgb(0, 0, 0)"><path d="M191.9849238,-64.3867244L180.0305874,-63.3408555" /></g>
<g stroke="rgb(0, 0, 0)"><path d="M 180.03058744274765 -63.340855501908244 A 1 1 0 0 1 178.94723700190823 -64.24989445725234" /></g>
<g stroke="rgb(0, 0, 0)"><path d="M178.947237,-64.2498944L177.9013681,-76.2042308" /></g>
<g stroke="rgb(0, 0, 0)"><path d="M 177.90136810190825 -76.20423075725235 A 1 1 0 0 1 178.81040705725235 -77.28758119809174" /></g>
<g stroke="rgb(0, 0, 0)"><path d="M192.487396,-107.4067219L205.9360244,-108.5833244" /></g>
<g stroke="rgb(0, 0, 0)"><path d="M 205.9360243858785 -108.58332434713762 A 1.5 1.5 0 0 1 207.5610500471376 -107.21976591412148" /></g>
<g stroke="rgb(0, 0, 0)"><path d="M207.5610501,-107.219766L209.09717,-89.6618344" /></g>
<g stroke="rgb(0, 0, 0)"><path d="M 209.0971700471376 -89.66183441412149 A 1.5 1.5 0 0 1 207.7336116141215 -88.03680875286238" /></g>
<g stroke="rgb(0, 0, 0)"><path d="M207.7336116,-88.0368087L194.2849832,-86.8602062" /></g>
<g stroke="rgb(0, 0, 0)"><path d="M 194.2849832141215 -86.86020625286238 A 1.5 1.5 0 0 1 192.6599575528624 -88.22376468587852" /></g>
<g stroke="rgb(0, 0, 0)"><path d="M192.6599575,-88.2237646L191.1238376,-105.7816962" /></g>
<g stroke="rgb(0, 0, 0)"><path d="M 191.1238375528624 -105.78169618587852 A 1.5 1.5 0 0 1 192.48739598587852 -107.40672184713762" /></g>
<g stroke="rgb(0, 0, 0)"><path d="M194.3394555,-86.2375846L207.7880839,-87.4141871" /></g>
<g stroke="rgb(0, 0, 0)"><path d="M 207.7880838858785 -87.41418704713762 A 1.5 1.5 0 0 1 209.4131095471376 -86.05062861412148" /></g>
<g stroke="rgb(0, 0, 0)"><path d="M209.4131096,-86.0506287L210.9492295,-68.4926971" /></g>
<g stroke="rgb(0, 0, 0)"><path d="M 210.9492295471376 -68.49269711412148 A 1.5 1.5 0 0 1 209.58567111412148 -66.86767145286238" /></g>
<g stroke="rgb(0, 0, 0)"><path d="M209.5856711,-66.8676714L196.1370427,-65.6910689" /></g>
<g stroke="rgb(0, 0, 0)"><path d="M 196.1370427141215 -65.69106895286238 A 1.5 1.5 0 0 1 194.5120170528624 -67.05462738587852" /></g>
<g stroke="rgb(0, 0, 0)"><path d="M194.512017,-67.0546273L192.9758971,-84.6125589" /></g>
<g stroke="rgb(0, 0, 0)"><path d="M 192.9758970528624 -84.61255888587851 A 1.5 1.5 0 0 1 194.33945548587852 -86.23758454713762" /></g>
<g stroke="rgb(0, 0, 0)"><path d="M73.441593,-142.090551L86.6465856,-139.2837432" /></g>
<g stroke="rgb(0, 0, 0)"><path d="M 86.64658563622665 -139.28374320110072 A 1.5 1.5 0 0 1 87.80193950110072 -137.50465426377338" /></g>
<g stroke="rgb(0, 0, 0)"><path d="M87.8019395,-137.5046543L84.1374959,-120.2648028" /></g>
<g stroke="rgb(0, 0, 0)"><path d="M 84.13749590110072 -120.26480286377335 A 1.5 1.5 0 0 1 82.35840696377336 -119.1094489988993" /></g>
<g stroke="rgb(0, 0, 0)"><path d="M82.358407,-119.109449L69.1534144,-121.9162568" /></g>
<g stroke="rgb(0, 0, 0)"><path d="M 69.15341436377335 -121.9162567988993 A 1.5 1.5 0 0 1 67.99806049889929 -123.69534573622664" /></g>
<g stroke="rgb(0, 0, 0)"><path d="M67.9980605,-123.6953457L71.6625041,-140.9351972" /></g>
<g stroke="rgb(0, 0, 0)"><path d="M 71.66250409889929 -140.93519713622663 A 1.5 1.5 0 0 1 73.44159303622665 -142.09055100110072" /></g>
<g stroke="rgb(0, 0, 0)"><path d="M89.3697609,-135.7289873L102.7035535,-133.617122" /></g>
<g stroke="rgb(0, 0, 0)"><path d="M 102.70355349756035 -133.61712201089273 A 1.5 1.5 0 0 1 103.9504343108927 -131.90093780243967" /></g>
<g stroke="rgb(0, 0, 0)"><path d="M103.9504343,-131.9009378L101.1932769,-114.4929308" /></g>
<g stroke="rgb(0, 0, 0)"><path d="M 101.1932769108927 -114.49293080243964 A 1.5 1.5 0 0 1 99.47709270243965 -113.24604998910729" /></g>
<g stroke="rgb(0, 0, 0)"><path d="M99.4770927,-113.2460499L86.1433001,-115.3579152" /></g>
<g stroke="rgb(0, 0, 0)"><path d="M 86.14330010243965 -115.35791518910729 A 1.5 1.5 0 0 1 84.8964192891073 -117.07409939756035" /></g>
<g stroke="rgb(0, 0, 0)"><path d="M84.8964193,-117.0740994L87.6535767,-134.4821064" /></g>
<g stroke="rgb(0, 0, 0)"><path d="M 87.6535766891073 -134.48210639756033 A 1.5 1.5 0 0 1 89.36976089756035 -135.7289872108927" /></g>
<g stroke="rgb(0, 0, 0)"><path d="M105.2572495,-129.5520774L118.7387482,-130.2586128" /></g>
<g stroke="rgb(0, 0, 0)"><path d="M 118.73874816563558 -130.25861280213186 A 1.5 1.5 0 0 1 120.31519640213186 -128.83917243436443" /></g>
<g stroke="rgb(0, 0, 0)"><path d="M120.3151964,-128.8391724L121.2376177,-111.2383269" /></g>
<g stroke="rgb(0, 0, 0)"><path d="M 121.23761770213186 -111.23832683436441 A 1.5 1.5 0 0 1 119.81817733436442 -109.66187859786814" /></g>
<g stroke="rgb(0, 0, 0)"><path d="M119.8181773,-109.6618786L106.3366786,-108.9553432" /></g>
<g stroke="rgb(0, 0, 0)"><path d="M 106.33667863436442 -108.95534319786815 A 1.5 1.5 0 0 1 104.76023039786814 -110.37478356563558" /></g>
<g stroke="rgb(0, 0, 0)"><path d="M104.7602304,-110.3747836L103.8378091,-127.9756291" /></g>
<g stroke="rgb(0, 0, 0)"><path d="M 103.83780909786815 -127.97562916563558 A 1.5 1.5 0 0 1 105.25724946563558 -129.55207740213186" /></g>
<g stroke="rgb(0, 0, 0)"><path d="M193.3434867,-106.2268453L205.2978231,-107.2727142" /></g>
<g stroke="rgb(0, 0, 0)"><path d="M 205.29782305725234 -107.27271419809175 A 1 1 0 0 1 206.38117349809175 -106.36367524274766" /></g>
<g stroke="rgb(0, 0, 0)"><path d="M206.3811735,-106.3636753L207.7865599,-90.3000357" /></g>
<g stroke="rgb(0, 0, 0)"><path d="M 207.78655989809175 -90.30003574274765 A 1 1 0 0 1 206.87752094274765 -89.21668530190826" /></g>
<g stroke="rgb(0, 0, 0)"><path d="M206.8775209,-89.2166853L194.9231845,-88.1708164" /></g>
<g stroke="rgb(0, 0, 0)"><path d="M 194.92318454274766 -88.17081640190825 A 1 1 0 0 1 193.83983410190825 -89.07985535725234" /></g>
<g stroke="rgb(0, 0, 0)"><path d="M193.8398341,-89.0798553L192.4344477,-105.1434949" /></g>
<g stroke="rgb(0, 0, 0)"><path d="M 192.43444770190825 -105.14349485725235 A 1 1 0 0 1 193.34348665725236 -106.22684529809175" /></g>
<g stroke="rgb(0, 0, 0)"><path d="M195.1955462,-85.057708L207.1498826,-86.1035769" /></g>
<g stroke="rgb(0, 0, 0)"><path d="M 207.14988255725234 -86.10357689809175 A 1 1 0 0 1 208.23323299809175 -85.19453794274766" /></g>
<g stroke="rgb(0, 0, 0)"><path d="M208.233233,-85.194538L209.6386194,-69.1308984" /></g>
<g stroke="rgb(0, 0, 0)"><path d="M 209.63861939809175 -69.13089844274765 A 1 1 0 0 1 208.72958044274765 -68.04754800190825" /></g>
<g stroke="rgb(0, 0, 0)"><path d="M208.7295804,-68.047548L196.775244,-67.0016791" /></g>
<g stroke="rgb(0, 0, 0)"><path d="M 196.77524404274766 -67.00167910190825 A 1 1 0 0 1 195.69189360190825 -67.91071805725234" /></g>
<g stroke="rgb(0, 0, 0)"><path d="M195.6918936,-67.910718L194.2865072,-83.9743576" /></g>
<g stroke="rgb(0, 0, 0)"><path d="M 194.28650720190825 -83.97435755725235 A 1 1 0 0 1 195.19554615725235 -85.05770799809174" /></g>
<g stroke="rgb(0, 0, 0)"><path d="M73.9153141,-140.7119328L85.6530853,-138.2169925" /></g>
<g stroke="rgb(0, 0, 0)"><path d="M 85.65308529081776 -138.2169925007338 A 1 1 0 0 1 86.42332120073381 -137.03093320918225" /></g>
<g stroke="rgb(0, 0, 0)"><path d="M86.4233212,-137.0309332L83.0707452,-121.2583031" /></g>
<g stroke="rgb(0, 0, 0)"><path d="M 83.07074520073381 -121.25830310918225 A 1 1 0 0 1 81.88468590918225 -120.4880671992662" /></g>
<g stroke="rgb(0, 0, 0)"><path d="M81.8846859,-120.4880672L70.1469147,-122.9830075" /></g>
<g stroke="rgb(0, 0, 0)"><path d="M 70.14691470918224 -122.9830074992662 A 1 1 0 0 1 69.37667879926619 -124.16906679081775" /></g>
<g stroke="rgb(0, 0, 0)"><path d="M69.3766788,-124.1690668L72.7292548,-139.9416969" /></g>
<g stroke="rgb(0, 0, 0)"><path d="M 72.7292547992662 -139.94169689081775 A 1 1 0 0 1 73.91531409081776 -140.7119328007338" /></g>
<g stroke="rgb(0, 0, 0)"><path d="M89.9149841,-134.377051L101.7672442,-132.4998374" /></g>
<g stroke="rgb(0, 0, 0)"><path d="M 101.76724416504024 -132.49983744059512 A 1 1 0 0 1 102.59849804059515 -131.35571463495975" /></g>
<g stroke="rgb(0, 0, 0)"><path d="M102.5984981,-131.3557146L100.0759923,-115.4292401" /></g>
<g stroke="rgb(0, 0, 0)"><path d="M 100.07599234059514 -115.42924013495977 A 1 1 0 0 1 98.93186953495976 -114.59798625940486" /></g>
<g stroke="rgb(0, 0, 0)"><path d="M98.9318695,-114.5979862L87.0796094,-116.4751998" /></g>
<g stroke="rgb(0, 0, 0)"><path d="M 87.07960943495976 -116.47519975940486 A 1 1 0 0 1 86.24835555940486 -117.61932256504024" /></g>
<g stroke="rgb(0, 0, 0)"><path d="M86.2483555,-117.6193226L88.7708613,-133.5457971" /></g>
<g stroke="rgb(0, 0, 0)"><path d="M 88.77086125940485 -133.54579706504023 A 1 1 0 0 1 89.91498406504023 -134.37705094059513" /></g>
<g stroke="rgb(0, 0, 0)"><path d="M106.0716416,-128.3430424L118.055196,-128.9710739" /></g>
<g stroke="rgb(0, 0, 0)"><path d="M 118.05519604375706 -128.97107393475457 A 1 1 0 0 1 119.10616153475458 -128.02478035624296" /></g>
<g stroke="rgb(0, 0, 0)"><path d="M119.1061615,-128.0247803L119.9500788,-111.9218791" /></g>
<g stroke="rgb(0, 0, 0)"><path d="M 119.95007883475456 -111.92187905624294 A 1 1 0 0 1 119.00378525624294 -110.87091356524543" /></g>
<g stroke="rgb(0, 0, 0)"><path d="M119.0037852,-110.8709136L107.0202308,-110.2428821" /></g>
<g stroke="rgb(0, 0, 0)"><path d="M 107.02023075624294 -110.24288206524542 A 1 1 0 0 1 105.96926526524543 -111.18917564375705" /></g>
<g stroke="rgb(0, 0, 0)"><path d="M105.9692653,-111.1891757L105.125348,-127.2920769" /></g>
<g stroke="rgb(0, 0, 0)"><path d="M 105.12534796524542 -127.29207694375705 A 1 1 0 0 1 106.07164154375705 -128.34304243475458" /></g>
<g stroke="rgb(0, 0, 0)"><path d="M73.75,-96.75L88.25,-96.75" /></g>
<g stroke="rgb(0, 0, 0)"><path d="M90,-95L90,-65.5" /></g>
<g stroke="rgb(0, 0, 0)"><path d="M88.25,-63.75L73.75,-63.75" /></g>
<g stroke="rgb(0, 0, 0)"><path d="M72,-65.5L72,-95" /></g>
<g stroke="rgb(0, 0, 0)"><path d="M 88.25 -96.75 A 1.75 1.75 0 0 1 90 -95" /></g>
<g stroke="rgb(0, 0, 0)"><path d="M 90 -65.5 A 1.75 1.75 0 0 1 88.25 -63.75" /></g>
<g stroke="rgb(0, 0, 0)"><path d="M 73.75 -63.75 A 1.75 1.75 0 0 1 72 -65.5" /></g>
<g stroke="rgb(0, 0, 0)"><path d="M 72 -95 A 1.75 1.75 0 0 1 73.75 -96.75" /></g>
<g stroke="rgb(0, 0, 0)"><circle cx="88" cy="-103.75" r="1.65" /></g>
<g stroke="rgb(0, 0, 0)"><circle cx="74" cy="-103.75" r="1.65" /></g>
<g stroke="rgb(0, 0, 0)"><circle cx="85.649563" cy="-127.9020924" r="1.65" /></g>
<g stroke="rgb(0, 0, 0)"><circle cx="108.5" cy="-74.5" r="1.65" /></g>
<g stroke="rgb(0, 0, 0)"><circle cx="108.5" cy="-91.5" r="1.65" /></g>
<g stroke="rgb(0, 0, 0)"><circle cx="192.5765894" cy="-79.997696" r="1.65" /></g>
<g stroke="rgb(0, 0, 0)"><circle cx="191.0949418" cy="-96.9330059" r="1.65" /></g>
<g stroke="rgb(0, 0, 0)"><circle cx="176.7370938" cy="-78.6119196" r="1.65" /></g>
<g stroke="rgb(0, 0, 0)"><circle cx="175.2554462" cy="-95.5472295" r="1.65" /></g>
<g stroke="rgb(0, 0, 0)"><circle cx="88" cy="-103.75" r="2.05" /></g>
<g stroke="rgb(0, 0, 0)"><circle cx="74" cy="-103.75" r="2.05" /></g>
<g stroke="rgb(0, 0, 0)"><circle cx="74" cy="-117.75" r="2.05" /></g>
<g stroke="rgb(0, 0, 0)"><circle cx="149.95" cy="-85.35" r="2.05" /></g>
<g stroke="rgb(0, 0, 0)"><circle cx="172.45" cy="-62.85" r="2.05" /></g>
<g stroke="rgb(0, 0, 0)"><circle cx="172.45" cy="-107.85" r="2.05" /></g>
<g stroke="rgb(0, 0, 0)"><circle cx="127.45" cy="-62.85" r="2.05" /></g>
<g stroke="rgb(0, 0, 0)"><circle cx="127.45" cy="-107.85" r="2.05" /></g>
<g stroke="rgb(0, 0, 0)"><circle cx="85.649563" cy="-127.9020924" r="2.05" /></g>
<g stroke="rgb(0, 0, 0)"><circle cx="108.5" cy="-74.5" r="2.05" /></g>
<g stroke="rgb(0, 0, 0)"><circle cx="108.5" cy="-91.5" r="2.05" /></g>
<g stroke="rgb(0, 0, 0)"><circle cx="192.5765894" cy="-79.997696" r="2.05" /></g>
<g stroke="rgb(0, 0, 0)"><circle cx="191.0949418" cy="-96.9330059" r="2.05" /></g>
<g stroke="rgb(0, 0, 0)"><circle cx="176.7370938" cy="-78.6119196" r="2.05" /></g>
<g stroke="rgb(0, 0, 0)"><circle cx="175.2554462" cy="-95.5472295" r="2.05" /></g>
<g stroke="rgb(0, 0, 0)"><path d="M74,-99.85L88,-99.85" /></g>
<g stroke="rgb(0, 0, 0)"><path d="M88,-99.85L88,-63.85" /></g>
<g stroke="rgb(0, 0, 0)"><path d="M74,-63.85L88,-63.85" /></g>
<g stroke="rgb(0, 0, 0)"><path d="M74,-63.85L74,-99.85" /></g>
<g stroke="rgb(0, 0, 0)"><path d="M75,-101.85L87,-101.85" /></g>
<g stroke="rgb(0, 0, 0)"><path d="M87,-101.85L87,-63.85" /></g>
<g stroke="rgb(0, 0, 0)"><path d="M75,-63.85L75,-101.85" /></g>
<g stroke="rgb(0, 0, 0)"><path d="M87.41,-99.85L87.41,-97.25" /></g>
<g stroke="rgb(0, 0, 0)"><path d="M87.41,-97.25L74.59,-97.25" /></g>
<g stroke="rgb(0, 0, 0)"><path d="M74.59,-97.25L74.59,-99.85" /></g>
<g stroke="rgb(0, 0, 0)"><path d="M86.14,-101.85L86.14,-99.25" /></g>
<g stroke="rgb(0, 0, 0)"><path d="M86.14,-99.25L75.86,-99.25" /></g>
<g stroke="rgb(0, 0, 0)"><path d="M75.86,-99.25L75.86,-101.85" /></g>
<g stroke="rgb(0, 0, 0)"><path d="M151.9112271,-114.25L205.8661868,-114.25" /></g>
<g stroke="rgb(0, 0, 0)"><path d="M 205.8661868 -114.25 A 2 2 0 0 1 207.85857620348503 -112.4243114020383" /></g>
<g stroke="rgb(0, 0, 0)"><path d="M211.7914732,-67.4710942L207.8586037,-112.4239964" /></g>
<g stroke="rgb(0, 0, 0)"><path d="M 211.791512303485 -67.4706486020383 A 2 2 0 0 1 210.67986893061644 -65.50070738582522" /></g>
<g stroke="rgb(0, 0, 0)"><path d="M 210.6798689569705 -65.50070741247379 A 160.5 160.5 0 0 1 91.39432183291576 -56.6368081860285" /></g>
<g stroke="rgb(0, 0, 0)"><path d="M 91.39397390680917 -56.63691881604776 A 2 2 0 0 1 90.0000001333242 -58.54252650155712" /></g>
<g stroke="rgb(0, 0, 0)"><path d="M90,-60L90,-58.5428916" /></g>
<g stroke="rgb(0, 0, 0)"><path d="M 89 -61 A 1 1 0 0 1 90 -60" /></g>
<g stroke="rgb(0, 0, 0)"><path d="M73.2,-61L89,-61" /></g>
<g stroke="rgb(0, 0, 0)"><path d="M 73.2 -61 A 2 2 0 0 1 71.2 -63" /></g>
<g stroke="rgb(0, 0, 0)"><path d="M71.2,-78.5114035L71.2,-63" /></g>
<g stroke="rgb(0, 0, 0)"><path d="M 71.2 -78.5114035 A 2 2 0 0 1 71.20049627788998 -78.5559553267656" /></g>
<g stroke="rgb(0, 0, 0)"><path d="M 67.22562401053341 -122.86891543160627 A 199.5 199.5 0 0 1 71.20049628047508 -78.55595528013114" /></g>
<g stroke="rgb(0, 0, 0)"><path d="M 67.22562402144828 -122.8689154247458 A 2 2 0 0 1 67.22898420216113 -123.68442719870741" /></g>
<g stroke="rgb(0, 0, 0)"><path d="M70.9719132,-141.2935237L67.2289843,-123.6844272" /></g>
<g stroke="rgb(0, 0, 0)"><path d="M 70.97198916333325 -141.2938809075431 A 2 2 0 0 1 73.09287279902806 -142.87091018249924" /></g>
<g stroke="rgb(0, 0, 0)"><path d="M 73.09323663824007 -142.87088010096838 A 140.5 140.5 0 0 1 143.45340266106786 -116.9722580931208" /></g>
<g stroke="rgb(0, 0, 0)"><path d="M 151.9112271 -114.25 A 14.5 14.5 0 0 1 143.45365511783442 -116.9720767464511" /></g>
  </g>
</svg>