0
SECTION
2
HEADER
9
$INSUNITS
70
4
0
ENDSEC
0
SECTION
2
TABLES
0
TABLE
2
LTYPE
0
LTYPE
72
65
70
64
2
CONTINUOUS
3
______
73
0
40
0
0
ENDTAB
0
TABLE
2
LAYER
0
ENDTAB
0
ENDSEC
0
SECTION
2
ENTITIES
0
LINE
8
0
10
52.5
20
-38.5
11
57.5
21
-38.5
0
LINE
8
0
10
57.5
20
-38.5
11
57.5
21
-33.5
0
LINE
8
0
10
57.5
20
-33.5
11
52.5
21
-33.5
0
LINE
8
0
10
52.5
20
-33.5
11
52.5
21
-38.5
0
LINE
8
0
10
52.5
20
-157.5
11
57.5
21
-157.5
0
LINE
8
0
10
57.5
20
-157.5
11
57.5
21
-152.5
0
LINE
8
0
10
57.5
20
-152.5
11
52.5
21
-152.5
0
LINE
8
0
10
52.5
20
-152.5
11
52.5
21
-157.5
0
LINE
8
0
10
95
20
-102
11
98.4
21
-102
0
LINE
8
0
10
101.6
20
-102
11
105
21
-102
0
LINE
8
0
10
105
20
-102
11
105
21
-98
0
LINE
8
0
10
105
20
-98
11
95
21
-98
0
LINE
8
0
10
95
20
-98
11
95
21
-102
0
LINE
8
0
10
95
20
-85
11
98.4
21
-85
0
LINE
8
0
10
101.6
20
-85
11
105
21
-85
0
LINE
8
0
10
105
20
-85
11
105
21
-81
0
LINE
8
0
10
105
20
-81
11
95
21
-81
0
LINE
8
0
10
95
20
-81
11
95
21
-85
0
LINE
8
0
10
95
20
-68
11
98.4
21
-68
0
LINE
8
0
10
101.6
20
-68
11
105
21
-68
0
LINE
8
0
10
105
20
-68
11
105
21
-64
0
LINE
8
0
10
105
20
-64
11
95
21
-64
0
LINE
8
0
10
95
20
-64
11
95
21
-68
0
LINE
8
0
10
112
20
-102
11
115.4
21
-102
0
LINE
8
0
10
118.6
20
-102
11
122
21
-102
0
LINE
8
0
10
122
20
-102
11
122
21
-98
0
LINE
8
0
10
122
20
-98
11
112
21
-98
0
LINE
8
0
10
112
20
-98
11
112
21
-102
0
LINE
8
0
10
112
20
-85
11
115.4
21
-85
0
LINE
8
0
10
118.6
20
-85
11
122
21
-85
0
LINE
8
0
10
122
20
-85
11
122
21
-81
0
LINE
8
0
10
122
20
-81
11
112
21
-81
0
LINE
8
0
10
112
20
-81
11
112
21
-85
0
LINE
8
0
10
112
20
-68
11
115.4
21
-68
0
LINE
8
0
10
118.6
20
-68
11
122
21
-68
0
LINE
8
0
10
122
20
-68
11
122
21
-64
0
LINE
8
0
10
122
20
-64
11
112
21
-64
0
LINE
8
0
10
112
20
-64
11
112
21
-68
0
LINE
8
0
10
133
20
-94.35
11
136.4
21
-94.35
0
LINE
8
0
10
139.6
20
-94.35
11
143
21
-94.35
0
LINE
8
0
10
143
20
-94.35
11
143
21
-90.35
0
LINE
8
0
10
143
20
-90.35
11
133
21
-90.35
0
LINE
8
0
10
133
20
-90.35
11
133
21
-94.35
0
LINE
8
0
10
133
20
-77.35
11
136.4
21
-77.35
0
LINE
8
0
10
139.6
20
-77.35
11
143
21
-77.35
0
LINE
8
0
10
143
20
-77.35
11
143
21
-73.35
0
LINE
8
0
10
143
20
-73.35
11
133
21
-73.35
0
LINE
8
0
10
133
20
-73.35
11
133
21
-77.35
0
LINE
8
0
10
133
20
-60.35
11
136.4
21
-60.35
0
LINE
8
0
10
139.6
20
-60.35
11
143
21
-60.35
0
LINE
8
0
10
143
20
-60.35
11
143
21
-56.35
0
LINE
8
0
10
143
20
-56.35
11
133
21
-56.35
0
LINE
8
0
10
133
20
-56.35
11
133
21
-60.35
0
LINE
8
0
10
156.2801948
20
-96.2088544
11
159.6769588
21
-96.3571603
0
LINE
8
0
10
162.8739131
20
-96.4967424
11
166.270677
21
-96.6450483
0
LINE
8
0
10
166.270677
20
-96.6450483
11
166.4451546
21
-92.6488554
0
LINE
8
0
10
166.4451546
20
-92.6488554
11
156.4546724
21
-92.2126615
0
LINE
8
0
10
156.4546724
20
-92.2126615
11
156.2801948
21
-96.2088544
0
LINE
8
0
10
157.0217244
20
-79.2250346
11
160.4184884
21
-79.3733405
0
LINE
8
0
10
163.6154427
20
-79.5129226
11
167.0122066
21
-79.6612285
0
LINE
8
0
10
167.0122066
20
-79.6612285
11
167.1866842
21
-75.6650356
0
LINE
8
0
10
167.1866842
20
-75.6650356
11
157.196202
21
-75.2288417
0
LINE
8
0
10
157.196202
20
-75.2288417
11
157.0217244
21
-79.2250346
0
LINE
8
0
10
157.763254
20
-62.2412148
11
161.160018
21
-62.3895207
0
LINE
8
0
10
164.3569723
20
-62.5291028
11
167.7537362
21
-62.6774087
0
LINE
8
0
10
167.7537362
20
-62.6774087
11
167.9282138
21
-58.6812158
0
LINE
8
0
10
167.9282138
20
-58.6812158
11
157.9377316
21
-58.2450219
0
LINE
8
0
10
157.9377316
20
-58.2450219
11
157.763254
21
-62.2412148
0
LINE
8
0
10
177.6248893
20
-106.6586973
11
181.0119513
21
-106.9550268
0
LINE
8
0
10
184.1997743
20
-107.2339252
11
187.5868363
21
-107.5302547
0
LINE
8
0
10
187.5868363
20
-107.5302547
11
187.9354593
21
-103.5454759
0
LINE
8
0
10
187.9354593
20
-103.5454759
11
177.9735123
21
-102.6739185
0
LINE
8
0
10
177.9735123
20
-102.6739185
11
177.6248893
21
-106.6586973
0
LINE
8
0
10
179.1065369
20
-89.7233874
11
182.4935989
21
-90.0197169
0
LINE
8
0
10
185.6814219
20
-90.2986153
11
189.0684839
21
-90.5949448
0
LINE
8
0
10
189.0684839
20
-90.5949448
11
189.4171069
21
-86.610166
0
LINE
8
0
10
189.4171069
20
-86.610166
11
179.4551599
21
-85.7386086
0
LINE
8
0
10
179.4551599
20
-85.7386086
11
179.1065369
21
-89.7233874
0
LINE
8
0
10
180.5881845
20
-72.7880775
11
183.9752465
21
-73.084407
0
LINE
8
0
10
187.1630695
20
-73.3633054
11
190.5501315
21
-73.6596349
0
LINE
8
0
10
190.5501315
20
-73.6596349
11
190.8987545
21
-69.6748561
0
LINE
8
0
10
190.8987545
20
-69.6748561
11
180.9368075
21
-68.8032987
0
LINE
8
0
10
180.9368075
20
-68.8032987
11
180.5881845
21
-72.7880775
0
LINE
8
0
10
202.0129186
20
-103.2713643
11
202.3092481
21
-99.8843023
0
LINE
8
0
10
202.5881465
20
-96.6964793
11
202.884476
21
-93.3094173
0
LINE
8
0
10
202.884476
20
-93.3094173
11
198.8996972
21
-92.9607943
0
LINE
8
0
10
198.8996972
20
-92.9607943
11
198.0281398
21
-102.9227413
0
LINE
8
0
10
198.0281398
20
-102.9227413
11
202.0129186
21
-103.2713643
0
LINE
8
0
10
203.8649781
20
-82.102227
11
204.1613076
21
-78.715165
0
LINE
8
0
10
204.440206
20
-75.527342
11
204.7365355
21
-72.14028
0
LINE
8
0
10
204.7365355
20
-72.14028
11
200.7517567
21
-71.791657
0
LINE
8
0
10
200.7517567
20
-71.791657
11
199.8801993
21
-81.753604
0
LINE
8
0
10
199.8801993
20
-81.753604
11
203.8649781
21
-82.102227
0
LINE
8
0
10
80.8958537
20
-135.0749146
11
80.1889539
21
-131.7492128
0
LINE
8
0
10
79.5236365
20
-128.6191405
11
78.8167367
21
-125.2934386
0
LINE
8
0
10
78.8167367
20
-125.2934386
11
74.9041463
21
-126.1250854
0
LINE
8
0
10
74.9041463
20
-126.1250854
11
76.9832633
21
-135.9065614
0
LINE
8
0
10
76.9832633
20
-135.9065614
11
80.8958537
21
-135.0749146
0
LINE
8
0
10
97.2903649
20
-129.0928174
11
96.7584877
21
-125.734677
0
LINE
8
0
10
96.2578974
20
-122.5740743
11
95.7260203
21
-119.215934
0
LINE
8
0
10
95.7260203
20
-119.215934
11
91.7752669
21
-119.8416718
0
LINE
8
0
10
91.7752669
20
-119.8416718
11
93.3396115
21
-129.7185552
0
LINE
8
0
10
93.3396115
20
-129.7185552
11
97.2903649
21
-129.0928174
0
LINE
8
0
10
114.5766616
20
-124.6481897
11
114.7546039
21
-121.2528492
0
LINE
8
0
10
114.9220789
20
-118.0572347
11
115.1000212
21
-114.6618943
0
LINE
8
0
10
115.1000212
20
-114.6618943
11
111.105503
21
-114.4525505
0
LINE
8
0
10
111.105503
20
-114.4525505
11
110.5821434
21
-124.4388459
0
LINE
8
0
10
110.5821434
20
-124.4388459
11
114.5766616
21
-124.6481897
0
LINE
8
0
10
98.4
20
-103.2
11
101.6
21
-103.2
0
LINE
8
0
10
101.6
20
-103.2
11
101.6
21
-102
0
LINE
8
0
10
98.4
20
-102
11
98.4
21
-103.2
0
LINE
8
0
10
98.4
20
-86.2
11
101.6
21
-86.2
0
LINE
8
0
10
101.6
20
-86.2
11
101.6
21
-85
0
LINE
8
0
10
98.4
20
-85
11
98.4
21
-86.2
0
LINE
8
0
10
98.4
20
-69.2
11
101.6
21
-69.2
0
LINE
8
0
10
101.6
20
-69.2
11
101.6
21
-68
0
LINE
8
0
10
98.4
20
-68
11
98.4
21
-69.2
0
LINE
8
0
10
115.4
20
-103.2
11
118.6
21
-103.2
0
LINE
8
0
10
118.6
20
-103.2
11
118.6
21
-102
0
LINE
8
0
10
115.4
20
-102
11
115.4
21
-103.2
0
LINE
8
0
10
115.4
20
-86.2
11
118.6
21
-86.2
0
LINE
8
0
10
118.6
20
-86.2
11
118.6
21
-85
0
LINE
8
0
10
115.4
20
-85
11
115.4
21
-86.2
0
LINE
8
0
10
115.4
20
-69.2
11
118.6
21
-69.2
0
LINE
8
0
10
118.6
20
-69.2
11
118.6
21
-68
0
LINE
8
0
10
115.4
20
-68
11
115.4
21
-69.2
0
LINE
8
0
10
136.4
20
-95.55
11
139.6
21
-95.55
0
LINE
8
0
10
139.6
20
-95.55
11
139.6
21
-94.35
0
LINE
8
0
10
136.4
20
-94.35
11
136.4
21
-95.55
0
LINE
8
0
10
136.4
20
-78.55
11
139.6
21
-78.55
0
LINE
8
0
10
139.6
20
-78.55
11
139.6
21
-77.35
0
LINE
8
0
10
136.4
20
-77.35
11
136.4
21
-78.55
0
LINE
8
0
10
136.4
20
-61.55
11
139.6
21
-61.55
0
LINE
8
0
10
139.6
20
-61.55
11
139.6
21
-60.35
0
LINE
8
0
10
136.4
20
-60.35
11
136.4
21
-61.55
0
LINE
8
0
10
159.6246155
20
-97.5560182
11
162.8215698
21
-97.6956003
0
LINE
8
0
10
162.8215698
20
-97.6956003
11
162.8739131
21
-96.4967424
0
LINE
8
0
10
159.6769588
20
-96.3571603
11
159.6246155
21
-97.5560182
0
LINE
8
0
10
160.3661451
20
-80.5721984
11
163.5630994
21
-80.7117805
0
LINE
8
0
10
163.5630994
20
-80.7117805
11
163.6154427
21
-79.5129226
0
LINE
8
0
10
160.4184884
20
-79.3733405
11
160.3661451
21
-80.5721984
0
LINE
8
0
10
161.1076747
20
-63.5883786
11
164.304629
21
-63.7279607
0
LINE
8
0
10
164.304629
20
-63.7279607
11
164.3569723
21
-62.5291028
0
LINE
8
0
10
161.160018
20
-62.3895207
11
161.1076747
21
-63.5883786
0
LINE
8
0
10
180.9073644
20
-108.1504604
11
184.0951874
21
-108.4293588
0
LINE
8
0
10
184.0951874
20
-108.4293588
11
184.1997743
21
-107.2339252
0
LINE
8
0
10
181.0119513
20
-106.9550268
11
180.9073644
21
-108.1504604
0
LINE
8
0
10
182.389012
20
-91.2151505
11
185.576835
21
-91.4940489
0
LINE
8
0
10
185.576835
20
-91.4940489
11
185.6814219
21
-90.2986153
0
LINE
8
0
10
182.4935989
20
-90.0197169
11
182.389012
21
-91.2151505
0
LINE
8
0
10
183.8706596
20
-74.2798406
11
187.0584826
21
-74.558739
0
LINE
8
0
10
187.0584826
20
-74.558739
11
187.1630695
21
-73.3633054
0
LINE
8
0
10
183.9752465
20
-73.084407
11
183.8706596
21
-74.2798406
0
LINE
8
0
10
203.5046817
20
-99.9888892
11
203.7835801
21
-96.8010662
0
LINE
8
0
10
203.7835801
20
-96.8010662
11
202.5881465
21
-96.6964793
0
LINE
8
0
10
202.3092481
20
-99.8843023
11
203.5046817
21
-99.9888892
0
LINE
8
0
10
205.3567412
20
-78.8197519
11
205.6356396
21
-75.6319289
0
LINE
8
0
10
205.6356396
20
-75.6319289
11
204.440206
21
-75.527342
0
LINE
8
0
10
204.1613076
20
-78.715165
11
205.3567412
21
-78.8197519
0
LINE
8
0
10
81.362731
20
-131.4997188
11
80.6974136
21
-128.3696465
0
LINE
8
0
10
80.6974136
20
-128.3696465
11
79.5236365
21
-128.6191405
0
LINE
8
0
10
80.1889539
20
-131.7492128
11
81.362731
21
-131.4997188
0
LINE
8
0
10
97.9437137
20
-125.5469556
11
97.4431234
21
-122.3863529
0
LINE
8
0
10
97.4431234
20
-122.3863529
11
96.2578974
21
-122.5740743
0
LINE
8
0
10
96.7584877
20
-125.734677
11
97.9437137
21
-125.5469556
0
LINE
8
0
10
115.9529592
20
-121.3156524
11
116.1204343
21
-118.1200379
0
LINE
8
0
10
116.1204343
20
-118.1200379
11
114.9220789
21
-118.0572347
0
LINE
8
0
10
114.7546039
20
-121.2528492
11
115.9529592
21
-121.3156524
0
CIRCLE
8
0
10
100
20
-100
40
1.6
0
CIRCLE
8
0
10
100
20
-83
40
1.6
0
CIRCLE
8
0
10
100
20
-66
40
1.6
0
CIRCLE
8
0
10
117
20
-100
40
1.6
0
CIRCLE
8
0
10
117
20
-83
40
1.6
0
CIRCLE
8
0
10
117
20
-66
40
1.6
0
CIRCLE
8
0
10
138
20
-92.35
40
1.6
0
CIRCLE
8
0
10
138
20
-75.35
40
1.6
0
CIRCLE
8
0
10
138
20
-58.35
40
1.6
0
CIRCLE
8
0
10
161.3626747
20
-94.4288549
40
1.6
0
CIRCLE
8
0
10
162.1042043
20
-77.4450351
40
1.6
0
CIRCLE
8
0
10
162.8457339
20
-60.4612153
40
1.6
0
CIRCLE
8
0
10
182.7801743
20
-105.1020866
40
1.6
0
CIRCLE
8
0
10
184.2618219
20
-88.1667767
40
1.6
0
CIRCLE
8
0
10
185.7434695
20
-71.2314668
40
1.6
0
CIRCLE
8
0
10
200.4563079
20
-98.1160793
40
1.6
0
CIRCLE
8
0
10
202.3083674
20
-76.946942
40
1.6
0
CIRCLE
8
0
10
77.9
20
-130.6
40
1.6
0
CIRCLE
8
0
10
94.5328159
20
-124.4672446
40
1.6
0
CIRCLE
8
0
10
112.8410823
20
-119.5503701
40
1.6
0
LINE
8
0
10
96.55
20
-101.5
11
97.75
21
-101.5
0
LINE
8
0
10
97.75
20
-101.5
11
97.75
21
-98.5
0
LINE
8
0
10
97.75
20
-98.5
11
96.55
21
-98.5
0
LINE
8
0
10
96.55
20
-98.5
11
96.55
21
-101.5
0
LINE
8
0
10
96.55
20
-84.5
11
97.75
21
-84.5
0
LINE
8
0
10
97.75
20
-84.5
11
97.75
21
-81.5
0
LINE
8
0
10
97.75
20
-81.5
11
96.55
21
-81.5
0
LINE
8
0
10
96.55
20
-81.5
11
96.55
21
-84.5
0
LINE
8
0
10
96.55
20
-67.5
11
97.75
21
-67.5
0
LINE
8
0
10
97.75
20
-67.5
11
97.75
21
-64.5
0
LINE
8
0
10
97.75
20
-64.5
11
96.55
21
-64.5
0
LINE
8
0
10
96.55
20
-64.5
11
96.55
21
-67.5
0
LINE
8
0
10
113.55
20
-101.5
11
114.75
21
-101.5
0
LINE
8
0
10
114.75
20
-101.5
11
114.75
21
-98.5
0
LINE
8
0
10
114.75
20
-98.5
11
113.55
21
-98.5
0
LINE
8
0
10
113.55
20
-98.5
11
113.55
21
-101.5
0
LINE
8
0
10
113.55
20
-84.5
11
114.75
21
-84.5
0
LINE
8
0
10
114.75
20
-84.5
11
114.75
21
-81.5
0
LINE
8
0
10
114.75
20
-81.5
11
113.55
21
-81.5
0
LINE
8
0
10
113.55
20
-81.5
11
113.55
21
-84.5
0
LINE
8
0
10
113.55
20
-67.5
11
114.75
21
-67.5
0
LINE
8
0
10
114.75
20
-67.5
11
114.75
21
-64.5
0
LINE
8
0
10
114.75
20
-64.5
11
113.55
21
-64.5
0
LINE
8
0
10
113.55
20
-64.5
11
113.55
21
-67.5
0
LINE
8
0
10
134.55
20
-93.85
11
135.75
21
-93.85
0
LINE
8
0
10
135.75
20
-93.85
11
135.75
21
-90.85
0
LINE
8
0
10
135.75
20
-90.85
11
134.55
21
-90.85
0
LINE
8
0
10
134.55
20
-90.85
11
134.55
21
-93.85
0
LINE
8
0
10
134.55
20
-76.85
11
135.75
21
-76.85
0
LINE
8
0
10
135.75
20
-76.85
11
135.75
21
-73.85
0
LINE
8
0
10
135.75
20
-73.85
11
134.55
21
-73.85
0
LINE
8
0
10
134.55
20
-73.85
11
134.55
21
-76.85
0
LINE
8
0
10
134.55
20
-59.85
11
135.75
21
-59.85
0
LINE
8
0
10
135.75
20
-59.85
11
135.75
21
-56.85
0
LINE
8
0
10
135.75
20
-56.85
11
134.55
21
-56.85
0
LINE
8
0
10
134.55
20
-56.85
11
134.55
21
-59.85
0
LINE
8
0
10
157.8505293
20
-95.7769403
11
159.0493872
21
-95.8292836
0
LINE
8
0
10
159.0493872
20
-95.8292836
11
159.1802453
21
-92.8321389
0
LINE
8
0
10
159.1802453
20
-92.8321389
11
157.9813874
21
-92.7797956
0
LINE
8
0
10
157.9813874
20
-92.7797956
11
157.8505293
21
-95.7769403
0
LINE
8
0
10
158.5920589
20
-78.7931205
11
159.7909168
21
-78.8454638
0
LINE
8
0
10
159.7909168
20
-78.8454638
11
159.9217749
21
-75.8483191
0
LINE
8
0
10
159.9217749
20
-75.8483191
11
158.722917
21
-75.7959758
0
LINE
8
0
10
158.722917
20
-75.7959758
11
158.5920589
21
-78.7931205
0
LINE
8
0
10
159.3335885
20
-61.8093007
11
160.5324464
21
-61.861644
0
LINE
8
0
10
160.5324464
20
-61.861644
11
160.6633045
21
-58.8644993
0
LINE
8
0
10
160.6633045
20
-58.8644993
11
159.4644466
21
-58.812156
0
LINE
8
0
10
159.4644466
20
-58.812156
11
159.3335885
21
-61.8093007
0
LINE
8
0
10
179.212569
20
-106.2956913
11
180.4080026
21
-106.4002782
0
LINE
8
0
10
180.4080026
20
-106.4002782
11
180.6694698
21
-103.4116941
0
LINE
8
0
10
180.6694698
20
-103.4116941
11
179.4740362
21
-103.3071072
0
LINE
8
0
10
179.4740362
20
-103.3071072
11
179.212569
21
-106.2956913
0
LINE
8
0
10
180.6942166
20
-89.3603814
11
181.8896502
21
-89.4649683
0
LINE
8
0
10
181.8896502
20
-89.4649683
11
182.1511174
21
-86.4763842
0
LINE
8
0
10
182.1511174
20
-86.4763842
11
180.9556838
21
-86.3717973
0
LINE
8
0
10
180.9556838
20
-86.3717973
11
180.6942166
21
-89.3603814
0
LINE
8
0
10
182.1758642
20
-72.4250715
11
183.3712978
21
-72.5296584
0
LINE
8
0
10
183.3712978
20
-72.5296584
11
183.632765
21
-69.5410743
0
LINE
8
0
10
183.632765
20
-69.5410743
11
182.4373314
21
-69.4364874
0
LINE
8
0
10
182.4373314
20
-69.4364874
11
182.1758642
21
-72.4250715
0
LINE
8
0
10
201.6499126
20
-101.6836846
11
201.7544995
21
-100.488251
0
LINE
8
0
10
201.7544995
20
-100.488251
11
198.7659154
21
-100.2267838
0
LINE
8
0
10
198.7659154
20
-100.2267838
11
198.6613285
21
-101.4222174
0
LINE
8
0
10
198.6613285
20
-101.4222174
11
201.6499126
21
-101.6836846
0
LINE
8
0
10
203.5019721
20
-80.5145473
11
203.606559
21
-79.3191137
0
LINE
8
0
10
203.606559
20
-79.3191137
11
200.6179749
21
-79.0576465
0
LINE
8
0
10
200.6179749
20
-79.0576465
11
200.513388
21
-80.2530801
0
LINE
8
0
10
200.513388
20
-80.2530801
11
203.5019721
21
-80.5145473
0
LINE
8
0
10
80.0845167
20
-133.6627417
11
79.8350227
21
-132.4889646
0
LINE
8
0
10
79.8350227
20
-132.4889646
11
76.9005799
21
-133.1126997
0
LINE
8
0
10
76.9005799
20
-133.1126997
11
77.1500739
21
-134.2864768
0
LINE
8
0
10
77.1500739
20
-134.2864768
11
80.0845167
21
-133.6627417
0
LINE
8
0
10
96.5540473
20
-127.6401177
11
96.3663259
21
-126.4548917
0
LINE
8
0
10
96.3663259
20
-126.4548917
11
93.4032609
21
-126.9241951
0
LINE
8
0
10
93.4032609
20
-126.9241951
11
93.5909823
21
-128.1094211
0
LINE
8
0
10
93.5909823
20
-128.1094211
11
96.5540473
21
-127.6401177
0
LINE
8
0
10
114.1584675
20
-123.074146
11
114.2212707
21
-121.8757905
0
LINE
8
0
10
114.2212707
20
-121.8757905
11
111.2253821
21
-121.7187826
0
LINE
8
0
10
111.2253821
20
-121.7187826
11
111.1625789
21
-122.9171381
0
LINE
8
0
10
111.1625789
20
-122.9171381
11
114.1584675
21
-123.074146
0
LINE
8
0
10
102.25
20
-101.5
11
103.45
21
-101.5
0
LINE
8
0
10
103.45
20
-101.5
11
103.45
21
-98.5
0
LINE
8
0
10
103.45
20
-98.5
11
102.25
21
-98.5
0
LINE
8
0
10
102.25
20
-98.5
11
102.25
21
-101.5
0
LINE
8
0
10
102.25
20
-84.5
11
103.45
21
-84.5
0
LINE
8
0
10
103.45
20
-84.5
11
103.45
21
-81.5
0
LINE
8
0
10
103.45
20
-81.5
11
102.25
21
-81.5
0
LINE
8
0
10
102.25
20
-81.5
11
102.25
21
-84.5
0
LINE
8
0
10
102.25
20
-67.5
11
103.45
21
-67.5
0
LINE
8
0
10
103.45
20
-67.5
11
103.45
21
-64.5
0
LINE
8
0
10
103.45
20
-64.5
11
102.25
21
-64.5
0
LINE
8
0
10
102.25
20
-64.5
11
102.25
21
-67.5
0
LINE
8
0
10
119.25
20
-101.5
11
120.45
21
-101.5
0
LINE
8
0
10
120.45
20
-101.5
11
120.45
21
-98.5
0
LINE
8
0
10
120.45
20
-98.5
11
119.25
21
-98.5
0
LINE
8
0
10
119.25
20
-98.5
11
119.25
21
-101.5
0
LINE
8
0
10
119.25
20
-84.5
11
120.45
21
-84.5
0
LINE
8
0
10
120.45
20
-84.5
11
120.45
21
-81.5
0
LINE
8
0
10
120.45
20
-81.5
11
119.25
21
-81.5
0
LINE
8
0
10
119.25
20
-81.5
11
119.25
21
-84.5
0
LINE
8
0
10
119.25
20
-67.5
11
120.45
21
-67.5
0
LINE
8
0
10
120.45
20
-67.5
11
120.45
21
-64.5
0
LINE
8
0
10
120.45
20
-64.5
11
119.25
21
-64.5
0
LINE
8
0
10
119.25
20
-64.5
11
119.25
21
-67.5
0
LINE
8
0
10
140.25
20
-93.85
11
141.45
21
-93.85
0
LINE
8
0
10
141.45
20
-93.85
11
141.45
21
-90.85
0
LINE
8
0
10
141.45
20
-90.85
11
140.25
21
-90.85
0
LINE
8
0
10
140.25
20
-90.85
11
140.25
21
-93.85
0
LINE
8
0
10
140.25
20
-76.85
11
141.45
21
-76.85
0
LINE
8
0
10
141.45
20
-76.85
11
141.45
21
-73.85
0
LINE
8
0
10
141.45
20
-73.85
11
140.25
21
-73.85
0
LINE
8
0
10
140.25
20
-73.85
11
140.25
21
-76.85
0
LINE
8
0
10
140.25
20
-59.85
11
141.45
21
-59.85
0
LINE
8
0
10
141.45
20
-59.85
11
141.45
21
-56.85
0
LINE
8
0
10
141.45
20
-56.85
11
140.25
21
-56.85
0
LINE
8
0
10
140.25
20
-56.85
11
140.25
21
-59.85
0
LINE
8
0
10
163.5451041
20
-96.0255709
11
164.743962
21
-96.0779142
0
LINE
8
0
10
164.743962
20
-96.0779142
11
164.8748201
21
-93.0807695
0
LINE
8
0
10
164.8748201
20
-93.0807695
11
163.6759622
21
-93.0284262
0
LINE
8
0
10
163.6759622
20
-93.0284262
11
163.5451041
21
-96.0255709
0
LINE
8
0
10
164.2866337
20
-79.0417511
11
165.4854916
21
-79.0940944
0
LINE
8
0
10
165.4854916
20
-79.0940944
11
165.6163497
21
-76.0969497
0
LINE
8
0
10
165.6163497
20
-76.0969497
11
164.4174918
21
-76.0446064
0
LINE
8
0
10
164.4174918
20
-76.0446064
11
164.2866337
21
-79.0417511
0
LINE
8
0
10
165.0281633
20
-62.0579313
11
166.2270212
21
-62.1102746
0
LINE
8
0
10
166.2270212
20
-62.1102746
11
166.3578793
21
-59.1131299
0
LINE
8
0
10
166.3578793
20
-59.1131299
11
165.1590214
21
-59.0607866
0
LINE
8
0
10
165.1590214
20
-59.0607866
11
165.0281633
21
-62.0579313
0
LINE
8
0
10
184.8908788
20
-106.7924791
11
186.0863124
21
-106.897066
0
LINE
8
0
10
186.0863124
20
-106.897066
11
186.3477796
21
-103.9084819
0
LINE
8
0
10
186.3477796
20
-103.9084819
11
185.152346
21
-103.803895
0
LINE
8
0
10
185.152346
20
-103.803895
11
184.8908788
21
-106.7924791
0
LINE
8
0
10
186.3725264
20
-89.8571692
11
187.56796
21
-89.9617561
0
LINE
8
0
10
187.56796
20
-89.9617561
11
187.8294272
21
-86.973172
0
LINE
8
0
10
187.8294272
20
-86.973172
11
186.6339936
21
-86.8685851
0
LINE
8
0
10
186.6339936
20
-86.8685851
11
186.3725264
21
-89.8571692
0
LINE
8
0
10
187.854174
20
-72.9218593
11
189.0496076
21
-73.0264462
0
LINE
8
0
10
189.0496076
20
-73.0264462
11
189.3110748
21
-70.0378621
0
LINE
8
0
10
189.3110748
20
-70.0378621
11
188.1156412
21
-69.9332752
0
LINE
8
0
10
188.1156412
20
-69.9332752
11
187.854174
21
-72.9218593
0
LINE
8
0
10
202.1467004
20
-96.0053748
11
202.2512873
21
-94.8099412
0
LINE
8
0
10
202.2512873
20
-94.8099412
11
199.2627032
21
-94.548474
0
LINE
8
0
10
199.2627032
20
-94.548474
11
199.1581163
21
-95.7439076
0
LINE
8
0
10
199.1581163
20
-95.7439076
11
202.1467004
21
-96.0053748
0
LINE
8
0
10
203.9987599
20
-74.8362375
11
204.1033468
21
-73.6408039
0
LINE
8
0
10
204.1033468
20
-73.6408039
11
201.1147627
21
-73.3793367
0
LINE
8
0
10
201.1147627
20
-73.3793367
11
201.0101758
21
-74.5747703
0
LINE
8
0
10
201.0101758
20
-74.5747703
11
203.9987599
21
-74.8362375
0
LINE
8
0
10
78.8994201
20
-128.0873003
11
78.6499261
21
-126.9135232
0
LINE
8
0
10
78.6499261
20
-126.9135232
11
75.7154833
21
-127.5372583
0
LINE
8
0
10
75.7154833
20
-127.5372583
11
75.9649773
21
-128.7110354
0
LINE
8
0
10
75.9649773
20
-128.7110354
11
78.8994201
21
-128.0873003
0
LINE
8
0
10
95.6623709
20
-122.0102941
11
95.4746495
21
-120.8250681
0
LINE
8
0
10
95.4746495
20
-120.8250681
11
92.5115845
21
-121.2943715
0
LINE
8
0
10
92.5115845
20
-121.2943715
11
92.6993059
21
-122.4795975
0
LINE
8
0
10
92.6993059
20
-122.4795975
11
95.6623709
21
-122.0102941
0
LINE
8
0
10
114.4567825
20
-117.3819576
11
114.5195857
21
-116.1836021
0
LINE
8
0
10
114.5195857
20
-116.1836021
11
111.5236971
21
-116.0265942
0
LINE
8
0
10
111.5236971
20
-116.0265942
11
111.4608939
21
-117.2249497
0
LINE
8
0
10
111.4608939
20
-117.2249497
11
114.4567825
21
-117.3819576
0
LINE
8
0
10
93.25
20
-108.25
11
106.75
21
-108.25
0
ARC
8
0
10
106.75
20
-106.75
40
1.5
50
270
51
360
0
LINE
8
0
10
108.25
20
-106.75
11
108.25
21
-93.25
0
ARC
8
0
10
106.75
20
-93.25
40
1.5
50
0
51
90
0
LINE
8
0
10
106.75
20
-91.75
11
93.25
21
-91.75
0
ARC
8
0
10
93.25
20
-93.25
40
1.5
50
90
51
180
0
LINE
8
0
10
91.75
20
-93.25
11
91.75
21
-106.75
0
ARC
8
0
10
93.25
20
-106.75
40
1.5
50
180
51
270
0
LINE
8
0
10
93.25
20
-91.25
11
106.75
21
-91.25
0
ARC
8
0
10
106.75
20
-89.75
40
1.5
50
270
51
360
0
LINE
8
0
10
108.25
20
-89.75
11
108.25
21
-76.25
0
ARC
8
0
10
106.75
20
-76.25
40
1.5
50
0
51
90
0
LINE
8
0
10
106.75
20
-74.75
11
93.25
21
-74.75
0
ARC
8
0
10
93.25
20
-76.25
40
1.5
50
90
51
180
0
LINE
8
0
10
91.75
20
-76.25
11
91.75
21
-89.75
0
ARC
8
0
10
93.25
20
-89.75
40
1.5
50
180
51
270
0
LINE
8
0
10
93.25
20
-74.25
11
106.75
21
-74.25
0
ARC
8
0
10
106.75
20
-72.75
40
1.5
50
270
51
360
0
LINE
8
0
10
108.25
20
-72.75
11
108.25
21
-59.25
0
ARC
8
0
10
106.75
20
-59.25
40
1.5
50
0
51
90
0
LINE
8
0
10
106.75
20
-57.75
11
93.25
21
-57.75
0
ARC
8
0
10
93.25
20
-59.25
40
1.5
50
90
51
180
0
LINE
8
0
10
91.75
20
-59.25
11
91.75
21
-72.75
0
ARC
8
0
10
93.25
20
-72.75
40
1.5
50
180
51
270
0
LINE
8
0
10
110.25
20
-108.25
11
123.75
21
-108.25
0
ARC
8
0
10
123.75
20
-106.75
40
1.5
50
270
51
360
0
LINE
8
0
10
125.25
20
-106.75
11
125.25
21
-93.25
0
ARC
8
0
10
123.75
20
-93.25
40
1.5
50
0
51
90
0
LINE
8
0
10
123.75
20
-91.75
11
110.25
21
-91.75
0
ARC
8
0
10
110.25
20
-93.25
40
1.5
50
90
51
180
0
LINE
8
0
10
108.75
20
-93.25
11
108.75
21
-106.75
0
ARC
8
0
10
110.25
20
-106.75
40
1.5
50
180
51
270
0
LINE
8
0
10
110.25
20
-91.25
11
123.75
21
-91.25
0
ARC
8
0
10
123.75
20
-89.75
40
1.5
50
270
51
360
0
LINE
8
0
10
125.25
20
-89.75
11
125.25
21
-76.25
0
ARC
8
0
10
123.75
20
-76.25
40
1.5
50
0
51
90
0
LINE
8
0
10
123.75
20
-74.75
11
110.25
21
-74.75
0
ARC
8
0
10
110.25
20
-76.25
40
1.5
50
90
51
180
0
LINE
8
0
10
108.75
20
-76.25
11
108.75
21
-89.75
0
ARC
8
0
10
110.25
20
-89.75
40
1.5
50
180
51
270
0
LINE
8
0
10
110.25
20
-74.25
11
123.75
21
-74.25
0
ARC
8
0
10
123.75
20
-72.75
40
1.5
50
270
51
360
0
LINE
8
0
10
125.25
20
-72.75
11
125.25
21
-59.25
0
ARC
8
0
10
123.75
20
-59.25
40
1.5
50
0
51
90
0
LINE
8
0
10
123.75
20
-57.75
11
110.25
21
-57.75
0
ARC
8
0
10
110.25
20
-59.25
40
1.5
50
90
51
180
0
LINE
8
0
10
108.75
20
-59.25
11
108.75
21
-72.75
0
ARC
8
0
10
110.25
20
-72.75
40
1.5
50
180
51
270
0
LINE
8
0
10
131.25
20
-100.6
11
144.75
21
-100.6
0
ARC
8
0
10
144.75
20
-99.1
40
1.5
50
270
51
360
0
LINE
8
0
10
146.25
20
-99.1
11
146.25
21
-85.6
0
ARC
8
0
10
144.75
20
-85.6
40
1.5
50
0
51
90
0
LINE
8
0
10
144.75
20
-84.1
11
131.25
21
-84.1
0
ARC
8
0
10
131.25
20
-85.6
40
1.5
50
90
51
180
0
LINE
8
0
10
129.75
20
-85.6
11
129.75
21
-99.1
0
ARC
8
0
10
131.25
20
-99.1
40
1.5
50
180
51
270
0
LINE
8
0
10
131.25
20
-83.6
11
144.75
21
-83.6
0
ARC
8
0
10
144.75
20
-82.1
40
1.5
50
270
51
360
0
LINE
8
0
10
146.25
20
-82.1
11
146.25
21
-68.6
0
ARC
8
0
10
144.75
20
-68.6
40
1.5
50
0
51
90
0
LINE
8
0
10
144.75
20
-67.1
11
131.25
21
-67.1
0
ARC
8
0
10
131.25
20
-68.6
40
1.5
50
90
51
180
0
LINE
8
0
10
129.75
20
-68.6
11
129.75
21
-82.1
0
ARC
8
0
10
131.25
20
-82.1
40
1.5
50
180
51
270
0
LINE
8
0
10
131.25
20
-66.6
11
144.75
21
-66.6
0
ARC
8
0
10
144.75
20
-65.1
40
1.5
50
270
51
360
0
LINE
8
0
10
146.25
20
-65.1
11
146.25
21
-51.6
0
ARC
8
0
10
144.75
20
-51.6
40
1.5
50
0
51
90
0
LINE
8
0
10
144.75
20
-50.1
11
131.25
21
-50.1
0
ARC
8
0
10
131.25
20
-51.6
40
1.5
50
90
51
180
0
LINE
8
0
10
129.75
20
-51.6
11
129.75
21
-65.1
0
ARC
8
0
10
131.25
20
-65.1
40
1.5
50
180
51
270
0
LINE
8
0
10
154.2592393
20
-102.3765719
11
167.7463902
21
-102.9654336
0
ARC
8
0
10
167.8118193
20
-101.4668613
40
1.5
50
267.5
51
357.5
0
LINE
8
0
10
169.3103917
20
-101.5322903
11
169.8992534
21
-88.0451394
0
ARC
8
0
10
168.4006811
20
-87.9797103
40
1.5
50
357.5
51
87.5
0
LINE
8
0
10
168.4661101
20
-86.4811379
11
154.9789592
21
-85.8922762
0
ARC
8
0
10
154.9135301
20
-87.3908485
40
1.5
50
87.5
51
177.5
0
LINE
8
0
10
153.4149577
20
-87.3254195
11
152.826096
21
-100.8125704
0
ARC
8
0
10
154.3246683
20
-100.8779995
40
1.5
50
177.5
51
267.5
0
LINE
8
0
10
155.0007689
20
-85.3927521
11
168.4879198
21
-85.9816138
0
ARC
8
0
10
168.5533489
20
-84.4830415
40
1.5
50
267.5
51
357.5
0
LINE
8
0
10
170.0519213
20
-84.5484705
11
170.640783
21
-71.0613196
0
ARC
8
0
10
169.1422107
20
-70.9958905
40
1.5
50
357.5
51
87.5
0
LINE
8
0
10
169.2076397
20
-69.4973181
11
155.7204888
21
-68.9084564
0
ARC
8
0
10
155.6550597
20
-70.4070287
40
1.5
50
87.5
51
177.5
0
LINE
8
0
10
154.1564873
20
-70.3415997
11
153.5676256
21
-83.8287506
0
ARC
8
0
10
155.0661979
20
-83.8941797
40
1.5
50
177.5
51
267.5
0
LINE
8
0
10
155.7422985
20
-68.4089323
11
169.2294494
21
-68.997794
0
ARC
8
0
10
169.2948785
20
-67.4992217
40
1.5
50
267.5
51
357.5
0
LINE
8
0
10
170.7934509
20
-67.5646507
11
171.3823126
21
-54.0774998
0
ARC
8
0
10
169.8837403
20
-54.0120707
40
1.5
50
357.5
51
87.5
0
LINE
8
0
10
169.9491693
20
-52.5134983
11
156.4620184
21
-51.9246366
0
ARC
8
0
10
156.3965893
20
-53.4232089
40
1.5
50
87.5
51
177.5
0
LINE
8
0
10
154.8980169
20
-53.3577799
11
154.3091552
21
-66.8449308
0
ARC
8
0
10
155.8077275
20
-66.9103599
40
1.5
50
177.5
51
267.5
0
LINE
8
0
10
175.3368252
20
-112.7323916
11
188.7854536
21
-113.9089941
0
ARC
8
0
10
188.9161872
20
-112.4147021
40
1.5
50
265
51
355
0
LINE
8
0
10
190.4104793
20
-112.5454357
11
191.5870818
21
-99.0968073
0
ARC
8
0
10
190.0927898
20
-98.9660737
40
1.5
50
355
51
85
0
LINE
8
0
10
190.2235234
20
-97.4717816
11
176.774895
21
-96.2951791
0
ARC
8
0
10
176.6441614
20
-97.7894711
40
1.5
50
85
51
175
0
LINE
8
0
10
175.1498693
20
-97.6587375
11
173.9732668
21
-111.1073659
0
ARC
8
0
10
175.4675588
20
-111.2380995
40
1.5
50
175
51
265
0
LINE
8
0
10
176.8184728
20
-95.7970817
11
190.2671012
21
-96.9736842
0
ARC
8
0
10
190.3978348
20
-95.4793922
40
1.5
50
265
51
355
0
LINE
8
0
10
191.8921269
20
-95.6101258
11
193.0687294
21
-82.1614974
0
ARC
8
0
10
191.5744374
20
-82.0307638
40
1.5
50
355
51
85
0
LINE
8
0
10
191.705171
20
-80.5364717
11
178.2565426
21
-79.3598692
0
ARC
8
0
10
178.125809
20
-80.8541612
40
1.5
50
85
51
175
0
LINE
8
0
10
176.6315169
20
-80.7234276
11
175.4549144
21
-94.172056
0
ARC
8
0
10
176.9492064
20
-94.3027896
40
1.5
50
175
51
265
0
LINE
8
0
10
178.3001204
20
-78.8617718
11
191.7487488
21
-80.0383743
0
ARC
8
0
10
191.8794824
20
-78.5440823
40
1.5
50
265
51
355
0
LINE
8
0
10
193.3737745
20
-78.6748159
11
194.550377
21
-65.2261875
0
ARC
8
0
10
193.056085
20
-65.0954539
40
1.5
50
355
51
85
0
LINE
8
0
10
193.1868186
20
-63.6011618
11
179.7381902
21
-62.4245593
0
ARC
8
0
10
179.6074566
20
-63.9188513
40
1.5
50
85
51
175
0
LINE
8
0
10
178.1131645
20
-63.7881177
11
176.936562
21
-77.2367461
0
ARC
8
0
10
178.430854
20
-77.3674797
40
1.5
50
175
51
265
0
LINE
8
0
10
94
20
-107
11
106
21
-107
0
ARC
8
0
10
106
20
-106
40
1
50
270
51
360
0
LINE
8
0
10
107
20
-106
11
107
21
-94
0
ARC
8
0
10
106
20
-94
40
1
50
0
51
90
0
LINE
8
0
10
106
20
-93
11
94
21
-93
0
ARC
8
0
10
94
20
-94
40
1
50
90
51
180
0
LINE
8
0
10
93
20
-94
11
93
21
-106
0
ARC
8
0
10
94
20
-106
40
1
50
180
51
270
0
LINE
8
0
10
94
20
-90
11
106
21
-90
0
ARC
8
0
10
106
20
-89
40
1
50
270
51
360
0
LINE
8
0
10
107
20
-89
11
107
21
-77
0
ARC
8
0
10
106
20
-77
40
1
50
0
51
90
0
LINE
8
0
10
106
20
-76
11
94
21
-76
0
ARC
8
0
10
94
20
-77
40
1
50
90
51
180
0
LINE
8
0
10
93
20
-77
11
93
21
-89
0
ARC
8
0
10
94
20
-89
40
1
50
180
51
270
0
LINE
8
0
10
94
20
-73
11
106
21
-73
0
ARC
8
0
10
106
20
-72
40
1
50
270
51
360
0
LINE
8
0
10
107
20
-72
11
107
21
-60
0
ARC
8
0
10
106
20
-60
40
1
50
0
51
90
0
LINE
8
0
10
106
20
-59
11
94
21
-59
0
ARC
8
0
10
94
20
-60
40
1
50
90
51
180
0
LINE
8
0
10
93
20
-60
11
93
21
-72
0
ARC
8
0
10
94
20
-72
40
1
50
180
51
270
0
LINE
8
0
10
111
20
-107
11
123
21
-107
0
ARC
8
0
10
123
20
-106
40
1
50
270
51
360
0
LINE
8
0
10
124
20
-106
11
124
21
-94
0
ARC
8
0
10
123
20
-94
40
1
50
0
51
90
0
LINE
8
0
10
123
20
-93
11
111
21
-93
0
ARC
8
0
10
111
20
-94
40
1
50
90
51
180
0
LINE
8
0
10
110
20
-94
11
110
21
-106
0
ARC
8
0
10
111
20
-106
40
1
50
180
51
270
0
LINE
8
0
10
111
20
-90
11
123
21
-90
0
ARC
8
0
10
123
20
-89
40
1
50
270
51
360
0
LINE
8
0
10
124
20
-89
11
124
21
-77
0
ARC
8
0
10
123
20
-77
40
1
50
0
51
90
0
LINE
8
0
10
123
20
-76
11
111
21
-76
0
ARC
8
0
10
111
20
-77
40
1
50
90
51
180
0
LINE
8
0
10
110
20
-77
11
110
21
-89
0
ARC
8
0
10
111
20
-89
40
1
50
180
51
270
0
LINE
8
0
10
111
20
-73
11
123
21
-73
0
ARC
8
0
10
123
20
-72
40
1
50
270
51
360
0
LINE
8
0
10
124
20
-72
11
124
21
-60
0
ARC
8
0
10
123
20
-60
40
1
50
0
51
90
0
LINE
8
0
10
123
20
-59
11
111
21
-59
0
ARC
8
0
10
111
20
-60
40
1
50
90
51
180
0
LINE
8
0
10
110
20
-60
11
110
21
-72
0
ARC
8
0
10
111
20
-72
40
1
50
180
51
270
0
LINE
8
0
10
132
20
-99.35
11
144
21
-99.35
0
ARC
8
0
10
144
20
-98.35
40
1
50
270
51
360
0
LINE
8
0
10
145
20
-98.35
11
145
21
-86.35
0
ARC
8
0
10
144
20
-86.35
40
1
50
0
51
90
0
LINE
8
0
10
144
20
-85.35
11
132
21
-85.35
0
ARC
8
0
10
132
20
-86.35
40
1
50
90
51
180
0
LINE
8
0
10
131
20
-86.35
11
131
21
-98.35
0
ARC
8
0
10
132
20
-98.35
40
1
50
180
51
270
0
LINE
8
0
10
132
20
-82.35
11
144
21
-82.35
0
ARC
8
0
10
144
20
-81.35
40
1
50
270
51
360
0
LINE
8
0
10
145
20
-81.35
11
145
21
-69.35
0
ARC
8
0
10
144
20
-69.35
40
1
50
0
51
90
0
LINE
8
0
10
144
20
-68.35
11
132
21
-68.35
0
ARC
8
0
10
132
20
-69.35
40
1
50
90
51
180
0
LINE
8
0
10
131
20
-69.35
11
131
21
-81.35
0
ARC
8
0
10
132
20
-81.35
40
1
50
180
51
270
0
LINE
8
0
10
132
20
-65.35
11
144
21
-65.35
0
ARC
8
0
10
144
20
-64.35
40
1
50
270
51
360
0
LINE
8
0
10
145
20
-64.35
11
145
21
-52.35
0
ARC
8
0
10
144
20
-52.35
40
1
50
0
51
90
0
LINE
8
0
10
144
20
-51.35
11
132
21
-51.35
0
ARC
8
0
10
132
20
-52.35
40
1
50
90
51
180
0
LINE
8
0
10
131
20
-52.35
11
131
21
-64.35
0
ARC
8
0
10
132
20
-64.35
40
1
50
180
51
270
0
LINE
8
0
10
155.0630497
20
-101.1604761
11
167.0516283
21
-101.6839088
0
ARC
8
0
10
167.0952477
20
-100.6848606
40
1
50
267.5
51
357.5
0
LINE
8
0
10
168.0942959
20
-100.7284799
11
168.6177286
21
-88.7399013
0
ARC
8
0
10
167.6186804
20
-88.6962819
40
1
50
357.5
51
87.5
0
LINE
8
0
10
167.6622997
20
-87.6972337
11
155.6737211
21
-87.173801
0
ARC
8
0
10
155.6301017
20
-88.1728492
40
1
50
87.5
51
177.5
0
LINE
8
0
10
154.6310535
20
-88.1292299
11
154.1076208
21
-100.1178085
0
ARC
8
0
10
155.106669
20
-100.1614279
40
1
50
177.5
51
267.5
0
LINE
8
0
10
155.8045793
20
-84.1766563
11
167.7931579
21
-84.700089
0
ARC
8
0
10
167.8367773
20
-83.7010408
40
1
50
267.5
51
357.5
0
LINE
8
0
10
168.8358255
20
-83.7446601
11
169.3592582
21
-71.7560815
0
ARC
8
0
10
168.36021
20
-71.7124621
40
1
50
357.5
51
87.5
0
LINE
8
0
10
168.4038293
20
-70.7134139
11
156.4152507
21
-70.1899812
0
ARC
8
0
10
156.3716313
20
-71.1890294
40
1
50
87.5
51
177.5
0
LINE
8
0
10
155.3725831
20
-71.1454101
11
154.8491504
21
-83.1339887
0
ARC
8
0
10
155.8481986
20
-83.1776081
40
1
50
177.5
51
267.5
0
LINE
8
0
10
156.5461089
20
-67.1928365
11
168.5346875
21
-67.7162692
0
ARC
8
0
10
168.5783069
20
-66.717221
40
1
50
267.5
51
357.5
0
LINE
8
0
10
169.5773551
20
-66.7608403
11
170.1007878
21
-54.7722617
0
ARC
8
0
10
169.1017396
20
-54.7286423
40
1
50
357.5
51
87.5
0
LINE
8
0
10
169.1453589
20
-53.7295941
11
157.1567803
21
-53.2061614
0
ARC
8
0
10
157.1131609
20
-54.2052096
40
1
50
87.5
51
177.5
0
LINE
8
0
10
156.1141127
20
-54.1615903
11
155.59068
21
-66.1501689
0
ARC
8
0
10
156.5897282
20
-66.1937883
40
1
50
177.5
51
267.5
0
LINE
8
0
10
176.1929159
20
-111.552515
11
188.1472523
21
-112.5983839
0
ARC
8
0
10
188.234408
20
-111.6021892
40
1
50
265
51
355
0
LINE
8
0
10
189.2306027
20
-111.689345
11
190.2764716
21
-99.7350086
0
ARC
8
0
10
189.2802769
20
-99.6478529
40
1
50
355
51
85
0
LINE
8
0
10
189.3674327
20
-98.6516582
11
177.4130963
21
-97.6057893
0
ARC
8
0
10
177.3259406
20
-98.601984
40
1
50
85
51
175
0
LINE
8
0
10
176.3297459
20
-98.5148282
11
175.283877
21
-110.4691646
0
ARC
8
0
10
176.2800717
20
-110.5563203
40
1
50
175
51
265
0
LINE
8
0
10
177.6745635
20
-94.6172051
11
189.6288999
21
-95.663074
0
ARC
8
0
10
189.7160556
20
-94.6668793
40
1
50
265
51
355
0
LINE
8
0
10
190.7122503
20
-94.7540351
11
191.7581192
21
-82.7996987
0
ARC
8
0
10
190.7619245
20
-82.712543
40
1
50
355
51
85
0
LINE
8
0
10
190.8490803
20
-81.7163483
11
178.8947439
21
-80.6704794
0
ARC
8
0
10
178.8075882
20
-81.6666741
40
1
50
85
51
175
0
LINE
8
0
10
177.8113935
20
-81.5795183
11
176.7655246
21
-93.5338547
0
ARC
8
0
10
177.7617193
20
-93.6210104
40
1
50
175
51
265
0
LINE
8
0
10
179.1562111
20
-77.6818952
11
191.1105475
21
-78.7277641
0
ARC
8
0
10
191.1977032
20
-77.7315694
40
1
50
265
51
355
0
LINE
8
0
10
192.1938979
20
-77.8187252
11
193.2397668
21
-65.8643888
0
ARC
8
0
10
192.2435721
20
-65.7772331
40
1
50
355
51
85
0
LINE
8
0
10
192.3307279
20
-64.7810384
11
180.3763915
21
-63.7351695
0
ARC
8
0
10
180.2892358
20
-64.7313642
40
1
50
85
51
175
0
LINE
8
0
10
179.2930411
20
-64.6442084
11
178.2471722
21
-76.5985448
0
ARC
8
0
10
179.2433669
20
-76.6857005
40
1
50
175
51
265
0
LINE
8
0
10
192.8332001
20
-107.8010359
11
206.2818285
21
-108.9776384
0
ARC
8
0
10
206.4125621
20
-107.4833463
40
1.5
50
265
51
355
0
LINE
8
0
10
207.9068542
20
-107.61408
11
209.4429741
21
-90.0561484
0
ARC
8
0
10
207.9486821
20
-89.9254148
40
1.5
50
355
51
85
0
LINE
8
0
10
208.0794157
20
-88.4311227
11
194.6307873
21
-87.2545202
0
ARC
8
0
10
194.5000537
20
-88.7488123
40
1.5
50
85
51
175
0
LINE
8
0
10
193.0057616
20
-88.6180786
11
191.4696417
21
-106.1760102
0
ARC
8
0
10
192.9639337
20
-106.3067438
40
1.5
50
175
51
265
0
LINE
8
0
10
194.6852596
20
-86.6318986
11
208.133888
21
-87.8085011
0
ARC
8
0
10
208.2646216
20
-86.314209
40
1.5
50
265
51
355
0
LINE
8
0
10
209.7589137
20
-86.4449427
11
211.2950336
21
-68.8870111
0
ARC
8
0
10
209.8007416
20
-68.7562775
40
1.5
50
355
51
85
0
LINE
8
0
10
209.9314752
20
-67.2619854
11
196.4828468
21
-66.0853829
0
ARC
8
0
10
196.3521132
20
-67.579675
40
1.5
50
85
51
175
0
LINE
8
0
10
194.8578211
20
-67.4489413
11
193.3217012
21
-85.0068729
0
ARC
8
0
10
194.8159932
20
-85.1376065
40
1.5
50
175
51
265
0
LINE
8
0
10
73.441593
20
-142.090551
11
86.6465856
21
-139.2837432
0
ARC
8
0
10
86.3347181
20
-137.8165218
40
1.5
50
282
51
12
0
LINE
8
0
10
87.8019395
20
-137.5046543
11
84.1374959
21
-120.2648028
0
ARC
8
0
10
82.6702745
20
-120.5766704
40
1.5
50
12
51
102
0
LINE
8
0
10
82.358407
20
-119.109449
11
69.1534144
21
-121.9162568
0
ARC
8
0
10
69.4652819
20
-123.3834782
40
1.5
50
102
51
192
0
LINE
8
0
10
67.9980605
20
-123.6953457
11
71.6625041
21
-140.9351972
0
ARC
8
0
10
73.1297255
20
-140.6233296
40
1.5
50
192
51
282
0
LINE
8
0
10
89.47915
20
-135.7087133
11
102.8129426
21
-133.596848
0
ARC
8
0
10
102.5782909
20
-132.1153155
40
1.5
50
279
51
9
0
LINE
8
0
10
104.0598234
20
-131.8806638
11
101.302666
21
-114.4726568
0
ARC
8
0
10
99.8211335
20
-114.7073085
40
1.5
50
9
51
99
0
LINE
8
0
10
99.5864818
20
-113.2257759
11
86.2526892
21
-115.3376412
0
ARC
8
0
10
86.4873409
20
-116.8191737
40
1.5
50
99
51
189
0
LINE
8
0
10
85.0058084
20
-117.0538254
11
87.7629658
21
-134.4618324
0
ARC
8
0
10
89.2444983
20
-134.2271807
40
1.5
50
189
51
279
0
LINE
8
0
10
105.5606184
20
-129.4954695
11
119.0421171
21
-130.2020049
0
ARC
8
0
10
119.120621
20
-128.7040606
40
1.5
50
267
51
357
0
LINE
8
0
10
120.6185653
20
-128.7825645
11
121.5409866
21
-111.181719
0
ARC
8
0
10
120.0430423
20
-111.103215
40
1.5
50
357
51
87
0
LINE
8
0
10
120.1215462
20
-109.6052707
11
106.6400475
21
-108.8987353
0
ARC
8
0
10
106.5615436
20
-110.3966796
40
1.5
50
87
51
177
0
LINE
8
0
10
105.0635993
20
-110.3181757
11
104.141178
21
-127.9190212
0
ARC
8
0
10
105.6391223
20
-127.9975252
40
1.5
50
177
51
267
0
LINE
8
0
10
193.6892908
20
-106.6211593
11
205.6436272
21
-107.6670282
0
ARC
8
0
10
205.7307829
20
-106.6708335
40
1
50
265
51
355
0
LINE
8
0
10
206.7269776
20
-106.7579893
11
208.132364
21
-90.6943497
0
ARC
8
0
10
207.1361693
20
-90.607194
40
1
50
355
51
85
0
LINE
8
0
10
207.223325
20
-89.6109993
11
195.2689886
21
-88.5651304
0
ARC
8
0
10
195.1818329
20
-89.5613251
40
1
50
85
51
175
0
LINE
8
0
10
194.1856382
20
-89.4741693
11
192.7802518
21
-105.5378089
0
ARC
8
0
10
193.7764465
20
-105.6249646
40
1
50
175
51
265
0
LINE
8
0
10
195.5413503
20
-85.452022
11
207.4956867
21
-86.4978909
0
ARC
8
0
10
207.5828424
20
-85.5016962
40
1
50
265
51
355
0
LINE
8
0
10
208.5790371
20
-85.588852
11
209.9844235
21
-69.5252124
0
ARC
8
0
10
208.9882288
20
-69.4380567
40
1
50
355
51
85
0
LINE
8
0
10
209.0753845
20
-68.441862
11
197.1210481
21
-67.3959931
0
ARC
8
0
10
197.0338924
20
-68.3921878
40
1
50
85
51
175
0
LINE
8
0
10
196.0376977
20
-68.305032
11
194.6323113
21
-84.3686716
0
ARC
8
0
10
195.628506
20
-84.4558273
40
1
50
175
51
265
0
LINE
8
0
10
73.9153141
20
-140.7119328
11
85.6530853
21
-138.2169925
0
ARC
8
0
10
85.4451736
20
-137.2388449
40
1
50
282
51
12
0
LINE
8
0
10
86.4233212
20
-137.0309332
11
83.0707452
21
-121.2583031
0
ARC
8
0
10
82.0925976
20
-121.4662148
40
1
50
12
51
102
0
LINE
8
0
10
81.8846859
20
-120.4880672
11
70.1469147
21
-122.9830075
0
ARC
8
0
10
70.3548264
20
-123.9611551
40
1
50
102
51
192
0
LINE
8
0
10
69.3766788
20
-124.1690668
11
72.7292548
21
-139.9416969
0
ARC
8
0
10
73.7074024
20
-139.7337852
40
1
50
192
51
282
0
LINE
8
0
10
90.0243732
20
-134.356777
11
101.8766333
21
-132.4795634
0
ARC
8
0
10
101.7201988
20
-131.4918751
40
1
50
279
51
9
0
LINE
8
0
10
102.7078872
20
-131.3354406
11
100.1853814
21
-115.4089661
0
ARC
8
0
10
99.1976931
20
-115.5654006
40
1
50
9
51
99
0
LINE
8
0
10
99.0412586
20
-114.5777122
11
87.1889985
21
-116.4549258
0
ARC
8
0
10
87.345433
20
-117.4426141
40
1
50
99
51
189
0
LINE
8
0
10
86.3577446
20
-117.5990486
11
88.8802504
21
-133.5255231
0
ARC
8
0
10
89.8679387
20
-133.3690886
40
1
50
189
51
279
0
LINE
8
0
10
106.3750105
20
-128.2864345
11
118.3585649
21
-128.914466
0
ARC
8
0
10
118.4109009
20
-127.9158365
40
1
50
267
51
357
0
LINE
8
0
10
119.4095304
20
-127.9681724
11
120.2534477
21
-111.8652712
0
ARC
8
0
10
119.2548182
20
-111.8129352
40
1
50
357
51
87
0
LINE
8
0
10
119.3071541
20
-110.8143057
11
107.3235997
21
-110.1862742
0
ARC
8
0
10
107.2712637
20
-111.1849037
40
1
50
87
51
177
0
LINE
8
0
10
106.2726342
20
-111.1325678
11
105.4287169
21
-127.235469
0
ARC
8
0
10
106.4273464
20
-127.287805
40
1
50
177
51
267
0
LINE
8
0
10
74
20
-95.5
11
88.5
21
-95.5
0
LINE
8
0
10
90.25
20
-93.75
11
90.25
21
-64.25
0
LINE
8
0
10
88.5
20
-62.5
11
74
21
-62.5
0
LINE
8
0
10
72.25
20
-64.25
11
72.25
21
-93.75
0
ARC
8
0
10
88.5
20
-93.75
40
1.75
50
270
51
0
0
ARC
8
0
10
88.5
20
-64.25
40
1.75
50
0
51
90
0
ARC
8
0
10
74
20
-64.25
40
1.75
50
90
51
180
0
ARC
8
0
10
74
20
-93.75
40
1.75
50
180
51
270
0
CIRCLE
8
0
10
88.25
20
-102.5
40
1.65
0
CIRCLE
8
0
10
74.25
20
-102.5
40
1.65
0
CIRCLE
8
0
10
85.7589521
20
-127.8818184
40
1.65
0
CIRCLE
8
0
10
108.5
20
-74.5
40
1.65
0
CIRCLE
8
0
10
108.5
20
-91.5
40
1.65
0
CIRCLE
8
0
10
192.9223935
20
-80.3920099
40
1.65
0
CIRCLE
8
0
10
191.4407459
20
-97.3273198
40
1.65
0
CIRCLE
8
0
10
177.0828979
20
-79.0062335
40
1.65
0
CIRCLE
8
0
10
175.6012503
20
-95.9415434
40
1.65
0
CIRCLE
8
0
10
88.25
20
-102.5
40
2.05
0
CIRCLE
8
0
10
74.25
20
-102.5
40
2.05
0
CIRCLE
8
0
10
74.25
20
-116.5
40
2.05
0
CIRCLE
8
0
10
149.95
20
-85.35
40
2.05
0
CIRCLE
8
0
10
172.45
20
-62.85
40
2.05
0
CIRCLE
8
0
10
172.45
20
-107.85
40
2.05
0
CIRCLE
8
0
10
127.45
20
-62.85
40
2.05
0
CIRCLE
8
0
10
127.45
20
-107.85
40
2.05
0
CIRCLE
8
0
10
85.7589521
20
-127.8818184
40
2.05
0
CIRCLE
8
0
10
108.5
20
-74.5
40
2.05
0
CIRCLE
8
0
10
108.5
20
-91.5
40
2.05
0
CIRCLE
8
0
10
192.9223935
20
-80.3920099
40
2.05
0
CIRCLE
8
0
10
191.4407459
20
-97.3273198
40
2.05
0
CIRCLE
8
0
10
177.0828979
20
-79.0062335
40
2.05
0
CIRCLE
8
0
10
175.6012503
20
-95.9415434
40
2.05
0
LINE
8
0
10
74.25
20
-98.1
11
88.25
21
-98.1
0
LINE
8
0
10
88.25
20
-98.1
11
88.25
21
-62.1
0
LINE
8
0
10
74.25
20
-62.1
11
88.25
21
-62.1
0
LINE
8
0
10
74.25
20
-62.1
11
74.25
21
-98.1
0
LINE
8
0
10
75.25
20
-100.1
11
87.25
21
-100.1
0
LINE
8
0
10
87.25
20
-100.1
11
87.25
21
-62.1
0
LINE
8
0
10
75.25
20
-62.1
11
75.25
21
-100.1
0
LINE
8
0
10
87.66
20
-98.1
11
87.66
21
-95.5
0
LINE
8
0
10
74.84
20
-95.5
11
74.84
21
-98.1
0
LINE
8
0
10
86.39
20
-100.1
11
86.39
21
-97.5
0
LINE
8
0
10
86.39
20
-97.5
11
76.11
21
-97.5
0
LINE
8
0
10
76.11
20
-97.5
11
76.11
21
-100.1
0
LINE
8
0
10
151.9112271
20
-114.25
11
206.2464889
21
-114.25
0
ARC
8
0
10
206.2464889
20
-112.25
40
2
50
270
51
355.0000024
0
LINE
8
0
10
212.1560694
20
-67.6506112
11
208.2389058
21
-112.4239964
0
ARC
8
0
10
210.163728
20
-67.4757541
40
2
50
355.0000024
51
423.725423
0
ARC
8
0
10
140
20
-209.6
40
160.5
50
63.725423
51
107.6282071
0
ARC
8
0
10
92.0000001
20
-58.5428916
40
2
50
107.6386669
51
179.9895407
0
LINE
8
0
10
90
20
-60
11
90
21
-58.5428916
0
ARC
8
0
10
89
20
-60
40
1
50
270
51
360
0
LINE
8
0
10
73.2
20
-61
11
89
21
-61
0
ARC
8
0
10
73.2
20
-63
40
2
50
90
51
180
0
LINE
8
0
10
71.2
20
-78.5114035
11
71.2
21
-63
0
ARC
8
0
10
73.2
20
-78.5114035
40
2
50
180
51
181.2764214
0
ARC
8
0
10
-128.25
20
-83
40
199.5
50
348.4721523
51
361.2764214
0
ARC
8
0
10
69.1852794
20
-123.2686038
40
2
50
168.4721523
51
192.0000005
0
LINE
8
0
10
70.9719132
20
-141.2935237
11
67.2289843
21
-123.6844272
0
ARC
8
0
10
72.9282084
20
-140.8777003
40
2
50
192.0104626
51
274.7226333
0
ARC
8
0
10
61.5
20
-2.85
40
140.5
50
274.7330933
51
305.6828592
0
ARC
8
0
10
151.9112271
20
-128.75
40
14.5
50
90
51
125.6816309
0
ENDSEC
0
EOF