<?xml version="1.0"?>
<svg
  xmlns="http://www.w3.org/2000/svg"
  xmlns:xlink="http://www.w3.org/1999/xlink" version="1.1"
  preserveAspectRatio="xMinYMin meet"
  viewBox="52.5 33.5 159.2851261 124"
  width="100%" height="100%"
>
  <g stroke="#000000" stroke-width="0.1%" fill="none" transform="matrix(1,0,0,-1,0,0)">
    <g stroke="rgb(0, 0, 0)"><path d="M52.5,-38.5L57.5,-38.5" /></g>
<g stroke="rgb(0, 0, 0)"><path d="M57.5,-38.5L57.5,-33.5" /></g>
<g stroke="rgb(0, 0, 0)"><path d="M57.5,-33.5L52.5,-33.5" /></g>
<g stroke="rgb(0, 0, 0)"><path d="M52.5,-33.5L52.5,-38.5" /></g>
<g stroke="rgb(0, 0, 0)"><path d="M52.5,-157.5L57.5,-157.5" /></g>
<g stroke="rgb(0, 0, 0)"><path d="M57.5,-157.5L57.5,-152.5" /></g>
<g stroke="rgb(0, 0, 0)"><path d="M57.5,-152.5L52.5,-152.5" /></g>
<g stroke="rgb(0, 0, 0)"><path d="M52.5,-152.5L52.5,-157.5" /></g>
<g stroke="rgb(0, 0, 0)"><circle cx="100" cy="-100" r="0.25" /></g>
<g stroke="rgb(0, 0, 0)"><circle cx="100" cy="-83" r="0.25" /></g>
<g stroke="rgb(0, 0, 0)"><circle cx="100" cy="-66" r="0.25" /></g>
<g stroke="rgb(0, 0, 0)"><circle cx="117" cy="-100" r="0.25" /></g>
<g stroke="rgb(0, 0, 0)"><circle cx="117" cy="-83" r="0.25" /></g>
<g stroke="rgb(0, 0, 0)"><circle cx="117" cy="-66" r="0.25" /></g>
<g stroke="rgb(0, 0, 0)"><circle cx="138" cy="-92.35" r="0.25" /></g>
<g stroke="rgb(0, 0, 0)"><circle cx="138" cy="-75.35" r="0.25" /></g>
<g stroke="rgb(0, 0, 0)"><circle cx="138" cy="-58.35" r="0.25" /></g>
<g stroke="rgb(0, 0, 0)"><circle cx="161.3626747" cy="-94.4288549" r="0.25" /></g>
<g stroke="rgb(0, 0, 0)"><circle cx="162.1042043" cy="-77.4450351" r="0.25" /></g>
<g stroke="rgb(0, 0, 0)"><circle cx="162.8457339" cy="-60.4612153" r="0.25" /></g>
<g stroke="rgb(0, 0, 0)"><circle cx="182.4343702" cy="-104.7077726" r="0.25" /></g>
<g stroke="rgb(0, 0, 0)"><circle cx="183.9160178" cy="-87.7724627" r="0.25" /></g>
<g stroke="rgb(0, 0, 0)"><circle cx="185.3976654" cy="-70.8371528" r="0.25" /></g>
<g stroke="rgb(0, 0, 0)"><circle cx="200.1105038" cy="-97.7217653" r="0.25" /></g>
<g stroke="rgb(0, 0, 0)"><circle cx="201.9625633" cy="-76.552628" r="0.25" /></g>
<g stroke="rgb(0, 0, 0)"><circle cx="77.9" cy="-130.6" r="0.25" /></g>
<g stroke="rgb(0, 0, 0)"><circle cx="94.4234268" cy="-124.4875186" r="0.25" /></g>
<g stroke="rgb(0, 0, 0)"><circle cx="112.5377134" cy="-119.606978" r="0.25" /></g>
<g stroke="rgb(0, 0, 0)"><path d="M93.25,-108.25L106.75,-108.25" /></g>
<g stroke="rgb(0, 0, 0)"><path d="M 106.75 -108.25 A 1.5 1.5 0 0 1 108.25 -106.75" /></g>
<g stroke="rgb(0, 0, 0)"><path d="M108.25,-106.75L108.25,-93.25" /></g>
<g stroke="rgb(0, 0, 0)"><path d="M 108.25 -93.25 A 1.5 1.5 0 0 1 106.75 -91.75" /></g>
<g stroke="rgb(0, 0, 0)"><path d="M106.75,-91.75L93.25,-91.75" /></g>
<g stroke="rgb(0, 0, 0)"><path d="M 93.25 -91.75 A 1.5 1.5 0 0 1 91.75 -93.25" /></g>
<g stroke="rgb(0, 0, 0)"><path d="M91.75,-93.25L91.75,-106.75" /></g>
<g stroke="rgb(0, 0, 0)"><path d="M 91.75 -106.75 A 1.5 1.5 0 0 1 93.25 -108.25" /></g>
<g stroke="rgb(0, 0, 0)"><path d="M93.25,-91.25L106.75,-91.25" /></g>
<g stroke="rgb(0, 0, 0)"><path d="M 106.75 -91.25 A 1.5 1.5 0 0 1 108.25 -89.75" /></g>
<g stroke="rgb(0, 0, 0)"><path d="M108.25,-89.75L108.25,-76.25" /></g>
<g stroke="rgb(0, 0, 0)"><path d="M 108.25 -76.25 A 1.5 1.5 0 0 1 106.75 -74.75" /></g>
<g stroke="rgb(0, 0, 0)"><path d="M106.75,-74.75L93.25,-74.75" /></g>
<g stroke="rgb(0, 0, 0)"><path d="M 93.25 -74.75 A 1.5 1.5 0 0 1 91.75 -76.25" /></g>
<g stroke="rgb(0, 0, 0)"><path d="M91.75,-76.25L91.75,-89.75" /></g>
<g stroke="rgb(0, 0, 0)"><path d="M 91.75 -89.75 A 1.5 1.5 0 0 1 93.25 -91.25" /></g>
<g stroke="rgb(0, 0, 0)"><path d="M93.25,-74.25L106.75,-74.25" /></g>
<g stroke="rgb(0, 0, 0)"><path d="M 106.75 -74.25 A 1.5 1.5 0 0 1 108.25 -72.75" /></g>
<g stroke="rgb(0, 0, 0)"><path d="M108.25,-72.75L108.25,-59.25" /></g>
<g stroke="rgb(0, 0, 0)"><path d="M 108.25 -59.25 A 1.5 1.5 0 0 1 106.75 -57.75" /></g>
<g stroke="rgb(0, 0, 0)"><path d="M106.75,-57.75L93.25,-57.75" /></g>
<g stroke="rgb(0, 0, 0)"><path d="M 93.25 -57.75 A 1.5 1.5 0 0 1 91.75 -59.25" /></g>
<g stroke="rgb(0, 0, 0)"><path d="M91.75,-59.25L91.75,-72.75" /></g>
<g stroke="rgb(0, 0, 0)"><path d="M 91.75 -72.75 A 1.5 1.5 0 0 1 93.25 -74.25" /></g>
<g stroke="rgb(0, 0, 0)"><path d="M110.25,-108.25L123.75,-108.25" /></g>
<g stroke="rgb(0, 0, 0)"><path d="M 123.75 -108.25 A 1.5 1.5 0 0 1 125.25 -106.75" /></g>
<g stroke="rgb(0, 0, 0)"><path d="M125.25,-106.75L125.25,-93.25" /></g>
<g stroke="rgb(0, 0, 0)"><path d="M 125.25 -93.25 A 1.5 1.5 0 0 1 123.75 -91.75" /></g>
<g stroke="rgb(0, 0, 0)"><path d="M123.75,-91.75L110.25,-91.75" /></g>
<g stroke="rgb(0, 0, 0)"><path d="M 110.25 -91.75 A 1.5 1.5 0 0 1 108.75 -93.25" /></g>
<g stroke="rgb(0, 0, 0)"><path d="M108.75,-93.25L108.75,-106.75" /></g>
<g stroke="rgb(0, 0, 0)"><path d="M 108.75 -106.75 A 1.5 1.5 0 0 1 110.25 -108.25" /></g>
<g stroke="rgb(0, 0, 0)"><path d="M110.25,-91.25L123.75,-91.25" /></g>
<g stroke="rgb(0, 0, 0)"><path d="M 123.75 -91.25 A 1.5 1.5 0 0 1 125.25 -89.75" /></g>
<g stroke="rgb(0, 0, 0)"><path d="M125.25,-89.75L125.25,-76.25" /></g>
<g stroke="rgb(0, 0, 0)"><path d="M 125.25 -76.25 A 1.5 1.5 0 0 1 123.75 -74.75" /></g>
<g stroke="rgb(0, 0, 0)"><path d="M123.75,-74.75L110.25,-74.75" /></g>
<g stroke="rgb(0, 0, 0)"><path d="M 110.25 -74.75 A 1.5 1.5 0 0 1 108.75 -76.25" /></g>
<g stroke="rgb(0, 0, 0)"><path d="M108.75,-76.25L108.75,-89.75" /></g>
<g stroke="rgb(0, 0, 0)"><path d="M 108.75 -89.75 A 1.5 1.5 0 0 1 110.25 -91.25" /></g>
<g stroke="rgb(0, 0, 0)"><path d="M110.25,-74.25L123.75,-74.25" /></g>
<g stroke="rgb(0, 0, 0)"><path d="M 123.75 -74.25 A 1.5 1.5 0 0 1 125.25 -72.75" /></g>
<g stroke="rgb(0, 0, 0)"><path d="M125.25,-72.75L125.25,-59.25" /></g>
<g stroke="rgb(0, 0, 0)"><path d="M 125.25 -59.25 A 1.5 1.5 0 0 1 123.75 -57.75" /></g>
<g stroke="rgb(0, 0, 0)"><path d="M123.75,-57.75L110.25,-57.75" /></g>
<g stroke="rgb(0, 0, 0)"><path d="M 110.25 -57.75 A 1.5 1.5 0 0 1 108.75 -59.25" /></g>
<g stroke="rgb(0, 0, 0)"><path d="M108.75,-59.25L108.75,-72.75" /></g>
<g stroke="rgb(0, 0, 0)"><path d="M 108.75 -72.75 A 1.5 1.5 0 0 1 110.25 -74.25" /></g>
<g stroke="rgb(0, 0, 0)"><path d="M131.25,-100.6L144.75,-100.6" /></g>
<g stroke="rgb(0, 0, 0)"><path d="M 144.75 -100.6 A 1.5 1.5 0 0 1 146.25 -99.1" /></g>
<g stroke="rgb(0, 0, 0)"><path d="M146.25,-99.1L146.25,-85.6" /></g>
<g stroke="rgb(0, 0, 0)"><path d="M 146.25 -85.6 A 1.5 1.5 0 0 1 144.75 -84.1" /></g>
<g stroke="rgb(0, 0, 0)"><path d="M144.75,-84.1L131.25,-84.1" /></g>
<g stroke="rgb(0, 0, 0)"><path d="M 131.25 -84.1 A 1.5 1.5 0 0 1 129.75 -85.6" /></g>
<g stroke="rgb(0, 0, 0)"><path d="M129.75,-85.6L129.75,-99.1" /></g>
<g stroke="rgb(0, 0, 0)"><path d="M 129.75 -99.1 A 1.5 1.5 0 0 1 131.25 -100.6" /></g>
<g stroke="rgb(0, 0, 0)"><path d="M131.25,-83.6L144.75,-83.6" /></g>
<g stroke="rgb(0, 0, 0)"><path d="M 144.75 -83.6 A 1.5 1.5 0 0 1 146.25 -82.1" /></g>
<g stroke="rgb(0, 0, 0)"><path d="M146.25,-82.1L146.25,-68.6" /></g>
<g stroke="rgb(0, 0, 0)"><path d="M 146.25 -68.6 A 1.5 1.5 0 0 1 144.75 -67.1" /></g>
<g stroke="rgb(0, 0, 0)"><path d="M144.75,-67.1L131.25,-67.1" /></g>
<g stroke="rgb(0, 0, 0)"><path d="M 131.25 -67.1 A 1.5 1.5 0 0 1 129.75 -68.6" /></g>
<g stroke="rgb(0, 0, 0)"><path d="M129.75,-68.6L129.75,-82.1" /></g>
<g stroke="rgb(0, 0, 0)"><path d="M 129.75 -82.1 A 1.5 1.5 0 0 1 131.25 -83.6" /></g>
<g stroke="rgb(0, 0, 0)"><path d="M131.25,-66.6L144.75,-66.6" /></g>
<g stroke="rgb(0, 0, 0)"><path d="M 144.75 -66.6 A 1.5 1.5 0 0 1 146.25 -65.1" /></g>
<g stroke="rgb(0, 0, 0)"><path d="M146.25,-65.1L146.25,-51.6" /></g>
<g stroke="rgb(0, 0, 0)"><path d="M 146.25 -51.6 A 1.5 1.5 0 0 1 144.75 -50.1" /></g>
<g stroke="rgb(0, 0, 0)"><path d="M144.75,-50.1L131.25,-50.1" /></g>
<g stroke="rgb(0, 0, 0)"><path d="M 131.25 -50.1 A 1.5 1.5 0 0 1 129.75 -51.6" /></g>
<g stroke="rgb(0, 0, 0)"><path d="M129.75,-51.6L129.75,-65.1" /></g>
<g stroke="rgb(0, 0, 0)"><path d="M 129.75 -65.1 A 1.5 1.5 0 0 1 131.25 -66.6" /></g>
<g stroke="rgb(0, 0, 0)"><path d="M154.2592393,-102.3765719L167.7463902,-102.9654336" /></g>
<g stroke="rgb(0, 0, 0)"><path d="M 167.746390218952 -102.9654336323728 A 1.5 1.5 0 0 1 169.31039163237278 -101.53229038104801" /></g>
<g stroke="rgb(0, 0, 0)"><path d="M169.3103917,-101.5322903L169.8992534,-88.0451394" /></g>
<g stroke="rgb(0, 0, 0)"><path d="M 169.8992534323728 -88.045139381048 A 1.5 1.5 0 0 1 168.466110181048 -86.4811379676272" /></g>
<g stroke="rgb(0, 0, 0)"><path d="M168.4661101,-86.4811379L154.9789592,-85.8922762" /></g>
<g stroke="rgb(0, 0, 0)"><path d="M 154.978959181048 -85.89227616762722 A 1.5 1.5 0 0 1 153.41495776762721 -87.325419418952" /></g>
<g stroke="rgb(0, 0, 0)"><path d="M153.4149577,-87.3254195L152.826096,-100.8125704" /></g>
<g stroke="rgb(0, 0, 0)"><path d="M 152.82609596762723 -100.81257041895199 A 1.5 1.5 0 0 1 154.25923921895202 -102.37657183237279" /></g>
<g stroke="rgb(0, 0, 0)"><path d="M155.0007689,-85.3927521L168.4879198,-85.9816138" /></g>
<g stroke="rgb(0, 0, 0)"><path d="M 168.487919818952 -85.98161383237279 A 1.5 1.5 0 0 1 170.0519212323728 -84.54847058104801" /></g>
<g stroke="rgb(0, 0, 0)"><path d="M170.0519213,-84.5484705L170.640783,-71.0613196" /></g>
<g stroke="rgb(0, 0, 0)"><path d="M 170.64078303237278 -71.06131958104801 A 1.5 1.5 0 0 1 169.207639781048 -69.49731816762721" /></g>
<g stroke="rgb(0, 0, 0)"><path d="M169.2076397,-69.4973181L155.7204888,-68.9084564" /></g>
<g stroke="rgb(0, 0, 0)"><path d="M 155.720488781048 -68.90845636762721 A 1.5 1.5 0 0 1 154.15648736762722 -70.34159961895199" /></g>
<g stroke="rgb(0, 0, 0)"><path d="M154.1564873,-70.3415997L153.5676256,-83.8287506" /></g>
<g stroke="rgb(0, 0, 0)"><path d="M 153.5676255676272 -83.82875061895199 A 1.5 1.5 0 0 1 155.000768818952 -85.39275203237278" /></g>
<g stroke="rgb(0, 0, 0)"><path d="M155.7422985,-68.4089323L169.2294494,-68.997794" /></g>
<g stroke="rgb(0, 0, 0)"><path d="M 169.22944941895202 -68.9977940323728 A 1.5 1.5 0 0 1 170.7934508323728 -67.56465078104802" /></g>
<g stroke="rgb(0, 0, 0)"><path d="M170.7934509,-67.5646507L171.3823126,-54.0774998" /></g>
<g stroke="rgb(0, 0, 0)"><path d="M 171.3823126323728 -54.077499781048004 A 1.5 1.5 0 0 1 169.949169381048 -52.513498367627214" /></g>
<g stroke="rgb(0, 0, 0)"><path d="M169.9491693,-52.5134983L156.4620184,-51.9246366" /></g>
<g stroke="rgb(0, 0, 0)"><path d="M 156.46201838104798 -51.92463656762721 A 1.5 1.5 0 0 1 154.8980169676272 -53.357779818952" /></g>
<g stroke="rgb(0, 0, 0)"><path d="M154.8980169,-53.3577799L154.3091552,-66.8449308" /></g>
<g stroke="rgb(0, 0, 0)"><path d="M 154.3091551676272 -66.844930818952 A 1.5 1.5 0 0 1 155.742298418952 -68.40893223237279" /></g>
<g stroke="rgb(0, 0, 0)"><path d="M174.9910211,-112.3380776L188.4396495,-113.5146801" /></g>
<g stroke="rgb(0, 0, 0)"><path d="M 188.4396494858785 -113.51468014713762 A 1.5 1.5 0 0 1 190.0646751471376 -112.15112171412149" /></g>
<g stroke="rgb(0, 0, 0)"><path d="M190.0646752,-112.1511217L191.2412777,-98.7024933" /></g>
<g stroke="rgb(0, 0, 0)"><path d="M 191.24127774713762 -98.70249331412148 A 1.5 1.5 0 0 1 189.8777193141215 -97.07746765286238" /></g>
<g stroke="rgb(0, 0, 0)"><path d="M189.8777193,-97.0774676L176.4290909,-95.9008651" /></g>
<g stroke="rgb(0, 0, 0)"><path d="M 176.42909091412147 -95.90086505286239 A 1.5 1.5 0 0 1 174.8040652528624 -97.26442348587852" /></g>
<g stroke="rgb(0, 0, 0)"><path d="M174.8040652,-97.2644235L173.6274627,-110.7130519" /></g>
<g stroke="rgb(0, 0, 0)"><path d="M 173.6274626528624 -110.71305188587851 A 1.5 1.5 0 0 1 174.99102108587851 -112.33807754713762" /></g>
<g stroke="rgb(0, 0, 0)"><path d="M176.4726687,-95.4027677L189.9212971,-96.5793702" /></g>
<g stroke="rgb(0, 0, 0)"><path d="M 189.9212970858785 -96.57937024713762 A 1.5 1.5 0 0 1 191.5463227471376 -95.21581181412148" /></g>
<g stroke="rgb(0, 0, 0)"><path d="M191.5463228,-95.2158118L192.7229253,-81.7671834" /></g>
<g stroke="rgb(0, 0, 0)"><path d="M 192.72292534713762 -81.76718341412148 A 1.5 1.5 0 0 1 191.3593669141215 -80.14215775286237" /></g>
<g stroke="rgb(0, 0, 0)"><path d="M191.3593669,-80.1421577L177.9107385,-78.9655552" /></g>
<g stroke="rgb(0, 0, 0)"><path d="M 177.91073851412148 -78.96555515286238 A 1.5 1.5 0 0 1 176.2857128528624 -80.32911358587852" /></g>
<g stroke="rgb(0, 0, 0)"><path d="M176.2857128,-80.3291136L175.1091103,-93.777742" /></g>
<g stroke="rgb(0, 0, 0)"><path d="M 175.1091102528624 -93.77774198587852 A 1.5 1.5 0 0 1 176.47266868587852 -95.40276764713762" /></g>
<g stroke="rgb(0, 0, 0)"><path d="M177.9543163,-78.4674578L191.4029447,-79.6440603" /></g>
<g stroke="rgb(0, 0, 0)"><path d="M 191.4029446858785 -79.64406034713762 A 1.5 1.5 0 0 1 193.0279703471376 -78.28050191412149" /></g>
<g stroke="rgb(0, 0, 0)"><path d="M193.0279704,-78.2805019L194.2045729,-64.8318735" /></g>
<g stroke="rgb(0, 0, 0)"><path d="M 194.2045729471376 -64.83187351412148 A 1.5 1.5 0 0 1 192.84101451412147 -63.20684785286238" /></g>
<g stroke="rgb(0, 0, 0)"><path d="M192.8410145,-63.2068478L179.3923861,-62.0302453" /></g>
<g stroke="rgb(0, 0, 0)"><path d="M 179.39238611412148 -62.03024525286238 A 1.5 1.5 0 0 1 177.7673604528624 -63.39380368587851" /></g>
<g stroke="rgb(0, 0, 0)"><path d="M177.7673604,-63.3938037L176.5907579,-76.8424321" /></g>
<g stroke="rgb(0, 0, 0)"><path d="M 176.5907578528624 -76.84243208587851 A 1.5 1.5 0 0 1 177.95431628587852 -78.46745774713762" /></g>
<g stroke="rgb(0, 0, 0)"><path d="M94,-107L106,-107" /></g>
<g stroke="rgb(0, 0, 0)"><path d="M 106 -107 A 1 1 0 0 1 107 -106" /></g>
<g stroke="rgb(0, 0, 0)"><path d="M107,-106L107,-94" /></g>
<g stroke="rgb(0, 0, 0)"><path d="M 107 -94 A 1 1 0 0 1 106 -93" /></g>
<g stroke="rgb(0, 0, 0)"><path d="M106,-93L94,-93" /></g>
<g stroke="rgb(0, 0, 0)"><path d="M 94 -93 A 1 1 0 0 1 93 -94" /></g>
<g stroke="rgb(0, 0, 0)"><path d="M93,-94L93,-106" /></g>
<g stroke="rgb(0, 0, 0)"><path d="M 93 -106 A 1 1 0 0 1 94 -107" /></g>
<g stroke="rgb(0, 0, 0)"><path d="M94,-90L106,-90" /></g>
<g stroke="rgb(0, 0, 0)"><path d="M 106 -90 A 1 1 0 0 1 107 -89" /></g>
<g stroke="rgb(0, 0, 0)"><path d="M107,-89L107,-77" /></g>
<g stroke="rgb(0, 0, 0)"><path d="M 107 -77 A 1 1 0 0 1 106 -76" /></g>
<g stroke="rgb(0, 0, 0)"><path d="M106,-76L94,-76" /></g>
<g stroke="rgb(0, 0, 0)"><path d="M 94 -76 A 1 1 0 0 1 93 -77" /></g>
<g stroke="rgb(0, 0, 0)"><path d="M93,-77L93,-89" /></g>
<g stroke="rgb(0, 0, 0)"><path d="M 93 -89 A 1 1 0 0 1 94 -90" /></g>
<g stroke="rgb(0, 0, 0)"><path d="M94,-73L106,-73" /></g>
<g stroke="rgb(0, 0, 0)"><path d="M 106 -73 A 1 1 0 0 1 107 -72" /></g>
<g stroke="rgb(0, 0, 0)"><path d="M107,-72L107,-60" /></g>
<g stroke="rgb(0, 0, 0)"><path d="M 107 -60 A 1 1 0 0 1 106 -59" /></g>
<g stroke="rgb(0, 0, 0)"><path d="M106,-59L94,-59" /></g>
<g stroke="rgb(0, 0, 0)"><path d="M 94 -59 A 1 1 0 0 1 93 -60" /></g>
<g stroke="rgb(0, 0, 0)"><path d="M93,-60L93,-72" /></g>
<g stroke="rgb(0, 0, 0)"><path d="M 93 -72 A 1 1 0 0 1 94 -73" /></g>
<g stroke="rgb(0, 0, 0)"><path d="M111,-107L123,-107" /></g>
<g stroke="rgb(0, 0, 0)"><path d="M 123 -107 A 1 1 0 0 1 124 -106" /></g>
<g stroke="rgb(0, 0, 0)"><path d="M124,-106L124,-94" /></g>
<g stroke="rgb(0, 0, 0)"><path d="M 124 -94 A 1 1 0 0 1 123 -93" /></g>
<g stroke="rgb(0, 0, 0)"><path d="M123,-93L111,-93" /></g>
<g stroke="rgb(0, 0, 0)"><path d="M 111 -93 A 1 1 0 0 1 110 -94" /></g>
<g stroke="rgb(0, 0, 0)"><path d="M110,-94L110,-106" /></g>
<g stroke="rgb(0, 0, 0)"><path d="M 110 -106 A 1 1 0 0 1 111 -107" /></g>
<g stroke="rgb(0, 0, 0)"><path d="M111,-90L123,-90" /></g>
<g stroke="rgb(0, 0, 0)"><path d="M 123 -90 A 1 1 0 0 1 124 -89" /></g>
<g stroke="rgb(0, 0, 0)"><path d="M124,-89L124,-77" /></g>
<g stroke="rgb(0, 0, 0)"><path d="M 124 -77 A 1 1 0 0 1 123 -76" /></g>
<g stroke="rgb(0, 0, 0)"><path d="M123,-76L111,-76" /></g>
<g stroke="rgb(0, 0, 0)"><path d="M 111 -76 A 1 1 0 0 1 110 -77" /></g>
<g stroke="rgb(0, 0, 0)"><path d="M110,-77L110,-89" /></g>
<g stroke="rgb(0, 0, 0)"><path d="M 110 -89 A 1 1 0 0 1 111 -90" /></g>
<g stroke="rgb(0, 0, 0)"><path d="M111,-73L123,-73" /></g>
<g stroke="rgb(0, 0, 0)"><path d="M 123 -73 A 1 1 0 0 1 124 -72" /></g>
<g stroke="rgb(0, 0, 0)"><path d="M124,-72L124,-60" /></g>
<g stroke="rgb(0, 0, 0)"><path d="M 124 -60 A 1 1 0 0 1 123 -59" /></g>
<g stroke="rgb(0, 0, 0)"><path d="M123,-59L111,-59" /></g>
<g stroke="rgb(0, 0, 0)"><path d="M 111 -59 A 1 1 0 0 1 110 -60" /></g>
<g stroke="rgb(0, 0, 0)"><path d="M110,-60L110,-72" /></g>
<g stroke="rgb(0, 0, 0)"><path d="M 110 -72 A 1 1 0 0 1 111 -73" /></g>
<g stroke="rgb(0, 0, 0)"><path d="M132,-99.35L144,-99.35" /></g>
<g stroke="rgb(0, 0, 0)"><path d="M 144 -99.35 A 1 1 0 0 1 145 -98.35" /></g>
<g stroke="rgb(0, 0, 0)"><path d="M145,-98.35L145,-86.35" /></g>
<g stroke="rgb(0, 0, 0)"><path d="M 145 -86.35 A 1 1 0 0 1 144 -85.35" /></g>
<g stroke="rgb(0, 0, 0)"><path d="M144,-85.35L132,-85.35" /></g>
<g stroke="rgb(0, 0, 0)"><path d="M 132 -85.35 A 1 1 0 0 1 131 -86.35" /></g>
<g stroke="rgb(0, 0, 0)"><path d="M131,-86.35L131,-98.35" /></g>
<g stroke="rgb(0, 0, 0)"><path d="M 131 -98.35 A 1 1 0 0 1 132 -99.35" /></g>
<g stroke="rgb(0, 0, 0)"><path d="M132,-82.35L144,-82.35" /></g>
<g stroke="rgb(0, 0, 0)"><path d="M 144 -82.35 A 1 1 0 0 1 145 -81.35" /></g>
<g stroke="rgb(0, 0, 0)"><path d="M145,-81.35L145,-69.35" /></g>
<g stroke="rgb(0, 0, 0)"><path d="M 145 -69.35 A 1 1 0 0 1 144 -68.35" /></g>
<g stroke="rgb(0, 0, 0)"><path d="M144,-68.35L132,-68.35" /></g>
<g stroke="rgb(0, 0, 0)"><path d="M 132 -68.35 A 1 1 0 0 1 131 -69.35" /></g>
<g stroke="rgb(0, 0, 0)"><path d="M131,-69.35L131,-81.35" /></g>
<g stroke="rgb(0, 0, 0)"><path d="M 131 -81.35 A 1 1 0 0 1 132 -82.35" /></g>
<g stroke="rgb(0, 0, 0)"><path d="M132,-65.35L144,-65.35" /></g>
<g stroke="rgb(0, 0, 0)"><path d="M 144 -65.35 A 1 1 0 0 1 145 -64.35" /></g>
<g stroke="rgb(0, 0, 0)"><path d="M145,-64.35L145,-52.35" /></g>
<g stroke="rgb(0, 0, 0)"><path d="M 145 -52.35 A 1 1 0 0 1 144 -51.35" /></g>
<g stroke="rgb(0, 0, 0)"><path d="M144,-51.35L132,-51.35" /></g>
<g stroke="rgb(0, 0, 0)"><path d="M 132 -51.35 A 1 1 0 0 1 131 -52.35" /></g>
<g stroke="rgb(0, 0, 0)"><path d="M131,-52.35L131,-64.35" /></g>
<g stroke="rgb(0, 0, 0)"><path d="M 131 -64.35 A 1 1 0 0 1 132 -65.35" /></g>
<g stroke="rgb(0, 0, 0)"><path d="M155.0630497,-101.1604761L167.0516283,-101.6839088" /></g>
<g stroke="rgb(0, 0, 0)"><path d="M 167.05162831263465 -101.68390882158185 A 1 1 0 0 1 168.09429592158185 -100.72847998736533" /></g>
<g stroke="rgb(0, 0, 0)"><path d="M168.0942959,-100.7284799L168.6177286,-88.7399013" /></g>
<g stroke="rgb(0, 0, 0)"><path d="M 168.61772862158185 -88.73990128736534 A 1 1 0 0 1 167.66229978736533 -87.69723367841814" /></g>
<g stroke="rgb(0, 0, 0)"><path d="M167.6622997,-87.6972337L155.6737211,-87.173801" /></g>
<g stroke="rgb(0, 0, 0)"><path d="M 155.67372108736535 -87.17380097841814 A 1 1 0 0 1 154.63105347841815 -88.12922981263466" /></g>
<g stroke="rgb(0, 0, 0)"><path d="M154.6310535,-88.1292299L154.1076208,-100.1178085" /></g>
<g stroke="rgb(0, 0, 0)"><path d="M 154.10762077841815 -100.11780851263467 A 1 1 0 0 1 155.06304961263467 -101.16047612158187" /></g>
<g stroke="rgb(0, 0, 0)"><path d="M155.8045793,-84.1766563L167.7931579,-84.700089" /></g>
<g stroke="rgb(0, 0, 0)"><path d="M 167.79315791263465 -84.70008902158186 A 1 1 0 0 1 168.83582552158185 -83.74466018736534" /></g>
<g stroke="rgb(0, 0, 0)"><path d="M168.8358255,-83.7446601L169.3592582,-71.7560815" /></g>
<g stroke="rgb(0, 0, 0)"><path d="M 169.35925822158185 -71.75608148736534 A 1 1 0 0 1 168.40382938736533 -70.71341387841814" /></g>
<g stroke="rgb(0, 0, 0)"><path d="M168.4038293,-70.7134139L156.4152507,-70.1899812" /></g>
<g stroke="rgb(0, 0, 0)"><path d="M 156.41525068736533 -70.18998117841814 A 1 1 0 0 1 155.37258307841813 -71.14541001263466" /></g>
<g stroke="rgb(0, 0, 0)"><path d="M155.3725831,-71.1454101L154.8491504,-83.1339887" /></g>
<g stroke="rgb(0, 0, 0)"><path d="M 154.84915037841813 -83.13398871263466 A 1 1 0 0 1 155.80457921263465 -84.17665632158186" /></g>
<g stroke="rgb(0, 0, 0)"><path d="M156.5461089,-67.1928365L168.5346875,-67.7162692" /></g>
<g stroke="rgb(0, 0, 0)"><path d="M 168.53468751263466 -67.71626922158185 A 1 1 0 0 1 169.57735512158186 -66.76084038736533" /></g>
<g stroke="rgb(0, 0, 0)"><path d="M169.5773551,-66.7608403L170.1007878,-54.7722617" /></g>
<g stroke="rgb(0, 0, 0)"><path d="M 170.10078782158186 -54.77226168736534 A 1 1 0 0 1 169.14535898736534 -53.72959407841814" /></g>
<g stroke="rgb(0, 0, 0)"><path d="M169.1453589,-53.7295941L157.1567803,-53.2061614" /></g>
<g stroke="rgb(0, 0, 0)"><path d="M 157.15678028736534 -53.206161378418145 A 1 1 0 0 1 156.11411267841814 -54.161590212634664" /></g>
<g stroke="rgb(0, 0, 0)"><path d="M156.1141127,-54.1615903L155.59068,-66.1501689" /></g>
<g stroke="rgb(0, 0, 0)"><path d="M 155.59067997841814 -66.15016891263465 A 1 1 0 0 1 156.54610881263466 -67.19283652158185" /></g>
<g stroke="rgb(0, 0, 0)"><path d="M175.8471118,-111.158201L187.8014482,-112.2040699" /></g>
<g stroke="rgb(0, 0, 0)"><path d="M 187.80144815725234 -112.20406989809175 A 1 1 0 0 1 188.88479859809175 -111.29503094274766" /></g>
<g stroke="rgb(0, 0, 0)"><path d="M188.8847986,-111.295031L189.9306675,-99.3406946" /></g>
<g stroke="rgb(0, 0, 0)"><path d="M 189.93066749809176 -99.34069464274765 A 1 1 0 0 1 189.02162854274766 -98.25734420190825" /></g>
<g stroke="rgb(0, 0, 0)"><path d="M189.0216286,-98.2573442L177.0672922,-97.2114753" /></g>
<g stroke="rgb(0, 0, 0)"><path d="M 177.06729224274764 -97.21147530190825 A 1 1 0 0 1 175.98394180190823 -98.12051425725234" /></g>
<g stroke="rgb(0, 0, 0)"><path d="M175.9839418,-98.1205142L174.9380729,-110.0748506" /></g>
<g stroke="rgb(0, 0, 0)"><path d="M 174.93807290190824 -110.07485055725235 A 1 1 0 0 1 175.84711185725234 -111.15820099809174" /></g>
<g stroke="rgb(0, 0, 0)"><path d="M177.3287594,-94.2228911L189.2830958,-95.26876" /></g>
<g stroke="rgb(0, 0, 0)"><path d="M 189.28309575725234 -95.26875999809174 A 1 1 0 0 1 190.36644619809175 -94.35972104274765" /></g>
<g stroke="rgb(0, 0, 0)"><path d="M190.3664462,-94.3597211L191.4123151,-82.4053847" /></g>
<g stroke="rgb(0, 0, 0)"><path d="M 191.41231509809177 -82.40538474274766 A 1 1 0 0 1 190.50327614274767 -81.32203430190826" /></g>
<g stroke="rgb(0, 0, 0)"><path d="M190.5032762,-81.3220343L178.5489398,-80.2761654" /></g>
<g stroke="rgb(0, 0, 0)"><path d="M 178.54893984274764 -80.27616540190826 A 1 1 0 0 1 177.46558940190823 -81.18520435725235" /></g>
<g stroke="rgb(0, 0, 0)"><path d="M177.4655894,-81.1852043L176.4197205,-93.1395407" /></g>
<g stroke="rgb(0, 0, 0)"><path d="M 176.41972050190824 -93.13954065725234 A 1 1 0 0 1 177.32875945725235 -94.22289109809174" /></g>
<g stroke="rgb(0, 0, 0)"><path d="M178.810407,-77.2875812L190.7647434,-78.3334501" /></g>
<g stroke="rgb(0, 0, 0)"><path d="M 190.76474335725234 -78.33345009809175 A 1 1 0 0 1 191.84809379809175 -77.42441114274766" /></g>
<g stroke="rgb(0, 0, 0)"><path d="M191.8480938,-77.4244112L192.8939627,-65.4700748" /></g>
<g stroke="rgb(0, 0, 0)"><path d="M 192.89396269809177 -65.47007484274765 A 1 1 0 0 1 191.98492374274767 -64.38672440190825" /></g>
<g stroke="rgb(0, 0, 0)"><path d="M191.9849238,-64.3867244L180.0305874,-63.3408555" /></g>
<g stroke="rgb(0, 0, 0)"><path d="M 180.03058744274765 -63.340855501908244 A 1 1 0 0 1 178.94723700190823 -64.24989445725234" /></g>
<g stroke="rgb(0, 0, 0)"><path d="M178.947237,-64.2498944L177.9013681,-76.2042308" /></g>
<g stroke="rgb(0, 0, 0)"><path d="M 177.90136810190825 -76.20423075725235 A 1 1 0 0 1 178.81040705725235 -77.28758119809174" /></g>
<g stroke="rgb(0, 0, 0)"><path d="M192.487396,-107.4067219L205.9360244,-108.5833244" /></g>
<g stroke="rgb(0, 0, 0)"><path d="M 205.9360243858785 -108.58332434713762 A 1.5 1.5 0 0 1 207.5610500471376 -107.21976591412148" /></g>
<g stroke="rgb(0, 0, 0)"><path d="M207.5610501,-107.219766L209.09717,-89.6618344" /></g>
<g stroke="rgb(0, 0, 0)"><path d="M 209.0971700471376 -89.66183441412149 A 1.5 1.5 0 0 1 207.7336116141215 -88.03680875286238" /></g>
<g stroke="rgb(0, 0, 0)"><path d="M207.7336116,-88.0368087L194.2849832,-86.8602062" /></g>
<g stroke="rgb(0, 0, 0)"><path d="M 194.2849832141215 -86.86020625286238 A 1.5 1.5 0 0 1 192.6599575528624 -88.22376468587852" /></g>
<g stroke="rgb(0, 0, 0)"><path d="M192.6599575,-88.2237646L191.1238376,-105.7816962" /></g>
<g stroke="rgb(0, 0, 0)"><path d="M 191.1238375528624 -105.78169618587852 A 1.5 1.5 0 0 1 192.48739598587852 -107.40672184713762" /></g>
<g stroke="rgb(0, 0, 0)"><path d="M194.3394555,-86.2375846L207.7880839,-87.4141871" /></g>
<g stroke="rgb(0, 0, 0)"><path d="M 207.7880838858785 -87.41418704713762 A 1.5 1.5 0 0 1 209.4131095471376 -86.05062861412148" /></g>
<g stroke="rgb(0, 0, 0)"><path d="M209.4131096,-86.0506287L210.9492295,-68.4926971" /></g>
<g stroke="rgb(0, 0, 0)"><path d="M 210.9492295471376 -68.49269711412148 A 1.5 1.5 0 0 1 209.58567111412148 -66.86767145286238" /></g>
<g stroke="rgb(0, 0, 0)"><path d="M209.5856711,-66.8676714L196.1370427,-65.6910689" /></g>
<g stroke="rgb(0, 0, 0)"><path d="M 196.1370427141215 -65.69106895286238 A 1.5 1.5 0 0 1 194.5120170528624 -67.05462738587852" /></g>
<g stroke="rgb(0, 0, 0)"><path d="M194.512017,-67.0546273L192.9758971,-84.6125589" /></g>
<g stroke="rgb(0, 0, 0)"><path d="M 192.9758970528624 -84.61255888587851 A 1.5 1.5 0 0 1 194.33945548587852 -86.23758454713762" /></g>
<g stroke="rgb(0, 0, 0)"><path d="M73.441593,-142.090551L86.6465856,-139.2837432" /></g>
<g stroke="rgb(0, 0, 0)"><path d="M 86.64658563622665 -139.28374320110072 A 1.5 1.5 0 0 1 87.80193950110072 -137.50465426377338" /></g>
<g stroke="rgb(0, 0, 0)"><path d="M87.8019395,-137.5046543L84.1374959,-120.2648028" /></g>
<g stroke="rgb(0, 0, 0)"><path d="M 84.13749590110072 -120.26480286377335 A 1.5 1.5 0 0 1 82.35840696377336 -119.1094489988993" /></g>
<g stroke="rgb(0, 0, 0)"><path d="M82.358407,-119.109449L69.1534144,-121.9162568" /></g>
<g stroke="rgb(0, 0, 0)"><path d="M 69.15341436377335 -121.9162567988993 A 1.5 1.5 0 0 1 67.99806049889929 -123.69534573622664" /></g>
<g stroke="rgb(0, 0, 0)"><path d="M67.9980605,-123.6953457L71.6625041,-140.9351972" /></g>
<g stroke="rgb(0, 0, 0)"><path d="M 71.66250409889929 -140.93519713622663 A 1.5 1.5 0 0 1 73.44159303622665 -142.09055100110072" /></g>
<g stroke="rgb(0, 0, 0)"><path d="M89.3697609,-135.7289873L102.7035535,-133.617122" /></g>
<g stroke="rgb(0, 0, 0)"><path d="M 102.70355349756035 -133.61712201089273 A 1.5 1.5 0 0 1 103.9504343108927 -131.90093780243967" /></g>
<g stroke="rgb(0, 0, 0)"><path d="M103.9504343,-131.9009378L101.1932769,-114.4929308" /></g>
<g stroke="rgb(0, 0, 0)"><path d="M 101.1932769108927 -114.49293080243964 A 1.5 1.5 0 0 1 99.47709270243965 -113.24604998910729" /></g>
<g stroke="rgb(0, 0, 0)"><path d="M99.4770927,-113.2460499L86.1433001,-115.3579152" /></g>
<g stroke="rgb(0, 0, 0)"><path d="M 86.14330010243965 -115.35791518910729 A 1.5 1.5 0 0 1 84.8964192891073 -117.07409939756035" /></g>
<g stroke="rgb(0, 0, 0)"><path d="M84.8964193,-117.0740994L87.6535767,-134.4821064" /></g>
<g stroke="rgb(0, 0, 0)"><path d="M 87.6535766891073 -134.48210639756033 A 1.5 1.5 0 0 1 89.36976089756035 -135.7289872108927" /></g>
<g stroke="rgb(0, 0, 0)"><path d="M105.2572495,-129.5520774L118.7387482,-130.2586128" /></g>
<g stroke="rgb(0, 0, 0)"><path d="M 118.73874816563558 -130.25861280213186 A 1.5 1.5 0 0 1 120.31519640213186 -128.83917243436443" /></g>
<g stroke="rgb(0, 0, 0)"><path d="M120.3151964,-128.8391724L121.2376177,-111.2383269" /></g>
<g stroke="rgb(0, 0, 0)"><path d="M 121.23761770213186 -111.23832683436441 A 1.5 1.5 0 0 1 119.81817733436442 -109.66187859786814" /></g>
<g stroke="rgb(0, 0, 0)"><path d="M119.8181773,-109.6618786L106.3366786,-108.9553432" /></g>
<g stroke="rgb(0, 0, 0)"><path d="M 106.33667863436442 -108.95534319786815 A 1.5 1.5 0 0 1 104.76023039786814 -110.37478356563558" /></g>
<g stroke="rgb(0, 0, 0)"><path d="M104.7602304,-110.3747836L103.8378091,-127.9756291" /></g>
<g stroke="rgb(0, 0, 0)"><path d="M 103.83780909786815 -127.97562916563558 A 1.5 1.5 0 0 1 105.25724946563558 -129.55207740213186" /></g>
<g stroke="rgb(0, 0, 0)"><path d="M193.3434867,-106.2268453L205.2978231,-107.2727142" /></g>
<g stroke="rgb(0, 0, 0)"><path d="M 205.29782305725234 -107.27271419809175 A 1 1 0 0 1 206.38117349809175 -106.36367524274766" /></g>
<g stroke="rgb(0, 0, 0)"><path d="M206.3811735,-106.3636753L207.7865599,-90.3000357" /></g>
<g stroke="rgb(0, 0, 0)"><path d="M 207.78655989809175 -90.30003574274765 A 1 1 0 0 1 206.87752094274765 -89.21668530190826" /></g>
<g stroke="rgb(0, 0, 0)"><path d="M206.8775209,-89.2166853L194.9231845,-88.1708164" /></g>
<g stroke="rgb(0, 0, 0)"><path d="M 194.92318454274766 -88.17081640190825 A 1 1 0 0 1 193.83983410190825 -89.07985535725234" /></g>
<g stroke="rgb(0, 0, 0)"><path d="M193.8398341,-89.0798553L192.4344477,-105.1434949" /></g>
<g stroke="rgb(0, 0, 0)"><path d="M 192.43444770190825 -105.14349485725235 A 1 1 0 0 1 193.34348665725236 -106.22684529809175" /></g>
<g stroke="rgb(0, 0, 0)"><path d="M195.1955462,-85.057708L207.1498826,-86.1035769" /></g>
<g stroke="rgb(0, 0, 0)"><path d="M 207.14988255725234 -86.10357689809175 A 1 1 0 0 1 208.23323299809175 -85.19453794274766" /></g>
<g stroke="rgb(0, 0, 0)"><path d="M208.233233,-85.194538L209.6386194,-69.1308984" /></g>
<g stroke="rgb(0, 0, 0)"><path d="M 209.63861939809175 -69.13089844274765 A 1 1 0 0 1 208.72958044274765 -68.04754800190825" /></g>
<g stroke="rgb(0, 0, 0)"><path d="M208.7295804,-68.047548L196.775244,-67.0016791" /></g>
<g stroke="rgb(0, 0, 0)"><path d="M 196.77524404274766 -67.00167910190825 A 1 1 0 0 1 195.69189360190825 -67.91071805725234" /></g>
<g stroke="rgb(0, 0, 0)"><path d="M195.6918936,-67.910718L194.2865072,-83.9743576" /></g>
<g stroke="rgb(0, 0, 0)"><path d="M 194.28650720190825 -83.97435755725235 A 1 1 0 0 1 195.19554615725235 -85.05770799809174" /></g>
<g stroke="rgb(0, 0, 0)"><path d="M73.9153141,-140.7119328L85.6530853,-138.2169925" /></g>
<g stroke="rgb(0, 0, 0)"><path d="M 85.65308529081776 -138.2169925007338 A 1 1 0 0 1 86.42332120073381 -137.03093320918225" /></g>
<g stroke="rgb(0, 0, 0)"><path d="M86.4233212,-137.0309332L83.0707452,-121.2583031" /></g>
<g stroke="rgb(0, 0, 0)"><path d="M 83.07074520073381 -121.25830310918225 A 1 1 0 0 1 81.88468590918225 -120.4880671992662" /></g>
<g stroke="rgb(0, 0, 0)"><path d="M81.8846859,-120.4880672L70.1469147,-122.9830075" /></g>
<g stroke="rgb(0, 0, 0)"><path d="M 70.14691470918224 -122.9830074992662 A 1 1 0 0 1 69.37667879926619 -124.16906679081775" /></g>
<g stroke="rgb(0, 0, 0)"><path d="M69.3766788,-124.1690668L72.7292548,-139.9416969" /></g>
<g stroke="rgb(0, 0, 0)"><path d="M 72.7292547992662 -139.94169689081775 A 1 1 0 0 1 73.91531409081776 -140.7119328007338" /></g>
<g stroke="rgb(0, 0, 0)"><path d="M89.9149841,-134.377051L101.7672442,-132.4998374" /></g>
<g stroke="rgb(0, 0, 0)"><path d="M 101.76724416504024 -132.49983744059512 A 1 1 0 0 1 102.59849804059515 -131.35571463495975" /></g>
<g stroke="rgb(0, 0, 0)"><path d="M102.5984981,-131.3557146L100.0759923,-115.4292401" /></g>
<g stroke="rgb(0, 0, 0)"><path d="M 100.07599234059514 -115.42924013495977 A 1 1 0 0 1 98.93186953495976 -114.59798625940486" /></g>
<g stroke="rgb(0, 0, 0)"><path d="M98.9318695,-114.5979862L87.0796094,-116.4751998" /></g>
<g stroke="rgb(0, 0, 0)"><path d="M 87.07960943495976 -116.47519975940486 A 1 1 0 0 1 86.24835555940486 -117.61932256504024" /></g>
<g stroke="rgb(0, 0, 0)"><path d="M86.2483555,-117.6193226L88.7708613,-133.5457971" /></g>
<g stroke="rgb(0, 0, 0)"><path d="M 88.77086125940485 -133.54579706504023 A 1 1 0 0 1 89.91498406504023 -134.37705094059513" /></g>
<g stroke="rgb(0, 0, 0)"><path d="M106.0716416,-128.3430424L118.055196,-128.9710739" /></g>
<g stroke="rgb(0, 0, 0)"><path d="M 118.05519604375706 -128.97107393475457 A 1 1 0 0 1 119.10616153475458 -128.02478035624296" /></g>
<g stroke="rgb(0, 0, 0)"><path d="M119.1061615,-128.0247803L119.9500788,-111.9218791" /></g>
<g stroke="rgb(0, 0, 0)"><path d="M 119.95007883475456 -111.92187905624294 A 1 1 0 0 1 119.00378525624294 -110.87091356524543" /></g>
<g stroke="rgb(0, 0, 0)"><path d="M119.0037852,-110.8709136L107.0202308,-110.2428821" /></g>
<g stroke="rgb(0, 0, 0)"><path d="M 107.02023075624294 -110.24288206524542 A 1 1 0 0 1 105.96926526524543 -111.18917564375705" /></g>
<g stroke="rgb(0, 0, 0)"><path d="M105.9692653,-111.1891757L105.125348,-127.2920769" /></g>
<g stroke="rgb(0, 0, 0)"><path d="M 105.12534796524542 -127.29207694375705 A 1 1 0 0 1 106.07164154375705 -128.34304243475458" /></g>
<g stroke="rgb(0, 0, 0)"><path d="M150.4308582,-114.9999999L205.5714875,-115" /></g>
<g stroke="rgb(0, 0, 0)"><path d="M 205.5714875 -115 A 2.25 2.25 0 0 1 207.81292557892064 -112.9461003272931" /></g>
<g stroke="rgb(0, 0, 0)"><path d="M211.7765365,-67.6418209L207.8129255,-112.9461004" /></g>
<g stroke="rgb(0, 0, 0)"><path d="M 211.77656417892067 -67.6415058272931 A 2.25 2.25 0 0 1 210.52377718134758 -65.4242501276077" /></g>
<g stroke="rgb(0, 0, 0)"><path d="M 210.5237771361273 -65.42425010268249 A 160.5 160.5 0 0 1 73.1888660216651 -63.66671943477394" /></g>
<g stroke="rgb(0, 0, 0)"><path d="M 73.18886591806073 -63.66671944721645 A 2.25 2.25 0 0 1 71.87964750762661 -65.84954826980132" /></g>
<g stroke="rgb(0, 0, 0)"><path d="M 67.20690262482916 -122.57311994417384 A 199.5 199.5 0 0 1 71.87964752377286 -65.84954827761644" /></g>
<g stroke="rgb(0, 0, 0)"><path d="M 67.20683203385643 -122.57342776798446 A 2.25 2.25 0 0 1 67.19912210243128 -123.54393692354584" /></g>
<g stroke="rgb(0, 0, 0)"><path d="M70.8634596,-140.7832892L67.1991879,-123.5442462" /></g>
<g stroke="rgb(0, 0, 0)"><path d="M 70.86353429181604 -140.78364000153528 A 2.25 2.25 0 0 1 73.25249908046636 -142.55760253123086" /></g>
<g stroke="rgb(0, 0, 0)"><path d="M 73.25249906912178 -142.55760252797094 A 140.5 140.5 0 0 1 142.11151981035033 -117.62403214394416" /></g>
<g stroke="rgb(0, 0, 0)"><path d="M 150.4308582 -114.9999999 A 14.5 14.5 0 0 1 142.11151985658304 -117.62403216984207" /></g>
<g stroke="rgb(0, 0, 0)"><path d="M74.75,-100.25L89.25,-100.25" /></g>
<g stroke="rgb(0, 0, 0)"><path d="M91,-98.5L91,-68.6" /></g>
<g stroke="rgb(0, 0, 0)"><path d="M89.25,-66.85L74.75,-66.85" /></g>
<g stroke="rgb(0, 0, 0)"><path d="M73,-68.6L73,-98.5" /></g>
<g stroke="rgb(0, 0, 0)"><path d="M 89.25 -100.25 A 1.75 1.75 0 0 1 91 -98.5" /></g>
<g stroke="rgb(0, 0, 0)"><path d="M 91 -68.6 A 1.75 1.75 0 0 1 89.25 -66.85" /></g>
<g stroke="rgb(0, 0, 0)"><path d="M 74.75 -66.85 A 1.75 1.75 0 0 1 73 -68.6" /></g>
<g stroke="rgb(0, 0, 0)"><path d="M 73 -98.5 A 1.75 1.75 0 0 1 74.75 -100.25" /></g>
  </g>
</svg>