0
SECTION
2
HEADER
9
$INSUNITS
70
4
0
ENDSEC
0
SECTION
2
TABLES
0
TABLE
2
LTYPE
0
LTYPE
72
65
70
64
2
CONTINUOUS
3
______
73
0
40
0
0
ENDTAB
0
TABLE
2
LAYER
0
ENDTAB
0
ENDSEC
0
SECTION
2
ENTITIES
0
LINE
8
0
10
52.5
20
-38.5
11
57.5
21
-38.5
0
LINE
8
0
10
57.5
20
-38.5
11
57.5
21
-33.5
0
LINE
8
0
10
57.5
20
-33.5
11
52.5
21
-33.5
0
LINE
8
0
10
52.5
20
-33.5
11
52.5
21
-38.5
0
LINE
8
0
10
52.5
20
-157.5
11
57.5
21
-157.5
0
LINE
8
0
10
57.5
20
-157.5
11
57.5
21
-152.5
0
LINE
8
0
10
57.5
20
-152.5
11
52.5
21
-152.5
0
LINE
8
0
10
52.5
20
-152.5
11
52.5
21
-157.5
0
CIRCLE
8
0
10
100
20
-100
40
0.25
0
CIRCLE
8
0
10
100
20
-83
40
0.25
0
CIRCLE
8
0
10
100
20
-66
40
0.25
0
CIRCLE
8
0
10
117
20
-100
40
0.25
0
CIRCLE
8
0
10
117
20
-83
40
0.25
0
CIRCLE
8
0
10
117
20
-66
40
0.25
0
CIRCLE
8
0
10
138
20
-92.35
40
0.25
0
CIRCLE
8
0
10
138
20
-75.35
40
0.25
0
CIRCLE
8
0
10
138
20
-58.35
40
0.25
0
CIRCLE
8
0
10
161.3626747
20
-94.4288549
40
0.25
0
CIRCLE
8
0
10
162.1042043
20
-77.4450351
40
0.25
0
CIRCLE
8
0
10
162.8457339
20
-60.4612153
40
0.25
0
CIRCLE
8
0
10
182.4343702
20
-104.7077726
40
0.25
0
CIRCLE
8
0
10
183.9160178
20
-87.7724627
40
0.25
0
CIRCLE
8
0
10
185.3976654
20
-70.8371528
40
0.25
0
CIRCLE
8
0
10
200.1105038
20
-97.7217653
40
0.25
0
CIRCLE
8
0
10
201.9625633
20
-76.552628
40
0.25
0
CIRCLE
8
0
10
77.9
20
-130.6
40
0.25
0
CIRCLE
8
0
10
94.4234268
20
-124.4875186
40
0.25
0
CIRCLE
8
0
10
112.5377134
20
-119.606978
40
0.25
0
LINE
8
0
10
93.25
20
-108.25
11
106.75
21
-108.25
0
ARC
8
0
10
106.75
20
-106.75
40
1.5
50
270
51
360
0
LINE
8
0
10
108.25
20
-106.75
11
108.25
21
-93.25
0
ARC
8
0
10
106.75
20
-93.25
40
1.5
50
0
51
90
0
LINE
8
0
10
106.75
20
-91.75
11
93.25
21
-91.75
0
ARC
8
0
10
93.25
20
-93.25
40
1.5
50
90
51
180
0
LINE
8
0
10
91.75
20
-93.25
11
91.75
21
-106.75
0
ARC
8
0
10
93.25
20
-106.75
40
1.5
50
180
51
270
0
LINE
8
0
10
93.25
20
-91.25
11
106.75
21
-91.25
0
ARC
8
0
10
106.75
20
-89.75
40
1.5
50
270
51
360
0
LINE
8
0
10
108.25
20
-89.75
11
108.25
21
-76.25
0
ARC
8
0
10
106.75
20
-76.25
40
1.5
50
0
51
90
0
LINE
8
0
10
106.75
20
-74.75
11
93.25
21
-74.75
0
ARC
8
0
10
93.25
20
-76.25
40
1.5
50
90
51
180
0
LINE
8
0
10
91.75
20
-76.25
11
91.75
21
-89.75
0
ARC
8
0
10
93.25
20
-89.75
40
1.5
50
180
51
270
0
LINE
8
0
10
93.25
20
-74.25
11
106.75
21
-74.25
0
ARC
8
0
10
106.75
20
-72.75
40
1.5
50
270
51
360
0
LINE
8
0
10
108.25
20
-72.75
11
108.25
21
-59.25
0
ARC
8
0
10
106.75
20
-59.25
40
1.5
50
0
51
90
0
LINE
8
0
10
106.75
20
-57.75
11
93.25
21
-57.75
0
ARC
8
0
10
93.25
20
-59.25
40
1.5
50
90
51
180
0
LINE
8
0
10
91.75
20
-59.25
11
91.75
21
-72.75
0
ARC
8
0
10
93.25
20
-72.75
40
1.5
50
180
51
270
0
LINE
8
0
10
110.25
20
-108.25
11
123.75
21
-108.25
0
ARC
8
0
10
123.75
20
-106.75
40
1.5
50
270
51
360
0
LINE
8
0
10
125.25
20
-106.75
11
125.25
21
-93.25
0
ARC
8
0
10
123.75
20
-93.25
40
1.5
50
0
51
90
0
LINE
8
0
10
123.75
20
-91.75
11
110.25
21
-91.75
0
ARC
8
0
10
110.25
20
-93.25
40
1.5
50
90
51
180
0
LINE
8
0
10
108.75
20
-93.25
11
108.75
21
-106.75
0
ARC
8
0
10
110.25
20
-106.75
40
1.5
50
180
51
270
0
LINE
8
0
10
110.25
20
-91.25
11
123.75
21
-91.25
0
ARC
8
0
10
123.75
20
-89.75
40
1.5
50
270
51
360
0
LINE
8
0
10
125.25
20
-89.75
11
125.25
21
-76.25
0
ARC
8
0
10
123.75
20
-76.25
40
1.5
50
0
51
90
0
LINE
8
0
10
123.75
20
-74.75
11
110.25
21
-74.75
0
ARC
8
0
10
110.25
20
-76.25
40
1.5
50
90
51
180
0
LINE
8
0
10
108.75
20
-76.25
11
108.75
21
-89.75
0
ARC
8
0
10
110.25
20
-89.75
40
1.5
50
180
51
270
0
LINE
8
0
10
110.25
20
-74.25
11
123.75
21
-74.25
0
ARC
8
0
10
123.75
20
-72.75
40
1.5
50
270
51
360
0
LINE
8
0
10
125.25
20
-72.75
11
125.25
21
-59.25
0
ARC
8
0
10
123.75
20
-59.25
40
1.5
50
0
51
90
0
LINE
8
0
10
123.75
20
-57.75
11
110.25
21
-57.75
0
ARC
8
0
10
110.25
20
-59.25
40
1.5
50
90
51
180
0
LINE
8
0
10
108.75
20
-59.25
11
108.75
21
-72.75
0
ARC
8
0
10
110.25
20
-72.75
40
1.5
50
180
51
270
0
LINE
8
0
10
131.25
20
-100.6
11
144.75
21
-100.6
0
ARC
8
0
10
144.75
20
-99.1
40
1.5
50
270
51
360
0
LINE
8
0
10
146.25
20
-99.1
11
146.25
21
-85.6
0
ARC
8
0
10
144.75
20
-85.6
40
1.5
50
0
51
90
0
LINE
8
0
10
144.75
20
-84.1
11
131.25
21
-84.1
0
ARC
8
0
10
131.25
20
-85.6
40
1.5
50
90
51
180
0
LINE
8
0
10
129.75
20
-85.6
11
129.75
21
-99.1
0
ARC
8
0
10
131.25
20
-99.1
40
1.5
50
180
51
270
0
LINE
8
0
10
131.25
20
-83.6
11
144.75
21
-83.6
0
ARC
8
0
10
144.75
20
-82.1
40
1.5
50
270
51
360
0
LINE
8
0
10
146.25
20
-82.1
11
146.25
21
-68.6
0
ARC
8
0
10
144.75
20
-68.6
40
1.5
50
0
51
90
0
LINE
8
0
10
144.75
20
-67.1
11
131.25
21
-67.1
0
ARC
8
0
10
131.25
20
-68.6
40
1.5
50
90
51
180
0
LINE
8
0
10
129.75
20
-68.6
11
129.75
21
-82.1
0
ARC
8
0
10
131.25
20
-82.1
40
1.5
50
180
51
270
0
LINE
8
0
10
131.25
20
-66.6
11
144.75
21
-66.6
0
ARC
8
0
10
144.75
20
-65.1
40
1.5
50
270
51
360
0
LINE
8
0
10
146.25
20
-65.1
11
146.25
21
-51.6
0
ARC
8
0
10
144.75
20
-51.6
40
1.5
50
0
51
90
0
LINE
8
0
10
144.75
20
-50.1
11
131.25
21
-50.1
0
ARC
8
0
10
131.25
20
-51.6
40
1.5
50
90
51
180
0
LINE
8
0
10
129.75
20
-51.6
11
129.75
21
-65.1
0
ARC
8
0
10
131.25
20
-65.1
40
1.5
50
180
51
270
0
LINE
8
0
10
154.2592393
20
-102.3765719
11
167.7463902
21
-102.9654336
0
ARC
8
0
10
167.8118193
20
-101.4668613
40
1.5
50
267.5
51
357.5
0
LINE
8
0
10
169.3103917
20
-101.5322903
11
169.8992534
21
-88.0451394
0
ARC
8
0
10
168.4006811
20
-87.9797103
40
1.5
50
357.5
51
87.5
0
LINE
8
0
10
168.4661101
20
-86.4811379
11
154.9789592
21
-85.8922762
0
ARC
8
0
10
154.9135301
20
-87.3908485
40
1.5
50
87.5
51
177.5
0
LINE
8
0
10
153.4149577
20
-87.3254195
11
152.826096
21
-100.8125704
0
ARC
8
0
10
154.3246683
20
-100.8779995
40
1.5
50
177.5
51
267.5
0
LINE
8
0
10
155.0007689
20
-85.3927521
11
168.4879198
21
-85.9816138
0
ARC
8
0
10
168.5533489
20
-84.4830415
40
1.5
50
267.5
51
357.5
0
LINE
8
0
10
170.0519213
20
-84.5484705
11
170.640783
21
-71.0613196
0
ARC
8
0
10
169.1422107
20
-70.9958905
40
1.5
50
357.5
51
87.5
0
LINE
8
0
10
169.2076397
20
-69.4973181
11
155.7204888
21
-68.9084564
0
ARC
8
0
10
155.6550597
20
-70.4070287
40
1.5
50
87.5
51
177.5
0
LINE
8
0
10
154.1564873
20
-70.3415997
11
153.5676256
21
-83.8287506
0
ARC
8
0
10
155.0661979
20
-83.8941797
40
1.5
50
177.5
51
267.5
0
LINE
8
0
10
155.7422985
20
-68.4089323
11
169.2294494
21
-68.997794
0
ARC
8
0
10
169.2948785
20
-67.4992217
40
1.5
50
267.5
51
357.5
0
LINE
8
0
10
170.7934509
20
-67.5646507
11
171.3823126
21
-54.0774998
0
ARC
8
0
10
169.8837403
20
-54.0120707
40
1.5
50
357.5
51
87.5
0
LINE
8
0
10
169.9491693
20
-52.5134983
11
156.4620184
21
-51.9246366
0
ARC
8
0
10
156.3965893
20
-53.4232089
40
1.5
50
87.5
51
177.5
0
LINE
8
0
10
154.8980169
20
-53.3577799
11
154.3091552
21
-66.8449308
0
ARC
8
0
10
155.8077275
20
-66.9103599
40
1.5
50
177.5
51
267.5
0
LINE
8
0
10
174.9910211
20
-112.3380776
11
188.4396495
21
-113.5146801
0
ARC
8
0
10
188.5703831
20
-112.0203881
40
1.5
50
265
51
355
0
LINE
8
0
10
190.0646752
20
-112.1511217
11
191.2412777
21
-98.7024933
0
ARC
8
0
10
189.7469857
20
-98.5717597
40
1.5
50
355
51
85
0
LINE
8
0
10
189.8777193
20
-97.0774676
11
176.4290909
21
-95.9008651
0
ARC
8
0
10
176.2983573
20
-97.3951571
40
1.5
50
85
51
175
0
LINE
8
0
10
174.8040652
20
-97.2644235
11
173.6274627
21
-110.7130519
0
ARC
8
0
10
175.1217547
20
-110.8437855
40
1.5
50
175
51
265
0
LINE
8
0
10
176.4726687
20
-95.4027677
11
189.9212971
21
-96.5793702
0
ARC
8
0
10
190.0520307
20
-95.0850782
40
1.5
50
265
51
355
0
LINE
8
0
10
191.5463228
20
-95.2158118
11
192.7229253
21
-81.7671834
0
ARC
8
0
10
191.2286333
20
-81.6364498
40
1.5
50
355
51
85
0
LINE
8
0
10
191.3593669
20
-80.1421577
11
177.9107385
21
-78.9655552
0
ARC
8
0
10
177.7800049
20
-80.4598472
40
1.5
50
85
51
175
0
LINE
8
0
10
176.2857128
20
-80.3291136
11
175.1091103
21
-93.777742
0
ARC
8
0
10
176.6034023
20
-93.9084756
40
1.5
50
175
51
265
0
LINE
8
0
10
177.9543163
20
-78.4674578
11
191.4029447
21
-79.6440603
0
ARC
8
0
10
191.5336783
20
-78.1497683
40
1.5
50
265
51
355
0
LINE
8
0
10
193.0279704
20
-78.2805019
11
194.2045729
21
-64.8318735
0
ARC
8
0
10
192.7102809
20
-64.7011399
40
1.5
50
355
51
85
0
LINE
8
0
10
192.8410145
20
-63.2068478
11
179.3923861
21
-62.0302453
0
ARC
8
0
10
179.2616525
20
-63.5245373
40
1.5
50
85
51
175
0
LINE
8
0
10
177.7673604
20
-63.3938037
11
176.5907579
21
-76.8424321
0
ARC
8
0
10
178.0850499
20
-76.9731657
40
1.5
50
175
51
265
0
LINE
8
0
10
94
20
-107
11
106
21
-107
0
ARC
8
0
10
106
20
-106
40
1
50
270
51
360
0
LINE
8
0
10
107
20
-106
11
107
21
-94
0
ARC
8
0
10
106
20
-94
40
1
50
0
51
90
0
LINE
8
0
10
106
20
-93
11
94
21
-93
0
ARC
8
0
10
94
20
-94
40
1
50
90
51
180
0
LINE
8
0
10
93
20
-94
11
93
21
-106
0
ARC
8
0
10
94
20
-106
40
1
50
180
51
270
0
LINE
8
0
10
94
20
-90
11
106
21
-90
0
ARC
8
0
10
106
20
-89
40
1
50
270
51
360
0
LINE
8
0
10
107
20
-89
11
107
21
-77
0
ARC
8
0
10
106
20
-77
40
1
50
0
51
90
0
LINE
8
0
10
106
20
-76
11
94
21
-76
0
ARC
8
0
10
94
20
-77
40
1
50
90
51
180
0
LINE
8
0
10
93
20
-77
11
93
21
-89
0
ARC
8
0
10
94
20
-89
40
1
50
180
51
270
0
LINE
8
0
10
94
20
-73
11
106
21
-73
0
ARC
8
0
10
106
20
-72
40
1
50
270
51
360
0
LINE
8
0
10
107
20
-72
11
107
21
-60
0
ARC
8
0
10
106
20
-60
40
1
50
0
51
90
0
LINE
8
0
10
106
20
-59
11
94
21
-59
0
ARC
8
0
10
94
20
-60
40
1
50
90
51
180
0
LINE
8
0
10
93
20
-60
11
93
21
-72
0
ARC
8
0
10
94
20
-72
40
1
50
180
51
270
0
LINE
8
0
10
111
20
-107
11
123
21
-107
0
ARC
8
0
10
123
20
-106
40
1
50
270
51
360
0
LINE
8
0
10
124
20
-106
11
124
21
-94
0
ARC
8
0
10
123
20
-94
40
1
50
0
51
90
0
LINE
8
0
10
123
20
-93
11
111
21
-93
0
ARC
8
0
10
111
20
-94
40
1
50
90
51
180
0
LINE
8
0
10
110
20
-94
11
110
21
-106
0
ARC
8
0
10
111
20
-106
40
1
50
180
51
270
0
LINE
8
0
10
111
20
-90
11
123
21
-90
0
ARC
8
0
10
123
20
-89
40
1
50
270
51
360
0
LINE
8
0
10
124
20
-89
11
124
21
-77
0
ARC
8
0
10
123
20
-77
40
1
50
0
51
90
0
LINE
8
0
10
123
20
-76
11
111
21
-76
0
ARC
8
0
10
111
20
-77
40
1
50
90
51
180
0
LINE
8
0
10
110
20
-77
11
110
21
-89
0
ARC
8
0
10
111
20
-89
40
1
50
180
51
270
0
LINE
8
0
10
111
20
-73
11
123
21
-73
0
ARC
8
0
10
123
20
-72
40
1
50
270
51
360
0
LINE
8
0
10
124
20
-72
11
124
21
-60
0
ARC
8
0
10
123
20
-60
40
1
50
0
51
90
0
LINE
8
0
10
123
20
-59
11
111
21
-59
0
ARC
8
0
10
111
20
-60
40
1
50
90
51
180
0
LINE
8
0
10
110
20
-60
11
110
21
-72
0
ARC
8
0
10
111
20
-72
40
1
50
180
51
270
0
LINE
8
0
10
132
20
-99.35
11
144
21
-99.35
0
ARC
8
0
10
144
20
-98.35
40
1
50
270
51
360
0
LINE
8
0
10
145
20
-98.35
11
145
21
-86.35
0
ARC
8
0
10
144
20
-86.35
40
1
50
0
51
90
0
LINE
8
0
10
144
20
-85.35
11
132
21
-85.35
0
ARC
8
0
10
132
20
-86.35
40
1
50
90
51
180
0
LINE
8
0
10
131
20
-86.35
11
131
21
-98.35
0
ARC
8
0
10
132
20
-98.35
40
1
50
180
51
270
0
LINE
8
0
10
132
20
-82.35
11
144
21
-82.35
0
ARC
8
0
10
144
20
-81.35
40
1
50
270
51
360
0
LINE
8
0
10
145
20
-81.35
11
145
21
-69.35
0
ARC
8
0
10
144
20
-69.35
40
1
50
0
51
90
0
LINE
8
0
10
144
20
-68.35
11
132
21
-68.35
0
ARC
8
0
10
132
20
-69.35
40
1
50
90
51
180
0
LINE
8
0
10
131
20
-69.35
11
131
21
-81.35
0
ARC
8
0
10
132
20
-81.35
40
1
50
180
51
270
0
LINE
8
0
10
132
20
-65.35
11
144
21
-65.35
0
ARC
8
0
10
144
20
-64.35
40
1
50
270
51
360
0
LINE
8
0
10
145
20
-64.35
11
145
21
-52.35
0
ARC
8
0
10
144
20
-52.35
40
1
50
0
51
90
0
LINE
8
0
10
144
20
-51.35
11
132
21
-51.35
0
ARC
8
0
10
132
20
-52.35
40
1
50
90
51
180
0
LINE
8
0
10
131
20
-52.35
11
131
21
-64.35
0
ARC
8
0
10
132
20
-64.35
40
1
50
180
51
270
0
LINE
8
0
10
155.0630497
20
-101.1604761
11
167.0516283
21
-101.6839088
0
ARC
8
0
10
167.0952477
20
-100.6848606
40
1
50
267.5
51
357.5
0
LINE
8
0
10
168.0942959
20
-100.7284799
11
168.6177286
21
-88.7399013
0
ARC
8
0
10
167.6186804
20
-88.6962819
40
1
50
357.5
51
87.5
0
LINE
8
0
10
167.6622997
20
-87.6972337
11
155.6737211
21
-87.173801
0
ARC
8
0
10
155.6301017
20
-88.1728492
40
1
50
87.5
51
177.5
0
LINE
8
0
10
154.6310535
20
-88.1292299
11
154.1076208
21
-100.1178085
0
ARC
8
0
10
155.106669
20
-100.1614279
40
1
50
177.5
51
267.5
0
LINE
8
0
10
155.8045793
20
-84.1766563
11
167.7931579
21
-84.700089
0
ARC
8
0
10
167.8367773
20
-83.7010408
40
1
50
267.5
51
357.5
0
LINE
8
0
10
168.8358255
20
-83.7446601
11
169.3592582
21
-71.7560815
0
ARC
8
0
10
168.36021
20
-71.7124621
40
1
50
357.5
51
87.5
0
LINE
8
0
10
168.4038293
20
-70.7134139
11
156.4152507
21
-70.1899812
0
ARC
8
0
10
156.3716313
20
-71.1890294
40
1
50
87.5
51
177.5
0
LINE
8
0
10
155.3725831
20
-71.1454101
11
154.8491504
21
-83.1339887
0
ARC
8
0
10
155.8481986
20
-83.1776081
40
1
50
177.5
51
267.5
0
LINE
8
0
10
156.5461089
20
-67.1928365
11
168.5346875
21
-67.7162692
0
ARC
8
0
10
168.5783069
20
-66.717221
40
1
50
267.5
51
357.5
0
LINE
8
0
10
169.5773551
20
-66.7608403
11
170.1007878
21
-54.7722617
0
ARC
8
0
10
169.1017396
20
-54.7286423
40
1
50
357.5
51
87.5
0
LINE
8
0
10
169.1453589
20
-53.7295941
11
157.1567803
21
-53.2061614
0
ARC
8
0
10
157.1131609
20
-54.2052096
40
1
50
87.5
51
177.5
0
LINE
8
0
10
156.1141127
20
-54.1615903
11
155.59068
21
-66.1501689
0
ARC
8
0
10
156.5897282
20
-66.1937883
40
1
50
177.5
51
267.5
0
LINE
8
0
10
175.8471118
20
-111.158201
11
187.8014482
21
-112.2040699
0
ARC
8
0
10
187.8886039
20
-111.2078752
40
1
50
265
51
355
0
LINE
8
0
10
188.8847986
20
-111.295031
11
189.9306675
21
-99.3406946
0
ARC
8
0
10
188.9344728
20
-99.2535389
40
1
50
355
51
85
0
LINE
8
0
10
189.0216286
20
-98.2573442
11
177.0672922
21
-97.2114753
0
ARC
8
0
10
176.9801365
20
-98.20767
40
1
50
85
51
175
0
LINE
8
0
10
175.9839418
20
-98.1205142
11
174.9380729
21
-110.0748506
0
ARC
8
0
10
175.9342676
20
-110.1620063
40
1
50
175
51
265
0
LINE
8
0
10
177.3287594
20
-94.2228911
11
189.2830958
21
-95.26876
0
ARC
8
0
10
189.3702515
20
-94.2725653
40
1
50
265
51
355
0
LINE
8
0
10
190.3664462
20
-94.3597211
11
191.4123151
21
-82.4053847
0
ARC
8
0
10
190.4161204
20
-82.318229
40
1
50
355
51
85
0
LINE
8
0
10
190.5032762
20
-81.3220343
11
178.5489398
21
-80.2761654
0
ARC
8
0
10
178.4617841
20
-81.2723601
40
1
50
85
51
175
0
LINE
8
0
10
177.4655894
20
-81.1852043
11
176.4197205
21
-93.1395407
0
ARC
8
0
10
177.4159152
20
-93.2266964
40
1
50
175
51
265
0
LINE
8
0
10
178.810407
20
-77.2875812
11
190.7647434
21
-78.3334501
0
ARC
8
0
10
190.8518991
20
-77.3372554
40
1
50
265
51
355
0
LINE
8
0
10
191.8480938
20
-77.4244112
11
192.8939627
21
-65.4700748
0
ARC
8
0
10
191.897768
20
-65.3829191
40
1
50
355
51
85
0
LINE
8
0
10
191.9849238
20
-64.3867244
11
180.0305874
21
-63.3408555
0
ARC
8
0
10
179.9434317
20
-64.3370502
40
1
50
85
51
175
0
LINE
8
0
10
178.947237
20
-64.2498944
11
177.9013681
21
-76.2042308
0
ARC
8
0
10
178.8975628
20
-76.2913865
40
1
50
175
51
265
0
LINE
8
0
10
192.487396
20
-107.4067219
11
205.9360244
21
-108.5833244
0
ARC
8
0
10
206.066758
20
-107.0890323
40
1.5
50
265
51
355
0
LINE
8
0
10
207.5610501
20
-107.219766
11
209.09717
21
-89.6618344
0
ARC
8
0
10
207.602878
20
-89.5311008
40
1.5
50
355
51
85
0
LINE
8
0
10
207.7336116
20
-88.0368087
11
194.2849832
21
-86.8602062
0
ARC
8
0
10
194.1542496
20
-88.3544983
40
1.5
50
85
51
175
0
LINE
8
0
10
192.6599575
20
-88.2237646
11
191.1238376
21
-105.7816962
0
ARC
8
0
10
192.6181296
20
-105.9124298
40
1.5
50
175
51
265
0
LINE
8
0
10
194.3394555
20
-86.2375846
11
207.7880839
21
-87.4141871
0
ARC
8
0
10
207.9188175
20
-85.919895
40
1.5
50
265
51
355
0
LINE
8
0
10
209.4131096
20
-86.0506287
11
210.9492295
21
-68.4926971
0
ARC
8
0
10
209.4549375
20
-68.3619635
40
1.5
50
355
51
85
0
LINE
8
0
10
209.5856711
20
-66.8676714
11
196.1370427
21
-65.6910689
0
ARC
8
0
10
196.0063091
20
-67.185361
40
1.5
50
85
51
175
0
LINE
8
0
10
194.512017
20
-67.0546273
11
192.9758971
21
-84.6125589
0
ARC
8
0
10
194.4701891
20
-84.7432925
40
1.5
50
175
51
265
0
LINE
8
0
10
73.441593
20
-142.090551
11
86.6465856
21
-139.2837432
0
ARC
8
0
10
86.3347181
20
-137.8165218
40
1.5
50
282
51
12
0
LINE
8
0
10
87.8019395
20
-137.5046543
11
84.1374959
21
-120.2648028
0
ARC
8
0
10
82.6702745
20
-120.5766704
40
1.5
50
12
51
102
0
LINE
8
0
10
82.358407
20
-119.109449
11
69.1534144
21
-121.9162568
0
ARC
8
0
10
69.4652819
20
-123.3834782
40
1.5
50
102
51
192
0
LINE
8
0
10
67.9980605
20
-123.6953457
11
71.6625041
21
-140.9351972
0
ARC
8
0
10
73.1297255
20
-140.6233296
40
1.5
50
192
51
282
0
LINE
8
0
10
89.3697609
20
-135.7289873
11
102.7035535
21
-133.617122
0
ARC
8
0
10
102.4689018
20
-132.1355895
40
1.5
50
279
51
9
0
LINE
8
0
10
103.9504343
20
-131.9009378
11
101.1932769
21
-114.4929308
0
ARC
8
0
10
99.7117444
20
-114.7275825
40
1.5
50
9
51
99
0
LINE
8
0
10
99.4770927
20
-113.2460499
11
86.1433001
21
-115.3579152
0
ARC
8
0
10
86.3779518
20
-116.8394477
40
1.5
50
99
51
189
0
LINE
8
0
10
84.8964193
20
-117.0740994
11
87.6535767
21
-134.4821064
0
ARC
8
0
10
89.1351092
20
-134.2474547
40
1.5
50
189
51
279
0
LINE
8
0
10
105.2572495
20
-129.5520774
11
118.7387482
21
-130.2586128
0
ARC
8
0
10
118.8172521
20
-128.7606685
40
1.5
50
267
51
357
0
LINE
8
0
10
120.3151964
20
-128.8391724
11
121.2376177
21
-111.2383269
0
ARC
8
0
10
119.7396734
20
-111.1598229
40
1.5
50
357
51
87
0
LINE
8
0
10
119.8181773
20
-109.6618786
11
106.3366786
21
-108.9553432
0
ARC
8
0
10
106.2581747
20
-110.4532875
40
1.5
50
87
51
177
0
LINE
8
0
10
104.7602304
20
-110.3747836
11
103.8378091
21
-127.9756291
0
ARC
8
0
10
105.3357534
20
-128.0541331
40
1.5
50
177
51
267
0
LINE
8
0
10
193.3434867
20
-106.2268453
11
205.2978231
21
-107.2727142
0
ARC
8
0
10
205.3849788
20
-106.2765195
40
1
50
265
51
355
0
LINE
8
0
10
206.3811735
20
-106.3636753
11
207.7865599
21
-90.3000357
0
ARC
8
0
10
206.7903652
20
-90.21288
40
1
50
355
51
85
0
LINE
8
0
10
206.8775209
20
-89.2166853
11
194.9231845
21
-88.1708164
0
ARC
8
0
10
194.8360288
20
-89.1670111
40
1
50
85
51
175
0
LINE
8
0
10
193.8398341
20
-89.0798553
11
192.4344477
21
-105.1434949
0
ARC
8
0
10
193.4306424
20
-105.2306506
40
1
50
175
51
265
0
LINE
8
0
10
195.1955462
20
-85.057708
11
207.1498826
21
-86.1035769
0
ARC
8
0
10
207.2370383
20
-85.1073822
40
1
50
265
51
355
0
LINE
8
0
10
208.233233
20
-85.194538
11
209.6386194
21
-69.1308984
0
ARC
8
0
10
208.6424247
20
-69.0437427
40
1
50
355
51
85
0
LINE
8
0
10
208.7295804
20
-68.047548
11
196.775244
21
-67.0016791
0
ARC
8
0
10
196.6880883
20
-67.9978738
40
1
50
85
51
175
0
LINE
8
0
10
195.6918936
20
-67.910718
11
194.2865072
21
-83.9743576
0
ARC
8
0
10
195.2827019
20
-84.0615133
40
1
50
175
51
265
0
LINE
8
0
10
73.9153141
20
-140.7119328
11
85.6530853
21
-138.2169925
0
ARC
8
0
10
85.4451736
20
-137.2388449
40
1
50
282
51
12
0
LINE
8
0
10
86.4233212
20
-137.0309332
11
83.0707452
21
-121.2583031
0
ARC
8
0
10
82.0925976
20
-121.4662148
40
1
50
12
51
102
0
LINE
8
0
10
81.8846859
20
-120.4880672
11
70.1469147
21
-122.9830075
0
ARC
8
0
10
70.3548264
20
-123.9611551
40
1
50
102
51
192
0
LINE
8
0
10
69.3766788
20
-124.1690668
11
72.7292548
21
-139.9416969
0
ARC
8
0
10
73.7074024
20
-139.7337852
40
1
50
192
51
282
0
LINE
8
0
10
89.9149841
20
-134.377051
11
101.7672442
21
-132.4998374
0
ARC
8
0
10
101.6108097
20
-131.5121491
40
1
50
279
51
9
0
LINE
8
0
10
102.5984981
20
-131.3557146
11
100.0759923
21
-115.4292401
0
ARC
8
0
10
99.088304
20
-115.5856746
40
1
50
9
51
99
0
LINE
8
0
10
98.9318695
20
-114.5979862
11
87.0796094
21
-116.4751998
0
ARC
8
0
10
87.2360439
20
-117.4628881
40
1
50
99
51
189
0
LINE
8
0
10
86.2483555
20
-117.6193226
11
88.7708613
21
-133.5457971
0
ARC
8
0
10
89.7585496
20
-133.3893626
40
1
50
189
51
279
0
LINE
8
0
10
106.0716416
20
-128.3430424
11
118.055196
21
-128.9710739
0
ARC
8
0
10
118.107532
20
-127.9724444
40
1
50
267
51
357
0
LINE
8
0
10
119.1061615
20
-128.0247803
11
119.9500788
21
-111.9218791
0
ARC
8
0
10
118.9514493
20
-111.8695431
40
1
50
357
51
87
0
LINE
8
0
10
119.0037852
20
-110.8709136
11
107.0202308
21
-110.2428821
0
ARC
8
0
10
106.9678948
20
-111.2415116
40
1
50
87
51
177
0
LINE
8
0
10
105.9692653
20
-111.1891757
11
105.125348
21
-127.2920769
0
ARC
8
0
10
106.1239775
20
-127.3444129
40
1
50
177
51
267
0
LINE
8
0
10
150.4308582
20
-114.9999999
11
205.5714875
21
-115
0
ARC
8
0
10
205.5714875
20
-112.75
40
2.25
50
270
51
355.0000024
0
LINE
8
0
10
211.7765365
20
-67.6418209
11
207.8129255
21
-112.9461004
0
ARC
8
0
10
209.5351261
20
-67.4454055
40
2.25
50
355.0000024
51
423.9343643
0
ARC
8
0
10
140
20
-209.6
40
160.5
50
63.9343643
51
114.599241
0
ARC
8
0
10
74.1254706
20
-65.7125131
40
2.25
50
114.599241
51
183.4917329
0
ARC
8
0
10
-127.25
20
-78
40
199.5
50
347.0897696
51
363.4917329
0
ARC
8
0
10
69.3999542
20
-123.0761356
40
2.25
50
167.0896789
51
192.0000005
0
LINE
8
0
10
70.8634596
20
-140.7832892
11
67.1991879
21
-123.5442462
0
ARC
8
0
10
73.0642918
20
-140.3154879
40
2.25
50
192.0091327
51
274.7982657
0
ARC
8
0
10
61.5
20
-2.55
40
140.5
50
274.7982657
51
305.011964
0
ARC
8
0
10
150.4308582
20
-129.4999999
40
14.5
50
90
51
125.011964
0
LINE
8
0
10
74.75
20
-100.25
11
89.25
21
-100.25
0
LINE
8
0
10
91
20
-98.5
11
91
21
-68.6
0
LINE
8
0
10
89.25
20
-66.85
11
74.75
21
-66.85
0
LINE
8
0
10
73
20
-68.6
11
73
21
-98.5
0
ARC
8
0
10
89.25
20
-98.5
40
1.75
50
270
51
0
0
ARC
8
0
10
89.25
20
-68.6
40
1.75
50
0
51
90
0
ARC
8
0
10
74.75
20
-68.6
40
1.75
50
90
51
180
0
ARC
8
0
10
74.75
20
-98.5
40
1.75
50
180
51
270
0
ENDSEC
0
EOF