0
SECTION
2
HEADER
9
$INSUNITS
70
4
0
ENDSEC
0
SECTION
2
TABLES
0
TABLE
2
LTYPE
0
LTYPE
72
65
70
64
2
CONTINUOUS
3
______
73
0
40
0
0
ENDTAB
0
TABLE
2
LAYER
0
ENDTAB
0
ENDSEC
0
SECTION
2
ENTITIES
0
LINE
8
0
10
95
20
-102
11
98.4
21
-102
0
LINE
8
0
10
101.6
20
-102
11
105
21
-102
0
LINE
8
0
10
105
20
-102
11
105
21
-98
0
LINE
8
0
10
105
20
-98
11
95
21
-98
0
LINE
8
0
10
95
20
-98
11
95
21
-102
0
LINE
8
0
10
95
20
-85
11
98.4
21
-85
0
LINE
8
0
10
101.6
20
-85
11
105
21
-85
0
LINE
8
0
10
105
20
-85
11
105
21
-81
0
LINE
8
0
10
105
20
-81
11
95
21
-81
0
LINE
8
0
10
95
20
-81
11
95
21
-85
0
LINE
8
0
10
95
20
-68
11
98.4
21
-68
0
LINE
8
0
10
101.6
20
-68
11
105
21
-68
0
LINE
8
0
10
105
20
-68
11
105
21
-64
0
LINE
8
0
10
105
20
-64
11
95
21
-64
0
LINE
8
0
10
95
20
-64
11
95
21
-68
0
LINE
8
0
10
112
20
-102
11
115.4
21
-102
0
LINE
8
0
10
118.6
20
-102
11
122
21
-102
0
LINE
8
0
10
122
20
-102
11
122
21
-98
0
LINE
8
0
10
122
20
-98
11
112
21
-98
0
LINE
8
0
10
112
20
-98
11
112
21
-102
0
LINE
8
0
10
112
20
-85
11
115.4
21
-85
0
LINE
8
0
10
118.6
20
-85
11
122
21
-85
0
LINE
8
0
10
122
20
-85
11
122
21
-81
0
LINE
8
0
10
122
20
-81
11
112
21
-81
0
LINE
8
0
10
112
20
-81
11
112
21
-85
0
LINE
8
0
10
112
20
-68
11
115.4
21
-68
0
LINE
8
0
10
118.6
20
-68
11
122
21
-68
0
LINE
8
0
10
122
20
-68
11
122
21
-64
0
LINE
8
0
10
122
20
-64
11
112
21
-64
0
LINE
8
0
10
112
20
-64
11
112
21
-68
0
LINE
8
0
10
133.375
20
-94.575
11
136.775
21
-94.575
0
LINE
8
0
10
139.975
20
-94.575
11
143.375
21
-94.575
0
LINE
8
0
10
143.375
20
-94.575
11
143.375
21
-90.575
0
LINE
8
0
10
143.375
20
-90.575
11
133.375
21
-90.575
0
LINE
8
0
10
133.375
20
-90.575
11
133.375
21
-94.575
0
LINE
8
0
10
133.375
20
-77.575
11
136.775
21
-77.575
0
LINE
8
0
10
139.975
20
-77.575
11
143.375
21
-77.575
0
LINE
8
0
10
143.375
20
-77.575
11
143.375
21
-73.575
0
LINE
8
0
10
143.375
20
-73.575
11
133.375
21
-73.575
0
LINE
8
0
10
133.375
20
-73.575
11
133.375
21
-77.575
0
LINE
8
0
10
133.375
20
-60.575
11
136.775
21
-60.575
0
LINE
8
0
10
139.975
20
-60.575
11
143.375
21
-60.575
0
LINE
8
0
10
143.375
20
-60.575
11
143.375
21
-56.575
0
LINE
8
0
10
143.375
20
-56.575
11
133.375
21
-56.575
0
LINE
8
0
10
133.375
20
-56.575
11
133.375
21
-60.575
0
LINE
8
0
10
156.1551948
20
-96.3838544
11
159.5519588
21
-96.5321603
0
LINE
8
0
10
162.7489131
20
-96.6717424
11
166.145677
21
-96.8200483
0
LINE
8
0
10
166.145677
20
-96.8200483
11
166.3201546
21
-92.8238554
0
LINE
8
0
10
166.3201546
20
-92.8238554
11
156.3296724
21
-92.3876615
0
LINE
8
0
10
156.3296724
20
-92.3876615
11
156.1551948
21
-96.3838544
0
LINE
8
0
10
156.8967244
20
-79.4000346
11
160.2934884
21
-79.5483405
0
LINE
8
0
10
163.4904427
20
-79.6879226
11
166.8872066
21
-79.8362285
0
LINE
8
0
10
166.8872066
20
-79.8362285
11
167.0616842
21
-75.8400356
0
LINE
8
0
10
167.0616842
20
-75.8400356
11
157.071202
21
-75.4038417
0
LINE
8
0
10
157.071202
20
-75.4038417
11
156.8967244
21
-79.4000346
0
LINE
8
0
10
157.638254
20
-62.4162148
11
161.035018
21
-62.5645207
0
LINE
8
0
10
164.2319723
20
-62.7041028
11
167.6287362
21
-62.8524087
0
LINE
8
0
10
167.6287362
20
-62.8524087
11
167.8032138
21
-58.8562158
0
LINE
8
0
10
167.8032138
20
-58.8562158
11
157.8127316
21
-58.4200219
0
LINE
8
0
10
157.8127316
20
-58.4200219
11
157.638254
21
-62.4162148
0
LINE
8
0
10
176.5924418
20
-104.6920767
11
179.9795038
21
-104.9884062
0
LINE
8
0
10
183.1673268
20
-105.2673046
11
186.5543888
21
-105.5636341
0
LINE
8
0
10
186.5543888
20
-105.5636341
11
186.9030118
21
-101.5788553
0
LINE
8
0
10
186.9030118
20
-101.5788553
11
176.9410648
21
-100.7072979
0
LINE
8
0
10
176.9410648
20
-100.7072979
11
176.5924418
21
-104.6920767
0
LINE
8
0
10
178.0740894
20
-87.7567668
11
181.4611514
21
-88.0530963
0
LINE
8
0
10
184.6489744
20
-88.3319947
11
188.0360364
21
-88.6283242
0
LINE
8
0
10
188.0360364
20
-88.6283242
11
188.3846594
21
-84.6435454
0
LINE
8
0
10
188.3846594
20
-84.6435454
11
178.4227124
21
-83.771988
0
LINE
8
0
10
178.4227124
20
-83.771988
11
178.0740894
21
-87.7567668
0
LINE
8
0
10
179.555737
20
-70.8214569
11
182.942799
21
-71.1177864
0
LINE
8
0
10
186.130622
20
-71.3966848
11
189.517684
21
-71.6930143
0
LINE
8
0
10
189.517684
20
-71.6930143
11
189.866307
21
-67.7082355
0
LINE
8
0
10
189.866307
20
-67.7082355
11
179.90436
21
-66.8366781
0
LINE
8
0
10
179.90436
20
-66.8366781
11
179.555737
21
-70.8214569
0
LINE
8
0
10
197.6493604
20
-93.4846604
11
197.3530309
21
-96.8717224
0
LINE
8
0
10
197.0741325
20
-100.0595454
11
196.777803
21
-103.4466074
0
LINE
8
0
10
196.777803
20
-103.4466074
11
200.7625818
21
-103.7952304
0
LINE
8
0
10
200.7625818
20
-103.7952304
11
201.6341392
21
-93.8332834
0
LINE
8
0
10
201.6341392
20
-93.8332834
11
197.6493604
21
-93.4846604
0
LINE
8
0
10
199.5449978
20
-71.8174257
11
199.2486683
21
-75.2044877
0
LINE
8
0
10
198.9697699
20
-78.3923107
11
198.6734404
21
-81.7793727
0
LINE
8
0
10
198.6734404
20
-81.7793727
11
202.6582192
21
-82.1279957
0
LINE
8
0
10
202.6582192
20
-82.1279957
11
203.5297766
21
-72.1660487
0
LINE
8
0
10
203.5297766
20
-72.1660487
11
199.5449978
21
-71.8174257
0
LINE
8
0
10
83.3257102
20
-134.4550338
11
82.3885432
21
-131.186744
0
LINE
8
0
10
81.5065036
20
-128.1107066
11
80.5693366
21
-124.8424168
0
LINE
8
0
10
80.5693366
20
-124.8424168
11
76.7242898
21
-125.9449662
0
LINE
8
0
10
76.7242898
20
-125.9449662
11
79.4806634
21
-135.5575832
0
LINE
8
0
10
79.4806634
20
-135.5575832
11
83.3257102
21
-134.4550338
0
LINE
8
0
10
99.0670472
20
-127.1384165
11
98.53517
21
-123.7802761
0
LINE
8
0
10
98.0345797
20
-120.6196734
11
97.5027026
21
-117.2615331
0
LINE
8
0
10
97.5027026
20
-117.2615331
11
93.5519492
21
-117.8872709
0
LINE
8
0
10
93.5519492
20
-117.8872709
11
95.1162938
21
-127.7641543
0
LINE
8
0
10
95.1162938
20
-127.7641543
11
99.0670472
21
-127.1384165
0
LINE
8
0
10
118.9498683
20
-115.4735594
11
115.5581505
21
-115.2363874
0
LINE
8
0
10
112.3659456
20
-115.0131666
11
108.9742278
21
-114.7759946
0
LINE
8
0
10
108.9742278
20
-114.7759946
11
108.6952019
21
-118.7662508
0
LINE
8
0
10
108.6952019
20
-118.7662508
11
118.6708424
21
-119.4638156
0
LINE
8
0
10
118.6708424
20
-119.4638156
11
118.9498683
21
-115.4735594
0
LINE
8
0
10
98.4
20
-103.2
11
101.6
21
-103.2
0
LINE
8
0
10
101.6
20
-103.2
11
101.6
21
-102
0
LINE
8
0
10
98.4
20
-102
11
98.4
21
-103.2
0
LINE
8
0
10
98.4
20
-86.2
11
101.6
21
-86.2
0
LINE
8
0
10
101.6
20
-86.2
11
101.6
21
-85
0
LINE
8
0
10
98.4
20
-85
11
98.4
21
-86.2
0
LINE
8
0
10
98.4
20
-69.2
11
101.6
21
-69.2
0
LINE
8
0
10
101.6
20
-69.2
11
101.6
21
-68
0
LINE
8
0
10
98.4
20
-68
11
98.4
21
-69.2
0
LINE
8
0
10
115.4
20
-103.2
11
118.6
21
-103.2
0
LINE
8
0
10
118.6
20
-103.2
11
118.6
21
-102
0
LINE
8
0
10
115.4
20
-102
11
115.4
21
-103.2
0
LINE
8
0
10
115.4
20
-86.2
11
118.6
21
-86.2
0
LINE
8
0
10
118.6
20
-86.2
11
118.6
21
-85
0
LINE
8
0
10
115.4
20
-85
11
115.4
21
-86.2
0
LINE
8
0
10
115.4
20
-69.2
11
118.6
21
-69.2
0
LINE
8
0
10
118.6
20
-69.2
11
118.6
21
-68
0
LINE
8
0
10
115.4
20
-68
11
115.4
21
-69.2
0
LINE
8
0
10
136.775
20
-95.775
11
139.975
21
-95.775
0
LINE
8
0
10
139.975
20
-95.775
11
139.975
21
-94.575
0
LINE
8
0
10
136.775
20
-94.575
11
136.775
21
-95.775
0
LINE
8
0
10
136.775
20
-78.775
11
139.975
21
-78.775
0
LINE
8
0
10
139.975
20
-78.775
11
139.975
21
-77.575
0
LINE
8
0
10
136.775
20
-77.575
11
136.775
21
-78.775
0
LINE
8
0
10
136.775
20
-61.775
11
139.975
21
-61.775
0
LINE
8
0
10
139.975
20
-61.775
11
139.975
21
-60.575
0
LINE
8
0
10
136.775
20
-60.575
11
136.775
21
-61.775
0
LINE
8
0
10
159.4996155
20
-97.7310182
11
162.6965698
21
-97.8706003
0
LINE
8
0
10
162.6965698
20
-97.8706003
11
162.7489131
21
-96.6717424
0
LINE
8
0
10
159.5519588
20
-96.5321603
11
159.4996155
21
-97.7310182
0
LINE
8
0
10
160.2411451
20
-80.7471984
11
163.4380994
21
-80.8867805
0
LINE
8
0
10
163.4380994
20
-80.8867805
11
163.4904427
21
-79.6879226
0
LINE
8
0
10
160.2934884
20
-79.5483405
11
160.2411451
21
-80.7471984
0
LINE
8
0
10
160.9826747
20
-63.7633786
11
164.179629
21
-63.9029607
0
LINE
8
0
10
164.179629
20
-63.9029607
11
164.2319723
21
-62.7041028
0
LINE
8
0
10
161.035018
20
-62.5645207
11
160.9826747
21
-63.7633786
0
LINE
8
0
10
179.8749169
20
-106.1838398
11
183.0627399
21
-106.4627382
0
LINE
8
0
10
183.0627399
20
-106.4627382
11
183.1673268
21
-105.2673046
0
LINE
8
0
10
179.9795038
20
-104.9884062
11
179.8749169
21
-106.1838398
0
LINE
8
0
10
181.3565645
20
-89.2485299
11
184.5443875
21
-89.5274283
0
LINE
8
0
10
184.5443875
20
-89.5274283
11
184.6489744
21
-88.3319947
0
LINE
8
0
10
181.4611514
20
-88.0530963
11
181.3565645
21
-89.2485299
0
LINE
8
0
10
182.8382121
20
-72.31322
11
186.0260351
21
-72.5921184
0
LINE
8
0
10
186.0260351
20
-72.5921184
11
186.130622
21
-71.3966848
0
LINE
8
0
10
182.942799
20
-71.1177864
11
182.8382121
21
-72.31322
0
LINE
8
0
10
196.1575973
20
-96.7671355
11
195.8786989
21
-99.9549585
0
LINE
8
0
10
195.8786989
20
-99.9549585
11
197.0741325
21
-100.0595454
0
LINE
8
0
10
197.3530309
20
-96.8717224
11
196.1575973
21
-96.7671355
0
LINE
8
0
10
198.0532347
20
-75.0999008
11
197.7743363
21
-78.2877238
0
LINE
8
0
10
197.7743363
20
-78.2877238
11
198.9697699
21
-78.3923107
0
LINE
8
0
10
199.2486683
20
-75.2044877
11
198.0532347
21
-75.0999008
0
LINE
8
0
10
83.5420572
20
-130.8559792
11
82.6600176
21
-127.7799418
0
LINE
8
0
10
82.6600176
20
-127.7799418
11
81.5065036
21
-128.1107066
0
LINE
8
0
10
82.3885432
20
-131.186744
11
83.5420572
21
-130.8559792
0
LINE
8
0
10
99.720396
20
-123.5925547
11
99.2198057
21
-120.431952
0
LINE
8
0
10
99.2198057
20
-120.431952
11
98.0345797
21
-120.6196734
0
LINE
8
0
10
98.53517
20
-123.7802761
11
99.720396
21
-123.5925547
0
LINE
8
0
10
115.6418583
20
-114.0393105
11
112.4496534
21
-113.8160897
0
LINE
8
0
10
112.4496534
20
-113.8160897
11
112.3659456
21
-115.0131666
0
LINE
8
0
10
115.5581505
20
-115.2363874
11
115.6418583
21
-114.0393105
0
CIRCLE
8
0
10
100
20
-100
40
1.6
0
CIRCLE
8
0
10
100
20
-83
40
1.6
0
CIRCLE
8
0
10
100
20
-66
40
1.6
0
CIRCLE
8
0
10
117
20
-100
40
1.6
0
CIRCLE
8
0
10
117
20
-83
40
1.6
0
CIRCLE
8
0
10
117
20
-66
40
1.6
0
CIRCLE
8
0
10
138.375
20
-92.575
40
1.6
0
CIRCLE
8
0
10
138.375
20
-75.575
40
1.6
0
CIRCLE
8
0
10
138.375
20
-58.575
40
1.6
0
CIRCLE
8
0
10
161.2376747
20
-94.6038549
40
1.6
0
CIRCLE
8
0
10
161.9792043
20
-77.6200351
40
1.6
0
CIRCLE
8
0
10
162.7207339
20
-60.6362153
40
1.6
0
CIRCLE
8
0
10
181.7477268
20
-103.135466
40
1.6
0
CIRCLE
8
0
10
183.2293744
20
-86.2001561
40
1.6
0
CIRCLE
8
0
10
184.711022
20
-69.2648462
40
1.6
0
CIRCLE
8
0
10
199.2059711
20
-98.6399454
40
1.6
0
CIRCLE
8
0
10
201.1016085
20
-76.9727107
40
1.6
0
CIRCLE
8
0
10
80.025
20
-130.2
40
1.6
0
CIRCLE
8
0
10
96.3094982
20
-122.5128437
40
1.6
0
CIRCLE
8
0
10
113.8225351
20
-117.1199051
40
1.6
0
LINE
8
0
10
96.55
20
-101.5
11
97.75
21
-101.5
0
LINE
8
0
10
97.75
20
-101.5
11
97.75
21
-98.5
0
LINE
8
0
10
97.75
20
-98.5
11
96.55
21
-98.5
0
LINE
8
0
10
96.55
20
-98.5
11
96.55
21
-101.5
0
LINE
8
0
10
96.55
20
-84.5
11
97.75
21
-84.5
0
LINE
8
0
10
97.75
20
-84.5
11
97.75
21
-81.5
0
LINE
8
0
10
97.75
20
-81.5
11
96.55
21
-81.5
0
LINE
8
0
10
96.55
20
-81.5
11
96.55
21
-84.5
0
LINE
8
0
10
96.55
20
-67.5
11
97.75
21
-67.5
0
LINE
8
0
10
97.75
20
-67.5
11
97.75
21
-64.5
0
LINE
8
0
10
97.75
20
-64.5
11
96.55
21
-64.5
0
LINE
8
0
10
96.55
20
-64.5
11
96.55
21
-67.5
0
LINE
8
0
10
113.55
20
-101.5
11
114.75
21
-101.5
0
LINE
8
0
10
114.75
20
-101.5
11
114.75
21
-98.5
0
LINE
8
0
10
114.75
20
-98.5
11
113.55
21
-98.5
0
LINE
8
0
10
113.55
20
-98.5
11
113.55
21
-101.5
0
LINE
8
0
10
113.55
20
-84.5
11
114.75
21
-84.5
0
LINE
8
0
10
114.75
20
-84.5
11
114.75
21
-81.5
0
LINE
8
0
10
114.75
20
-81.5
11
113.55
21
-81.5
0
LINE
8
0
10
113.55
20
-81.5
11
113.55
21
-84.5
0
LINE
8
0
10
113.55
20
-67.5
11
114.75
21
-67.5
0
LINE
8
0
10
114.75
20
-67.5
11
114.75
21
-64.5
0
LINE
8
0
10
114.75
20
-64.5
11
113.55
21
-64.5
0
LINE
8
0
10
113.55
20
-64.5
11
113.55
21
-67.5
0
LINE
8
0
10
134.925
20
-94.075
11
136.125
21
-94.075
0
LINE
8
0
10
136.125
20
-94.075
11
136.125
21
-91.075
0
LINE
8
0
10
136.125
20
-91.075
11
134.925
21
-91.075
0
LINE
8
0
10
134.925
20
-91.075
11
134.925
21
-94.075
0
LINE
8
0
10
134.925
20
-77.075
11
136.125
21
-77.075
0
LINE
8
0
10
136.125
20
-77.075
11
136.125
21
-74.075
0
LINE
8
0
10
136.125
20
-74.075
11
134.925
21
-74.075
0
LINE
8
0
10
134.925
20
-74.075
11
134.925
21
-77.075
0
LINE
8
0
10
134.925
20
-60.075
11
136.125
21
-60.075
0
LINE
8
0
10
136.125
20
-60.075
11
136.125
21
-57.075
0
LINE
8
0
10
136.125
20
-57.075
11
134.925
21
-57.075
0
LINE
8
0
10
134.925
20
-57.075
11
134.925
21
-60.075
0
LINE
8
0
10
157.7255293
20
-95.9519403
11
158.9243872
21
-96.0042836
0
LINE
8
0
10
158.9243872
20
-96.0042836
11
159.0552453
21
-93.0071389
0
LINE
8
0
10
159.0552453
20
-93.0071389
11
157.8563874
21
-92.9547956
0
LINE
8
0
10
157.8563874
20
-92.9547956
11
157.7255293
21
-95.9519403
0
LINE
8
0
10
158.4670589
20
-78.9681205
11
159.6659168
21
-79.0204638
0
LINE
8
0
10
159.6659168
20
-79.0204638
11
159.7967749
21
-76.0233191
0
LINE
8
0
10
159.7967749
20
-76.0233191
11
158.597917
21
-75.9709758
0
LINE
8
0
10
158.597917
20
-75.9709758
11
158.4670589
21
-78.9681205
0
LINE
8
0
10
159.2085885
20
-61.9843007
11
160.4074464
21
-62.036644
0
LINE
8
0
10
160.4074464
20
-62.036644
11
160.5383045
21
-59.0394993
0
LINE
8
0
10
160.5383045
20
-59.0394993
11
159.3394466
21
-58.987156
0
LINE
8
0
10
159.3394466
20
-58.987156
11
159.2085885
21
-61.9843007
0
LINE
8
0
10
178.1801215
20
-104.3290707
11
179.3755551
21
-104.4336576
0
LINE
8
0
10
179.3755551
20
-104.4336576
11
179.6370223
21
-101.4450735
0
LINE
8
0
10
179.6370223
20
-101.4450735
11
178.4415887
21
-101.3404866
0
LINE
8
0
10
178.4415887
20
-101.3404866
11
178.1801215
21
-104.3290707
0
LINE
8
0
10
179.6617691
20
-87.3937608
11
180.8572027
21
-87.4983477
0
LINE
8
0
10
180.8572027
20
-87.4983477
11
181.1186699
21
-84.5097636
0
LINE
8
0
10
181.1186699
20
-84.5097636
11
179.9232363
21
-84.4051767
0
LINE
8
0
10
179.9232363
20
-84.4051767
11
179.6617691
21
-87.3937608
0
LINE
8
0
10
181.1434167
20
-70.4584509
11
182.3388503
21
-70.5630378
0
LINE
8
0
10
182.3388503
20
-70.5630378
11
182.6003175
21
-67.5744537
0
LINE
8
0
10
182.6003175
20
-67.5744537
11
181.4048839
21
-67.4698668
0
LINE
8
0
10
181.4048839
20
-67.4698668
11
181.1434167
21
-70.4584509
0
LINE
8
0
10
198.0123664
20
-95.0723401
11
197.9077795
21
-96.2677737
0
LINE
8
0
10
197.9077795
20
-96.2677737
11
200.8963636
21
-96.5292409
0
LINE
8
0
10
200.8963636
20
-96.5292409
11
201.0009505
21
-95.3338073
0
LINE
8
0
10
201.0009505
20
-95.3338073
11
198.0123664
21
-95.0723401
0
LINE
8
0
10
199.9080038
20
-73.4051054
11
199.8034169
21
-74.600539
0
LINE
8
0
10
199.8034169
20
-74.600539
11
202.792001
21
-74.8620062
0
LINE
8
0
10
202.792001
20
-74.8620062
11
202.8965879
21
-73.6665726
0
LINE
8
0
10
202.8965879
20
-73.6665726
11
199.9080038
21
-73.4051054
0
LINE
8
0
10
82.4178415
20
-133.1028968
11
82.0870766
21
-131.9493827
0
LINE
8
0
10
82.0870766
20
-131.9493827
11
79.2032915
21
-132.7762948
0
LINE
8
0
10
79.2032915
20
-132.7762948
11
79.5340564
21
-133.9298089
0
LINE
8
0
10
79.5340564
20
-133.9298089
11
82.4178415
21
-133.1028968
0
LINE
8
0
10
98.3307296
20
-125.6857168
11
98.1430082
21
-124.5004908
0
LINE
8
0
10
98.1430082
20
-124.5004908
11
95.1799432
21
-124.9697942
0
LINE
8
0
10
95.1799432
20
-124.9697942
11
95.3676646
21
-126.1550202
0
LINE
8
0
10
95.3676646
20
-126.1550202
11
98.3307296
21
-125.6857168
0
LINE
8
0
10
117.3687657
20
-115.8642189
11
116.1716889
21
-115.7805111
0
LINE
8
0
10
116.1716889
20
-115.7805111
11
115.9624195
21
-118.7732033
0
LINE
8
0
10
115.9624195
20
-118.7732033
11
117.1594963
21
-118.8569111
0
LINE
8
0
10
117.1594963
20
-118.8569111
11
117.3687657
21
-115.8642189
0
LINE
8
0
10
102.25
20
-101.5
11
103.45
21
-101.5
0
LINE
8
0
10
103.45
20
-101.5
11
103.45
21
-98.5
0
LINE
8
0
10
103.45
20
-98.5
11
102.25
21
-98.5
0
LINE
8
0
10
102.25
20
-98.5
11
102.25
21
-101.5
0
LINE
8
0
10
102.25
20
-84.5
11
103.45
21
-84.5
0
LINE
8
0
10
103.45
20
-84.5
11
103.45
21
-81.5
0
LINE
8
0
10
103.45
20
-81.5
11
102.25
21
-81.5
0
LINE
8
0
10
102.25
20
-81.5
11
102.25
21
-84.5
0
LINE
8
0
10
102.25
20
-67.5
11
103.45
21
-67.5
0
LINE
8
0
10
103.45
20
-67.5
11
103.45
21
-64.5
0
LINE
8
0
10
103.45
20
-64.5
11
102.25
21
-64.5
0
LINE
8
0
10
102.25
20
-64.5
11
102.25
21
-67.5
0
LINE
8
0
10
119.25
20
-101.5
11
120.45
21
-101.5
0
LINE
8
0
10
120.45
20
-101.5
11
120.45
21
-98.5
0
LINE
8
0
10
120.45
20
-98.5
11
119.25
21
-98.5
0
LINE
8
0
10
119.25
20
-98.5
11
119.25
21
-101.5
0
LINE
8
0
10
119.25
20
-84.5
11
120.45
21
-84.5
0
LINE
8
0
10
120.45
20
-84.5
11
120.45
21
-81.5
0
LINE
8
0
10
120.45
20
-81.5
11
119.25
21
-81.5
0
LINE
8
0
10
119.25
20
-81.5
11
119.25
21
-84.5
0
LINE
8
0
10
119.25
20
-67.5
11
120.45
21
-67.5
0
LINE
8
0
10
120.45
20
-67.5
11
120.45
21
-64.5
0
LINE
8
0
10
120.45
20
-64.5
11
119.25
21
-64.5
0
LINE
8
0
10
119.25
20
-64.5
11
119.25
21
-67.5
0
LINE
8
0
10
140.625
20
-94.075
11
141.825
21
-94.075
0
LINE
8
0
10
141.825
20
-94.075
11
141.825
21
-91.075
0
LINE
8
0
10
141.825
20
-91.075
11
140.625
21
-91.075
0
LINE
8
0
10
140.625
20
-91.075
11
140.625
21
-94.075
0
LINE
8
0
10
140.625
20
-77.075
11
141.825
21
-77.075
0
LINE
8
0
10
141.825
20
-77.075
11
141.825
21
-74.075
0
LINE
8
0
10
141.825
20
-74.075
11
140.625
21
-74.075
0
LINE
8
0
10
140.625
20
-74.075
11
140.625
21
-77.075
0
LINE
8
0
10
140.625
20
-60.075
11
141.825
21
-60.075
0
LINE
8
0
10
141.825
20
-60.075
11
141.825
21
-57.075
0
LINE
8
0
10
141.825
20
-57.075
11
140.625
21
-57.075
0
LINE
8
0
10
140.625
20
-57.075
11
140.625
21
-60.075
0
LINE
8
0
10
163.4201041
20
-96.2005709
11
164.618962
21
-96.2529142
0
LINE
8
0
10
164.618962
20
-96.2529142
11
164.7498201
21
-93.2557695
0
LINE
8
0
10
164.7498201
20
-93.2557695
11
163.5509622
21
-93.2034262
0
LINE
8
0
10
163.5509622
20
-93.2034262
11
163.4201041
21
-96.2005709
0
LINE
8
0
10
164.1616337
20
-79.2167511
11
165.3604916
21
-79.2690944
0
LINE
8
0
10
165.3604916
20
-79.2690944
11
165.4913497
21
-76.2719497
0
LINE
8
0
10
165.4913497
20
-76.2719497
11
164.2924918
21
-76.2196064
0
LINE
8
0
10
164.2924918
20
-76.2196064
11
164.1616337
21
-79.2167511
0
LINE
8
0
10
164.9031633
20
-62.2329313
11
166.1020212
21
-62.2852746
0
LINE
8
0
10
166.1020212
20
-62.2852746
11
166.2328793
21
-59.2881299
0
LINE
8
0
10
166.2328793
20
-59.2881299
11
165.0340214
21
-59.2357866
0
LINE
8
0
10
165.0340214
20
-59.2357866
11
164.9031633
21
-62.2329313
0
LINE
8
0
10
183.8584313
20
-104.8258585
11
185.0538649
21
-104.9304454
0
LINE
8
0
10
185.0538649
20
-104.9304454
11
185.3153321
21
-101.9418613
0
LINE
8
0
10
185.3153321
20
-101.9418613
11
184.1198985
21
-101.8372744
0
LINE
8
0
10
184.1198985
20
-101.8372744
11
183.8584313
21
-104.8258585
0
LINE
8
0
10
185.3400789
20
-87.8905486
11
186.5355125
21
-87.9951355
0
LINE
8
0
10
186.5355125
20
-87.9951355
11
186.7969797
21
-85.0065514
0
LINE
8
0
10
186.7969797
20
-85.0065514
11
185.6015461
21
-84.9019645
0
LINE
8
0
10
185.6015461
20
-84.9019645
11
185.3400789
21
-87.8905486
0
LINE
8
0
10
186.8217265
20
-70.9552387
11
188.0171601
21
-71.0598256
0
LINE
8
0
10
188.0171601
20
-71.0598256
11
188.2786273
21
-68.0712415
0
LINE
8
0
10
188.2786273
20
-68.0712415
11
187.0831937
21
-67.9666546
0
LINE
8
0
10
187.0831937
20
-67.9666546
11
186.8217265
21
-70.9552387
0
LINE
8
0
10
197.5155786
20
-100.7506499
11
197.4109917
21
-101.9460835
0
LINE
8
0
10
197.4109917
20
-101.9460835
11
200.3995758
21
-102.2075507
0
LINE
8
0
10
200.3995758
20
-102.2075507
11
200.5041627
21
-101.0121171
0
LINE
8
0
10
200.5041627
20
-101.0121171
11
197.5155786
21
-100.7506499
0
LINE
8
0
10
199.411216
20
-79.0834152
11
199.3066291
21
-80.2788488
0
LINE
8
0
10
199.3066291
20
-80.2788488
11
202.2952132
21
-80.540316
0
LINE
8
0
10
202.2952132
20
-80.540316
11
202.3998001
21
-79.3448824
0
LINE
8
0
10
202.3998001
20
-79.3448824
11
199.411216
21
-79.0834152
0
LINE
8
0
10
80.8467085
20
-127.6237052
11
80.5159436
21
-126.4701911
0
LINE
8
0
10
80.5159436
20
-126.4701911
11
77.6321585
21
-127.2971032
0
LINE
8
0
10
77.6321585
20
-127.2971032
11
77.9629234
21
-128.4506173
0
LINE
8
0
10
77.9629234
20
-128.4506173
11
80.8467085
21
-127.6237052
0
LINE
8
0
10
97.4390532
20
-120.0558932
11
97.2513318
21
-118.8706672
0
LINE
8
0
10
97.2513318
20
-118.8706672
11
94.2882668
21
-119.3399706
0
LINE
8
0
10
94.2882668
20
-119.3399706
11
94.4759882
21
-120.5251966
0
LINE
8
0
10
94.4759882
20
-120.5251966
11
97.4390532
21
-120.0558932
0
LINE
8
0
10
111.6826507
20
-115.4666069
11
110.4855739
21
-115.3828991
0
LINE
8
0
10
110.4855739
20
-115.3828991
11
110.2763045
21
-118.3755913
0
LINE
8
0
10
110.2763045
20
-118.3755913
11
111.4733813
21
-118.4592991
0
LINE
8
0
10
111.4733813
20
-118.4592991
11
111.6826507
21
-115.4666069
0
LINE
8
0
10
93.25
20
-108.25
11
106.75
21
-108.25
0
ARC
8
0
10
106.75
20
-106.75
40
1.5
50
270
51
360
0
LINE
8
0
10
108.25
20
-106.75
11
108.25
21
-93.25
0
ARC
8
0
10
106.75
20
-93.25
40
1.5
50
0
51
90
0
LINE
8
0
10
106.75
20
-91.75
11
93.25
21
-91.75
0
ARC
8
0
10
93.25
20
-93.25
40
1.5
50
90
51
180
0
LINE
8
0
10
91.75
20
-93.25
11
91.75
21
-106.75
0
ARC
8
0
10
93.25
20
-106.75
40
1.5
50
180
51
270
0
LINE
8
0
10
93.25
20
-91.25
11
106.75
21
-91.25
0
ARC
8
0
10
106.75
20
-89.75
40
1.5
50
270
51
360
0
LINE
8
0
10
108.25
20
-89.75
11
108.25
21
-76.25
0
ARC
8
0
10
106.75
20
-76.25
40
1.5
50
0
51
90
0
LINE
8
0
10
106.75
20
-74.75
11
93.25
21
-74.75
0
ARC
8
0
10
93.25
20
-76.25
40
1.5
50
90
51
180
0
LINE
8
0
10
91.75
20
-76.25
11
91.75
21
-89.75
0
ARC
8
0
10
93.25
20
-89.75
40
1.5
50
180
51
270
0
LINE
8
0
10
93.25
20
-74.25
11
106.75
21
-74.25
0
ARC
8
0
10
106.75
20
-72.75
40
1.5
50
270
51
360
0
LINE
8
0
10
108.25
20
-72.75
11
108.25
21
-59.25
0
ARC
8
0
10
106.75
20
-59.25
40
1.5
50
0
51
90
0
LINE
8
0
10
106.75
20
-57.75
11
93.25
21
-57.75
0
ARC
8
0
10
93.25
20
-59.25
40
1.5
50
90
51
180
0
LINE
8
0
10
91.75
20
-59.25
11
91.75
21
-72.75
0
ARC
8
0
10
93.25
20
-72.75
40
1.5
50
180
51
270
0
LINE
8
0
10
110.25
20
-108.25
11
123.75
21
-108.25
0
ARC
8
0
10
123.75
20
-106.75
40
1.5
50
270
51
360
0
LINE
8
0
10
125.25
20
-106.75
11
125.25
21
-93.25
0
ARC
8
0
10
123.75
20
-93.25
40
1.5
50
0
51
90
0
LINE
8
0
10
123.75
20
-91.75
11
110.25
21
-91.75
0
ARC
8
0
10
110.25
20
-93.25
40
1.5
50
90
51
180
0
LINE
8
0
10
108.75
20
-93.25
11
108.75
21
-106.75
0
ARC
8
0
10
110.25
20
-106.75
40
1.5
50
180
51
270
0
LINE
8
0
10
110.25
20
-91.25
11
123.75
21
-91.25
0
ARC
8
0
10
123.75
20
-89.75
40
1.5
50
270
51
360
0
LINE
8
0
10
125.25
20
-89.75
11
125.25
21
-76.25
0
ARC
8
0
10
123.75
20
-76.25
40
1.5
50
0
51
90
0
LINE
8
0
10
123.75
20
-74.75
11
110.25
21
-74.75
0
ARC
8
0
10
110.25
20
-76.25
40
1.5
50
90
51
180
0
LINE
8
0
10
108.75
20
-76.25
11
108.75
21
-89.75
0
ARC
8
0
10
110.25
20
-89.75
40
1.5
50
180
51
270
0
LINE
8
0
10
110.25
20
-74.25
11
123.75
21
-74.25
0
ARC
8
0
10
123.75
20
-72.75
40
1.5
50
270
51
360
0
LINE
8
0
10
125.25
20
-72.75
11
125.25
21
-59.25
0
ARC
8
0
10
123.75
20
-59.25
40
1.5
50
0
51
90
0
LINE
8
0
10
123.75
20
-57.75
11
110.25
21
-57.75
0
ARC
8
0
10
110.25
20
-59.25
40
1.5
50
90
51
180
0
LINE
8
0
10
108.75
20
-59.25
11
108.75
21
-72.75
0
ARC
8
0
10
110.25
20
-72.75
40
1.5
50
180
51
270
0
LINE
8
0
10
174.3043777
20
-110.765771
11
187.7530061
21
-111.9423735
0
ARC
8
0
10
187.8837397
20
-110.4480815
40
1.5
50
265
51
355
0
LINE
8
0
10
189.3780318
20
-110.5788151
11
190.5546343
21
-97.1301867
0
ARC
8
0
10
189.0603423
20
-96.9994531
40
1.5
50
355
51
85
0
LINE
8
0
10
189.1910759
20
-95.505161
11
175.7424475
21
-94.3285585
0
ARC
8
0
10
175.6117139
20
-95.8228505
40
1.5
50
85
51
175
0
LINE
8
0
10
174.1174218
20
-95.6921169
11
172.9408193
21
-109.1407453
0
ARC
8
0
10
174.4351113
20
-109.2714789
40
1.5
50
175
51
265
0
LINE
8
0
10
175.7860253
20
-93.8304611
11
189.2346537
21
-95.0070636
0
ARC
8
0
10
189.3653873
20
-93.5127716
40
1.5
50
265
51
355
0
LINE
8
0
10
190.8596794
20
-93.6435052
11
192.0362819
21
-80.1948768
0
ARC
8
0
10
190.5419899
20
-80.0641432
40
1.5
50
355
51
85
0
LINE
8
0
10
190.6727235
20
-78.5698511
11
177.2240951
21
-77.3932486
0
ARC
8
0
10
177.0933615
20
-78.8875406
40
1.5
50
85
51
175
0
LINE
8
0
10
175.5990694
20
-78.756807
11
174.4224669
21
-92.2054354
0
ARC
8
0
10
175.9167589
20
-92.336169
40
1.5
50
175
51
265
0
LINE
8
0
10
177.2676729
20
-76.8951512
11
190.7163013
21
-78.0717537
0
ARC
8
0
10
190.8470349
20
-76.5774617
40
1.5
50
265
51
355
0
LINE
8
0
10
192.341327
20
-76.7081953
11
193.5179295
21
-63.2595669
0
ARC
8
0
10
192.0236375
20
-63.1288333
40
1.5
50
355
51
85
0
LINE
8
0
10
192.1543711
20
-61.6345412
11
178.7057427
21
-60.4579387
0
ARC
8
0
10
178.5750091
20
-61.9522307
40
1.5
50
85
51
175
0
LINE
8
0
10
177.080717
20
-61.8214971
11
175.9041145
21
-75.2701255
0
ARC
8
0
10
177.3984065
20
-75.4008591
40
1.5
50
175
51
265
0
LINE
8
0
10
121.1315833
20
-109.3608579
11
107.6644687
21
-108.4191455
0
ARC
8
0
10
107.559834
20
-109.9154916
40
1.5
50
86
51
176
0
LINE
8
0
10
106.0634879
20
-109.8108569
11
105.1217755
21
-123.2779715
0
ARC
8
0
10
106.6181216
20
-123.3826062
40
1.5
50
176
51
266
0
LINE
8
0
10
106.5134869
20
-124.8789523
11
119.9806015
21
-125.8206647
0
ARC
8
0
10
120.0852362
20
-124.3243186
40
1.5
50
266
51
356
0
LINE
8
0
10
121.5815823
20
-124.4289533
11
122.5232947
21
-110.9618387
0
ARC
8
0
10
121.0269486
20
-110.857204
40
1.5
50
356
51
86
0
LINE
8
0
10
94
20
-107
11
106
21
-107
0
ARC
8
0
10
106
20
-106
40
1
50
270
51
360
0
LINE
8
0
10
107
20
-106
11
107
21
-94
0
ARC
8
0
10
106
20
-94
40
1
50
0
51
90
0
LINE
8
0
10
106
20
-93
11
94
21
-93
0
ARC
8
0
10
94
20
-94
40
1
50
90
51
180
0
LINE
8
0
10
93
20
-94
11
93
21
-106
0
ARC
8
0
10
94
20
-106
40
1
50
180
51
270
0
LINE
8
0
10
94
20
-90
11
106
21
-90
0
ARC
8
0
10
106
20
-89
40
1
50
270
51
360
0
LINE
8
0
10
107
20
-89
11
107
21
-77
0
ARC
8
0
10
106
20
-77
40
1
50
0
51
90
0
LINE
8
0
10
106
20
-76
11
94
21
-76
0
ARC
8
0
10
94
20
-77
40
1
50
90
51
180
0
LINE
8
0
10
93
20
-77
11
93
21
-89
0
ARC
8
0
10
94
20
-89
40
1
50
180
51
270
0
LINE
8
0
10
94
20
-73
11
106
21
-73
0
ARC
8
0
10
106
20
-72
40
1
50
270
51
360
0
LINE
8
0
10
107
20
-72
11
107
21
-60
0
ARC
8
0
10
106
20
-60
40
1
50
0
51
90
0
LINE
8
0
10
106
20
-59
11
94
21
-59
0
ARC
8
0
10
94
20
-60
40
1
50
90
51
180
0
LINE
8
0
10
93
20
-60
11
93
21
-72
0
ARC
8
0
10
94
20
-72
40
1
50
180
51
270
0
LINE
8
0
10
111
20
-107
11
123
21
-107
0
ARC
8
0
10
123
20
-106
40
1
50
270
51
360
0
LINE
8
0
10
124
20
-106
11
124
21
-94
0
ARC
8
0
10
123
20
-94
40
1
50
0
51
90
0
LINE
8
0
10
123
20
-93
11
111
21
-93
0
ARC
8
0
10
111
20
-94
40
1
50
90
51
180
0
LINE
8
0
10
110
20
-94
11
110
21
-106
0
ARC
8
0
10
111
20
-106
40
1
50
180
51
270
0
LINE
8
0
10
111
20
-90
11
123
21
-90
0
ARC
8
0
10
123
20
-89
40
1
50
270
51
360
0
LINE
8
0
10
124
20
-89
11
124
21
-77
0
ARC
8
0
10
123
20
-77
40
1
50
0
51
90
0
LINE
8
0
10
123
20
-76
11
111
21
-76
0
ARC
8
0
10
111
20
-77
40
1
50
90
51
180
0
LINE
8
0
10
110
20
-77
11
110
21
-89
0
ARC
8
0
10
111
20
-89
40
1
50
180
51
270
0
LINE
8
0
10
111
20
-73
11
123
21
-73
0
ARC
8
0
10
123
20
-72
40
1
50
270
51
360
0
LINE
8
0
10
124
20
-72
11
124
21
-60
0
ARC
8
0
10
123
20
-60
40
1
50
0
51
90
0
LINE
8
0
10
123
20
-59
11
111
21
-59
0
ARC
8
0
10
111
20
-60
40
1
50
90
51
180
0
LINE
8
0
10
110
20
-60
11
110
21
-72
0
ARC
8
0
10
111
20
-72
40
1
50
180
51
270
0
LINE
8
0
10
175.1604684
20
-109.5858944
11
187.1148048
21
-110.6317633
0
ARC
8
0
10
187.2019605
20
-109.6355686
40
1
50
265
51
355
0
LINE
8
0
10
188.1981552
20
-109.7227244
11
189.2440241
21
-97.768388
0
ARC
8
0
10
188.2478294
20
-97.6812323
40
1
50
355
51
85
0
LINE
8
0
10
188.3349852
20
-96.6850376
11
176.3806488
21
-95.6391687
0
ARC
8
0
10
176.2934931
20
-96.6353634
40
1
50
85
51
175
0
LINE
8
0
10
175.2972984
20
-96.5482076
11
174.2514295
21
-108.502544
0
ARC
8
0
10
175.2476242
20
-108.5896997
40
1
50
175
51
265
0
LINE
8
0
10
176.642116
20
-92.6505845
11
188.5964524
21
-93.6964534
0
ARC
8
0
10
188.6836081
20
-92.7002587
40
1
50
265
51
355
0
LINE
8
0
10
189.6798028
20
-92.7874145
11
190.7256717
21
-80.8330781
0
ARC
8
0
10
189.729477
20
-80.7459224
40
1
50
355
51
85
0
LINE
8
0
10
189.8166328
20
-79.7497277
11
177.8622964
21
-78.7038588
0
ARC
8
0
10
177.7751407
20
-79.7000535
40
1
50
85
51
175
0
LINE
8
0
10
176.778946
20
-79.6128977
11
175.7330771
21
-91.5672341
0
ARC
8
0
10
176.7292718
20
-91.6543898
40
1
50
175
51
265
0
LINE
8
0
10
178.1237636
20
-75.7152746
11
190.0781
21
-76.7611435
0
ARC
8
0
10
190.1652557
20
-75.7649488
40
1
50
265
51
355
0
LINE
8
0
10
191.1614504
20
-75.8521046
11
192.2073193
21
-63.8977682
0
ARC
8
0
10
191.2111246
20
-63.8106125
40
1
50
355
51
85
0
LINE
8
0
10
191.2982804
20
-62.8144178
11
179.343944
21
-61.7685489
0
ARC
8
0
10
179.2567883
20
-62.7647436
40
1
50
85
51
175
0
LINE
8
0
10
178.2605936
20
-62.6775878
11
177.2147247
21
-74.6319242
0
ARC
8
0
10
178.2109194
20
-74.7190799
40
1
50
175
51
265
0
LINE
8
0
10
120.2962147
20
-110.5554956
11
108.3254461
21
-109.7184179
0
ARC
8
0
10
108.2556896
20
-110.715982
40
1
50
86
51
176
0
LINE
8
0
10
107.2581256
20
-110.6462255
11
106.4210479
21
-122.6169941
0
ARC
8
0
10
107.418612
20
-122.6867506
40
1
50
176
51
266
0
LINE
8
0
10
107.3488555
20
-123.6843146
11
119.3196241
21
-124.5213923
0
ARC
8
0
10
119.3893806
20
-123.5238282
40
1
50
266
51
356
0
LINE
8
0
10
120.3869446
20
-123.5935847
11
121.2240223
21
-111.6228161
0
ARC
8
0
10
120.2264582
20
-111.5530596
40
1
50
356
51
86
0
LINE
8
0
10
129.25
20
-100.825
11
147.5
21
-100.825
0
ARC
8
0
10
147.5
20
-99.325
40
1.5
50
270
51
360
0
LINE
8
0
10
149
20
-99.325
11
149
21
-85.825
0
ARC
8
0
10
147.5
20
-85.825
40
1.5
50
0
51
90
0
LINE
8
0
10
147.5
20
-84.325
11
129.25
21
-84.325
0
ARC
8
0
10
129.25
20
-85.825
40
1.5
50
90
51
180
0
LINE
8
0
10
127.75
20
-85.825
11
127.75
21
-99.325
0
ARC
8
0
10
129.25
20
-99.325
40
1.5
50
180
51
270
0
LINE
8
0
10
129.25
20
-83.825
11
147.5
21
-83.825
0
ARC
8
0
10
147.5
20
-82.325
40
1.5
50
270
51
360
0
LINE
8
0
10
149
20
-82.325
11
149
21
-68.825
0
ARC
8
0
10
147.5
20
-68.825
40
1.5
50
0
51
90
0
LINE
8
0
10
147.5
20
-67.325
11
129.25
21
-67.325
0
ARC
8
0
10
129.25
20
-68.825
40
1.5
50
90
51
180
0
LINE
8
0
10
127.75
20
-68.825
11
127.75
21
-82.325
0
ARC
8
0
10
129.25
20
-82.325
40
1.5
50
180
51
270
0
LINE
8
0
10
129.25
20
-66.825
11
147.5
21
-66.825
0
ARC
8
0
10
147.5
20
-65.325
40
1.5
50
270
51
360
0
LINE
8
0
10
149
20
-65.325
11
149
21
-51.825
0
ARC
8
0
10
147.5
20
-51.825
40
1.5
50
0
51
90
0
LINE
8
0
10
147.5
20
-50.325
11
129.25
21
-50.325
0
ARC
8
0
10
129.25
20
-51.825
40
1.5
50
90
51
180
0
LINE
8
0
10
127.75
20
-51.825
11
127.75
21
-65.325
0
ARC
8
0
10
129.25
20
-65.325
40
1.5
50
180
51
270
0
LINE
8
0
10
151.7614997
20
-102.4479758
11
169.9941298
21
-103.2440296
0
ARC
8
0
10
170.0595589
20
-101.7454573
40
1.5
50
267.5
51
357.5
0
LINE
8
0
10
171.5581312
20
-101.8108864
11
172.1469929
21
-88.3237354
0
ARC
8
0
10
170.6484206
20
-88.2583063
40
1.5
50
357.5
51
87.5
0
LINE
8
0
10
170.7138497
20
-86.759734
11
152.4812196
21
-85.9636802
0
ARC
8
0
10
152.4157905
20
-87.4622525
40
1.5
50
87.5
51
177.5
0
LINE
8
0
10
150.9172182
20
-87.3968234
11
150.3283565
21
-100.8839744
0
ARC
8
0
10
151.8269288
20
-100.9494035
40
1.5
50
177.5
51
267.5
0
LINE
8
0
10
152.5030293
20
-85.464156
11
170.7356594
21
-86.2602098
0
ARC
8
0
10
170.8010885
20
-84.7616375
40
1.5
50
267.5
51
357.5
0
LINE
8
0
10
172.2996608
20
-84.8270666
11
172.8885225
21
-71.3399156
0
ARC
8
0
10
171.3899502
20
-71.2744865
40
1.5
50
357.5
51
87.5
0
LINE
8
0
10
171.4553793
20
-69.7759142
11
153.2227492
21
-68.9798604
0
ARC
8
0
10
153.1573201
20
-70.4784327
40
1.5
50
87.5
51
177.5
0
LINE
8
0
10
151.6587478
20
-70.4130036
11
151.0698861
21
-83.9001546
0
ARC
8
0
10
152.5684584
20
-83.9655837
40
1.5
50
177.5
51
267.5
0
LINE
8
0
10
153.2445589
20
-68.4803362
11
171.477189
21
-69.27639
0
ARC
8
0
10
171.5426181
20
-67.7778177
40
1.5
50
267.5
51
357.5
0
LINE
8
0
10
173.0411904
20
-67.8432468
11
173.6300521
21
-54.3560958
0
ARC
8
0
10
172.1314798
20
-54.2906667
40
1.5
50
357.5
51
87.5
0
LINE
8
0
10
172.1969089
20
-52.7920944
11
153.9642788
21
-51.9960406
0
ARC
8
0
10
153.8988497
20
-53.4946129
40
1.5
50
87.5
51
177.5
0
LINE
8
0
10
152.4002774
20
-53.4291838
11
151.8114157
21
-66.9163348
0
ARC
8
0
10
153.309988
20
-66.9817639
40
1.5
50
177.5
51
267.5
0
LINE
8
0
10
191.782661
20
-88.8306339
11
190.1920687
21
-107.0111871
0
ARC
8
0
10
191.6863607
20
-107.1419208
40
1.5
50
175
51
265
0
LINE
8
0
10
191.5556271
20
-108.6362128
11
205.0042555
21
-109.8128153
0
ARC
8
0
10
205.1349892
20
-108.3185233
40
1.5
50
265
51
355
0
LINE
8
0
10
206.6292812
20
-108.4492569
11
208.2198735
21
-90.2687037
0
ARC
8
0
10
206.7255815
20
-90.13797
40
1.5
50
355
51
85
0
LINE
8
0
10
206.8563151
20
-88.643678
11
193.4076867
21
-87.4670755
0
ARC
8
0
10
193.276953
20
-88.9613675
40
1.5
50
85
51
175
0
LINE
8
0
10
193.6782984
20
-67.1633992
11
192.0877061
21
-85.3439524
0
ARC
8
0
10
193.5819981
20
-85.4746861
40
1.5
50
175
51
265
0
LINE
8
0
10
193.4512645
20
-86.9689781
11
206.8998929
21
-88.1455806
0
ARC
8
0
10
207.0306266
20
-86.6512886
40
1.5
50
265
51
355
0
LINE
8
0
10
208.5249186
20
-86.7820222
11
210.1155109
21
-68.601469
0
ARC
8
0
10
208.6212189
20
-68.4707353
40
1.5
50
355
51
85
0
LINE
8
0
10
208.7519525
20
-66.9764433
11
195.3033241
21
-65.7998408
0
ARC
8
0
10
195.1725904
20
-67.2941328
40
1.5
50
85
51
175
0
LINE
8
0
10
90.4705999
20
-136.6975048
11
85.4402181
21
-119.1544788
0
ARC
8
0
10
83.9983256
20
-119.5679349
40
1.5
50
16
51
106
0
LINE
8
0
10
83.5848695
20
-118.1260423
11
70.6078366
21
-121.8471466
0
ARC
8
0
10
71.0212927
20
-123.2890392
40
1.5
50
106
51
196
0
LINE
8
0
10
69.5794001
20
-123.7024952
11
74.6097819
21
-141.2455212
0
ARC
8
0
10
76.0516744
20
-140.8320651
40
1.5
50
196
51
286
0
LINE
8
0
10
76.4651305
20
-142.2739577
11
89.4421634
21
-138.5528534
0
ARC
8
0
10
89.0287073
20
-137.1109608
40
1.5
50
286
51
16
0
LINE
8
0
10
105.8853915
20
-130.2349155
11
103.0304625
21
-112.2096033
0
ARC
8
0
10
101.54893
20
-112.444255
40
1.5
50
9
51
99
0
LINE
8
0
10
101.3142783
20
-110.9627224
11
87.9804857
21
-113.0745877
0
ARC
8
0
10
88.2151374
20
-114.5561202
40
1.5
50
99
51
189
0
LINE
8
0
10
86.7336049
20
-114.7907719
11
89.5885339
21
-132.8160841
0
ARC
8
0
10
91.0700664
20
-132.5814324
40
1.5
50
189
51
279
0
LINE
8
0
10
91.3047181
20
-134.062965
11
104.6385107
21
-131.9510997
0
ARC
8
0
10
104.403859
20
-130.4695672
40
1.5
50
279
51
9
0
LINE
8
0
10
130
20
-99.575
11
146.75
21
-99.575
0
ARC
8
0
10
146.75
20
-98.575
40
1
50
270
51
360
0
LINE
8
0
10
147.75
20
-98.575
11
147.75
21
-86.575
0
ARC
8
0
10
146.75
20
-86.575
40
1
50
0
51
90
0
LINE
8
0
10
146.75
20
-85.575
11
130
21
-85.575
0
ARC
8
0
10
130
20
-86.575
40
1
50
90
51
180
0
LINE
8
0
10
129
20
-86.575
11
129
21
-98.575
0
ARC
8
0
10
130
20
-98.575
40
1
50
180
51
270
0
LINE
8
0
10
130
20
-82.575
11
146.75
21
-82.575
0
ARC
8
0
10
146.75
20
-81.575
40
1
50
270
51
360
0
LINE
8
0
10
147.75
20
-81.575
11
147.75
21
-69.575
0
ARC
8
0
10
146.75
20
-69.575
40
1
50
0
51
90
0
LINE
8
0
10
146.75
20
-68.575
11
130
21
-68.575
0
ARC
8
0
10
130
20
-69.575
40
1
50
90
51
180
0
LINE
8
0
10
129
20
-69.575
11
129
21
-81.575
0
ARC
8
0
10
130
20
-81.575
40
1
50
180
51
270
0
LINE
8
0
10
130
20
-65.575
11
146.75
21
-65.575
0
ARC
8
0
10
146.75
20
-64.575
40
1
50
270
51
360
0
LINE
8
0
10
147.75
20
-64.575
11
147.75
21
-52.575
0
ARC
8
0
10
146.75
20
-52.575
40
1
50
0
51
90
0
LINE
8
0
10
146.75
20
-51.575
11
130
21
-51.575
0
ARC
8
0
10
130
20
-52.575
40
1
50
90
51
180
0
LINE
8
0
10
129
20
-52.575
11
129
21
-64.575
0
ARC
8
0
10
130
20
-64.575
40
1
50
180
51
270
0
LINE
8
0
10
152.5653101
20
-101.2318801
11
169.2993678
21
-101.9625048
0
ARC
8
0
10
169.3429872
20
-100.9634566
40
1
50
267.5
51
357.5
0
LINE
8
0
10
170.3420355
20
-101.007076
11
170.8654681
21
-89.0184973
0
ARC
8
0
10
169.8664199
20
-88.9748779
40
1
50
357.5
51
87.5
0
LINE
8
0
10
169.9100393
20
-87.9758297
11
153.1759816
21
-87.245205
0
ARC
8
0
10
153.1323622
20
-88.2442532
40
1
50
87.5
51
177.5
0
LINE
8
0
10
152.1333139
20
-88.2006338
11
151.6098813
21
-100.1892125
0
ARC
8
0
10
152.6089295
20
-100.2328319
40
1
50
177.5
51
267.5
0
LINE
8
0
10
153.3068397
20
-84.2480603
11
170.0408974
21
-84.978685
0
ARC
8
0
10
170.0845168
20
-83.9796368
40
1
50
267.5
51
357.5
0
LINE
8
0
10
171.0835651
20
-84.0232562
11
171.6069977
21
-72.0346775
0
ARC
8
0
10
170.6079495
20
-71.9910581
40
1
50
357.5
51
87.5
0
LINE
8
0
10
170.6515689
20
-70.9920099
11
153.9175112
21
-70.2613852
0
ARC
8
0
10
153.8738918
20
-71.2604334
40
1
50
87.5
51
177.5
0
LINE
8
0
10
152.8748435
20
-71.216814
11
152.3514109
21
-83.2053927
0
ARC
8
0
10
153.3504591
20
-83.2490121
40
1
50
177.5
51
267.5
0
LINE
8
0
10
154.0483693
20
-67.2642405
11
170.782427
21
-67.9948652
0
ARC
8
0
10
170.8260464
20
-66.995817
40
1
50
267.5
51
357.5
0
LINE
8
0
10
171.8250947
20
-67.0394364
11
172.3485273
21
-55.0508577
0
ARC
8
0
10
171.3494791
20
-55.0072383
40
1
50
357.5
51
87.5
0
LINE
8
0
10
171.3930985
20
-54.0081901
11
154.6590408
21
-53.2775654
0
ARC
8
0
10
154.6154214
20
-54.2766136
40
1
50
87.5
51
177.5
0
LINE
8
0
10
153.6163731
20
-54.2329942
11
153.0929405
21
-66.2215729
0
ARC
8
0
10
154.0919887
20
-66.2651923
40
1
50
177.5
51
267.5
0
LINE
8
0
10
192.9625376
20
-89.6867246
11
191.5026789
21
-106.3729858
0
ARC
8
0
10
192.4988736
20
-106.4601415
40
1
50
175
51
265
0
LINE
8
0
10
192.4117178
20
-107.4563362
11
204.3660542
21
-108.5022052
0
ARC
8
0
10
204.4532099
20
-107.5060105
40
1
50
265
51
355
0
LINE
8
0
10
205.4494046
20
-107.5931662
11
206.9092633
21
-90.906905
0
ARC
8
0
10
205.9130686
20
-90.8197493
40
1
50
355
51
85
0
LINE
8
0
10
206.0002244
20
-89.8235546
11
194.045888
21
-88.7776856
0
ARC
8
0
10
193.9587323
20
-89.7738803
40
1
50
85
51
175
0
LINE
8
0
10
194.858175
20
-68.0194899
11
193.3983163
21
-84.7057511
0
ARC
8
0
10
194.394511
20
-84.7929068
40
1
50
175
51
265
0
LINE
8
0
10
194.3073552
20
-85.7891015
11
206.2616916
21
-86.8349705
0
ARC
8
0
10
206.3488473
20
-85.8387758
40
1
50
265
51
355
0
LINE
8
0
10
207.345042
20
-85.9259315
11
208.8049007
21
-69.2396703
0
ARC
8
0
10
207.808706
20
-69.1525146
40
1
50
355
51
85
0
LINE
8
0
10
207.8958618
20
-68.1563199
11
195.9415254
21
-67.1104509
0
ARC
8
0
10
195.8543697
20
-68.1066456
40
1
50
85
51
175
0
LINE
8
0
10
89.0622947
20
-136.3211052
11
84.445369
21
-120.2199718
0
ARC
8
0
10
83.4841073
20
-120.4956092
40
1
50
16
51
106
0
LINE
8
0
10
83.20847
20
-119.5343475
11
71.6733296
21
-122.8419957
0
ARC
8
0
10
71.948967
20
-123.8032574
40
1
50
106
51
196
0
LINE
8
0
10
70.9877053
20
-124.0788948
11
75.604631
21
-140.1800282
0
ARC
8
0
10
76.5658927
20
-139.9043908
40
1
50
196
51
286
0
LINE
8
0
10
76.84153
20
-140.8656525
11
88.3766704
21
-137.5580043
0
ARC
8
0
10
88.101033
20
-136.5967426
40
1
50
286
51
16
0
LINE
8
0
10
104.5334552
20
-129.6896923
11
101.9131779
21
-113.1459126
0
ARC
8
0
10
100.9254896
20
-113.3023471
40
1
50
9
51
99
0
LINE
8
0
10
100.7690551
20
-112.3146587
11
88.916795
21
-114.1918723
0
ARC
8
0
10
89.0732295
20
-115.1795606
40
1
50
99
51
189
0
LINE
8
0
10
88.0855412
20
-115.3359951
11
90.7058185
21
-131.8797748
0
ARC
8
0
10
91.6935068
20
-131.7233403
40
1
50
189
51
279
0
LINE
8
0
10
91.8499413
20
-132.7110287
11
103.7022014
21
-130.8338151
0
ARC
8
0
10
103.5457669
20
-129.8461268
40
1
50
279
51
9
0
LINE
8
0
10
73.55
20
-95.5
11
88.05
21
-95.5
0
LINE
8
0
10
89.8
20
-93.75
11
89.8
21
-64.25
0
LINE
8
0
10
88.05
20
-62.5
11
73.55
21
-62.5
0
LINE
8
0
10
71.8
20
-64.25
11
71.8
21
-93.75
0
ARC
8
0
10
88.05
20
-93.75
40
1.75
50
270
51
0
0
ARC
8
0
10
88.05
20
-64.25
40
1.75
50
0
51
90
0
ARC
8
0
10
73.55
20
-64.25
40
1.75
50
90
51
180
0
ARC
8
0
10
73.55
20
-93.75
40
1.75
50
180
51
270
0
LINE
8
0
10
87.675
20
-101
11
79.925
21
-101
0
LINE
8
0
10
79.925
20
-101
11
79.925
21
-107
0
LINE
8
0
10
79.925
20
-107
11
87.675
21
-107
0
LINE
8
0
10
87.675
20
-107
11
87.675
21
-101
0
LINE
8
0
10
73.4
20
-65.255
11
82.2
21
-65.255
0
LINE
8
0
10
82.2
20
-65.255
11
82.2
21
-60.705
0
LINE
8
0
10
82.2
20
-60.705
11
73.4
21
-60.705
0
LINE
8
0
10
73.4
20
-60.705
11
73.4
21
-65.255
0
LINE
8
0
10
83.875
20
-64.35
11
89.825
21
-64.35
0
LINE
8
0
10
89.825
20
-64.35
11
89.825
21
-60.85
0
LINE
8
0
10
89.825
20
-60.85
11
83.875
21
-60.85
0
LINE
8
0
10
83.875
20
-60.85
11
83.875
21
-64.35
0
CIRCLE
8
0
10
108.5
20
-58
40
1.1
0
CIRCLE
8
0
10
107
20
-127.5
40
1.1
0
CIRCLE
8
0
10
150.375
20
-56.075
40
1.1
0
CIRCLE
8
0
10
150.375
20
-107.925
40
1.1
0
CIRCLE
8
0
10
205.116
20
-68.15
40
1.1
0
CIRCLE
8
0
10
73.8
20
-104
40
1.1
0
CIRCLE
8
0
10
201.629
20
-107.925
40
1.1
0
CIRCLE
8
0
10
86
20
-119.675
40
2.2
0
CIRCLE
8
0
10
129.625
20
-84.075
40
2.2
0
CIRCLE
8
0
10
192.5744222
20
-86.5158319
40
2.2
0
CIRCLE
8
0
10
86
20
-119.675
40
2.05
0
CIRCLE
8
0
10
129.625
20
-84.075
40
2.05
0
CIRCLE
8
0
10
192.5744222
20
-86.5158319
40
2.05
0
CIRCLE
8
0
10
108.5
20
-58
40
2.05
0
CIRCLE
8
0
10
107
20
-127.5
40
2.05
0
CIRCLE
8
0
10
150.375
20
-56.075
40
2.05
0
CIRCLE
8
0
10
150.375
20
-107.925
40
2.05
0
CIRCLE
8
0
10
205.116
20
-68.15
40
2.05
0
CIRCLE
8
0
10
73.8
20
-104
40
2.05
0
CIRCLE
8
0
10
201.629
20
-107.925
40
2.05
0
ENDSEC
0
EOF