<?xml version="1.0"?>
<svg
  xmlns="http://www.w3.org/2000/svg"
  xmlns:xlink="http://www.w3.org/1999/xlink" version="1.1"
  preserveAspectRatio="xMinYMin meet"
  viewBox="69.5212927 50.325 140.5999262 92.00706509999999"
  width="100%" height="100%"
>
  <g stroke="#000000" stroke-width="0.1%" fill="none" transform="matrix(1,0,0,-1,0,0)">
    <g stroke="rgb(0, 0, 0)"><path d="M95,-102L98.4,-102" /></g>
<g stroke="rgb(0, 0, 0)"><path d="M101.6,-102L105,-102" /></g>
<g stroke="rgb(0, 0, 0)"><path d="M105,-102L105,-98" /></g>
<g stroke="rgb(0, 0, 0)"><path d="M105,-98L95,-98" /></g>
<g stroke="rgb(0, 0, 0)"><path d="M95,-98L95,-102" /></g>
<g stroke="rgb(0, 0, 0)"><path d="M95,-85L98.4,-85" /></g>
<g stroke="rgb(0, 0, 0)"><path d="M101.6,-85L105,-85" /></g>
<g stroke="rgb(0, 0, 0)"><path d="M105,-85L105,-81" /></g>
<g stroke="rgb(0, 0, 0)"><path d="M105,-81L95,-81" /></g>
<g stroke="rgb(0, 0, 0)"><path d="M95,-81L95,-85" /></g>
<g stroke="rgb(0, 0, 0)"><path d="M95,-68L98.4,-68" /></g>
<g stroke="rgb(0, 0, 0)"><path d="M101.6,-68L105,-68" /></g>
<g stroke="rgb(0, 0, 0)"><path d="M105,-68L105,-64" /></g>
<g stroke="rgb(0, 0, 0)"><path d="M105,-64L95,-64" /></g>
<g stroke="rgb(0, 0, 0)"><path d="M95,-64L95,-68" /></g>
<g stroke="rgb(0, 0, 0)"><path d="M112,-102L115.4,-102" /></g>
<g stroke="rgb(0, 0, 0)"><path d="M118.6,-102L122,-102" /></g>
<g stroke="rgb(0, 0, 0)"><path d="M122,-102L122,-98" /></g>
<g stroke="rgb(0, 0, 0)"><path d="M122,-98L112,-98" /></g>
<g stroke="rgb(0, 0, 0)"><path d="M112,-98L112,-102" /></g>
<g stroke="rgb(0, 0, 0)"><path d="M112,-85L115.4,-85" /></g>
<g stroke="rgb(0, 0, 0)"><path d="M118.6,-85L122,-85" /></g>
<g stroke="rgb(0, 0, 0)"><path d="M122,-85L122,-81" /></g>
<g stroke="rgb(0, 0, 0)"><path d="M122,-81L112,-81" /></g>
<g stroke="rgb(0, 0, 0)"><path d="M112,-81L112,-85" /></g>
<g stroke="rgb(0, 0, 0)"><path d="M112,-68L115.4,-68" /></g>
<g stroke="rgb(0, 0, 0)"><path d="M118.6,-68L122,-68" /></g>
<g stroke="rgb(0, 0, 0)"><path d="M122,-68L122,-64" /></g>
<g stroke="rgb(0, 0, 0)"><path d="M122,-64L112,-64" /></g>
<g stroke="rgb(0, 0, 0)"><path d="M112,-64L112,-68" /></g>
<g stroke="rgb(0, 0, 0)"><path d="M133.375,-94.575L136.775,-94.575" /></g>
<g stroke="rgb(0, 0, 0)"><path d="M139.975,-94.575L143.375,-94.575" /></g>
<g stroke="rgb(0, 0, 0)"><path d="M143.375,-94.575L143.375,-90.575" /></g>
<g stroke="rgb(0, 0, 0)"><path d="M143.375,-90.575L133.375,-90.575" /></g>
<g stroke="rgb(0, 0, 0)"><path d="M133.375,-90.575L133.375,-94.575" /></g>
<g stroke="rgb(0, 0, 0)"><path d="M133.375,-77.575L136.775,-77.575" /></g>
<g stroke="rgb(0, 0, 0)"><path d="M139.975,-77.575L143.375,-77.575" /></g>
<g stroke="rgb(0, 0, 0)"><path d="M143.375,-77.575L143.375,-73.575" /></g>
<g stroke="rgb(0, 0, 0)"><path d="M143.375,-73.575L133.375,-73.575" /></g>
<g stroke="rgb(0, 0, 0)"><path d="M133.375,-73.575L133.375,-77.575" /></g>
<g stroke="rgb(0, 0, 0)"><path d="M133.375,-60.575L136.775,-60.575" /></g>
<g stroke="rgb(0, 0, 0)"><path d="M139.975,-60.575L143.375,-60.575" /></g>
<g stroke="rgb(0, 0, 0)"><path d="M143.375,-60.575L143.375,-56.575" /></g>
<g stroke="rgb(0, 0, 0)"><path d="M143.375,-56.575L133.375,-56.575" /></g>
<g stroke="rgb(0, 0, 0)"><path d="M133.375,-56.575L133.375,-60.575" /></g>
<g stroke="rgb(0, 0, 0)"><path d="M156.1551948,-96.3838544L159.5519588,-96.5321603" /></g>
<g stroke="rgb(0, 0, 0)"><path d="M162.7489131,-96.6717424L166.145677,-96.8200483" /></g>
<g stroke="rgb(0, 0, 0)"><path d="M166.145677,-96.8200483L166.3201546,-92.8238554" /></g>
<g stroke="rgb(0, 0, 0)"><path d="M166.3201546,-92.8238554L156.3296724,-92.3876615" /></g>
<g stroke="rgb(0, 0, 0)"><path d="M156.3296724,-92.3876615L156.1551948,-96.3838544" /></g>
<g stroke="rgb(0, 0, 0)"><path d="M156.8967244,-79.4000346L160.2934884,-79.5483405" /></g>
<g stroke="rgb(0, 0, 0)"><path d="M163.4904427,-79.6879226L166.8872066,-79.8362285" /></g>
<g stroke="rgb(0, 0, 0)"><path d="M166.8872066,-79.8362285L167.0616842,-75.8400356" /></g>
<g stroke="rgb(0, 0, 0)"><path d="M167.0616842,-75.8400356L157.071202,-75.4038417" /></g>
<g stroke="rgb(0, 0, 0)"><path d="M157.071202,-75.4038417L156.8967244,-79.4000346" /></g>
<g stroke="rgb(0, 0, 0)"><path d="M157.638254,-62.4162148L161.035018,-62.5645207" /></g>
<g stroke="rgb(0, 0, 0)"><path d="M164.2319723,-62.7041028L167.6287362,-62.8524087" /></g>
<g stroke="rgb(0, 0, 0)"><path d="M167.6287362,-62.8524087L167.8032138,-58.8562158" /></g>
<g stroke="rgb(0, 0, 0)"><path d="M167.8032138,-58.8562158L157.8127316,-58.4200219" /></g>
<g stroke="rgb(0, 0, 0)"><path d="M157.8127316,-58.4200219L157.638254,-62.4162148" /></g>
<g stroke="rgb(0, 0, 0)"><path d="M176.5924418,-104.6920767L179.9795038,-104.9884062" /></g>
<g stroke="rgb(0, 0, 0)"><path d="M183.1673268,-105.2673046L186.5543888,-105.5636341" /></g>
<g stroke="rgb(0, 0, 0)"><path d="M186.5543888,-105.5636341L186.9030118,-101.5788553" /></g>
<g stroke="rgb(0, 0, 0)"><path d="M186.9030118,-101.5788553L176.9410648,-100.7072979" /></g>
<g stroke="rgb(0, 0, 0)"><path d="M176.9410648,-100.7072979L176.5924418,-104.6920767" /></g>
<g stroke="rgb(0, 0, 0)"><path d="M178.0740894,-87.7567668L181.4611514,-88.0530963" /></g>
<g stroke="rgb(0, 0, 0)"><path d="M184.6489744,-88.3319947L188.0360364,-88.6283242" /></g>
<g stroke="rgb(0, 0, 0)"><path d="M188.0360364,-88.6283242L188.3846594,-84.6435454" /></g>
<g stroke="rgb(0, 0, 0)"><path d="M188.3846594,-84.6435454L178.4227124,-83.771988" /></g>
<g stroke="rgb(0, 0, 0)"><path d="M178.4227124,-83.771988L178.0740894,-87.7567668" /></g>
<g stroke="rgb(0, 0, 0)"><path d="M179.555737,-70.8214569L182.942799,-71.1177864" /></g>
<g stroke="rgb(0, 0, 0)"><path d="M186.130622,-71.3966848L189.517684,-71.6930143" /></g>
<g stroke="rgb(0, 0, 0)"><path d="M189.517684,-71.6930143L189.866307,-67.7082355" /></g>
<g stroke="rgb(0, 0, 0)"><path d="M189.866307,-67.7082355L179.90436,-66.8366781" /></g>
<g stroke="rgb(0, 0, 0)"><path d="M179.90436,-66.8366781L179.555737,-70.8214569" /></g>
<g stroke="rgb(0, 0, 0)"><path d="M197.6493604,-93.4846604L197.3530309,-96.8717224" /></g>
<g stroke="rgb(0, 0, 0)"><path d="M197.0741325,-100.0595454L196.777803,-103.4466074" /></g>
<g stroke="rgb(0, 0, 0)"><path d="M196.777803,-103.4466074L200.7625818,-103.7952304" /></g>
<g stroke="rgb(0, 0, 0)"><path d="M200.7625818,-103.7952304L201.6341392,-93.8332834" /></g>
<g stroke="rgb(0, 0, 0)"><path d="M201.6341392,-93.8332834L197.6493604,-93.4846604" /></g>
<g stroke="rgb(0, 0, 0)"><path d="M199.5449978,-71.8174257L199.2486683,-75.2044877" /></g>
<g stroke="rgb(0, 0, 0)"><path d="M198.9697699,-78.3923107L198.6734404,-81.7793727" /></g>
<g stroke="rgb(0, 0, 0)"><path d="M198.6734404,-81.7793727L202.6582192,-82.1279957" /></g>
<g stroke="rgb(0, 0, 0)"><path d="M202.6582192,-82.1279957L203.5297766,-72.1660487" /></g>
<g stroke="rgb(0, 0, 0)"><path d="M203.5297766,-72.1660487L199.5449978,-71.8174257" /></g>
<g stroke="rgb(0, 0, 0)"><path d="M83.3257102,-134.4550338L82.3885432,-131.186744" /></g>
<g stroke="rgb(0, 0, 0)"><path d="M81.5065036,-128.1107066L80.5693366,-124.8424168" /></g>
<g stroke="rgb(0, 0, 0)"><path d="M80.5693366,-124.8424168L76.7242898,-125.9449662" /></g>
<g stroke="rgb(0, 0, 0)"><path d="M76.7242898,-125.9449662L79.4806634,-135.5575832" /></g>
<g stroke="rgb(0, 0, 0)"><path d="M79.4806634,-135.5575832L83.3257102,-134.4550338" /></g>
<g stroke="rgb(0, 0, 0)"><path d="M99.0670472,-127.1384165L98.53517,-123.7802761" /></g>
<g stroke="rgb(0, 0, 0)"><path d="M98.0345797,-120.6196734L97.5027026,-117.2615331" /></g>
<g stroke="rgb(0, 0, 0)"><path d="M97.5027026,-117.2615331L93.5519492,-117.8872709" /></g>
<g stroke="rgb(0, 0, 0)"><path d="M93.5519492,-117.8872709L95.1162938,-127.7641543" /></g>
<g stroke="rgb(0, 0, 0)"><path d="M95.1162938,-127.7641543L99.0670472,-127.1384165" /></g>
<g stroke="rgb(0, 0, 0)"><path d="M118.9498683,-115.4735594L115.5581505,-115.2363874" /></g>
<g stroke="rgb(0, 0, 0)"><path d="M112.3659456,-115.0131666L108.9742278,-114.7759946" /></g>
<g stroke="rgb(0, 0, 0)"><path d="M108.9742278,-114.7759946L108.6952019,-118.7662508" /></g>
<g stroke="rgb(0, 0, 0)"><path d="M108.6952019,-118.7662508L118.6708424,-119.4638156" /></g>
<g stroke="rgb(0, 0, 0)"><path d="M118.6708424,-119.4638156L118.9498683,-115.4735594" /></g>
<g stroke="rgb(0, 0, 0)"><path d="M98.4,-103.2L101.6,-103.2" /></g>
<g stroke="rgb(0, 0, 0)"><path d="M101.6,-103.2L101.6,-102" /></g>
<g stroke="rgb(0, 0, 0)"><path d="M98.4,-102L98.4,-103.2" /></g>
<g stroke="rgb(0, 0, 0)"><path d="M98.4,-86.2L101.6,-86.2" /></g>
<g stroke="rgb(0, 0, 0)"><path d="M101.6,-86.2L101.6,-85" /></g>
<g stroke="rgb(0, 0, 0)"><path d="M98.4,-85L98.4,-86.2" /></g>
<g stroke="rgb(0, 0, 0)"><path d="M98.4,-69.2L101.6,-69.2" /></g>
<g stroke="rgb(0, 0, 0)"><path d="M101.6,-69.2L101.6,-68" /></g>
<g stroke="rgb(0, 0, 0)"><path d="M98.4,-68L98.4,-69.2" /></g>
<g stroke="rgb(0, 0, 0)"><path d="M115.4,-103.2L118.6,-103.2" /></g>
<g stroke="rgb(0, 0, 0)"><path d="M118.6,-103.2L118.6,-102" /></g>
<g stroke="rgb(0, 0, 0)"><path d="M115.4,-102L115.4,-103.2" /></g>
<g stroke="rgb(0, 0, 0)"><path d="M115.4,-86.2L118.6,-86.2" /></g>
<g stroke="rgb(0, 0, 0)"><path d="M118.6,-86.2L118.6,-85" /></g>
<g stroke="rgb(0, 0, 0)"><path d="M115.4,-85L115.4,-86.2" /></g>
<g stroke="rgb(0, 0, 0)"><path d="M115.4,-69.2L118.6,-69.2" /></g>
<g stroke="rgb(0, 0, 0)"><path d="M118.6,-69.2L118.6,-68" /></g>
<g stroke="rgb(0, 0, 0)"><path d="M115.4,-68L115.4,-69.2" /></g>
<g stroke="rgb(0, 0, 0)"><path d="M136.775,-95.775L139.975,-95.775" /></g>
<g stroke="rgb(0, 0, 0)"><path d="M139.975,-95.775L139.975,-94.575" /></g>
<g stroke="rgb(0, 0, 0)"><path d="M136.775,-94.575L136.775,-95.775" /></g>
<g stroke="rgb(0, 0, 0)"><path d="M136.775,-78.775L139.975,-78.775" /></g>
<g stroke="rgb(0, 0, 0)"><path d="M139.975,-78.775L139.975,-77.575" /></g>
<g stroke="rgb(0, 0, 0)"><path d="M136.775,-77.575L136.775,-78.775" /></g>
<g stroke="rgb(0, 0, 0)"><path d="M136.775,-61.775L139.975,-61.775" /></g>
<g stroke="rgb(0, 0, 0)"><path d="M139.975,-61.775L139.975,-60.575" /></g>
<g stroke="rgb(0, 0, 0)"><path d="M136.775,-60.575L136.775,-61.775" /></g>
<g stroke="rgb(0, 0, 0)"><path d="M159.4996155,-97.7310182L162.6965698,-97.8706003" /></g>
<g stroke="rgb(0, 0, 0)"><path d="M162.6965698,-97.8706003L162.7489131,-96.6717424" /></g>
<g stroke="rgb(0, 0, 0)"><path d="M159.5519588,-96.5321603L159.4996155,-97.7310182" /></g>
<g stroke="rgb(0, 0, 0)"><path d="M160.2411451,-80.7471984L163.4380994,-80.8867805" /></g>
<g stroke="rgb(0, 0, 0)"><path d="M163.4380994,-80.8867805L163.4904427,-79.6879226" /></g>
<g stroke="rgb(0, 0, 0)"><path d="M160.2934884,-79.5483405L160.2411451,-80.7471984" /></g>
<g stroke="rgb(0, 0, 0)"><path d="M160.9826747,-63.7633786L164.179629,-63.9029607" /></g>
<g stroke="rgb(0, 0, 0)"><path d="M164.179629,-63.9029607L164.2319723,-62.7041028" /></g>
<g stroke="rgb(0, 0, 0)"><path d="M161.035018,-62.5645207L160.9826747,-63.7633786" /></g>
<g stroke="rgb(0, 0, 0)"><path d="M179.8749169,-106.1838398L183.0627399,-106.4627382" /></g>
<g stroke="rgb(0, 0, 0)"><path d="M183.0627399,-106.4627382L183.1673268,-105.2673046" /></g>
<g stroke="rgb(0, 0, 0)"><path d="M179.9795038,-104.9884062L179.8749169,-106.1838398" /></g>
<g stroke="rgb(0, 0, 0)"><path d="M181.3565645,-89.2485299L184.5443875,-89.5274283" /></g>
<g stroke="rgb(0, 0, 0)"><path d="M184.5443875,-89.5274283L184.6489744,-88.3319947" /></g>
<g stroke="rgb(0, 0, 0)"><path d="M181.4611514,-88.0530963L181.3565645,-89.2485299" /></g>
<g stroke="rgb(0, 0, 0)"><path d="M182.8382121,-72.31322L186.0260351,-72.5921184" /></g>
<g stroke="rgb(0, 0, 0)"><path d="M186.0260351,-72.5921184L186.130622,-71.3966848" /></g>
<g stroke="rgb(0, 0, 0)"><path d="M182.942799,-71.1177864L182.8382121,-72.31322" /></g>
<g stroke="rgb(0, 0, 0)"><path d="M196.1575973,-96.7671355L195.8786989,-99.9549585" /></g>
<g stroke="rgb(0, 0, 0)"><path d="M195.8786989,-99.9549585L197.0741325,-100.0595454" /></g>
<g stroke="rgb(0, 0, 0)"><path d="M197.3530309,-96.8717224L196.1575973,-96.7671355" /></g>
<g stroke="rgb(0, 0, 0)"><path d="M198.0532347,-75.0999008L197.7743363,-78.2877238" /></g>
<g stroke="rgb(0, 0, 0)"><path d="M197.7743363,-78.2877238L198.9697699,-78.3923107" /></g>
<g stroke="rgb(0, 0, 0)"><path d="M199.2486683,-75.2044877L198.0532347,-75.0999008" /></g>
<g stroke="rgb(0, 0, 0)"><path d="M83.5420572,-130.8559792L82.6600176,-127.7799418" /></g>
<g stroke="rgb(0, 0, 0)"><path d="M82.6600176,-127.7799418L81.5065036,-128.1107066" /></g>
<g stroke="rgb(0, 0, 0)"><path d="M82.3885432,-131.186744L83.5420572,-130.8559792" /></g>
<g stroke="rgb(0, 0, 0)"><path d="M99.720396,-123.5925547L99.2198057,-120.431952" /></g>
<g stroke="rgb(0, 0, 0)"><path d="M99.2198057,-120.431952L98.0345797,-120.6196734" /></g>
<g stroke="rgb(0, 0, 0)"><path d="M98.53517,-123.7802761L99.720396,-123.5925547" /></g>
<g stroke="rgb(0, 0, 0)"><path d="M115.6418583,-114.0393105L112.4496534,-113.8160897" /></g>
<g stroke="rgb(0, 0, 0)"><path d="M112.4496534,-113.8160897L112.3659456,-115.0131666" /></g>
<g stroke="rgb(0, 0, 0)"><path d="M115.5581505,-115.2363874L115.6418583,-114.0393105" /></g>
<g stroke="rgb(0, 0, 0)"><circle cx="100" cy="-100" r="1.6" /></g>
<g stroke="rgb(0, 0, 0)"><circle cx="100" cy="-83" r="1.6" /></g>
<g stroke="rgb(0, 0, 0)"><circle cx="100" cy="-66" r="1.6" /></g>
<g stroke="rgb(0, 0, 0)"><circle cx="117" cy="-100" r="1.6" /></g>
<g stroke="rgb(0, 0, 0)"><circle cx="117" cy="-83" r="1.6" /></g>
<g stroke="rgb(0, 0, 0)"><circle cx="117" cy="-66" r="1.6" /></g>
<g stroke="rgb(0, 0, 0)"><circle cx="138.375" cy="-92.575" r="1.6" /></g>
<g stroke="rgb(0, 0, 0)"><circle cx="138.375" cy="-75.575" r="1.6" /></g>
<g stroke="rgb(0, 0, 0)"><circle cx="138.375" cy="-58.575" r="1.6" /></g>
<g stroke="rgb(0, 0, 0)"><circle cx="161.2376747" cy="-94.6038549" r="1.6" /></g>
<g stroke="rgb(0, 0, 0)"><circle cx="161.9792043" cy="-77.6200351" r="1.6" /></g>
<g stroke="rgb(0, 0, 0)"><circle cx="162.7207339" cy="-60.6362153" r="1.6" /></g>
<g stroke="rgb(0, 0, 0)"><circle cx="181.7477268" cy="-103.135466" r="1.6" /></g>
<g stroke="rgb(0, 0, 0)"><circle cx="183.2293744" cy="-86.2001561" r="1.6" /></g>
<g stroke="rgb(0, 0, 0)"><circle cx="184.711022" cy="-69.2648462" r="1.6" /></g>
<g stroke="rgb(0, 0, 0)"><circle cx="199.2059711" cy="-98.6399454" r="1.6" /></g>
<g stroke="rgb(0, 0, 0)"><circle cx="201.1016085" cy="-76.9727107" r="1.6" /></g>
<g stroke="rgb(0, 0, 0)"><circle cx="80.025" cy="-130.2" r="1.6" /></g>
<g stroke="rgb(0, 0, 0)"><circle cx="96.3094982" cy="-122.5128437" r="1.6" /></g>
<g stroke="rgb(0, 0, 0)"><circle cx="113.8225351" cy="-117.1199051" r="1.6" /></g>
<g stroke="rgb(0, 0, 0)"><path d="M96.55,-101.5L97.75,-101.5" /></g>
<g stroke="rgb(0, 0, 0)"><path d="M97.75,-101.5L97.75,-98.5" /></g>
<g stroke="rgb(0, 0, 0)"><path d="M97.75,-98.5L96.55,-98.5" /></g>
<g stroke="rgb(0, 0, 0)"><path d="M96.55,-98.5L96.55,-101.5" /></g>
<g stroke="rgb(0, 0, 0)"><path d="M96.55,-84.5L97.75,-84.5" /></g>
<g stroke="rgb(0, 0, 0)"><path d="M97.75,-84.5L97.75,-81.5" /></g>
<g stroke="rgb(0, 0, 0)"><path d="M97.75,-81.5L96.55,-81.5" /></g>
<g stroke="rgb(0, 0, 0)"><path d="M96.55,-81.5L96.55,-84.5" /></g>
<g stroke="rgb(0, 0, 0)"><path d="M96.55,-67.5L97.75,-67.5" /></g>
<g stroke="rgb(0, 0, 0)"><path d="M97.75,-67.5L97.75,-64.5" /></g>
<g stroke="rgb(0, 0, 0)"><path d="M97.75,-64.5L96.55,-64.5" /></g>
<g stroke="rgb(0, 0, 0)"><path d="M96.55,-64.5L96.55,-67.5" /></g>
<g stroke="rgb(0, 0, 0)"><path d="M113.55,-101.5L114.75,-101.5" /></g>
<g stroke="rgb(0, 0, 0)"><path d="M114.75,-101.5L114.75,-98.5" /></g>
<g stroke="rgb(0, 0, 0)"><path d="M114.75,-98.5L113.55,-98.5" /></g>
<g stroke="rgb(0, 0, 0)"><path d="M113.55,-98.5L113.55,-101.5" /></g>
<g stroke="rgb(0, 0, 0)"><path d="M113.55,-84.5L114.75,-84.5" /></g>
<g stroke="rgb(0, 0, 0)"><path d="M114.75,-84.5L114.75,-81.5" /></g>
<g stroke="rgb(0, 0, 0)"><path d="M114.75,-81.5L113.55,-81.5" /></g>
<g stroke="rgb(0, 0, 0)"><path d="M113.55,-81.5L113.55,-84.5" /></g>
<g stroke="rgb(0, 0, 0)"><path d="M113.55,-67.5L114.75,-67.5" /></g>
<g stroke="rgb(0, 0, 0)"><path d="M114.75,-67.5L114.75,-64.5" /></g>
<g stroke="rgb(0, 0, 0)"><path d="M114.75,-64.5L113.55,-64.5" /></g>
<g stroke="rgb(0, 0, 0)"><path d="M113.55,-64.5L113.55,-67.5" /></g>
<g stroke="rgb(0, 0, 0)"><path d="M134.925,-94.075L136.125,-94.075" /></g>
<g stroke="rgb(0, 0, 0)"><path d="M136.125,-94.075L136.125,-91.075" /></g>
<g stroke="rgb(0, 0, 0)"><path d="M136.125,-91.075L134.925,-91.075" /></g>
<g stroke="rgb(0, 0, 0)"><path d="M134.925,-91.075L134.925,-94.075" /></g>
<g stroke="rgb(0, 0, 0)"><path d="M134.925,-77.075L136.125,-77.075" /></g>
<g stroke="rgb(0, 0, 0)"><path d="M136.125,-77.075L136.125,-74.075" /></g>
<g stroke="rgb(0, 0, 0)"><path d="M136.125,-74.075L134.925,-74.075" /></g>
<g stroke="rgb(0, 0, 0)"><path d="M134.925,-74.075L134.925,-77.075" /></g>
<g stroke="rgb(0, 0, 0)"><path d="M134.925,-60.075L136.125,-60.075" /></g>
<g stroke="rgb(0, 0, 0)"><path d="M136.125,-60.075L136.125,-57.075" /></g>
<g stroke="rgb(0, 0, 0)"><path d="M136.125,-57.075L134.925,-57.075" /></g>
<g stroke="rgb(0, 0, 0)"><path d="M134.925,-57.075L134.925,-60.075" /></g>
<g stroke="rgb(0, 0, 0)"><path d="M157.7255293,-95.9519403L158.9243872,-96.0042836" /></g>
<g stroke="rgb(0, 0, 0)"><path d="M158.9243872,-96.0042836L159.0552453,-93.0071389" /></g>
<g stroke="rgb(0, 0, 0)"><path d="M159.0552453,-93.0071389L157.8563874,-92.9547956" /></g>
<g stroke="rgb(0, 0, 0)"><path d="M157.8563874,-92.9547956L157.7255293,-95.9519403" /></g>
<g stroke="rgb(0, 0, 0)"><path d="M158.4670589,-78.9681205L159.6659168,-79.0204638" /></g>
<g stroke="rgb(0, 0, 0)"><path d="M159.6659168,-79.0204638L159.7967749,-76.0233191" /></g>
<g stroke="rgb(0, 0, 0)"><path d="M159.7967749,-76.0233191L158.597917,-75.9709758" /></g>
<g stroke="rgb(0, 0, 0)"><path d="M158.597917,-75.9709758L158.4670589,-78.9681205" /></g>
<g stroke="rgb(0, 0, 0)"><path d="M159.2085885,-61.9843007L160.4074464,-62.036644" /></g>
<g stroke="rgb(0, 0, 0)"><path d="M160.4074464,-62.036644L160.5383045,-59.0394993" /></g>
<g stroke="rgb(0, 0, 0)"><path d="M160.5383045,-59.0394993L159.3394466,-58.987156" /></g>
<g stroke="rgb(0, 0, 0)"><path d="M159.3394466,-58.987156L159.2085885,-61.9843007" /></g>
<g stroke="rgb(0, 0, 0)"><path d="M178.1801215,-104.3290707L179.3755551,-104.4336576" /></g>
<g stroke="rgb(0, 0, 0)"><path d="M179.3755551,-104.4336576L179.6370223,-101.4450735" /></g>
<g stroke="rgb(0, 0, 0)"><path d="M179.6370223,-101.4450735L178.4415887,-101.3404866" /></g>
<g stroke="rgb(0, 0, 0)"><path d="M178.4415887,-101.3404866L178.1801215,-104.3290707" /></g>
<g stroke="rgb(0, 0, 0)"><path d="M179.6617691,-87.3937608L180.8572027,-87.4983477" /></g>
<g stroke="rgb(0, 0, 0)"><path d="M180.8572027,-87.4983477L181.1186699,-84.5097636" /></g>
<g stroke="rgb(0, 0, 0)"><path d="M181.1186699,-84.5097636L179.9232363,-84.4051767" /></g>
<g stroke="rgb(0, 0, 0)"><path d="M179.9232363,-84.4051767L179.6617691,-87.3937608" /></g>
<g stroke="rgb(0, 0, 0)"><path d="M181.1434167,-70.4584509L182.3388503,-70.5630378" /></g>
<g stroke="rgb(0, 0, 0)"><path d="M182.3388503,-70.5630378L182.6003175,-67.5744537" /></g>
<g stroke="rgb(0, 0, 0)"><path d="M182.6003175,-67.5744537L181.4048839,-67.4698668" /></g>
<g stroke="rgb(0, 0, 0)"><path d="M181.4048839,-67.4698668L181.1434167,-70.4584509" /></g>
<g stroke="rgb(0, 0, 0)"><path d="M198.0123664,-95.0723401L197.9077795,-96.2677737" /></g>
<g stroke="rgb(0, 0, 0)"><path d="M197.9077795,-96.2677737L200.8963636,-96.5292409" /></g>
<g stroke="rgb(0, 0, 0)"><path d="M200.8963636,-96.5292409L201.0009505,-95.3338073" /></g>
<g stroke="rgb(0, 0, 0)"><path d="M201.0009505,-95.3338073L198.0123664,-95.0723401" /></g>
<g stroke="rgb(0, 0, 0)"><path d="M199.9080038,-73.4051054L199.8034169,-74.600539" /></g>
<g stroke="rgb(0, 0, 0)"><path d="M199.8034169,-74.600539L202.792001,-74.8620062" /></g>
<g stroke="rgb(0, 0, 0)"><path d="M202.792001,-74.8620062L202.8965879,-73.6665726" /></g>
<g stroke="rgb(0, 0, 0)"><path d="M202.8965879,-73.6665726L199.9080038,-73.4051054" /></g>
<g stroke="rgb(0, 0, 0)"><path d="M82.4178415,-133.1028968L82.0870766,-131.9493827" /></g>
<g stroke="rgb(0, 0, 0)"><path d="M82.0870766,-131.9493827L79.2032915,-132.7762948" /></g>
<g stroke="rgb(0, 0, 0)"><path d="M79.2032915,-132.7762948L79.5340564,-133.9298089" /></g>
<g stroke="rgb(0, 0, 0)"><path d="M79.5340564,-133.9298089L82.4178415,-133.1028968" /></g>
<g stroke="rgb(0, 0, 0)"><path d="M98.3307296,-125.6857168L98.1430082,-124.5004908" /></g>
<g stroke="rgb(0, 0, 0)"><path d="M98.1430082,-124.5004908L95.1799432,-124.9697942" /></g>
<g stroke="rgb(0, 0, 0)"><path d="M95.1799432,-124.9697942L95.3676646,-126.1550202" /></g>
<g stroke="rgb(0, 0, 0)"><path d="M95.3676646,-126.1550202L98.3307296,-125.6857168" /></g>
<g stroke="rgb(0, 0, 0)"><path d="M117.3687657,-115.8642189L116.1716889,-115.7805111" /></g>
<g stroke="rgb(0, 0, 0)"><path d="M116.1716889,-115.7805111L115.9624195,-118.7732033" /></g>
<g stroke="rgb(0, 0, 0)"><path d="M115.9624195,-118.7732033L117.1594963,-118.8569111" /></g>
<g stroke="rgb(0, 0, 0)"><path d="M117.1594963,-118.8569111L117.3687657,-115.8642189" /></g>
<g stroke="rgb(0, 0, 0)"><path d="M102.25,-101.5L103.45,-101.5" /></g>
<g stroke="rgb(0, 0, 0)"><path d="M103.45,-101.5L103.45,-98.5" /></g>
<g stroke="rgb(0, 0, 0)"><path d="M103.45,-98.5L102.25,-98.5" /></g>
<g stroke="rgb(0, 0, 0)"><path d="M102.25,-98.5L102.25,-101.5" /></g>
<g stroke="rgb(0, 0, 0)"><path d="M102.25,-84.5L103.45,-84.5" /></g>
<g stroke="rgb(0, 0, 0)"><path d="M103.45,-84.5L103.45,-81.5" /></g>
<g stroke="rgb(0, 0, 0)"><path d="M103.45,-81.5L102.25,-81.5" /></g>
<g stroke="rgb(0, 0, 0)"><path d="M102.25,-81.5L102.25,-84.5" /></g>
<g stroke="rgb(0, 0, 0)"><path d="M102.25,-67.5L103.45,-67.5" /></g>
<g stroke="rgb(0, 0, 0)"><path d="M103.45,-67.5L103.45,-64.5" /></g>
<g stroke="rgb(0, 0, 0)"><path d="M103.45,-64.5L102.25,-64.5" /></g>
<g stroke="rgb(0, 0, 0)"><path d="M102.25,-64.5L102.25,-67.5" /></g>
<g stroke="rgb(0, 0, 0)"><path d="M119.25,-101.5L120.45,-101.5" /></g>
<g stroke="rgb(0, 0, 0)"><path d="M120.45,-101.5L120.45,-98.5" /></g>
<g stroke="rgb(0, 0, 0)"><path d="M120.45,-98.5L119.25,-98.5" /></g>
<g stroke="rgb(0, 0, 0)"><path d="M119.25,-98.5L119.25,-101.5" /></g>
<g stroke="rgb(0, 0, 0)"><path d="M119.25,-84.5L120.45,-84.5" /></g>
<g stroke="rgb(0, 0, 0)"><path d="M120.45,-84.5L120.45,-81.5" /></g>
<g stroke="rgb(0, 0, 0)"><path d="M120.45,-81.5L119.25,-81.5" /></g>
<g stroke="rgb(0, 0, 0)"><path d="M119.25,-81.5L119.25,-84.5" /></g>
<g stroke="rgb(0, 0, 0)"><path d="M119.25,-67.5L120.45,-67.5" /></g>
<g stroke="rgb(0, 0, 0)"><path d="M120.45,-67.5L120.45,-64.5" /></g>
<g stroke="rgb(0, 0, 0)"><path d="M120.45,-64.5L119.25,-64.5" /></g>
<g stroke="rgb(0, 0, 0)"><path d="M119.25,-64.5L119.25,-67.5" /></g>
<g stroke="rgb(0, 0, 0)"><path d="M140.625,-94.075L141.825,-94.075" /></g>
<g stroke="rgb(0, 0, 0)"><path d="M141.825,-94.075L141.825,-91.075" /></g>
<g stroke="rgb(0, 0, 0)"><path d="M141.825,-91.075L140.625,-91.075" /></g>
<g stroke="rgb(0, 0, 0)"><path d="M140.625,-91.075L140.625,-94.075" /></g>
<g stroke="rgb(0, 0, 0)"><path d="M140.625,-77.075L141.825,-77.075" /></g>
<g stroke="rgb(0, 0, 0)"><path d="M141.825,-77.075L141.825,-74.075" /></g>
<g stroke="rgb(0, 0, 0)"><path d="M141.825,-74.075L140.625,-74.075" /></g>
<g stroke="rgb(0, 0, 0)"><path d="M140.625,-74.075L140.625,-77.075" /></g>
<g stroke="rgb(0, 0, 0)"><path d="M140.625,-60.075L141.825,-60.075" /></g>
<g stroke="rgb(0, 0, 0)"><path d="M141.825,-60.075L141.825,-57.075" /></g>
<g stroke="rgb(0, 0, 0)"><path d="M141.825,-57.075L140.625,-57.075" /></g>
<g stroke="rgb(0, 0, 0)"><path d="M140.625,-57.075L140.625,-60.075" /></g>
<g stroke="rgb(0, 0, 0)"><path d="M163.4201041,-96.2005709L164.618962,-96.2529142" /></g>
<g stroke="rgb(0, 0, 0)"><path d="M164.618962,-96.2529142L164.7498201,-93.2557695" /></g>
<g stroke="rgb(0, 0, 0)"><path d="M164.7498201,-93.2557695L163.5509622,-93.2034262" /></g>
<g stroke="rgb(0, 0, 0)"><path d="M163.5509622,-93.2034262L163.4201041,-96.2005709" /></g>
<g stroke="rgb(0, 0, 0)"><path d="M164.1616337,-79.2167511L165.3604916,-79.2690944" /></g>
<g stroke="rgb(0, 0, 0)"><path d="M165.3604916,-79.2690944L165.4913497,-76.2719497" /></g>
<g stroke="rgb(0, 0, 0)"><path d="M165.4913497,-76.2719497L164.2924918,-76.2196064" /></g>
<g stroke="rgb(0, 0, 0)"><path d="M164.2924918,-76.2196064L164.1616337,-79.2167511" /></g>
<g stroke="rgb(0, 0, 0)"><path d="M164.9031633,-62.2329313L166.1020212,-62.2852746" /></g>
<g stroke="rgb(0, 0, 0)"><path d="M166.1020212,-62.2852746L166.2328793,-59.2881299" /></g>
<g stroke="rgb(0, 0, 0)"><path d="M166.2328793,-59.2881299L165.0340214,-59.2357866" /></g>
<g stroke="rgb(0, 0, 0)"><path d="M165.0340214,-59.2357866L164.9031633,-62.2329313" /></g>
<g stroke="rgb(0, 0, 0)"><path d="M183.8584313,-104.8258585L185.0538649,-104.9304454" /></g>
<g stroke="rgb(0, 0, 0)"><path d="M185.0538649,-104.9304454L185.3153321,-101.9418613" /></g>
<g stroke="rgb(0, 0, 0)"><path d="M185.3153321,-101.9418613L184.1198985,-101.8372744" /></g>
<g stroke="rgb(0, 0, 0)"><path d="M184.1198985,-101.8372744L183.8584313,-104.8258585" /></g>
<g stroke="rgb(0, 0, 0)"><path d="M185.3400789,-87.8905486L186.5355125,-87.9951355" /></g>
<g stroke="rgb(0, 0, 0)"><path d="M186.5355125,-87.9951355L186.7969797,-85.0065514" /></g>
<g stroke="rgb(0, 0, 0)"><path d="M186.7969797,-85.0065514L185.6015461,-84.9019645" /></g>
<g stroke="rgb(0, 0, 0)"><path d="M185.6015461,-84.9019645L185.3400789,-87.8905486" /></g>
<g stroke="rgb(0, 0, 0)"><path d="M186.8217265,-70.9552387L188.0171601,-71.0598256" /></g>
<g stroke="rgb(0, 0, 0)"><path d="M188.0171601,-71.0598256L188.2786273,-68.0712415" /></g>
<g stroke="rgb(0, 0, 0)"><path d="M188.2786273,-68.0712415L187.0831937,-67.9666546" /></g>
<g stroke="rgb(0, 0, 0)"><path d="M187.0831937,-67.9666546L186.8217265,-70.9552387" /></g>
<g stroke="rgb(0, 0, 0)"><path d="M197.5155786,-100.7506499L197.4109917,-101.9460835" /></g>
<g stroke="rgb(0, 0, 0)"><path d="M197.4109917,-101.9460835L200.3995758,-102.2075507" /></g>
<g stroke="rgb(0, 0, 0)"><path d="M200.3995758,-102.2075507L200.5041627,-101.0121171" /></g>
<g stroke="rgb(0, 0, 0)"><path d="M200.5041627,-101.0121171L197.5155786,-100.7506499" /></g>
<g stroke="rgb(0, 0, 0)"><path d="M199.411216,-79.0834152L199.3066291,-80.2788488" /></g>
<g stroke="rgb(0, 0, 0)"><path d="M199.3066291,-80.2788488L202.2952132,-80.540316" /></g>
<g stroke="rgb(0, 0, 0)"><path d="M202.2952132,-80.540316L202.3998001,-79.3448824" /></g>
<g stroke="rgb(0, 0, 0)"><path d="M202.3998001,-79.3448824L199.411216,-79.0834152" /></g>
<g stroke="rgb(0, 0, 0)"><path d="M80.8467085,-127.6237052L80.5159436,-126.4701911" /></g>
<g stroke="rgb(0, 0, 0)"><path d="M80.5159436,-126.4701911L77.6321585,-127.2971032" /></g>
<g stroke="rgb(0, 0, 0)"><path d="M77.6321585,-127.2971032L77.9629234,-128.4506173" /></g>
<g stroke="rgb(0, 0, 0)"><path d="M77.9629234,-128.4506173L80.8467085,-127.6237052" /></g>
<g stroke="rgb(0, 0, 0)"><path d="M97.4390532,-120.0558932L97.2513318,-118.8706672" /></g>
<g stroke="rgb(0, 0, 0)"><path d="M97.2513318,-118.8706672L94.2882668,-119.3399706" /></g>
<g stroke="rgb(0, 0, 0)"><path d="M94.2882668,-119.3399706L94.4759882,-120.5251966" /></g>
<g stroke="rgb(0, 0, 0)"><path d="M94.4759882,-120.5251966L97.4390532,-120.0558932" /></g>
<g stroke="rgb(0, 0, 0)"><path d="M111.6826507,-115.4666069L110.4855739,-115.3828991" /></g>
<g stroke="rgb(0, 0, 0)"><path d="M110.4855739,-115.3828991L110.2763045,-118.3755913" /></g>
<g stroke="rgb(0, 0, 0)"><path d="M110.2763045,-118.3755913L111.4733813,-118.4592991" /></g>
<g stroke="rgb(0, 0, 0)"><path d="M111.4733813,-118.4592991L111.6826507,-115.4666069" /></g>
<g stroke="rgb(0, 0, 0)"><path d="M93.25,-108.25L106.75,-108.25" /></g>
<g stroke="rgb(0, 0, 0)"><path d="M 106.75 -108.25 A 1.5 1.5 0 0 1 108.25 -106.75" /></g>
<g stroke="rgb(0, 0, 0)"><path d="M108.25,-106.75L108.25,-93.25" /></g>
<g stroke="rgb(0, 0, 0)"><path d="M 108.25 -93.25 A 1.5 1.5 0 0 1 106.75 -91.75" /></g>
<g stroke="rgb(0, 0, 0)"><path d="M106.75,-91.75L93.25,-91.75" /></g>
<g stroke="rgb(0, 0, 0)"><path d="M 93.25 -91.75 A 1.5 1.5 0 0 1 91.75 -93.25" /></g>
<g stroke="rgb(0, 0, 0)"><path d="M91.75,-93.25L91.75,-106.75" /></g>
<g stroke="rgb(0, 0, 0)"><path d="M 91.75 -106.75 A 1.5 1.5 0 0 1 93.25 -108.25" /></g>
<g stroke="rgb(0, 0, 0)"><path d="M93.25,-91.25L106.75,-91.25" /></g>
<g stroke="rgb(0, 0, 0)"><path d="M 106.75 -91.25 A 1.5 1.5 0 0 1 108.25 -89.75" /></g>
<g stroke="rgb(0, 0, 0)"><path d="M108.25,-89.75L108.25,-76.25" /></g>
<g stroke="rgb(0, 0, 0)"><path d="M 108.25 -76.25 A 1.5 1.5 0 0 1 106.75 -74.75" /></g>
<g stroke="rgb(0, 0, 0)"><path d="M106.75,-74.75L93.25,-74.75" /></g>
<g stroke="rgb(0, 0, 0)"><path d="M 93.25 -74.75 A 1.5 1.5 0 0 1 91.75 -76.25" /></g>
<g stroke="rgb(0, 0, 0)"><path d="M91.75,-76.25L91.75,-89.75" /></g>
<g stroke="rgb(0, 0, 0)"><path d="M 91.75 -89.75 A 1.5 1.5 0 0 1 93.25 -91.25" /></g>
<g stroke="rgb(0, 0, 0)"><path d="M93.25,-74.25L106.75,-74.25" /></g>
<g stroke="rgb(0, 0, 0)"><path d="M 106.75 -74.25 A 1.5 1.5 0 0 1 108.25 -72.75" /></g>
<g stroke="rgb(0, 0, 0)"><path d="M108.25,-72.75L108.25,-59.25" /></g>
<g stroke="rgb(0, 0, 0)"><path d="M 108.25 -59.25 A 1.5 1.5 0 0 1 106.75 -57.75" /></g>
<g stroke="rgb(0, 0, 0)"><path d="M106.75,-57.75L93.25,-57.75" /></g>
<g stroke="rgb(0, 0, 0)"><path d="M 93.25 -57.75 A 1.5 1.5 0 0 1 91.75 -59.25" /></g>
<g stroke="rgb(0, 0, 0)"><path d="M91.75,-59.25L91.75,-72.75" /></g>
<g stroke="rgb(0, 0, 0)"><path d="M 91.75 -72.75 A 1.5 1.5 0 0 1 93.25 -74.25" /></g>
<g stroke="rgb(0, 0, 0)"><path d="M110.25,-108.25L123.75,-108.25" /></g>
<g stroke="rgb(0, 0, 0)"><path d="M 123.75 -108.25 A 1.5 1.5 0 0 1 125.25 -106.75" /></g>
<g stroke="rgb(0, 0, 0)"><path d="M125.25,-106.75L125.25,-93.25" /></g>
<g stroke="rgb(0, 0, 0)"><path d="M 125.25 -93.25 A 1.5 1.5 0 0 1 123.75 -91.75" /></g>
<g stroke="rgb(0, 0, 0)"><path d="M123.75,-91.75L110.25,-91.75" /></g>
<g stroke="rgb(0, 0, 0)"><path d="M 110.25 -91.75 A 1.5 1.5 0 0 1 108.75 -93.25" /></g>
<g stroke="rgb(0, 0, 0)"><path d="M108.75,-93.25L108.75,-106.75" /></g>
<g stroke="rgb(0, 0, 0)"><path d="M 108.75 -106.75 A 1.5 1.5 0 0 1 110.25 -108.25" /></g>
<g stroke="rgb(0, 0, 0)"><path d="M110.25,-91.25L123.75,-91.25" /></g>
<g stroke="rgb(0, 0, 0)"><path d="M 123.75 -91.25 A 1.5 1.5 0 0 1 125.25 -89.75" /></g>
<g stroke="rgb(0, 0, 0)"><path d="M125.25,-89.75L125.25,-76.25" /></g>
<g stroke="rgb(0, 0, 0)"><path d="M 125.25 -76.25 A 1.5 1.5 0 0 1 123.75 -74.75" /></g>
<g stroke="rgb(0, 0, 0)"><path d="M123.75,-74.75L110.25,-74.75" /></g>
<g stroke="rgb(0, 0, 0)"><path d="M 110.25 -74.75 A 1.5 1.5 0 0 1 108.75 -76.25" /></g>
<g stroke="rgb(0, 0, 0)"><path d="M108.75,-76.25L108.75,-89.75" /></g>
<g stroke="rgb(0, 0, 0)"><path d="M 108.75 -89.75 A 1.5 1.5 0 0 1 110.25 -91.25" /></g>
<g stroke="rgb(0, 0, 0)"><path d="M110.25,-74.25L123.75,-74.25" /></g>
<g stroke="rgb(0, 0, 0)"><path d="M 123.75 -74.25 A 1.5 1.5 0 0 1 125.25 -72.75" /></g>
<g stroke="rgb(0, 0, 0)"><path d="M125.25,-72.75L125.25,-59.25" /></g>
<g stroke="rgb(0, 0, 0)"><path d="M 125.25 -59.25 A 1.5 1.5 0 0 1 123.75 -57.75" /></g>
<g stroke="rgb(0, 0, 0)"><path d="M123.75,-57.75L110.25,-57.75" /></g>
<g stroke="rgb(0, 0, 0)"><path d="M 110.25 -57.75 A 1.5 1.5 0 0 1 108.75 -59.25" /></g>
<g stroke="rgb(0, 0, 0)"><path d="M108.75,-59.25L108.75,-72.75" /></g>
<g stroke="rgb(0, 0, 0)"><path d="M 108.75 -72.75 A 1.5 1.5 0 0 1 110.25 -74.25" /></g>
<g stroke="rgb(0, 0, 0)"><path d="M174.3043777,-110.765771L187.7530061,-111.9423735" /></g>
<g stroke="rgb(0, 0, 0)"><path d="M 187.75300608587852 -111.94237354713762 A 1.5 1.5 0 0 1 189.3780317471376 -110.57881511412148" /></g>
<g stroke="rgb(0, 0, 0)"><path d="M189.3780318,-110.5788151L190.5546343,-97.1301867" /></g>
<g stroke="rgb(0, 0, 0)"><path d="M 190.5546343471376 -97.13018671412148 A 1.5 1.5 0 0 1 189.19107591412148 -95.50516105286238" /></g>
<g stroke="rgb(0, 0, 0)"><path d="M189.1910759,-95.505161L175.7424475,-94.3285585" /></g>
<g stroke="rgb(0, 0, 0)"><path d="M 175.7424475141215 -94.32855845286238 A 1.5 1.5 0 0 1 174.1174218528624 -95.69211688587852" /></g>
<g stroke="rgb(0, 0, 0)"><path d="M174.1174218,-95.6921169L172.9408193,-109.1407453" /></g>
<g stroke="rgb(0, 0, 0)"><path d="M 172.94081925286238 -109.14074528587852 A 1.5 1.5 0 0 1 174.3043776858785 -110.76577094713763" /></g>
<g stroke="rgb(0, 0, 0)"><path d="M175.7860253,-93.8304611L189.2346537,-95.0070636" /></g>
<g stroke="rgb(0, 0, 0)"><path d="M 189.23465368587853 -95.00706364713761 A 1.5 1.5 0 0 1 190.85967934713761 -93.64350521412148" /></g>
<g stroke="rgb(0, 0, 0)"><path d="M190.8596794,-93.6435052L192.0362819,-80.1948768" /></g>
<g stroke="rgb(0, 0, 0)"><path d="M 192.0362819471376 -80.19487681412149 A 1.5 1.5 0 0 1 190.6727235141215 -78.56985115286238" /></g>
<g stroke="rgb(0, 0, 0)"><path d="M190.6727235,-78.5698511L177.2240951,-77.3932486" /></g>
<g stroke="rgb(0, 0, 0)"><path d="M 177.22409511412147 -77.39324855286237 A 1.5 1.5 0 0 1 175.59906945286238 -78.75680698587851" /></g>
<g stroke="rgb(0, 0, 0)"><path d="M175.5990694,-78.756807L174.4224669,-92.2054354" /></g>
<g stroke="rgb(0, 0, 0)"><path d="M 174.42246685286239 -92.20543538587852 A 1.5 1.5 0 0 1 175.7860252858785 -93.83046104713762" /></g>
<g stroke="rgb(0, 0, 0)"><path d="M177.2676729,-76.8951512L190.7163013,-78.0717537" /></g>
<g stroke="rgb(0, 0, 0)"><path d="M 190.71630128587853 -78.07175374713762 A 1.5 1.5 0 0 1 192.34132694713762 -76.70819531412148" /></g>
<g stroke="rgb(0, 0, 0)"><path d="M192.341327,-76.7081953L193.5179295,-63.2595669" /></g>
<g stroke="rgb(0, 0, 0)"><path d="M 193.5179295471376 -63.259566914121486 A 1.5 1.5 0 0 1 192.1543711141215 -61.63454125286238" /></g>
<g stroke="rgb(0, 0, 0)"><path d="M192.1543711,-61.6345412L178.7057427,-60.4579387" /></g>
<g stroke="rgb(0, 0, 0)"><path d="M 178.70574271412147 -60.45793865286238 A 1.5 1.5 0 0 1 177.08071705286238 -61.82149708587851" /></g>
<g stroke="rgb(0, 0, 0)"><path d="M177.080717,-61.8214971L175.9041145,-75.2701255" /></g>
<g stroke="rgb(0, 0, 0)"><path d="M 175.9041144528624 -75.27012548587852 A 1.5 1.5 0 0 1 177.2676728858785 -76.89515114713763" /></g>
<g stroke="rgb(0, 0, 0)"><path d="M121.1315833,-109.3608579L107.6644687,-108.4191455" /></g>
<g stroke="rgb(0, 0, 0)"><path d="M 107.66446871061618 -108.41914552461026 A 1.5 1.5 0 0 1 106.06348792461026 -109.81085688938381" /></g>
<g stroke="rgb(0, 0, 0)"><path d="M106.0634879,-109.8108569L105.1217755,-123.2779715" /></g>
<g stroke="rgb(0, 0, 0)"><path d="M 105.12177552461026 -123.27797148938382 A 1.5 1.5 0 0 1 106.51348688938381 -124.87895227538974" /></g>
<g stroke="rgb(0, 0, 0)"><path d="M106.5134869,-124.8789523L119.9806015,-125.8206647" /></g>
<g stroke="rgb(0, 0, 0)"><path d="M 119.98060148938382 -125.82066467538974 A 1.5 1.5 0 0 1 121.58158227538974 -124.42895331061618" /></g>
<g stroke="rgb(0, 0, 0)"><path d="M121.5815823,-124.4289533L122.5232947,-110.9618387" /></g>
<g stroke="rgb(0, 0, 0)"><path d="M 122.52329467538974 -110.96183871061618 A 1.5 1.5 0 0 1 121.13158331061618 -109.36085792461026" /></g>
<g stroke="rgb(0, 0, 0)"><path d="M94,-107L106,-107" /></g>
<g stroke="rgb(0, 0, 0)"><path d="M 106 -107 A 1 1 0 0 1 107 -106" /></g>
<g stroke="rgb(0, 0, 0)"><path d="M107,-106L107,-94" /></g>
<g stroke="rgb(0, 0, 0)"><path d="M 107 -94 A 1 1 0 0 1 106 -93" /></g>
<g stroke="rgb(0, 0, 0)"><path d="M106,-93L94,-93" /></g>
<g stroke="rgb(0, 0, 0)"><path d="M 94 -93 A 1 1 0 0 1 93 -94" /></g>
<g stroke="rgb(0, 0, 0)"><path d="M93,-94L93,-106" /></g>
<g stroke="rgb(0, 0, 0)"><path d="M 93 -106 A 1 1 0 0 1 94 -107" /></g>
<g stroke="rgb(0, 0, 0)"><path d="M94,-90L106,-90" /></g>
<g stroke="rgb(0, 0, 0)"><path d="M 106 -90 A 1 1 0 0 1 107 -89" /></g>
<g stroke="rgb(0, 0, 0)"><path d="M107,-89L107,-77" /></g>
<g stroke="rgb(0, 0, 0)"><path d="M 107 -77 A 1 1 0 0 1 106 -76" /></g>
<g stroke="rgb(0, 0, 0)"><path d="M106,-76L94,-76" /></g>
<g stroke="rgb(0, 0, 0)"><path d="M 94 -76 A 1 1 0 0 1 93 -77" /></g>
<g stroke="rgb(0, 0, 0)"><path d="M93,-77L93,-89" /></g>
<g stroke="rgb(0, 0, 0)"><path d="M 93 -89 A 1 1 0 0 1 94 -90" /></g>
<g stroke="rgb(0, 0, 0)"><path d="M94,-73L106,-73" /></g>
<g stroke="rgb(0, 0, 0)"><path d="M 106 -73 A 1 1 0 0 1 107 -72" /></g>
<g stroke="rgb(0, 0, 0)"><path d="M107,-72L107,-60" /></g>
<g stroke="rgb(0, 0, 0)"><path d="M 107 -60 A 1 1 0 0 1 106 -59" /></g>
<g stroke="rgb(0, 0, 0)"><path d="M106,-59L94,-59" /></g>
<g stroke="rgb(0, 0, 0)"><path d="M 94 -59 A 1 1 0 0 1 93 -60" /></g>
<g stroke="rgb(0, 0, 0)"><path d="M93,-60L93,-72" /></g>
<g stroke="rgb(0, 0, 0)"><path d="M 93 -72 A 1 1 0 0 1 94 -73" /></g>
<g stroke="rgb(0, 0, 0)"><path d="M111,-107L123,-107" /></g>
<g stroke="rgb(0, 0, 0)"><path d="M 123 -107 A 1 1 0 0 1 124 -106" /></g>
<g stroke="rgb(0, 0, 0)"><path d="M124,-106L124,-94" /></g>
<g stroke="rgb(0, 0, 0)"><path d="M 124 -94 A 1 1 0 0 1 123 -93" /></g>
<g stroke="rgb(0, 0, 0)"><path d="M123,-93L111,-93" /></g>
<g stroke="rgb(0, 0, 0)"><path d="M 111 -93 A 1 1 0 0 1 110 -94" /></g>
<g stroke="rgb(0, 0, 0)"><path d="M110,-94L110,-106" /></g>
<g stroke="rgb(0, 0, 0)"><path d="M 110 -106 A 1 1 0 0 1 111 -107" /></g>
<g stroke="rgb(0, 0, 0)"><path d="M111,-90L123,-90" /></g>
<g stroke="rgb(0, 0, 0)"><path d="M 123 -90 A 1 1 0 0 1 124 -89" /></g>
<g stroke="rgb(0, 0, 0)"><path d="M124,-89L124,-77" /></g>
<g stroke="rgb(0, 0, 0)"><path d="M 124 -77 A 1 1 0 0 1 123 -76" /></g>
<g stroke="rgb(0, 0, 0)"><path d="M123,-76L111,-76" /></g>
<g stroke="rgb(0, 0, 0)"><path d="M 111 -76 A 1 1 0 0 1 110 -77" /></g>
<g stroke="rgb(0, 0, 0)"><path d="M110,-77L110,-89" /></g>
<g stroke="rgb(0, 0, 0)"><path d="M 110 -89 A 1 1 0 0 1 111 -90" /></g>
<g stroke="rgb(0, 0, 0)"><path d="M111,-73L123,-73" /></g>
<g stroke="rgb(0, 0, 0)"><path d="M 123 -73 A 1 1 0 0 1 124 -72" /></g>
<g stroke="rgb(0, 0, 0)"><path d="M124,-72L124,-60" /></g>
<g stroke="rgb(0, 0, 0)"><path d="M 124 -60 A 1 1 0 0 1 123 -59" /></g>
<g stroke="rgb(0, 0, 0)"><path d="M123,-59L111,-59" /></g>
<g stroke="rgb(0, 0, 0)"><path d="M 111 -59 A 1 1 0 0 1 110 -60" /></g>
<g stroke="rgb(0, 0, 0)"><path d="M110,-60L110,-72" /></g>
<g stroke="rgb(0, 0, 0)"><path d="M 110 -72 A 1 1 0 0 1 111 -73" /></g>
<g stroke="rgb(0, 0, 0)"><path d="M175.1604684,-109.5858944L187.1148048,-110.6317633" /></g>
<g stroke="rgb(0, 0, 0)"><path d="M 187.11480475725236 -110.63176329809174 A 1 1 0 0 1 188.19815519809177 -109.72272434274765" /></g>
<g stroke="rgb(0, 0, 0)"><path d="M188.1981552,-109.7227244L189.2440241,-97.768388" /></g>
<g stroke="rgb(0, 0, 0)"><path d="M 189.24402409809176 -97.76838804274766 A 1 1 0 0 1 188.33498514274766 -96.68503760190826" /></g>
<g stroke="rgb(0, 0, 0)"><path d="M188.3349852,-96.6850376L176.3806488,-95.6391687" /></g>
<g stroke="rgb(0, 0, 0)"><path d="M 176.38064884274766 -95.63916870190826 A 1 1 0 0 1 175.29729840190825 -96.54820765725235" /></g>
<g stroke="rgb(0, 0, 0)"><path d="M175.2972984,-96.5482076L174.2514295,-108.502544" /></g>
<g stroke="rgb(0, 0, 0)"><path d="M 174.25142950190823 -108.50254395725234 A 1 1 0 0 1 175.16046845725234 -109.58589439809174" /></g>
<g stroke="rgb(0, 0, 0)"><path d="M176.642116,-92.6505845L188.5964524,-93.6964534" /></g>
<g stroke="rgb(0, 0, 0)"><path d="M 188.59645235725233 -93.69645339809175 A 1 1 0 0 1 189.67980279809174 -92.78741444274766" /></g>
<g stroke="rgb(0, 0, 0)"><path d="M189.6798028,-92.7874145L190.7256717,-80.8330781" /></g>
<g stroke="rgb(0, 0, 0)"><path d="M 190.72567169809176 -80.83307814274765 A 1 1 0 0 1 189.81663274274766 -79.74972770190826" /></g>
<g stroke="rgb(0, 0, 0)"><path d="M189.8166328,-79.7497277L177.8622964,-78.7038588" /></g>
<g stroke="rgb(0, 0, 0)"><path d="M 177.86229644274766 -78.70385880190825 A 1 1 0 0 1 176.77894600190825 -79.61289775725234" /></g>
<g stroke="rgb(0, 0, 0)"><path d="M176.778946,-79.6128977L175.7330771,-91.5672341" /></g>
<g stroke="rgb(0, 0, 0)"><path d="M 175.73307710190824 -91.56723405725235 A 1 1 0 0 1 176.64211605725234 -92.65058449809175" /></g>
<g stroke="rgb(0, 0, 0)"><path d="M178.1237636,-75.7152746L190.0781,-76.7611435" /></g>
<g stroke="rgb(0, 0, 0)"><path d="M 190.07809995725233 -76.76114349809174 A 1 1 0 0 1 191.16145039809174 -75.85210454274765" /></g>
<g stroke="rgb(0, 0, 0)"><path d="M191.1614504,-75.8521046L192.2073193,-63.8977682" /></g>
<g stroke="rgb(0, 0, 0)"><path d="M 192.20731929809176 -63.89776824274766 A 1 1 0 0 1 191.29828034274766 -62.81441780190825" /></g>
<g stroke="rgb(0, 0, 0)"><path d="M191.2982804,-62.8144178L179.343944,-61.7685489" /></g>
<g stroke="rgb(0, 0, 0)"><path d="M 179.34394404274767 -61.768548901908254 A 1 1 0 0 1 178.26059360190825 -62.67758785725234" /></g>
<g stroke="rgb(0, 0, 0)"><path d="M178.2605936,-62.6775878L177.2147247,-74.6319242" /></g>
<g stroke="rgb(0, 0, 0)"><path d="M 177.21472470190824 -74.63192415725234 A 1 1 0 0 1 178.12376365725234 -75.71527459809174" /></g>
<g stroke="rgb(0, 0, 0)"><path d="M120.2962147,-110.5554956L108.3254461,-109.7184179" /></g>
<g stroke="rgb(0, 0, 0)"><path d="M 108.32544607374412 -109.71841794974017 A 1 1 0 0 1 107.25812554974017 -110.64622552625588" /></g>
<g stroke="rgb(0, 0, 0)"><path d="M107.2581256,-110.6462255L106.4210479,-122.6169941" /></g>
<g stroke="rgb(0, 0, 0)"><path d="M 106.42104794974017 -122.61699412625588 A 1 1 0 0 1 107.34885552625587 -123.68431465025982" /></g>
<g stroke="rgb(0, 0, 0)"><path d="M107.3488555,-123.6843146L119.3196241,-124.5213923" /></g>
<g stroke="rgb(0, 0, 0)"><path d="M 119.31962412625587 -124.52139225025982 A 1 1 0 0 1 120.38694465025982 -123.59358467374412" /></g>
<g stroke="rgb(0, 0, 0)"><path d="M120.3869446,-123.5935847L121.2240223,-111.6228161" /></g>
<g stroke="rgb(0, 0, 0)"><path d="M 121.22402225025982 -111.62281607374412 A 1 1 0 0 1 120.29621467374412 -110.55549554974017" /></g>
<g stroke="rgb(0, 0, 0)"><path d="M129.25,-100.825L147.5,-100.825" /></g>
<g stroke="rgb(0, 0, 0)"><path d="M 147.5 -100.825 A 1.5 1.5 0 0 1 149 -99.325" /></g>
<g stroke="rgb(0, 0, 0)"><path d="M149,-99.325L149,-85.825" /></g>
<g stroke="rgb(0, 0, 0)"><path d="M 149 -85.825 A 1.5 1.5 0 0 1 147.5 -84.325" /></g>
<g stroke="rgb(0, 0, 0)"><path d="M147.5,-84.325L129.25,-84.325" /></g>
<g stroke="rgb(0, 0, 0)"><path d="M 129.25 -84.325 A 1.5 1.5 0 0 1 127.75 -85.825" /></g>
<g stroke="rgb(0, 0, 0)"><path d="M127.75,-85.825L127.75,-99.325" /></g>
<g stroke="rgb(0, 0, 0)"><path d="M 127.75 -99.325 A 1.5 1.5 0 0 1 129.25 -100.825" /></g>
<g stroke="rgb(0, 0, 0)"><path d="M129.25,-83.825L147.5,-83.825" /></g>
<g stroke="rgb(0, 0, 0)"><path d="M 147.5 -83.825 A 1.5 1.5 0 0 1 149 -82.325" /></g>
<g stroke="rgb(0, 0, 0)"><path d="M149,-82.325L149,-68.825" /></g>
<g stroke="rgb(0, 0, 0)"><path d="M 149 -68.825 A 1.5 1.5 0 0 1 147.5 -67.325" /></g>
<g stroke="rgb(0, 0, 0)"><path d="M147.5,-67.325L129.25,-67.325" /></g>
<g stroke="rgb(0, 0, 0)"><path d="M 129.25 -67.325 A 1.5 1.5 0 0 1 127.75 -68.825" /></g>
<g stroke="rgb(0, 0, 0)"><path d="M127.75,-68.825L127.75,-82.325" /></g>
<g stroke="rgb(0, 0, 0)"><path d="M 127.75 -82.325 A 1.5 1.5 0 0 1 129.25 -83.825" /></g>
<g stroke="rgb(0, 0, 0)"><path d="M129.25,-66.825L147.5,-66.825" /></g>
<g stroke="rgb(0, 0, 0)"><path d="M 147.5 -66.825 A 1.5 1.5 0 0 1 149 -65.325" /></g>
<g stroke="rgb(0, 0, 0)"><path d="M149,-65.325L149,-51.825" /></g>
<g stroke="rgb(0, 0, 0)"><path d="M 149 -51.825 A 1.5 1.5 0 0 1 147.5 -50.325" /></g>
<g stroke="rgb(0, 0, 0)"><path d="M147.5,-50.325L129.25,-50.325" /></g>
<g stroke="rgb(0, 0, 0)"><path d="M 129.25 -50.325 A 1.5 1.5 0 0 1 127.75 -51.825" /></g>
<g stroke="rgb(0, 0, 0)"><path d="M127.75,-51.825L127.75,-65.325" /></g>
<g stroke="rgb(0, 0, 0)"><path d="M 127.75 -65.325 A 1.5 1.5 0 0 1 129.25 -66.825" /></g>
<g stroke="rgb(0, 0, 0)"><path d="M151.7614997,-102.4479758L169.9941298,-103.2440296" /></g>
<g stroke="rgb(0, 0, 0)"><path d="M 169.99412981895202 -103.24402963237279 A 1.5 1.5 0 0 1 171.5581312323728 -101.81088638104801" /></g>
<g stroke="rgb(0, 0, 0)"><path d="M171.5581312,-101.8108864L172.1469929,-88.3237354" /></g>
<g stroke="rgb(0, 0, 0)"><path d="M 172.1469929323728 -88.32373538104801 A 1.5 1.5 0 0 1 170.713849681048 -86.75973396762721" /></g>
<g stroke="rgb(0, 0, 0)"><path d="M170.7138497,-86.759734L152.4812196,-85.9636802" /></g>
<g stroke="rgb(0, 0, 0)"><path d="M 152.481219581048 -85.96368016762722 A 1.5 1.5 0 0 1 150.91721816762723 -87.396823418952" /></g>
<g stroke="rgb(0, 0, 0)"><path d="M150.9172182,-87.3968234L150.3283565,-100.8839744" /></g>
<g stroke="rgb(0, 0, 0)"><path d="M 150.3283564676272 -100.883974418952 A 1.5 1.5 0 0 1 151.761499718952 -102.44797583237279" /></g>
<g stroke="rgb(0, 0, 0)"><path d="M152.5030293,-85.464156L170.7356594,-86.2602098" /></g>
<g stroke="rgb(0, 0, 0)"><path d="M 170.735659418952 -86.2602098323728 A 1.5 1.5 0 0 1 172.29966083237278 -84.82706658104802" /></g>
<g stroke="rgb(0, 0, 0)"><path d="M172.2996608,-84.8270666L172.8885225,-71.3399156" /></g>
<g stroke="rgb(0, 0, 0)"><path d="M 172.88852253237278 -71.339915581048 A 1.5 1.5 0 0 1 171.45537928104798 -69.7759141676272" /></g>
<g stroke="rgb(0, 0, 0)"><path d="M171.4553793,-69.7759142L153.2227492,-68.9798604" /></g>
<g stroke="rgb(0, 0, 0)"><path d="M 153.222749181048 -68.97986036762721 A 1.5 1.5 0 0 1 151.6587477676272 -70.41300361895199" /></g>
<g stroke="rgb(0, 0, 0)"><path d="M151.6587478,-70.4130036L151.0698861,-83.9001546" /></g>
<g stroke="rgb(0, 0, 0)"><path d="M 151.0698860676272 -83.90015461895199 A 1.5 1.5 0 0 1 152.503029318952 -85.46415603237278" /></g>
<g stroke="rgb(0, 0, 0)"><path d="M153.2445589,-68.4803362L171.477189,-69.27639" /></g>
<g stroke="rgb(0, 0, 0)"><path d="M 171.477189018952 -69.27639003237279 A 1.5 1.5 0 0 1 173.0411904323728 -67.84324678104801" /></g>
<g stroke="rgb(0, 0, 0)"><path d="M173.0411904,-67.8432468L173.6300521,-54.3560958" /></g>
<g stroke="rgb(0, 0, 0)"><path d="M 173.63005213237278 -54.356095781048005 A 1.5 1.5 0 0 1 172.196908881048 -52.792094367627215" /></g>
<g stroke="rgb(0, 0, 0)"><path d="M172.1969089,-52.7920944L153.9642788,-51.9960406" /></g>
<g stroke="rgb(0, 0, 0)"><path d="M 153.964278781048 -51.99604056762721 A 1.5 1.5 0 0 1 152.4002773676272 -53.429183818952" /></g>
<g stroke="rgb(0, 0, 0)"><path d="M152.4002774,-53.4291838L151.8114157,-66.9163348" /></g>
<g stroke="rgb(0, 0, 0)"><path d="M 151.81141566762722 -66.916334818952 A 1.5 1.5 0 0 1 153.244558918952 -68.48033623237279" /></g>
<g stroke="rgb(0, 0, 0)"><path d="M191.782661,-88.8306339L190.1920687,-107.0111871" /></g>
<g stroke="rgb(0, 0, 0)"><path d="M 190.1920686528624 -107.01118718587851 A 1.5 1.5 0 0 1 191.5556270858785 -108.63621284713761" /></g>
<g stroke="rgb(0, 0, 0)"><path d="M191.5556271,-108.6362128L205.0042555,-109.8128153" /></g>
<g stroke="rgb(0, 0, 0)"><path d="M 205.00425558587852 -109.81281534713762 A 1.5 1.5 0 0 1 206.6292812471376 -108.44925691412148" /></g>
<g stroke="rgb(0, 0, 0)"><path d="M206.6292812,-108.4492569L208.2198735,-90.2687037" /></g>
<g stroke="rgb(0, 0, 0)"><path d="M 208.2198735471376 -90.26870361412148 A 1.5 1.5 0 0 1 206.8563151141215 -88.64367795286238" /></g>
<g stroke="rgb(0, 0, 0)"><path d="M206.8563151,-88.643678L193.4076867,-87.4670755" /></g>
<g stroke="rgb(0, 0, 0)"><path d="M 193.40768661412147 -87.46707545286237 A 1.5 1.5 0 0 1 191.7826609528624 -88.83063388587851" /></g>
<g stroke="rgb(0, 0, 0)"><path d="M193.6782984,-67.1633992L192.0877061,-85.3439524" /></g>
<g stroke="rgb(0, 0, 0)"><path d="M 192.0877060528624 -85.34395248587852 A 1.5 1.5 0 0 1 193.4512644858785 -86.96897814713762" /></g>
<g stroke="rgb(0, 0, 0)"><path d="M193.4512645,-86.9689781L206.8998929,-88.1455806" /></g>
<g stroke="rgb(0, 0, 0)"><path d="M 206.89989298587852 -88.14558064713762 A 1.5 1.5 0 0 1 208.5249186471376 -86.78202221412148" /></g>
<g stroke="rgb(0, 0, 0)"><path d="M208.5249186,-86.7820222L210.1155109,-68.601469" /></g>
<g stroke="rgb(0, 0, 0)"><path d="M 210.1155109471376 -68.60146891412148 A 1.5 1.5 0 0 1 208.75195251412148 -66.97644325286238" /></g>
<g stroke="rgb(0, 0, 0)"><path d="M208.7519525,-66.9764433L195.3033241,-65.7998408" /></g>
<g stroke="rgb(0, 0, 0)"><path d="M 195.30332401412147 -65.79984075286238 A 1.5 1.5 0 0 1 193.67829835286238 -67.16339918587852" /></g>
<g stroke="rgb(0, 0, 0)"><path d="M90.4705999,-136.6975048L85.4402181,-119.1544788" /></g>
<g stroke="rgb(0, 0, 0)"><path d="M 85.44021814390749 -119.1544788662745 A 1.5 1.5 0 0 1 83.5848695662745 -118.12604235609251" /></g>
<g stroke="rgb(0, 0, 0)"><path d="M83.5848695,-118.1260423L70.6078366,-121.8471466" /></g>
<g stroke="rgb(0, 0, 0)"><path d="M 70.60783666627451 -121.84714665609252 A 1.5 1.5 0 0 1 69.57940015609252 -123.7024952337255" /></g>
<g stroke="rgb(0, 0, 0)"><path d="M69.5794001,-123.7024952L74.6097819,-141.2455212" /></g>
<g stroke="rgb(0, 0, 0)"><path d="M 74.60978185609251 -141.2455211337255 A 1.5 1.5 0 0 1 76.46513043372549 -142.27395764390747" /></g>
<g stroke="rgb(0, 0, 0)"><path d="M76.4651305,-142.2739577L89.4421634,-138.5528534" /></g>
<g stroke="rgb(0, 0, 0)"><path d="M 89.44216333372549 -138.55285334390746 A 1.5 1.5 0 0 1 90.47059984390748 -136.69750476627448" /></g>
<g stroke="rgb(0, 0, 0)"><path d="M105.8853915,-130.2349155L103.0304625,-112.2096033" /></g>
<g stroke="rgb(0, 0, 0)"><path d="M 103.0304625108927 -112.20960330243965 A 1.5 1.5 0 0 1 101.31427830243965 -110.96272248910729" /></g>
<g stroke="rgb(0, 0, 0)"><path d="M101.3142783,-110.9627224L87.9804857,-113.0745877" /></g>
<g stroke="rgb(0, 0, 0)"><path d="M 87.98048570243965 -113.07458768910729 A 1.5 1.5 0 0 1 86.7336048891073 -114.79077189756035" /></g>
<g stroke="rgb(0, 0, 0)"><path d="M86.7336049,-114.7907719L89.5885339,-132.8160841" /></g>
<g stroke="rgb(0, 0, 0)"><path d="M 89.5885338891073 -132.81608409756035 A 1.5 1.5 0 0 1 91.30471809756035 -134.06296491089273" /></g>
<g stroke="rgb(0, 0, 0)"><path d="M91.3047181,-134.062965L104.6385107,-131.9510997" /></g>
<g stroke="rgb(0, 0, 0)"><path d="M 104.63851069756035 -131.95109971089272 A 1.5 1.5 0 0 1 105.8853915108927 -130.23491550243966" /></g>
<g stroke="rgb(0, 0, 0)"><path d="M130,-99.575L146.75,-99.575" /></g>
<g stroke="rgb(0, 0, 0)"><path d="M 146.75 -99.575 A 1 1 0 0 1 147.75 -98.575" /></g>
<g stroke="rgb(0, 0, 0)"><path d="M147.75,-98.575L147.75,-86.575" /></g>
<g stroke="rgb(0, 0, 0)"><path d="M 147.75 -86.575 A 1 1 0 0 1 146.75 -85.575" /></g>
<g stroke="rgb(0, 0, 0)"><path d="M146.75,-85.575L130,-85.575" /></g>
<g stroke="rgb(0, 0, 0)"><path d="M 130 -85.575 A 1 1 0 0 1 129 -86.575" /></g>
<g stroke="rgb(0, 0, 0)"><path d="M129,-86.575L129,-98.575" /></g>
<g stroke="rgb(0, 0, 0)"><path d="M 129 -98.575 A 1 1 0 0 1 130 -99.575" /></g>
<g stroke="rgb(0, 0, 0)"><path d="M130,-82.575L146.75,-82.575" /></g>
<g stroke="rgb(0, 0, 0)"><path d="M 146.75 -82.575 A 1 1 0 0 1 147.75 -81.575" /></g>
<g stroke="rgb(0, 0, 0)"><path d="M147.75,-81.575L147.75,-69.575" /></g>
<g stroke="rgb(0, 0, 0)"><path d="M 147.75 -69.575 A 1 1 0 0 1 146.75 -68.575" /></g>
<g stroke="rgb(0, 0, 0)"><path d="M146.75,-68.575L130,-68.575" /></g>
<g stroke="rgb(0, 0, 0)"><path d="M 130 -68.575 A 1 1 0 0 1 129 -69.575" /></g>
<g stroke="rgb(0, 0, 0)"><path d="M129,-69.575L129,-81.575" /></g>
<g stroke="rgb(0, 0, 0)"><path d="M 129 -81.575 A 1 1 0 0 1 130 -82.575" /></g>
<g stroke="rgb(0, 0, 0)"><path d="M130,-65.575L146.75,-65.575" /></g>
<g stroke="rgb(0, 0, 0)"><path d="M 146.75 -65.575 A 1 1 0 0 1 147.75 -64.575" /></g>
<g stroke="rgb(0, 0, 0)"><path d="M147.75,-64.575L147.75,-52.575" /></g>
<g stroke="rgb(0, 0, 0)"><path d="M 147.75 -52.575 A 1 1 0 0 1 146.75 -51.575" /></g>
<g stroke="rgb(0, 0, 0)"><path d="M146.75,-51.575L130,-51.575" /></g>
<g stroke="rgb(0, 0, 0)"><path d="M 130 -51.575 A 1 1 0 0 1 129 -52.575" /></g>
<g stroke="rgb(0, 0, 0)"><path d="M129,-52.575L129,-64.575" /></g>
<g stroke="rgb(0, 0, 0)"><path d="M 129 -64.575 A 1 1 0 0 1 130 -65.575" /></g>
<g stroke="rgb(0, 0, 0)"><path d="M152.5653101,-101.2318801L169.2993678,-101.9625048" /></g>
<g stroke="rgb(0, 0, 0)"><path d="M 169.29936781263467 -101.96250482158186 A 1 1 0 0 1 170.34203542158187 -101.00707598736534" /></g>
<g stroke="rgb(0, 0, 0)"><path d="M170.3420355,-101.007076L170.8654681,-89.0184973" /></g>
<g stroke="rgb(0, 0, 0)"><path d="M 170.86546812158187 -89.01849728736534 A 1 1 0 0 1 169.91003928736535 -87.97582967841814" /></g>
<g stroke="rgb(0, 0, 0)"><path d="M169.9100393,-87.9758297L153.1759816,-87.245205" /></g>
<g stroke="rgb(0, 0, 0)"><path d="M 153.17598158736533 -87.24520497841814 A 1 1 0 0 1 152.13331397841813 -88.20063381263466" /></g>
<g stroke="rgb(0, 0, 0)"><path d="M152.1333139,-88.2006338L151.6098813,-100.1892125" /></g>
<g stroke="rgb(0, 0, 0)"><path d="M 151.60988127841813 -100.18921251263465 A 1 1 0 0 1 152.56531011263465 -101.23188012158185" /></g>
<g stroke="rgb(0, 0, 0)"><path d="M153.3068397,-84.2480603L170.0408974,-84.978685" /></g>
<g stroke="rgb(0, 0, 0)"><path d="M 170.04089741263465 -84.97868502158185 A 1 1 0 0 1 171.08356502158185 -84.02325618736533" /></g>
<g stroke="rgb(0, 0, 0)"><path d="M171.0835651,-84.0232562L171.6069977,-72.0346775" /></g>
<g stroke="rgb(0, 0, 0)"><path d="M 171.60699772158185 -72.03467748736534 A 1 1 0 0 1 170.65156888736533 -70.99200987841814" /></g>
<g stroke="rgb(0, 0, 0)"><path d="M170.6515689,-70.9920099L153.9175112,-70.2613852" /></g>
<g stroke="rgb(0, 0, 0)"><path d="M 153.91751118736533 -70.26138517841814 A 1 1 0 0 1 152.87484357841814 -71.21681401263466" /></g>
<g stroke="rgb(0, 0, 0)"><path d="M152.8748435,-71.216814L152.3514109,-83.2053927" /></g>
<g stroke="rgb(0, 0, 0)"><path d="M 152.35141087841814 -83.20539271263466 A 1 1 0 0 1 153.30683971263466 -84.24806032158186" /></g>
<g stroke="rgb(0, 0, 0)"><path d="M154.0483693,-67.2642405L170.782427,-67.9948652" /></g>
<g stroke="rgb(0, 0, 0)"><path d="M 170.78242701263466 -67.99486522158186 A 1 1 0 0 1 171.82509462158185 -67.03943638736534" /></g>
<g stroke="rgb(0, 0, 0)"><path d="M171.8250947,-67.0394364L172.3485273,-55.0508577" /></g>
<g stroke="rgb(0, 0, 0)"><path d="M 172.34852732158186 -55.05085768736534 A 1 1 0 0 1 171.39309848736534 -54.00819007841814" /></g>
<g stroke="rgb(0, 0, 0)"><path d="M171.3930985,-54.0081901L154.6590408,-53.2775654" /></g>
<g stroke="rgb(0, 0, 0)"><path d="M 154.65904078736534 -53.27756537841814 A 1 1 0 0 1 153.61637317841814 -54.23299421263466" /></g>
<g stroke="rgb(0, 0, 0)"><path d="M153.6163731,-54.2329942L153.0929405,-66.2215729" /></g>
<g stroke="rgb(0, 0, 0)"><path d="M 153.09294047841814 -66.22157291263466 A 1 1 0 0 1 154.04836931263466 -67.26424052158185" /></g>
<g stroke="rgb(0, 0, 0)"><path d="M192.9625376,-89.6867246L191.5026789,-106.3729858" /></g>
<g stroke="rgb(0, 0, 0)"><path d="M 191.50267890190824 -106.37298575725235 A 1 1 0 0 1 192.41171785725234 -107.45633619809175" /></g>
<g stroke="rgb(0, 0, 0)"><path d="M192.4117178,-107.4563362L204.3660542,-108.5022052" /></g>
<g stroke="rgb(0, 0, 0)"><path d="M 204.36605415725234 -108.50220519809174 A 1 1 0 0 1 205.44940459809175 -107.59316624274766" /></g>
<g stroke="rgb(0, 0, 0)"><path d="M205.4494046,-107.5931662L206.9092633,-90.906905" /></g>
<g stroke="rgb(0, 0, 0)"><path d="M 206.90926329809176 -90.90690504274765 A 1 1 0 0 1 206.00022434274766 -89.82355460190826" /></g>
<g stroke="rgb(0, 0, 0)"><path d="M206.0002244,-89.8235546L194.045888,-88.7776856" /></g>
<g stroke="rgb(0, 0, 0)"><path d="M 194.04588804274766 -88.77768560190826 A 1 1 0 0 1 192.96253760190825 -89.68672455725235" /></g>
<g stroke="rgb(0, 0, 0)"><path d="M194.858175,-68.0194899L193.3983163,-84.7057511" /></g>
<g stroke="rgb(0, 0, 0)"><path d="M 193.39831630190824 -84.70575105725234 A 1 1 0 0 1 194.30735525725234 -85.78910149809174" /></g>
<g stroke="rgb(0, 0, 0)"><path d="M194.3073552,-85.7891015L206.2616916,-86.8349705" /></g>
<g stroke="rgb(0, 0, 0)"><path d="M 206.26169155725233 -86.83497049809174 A 1 1 0 0 1 207.34504199809174 -85.92593154274765" /></g>
<g stroke="rgb(0, 0, 0)"><path d="M207.345042,-85.9259315L208.8049007,-69.2396703" /></g>
<g stroke="rgb(0, 0, 0)"><path d="M 208.80490069809176 -69.23967034274766 A 1 1 0 0 1 207.89586174274766 -68.15631990190826" /></g>
<g stroke="rgb(0, 0, 0)"><path d="M207.8958618,-68.1563199L195.9415254,-67.1104509" /></g>
<g stroke="rgb(0, 0, 0)"><path d="M 195.94152544274766 -67.11045090190825 A 1 1 0 0 1 194.85817500190825 -68.01948985725234" /></g>
<g stroke="rgb(0, 0, 0)"><path d="M89.0622947,-136.3211052L84.445369,-120.2199718" /></g>
<g stroke="rgb(0, 0, 0)"><path d="M 84.44536899593832 -120.21997184418301 A 1 1 0 0 1 83.20846994418301 -119.53434750406169" /></g>
<g stroke="rgb(0, 0, 0)"><path d="M83.20847,-119.5343475L71.6733296,-122.8419957" /></g>
<g stroke="rgb(0, 0, 0)"><path d="M 71.673329644183 -122.84199570406169 A 1 1 0 0 1 70.98770530406168 -124.078894755817" /></g>
<g stroke="rgb(0, 0, 0)"><path d="M70.9877053,-124.0788948L75.604631,-140.1800282" /></g>
<g stroke="rgb(0, 0, 0)"><path d="M 75.60463100406169 -140.18002815581698 A 1 1 0 0 1 76.841530055817 -140.86565249593832" /></g>
<g stroke="rgb(0, 0, 0)"><path d="M76.84153,-140.8656525L88.3766704,-137.5580043" /></g>
<g stroke="rgb(0, 0, 0)"><path d="M 88.376670355817 -137.55800429593833 A 1 1 0 0 1 89.06229469593832 -136.321105244183" /></g>
<g stroke="rgb(0, 0, 0)"><path d="M104.5334552,-129.6896923L101.9131779,-113.1459126" /></g>
<g stroke="rgb(0, 0, 0)"><path d="M 101.91317794059515 -113.14591263495977 A 1 1 0 0 1 100.76905513495977 -112.31465875940486" /></g>
<g stroke="rgb(0, 0, 0)"><path d="M100.7690551,-112.3146587L88.916795,-114.1918723" /></g>
<g stroke="rgb(0, 0, 0)"><path d="M 88.91679503495976 -114.19187225940486 A 1 1 0 0 1 88.08554115940485 -115.33599506504024" /></g>
<g stroke="rgb(0, 0, 0)"><path d="M88.0855412,-115.3359951L90.7058185,-131.8797748" /></g>
<g stroke="rgb(0, 0, 0)"><path d="M 90.70581845940485 -131.87977476504022 A 1 1 0 0 1 91.84994126504023 -132.71102864059512" /></g>
<g stroke="rgb(0, 0, 0)"><path d="M91.8499413,-132.7110287L103.7022014,-130.8338151" /></g>
<g stroke="rgb(0, 0, 0)"><path d="M 103.70220136504024 -130.83381514059514 A 1 1 0 0 1 104.53345524059515 -129.68969233495977" /></g>
<g stroke="rgb(0, 0, 0)"><path d="M73.55,-95.5L88.05,-95.5" /></g>
<g stroke="rgb(0, 0, 0)"><path d="M89.8,-93.75L89.8,-64.25" /></g>
<g stroke="rgb(0, 0, 0)"><path d="M88.05,-62.5L73.55,-62.5" /></g>
<g stroke="rgb(0, 0, 0)"><path d="M71.8,-64.25L71.8,-93.75" /></g>
<g stroke="rgb(0, 0, 0)"><path d="M 88.05 -95.5 A 1.75 1.75 0 0 1 89.8 -93.75" /></g>
<g stroke="rgb(0, 0, 0)"><path d="M 89.8 -64.25 A 1.75 1.75 0 0 1 88.05 -62.5" /></g>
<g stroke="rgb(0, 0, 0)"><path d="M 73.55 -62.5 A 1.75 1.75 0 0 1 71.8 -64.25" /></g>
<g stroke="rgb(0, 0, 0)"><path d="M 71.8 -93.75 A 1.75 1.75 0 0 1 73.55 -95.5" /></g>
<g stroke="rgb(0, 0, 0)"><path d="M87.675,-101L79.925,-101" /></g>
<g stroke="rgb(0, 0, 0)"><path d="M79.925,-101L79.925,-107" /></g>
<g stroke="rgb(0, 0, 0)"><path d="M79.925,-107L87.675,-107" /></g>
<g stroke="rgb(0, 0, 0)"><path d="M87.675,-107L87.675,-101" /></g>
<g stroke="rgb(0, 0, 0)"><path d="M73.4,-65.255L82.2,-65.255" /></g>
<g stroke="rgb(0, 0, 0)"><path d="M82.2,-65.255L82.2,-60.705" /></g>
<g stroke="rgb(0, 0, 0)"><path d="M82.2,-60.705L73.4,-60.705" /></g>
<g stroke="rgb(0, 0, 0)"><path d="M73.4,-60.705L73.4,-65.255" /></g>
<g stroke="rgb(0, 0, 0)"><path d="M83.875,-64.35L89.825,-64.35" /></g>
<g stroke="rgb(0, 0, 0)"><path d="M89.825,-64.35L89.825,-60.85" /></g>
<g stroke="rgb(0, 0, 0)"><path d="M89.825,-60.85L83.875,-60.85" /></g>
<g stroke="rgb(0, 0, 0)"><path d="M83.875,-60.85L83.875,-64.35" /></g>
<g stroke="rgb(0, 0, 0)"><circle cx="108.5" cy="-58" r="1.1" /></g>
<g stroke="rgb(0, 0, 0)"><circle cx="107" cy="-127.5" r="1.1" /></g>
<g stroke="rgb(0, 0, 0)"><circle cx="150.375" cy="-56.075" r="1.1" /></g>
<g stroke="rgb(0, 0, 0)"><circle cx="150.375" cy="-107.925" r="1.1" /></g>
<g stroke="rgb(0, 0, 0)"><circle cx="205.116" cy="-68.15" r="1.1" /></g>
<g stroke="rgb(0, 0, 0)"><circle cx="73.8" cy="-104" r="1.1" /></g>
<g stroke="rgb(0, 0, 0)"><circle cx="201.629" cy="-107.925" r="1.1" /></g>
<g stroke="rgb(0, 0, 0)"><circle cx="86" cy="-119.675" r="2.2" /></g>
<g stroke="rgb(0, 0, 0)"><circle cx="129.625" cy="-84.075" r="2.2" /></g>
<g stroke="rgb(0, 0, 0)"><circle cx="192.5744222" cy="-86.5158319" r="2.2" /></g>
<g stroke="rgb(0, 0, 0)"><circle cx="86" cy="-119.675" r="2.05" /></g>
<g stroke="rgb(0, 0, 0)"><circle cx="129.625" cy="-84.075" r="2.05" /></g>
<g stroke="rgb(0, 0, 0)"><circle cx="192.5744222" cy="-86.5158319" r="2.05" /></g>
<g stroke="rgb(0, 0, 0)"><circle cx="108.5" cy="-58" r="2.05" /></g>
<g stroke="rgb(0, 0, 0)"><circle cx="107" cy="-127.5" r="2.05" /></g>
<g stroke="rgb(0, 0, 0)"><circle cx="150.375" cy="-56.075" r="2.05" /></g>
<g stroke="rgb(0, 0, 0)"><circle cx="150.375" cy="-107.925" r="2.05" /></g>
<g stroke="rgb(0, 0, 0)"><circle cx="205.116" cy="-68.15" r="2.05" /></g>
<g stroke="rgb(0, 0, 0)"><circle cx="73.8" cy="-104" r="2.05" /></g>
<g stroke="rgb(0, 0, 0)"><circle cx="201.629" cy="-107.925" r="2.05" /></g>
  </g>
</svg>