0
SECTION
2
HEADER
9
$INSUNITS
70
4
0
ENDSEC
0
SECTION
2
TABLES
0
TABLE
2
LTYPE
0
LTYPE
72
65
70
64
2
CONTINUOUS
3
______
73
0
40
0
0
ENDTAB
0
TABLE
2
LAYER
0
ENDTAB
0
ENDSEC
0
SECTION
2
ENTITIES
0
ARC
8
0
10
137.375
20
-240.075
40
190.5
50
67.8388652
51
103.5376858
0
ARC
8
0
10
93.2499999
20
-56.8122532
40
2
50
103.5376858
51
180
0
LINE
8
0
10
91.25
20
-98.1081509
11
91.25
21
-56.8125694
0
ARC
8
0
10
90.25
20
-98.1081509
40
1
50
350.3893125
51
360
0
ARC
8
0
10
62.15
20
-93.35
40
29.5
50
287.319404
51
350.3893125
0
ARC
8
0
10
71.5274933
20
-123.4217911
40
2
50
107.319404
51
196.0000024
0
LINE
8
0
10
74.4879156
20
-141.0019203
11
69.6050572
21
-123.9733698
0
ARC
8
0
10
76.410439
20
-140.4506455
40
2
50
196.0104634
51
280.6244859
0
ARC
8
0
10
50.875
20
-4.325
40
140.5
50
280.6246151
51
299.7123817
0
ARC
8
0
10
119.5220222
20
-124.6156328
40
2
50
299.7123817
51
302.0000016
0
LINE
8
0
10
121.8932666
20
-125.4922717
11
120.5818607
21
-126.311729
0
ARC
8
0
10
120.8334281
20
-123.7961755
40
2
50
302.0000016
51
309.2858145
0
ARC
8
0
10
157.875
20
-169.075
40
56.5
50
87.2549415
51
129.2858145
0
ARC
8
0
10
160.6770065
20
-110.6421432
40
2
50
267.2546223
51
269.0000004
0
LINE
8
0
10
204.4283991
20
-113.4061311
11
160.6421017
21
-112.6418385
0
ARC
8
0
10
204.4633039
20
-111.4064358
40
2
50
269.0000004
51
355.0000024
0
LINE
8
0
10
210.4719364
20
-65.6748795
11
206.4557208
21
-111.5804322
0
ARC
8
0
10
208.4795861
20
-65.5001225
40
2
50
355.0000024
51
427.8388652
0
LINE
8
0
10
93.1
20
-106.9
11
106.9
21
-106.9
0
LINE
8
0
10
106.9
20
-106.9
11
106.9
21
-93.1
0
LINE
8
0
10
106.9
20
-93.1
11
93.1
21
-93.1
0
LINE
8
0
10
93.1
20
-93.1
11
93.1
21
-106.9
0
LINE
8
0
10
93.1
20
-89.9
11
106.9
21
-89.9
0
LINE
8
0
10
106.9
20
-89.9
11
106.9
21
-76.1
0
LINE
8
0
10
106.9
20
-76.1
11
93.1
21
-76.1
0
LINE
8
0
10
93.1
20
-76.1
11
93.1
21
-89.9
0
LINE
8
0
10
93.1
20
-72.9
11
106.9
21
-72.9
0
LINE
8
0
10
106.9
20
-72.9
11
106.9
21
-59.1
0
LINE
8
0
10
106.9
20
-59.1
11
93.1
21
-59.1
0
LINE
8
0
10
93.1
20
-59.1
11
93.1
21
-72.9
0
LINE
8
0
10
110.1
20
-106.9
11
123.9
21
-106.9
0
LINE
8
0
10
123.9
20
-106.9
11
123.9
21
-93.1
0
LINE
8
0
10
123.9
20
-93.1
11
110.1
21
-93.1
0
LINE
8
0
10
110.1
20
-93.1
11
110.1
21
-106.9
0
LINE
8
0
10
110.1
20
-89.9
11
123.9
21
-89.9
0
LINE
8
0
10
123.9
20
-89.9
11
123.9
21
-76.1
0
LINE
8
0
10
123.9
20
-76.1
11
110.1
21
-76.1
0
LINE
8
0
10
110.1
20
-76.1
11
110.1
21
-89.9
0
LINE
8
0
10
110.1
20
-72.9
11
123.9
21
-72.9
0
LINE
8
0
10
123.9
20
-72.9
11
123.9
21
-59.1
0
LINE
8
0
10
123.9
20
-59.1
11
110.1
21
-59.1
0
LINE
8
0
10
110.1
20
-59.1
11
110.1
21
-72.9
0
LINE
8
0
10
131.475
20
-99.475
11
145.275
21
-99.475
0
LINE
8
0
10
145.275
20
-99.475
11
145.275
21
-85.675
0
LINE
8
0
10
145.275
20
-85.675
11
131.475
21
-85.675
0
LINE
8
0
10
131.475
20
-85.675
11
131.475
21
-99.475
0
LINE
8
0
10
131.475
20
-82.475
11
145.275
21
-82.475
0
LINE
8
0
10
145.275
20
-82.475
11
145.275
21
-68.675
0
LINE
8
0
10
145.275
20
-68.675
11
131.475
21
-68.675
0
LINE
8
0
10
131.475
20
-68.675
11
131.475
21
-82.475
0
LINE
8
0
10
131.475
20
-65.475
11
145.275
21
-65.475
0
LINE
8
0
10
145.275
20
-65.475
11
145.275
21
-51.675
0
LINE
8
0
10
145.275
20
-51.675
11
131.475
21
-51.675
0
LINE
8
0
10
131.475
20
-51.675
11
131.475
21
-65.475
0
LINE
8
0
10
154.0432682
20
-101.1963139
11
167.8301337
21
-101.7982614
0
LINE
8
0
10
167.8301337
20
-101.7982614
11
168.4320812
21
-88.0113959
0
LINE
8
0
10
168.4320812
20
-88.0113959
11
154.6452157
21
-87.4094484
0
LINE
8
0
10
154.6452157
20
-87.4094484
11
154.0432682
21
-101.1963139
0
LINE
8
0
10
154.7847978
20
-84.2124941
11
168.5716633
21
-84.8144416
0
LINE
8
0
10
168.5716633
20
-84.8144416
11
169.1736108
21
-71.0275761
0
LINE
8
0
10
169.1736108
20
-71.0275761
11
155.3867453
21
-70.4256286
0
LINE
8
0
10
155.3867453
20
-70.4256286
11
154.7847978
21
-84.2124941
0
LINE
8
0
10
155.5263274
20
-67.2286743
11
169.3131929
21
-67.8306218
0
LINE
8
0
10
169.3131929
20
-67.8306218
11
169.9151404
21
-54.0437563
0
LINE
8
0
10
169.9151404
20
-54.0437563
11
156.1282749
21
-53.4418088
0
LINE
8
0
10
156.1282749
20
-53.4418088
11
155.5263274
21
-67.2286743
0
LINE
8
0
10
174.2726088
20
-109.4078348
11
188.0200956
21
-110.610584
0
LINE
8
0
10
188.0200956
20
-110.610584
11
189.2228448
21
-96.8630972
0
LINE
8
0
10
189.2228448
20
-96.8630972
11
175.475358
21
-95.660348
0
LINE
8
0
10
175.475358
20
-95.660348
11
174.2726088
21
-109.4078348
0
LINE
8
0
10
175.7542564
20
-92.4725249
11
189.5017432
21
-93.6752741
0
LINE
8
0
10
189.5017432
20
-93.6752741
11
190.7044924
21
-79.9277873
0
LINE
8
0
10
190.7044924
20
-79.9277873
11
176.9570056
21
-78.7250381
0
LINE
8
0
10
176.9570056
20
-78.7250381
11
175.7542564
21
-92.4725249
0
LINE
8
0
10
177.235904
20
-75.537215
11
190.9833908
21
-76.7399642
0
LINE
8
0
10
190.9833908
20
-76.7399642
11
192.18614
21
-62.9924774
0
LINE
8
0
10
192.18614
20
-62.9924774
11
178.4386532
21
-61.7897282
0
LINE
8
0
10
178.4386532
20
-61.7897282
11
177.235904
21
-75.537215
0
LINE
8
0
10
192.9336023
20
-91.1648274
11
191.7308531
21
-104.9123142
0
LINE
8
0
10
191.7308531
20
-104.9123142
11
205.4783399
21
-106.1150634
0
LINE
8
0
10
205.4783399
20
-106.1150634
11
206.6810891
21
-92.3675766
0
LINE
8
0
10
206.6810891
20
-92.3675766
11
192.9336023
21
-91.1648274
0
LINE
8
0
10
194.8292397
20
-69.4975927
11
193.6264905
21
-83.2450795
0
LINE
8
0
10
193.6264905
20
-83.2450795
11
207.3739773
21
-84.4478287
0
LINE
8
0
10
207.3739773
20
-84.4478287
11
208.5767265
21
-70.7003419
0
LINE
8
0
10
208.5767265
20
-70.7003419
11
194.8292397
21
-69.4975927
0
LINE
8
0
10
88.5596035
20
-134.9308079
11
84.7558079
21
-121.6653965
0
LINE
8
0
10
84.7558079
20
-121.6653965
11
71.4903965
21
-125.4691921
0
LINE
8
0
10
71.4903965
20
-125.4691921
11
75.2941921
21
-138.7346035
0
LINE
8
0
10
75.2941921
20
-138.7346035
11
88.5596035
21
-134.9308079
0
LINE
8
0
10
104.2039456
20
-128.2484954
11
102.0451499
21
-114.6183963
0
LINE
8
0
10
102.0451499
20
-114.6183963
11
88.4150508
21
-116.777192
0
LINE
8
0
10
88.4150508
20
-116.777192
11
90.5738465
21
-130.4072911
0
LINE
8
0
10
90.5738465
20
-130.4072911
11
104.2039456
21
-128.2484954
0
LINE
8
0
10
121.1870467
20
-110.7180328
11
107.4206628
21
-109.7553935
0
LINE
8
0
10
107.4206628
20
-109.7553935
11
106.4580235
21
-123.5217774
0
LINE
8
0
10
106.4580235
20
-123.5217774
11
120.2244074
21
-124.4844167
0
LINE
8
0
10
120.2244074
20
-124.4844167
11
121.1870467
21
-110.7180328
0
ENDSEC
0
EOF