0
SECTION
2
HEADER
9
$INSUNITS
70
4
0
ENDSEC
0
SECTION
2
TABLES
0
TABLE
2
LTYPE
0
LTYPE
72
65
70
64
2
CONTINUOUS
3
______
73
0
40
0
0
ENDTAB
0
TABLE
2
LAYER
0
ENDTAB
0
ENDSEC
0
SECTION
2
ENTITIES
0
LINE
8
0
10
52.5
20
-43.5
11
57.5
21
-43.5
0
LINE
8
0
10
57.5
20
-43.5
11
57.5
21
-38.5
0
LINE
8
0
10
57.5
20
-38.5
11
52.5
21
-38.5
0
LINE
8
0
10
52.5
20
-38.5
11
52.5
21
-43.5
0
LINE
8
0
10
52.5
20
-148.5
11
57.5
21
-148.5
0
LINE
8
0
10
57.5
20
-148.5
11
57.5
21
-143.5
0
LINE
8
0
10
57.5
20
-143.5
11
52.5
21
-143.5
0
LINE
8
0
10
52.5
20
-143.5
11
52.5
21
-148.5
0
ARC
8
0
10
135.375
20
-240.075
40
190.5
50
68.1555056
51
102.7729171
0
ARC
8
0
10
93.6999999
20
-56.239627
40
2
50
102.7729171
51
180
0
LINE
8
0
10
91.7
20
-92.7778889
11
91.7
21
-56.2399432
0
ARC
8
0
10
92.1479583
20
-93
40
0.5
50
153.6264127
51
180.6684621
0
ARC
8
0
10
62.15
20
-93.35
40
29.5
50
287.3200129
51
360.6684659
0
ARC
8
0
10
71.5274932
20
-123.4217911
40
2
50
107.3194038
51
196.0000024
0
LINE
8
0
10
74.4892568
20
-141.006598
11
69.6050571
21
-123.9733698
0
ARC
8
0
10
76.4118672
20
-140.4556272
40
2
50
196.0000024
51
280.8356123
0
ARC
8
0
10
50.375
20
-4.425
40
140.5
50
280.8356123
51
298.5627477
0
ARC
8
0
10
116.5947466
20
-126.0687222
40
2
50
298.5732084
51
302.500001
0
LINE
8
0
10
122.0535831
20
-124.9624378
11
117.6693458
21
-127.7555051
0
ARC
8
0
10
120.9789839
20
-123.2756549
40
2
50
302.500001
51
308.473611
0
ARC
8
0
10
157.375
20
-169.075
40
56.5
50
88.7794185
51
128.473611
0
ARC
8
0
10
158.5891886
20
-112.0879335
40
0.5
50
268.7794185
51
290.1485056
0
LINE
8
0
10
201.4174948
20
-113.4508524
11
158.7614159
21
-112.557335
0
ARC
8
0
10
201.4593795
20
-111.4512911
40
2
50
268.8000012
51
355.0000024
0
LINE
8
0
10
207.5060933
20
-65.2844633
11
203.4517964
21
-111.6252875
0
ARC
8
0
10
205.5137315
20
-65.1098368
40
2
50
355.0000024
51
428.1450432
0
LINE
8
0
10
93.1
20
-106.9
11
106.9
21
-106.9
0
LINE
8
0
10
106.9
20
-106.9
11
106.9
21
-93.1
0
LINE
8
0
10
106.9
20
-93.1
11
93.1
21
-93.1
0
LINE
8
0
10
93.1
20
-93.1
11
93.1
21
-106.9
0
LINE
8
0
10
93.1
20
-89.9
11
106.9
21
-89.9
0
LINE
8
0
10
106.9
20
-89.9
11
106.9
21
-76.1
0
LINE
8
0
10
106.9
20
-76.1
11
93.1
21
-76.1
0
LINE
8
0
10
93.1
20
-76.1
11
93.1
21
-89.9
0
LINE
8
0
10
93.1
20
-72.9
11
106.9
21
-72.9
0
LINE
8
0
10
106.9
20
-72.9
11
106.9
21
-59.1
0
LINE
8
0
10
106.9
20
-59.1
11
93.1
21
-59.1
0
LINE
8
0
10
93.1
20
-59.1
11
93.1
21
-72.9
0
LINE
8
0
10
110.1
20
-106.9
11
123.9
21
-106.9
0
LINE
8
0
10
123.9
20
-106.9
11
123.9
21
-93.1
0
LINE
8
0
10
123.9
20
-93.1
11
110.1
21
-93.1
0
LINE
8
0
10
110.1
20
-93.1
11
110.1
21
-106.9
0
LINE
8
0
10
110.1
20
-89.9
11
123.9
21
-89.9
0
LINE
8
0
10
123.9
20
-89.9
11
123.9
21
-76.1
0
LINE
8
0
10
123.9
20
-76.1
11
110.1
21
-76.1
0
LINE
8
0
10
110.1
20
-76.1
11
110.1
21
-89.9
0
LINE
8
0
10
110.1
20
-72.9
11
123.9
21
-72.9
0
LINE
8
0
10
123.9
20
-72.9
11
123.9
21
-59.1
0
LINE
8
0
10
123.9
20
-59.1
11
110.1
21
-59.1
0
LINE
8
0
10
110.1
20
-59.1
11
110.1
21
-72.9
0
LINE
8
0
10
129.475
20
-99.475
11
143.275
21
-99.475
0
LINE
8
0
10
143.275
20
-99.475
11
143.275
21
-85.675
0
LINE
8
0
10
143.275
20
-85.675
11
129.475
21
-85.675
0
LINE
8
0
10
129.475
20
-85.675
11
129.475
21
-99.475
0
LINE
8
0
10
129.475
20
-82.475
11
143.275
21
-82.475
0
LINE
8
0
10
143.275
20
-82.475
11
143.275
21
-68.675
0
LINE
8
0
10
143.275
20
-68.675
11
129.475
21
-68.675
0
LINE
8
0
10
129.475
20
-68.675
11
129.475
21
-82.475
0
LINE
8
0
10
129.475
20
-65.475
11
143.275
21
-65.475
0
LINE
8
0
10
143.275
20
-65.475
11
143.275
21
-51.675
0
LINE
8
0
10
143.275
20
-51.675
11
129.475
21
-51.675
0
LINE
8
0
10
129.475
20
-51.675
11
129.475
21
-65.475
0
LINE
8
0
10
151.0432682
20
-101.1963139
11
164.8301337
21
-101.7982614
0
LINE
8
0
10
164.8301337
20
-101.7982614
11
165.4320812
21
-88.0113959
0
LINE
8
0
10
165.4320812
20
-88.0113959
11
151.6452157
21
-87.4094484
0
LINE
8
0
10
151.6452157
20
-87.4094484
11
151.0432682
21
-101.1963139
0
LINE
8
0
10
151.7847978
20
-84.2124941
11
165.5716633
21
-84.8144416
0
LINE
8
0
10
165.5716633
20
-84.8144416
11
166.1736108
21
-71.0275761
0
LINE
8
0
10
166.1736108
20
-71.0275761
11
152.3867453
21
-70.4256286
0
LINE
8
0
10
152.3867453
20
-70.4256286
11
151.7847978
21
-84.2124941
0
LINE
8
0
10
152.5263274
20
-67.2286743
11
166.3131929
21
-67.8306218
0
LINE
8
0
10
166.3131929
20
-67.8306218
11
166.9151404
21
-54.0437563
0
LINE
8
0
10
166.9151404
20
-54.0437563
11
153.1282749
21
-53.4418088
0
LINE
8
0
10
153.1282749
20
-53.4418088
11
152.5263274
21
-67.2286743
0
LINE
8
0
10
171.2726088
20
-109.4078348
11
185.0200956
21
-110.610584
0
LINE
8
0
10
185.0200956
20
-110.610584
11
186.2228448
21
-96.8630972
0
LINE
8
0
10
186.2228448
20
-96.8630972
11
172.475358
21
-95.660348
0
LINE
8
0
10
172.475358
20
-95.660348
11
171.2726088
21
-109.4078348
0
LINE
8
0
10
172.7542564
20
-92.4725249
11
186.5017432
21
-93.6752741
0
LINE
8
0
10
186.5017432
20
-93.6752741
11
187.7044924
21
-79.9277873
0
LINE
8
0
10
187.7044924
20
-79.9277873
11
173.9570056
21
-78.7250381
0
LINE
8
0
10
173.9570056
20
-78.7250381
11
172.7542564
21
-92.4725249
0
LINE
8
0
10
174.235904
20
-75.537215
11
187.9833908
21
-76.7399642
0
LINE
8
0
10
187.9833908
20
-76.7399642
11
189.18614
21
-62.9924774
0
LINE
8
0
10
189.18614
20
-62.9924774
11
175.4386532
21
-61.7897282
0
LINE
8
0
10
175.4386532
20
-61.7897282
11
174.235904
21
-75.537215
0
LINE
8
0
10
189.9336023
20
-91.1648274
11
188.7308531
21
-104.9123142
0
LINE
8
0
10
188.7308531
20
-104.9123142
11
202.4783399
21
-106.1150634
0
LINE
8
0
10
202.4783399
20
-106.1150634
11
203.6810891
21
-92.3675766
0
LINE
8
0
10
203.6810891
20
-92.3675766
11
189.9336023
21
-91.1648274
0
LINE
8
0
10
191.8292397
20
-69.4975927
11
190.6264905
21
-83.2450795
0
LINE
8
0
10
190.6264905
20
-83.2450795
11
204.3739773
21
-84.4478287
0
LINE
8
0
10
204.3739773
20
-84.4478287
11
205.5767265
21
-70.7003419
0
LINE
8
0
10
205.5767265
20
-70.7003419
11
191.8292397
21
-69.4975927
0
LINE
8
0
10
88.5596035
20
-134.9308079
11
84.7558079
21
-121.6653965
0
LINE
8
0
10
84.7558079
20
-121.6653965
11
71.4903965
21
-125.4691921
0
LINE
8
0
10
71.4903965
20
-125.4691921
11
75.2941921
21
-138.7346035
0
LINE
8
0
10
75.2941921
20
-138.7346035
11
88.5596035
21
-134.9308079
0
LINE
8
0
10
104.2039456
20
-128.2484954
11
102.0451499
21
-114.6183963
0
LINE
8
0
10
102.0451499
20
-114.6183963
11
88.4150508
21
-116.777192
0
LINE
8
0
10
88.4150508
20
-116.777192
11
90.5738465
21
-130.4072911
0
LINE
8
0
10
90.5738465
20
-130.4072911
11
104.2039456
21
-128.2484954
0
LINE
8
0
10
120.2244074
20
-124.4844167
11
121.1870467
21
-110.7180328
0
LINE
8
0
10
121.1870467
20
-110.7180328
11
107.4206628
21
-109.7553935
0
LINE
8
0
10
107.4206628
20
-109.7553935
11
106.4580235
21
-123.5217774
0
LINE
8
0
10
106.4580235
20
-123.5217774
11
120.2244074
21
-124.4844167
0
ENDSEC
0
EOF