<?xml version="1.0"?>
<svg
  xmlns="http://www.w3.org/2000/svg"
  xmlns:xlink="http://www.w3.org/1999/xlink" version="1.1"
  preserveAspectRatio="xMinYMin meet"
  viewBox="69.5274933 49.57499999999999 140.9520928 92.87564550000002"
  width="100%" height="100%"
>
  <g stroke="#000000" stroke-width="0.1%" fill="none" transform="matrix(1,0,0,-1,0,0)">
    <g stroke="rgb(0, 0, 0)"><path d="M 209.23401137239844 -63.647869193591674 A 190.5 190.5 0 0 1 92.78183013905479 -54.8678208687555" /></g>
<g stroke="rgb(0, 0, 0)"><path d="M 92.78183013768037 -54.867820873162785 A 2 2 0 0 1 91.2499999 -56.8122532" /></g>
<g stroke="rgb(0, 0, 0)"><path d="M91.25,-98.1081509L91.25,-56.8125694" /></g>
<g stroke="rgb(0, 0, 0)"><path d="M 91.23596491219871 -98.27510356368944 A 1 1 0 0 1 91.25 -98.1081509" /></g>
<g stroke="rgb(0, 0, 0)"><path d="M 70.93209689503678 -121.51247102308648 A 29.5 29.5 0 0 1 91.23596490986179 -98.27510357883855" /></g>
<g stroke="rgb(0, 0, 0)"><path d="M 70.93209690033649 -121.5124710306382 A 2 2 0 0 1 69.60496993121511 -123.97306589216446" /></g>
<g stroke="rgb(0, 0, 0)"><path d="M74.4879156,-141.0019203L69.6050572,-123.9733698" /></g>
<g stroke="rgb(0, 0, 0)"><path d="M 74.48801631439957 -141.00227129516267 A 2 2 0 0 1 76.77918180127044 -142.41635879204216" /></g>
<g stroke="rgb(0, 0, 0)"><path d="M 76.7794931804177 -142.4163003525772 A 140.5 140.5 0 0 1 120.51331489735246 -126.35268168844796" /></g>
<g stroke="rgb(0, 0, 0)"><path d="M 120.51331493875234 -126.35268164965763 A 2 2 0 0 1 120.58186077583035 -126.31172896271657" /></g>
<g stroke="rgb(0, 0, 0)"><path d="M121.8932666,-125.4922717L120.5818607,-126.311729" /></g>
<g stroke="rgb(0, 0, 0)"><path d="M 121.89326667583036 -125.49227166271658 A 2 2 0 0 1 122.09980662601892 -125.3441695015511" /></g>
<g stroke="rgb(0, 0, 0)"><path d="M 160.58089699539872 -112.6398325824199 A 56.5 56.5 0 0 1 122.09980663996569 -125.34416945618162" /></g>
<g stroke="rgb(0, 0, 0)"><path d="M 160.5812114061661 -112.6398477076781 A 2 2 0 0 1 160.64210170108595 -112.64183859055647" /></g>
<g stroke="rgb(0, 0, 0)"><path d="M204.4283991,-113.4061311L160.6421017,-112.6418385" /></g>
<g stroke="rgb(0, 0, 0)"><path d="M 204.42839910108594 -113.40613119055647 A 2 2 0 0 1 206.45569330348502 -111.5807472020383" /></g>
<g stroke="rgb(0, 0, 0)"><path d="M210.4719364,-65.6748795L206.4557208,-111.5804322" /></g>
<g stroke="rgb(0, 0, 0)"><path d="M 210.47197550348503 -65.6744339020383 A 2 2 0 0 1 209.23401141624566 -63.64786915820044" /></g>
<g stroke="rgb(0, 0, 0)"><path d="M93.1,-106.9L106.9,-106.9" /></g>
<g stroke="rgb(0, 0, 0)"><path d="M106.9,-106.9L106.9,-93.1" /></g>
<g stroke="rgb(0, 0, 0)"><path d="M106.9,-93.1L93.1,-93.1" /></g>
<g stroke="rgb(0, 0, 0)"><path d="M93.1,-93.1L93.1,-106.9" /></g>
<g stroke="rgb(0, 0, 0)"><path d="M93.1,-89.9L106.9,-89.9" /></g>
<g stroke="rgb(0, 0, 0)"><path d="M106.9,-89.9L106.9,-76.1" /></g>
<g stroke="rgb(0, 0, 0)"><path d="M106.9,-76.1L93.1,-76.1" /></g>
<g stroke="rgb(0, 0, 0)"><path d="M93.1,-76.1L93.1,-89.9" /></g>
<g stroke="rgb(0, 0, 0)"><path d="M93.1,-72.9L106.9,-72.9" /></g>
<g stroke="rgb(0, 0, 0)"><path d="M106.9,-72.9L106.9,-59.1" /></g>
<g stroke="rgb(0, 0, 0)"><path d="M106.9,-59.1L93.1,-59.1" /></g>
<g stroke="rgb(0, 0, 0)"><path d="M93.1,-59.1L93.1,-72.9" /></g>
<g stroke="rgb(0, 0, 0)"><path d="M110.1,-106.9L123.9,-106.9" /></g>
<g stroke="rgb(0, 0, 0)"><path d="M123.9,-106.9L123.9,-93.1" /></g>
<g stroke="rgb(0, 0, 0)"><path d="M123.9,-93.1L110.1,-93.1" /></g>
<g stroke="rgb(0, 0, 0)"><path d="M110.1,-93.1L110.1,-106.9" /></g>
<g stroke="rgb(0, 0, 0)"><path d="M110.1,-89.9L123.9,-89.9" /></g>
<g stroke="rgb(0, 0, 0)"><path d="M123.9,-89.9L123.9,-76.1" /></g>
<g stroke="rgb(0, 0, 0)"><path d="M123.9,-76.1L110.1,-76.1" /></g>
<g stroke="rgb(0, 0, 0)"><path d="M110.1,-76.1L110.1,-89.9" /></g>
<g stroke="rgb(0, 0, 0)"><path d="M110.1,-72.9L123.9,-72.9" /></g>
<g stroke="rgb(0, 0, 0)"><path d="M123.9,-72.9L123.9,-59.1" /></g>
<g stroke="rgb(0, 0, 0)"><path d="M123.9,-59.1L110.1,-59.1" /></g>
<g stroke="rgb(0, 0, 0)"><path d="M110.1,-59.1L110.1,-72.9" /></g>
<g stroke="rgb(0, 0, 0)"><path d="M131.475,-99.475L145.275,-99.475" /></g>
<g stroke="rgb(0, 0, 0)"><path d="M145.275,-99.475L145.275,-85.675" /></g>
<g stroke="rgb(0, 0, 0)"><path d="M145.275,-85.675L131.475,-85.675" /></g>
<g stroke="rgb(0, 0, 0)"><path d="M131.475,-85.675L131.475,-99.475" /></g>
<g stroke="rgb(0, 0, 0)"><path d="M131.475,-82.475L145.275,-82.475" /></g>
<g stroke="rgb(0, 0, 0)"><path d="M145.275,-82.475L145.275,-68.675" /></g>
<g stroke="rgb(0, 0, 0)"><path d="M145.275,-68.675L131.475,-68.675" /></g>
<g stroke="rgb(0, 0, 0)"><path d="M131.475,-68.675L131.475,-82.475" /></g>
<g stroke="rgb(0, 0, 0)"><path d="M131.475,-65.475L145.275,-65.475" /></g>
<g stroke="rgb(0, 0, 0)"><path d="M145.275,-65.475L145.275,-51.675" /></g>
<g stroke="rgb(0, 0, 0)"><path d="M145.275,-51.675L131.475,-51.675" /></g>
<g stroke="rgb(0, 0, 0)"><path d="M131.475,-51.675L131.475,-65.475" /></g>
<g stroke="rgb(0, 0, 0)"><path d="M154.0432682,-101.1963139L167.8301337,-101.7982614" /></g>
<g stroke="rgb(0, 0, 0)"><path d="M167.8301337,-101.7982614L168.4320812,-88.0113959" /></g>
<g stroke="rgb(0, 0, 0)"><path d="M168.4320812,-88.0113959L154.6452157,-87.4094484" /></g>
<g stroke="rgb(0, 0, 0)"><path d="M154.6452157,-87.4094484L154.0432682,-101.1963139" /></g>
<g stroke="rgb(0, 0, 0)"><path d="M154.7847978,-84.2124941L168.5716633,-84.8144416" /></g>
<g stroke="rgb(0, 0, 0)"><path d="M168.5716633,-84.8144416L169.1736108,-71.0275761" /></g>
<g stroke="rgb(0, 0, 0)"><path d="M169.1736108,-71.0275761L155.3867453,-70.4256286" /></g>
<g stroke="rgb(0, 0, 0)"><path d="M155.3867453,-70.4256286L154.7847978,-84.2124941" /></g>
<g stroke="rgb(0, 0, 0)"><path d="M155.5263274,-67.2286743L169.3131929,-67.8306218" /></g>
<g stroke="rgb(0, 0, 0)"><path d="M169.3131929,-67.8306218L169.9151404,-54.0437563" /></g>
<g stroke="rgb(0, 0, 0)"><path d="M169.9151404,-54.0437563L156.1282749,-53.4418088" /></g>
<g stroke="rgb(0, 0, 0)"><path d="M156.1282749,-53.4418088L155.5263274,-67.2286743" /></g>
<g stroke="rgb(0, 0, 0)"><path d="M174.2726088,-109.4078348L188.0200956,-110.610584" /></g>
<g stroke="rgb(0, 0, 0)"><path d="M188.0200956,-110.610584L189.2228448,-96.8630972" /></g>
<g stroke="rgb(0, 0, 0)"><path d="M189.2228448,-96.8630972L175.475358,-95.660348" /></g>
<g stroke="rgb(0, 0, 0)"><path d="M175.475358,-95.660348L174.2726088,-109.4078348" /></g>
<g stroke="rgb(0, 0, 0)"><path d="M175.7542564,-92.4725249L189.5017432,-93.6752741" /></g>
<g stroke="rgb(0, 0, 0)"><path d="M189.5017432,-93.6752741L190.7044924,-79.9277873" /></g>
<g stroke="rgb(0, 0, 0)"><path d="M190.7044924,-79.9277873L176.9570056,-78.7250381" /></g>
<g stroke="rgb(0, 0, 0)"><path d="M176.9570056,-78.7250381L175.7542564,-92.4725249" /></g>
<g stroke="rgb(0, 0, 0)"><path d="M177.235904,-75.537215L190.9833908,-76.7399642" /></g>
<g stroke="rgb(0, 0, 0)"><path d="M190.9833908,-76.7399642L192.18614,-62.9924774" /></g>
<g stroke="rgb(0, 0, 0)"><path d="M192.18614,-62.9924774L178.4386532,-61.7897282" /></g>
<g stroke="rgb(0, 0, 0)"><path d="M178.4386532,-61.7897282L177.235904,-75.537215" /></g>
<g stroke="rgb(0, 0, 0)"><path d="M192.9336023,-91.1648274L191.7308531,-104.9123142" /></g>
<g stroke="rgb(0, 0, 0)"><path d="M191.7308531,-104.9123142L205.4783399,-106.1150634" /></g>
<g stroke="rgb(0, 0, 0)"><path d="M205.4783399,-106.1150634L206.6810891,-92.3675766" /></g>
<g stroke="rgb(0, 0, 0)"><path d="M206.6810891,-92.3675766L192.9336023,-91.1648274" /></g>
<g stroke="rgb(0, 0, 0)"><path d="M194.8292397,-69.4975927L193.6264905,-83.2450795" /></g>
<g stroke="rgb(0, 0, 0)"><path d="M193.6264905,-83.2450795L207.3739773,-84.4478287" /></g>
<g stroke="rgb(0, 0, 0)"><path d="M207.3739773,-84.4478287L208.5767265,-70.7003419" /></g>
<g stroke="rgb(0, 0, 0)"><path d="M208.5767265,-70.7003419L194.8292397,-69.4975927" /></g>
<g stroke="rgb(0, 0, 0)"><path d="M88.5596035,-134.9308079L84.7558079,-121.6653965" /></g>
<g stroke="rgb(0, 0, 0)"><path d="M84.7558079,-121.6653965L71.4903965,-125.4691921" /></g>
<g stroke="rgb(0, 0, 0)"><path d="M71.4903965,-125.4691921L75.2941921,-138.7346035" /></g>
<g stroke="rgb(0, 0, 0)"><path d="M75.2941921,-138.7346035L88.5596035,-134.9308079" /></g>
<g stroke="rgb(0, 0, 0)"><path d="M104.2039456,-128.2484954L102.0451499,-114.6183963" /></g>
<g stroke="rgb(0, 0, 0)"><path d="M102.0451499,-114.6183963L88.4150508,-116.777192" /></g>
<g stroke="rgb(0, 0, 0)"><path d="M88.4150508,-116.777192L90.5738465,-130.4072911" /></g>
<g stroke="rgb(0, 0, 0)"><path d="M90.5738465,-130.4072911L104.2039456,-128.2484954" /></g>
<g stroke="rgb(0, 0, 0)"><path d="M121.1870467,-110.7180328L107.4206628,-109.7553935" /></g>
<g stroke="rgb(0, 0, 0)"><path d="M107.4206628,-109.7553935L106.4580235,-123.5217774" /></g>
<g stroke="rgb(0, 0, 0)"><path d="M106.4580235,-123.5217774L120.2244074,-124.4844167" /></g>
<g stroke="rgb(0, 0, 0)"><path d="M120.2244074,-124.4844167L121.1870467,-110.7180328" /></g>
  </g>
</svg>