<svg width="157.98mm" height="110mm" viewBox="0 0 157.98 110" xmlns="http://www.w3.org/2000/svg"><g id="svgGroup" stroke-linecap="round" fill-rule="evenodd" font-size="9pt" stroke="#000" stroke-width="0.25mm" fill="none" style="stroke:#000;stroke-width:0.25mm;fill:none"><path d="M 156.734 25.148 A 190.5 190.5 0 0 0 40.282 16.368 A 2 2 0 0 0 38.75 18.312 L 38.75 59.608 A 1 1 0 0 1 38.736 59.775 A 29.5 29.5 0 0 1 18.432 83.012 A 2 2 0 0 0 17.105 85.473 L 21.988 102.502 A 2 2 0 0 0 24.279 103.916 A 140.5 140.5 0 0 0 68.013 87.853 A 2 2 0 0 0 68.082 87.812 L 69.393 86.992 A 2 2 0 0 0 69.6 86.844 A 56.5 56.5 0 0 1 108.081 74.14 A 2 2 0 0 0 108.142 74.142 L 151.928 74.906 A 2 2 0 0 0 153.956 73.081 L 157.972 27.175 A 2 2 0 0 0 156.734 25.148 Z M 101.543 62.696 L 115.33 63.298 L 115.932 49.511 L 102.145 48.909 L 101.543 62.696 Z M 103.026 28.729 L 116.813 29.331 L 117.415 15.544 L 103.628 14.942 L 103.026 28.729 Z M 102.285 45.712 L 116.072 46.314 L 116.674 32.528 L 102.887 31.926 L 102.285 45.712 Z M 36.06 96.431 L 32.256 83.165 L 18.99 86.969 L 22.794 100.235 L 36.06 96.431 Z M 51.704 89.748 L 49.545 76.118 L 35.915 78.277 L 38.074 91.907 L 51.704 89.748 Z M 67.724 85.984 L 68.687 72.218 L 54.921 71.255 L 53.958 85.022 L 67.724 85.984 Z M 78.975 60.975 L 92.775 60.975 L 92.775 47.175 L 78.975 47.175 L 78.975 60.975 Z M 78.975 43.975 L 92.775 43.975 L 92.775 30.175 L 78.975 30.175 L 78.975 43.975 Z M 78.975 26.975 L 92.775 26.975 L 92.775 13.175 L 78.975 13.175 L 78.975 26.975 Z M 40.6 68.4 L 54.4 68.4 L 54.4 54.6 L 40.6 54.6 L 40.6 68.4 Z M 40.6 51.4 L 54.4 51.4 L 54.4 37.6 L 40.6 37.6 L 40.6 51.4 Z M 40.6 34.4 L 54.4 34.4 L 54.4 20.6 L 40.6 20.6 L 40.6 34.4 Z M 57.6 68.4 L 71.4 68.4 L 71.4 54.6 L 57.6 54.6 L 57.6 68.4 Z M 57.6 51.4 L 71.4 51.4 L 71.4 37.6 L 57.6 37.6 L 57.6 51.4 Z M 57.6 34.4 L 71.4 34.4 L 71.4 20.6 L 57.6 20.6 L 57.6 34.4 Z M 123.254 53.973 L 137.002 55.175 L 138.204 41.428 L 124.457 40.225 L 123.254 53.973 Z M 140.434 52.665 L 139.231 66.412 L 152.978 67.615 L 154.181 53.868 L 140.434 52.665 Z M 142.329 30.998 L 141.126 44.745 L 154.874 45.948 L 156.077 32.2 L 142.329 30.998 Z M 121.773 70.908 L 135.52 72.111 L 136.723 58.363 L 122.975 57.16 L 121.773 70.908 Z M 124.736 37.037 L 138.483 38.24 L 139.686 24.492 L 125.939 23.29 L 124.736 37.037 Z M 0 5 L 5 5 L 5 0 L 0 0 L 0 5 Z M 0 110 L 5 110 L 5 105 L 0 105 L 0 110 Z" vector-effect="non-scaling-stroke"/></g></svg>