<?xml version="1.0"?>
<svg
  xmlns="http://www.w3.org/2000/svg"
  xmlns:xlink="http://www.w3.org/1999/xlink" version="1.1"
  preserveAspectRatio="xMinYMin meet"
  viewBox="67.0362405 49.099999999999994 145.12748749999997 93.77770029999999"
  width="100%" height="100%"
>
  <g stroke="#000000" stroke-width="0.1%" fill="none" transform="matrix(1,0,0,-1,0,0)">
    <g stroke="rgb(0, 0, 0)"><path d="M150.8575824,-114.9999999L206.1808724,-115" /></g>
<g stroke="rgb(0, 0, 0)"><path d="M 206.1808724 -115 A 2 2 0 0 1 208.17326180348502 -113.1743114020383" /></g>
<g stroke="rgb(0, 0, 0)"><path d="M212.1560694,-67.6506112L208.1732893,-113.1739964" /></g>
<g stroke="rgb(0, 0, 0)"><path d="M 212.156117403485 -67.6500655020383 A 2 2 0 0 1 211.0490747253884 -65.68238822103274" /></g>
<g stroke="rgb(0, 0, 0)"><path d="M 211.04907471242018 -65.68238821287736 A 160.5 160.5 0 0 1 92.40694026606553 -56.31872043474405" /></g>
<g stroke="rgb(0, 0, 0)"><path d="M 92.40694026562076 -56.31872040261363 A 2 2 0 0 1 91.00000023332422 -58.22840240155712" /></g>
<g stroke="rgb(0, 0, 0)"><path d="M91.0000001,-91.1696005L91.0000001,-58.2287675" /></g>
<g stroke="rgb(0, 0, 0)"><path d="M 90.93023265945618 -91.53657105103589 A 1 1 0 0 1 91.0000001 -91.1696005" /></g>
<g stroke="rgb(0, 0, 0)"><path d="M 67.87961116166827 -120.93580314958143 A 65.5 65.5 0 0 1 90.93023264438054 -91.53657109285065" /></g>
<g stroke="rgb(0, 0, 0)"><path d="M 67.87961115155213 -120.93580312291354 A 2 2 0 0 1 67.07994530216114 -122.98325409870742" /></g>
<g stroke="rgb(0, 0, 0)"><path d="M70.9719131,-141.2935237L67.0799453,-122.9832541" /></g>
<g stroke="rgb(0, 0, 0)"><path d="M 70.97198916333325 -141.2938809075431 A 2 2 0 0 1 73.09287279902806 -142.87091018249924" /></g>
<g stroke="rgb(0, 0, 0)"><path d="M 73.09323663824007 -142.87088010096838 A 140.5 140.5 0 0 1 142.49832468032469 -117.65209666630966" /></g>
<g stroke="rgb(0, 0, 0)"><path d="M 150.8575824 -114.9999999 A 14.5 14.5 0 0 1 142.4983246927779 -117.65209668532746" /></g>
  </g>
</svg>