<?xml version="1.0"?>
<svg
  xmlns="http://www.w3.org/2000/svg"
  xmlns:xlink="http://www.w3.org/1999/xlink" version="1.1"
  preserveAspectRatio="xMinYMin meet"
  viewBox="52.5 38.5 155.0137315 110"
  width="100%" height="100%"
>
  <g stroke="#000000" stroke-width="0.1%" fill="none" transform="matrix(1,0,0,-1,0,0)">
    <g stroke="rgb(0, 0, 0)"><path d="M52.5,-43.5L57.5,-43.5" /></g>
<g stroke="rgb(0, 0, 0)"><path d="M57.5,-43.5L57.5,-38.5" /></g>
<g stroke="rgb(0, 0, 0)"><path d="M57.5,-38.5L52.5,-38.5" /></g>
<g stroke="rgb(0, 0, 0)"><path d="M52.5,-38.5L52.5,-43.5" /></g>
<g stroke="rgb(0, 0, 0)"><path d="M52.5,-148.5L57.5,-148.5" /></g>
<g stroke="rgb(0, 0, 0)"><path d="M57.5,-148.5L57.5,-143.5" /></g>
<g stroke="rgb(0, 0, 0)"><path d="M57.5,-143.5L52.5,-143.5" /></g>
<g stroke="rgb(0, 0, 0)"><path d="M52.5,-143.5L52.5,-148.5" /></g>
<g stroke="rgb(0, 0, 0)"><path d="M 206.25790901717357 -63.25344246454816 A 190.5 190.5 0 0 1 93.25782483836181 -54.28911906066733" /></g>
<g stroke="rgb(0, 0, 0)"><path d="M 93.25782483268621 -54.28911906362905 A 2 2 0 0 1 91.6999999 -56.239627" /></g>
<g stroke="rgb(0, 0, 0)"><path d="M91.7,-92.7778889L91.7,-56.2399432" /></g>
<g stroke="rgb(0, 0, 0)"><path d="M 91.69999998160117 -92.77788889046856 A 0.5 0.5 0 0 1 91.64799232854624 -93.00583329994882" /></g>
<g stroke="rgb(0, 0, 0)"><path d="M 70.93239618584555 -121.51237769143162 A 29.5 29.5 0 0 1 91.64799229294621 -93.00583334663885" /></g>
<g stroke="rgb(0, 0, 0)"><path d="M 70.93209680700127 -121.51247102855987 A 2 2 0 0 1 69.6049698312151 -123.97306589216446" /></g>
<g stroke="rgb(0, 0, 0)"><path d="M74.4892568,-141.006598L69.6050571,-123.9733698" /></g>
<g stroke="rgb(0, 0, 0)"><path d="M 74.48934383121511 -141.00690199216447 A 2 2 0 0 1 76.78785084169529 -142.4199683875684" /></g>
<g stroke="rgb(0, 0, 0)"><path d="M 76.78785082909368 -142.4199684266787 A 140.5 140.5 0 0 1 117.5509884124887 -127.82531029460657" /></g>
<g stroke="rgb(0, 0, 0)"><path d="M 117.5513091187004 -127.82513563305542 A 2 2 0 0 1 117.66934584613355 -127.75550507287048" /></g>
<g stroke="rgb(0, 0, 0)"><path d="M122.0535831,-124.9624378L117.6693458,-127.7555051" /></g>
<g stroke="rgb(0, 0, 0)"><path d="M 122.05358314613356 -124.96243777287049 A 2 2 0 0 1 122.22329214184316 -124.84144447694871" /></g>
<g stroke="rgb(0, 0, 0)"><path d="M 158.57853783957276 -112.58782006801262 A 56.5 56.5 0 0 1 122.2232921679308 -124.84144445119921" /></g>
<g stroke="rgb(0, 0, 0)"><path d="M 158.57853782265866 -112.5878200480707 A 0.5 0.5 0 0 1 158.76141589601488 -112.5573349896732" /></g>
<g stroke="rgb(0, 0, 0)"><path d="M201.4174948,-113.4508524L158.7614159,-112.557335" /></g>
<g stroke="rgb(0, 0, 0)"><path d="M 201.417494702112 -113.45085246782693 A 2 2 0 0 1 203.45176890348503 -111.6256025020383" /></g>
<g stroke="rgb(0, 0, 0)"><path d="M207.5060933,-65.2844633L203.4517964,-111.6252875" /></g>
<g stroke="rgb(0, 0, 0)"><path d="M 207.50612090348503 -65.2841482020383 A 2 2 0 0 1 206.25824799385873 -63.253578415406864" /></g>
<g stroke="rgb(0, 0, 0)"><path d="M93.1,-106.9L106.9,-106.9" /></g>
<g stroke="rgb(0, 0, 0)"><path d="M106.9,-106.9L106.9,-93.1" /></g>
<g stroke="rgb(0, 0, 0)"><path d="M106.9,-93.1L93.1,-93.1" /></g>
<g stroke="rgb(0, 0, 0)"><path d="M93.1,-93.1L93.1,-106.9" /></g>
<g stroke="rgb(0, 0, 0)"><path d="M93.1,-89.9L106.9,-89.9" /></g>
<g stroke="rgb(0, 0, 0)"><path d="M106.9,-89.9L106.9,-76.1" /></g>
<g stroke="rgb(0, 0, 0)"><path d="M106.9,-76.1L93.1,-76.1" /></g>
<g stroke="rgb(0, 0, 0)"><path d="M93.1,-76.1L93.1,-89.9" /></g>
<g stroke="rgb(0, 0, 0)"><path d="M93.1,-72.9L106.9,-72.9" /></g>
<g stroke="rgb(0, 0, 0)"><path d="M106.9,-72.9L106.9,-59.1" /></g>
<g stroke="rgb(0, 0, 0)"><path d="M106.9,-59.1L93.1,-59.1" /></g>
<g stroke="rgb(0, 0, 0)"><path d="M93.1,-59.1L93.1,-72.9" /></g>
<g stroke="rgb(0, 0, 0)"><path d="M110.1,-106.9L123.9,-106.9" /></g>
<g stroke="rgb(0, 0, 0)"><path d="M123.9,-106.9L123.9,-93.1" /></g>
<g stroke="rgb(0, 0, 0)"><path d="M123.9,-93.1L110.1,-93.1" /></g>
<g stroke="rgb(0, 0, 0)"><path d="M110.1,-93.1L110.1,-106.9" /></g>
<g stroke="rgb(0, 0, 0)"><path d="M110.1,-89.9L123.9,-89.9" /></g>
<g stroke="rgb(0, 0, 0)"><path d="M123.9,-89.9L123.9,-76.1" /></g>
<g stroke="rgb(0, 0, 0)"><path d="M123.9,-76.1L110.1,-76.1" /></g>
<g stroke="rgb(0, 0, 0)"><path d="M110.1,-76.1L110.1,-89.9" /></g>
<g stroke="rgb(0, 0, 0)"><path d="M110.1,-72.9L123.9,-72.9" /></g>
<g stroke="rgb(0, 0, 0)"><path d="M123.9,-72.9L123.9,-59.1" /></g>
<g stroke="rgb(0, 0, 0)"><path d="M123.9,-59.1L110.1,-59.1" /></g>
<g stroke="rgb(0, 0, 0)"><path d="M110.1,-59.1L110.1,-72.9" /></g>
<g stroke="rgb(0, 0, 0)"><path d="M129.475,-99.475L143.275,-99.475" /></g>
<g stroke="rgb(0, 0, 0)"><path d="M143.275,-99.475L143.275,-85.675" /></g>
<g stroke="rgb(0, 0, 0)"><path d="M143.275,-85.675L129.475,-85.675" /></g>
<g stroke="rgb(0, 0, 0)"><path d="M129.475,-85.675L129.475,-99.475" /></g>
<g stroke="rgb(0, 0, 0)"><path d="M129.475,-82.475L143.275,-82.475" /></g>
<g stroke="rgb(0, 0, 0)"><path d="M143.275,-82.475L143.275,-68.675" /></g>
<g stroke="rgb(0, 0, 0)"><path d="M143.275,-68.675L129.475,-68.675" /></g>
<g stroke="rgb(0, 0, 0)"><path d="M129.475,-68.675L129.475,-82.475" /></g>
<g stroke="rgb(0, 0, 0)"><path d="M129.475,-65.475L143.275,-65.475" /></g>
<g stroke="rgb(0, 0, 0)"><path d="M143.275,-65.475L143.275,-51.675" /></g>
<g stroke="rgb(0, 0, 0)"><path d="M143.275,-51.675L129.475,-51.675" /></g>
<g stroke="rgb(0, 0, 0)"><path d="M129.475,-51.675L129.475,-65.475" /></g>
<g stroke="rgb(0, 0, 0)"><path d="M151.0432682,-101.1963139L164.8301337,-101.7982614" /></g>
<g stroke="rgb(0, 0, 0)"><path d="M164.8301337,-101.7982614L165.4320812,-88.0113959" /></g>
<g stroke="rgb(0, 0, 0)"><path d="M165.4320812,-88.0113959L151.6452157,-87.4094484" /></g>
<g stroke="rgb(0, 0, 0)"><path d="M151.6452157,-87.4094484L151.0432682,-101.1963139" /></g>
<g stroke="rgb(0, 0, 0)"><path d="M151.7847978,-84.2124941L165.5716633,-84.8144416" /></g>
<g stroke="rgb(0, 0, 0)"><path d="M165.5716633,-84.8144416L166.1736108,-71.0275761" /></g>
<g stroke="rgb(0, 0, 0)"><path d="M166.1736108,-71.0275761L152.3867453,-70.4256286" /></g>
<g stroke="rgb(0, 0, 0)"><path d="M152.3867453,-70.4256286L151.7847978,-84.2124941" /></g>
<g stroke="rgb(0, 0, 0)"><path d="M152.5263274,-67.2286743L166.3131929,-67.8306218" /></g>
<g stroke="rgb(0, 0, 0)"><path d="M166.3131929,-67.8306218L166.9151404,-54.0437563" /></g>
<g stroke="rgb(0, 0, 0)"><path d="M166.9151404,-54.0437563L153.1282749,-53.4418088" /></g>
<g stroke="rgb(0, 0, 0)"><path d="M153.1282749,-53.4418088L152.5263274,-67.2286743" /></g>
<g stroke="rgb(0, 0, 0)"><path d="M171.2726088,-109.4078348L185.0200956,-110.610584" /></g>
<g stroke="rgb(0, 0, 0)"><path d="M185.0200956,-110.610584L186.2228448,-96.8630972" /></g>
<g stroke="rgb(0, 0, 0)"><path d="M186.2228448,-96.8630972L172.475358,-95.660348" /></g>
<g stroke="rgb(0, 0, 0)"><path d="M172.475358,-95.660348L171.2726088,-109.4078348" /></g>
<g stroke="rgb(0, 0, 0)"><path d="M172.7542564,-92.4725249L186.5017432,-93.6752741" /></g>
<g stroke="rgb(0, 0, 0)"><path d="M186.5017432,-93.6752741L187.7044924,-79.9277873" /></g>
<g stroke="rgb(0, 0, 0)"><path d="M187.7044924,-79.9277873L173.9570056,-78.7250381" /></g>
<g stroke="rgb(0, 0, 0)"><path d="M173.9570056,-78.7250381L172.7542564,-92.4725249" /></g>
<g stroke="rgb(0, 0, 0)"><path d="M174.235904,-75.537215L187.9833908,-76.7399642" /></g>
<g stroke="rgb(0, 0, 0)"><path d="M187.9833908,-76.7399642L189.18614,-62.9924774" /></g>
<g stroke="rgb(0, 0, 0)"><path d="M189.18614,-62.9924774L175.4386532,-61.7897282" /></g>
<g stroke="rgb(0, 0, 0)"><path d="M175.4386532,-61.7897282L174.235904,-75.537215" /></g>
<g stroke="rgb(0, 0, 0)"><path d="M189.9336023,-91.1648274L188.7308531,-104.9123142" /></g>
<g stroke="rgb(0, 0, 0)"><path d="M188.7308531,-104.9123142L202.4783399,-106.1150634" /></g>
<g stroke="rgb(0, 0, 0)"><path d="M202.4783399,-106.1150634L203.6810891,-92.3675766" /></g>
<g stroke="rgb(0, 0, 0)"><path d="M203.6810891,-92.3675766L189.9336023,-91.1648274" /></g>
<g stroke="rgb(0, 0, 0)"><path d="M191.8292397,-69.4975927L190.6264905,-83.2450795" /></g>
<g stroke="rgb(0, 0, 0)"><path d="M190.6264905,-83.2450795L204.3739773,-84.4478287" /></g>
<g stroke="rgb(0, 0, 0)"><path d="M204.3739773,-84.4478287L205.5767265,-70.7003419" /></g>
<g stroke="rgb(0, 0, 0)"><path d="M205.5767265,-70.7003419L191.8292397,-69.4975927" /></g>
<g stroke="rgb(0, 0, 0)"><path d="M88.5596035,-134.9308079L84.7558079,-121.6653965" /></g>
<g stroke="rgb(0, 0, 0)"><path d="M84.7558079,-121.6653965L71.4903965,-125.4691921" /></g>
<g stroke="rgb(0, 0, 0)"><path d="M71.4903965,-125.4691921L75.2941921,-138.7346035" /></g>
<g stroke="rgb(0, 0, 0)"><path d="M75.2941921,-138.7346035L88.5596035,-134.9308079" /></g>
<g stroke="rgb(0, 0, 0)"><path d="M104.2039456,-128.2484954L102.0451499,-114.6183963" /></g>
<g stroke="rgb(0, 0, 0)"><path d="M102.0451499,-114.6183963L88.4150508,-116.777192" /></g>
<g stroke="rgb(0, 0, 0)"><path d="M88.4150508,-116.777192L90.5738465,-130.4072911" /></g>
<g stroke="rgb(0, 0, 0)"><path d="M90.5738465,-130.4072911L104.2039456,-128.2484954" /></g>
<g stroke="rgb(0, 0, 0)"><path d="M120.2244074,-124.4844167L121.1870467,-110.7180328" /></g>
<g stroke="rgb(0, 0, 0)"><path d="M121.1870467,-110.7180328L107.4206628,-109.7553935" /></g>
<g stroke="rgb(0, 0, 0)"><path d="M107.4206628,-109.7553935L106.4580235,-123.5217774" /></g>
<g stroke="rgb(0, 0, 0)"><path d="M106.4580235,-123.5217774L120.2244074,-124.4844167" /></g>
  </g>
</svg>